M48
; DRILL file {KiCad (5.1.5)-3} date 07/04/20 04:53:39
; FORMAT={-:-/ absolute / inch / decimal}
; #@! TF.CreationDate,2020-07-04T04:53:39+02:00
; #@! TF.GenerationSoftware,Kicad,Pcbnew,(5.1.5)-3
; #@! TF.FileFunction,Plated,1,2,PTH
FMAT,2
INCH
T1C0.0157
T2C0.0197
T3C0.0315
T4C0.0394
T5C0.0598
%
G90
G05
T1
X3.7672Y-12.3972
X3.8Y-12.4298
X3.97Y-12.41
X3.99Y-9.17
X4.0292Y-9.1732
X4.0638Y-9.1921
X4.08Y-12.0615
X4.1Y-9.17
X4.15Y-12.38
X4.19Y-9.23
X4.2317Y-9.2468
X4.2377Y-12.3887
X4.27Y-12.4199
X4.2906Y-9.2506
X4.33Y-9.26
X4.45Y-12.31
X4.6Y-11.45
X4.62Y-11.5097
X4.63Y-12.37
X4.65Y-9.24
X4.68Y-9.27
X4.6815Y-8.68
X4.7158Y-12.4194
X4.7202Y-9.2702
X4.7585Y-8.68
X4.76Y-12.4199
X4.77Y-9.27
X4.93Y-12.31
X5.05Y-12.13
X5.1Y-12.0817
X5.11Y-12.38
X5.14Y-11.77
X5.16Y-12.0817
X5.18Y-11.8
X5.199Y-12.4096
X5.22Y-11.8
X5.227Y-12.09
X5.237Y-12.4199
X5.25Y-8.46
X5.28Y-11.8
X5.32Y-11.8
X5.32Y-12.04
X5.35Y-12.01
X5.3714Y-11.7721
X5.4Y-12.3
X5.5597Y-8.5297
X5.56Y-8.34
X5.5705Y-11.79
X5.585Y-12.375
X5.59Y-8.45
X5.5957Y-11.568
X5.6347Y-11.5737
X5.65Y-9.45
X5.65Y-11.66
X5.66Y-8.59
X5.6798Y-12.0202
X5.68Y-11.8
X5.68Y-12.41
X5.6808Y-9.4195
X5.7098Y-12.0502
X5.7181Y-12.4199
X5.7204Y-9.4203
X5.74Y-11.8
X5.8Y-11.8
X5.8Y-12.084
X5.83Y-8.4
X5.84Y-11.8
X5.86Y-12.084
X5.87Y-8.6395
X5.89Y-11.78
X5.89Y-12.3
X5.9Y-8.61
X5.9Y-8.7143
X6.0045Y-11.9072
X6.07Y-12.38
X6.1597Y-12.42
X6.1912Y-12.447
X6.3437Y-12.3158
X6.36Y-11.7
X6.38Y-8.41
X6.44Y-11.9715
X6.44Y-12.084
X6.535Y-12.375
X6.6259Y-12.4167
X6.64Y-11.9715
X6.66Y-10.96
X6.66Y-12.05
X6.67Y-12.3912
X6.6973Y-10.9476
X6.73Y-10.97
X6.761Y-10.94
X7.03Y-10.96
X7.035Y-12.38
X7.0694Y-10.96
X7.1087Y-10.96
X7.12Y-12.4199
X7.1481Y-10.96
X7.1748Y-12.3912
X7.1867Y-8.46
X7.1867Y-8.51
X7.255Y-12.22
X7.76Y-9.09
T2
X3.68Y-12.32
X3.87Y-12.57
X4.16Y-12.32
X4.35Y-12.58
X4.64Y-12.31
X4.84Y-12.58
X5.13Y-12.32
X5.32Y-12.58
X5.57Y-11.96
X5.62Y-12.08
X5.62Y-12.32
X5.8Y-12.59
X5.93Y-11.9
X5.97Y-8.45
X6.06Y-11.9
X6.1Y-12.32
X6.1819Y-11.8
X6.28Y-12.59
X6.38Y-8.59
X6.56Y-12.32
X6.75Y-12.59
X7.06Y-12.33
X7.0989Y-11.7689
X7.1195Y-11.8595
X7.24Y-12.6
X7.4868Y-12.1968
T3
X7.04Y-9.11
X7.5468Y-12.5868
X7.66Y-10.43
T4
X3.88Y-11.95
X5.58Y-11.04
X5.6622Y-11.43
X6.0578Y-11.48
X6.2Y-11.48
X7.4Y-10.17
X6.89Y-8.29
X6.89Y-8.39
X6.89Y-8.49
X6.89Y-8.59
X6.51Y-8.29
X6.51Y-8.39
X6.51Y-8.49
X6.51Y-8.59
X5.4543Y-12.1632
X5.4543Y-12.2632
X5.4543Y-12.3632
X5.4543Y-12.4632
X5.4543Y-12.5632
X6.39Y-12.16
X6.39Y-12.26
X6.39Y-12.36
X6.39Y-12.46
X6.39Y-12.56
X5.22Y-8.3
X5.22Y-8.4
X5.32Y-8.3
X5.32Y-8.4
X5.94Y-12.1632
X5.94Y-12.2632
X5.94Y-12.3632
X5.94Y-12.4632
X5.94Y-12.5632
X7.33Y-8.46
X7.43Y-8.46
X3.73Y-8.3
X3.73Y-8.4
X3.83Y-8.3
X3.83Y-8.4
X3.93Y-8.3
X3.93Y-8.4
X4.03Y-8.3
X4.03Y-8.4
X4.13Y-8.3
X4.13Y-8.4
X4.23Y-8.3
X4.23Y-8.4
X4.33Y-8.3
X4.33Y-8.4
X4.43Y-8.3
X4.43Y-8.4
X4.53Y-8.3
X4.53Y-8.4
X4.63Y-8.3
X4.63Y-8.4
X4.73Y-8.3
X4.73Y-8.4
X4.83Y-8.3
X4.83Y-8.4
X4.93Y-8.3
X4.93Y-8.4
X6.8986Y-12.1632
X6.8986Y-12.2632
X6.8986Y-12.3632
X6.8986Y-12.4632
X6.8986Y-12.5632
X4.0101Y-12.1632
X4.0101Y-12.2632
X4.0101Y-12.3632
X4.0101Y-12.4632
X4.0101Y-12.5632
X3.7Y-11.73
X3.7Y-11.83
X3.8Y-11.73
X3.8Y-11.83
X3.9Y-11.73
X3.9Y-11.83
X4.0Y-11.73
X4.0Y-11.83
X4.1Y-11.73
X4.1Y-11.83
X4.2Y-11.73
X4.2Y-11.83
X4.3Y-11.73
X4.3Y-11.83
X4.4Y-11.73
X4.4Y-11.83
X4.5Y-11.73
X4.5Y-11.83
X4.6Y-11.73
X4.6Y-11.83
X4.7Y-11.73
X4.7Y-11.83
X4.8Y-11.73
X4.8Y-11.83
X4.9Y-11.73
X4.9Y-11.83
X7.38Y-12.1632
X7.38Y-12.2632
X7.38Y-12.3632
X7.38Y-12.4632
X7.38Y-12.5632
X3.81Y-8.84
X3.81Y-8.84
X3.81Y-8.84
X3.81Y-8.84
X3.81Y-8.94
X3.81Y-8.94
X3.81Y-8.94
X3.81Y-8.94
X3.81Y-8.94
X3.81Y-8.94
X3.81Y-8.94
X3.81Y-8.94
X3.81Y-11.24
X3.81Y-11.34
X3.91Y-8.84
X3.91Y-8.84
X3.91Y-8.84
X3.91Y-8.84
X3.91Y-8.94
X3.91Y-8.94
X3.91Y-8.94
X3.91Y-8.94
X3.91Y-11.24
X3.91Y-11.34
X4.01Y-8.84
X4.01Y-8.84
X4.01Y-8.84
X4.01Y-8.84
X4.01Y-8.94
X4.01Y-8.94
X4.01Y-8.94
X4.01Y-8.94
X4.01Y-11.24
X4.01Y-11.34
X4.11Y-8.84
X4.11Y-8.84
X4.11Y-8.84
X4.11Y-8.84
X4.11Y-8.94
X4.11Y-8.94
X4.11Y-8.94
X4.11Y-8.94
X4.11Y-11.24
X4.11Y-11.34
X4.21Y-8.84
X4.21Y-8.84
X4.21Y-8.84
X4.21Y-8.84
X4.21Y-8.94
X4.21Y-8.94
X4.21Y-8.94
X4.21Y-8.94
X4.21Y-11.24
X4.21Y-11.34
X4.31Y-8.84
X4.31Y-8.84
X4.31Y-8.84
X4.31Y-8.84
X4.31Y-8.94
X4.31Y-8.94
X4.31Y-8.94
X4.31Y-8.94
X4.31Y-11.24
X4.31Y-11.34
X4.41Y-8.84
X4.41Y-8.84
X4.41Y-8.84
X4.41Y-8.84
X4.41Y-8.94
X4.41Y-8.94
X4.41Y-8.94
X4.41Y-8.94
X4.41Y-11.24
X4.41Y-11.34
X4.51Y-8.84
X4.51Y-8.84
X4.51Y-8.84
X4.51Y-8.84
X4.51Y-8.94
X4.51Y-8.94
X4.51Y-8.94
X4.51Y-8.94
X4.51Y-11.24
X4.51Y-11.34
X4.61Y-8.84
X4.61Y-8.84
X4.61Y-8.84
X4.61Y-8.84
X4.61Y-8.94
X4.61Y-8.94
X4.61Y-8.94
X4.61Y-8.94
X4.61Y-11.24
X4.61Y-11.34
X4.71Y-8.84
X4.71Y-8.84
X4.71Y-8.84
X4.71Y-8.84
X4.71Y-8.94
X4.71Y-8.94
X4.71Y-8.94
X4.71Y-8.94
X4.71Y-11.24
X4.71Y-11.34
X4.81Y-8.84
X4.81Y-8.84
X4.81Y-8.84
X4.81Y-8.84
X4.81Y-8.94
X4.81Y-8.94
X4.81Y-8.94
X4.81Y-8.94
X4.81Y-11.24
X4.81Y-11.34
X4.91Y-8.84
X4.91Y-8.84
X4.91Y-8.84
X4.91Y-8.84
X4.91Y-8.94
X4.91Y-8.94
X4.91Y-8.94
X4.91Y-8.94
X4.91Y-11.24
X4.91Y-11.34
X5.01Y-8.84
X5.01Y-8.84
X5.01Y-8.84
X5.01Y-8.84
X5.01Y-8.94
X5.01Y-8.94
X5.01Y-8.94
X5.01Y-8.94
X5.01Y-11.24
X5.01Y-11.34
X5.11Y-8.84
X5.11Y-8.84
X5.11Y-8.84
X5.11Y-8.84
X5.11Y-8.94
X5.11Y-8.94
X5.11Y-8.94
X5.11Y-8.94
X5.11Y-11.24
X5.11Y-11.34
X5.21Y-8.84
X5.21Y-8.84
X5.21Y-8.84
X5.21Y-8.84
X5.21Y-8.94
X5.21Y-8.94
X5.21Y-8.94
X5.21Y-8.94
X5.21Y-11.24
X5.21Y-11.34
X5.31Y-8.84
X5.31Y-8.84
X5.31Y-8.84
X5.31Y-8.84
X5.31Y-8.94
X5.31Y-8.94
X5.31Y-8.94
X5.31Y-8.94
X5.31Y-11.24
X5.31Y-11.34
X5.41Y-8.84
X5.41Y-8.84
X5.41Y-8.84
X5.41Y-8.84
X5.41Y-8.94
X5.41Y-8.94
X5.41Y-8.94
X5.41Y-8.94
X5.41Y-11.24
X5.41Y-11.34
X5.51Y-8.84
X5.51Y-8.84
X5.51Y-8.84
X5.51Y-8.84
X5.51Y-8.94
X5.51Y-8.94
X5.51Y-8.94
X5.51Y-8.94
X5.51Y-11.24
X5.51Y-11.34
X5.61Y-8.84
X5.61Y-8.84
X5.61Y-8.84
X5.61Y-8.84
X5.61Y-8.94
X5.61Y-8.94
X5.61Y-8.94
X5.61Y-8.94
X5.61Y-11.24
X5.61Y-11.34
X5.71Y-8.84
X5.71Y-8.84
X5.71Y-8.84
X5.71Y-8.84
X5.71Y-8.94
X5.71Y-8.94
X5.71Y-8.94
X5.71Y-8.94
X5.71Y-11.24
X5.71Y-11.34
X5.81Y-8.84
X5.81Y-8.84
X5.81Y-8.84
X5.81Y-8.84
X5.81Y-8.94
X5.81Y-8.94
X5.81Y-8.94
X5.81Y-8.94
X5.81Y-11.24
X5.81Y-11.34
X5.91Y-8.84
X5.91Y-8.84
X5.91Y-8.84
X5.91Y-8.84
X5.91Y-8.94
X5.91Y-8.94
X5.91Y-8.94
X5.91Y-8.94
X5.91Y-11.24
X5.91Y-11.34
X6.01Y-8.84
X6.01Y-8.84
X6.01Y-8.84
X6.01Y-8.84
X6.01Y-8.94
X6.01Y-8.94
X6.01Y-8.94
X6.01Y-8.94
X6.01Y-11.24
X6.01Y-11.34
X6.11Y-8.84
X6.11Y-8.84
X6.11Y-8.84
X6.11Y-8.84
X6.11Y-8.94
X6.11Y-8.94
X6.11Y-8.94
X6.11Y-8.94
X6.11Y-11.24
X6.11Y-11.34
X6.21Y-8.84
X6.21Y-8.84
X6.21Y-8.84
X6.21Y-8.84
X6.21Y-8.94
X6.21Y-8.94
X6.21Y-8.94
X6.21Y-8.94
X6.21Y-11.24
X6.21Y-11.34
X6.31Y-8.84
X6.31Y-8.84
X6.31Y-8.84
X6.31Y-8.84
X6.31Y-8.94
X6.31Y-8.94
X6.31Y-8.94
X6.31Y-8.94
X6.31Y-11.24
X6.31Y-11.34
X6.41Y-8.84
X6.41Y-8.84
X6.41Y-8.84
X6.41Y-8.84
X6.41Y-8.94
X6.41Y-8.94
X6.41Y-8.94
X6.41Y-8.94
X6.41Y-11.24
X6.41Y-11.34
X6.51Y-8.84
X6.51Y-8.84
X6.51Y-8.84
X6.51Y-8.84
X6.51Y-8.94
X6.51Y-8.94
X6.51Y-8.94
X6.51Y-8.94
X6.51Y-11.24
X6.51Y-11.34
X6.61Y-8.84
X6.61Y-8.84
X6.61Y-8.84
X6.61Y-8.84
X6.61Y-8.94
X6.61Y-8.94
X6.61Y-8.94
X6.61Y-8.94
X6.61Y-11.24
X6.61Y-11.34
X6.71Y-8.84
X6.71Y-8.84
X6.71Y-8.84
X6.71Y-8.84
X6.71Y-8.94
X6.71Y-8.94
X6.71Y-8.94
X6.71Y-8.94
X6.71Y-11.24
X6.71Y-11.34
X6.81Y-8.84
X6.81Y-8.84
X6.81Y-8.84
X6.81Y-8.84
X6.81Y-8.94
X6.81Y-8.94
X6.81Y-8.94
X6.81Y-8.94
X6.81Y-11.24
X6.81Y-11.34
X6.91Y-8.84
X6.91Y-8.84
X6.91Y-8.84
X6.91Y-8.84
X6.91Y-8.94
X6.91Y-8.94
X6.91Y-8.94
X6.91Y-8.94
X6.91Y-11.24
X6.91Y-11.34
X7.01Y-8.84
X7.01Y-8.84
X7.01Y-8.84
X7.01Y-8.84
X7.01Y-8.94
X7.01Y-8.94
X7.01Y-8.94
X7.01Y-8.94
X7.01Y-11.24
X7.01Y-11.34
X7.11Y-8.84
X7.11Y-8.84
X7.11Y-8.84
X7.11Y-8.84
X7.11Y-8.94
X7.11Y-8.94
X7.11Y-8.94
X7.11Y-8.94
X7.11Y-11.24
X7.11Y-11.34
X7.21Y-8.84
X7.21Y-8.84
X7.21Y-8.84
X7.21Y-8.84
X7.21Y-8.94
X7.21Y-8.94
X7.21Y-8.94
X7.21Y-8.94
X7.21Y-11.24
X7.21Y-11.34
X7.31Y-8.84
X7.31Y-8.84
X7.31Y-8.84
X7.31Y-8.84
X7.31Y-8.94
X7.31Y-8.94
X7.31Y-8.94
X7.31Y-8.94
X7.31Y-11.24
X7.31Y-11.34
X4.4915Y-12.1632
X4.4915Y-12.2632
X4.4915Y-12.3632
X4.4915Y-12.4632
X4.4915Y-12.5632
X7.34Y-8.6
X7.44Y-8.6
X7.54Y-8.6
X7.64Y-8.6
X7.74Y-8.6
X4.9729Y-12.1632
X4.9729Y-12.2632
X4.9729Y-12.3632
X4.9729Y-12.4632
X4.9729Y-12.5632
T5
X7.69Y-12.08
X7.69Y-12.28
X7.69Y-11.68
X7.69Y-11.88
T0
M30
