G04 #@! TF.GenerationSoftware,KiCad,Pcbnew,(5.1.5)-3*
G04 #@! TF.CreationDate,2020-07-04T04:53:42+02:00*
G04 #@! TF.ProjectId,mixer,6d697865-722e-46b6-9963-61645f706362,rev?*
G04 #@! TF.SameCoordinates,Original*
G04 #@! TF.FileFunction,Paste,Top*
G04 #@! TF.FilePolarity,Positive*
%FSLAX46Y46*%
G04 Gerber Fmt 4.6, Leading zero omitted, Abs format (unit mm)*
G04 Created by KiCad (PCBNEW (5.1.5)-3) date 2020-07-04 04:53:42*
%MOMM*%
%LPD*%
G04 APERTURE LIST*
%ADD10C,0.100000*%
%ADD11R,0.500000X0.800000*%
%ADD12R,0.400000X0.800000*%
%ADD13R,3.050000X2.750000*%
%ADD14R,2.200000X1.200000*%
%ADD15R,2.500000X1.800000*%
%ADD16R,1.800000X2.500000*%
%ADD17R,0.450000X1.450000*%
%ADD18R,1.400000X0.300000*%
%ADD19R,0.450000X1.400000*%
G04 APERTURE END LIST*
D10*
G36*
X142333505Y-315266204D02*
G01*
X142357773Y-315269804D01*
X142381572Y-315275765D01*
X142404671Y-315284030D01*
X142426850Y-315294520D01*
X142447893Y-315307132D01*
X142467599Y-315321747D01*
X142485777Y-315338223D01*
X142502253Y-315356401D01*
X142516868Y-315376107D01*
X142529480Y-315397150D01*
X142539970Y-315419329D01*
X142548235Y-315442428D01*
X142554196Y-315466227D01*
X142557796Y-315490495D01*
X142559000Y-315514999D01*
X142559000Y-316165001D01*
X142557796Y-316189505D01*
X142554196Y-316213773D01*
X142548235Y-316237572D01*
X142539970Y-316260671D01*
X142529480Y-316282850D01*
X142516868Y-316303893D01*
X142502253Y-316323599D01*
X142485777Y-316341777D01*
X142467599Y-316358253D01*
X142447893Y-316372868D01*
X142426850Y-316385480D01*
X142404671Y-316395970D01*
X142381572Y-316404235D01*
X142357773Y-316410196D01*
X142333505Y-316413796D01*
X142309001Y-316415000D01*
X141408999Y-316415000D01*
X141384495Y-316413796D01*
X141360227Y-316410196D01*
X141336428Y-316404235D01*
X141313329Y-316395970D01*
X141291150Y-316385480D01*
X141270107Y-316372868D01*
X141250401Y-316358253D01*
X141232223Y-316341777D01*
X141215747Y-316323599D01*
X141201132Y-316303893D01*
X141188520Y-316282850D01*
X141178030Y-316260671D01*
X141169765Y-316237572D01*
X141163804Y-316213773D01*
X141160204Y-316189505D01*
X141159000Y-316165001D01*
X141159000Y-315514999D01*
X141160204Y-315490495D01*
X141163804Y-315466227D01*
X141169765Y-315442428D01*
X141178030Y-315419329D01*
X141188520Y-315397150D01*
X141201132Y-315376107D01*
X141215747Y-315356401D01*
X141232223Y-315338223D01*
X141250401Y-315321747D01*
X141270107Y-315307132D01*
X141291150Y-315294520D01*
X141313329Y-315284030D01*
X141336428Y-315275765D01*
X141360227Y-315269804D01*
X141384495Y-315266204D01*
X141408999Y-315265000D01*
X142309001Y-315265000D01*
X142333505Y-315266204D01*
G37*
G36*
X142333505Y-317316204D02*
G01*
X142357773Y-317319804D01*
X142381572Y-317325765D01*
X142404671Y-317334030D01*
X142426850Y-317344520D01*
X142447893Y-317357132D01*
X142467599Y-317371747D01*
X142485777Y-317388223D01*
X142502253Y-317406401D01*
X142516868Y-317426107D01*
X142529480Y-317447150D01*
X142539970Y-317469329D01*
X142548235Y-317492428D01*
X142554196Y-317516227D01*
X142557796Y-317540495D01*
X142559000Y-317564999D01*
X142559000Y-318215001D01*
X142557796Y-318239505D01*
X142554196Y-318263773D01*
X142548235Y-318287572D01*
X142539970Y-318310671D01*
X142529480Y-318332850D01*
X142516868Y-318353893D01*
X142502253Y-318373599D01*
X142485777Y-318391777D01*
X142467599Y-318408253D01*
X142447893Y-318422868D01*
X142426850Y-318435480D01*
X142404671Y-318445970D01*
X142381572Y-318454235D01*
X142357773Y-318460196D01*
X142333505Y-318463796D01*
X142309001Y-318465000D01*
X141408999Y-318465000D01*
X141384495Y-318463796D01*
X141360227Y-318460196D01*
X141336428Y-318454235D01*
X141313329Y-318445970D01*
X141291150Y-318435480D01*
X141270107Y-318422868D01*
X141250401Y-318408253D01*
X141232223Y-318391777D01*
X141215747Y-318373599D01*
X141201132Y-318353893D01*
X141188520Y-318332850D01*
X141178030Y-318310671D01*
X141169765Y-318287572D01*
X141163804Y-318263773D01*
X141160204Y-318239505D01*
X141159000Y-318215001D01*
X141159000Y-317564999D01*
X141160204Y-317540495D01*
X141163804Y-317516227D01*
X141169765Y-317492428D01*
X141178030Y-317469329D01*
X141188520Y-317447150D01*
X141201132Y-317426107D01*
X141215747Y-317406401D01*
X141232223Y-317388223D01*
X141250401Y-317371747D01*
X141270107Y-317357132D01*
X141291150Y-317344520D01*
X141313329Y-317334030D01*
X141336428Y-317325765D01*
X141360227Y-317319804D01*
X141384495Y-317316204D01*
X141408999Y-317315000D01*
X142309001Y-317315000D01*
X142333505Y-317316204D01*
G37*
G36*
X179163505Y-315275204D02*
G01*
X179187773Y-315278804D01*
X179211572Y-315284765D01*
X179234671Y-315293030D01*
X179256850Y-315303520D01*
X179277893Y-315316132D01*
X179297599Y-315330747D01*
X179315777Y-315347223D01*
X179332253Y-315365401D01*
X179346868Y-315385107D01*
X179359480Y-315406150D01*
X179369970Y-315428329D01*
X179378235Y-315451428D01*
X179384196Y-315475227D01*
X179387796Y-315499495D01*
X179389000Y-315523999D01*
X179389000Y-316174001D01*
X179387796Y-316198505D01*
X179384196Y-316222773D01*
X179378235Y-316246572D01*
X179369970Y-316269671D01*
X179359480Y-316291850D01*
X179346868Y-316312893D01*
X179332253Y-316332599D01*
X179315777Y-316350777D01*
X179297599Y-316367253D01*
X179277893Y-316381868D01*
X179256850Y-316394480D01*
X179234671Y-316404970D01*
X179211572Y-316413235D01*
X179187773Y-316419196D01*
X179163505Y-316422796D01*
X179139001Y-316424000D01*
X178238999Y-316424000D01*
X178214495Y-316422796D01*
X178190227Y-316419196D01*
X178166428Y-316413235D01*
X178143329Y-316404970D01*
X178121150Y-316394480D01*
X178100107Y-316381868D01*
X178080401Y-316367253D01*
X178062223Y-316350777D01*
X178045747Y-316332599D01*
X178031132Y-316312893D01*
X178018520Y-316291850D01*
X178008030Y-316269671D01*
X177999765Y-316246572D01*
X177993804Y-316222773D01*
X177990204Y-316198505D01*
X177989000Y-316174001D01*
X177989000Y-315523999D01*
X177990204Y-315499495D01*
X177993804Y-315475227D01*
X177999765Y-315451428D01*
X178008030Y-315428329D01*
X178018520Y-315406150D01*
X178031132Y-315385107D01*
X178045747Y-315365401D01*
X178062223Y-315347223D01*
X178080401Y-315330747D01*
X178100107Y-315316132D01*
X178121150Y-315303520D01*
X178143329Y-315293030D01*
X178166428Y-315284765D01*
X178190227Y-315278804D01*
X178214495Y-315275204D01*
X178238999Y-315274000D01*
X179139001Y-315274000D01*
X179163505Y-315275204D01*
G37*
G36*
X179163505Y-317325204D02*
G01*
X179187773Y-317328804D01*
X179211572Y-317334765D01*
X179234671Y-317343030D01*
X179256850Y-317353520D01*
X179277893Y-317366132D01*
X179297599Y-317380747D01*
X179315777Y-317397223D01*
X179332253Y-317415401D01*
X179346868Y-317435107D01*
X179359480Y-317456150D01*
X179369970Y-317478329D01*
X179378235Y-317501428D01*
X179384196Y-317525227D01*
X179387796Y-317549495D01*
X179389000Y-317573999D01*
X179389000Y-318224001D01*
X179387796Y-318248505D01*
X179384196Y-318272773D01*
X179378235Y-318296572D01*
X179369970Y-318319671D01*
X179359480Y-318341850D01*
X179346868Y-318362893D01*
X179332253Y-318382599D01*
X179315777Y-318400777D01*
X179297599Y-318417253D01*
X179277893Y-318431868D01*
X179256850Y-318444480D01*
X179234671Y-318454970D01*
X179211572Y-318463235D01*
X179187773Y-318469196D01*
X179163505Y-318472796D01*
X179139001Y-318474000D01*
X178238999Y-318474000D01*
X178214495Y-318472796D01*
X178190227Y-318469196D01*
X178166428Y-318463235D01*
X178143329Y-318454970D01*
X178121150Y-318444480D01*
X178100107Y-318431868D01*
X178080401Y-318417253D01*
X178062223Y-318400777D01*
X178045747Y-318382599D01*
X178031132Y-318362893D01*
X178018520Y-318341850D01*
X178008030Y-318319671D01*
X177999765Y-318296572D01*
X177993804Y-318272773D01*
X177990204Y-318248505D01*
X177989000Y-318224001D01*
X177989000Y-317573999D01*
X177990204Y-317549495D01*
X177993804Y-317525227D01*
X177999765Y-317501428D01*
X178008030Y-317478329D01*
X178018520Y-317456150D01*
X178031132Y-317435107D01*
X178045747Y-317415401D01*
X178062223Y-317397223D01*
X178080401Y-317380747D01*
X178100107Y-317366132D01*
X178121150Y-317353520D01*
X178143329Y-317343030D01*
X178166428Y-317334765D01*
X178190227Y-317328804D01*
X178214495Y-317325204D01*
X178238999Y-317324000D01*
X179139001Y-317324000D01*
X179163505Y-317325204D01*
G37*
G36*
X105884505Y-315266204D02*
G01*
X105908773Y-315269804D01*
X105932572Y-315275765D01*
X105955671Y-315284030D01*
X105977850Y-315294520D01*
X105998893Y-315307132D01*
X106018599Y-315321747D01*
X106036777Y-315338223D01*
X106053253Y-315356401D01*
X106067868Y-315376107D01*
X106080480Y-315397150D01*
X106090970Y-315419329D01*
X106099235Y-315442428D01*
X106105196Y-315466227D01*
X106108796Y-315490495D01*
X106110000Y-315514999D01*
X106110000Y-316165001D01*
X106108796Y-316189505D01*
X106105196Y-316213773D01*
X106099235Y-316237572D01*
X106090970Y-316260671D01*
X106080480Y-316282850D01*
X106067868Y-316303893D01*
X106053253Y-316323599D01*
X106036777Y-316341777D01*
X106018599Y-316358253D01*
X105998893Y-316372868D01*
X105977850Y-316385480D01*
X105955671Y-316395970D01*
X105932572Y-316404235D01*
X105908773Y-316410196D01*
X105884505Y-316413796D01*
X105860001Y-316415000D01*
X104959999Y-316415000D01*
X104935495Y-316413796D01*
X104911227Y-316410196D01*
X104887428Y-316404235D01*
X104864329Y-316395970D01*
X104842150Y-316385480D01*
X104821107Y-316372868D01*
X104801401Y-316358253D01*
X104783223Y-316341777D01*
X104766747Y-316323599D01*
X104752132Y-316303893D01*
X104739520Y-316282850D01*
X104729030Y-316260671D01*
X104720765Y-316237572D01*
X104714804Y-316213773D01*
X104711204Y-316189505D01*
X104710000Y-316165001D01*
X104710000Y-315514999D01*
X104711204Y-315490495D01*
X104714804Y-315466227D01*
X104720765Y-315442428D01*
X104729030Y-315419329D01*
X104739520Y-315397150D01*
X104752132Y-315376107D01*
X104766747Y-315356401D01*
X104783223Y-315338223D01*
X104801401Y-315321747D01*
X104821107Y-315307132D01*
X104842150Y-315294520D01*
X104864329Y-315284030D01*
X104887428Y-315275765D01*
X104911227Y-315269804D01*
X104935495Y-315266204D01*
X104959999Y-315265000D01*
X105860001Y-315265000D01*
X105884505Y-315266204D01*
G37*
G36*
X105884505Y-317316204D02*
G01*
X105908773Y-317319804D01*
X105932572Y-317325765D01*
X105955671Y-317334030D01*
X105977850Y-317344520D01*
X105998893Y-317357132D01*
X106018599Y-317371747D01*
X106036777Y-317388223D01*
X106053253Y-317406401D01*
X106067868Y-317426107D01*
X106080480Y-317447150D01*
X106090970Y-317469329D01*
X106099235Y-317492428D01*
X106105196Y-317516227D01*
X106108796Y-317540495D01*
X106110000Y-317564999D01*
X106110000Y-318215001D01*
X106108796Y-318239505D01*
X106105196Y-318263773D01*
X106099235Y-318287572D01*
X106090970Y-318310671D01*
X106080480Y-318332850D01*
X106067868Y-318353893D01*
X106053253Y-318373599D01*
X106036777Y-318391777D01*
X106018599Y-318408253D01*
X105998893Y-318422868D01*
X105977850Y-318435480D01*
X105955671Y-318445970D01*
X105932572Y-318454235D01*
X105908773Y-318460196D01*
X105884505Y-318463796D01*
X105860001Y-318465000D01*
X104959999Y-318465000D01*
X104935495Y-318463796D01*
X104911227Y-318460196D01*
X104887428Y-318454235D01*
X104864329Y-318445970D01*
X104842150Y-318435480D01*
X104821107Y-318422868D01*
X104801401Y-318408253D01*
X104783223Y-318391777D01*
X104766747Y-318373599D01*
X104752132Y-318353893D01*
X104739520Y-318332850D01*
X104729030Y-318310671D01*
X104720765Y-318287572D01*
X104714804Y-318263773D01*
X104711204Y-318239505D01*
X104710000Y-318215001D01*
X104710000Y-317564999D01*
X104711204Y-317540495D01*
X104714804Y-317516227D01*
X104720765Y-317492428D01*
X104729030Y-317469329D01*
X104739520Y-317447150D01*
X104752132Y-317426107D01*
X104766747Y-317406401D01*
X104783223Y-317388223D01*
X104801401Y-317371747D01*
X104821107Y-317357132D01*
X104842150Y-317344520D01*
X104864329Y-317334030D01*
X104887428Y-317325765D01*
X104911227Y-317319804D01*
X104935495Y-317316204D01*
X104959999Y-317315000D01*
X105860001Y-317315000D01*
X105884505Y-317316204D01*
G37*
G36*
X130268505Y-315275204D02*
G01*
X130292773Y-315278804D01*
X130316572Y-315284765D01*
X130339671Y-315293030D01*
X130361850Y-315303520D01*
X130382893Y-315316132D01*
X130402599Y-315330747D01*
X130420777Y-315347223D01*
X130437253Y-315365401D01*
X130451868Y-315385107D01*
X130464480Y-315406150D01*
X130474970Y-315428329D01*
X130483235Y-315451428D01*
X130489196Y-315475227D01*
X130492796Y-315499495D01*
X130494000Y-315523999D01*
X130494000Y-316174001D01*
X130492796Y-316198505D01*
X130489196Y-316222773D01*
X130483235Y-316246572D01*
X130474970Y-316269671D01*
X130464480Y-316291850D01*
X130451868Y-316312893D01*
X130437253Y-316332599D01*
X130420777Y-316350777D01*
X130402599Y-316367253D01*
X130382893Y-316381868D01*
X130361850Y-316394480D01*
X130339671Y-316404970D01*
X130316572Y-316413235D01*
X130292773Y-316419196D01*
X130268505Y-316422796D01*
X130244001Y-316424000D01*
X129343999Y-316424000D01*
X129319495Y-316422796D01*
X129295227Y-316419196D01*
X129271428Y-316413235D01*
X129248329Y-316404970D01*
X129226150Y-316394480D01*
X129205107Y-316381868D01*
X129185401Y-316367253D01*
X129167223Y-316350777D01*
X129150747Y-316332599D01*
X129136132Y-316312893D01*
X129123520Y-316291850D01*
X129113030Y-316269671D01*
X129104765Y-316246572D01*
X129098804Y-316222773D01*
X129095204Y-316198505D01*
X129094000Y-316174001D01*
X129094000Y-315523999D01*
X129095204Y-315499495D01*
X129098804Y-315475227D01*
X129104765Y-315451428D01*
X129113030Y-315428329D01*
X129123520Y-315406150D01*
X129136132Y-315385107D01*
X129150747Y-315365401D01*
X129167223Y-315347223D01*
X129185401Y-315330747D01*
X129205107Y-315316132D01*
X129226150Y-315303520D01*
X129248329Y-315293030D01*
X129271428Y-315284765D01*
X129295227Y-315278804D01*
X129319495Y-315275204D01*
X129343999Y-315274000D01*
X130244001Y-315274000D01*
X130268505Y-315275204D01*
G37*
G36*
X130268505Y-317325204D02*
G01*
X130292773Y-317328804D01*
X130316572Y-317334765D01*
X130339671Y-317343030D01*
X130361850Y-317353520D01*
X130382893Y-317366132D01*
X130402599Y-317380747D01*
X130420777Y-317397223D01*
X130437253Y-317415401D01*
X130451868Y-317435107D01*
X130464480Y-317456150D01*
X130474970Y-317478329D01*
X130483235Y-317501428D01*
X130489196Y-317525227D01*
X130492796Y-317549495D01*
X130494000Y-317573999D01*
X130494000Y-318224001D01*
X130492796Y-318248505D01*
X130489196Y-318272773D01*
X130483235Y-318296572D01*
X130474970Y-318319671D01*
X130464480Y-318341850D01*
X130451868Y-318362893D01*
X130437253Y-318382599D01*
X130420777Y-318400777D01*
X130402599Y-318417253D01*
X130382893Y-318431868D01*
X130361850Y-318444480D01*
X130339671Y-318454970D01*
X130316572Y-318463235D01*
X130292773Y-318469196D01*
X130268505Y-318472796D01*
X130244001Y-318474000D01*
X129343999Y-318474000D01*
X129319495Y-318472796D01*
X129295227Y-318469196D01*
X129271428Y-318463235D01*
X129248329Y-318454970D01*
X129226150Y-318444480D01*
X129205107Y-318431868D01*
X129185401Y-318417253D01*
X129167223Y-318400777D01*
X129150747Y-318382599D01*
X129136132Y-318362893D01*
X129123520Y-318341850D01*
X129113030Y-318319671D01*
X129104765Y-318296572D01*
X129098804Y-318272773D01*
X129095204Y-318248505D01*
X129094000Y-318224001D01*
X129094000Y-317573999D01*
X129095204Y-317549495D01*
X129098804Y-317525227D01*
X129104765Y-317501428D01*
X129113030Y-317478329D01*
X129123520Y-317456150D01*
X129136132Y-317435107D01*
X129150747Y-317415401D01*
X129167223Y-317397223D01*
X129185401Y-317380747D01*
X129205107Y-317366132D01*
X129226150Y-317353520D01*
X129248329Y-317343030D01*
X129271428Y-317334765D01*
X129295227Y-317328804D01*
X129319495Y-317325204D01*
X129343999Y-317324000D01*
X130244001Y-317324000D01*
X130268505Y-317325204D01*
G37*
G36*
X154652505Y-315275204D02*
G01*
X154676773Y-315278804D01*
X154700572Y-315284765D01*
X154723671Y-315293030D01*
X154745850Y-315303520D01*
X154766893Y-315316132D01*
X154786599Y-315330747D01*
X154804777Y-315347223D01*
X154821253Y-315365401D01*
X154835868Y-315385107D01*
X154848480Y-315406150D01*
X154858970Y-315428329D01*
X154867235Y-315451428D01*
X154873196Y-315475227D01*
X154876796Y-315499495D01*
X154878000Y-315523999D01*
X154878000Y-316174001D01*
X154876796Y-316198505D01*
X154873196Y-316222773D01*
X154867235Y-316246572D01*
X154858970Y-316269671D01*
X154848480Y-316291850D01*
X154835868Y-316312893D01*
X154821253Y-316332599D01*
X154804777Y-316350777D01*
X154786599Y-316367253D01*
X154766893Y-316381868D01*
X154745850Y-316394480D01*
X154723671Y-316404970D01*
X154700572Y-316413235D01*
X154676773Y-316419196D01*
X154652505Y-316422796D01*
X154628001Y-316424000D01*
X153727999Y-316424000D01*
X153703495Y-316422796D01*
X153679227Y-316419196D01*
X153655428Y-316413235D01*
X153632329Y-316404970D01*
X153610150Y-316394480D01*
X153589107Y-316381868D01*
X153569401Y-316367253D01*
X153551223Y-316350777D01*
X153534747Y-316332599D01*
X153520132Y-316312893D01*
X153507520Y-316291850D01*
X153497030Y-316269671D01*
X153488765Y-316246572D01*
X153482804Y-316222773D01*
X153479204Y-316198505D01*
X153478000Y-316174001D01*
X153478000Y-315523999D01*
X153479204Y-315499495D01*
X153482804Y-315475227D01*
X153488765Y-315451428D01*
X153497030Y-315428329D01*
X153507520Y-315406150D01*
X153520132Y-315385107D01*
X153534747Y-315365401D01*
X153551223Y-315347223D01*
X153569401Y-315330747D01*
X153589107Y-315316132D01*
X153610150Y-315303520D01*
X153632329Y-315293030D01*
X153655428Y-315284765D01*
X153679227Y-315278804D01*
X153703495Y-315275204D01*
X153727999Y-315274000D01*
X154628001Y-315274000D01*
X154652505Y-315275204D01*
G37*
G36*
X154652505Y-317325204D02*
G01*
X154676773Y-317328804D01*
X154700572Y-317334765D01*
X154723671Y-317343030D01*
X154745850Y-317353520D01*
X154766893Y-317366132D01*
X154786599Y-317380747D01*
X154804777Y-317397223D01*
X154821253Y-317415401D01*
X154835868Y-317435107D01*
X154848480Y-317456150D01*
X154858970Y-317478329D01*
X154867235Y-317501428D01*
X154873196Y-317525227D01*
X154876796Y-317549495D01*
X154878000Y-317573999D01*
X154878000Y-318224001D01*
X154876796Y-318248505D01*
X154873196Y-318272773D01*
X154867235Y-318296572D01*
X154858970Y-318319671D01*
X154848480Y-318341850D01*
X154835868Y-318362893D01*
X154821253Y-318382599D01*
X154804777Y-318400777D01*
X154786599Y-318417253D01*
X154766893Y-318431868D01*
X154745850Y-318444480D01*
X154723671Y-318454970D01*
X154700572Y-318463235D01*
X154676773Y-318469196D01*
X154652505Y-318472796D01*
X154628001Y-318474000D01*
X153727999Y-318474000D01*
X153703495Y-318472796D01*
X153679227Y-318469196D01*
X153655428Y-318463235D01*
X153632329Y-318454970D01*
X153610150Y-318444480D01*
X153589107Y-318431868D01*
X153569401Y-318417253D01*
X153551223Y-318400777D01*
X153534747Y-318382599D01*
X153520132Y-318362893D01*
X153507520Y-318341850D01*
X153497030Y-318319671D01*
X153488765Y-318296572D01*
X153482804Y-318272773D01*
X153479204Y-318248505D01*
X153478000Y-318224001D01*
X153478000Y-317573999D01*
X153479204Y-317549495D01*
X153482804Y-317525227D01*
X153488765Y-317501428D01*
X153497030Y-317478329D01*
X153507520Y-317456150D01*
X153520132Y-317435107D01*
X153534747Y-317415401D01*
X153551223Y-317397223D01*
X153569401Y-317380747D01*
X153589107Y-317366132D01*
X153610150Y-317353520D01*
X153632329Y-317343030D01*
X153655428Y-317334765D01*
X153679227Y-317328804D01*
X153703495Y-317325204D01*
X153727999Y-317324000D01*
X154628001Y-317324000D01*
X154652505Y-317325204D01*
G37*
G36*
X185259505Y-311202204D02*
G01*
X185283773Y-311205804D01*
X185307572Y-311211765D01*
X185330671Y-311220030D01*
X185352850Y-311230520D01*
X185373893Y-311243132D01*
X185393599Y-311257747D01*
X185411777Y-311274223D01*
X185428253Y-311292401D01*
X185442868Y-311312107D01*
X185455480Y-311333150D01*
X185465970Y-311355329D01*
X185474235Y-311378428D01*
X185480196Y-311402227D01*
X185483796Y-311426495D01*
X185485000Y-311450999D01*
X185485000Y-312101001D01*
X185483796Y-312125505D01*
X185480196Y-312149773D01*
X185474235Y-312173572D01*
X185465970Y-312196671D01*
X185455480Y-312218850D01*
X185442868Y-312239893D01*
X185428253Y-312259599D01*
X185411777Y-312277777D01*
X185393599Y-312294253D01*
X185373893Y-312308868D01*
X185352850Y-312321480D01*
X185330671Y-312331970D01*
X185307572Y-312340235D01*
X185283773Y-312346196D01*
X185259505Y-312349796D01*
X185235001Y-312351000D01*
X184334999Y-312351000D01*
X184310495Y-312349796D01*
X184286227Y-312346196D01*
X184262428Y-312340235D01*
X184239329Y-312331970D01*
X184217150Y-312321480D01*
X184196107Y-312308868D01*
X184176401Y-312294253D01*
X184158223Y-312277777D01*
X184141747Y-312259599D01*
X184127132Y-312239893D01*
X184114520Y-312218850D01*
X184104030Y-312196671D01*
X184095765Y-312173572D01*
X184089804Y-312149773D01*
X184086204Y-312125505D01*
X184085000Y-312101001D01*
X184085000Y-311450999D01*
X184086204Y-311426495D01*
X184089804Y-311402227D01*
X184095765Y-311378428D01*
X184104030Y-311355329D01*
X184114520Y-311333150D01*
X184127132Y-311312107D01*
X184141747Y-311292401D01*
X184158223Y-311274223D01*
X184176401Y-311257747D01*
X184196107Y-311243132D01*
X184217150Y-311230520D01*
X184239329Y-311220030D01*
X184262428Y-311211765D01*
X184286227Y-311205804D01*
X184310495Y-311202204D01*
X184334999Y-311201000D01*
X185235001Y-311201000D01*
X185259505Y-311202204D01*
G37*
G36*
X185259505Y-313252204D02*
G01*
X185283773Y-313255804D01*
X185307572Y-313261765D01*
X185330671Y-313270030D01*
X185352850Y-313280520D01*
X185373893Y-313293132D01*
X185393599Y-313307747D01*
X185411777Y-313324223D01*
X185428253Y-313342401D01*
X185442868Y-313362107D01*
X185455480Y-313383150D01*
X185465970Y-313405329D01*
X185474235Y-313428428D01*
X185480196Y-313452227D01*
X185483796Y-313476495D01*
X185485000Y-313500999D01*
X185485000Y-314151001D01*
X185483796Y-314175505D01*
X185480196Y-314199773D01*
X185474235Y-314223572D01*
X185465970Y-314246671D01*
X185455480Y-314268850D01*
X185442868Y-314289893D01*
X185428253Y-314309599D01*
X185411777Y-314327777D01*
X185393599Y-314344253D01*
X185373893Y-314358868D01*
X185352850Y-314371480D01*
X185330671Y-314381970D01*
X185307572Y-314390235D01*
X185283773Y-314396196D01*
X185259505Y-314399796D01*
X185235001Y-314401000D01*
X184334999Y-314401000D01*
X184310495Y-314399796D01*
X184286227Y-314396196D01*
X184262428Y-314390235D01*
X184239329Y-314381970D01*
X184217150Y-314371480D01*
X184196107Y-314358868D01*
X184176401Y-314344253D01*
X184158223Y-314327777D01*
X184141747Y-314309599D01*
X184127132Y-314289893D01*
X184114520Y-314268850D01*
X184104030Y-314246671D01*
X184095765Y-314223572D01*
X184089804Y-314199773D01*
X184086204Y-314175505D01*
X184085000Y-314151001D01*
X184085000Y-313500999D01*
X184086204Y-313476495D01*
X184089804Y-313452227D01*
X184095765Y-313428428D01*
X184104030Y-313405329D01*
X184114520Y-313383150D01*
X184127132Y-313362107D01*
X184141747Y-313342401D01*
X184158223Y-313324223D01*
X184176401Y-313307747D01*
X184196107Y-313293132D01*
X184217150Y-313280520D01*
X184239329Y-313270030D01*
X184262428Y-313261765D01*
X184286227Y-313255804D01*
X184310495Y-313252204D01*
X184334999Y-313251000D01*
X185235001Y-313251000D01*
X185259505Y-313252204D01*
G37*
G36*
X118076505Y-315003204D02*
G01*
X118100773Y-315006804D01*
X118124572Y-315012765D01*
X118147671Y-315021030D01*
X118169850Y-315031520D01*
X118190893Y-315044132D01*
X118210599Y-315058747D01*
X118228777Y-315075223D01*
X118245253Y-315093401D01*
X118259868Y-315113107D01*
X118272480Y-315134150D01*
X118282970Y-315156329D01*
X118291235Y-315179428D01*
X118297196Y-315203227D01*
X118300796Y-315227495D01*
X118302000Y-315251999D01*
X118302000Y-315902001D01*
X118300796Y-315926505D01*
X118297196Y-315950773D01*
X118291235Y-315974572D01*
X118282970Y-315997671D01*
X118272480Y-316019850D01*
X118259868Y-316040893D01*
X118245253Y-316060599D01*
X118228777Y-316078777D01*
X118210599Y-316095253D01*
X118190893Y-316109868D01*
X118169850Y-316122480D01*
X118147671Y-316132970D01*
X118124572Y-316141235D01*
X118100773Y-316147196D01*
X118076505Y-316150796D01*
X118052001Y-316152000D01*
X117151999Y-316152000D01*
X117127495Y-316150796D01*
X117103227Y-316147196D01*
X117079428Y-316141235D01*
X117056329Y-316132970D01*
X117034150Y-316122480D01*
X117013107Y-316109868D01*
X116993401Y-316095253D01*
X116975223Y-316078777D01*
X116958747Y-316060599D01*
X116944132Y-316040893D01*
X116931520Y-316019850D01*
X116921030Y-315997671D01*
X116912765Y-315974572D01*
X116906804Y-315950773D01*
X116903204Y-315926505D01*
X116902000Y-315902001D01*
X116902000Y-315251999D01*
X116903204Y-315227495D01*
X116906804Y-315203227D01*
X116912765Y-315179428D01*
X116921030Y-315156329D01*
X116931520Y-315134150D01*
X116944132Y-315113107D01*
X116958747Y-315093401D01*
X116975223Y-315075223D01*
X116993401Y-315058747D01*
X117013107Y-315044132D01*
X117034150Y-315031520D01*
X117056329Y-315021030D01*
X117079428Y-315012765D01*
X117103227Y-315006804D01*
X117127495Y-315003204D01*
X117151999Y-315002000D01*
X118052001Y-315002000D01*
X118076505Y-315003204D01*
G37*
G36*
X118076505Y-317053204D02*
G01*
X118100773Y-317056804D01*
X118124572Y-317062765D01*
X118147671Y-317071030D01*
X118169850Y-317081520D01*
X118190893Y-317094132D01*
X118210599Y-317108747D01*
X118228777Y-317125223D01*
X118245253Y-317143401D01*
X118259868Y-317163107D01*
X118272480Y-317184150D01*
X118282970Y-317206329D01*
X118291235Y-317229428D01*
X118297196Y-317253227D01*
X118300796Y-317277495D01*
X118302000Y-317301999D01*
X118302000Y-317952001D01*
X118300796Y-317976505D01*
X118297196Y-318000773D01*
X118291235Y-318024572D01*
X118282970Y-318047671D01*
X118272480Y-318069850D01*
X118259868Y-318090893D01*
X118245253Y-318110599D01*
X118228777Y-318128777D01*
X118210599Y-318145253D01*
X118190893Y-318159868D01*
X118169850Y-318172480D01*
X118147671Y-318182970D01*
X118124572Y-318191235D01*
X118100773Y-318197196D01*
X118076505Y-318200796D01*
X118052001Y-318202000D01*
X117151999Y-318202000D01*
X117127495Y-318200796D01*
X117103227Y-318197196D01*
X117079428Y-318191235D01*
X117056329Y-318182970D01*
X117034150Y-318172480D01*
X117013107Y-318159868D01*
X116993401Y-318145253D01*
X116975223Y-318128777D01*
X116958747Y-318110599D01*
X116944132Y-318090893D01*
X116931520Y-318069850D01*
X116921030Y-318047671D01*
X116912765Y-318024572D01*
X116906804Y-318000773D01*
X116903204Y-317976505D01*
X116902000Y-317952001D01*
X116902000Y-317301999D01*
X116903204Y-317277495D01*
X116906804Y-317253227D01*
X116912765Y-317229428D01*
X116921030Y-317206329D01*
X116931520Y-317184150D01*
X116944132Y-317163107D01*
X116958747Y-317143401D01*
X116975223Y-317125223D01*
X116993401Y-317108747D01*
X117013107Y-317094132D01*
X117034150Y-317081520D01*
X117056329Y-317071030D01*
X117079428Y-317062765D01*
X117103227Y-317056804D01*
X117127495Y-317053204D01*
X117151999Y-317052000D01*
X118052001Y-317052000D01*
X118076505Y-317053204D01*
G37*
G36*
X166463505Y-315275204D02*
G01*
X166487773Y-315278804D01*
X166511572Y-315284765D01*
X166534671Y-315293030D01*
X166556850Y-315303520D01*
X166577893Y-315316132D01*
X166597599Y-315330747D01*
X166615777Y-315347223D01*
X166632253Y-315365401D01*
X166646868Y-315385107D01*
X166659480Y-315406150D01*
X166669970Y-315428329D01*
X166678235Y-315451428D01*
X166684196Y-315475227D01*
X166687796Y-315499495D01*
X166689000Y-315523999D01*
X166689000Y-316174001D01*
X166687796Y-316198505D01*
X166684196Y-316222773D01*
X166678235Y-316246572D01*
X166669970Y-316269671D01*
X166659480Y-316291850D01*
X166646868Y-316312893D01*
X166632253Y-316332599D01*
X166615777Y-316350777D01*
X166597599Y-316367253D01*
X166577893Y-316381868D01*
X166556850Y-316394480D01*
X166534671Y-316404970D01*
X166511572Y-316413235D01*
X166487773Y-316419196D01*
X166463505Y-316422796D01*
X166439001Y-316424000D01*
X165538999Y-316424000D01*
X165514495Y-316422796D01*
X165490227Y-316419196D01*
X165466428Y-316413235D01*
X165443329Y-316404970D01*
X165421150Y-316394480D01*
X165400107Y-316381868D01*
X165380401Y-316367253D01*
X165362223Y-316350777D01*
X165345747Y-316332599D01*
X165331132Y-316312893D01*
X165318520Y-316291850D01*
X165308030Y-316269671D01*
X165299765Y-316246572D01*
X165293804Y-316222773D01*
X165290204Y-316198505D01*
X165289000Y-316174001D01*
X165289000Y-315523999D01*
X165290204Y-315499495D01*
X165293804Y-315475227D01*
X165299765Y-315451428D01*
X165308030Y-315428329D01*
X165318520Y-315406150D01*
X165331132Y-315385107D01*
X165345747Y-315365401D01*
X165362223Y-315347223D01*
X165380401Y-315330747D01*
X165400107Y-315316132D01*
X165421150Y-315303520D01*
X165443329Y-315293030D01*
X165466428Y-315284765D01*
X165490227Y-315278804D01*
X165514495Y-315275204D01*
X165538999Y-315274000D01*
X166439001Y-315274000D01*
X166463505Y-315275204D01*
G37*
G36*
X166463505Y-317325204D02*
G01*
X166487773Y-317328804D01*
X166511572Y-317334765D01*
X166534671Y-317343030D01*
X166556850Y-317353520D01*
X166577893Y-317366132D01*
X166597599Y-317380747D01*
X166615777Y-317397223D01*
X166632253Y-317415401D01*
X166646868Y-317435107D01*
X166659480Y-317456150D01*
X166669970Y-317478329D01*
X166678235Y-317501428D01*
X166684196Y-317525227D01*
X166687796Y-317549495D01*
X166689000Y-317573999D01*
X166689000Y-318224001D01*
X166687796Y-318248505D01*
X166684196Y-318272773D01*
X166678235Y-318296572D01*
X166669970Y-318319671D01*
X166659480Y-318341850D01*
X166646868Y-318362893D01*
X166632253Y-318382599D01*
X166615777Y-318400777D01*
X166597599Y-318417253D01*
X166577893Y-318431868D01*
X166556850Y-318444480D01*
X166534671Y-318454970D01*
X166511572Y-318463235D01*
X166487773Y-318469196D01*
X166463505Y-318472796D01*
X166439001Y-318474000D01*
X165538999Y-318474000D01*
X165514495Y-318472796D01*
X165490227Y-318469196D01*
X165466428Y-318463235D01*
X165443329Y-318454970D01*
X165421150Y-318444480D01*
X165400107Y-318431868D01*
X165380401Y-318417253D01*
X165362223Y-318400777D01*
X165345747Y-318382599D01*
X165331132Y-318362893D01*
X165318520Y-318341850D01*
X165308030Y-318319671D01*
X165299765Y-318296572D01*
X165293804Y-318272773D01*
X165290204Y-318248505D01*
X165289000Y-318224001D01*
X165289000Y-317573999D01*
X165290204Y-317549495D01*
X165293804Y-317525227D01*
X165299765Y-317501428D01*
X165308030Y-317478329D01*
X165318520Y-317456150D01*
X165331132Y-317435107D01*
X165345747Y-317415401D01*
X165362223Y-317397223D01*
X165380401Y-317380747D01*
X165400107Y-317366132D01*
X165421150Y-317353520D01*
X165443329Y-317343030D01*
X165466428Y-317334765D01*
X165490227Y-317328804D01*
X165514495Y-317325204D01*
X165538999Y-317324000D01*
X166439001Y-317324000D01*
X166463505Y-317325204D01*
G37*
G36*
X97502505Y-309043204D02*
G01*
X97526773Y-309046804D01*
X97550572Y-309052765D01*
X97573671Y-309061030D01*
X97595850Y-309071520D01*
X97616893Y-309084132D01*
X97636599Y-309098747D01*
X97654777Y-309115223D01*
X97671253Y-309133401D01*
X97685868Y-309153107D01*
X97698480Y-309174150D01*
X97708970Y-309196329D01*
X97717235Y-309219428D01*
X97723196Y-309243227D01*
X97726796Y-309267495D01*
X97728000Y-309291999D01*
X97728000Y-309942001D01*
X97726796Y-309966505D01*
X97723196Y-309990773D01*
X97717235Y-310014572D01*
X97708970Y-310037671D01*
X97698480Y-310059850D01*
X97685868Y-310080893D01*
X97671253Y-310100599D01*
X97654777Y-310118777D01*
X97636599Y-310135253D01*
X97616893Y-310149868D01*
X97595850Y-310162480D01*
X97573671Y-310172970D01*
X97550572Y-310181235D01*
X97526773Y-310187196D01*
X97502505Y-310190796D01*
X97478001Y-310192000D01*
X96577999Y-310192000D01*
X96553495Y-310190796D01*
X96529227Y-310187196D01*
X96505428Y-310181235D01*
X96482329Y-310172970D01*
X96460150Y-310162480D01*
X96439107Y-310149868D01*
X96419401Y-310135253D01*
X96401223Y-310118777D01*
X96384747Y-310100599D01*
X96370132Y-310080893D01*
X96357520Y-310059850D01*
X96347030Y-310037671D01*
X96338765Y-310014572D01*
X96332804Y-309990773D01*
X96329204Y-309966505D01*
X96328000Y-309942001D01*
X96328000Y-309291999D01*
X96329204Y-309267495D01*
X96332804Y-309243227D01*
X96338765Y-309219428D01*
X96347030Y-309196329D01*
X96357520Y-309174150D01*
X96370132Y-309153107D01*
X96384747Y-309133401D01*
X96401223Y-309115223D01*
X96419401Y-309098747D01*
X96439107Y-309084132D01*
X96460150Y-309071520D01*
X96482329Y-309061030D01*
X96505428Y-309052765D01*
X96529227Y-309046804D01*
X96553495Y-309043204D01*
X96577999Y-309042000D01*
X97478001Y-309042000D01*
X97502505Y-309043204D01*
G37*
G36*
X97502505Y-311093204D02*
G01*
X97526773Y-311096804D01*
X97550572Y-311102765D01*
X97573671Y-311111030D01*
X97595850Y-311121520D01*
X97616893Y-311134132D01*
X97636599Y-311148747D01*
X97654777Y-311165223D01*
X97671253Y-311183401D01*
X97685868Y-311203107D01*
X97698480Y-311224150D01*
X97708970Y-311246329D01*
X97717235Y-311269428D01*
X97723196Y-311293227D01*
X97726796Y-311317495D01*
X97728000Y-311341999D01*
X97728000Y-311992001D01*
X97726796Y-312016505D01*
X97723196Y-312040773D01*
X97717235Y-312064572D01*
X97708970Y-312087671D01*
X97698480Y-312109850D01*
X97685868Y-312130893D01*
X97671253Y-312150599D01*
X97654777Y-312168777D01*
X97636599Y-312185253D01*
X97616893Y-312199868D01*
X97595850Y-312212480D01*
X97573671Y-312222970D01*
X97550572Y-312231235D01*
X97526773Y-312237196D01*
X97502505Y-312240796D01*
X97478001Y-312242000D01*
X96577999Y-312242000D01*
X96553495Y-312240796D01*
X96529227Y-312237196D01*
X96505428Y-312231235D01*
X96482329Y-312222970D01*
X96460150Y-312212480D01*
X96439107Y-312199868D01*
X96419401Y-312185253D01*
X96401223Y-312168777D01*
X96384747Y-312150599D01*
X96370132Y-312130893D01*
X96357520Y-312109850D01*
X96347030Y-312087671D01*
X96338765Y-312064572D01*
X96332804Y-312040773D01*
X96329204Y-312016505D01*
X96328000Y-311992001D01*
X96328000Y-311341999D01*
X96329204Y-311317495D01*
X96332804Y-311293227D01*
X96338765Y-311269428D01*
X96347030Y-311246329D01*
X96357520Y-311224150D01*
X96370132Y-311203107D01*
X96384747Y-311183401D01*
X96401223Y-311165223D01*
X96419401Y-311148747D01*
X96439107Y-311134132D01*
X96460150Y-311121520D01*
X96482329Y-311111030D01*
X96505428Y-311102765D01*
X96529227Y-311096804D01*
X96553495Y-311093204D01*
X96577999Y-311092000D01*
X97478001Y-311092000D01*
X97502505Y-311093204D01*
G37*
G36*
X98772505Y-317198204D02*
G01*
X98796773Y-317201804D01*
X98820572Y-317207765D01*
X98843671Y-317216030D01*
X98865850Y-317226520D01*
X98886893Y-317239132D01*
X98906599Y-317253747D01*
X98924777Y-317270223D01*
X98941253Y-317288401D01*
X98955868Y-317308107D01*
X98968480Y-317329150D01*
X98978970Y-317351329D01*
X98987235Y-317374428D01*
X98993196Y-317398227D01*
X98996796Y-317422495D01*
X98998000Y-317446999D01*
X98998000Y-318097001D01*
X98996796Y-318121505D01*
X98993196Y-318145773D01*
X98987235Y-318169572D01*
X98978970Y-318192671D01*
X98968480Y-318214850D01*
X98955868Y-318235893D01*
X98941253Y-318255599D01*
X98924777Y-318273777D01*
X98906599Y-318290253D01*
X98886893Y-318304868D01*
X98865850Y-318317480D01*
X98843671Y-318327970D01*
X98820572Y-318336235D01*
X98796773Y-318342196D01*
X98772505Y-318345796D01*
X98748001Y-318347000D01*
X97847999Y-318347000D01*
X97823495Y-318345796D01*
X97799227Y-318342196D01*
X97775428Y-318336235D01*
X97752329Y-318327970D01*
X97730150Y-318317480D01*
X97709107Y-318304868D01*
X97689401Y-318290253D01*
X97671223Y-318273777D01*
X97654747Y-318255599D01*
X97640132Y-318235893D01*
X97627520Y-318214850D01*
X97617030Y-318192671D01*
X97608765Y-318169572D01*
X97602804Y-318145773D01*
X97599204Y-318121505D01*
X97598000Y-318097001D01*
X97598000Y-317446999D01*
X97599204Y-317422495D01*
X97602804Y-317398227D01*
X97608765Y-317374428D01*
X97617030Y-317351329D01*
X97627520Y-317329150D01*
X97640132Y-317308107D01*
X97654747Y-317288401D01*
X97671223Y-317270223D01*
X97689401Y-317253747D01*
X97709107Y-317239132D01*
X97730150Y-317226520D01*
X97752329Y-317216030D01*
X97775428Y-317207765D01*
X97799227Y-317201804D01*
X97823495Y-317198204D01*
X97847999Y-317197000D01*
X98748001Y-317197000D01*
X98772505Y-317198204D01*
G37*
G36*
X98772505Y-315148204D02*
G01*
X98796773Y-315151804D01*
X98820572Y-315157765D01*
X98843671Y-315166030D01*
X98865850Y-315176520D01*
X98886893Y-315189132D01*
X98906599Y-315203747D01*
X98924777Y-315220223D01*
X98941253Y-315238401D01*
X98955868Y-315258107D01*
X98968480Y-315279150D01*
X98978970Y-315301329D01*
X98987235Y-315324428D01*
X98993196Y-315348227D01*
X98996796Y-315372495D01*
X98998000Y-315396999D01*
X98998000Y-316047001D01*
X98996796Y-316071505D01*
X98993196Y-316095773D01*
X98987235Y-316119572D01*
X98978970Y-316142671D01*
X98968480Y-316164850D01*
X98955868Y-316185893D01*
X98941253Y-316205599D01*
X98924777Y-316223777D01*
X98906599Y-316240253D01*
X98886893Y-316254868D01*
X98865850Y-316267480D01*
X98843671Y-316277970D01*
X98820572Y-316286235D01*
X98796773Y-316292196D01*
X98772505Y-316295796D01*
X98748001Y-316297000D01*
X97847999Y-316297000D01*
X97823495Y-316295796D01*
X97799227Y-316292196D01*
X97775428Y-316286235D01*
X97752329Y-316277970D01*
X97730150Y-316267480D01*
X97709107Y-316254868D01*
X97689401Y-316240253D01*
X97671223Y-316223777D01*
X97654747Y-316205599D01*
X97640132Y-316185893D01*
X97627520Y-316164850D01*
X97617030Y-316142671D01*
X97608765Y-316119572D01*
X97602804Y-316095773D01*
X97599204Y-316071505D01*
X97598000Y-316047001D01*
X97598000Y-315396999D01*
X97599204Y-315372495D01*
X97602804Y-315348227D01*
X97608765Y-315324428D01*
X97617030Y-315301329D01*
X97627520Y-315279150D01*
X97640132Y-315258107D01*
X97654747Y-315238401D01*
X97671223Y-315220223D01*
X97689401Y-315203747D01*
X97709107Y-315189132D01*
X97730150Y-315176520D01*
X97752329Y-315166030D01*
X97775428Y-315157765D01*
X97799227Y-315151804D01*
X97823495Y-315148204D01*
X97847999Y-315147000D01*
X98748001Y-315147000D01*
X98772505Y-315148204D01*
G37*
D11*
X149930000Y-233310000D03*
D12*
X150730000Y-233310000D03*
D11*
X152330000Y-233310000D03*
D12*
X151530000Y-233310000D03*
D11*
X149930000Y-231510000D03*
D12*
X151530000Y-231510000D03*
X150730000Y-231510000D03*
D11*
X152330000Y-231510000D03*
X102686000Y-282078000D03*
D12*
X103486000Y-282078000D03*
D11*
X105086000Y-282078000D03*
D12*
X104286000Y-282078000D03*
D11*
X102686000Y-280278000D03*
D12*
X104286000Y-280278000D03*
X103486000Y-280278000D03*
D11*
X105086000Y-280278000D03*
X126054000Y-282078000D03*
D12*
X126854000Y-282078000D03*
D11*
X128454000Y-282078000D03*
D12*
X127654000Y-282078000D03*
D11*
X126054000Y-280278000D03*
D12*
X127654000Y-280278000D03*
X126854000Y-280278000D03*
D11*
X128454000Y-280278000D03*
D13*
X190583000Y-263397000D03*
X187233000Y-266447000D03*
X190583000Y-266447000D03*
X187233000Y-263397000D03*
D14*
X195208000Y-262642000D03*
X195208000Y-267202000D03*
D10*
G36*
X182592505Y-303736204D02*
G01*
X182616773Y-303739804D01*
X182640572Y-303745765D01*
X182663671Y-303754030D01*
X182685850Y-303764520D01*
X182706893Y-303777132D01*
X182726599Y-303791747D01*
X182744777Y-303808223D01*
X182761253Y-303826401D01*
X182775868Y-303846107D01*
X182788480Y-303867150D01*
X182798970Y-303889329D01*
X182807235Y-303912428D01*
X182813196Y-303936227D01*
X182816796Y-303960495D01*
X182818000Y-303984999D01*
X182818000Y-304635001D01*
X182816796Y-304659505D01*
X182813196Y-304683773D01*
X182807235Y-304707572D01*
X182798970Y-304730671D01*
X182788480Y-304752850D01*
X182775868Y-304773893D01*
X182761253Y-304793599D01*
X182744777Y-304811777D01*
X182726599Y-304828253D01*
X182706893Y-304842868D01*
X182685850Y-304855480D01*
X182663671Y-304865970D01*
X182640572Y-304874235D01*
X182616773Y-304880196D01*
X182592505Y-304883796D01*
X182568001Y-304885000D01*
X181667999Y-304885000D01*
X181643495Y-304883796D01*
X181619227Y-304880196D01*
X181595428Y-304874235D01*
X181572329Y-304865970D01*
X181550150Y-304855480D01*
X181529107Y-304842868D01*
X181509401Y-304828253D01*
X181491223Y-304811777D01*
X181474747Y-304793599D01*
X181460132Y-304773893D01*
X181447520Y-304752850D01*
X181437030Y-304730671D01*
X181428765Y-304707572D01*
X181422804Y-304683773D01*
X181419204Y-304659505D01*
X181418000Y-304635001D01*
X181418000Y-303984999D01*
X181419204Y-303960495D01*
X181422804Y-303936227D01*
X181428765Y-303912428D01*
X181437030Y-303889329D01*
X181447520Y-303867150D01*
X181460132Y-303846107D01*
X181474747Y-303826401D01*
X181491223Y-303808223D01*
X181509401Y-303791747D01*
X181529107Y-303777132D01*
X181550150Y-303764520D01*
X181572329Y-303754030D01*
X181595428Y-303745765D01*
X181619227Y-303739804D01*
X181643495Y-303736204D01*
X181667999Y-303735000D01*
X182568001Y-303735000D01*
X182592505Y-303736204D01*
G37*
G36*
X182592505Y-301686204D02*
G01*
X182616773Y-301689804D01*
X182640572Y-301695765D01*
X182663671Y-301704030D01*
X182685850Y-301714520D01*
X182706893Y-301727132D01*
X182726599Y-301741747D01*
X182744777Y-301758223D01*
X182761253Y-301776401D01*
X182775868Y-301796107D01*
X182788480Y-301817150D01*
X182798970Y-301839329D01*
X182807235Y-301862428D01*
X182813196Y-301886227D01*
X182816796Y-301910495D01*
X182818000Y-301934999D01*
X182818000Y-302585001D01*
X182816796Y-302609505D01*
X182813196Y-302633773D01*
X182807235Y-302657572D01*
X182798970Y-302680671D01*
X182788480Y-302702850D01*
X182775868Y-302723893D01*
X182761253Y-302743599D01*
X182744777Y-302761777D01*
X182726599Y-302778253D01*
X182706893Y-302792868D01*
X182685850Y-302805480D01*
X182663671Y-302815970D01*
X182640572Y-302824235D01*
X182616773Y-302830196D01*
X182592505Y-302833796D01*
X182568001Y-302835000D01*
X181667999Y-302835000D01*
X181643495Y-302833796D01*
X181619227Y-302830196D01*
X181595428Y-302824235D01*
X181572329Y-302815970D01*
X181550150Y-302805480D01*
X181529107Y-302792868D01*
X181509401Y-302778253D01*
X181491223Y-302761777D01*
X181474747Y-302743599D01*
X181460132Y-302723893D01*
X181447520Y-302702850D01*
X181437030Y-302680671D01*
X181428765Y-302657572D01*
X181422804Y-302633773D01*
X181419204Y-302609505D01*
X181418000Y-302585001D01*
X181418000Y-301934999D01*
X181419204Y-301910495D01*
X181422804Y-301886227D01*
X181428765Y-301862428D01*
X181437030Y-301839329D01*
X181447520Y-301817150D01*
X181460132Y-301796107D01*
X181474747Y-301776401D01*
X181491223Y-301758223D01*
X181509401Y-301741747D01*
X181529107Y-301727132D01*
X181550150Y-301714520D01*
X181572329Y-301704030D01*
X181595428Y-301695765D01*
X181619227Y-301689804D01*
X181643495Y-301686204D01*
X181667999Y-301685000D01*
X182568001Y-301685000D01*
X182592505Y-301686204D01*
G37*
D15*
X189706000Y-305562000D03*
X185706000Y-305562000D03*
D10*
G36*
X179242504Y-232881204D02*
G01*
X179266773Y-232884804D01*
X179290571Y-232890765D01*
X179313671Y-232899030D01*
X179335849Y-232909520D01*
X179356893Y-232922133D01*
X179376598Y-232936747D01*
X179394777Y-232953223D01*
X179411253Y-232971402D01*
X179425867Y-232991107D01*
X179438480Y-233012151D01*
X179448970Y-233034329D01*
X179457235Y-233057429D01*
X179463196Y-233081227D01*
X179466796Y-233105496D01*
X179468000Y-233130000D01*
X179468000Y-234230000D01*
X179466796Y-234254504D01*
X179463196Y-234278773D01*
X179457235Y-234302571D01*
X179448970Y-234325671D01*
X179438480Y-234347849D01*
X179425867Y-234368893D01*
X179411253Y-234388598D01*
X179394777Y-234406777D01*
X179376598Y-234423253D01*
X179356893Y-234437867D01*
X179335849Y-234450480D01*
X179313671Y-234460970D01*
X179290571Y-234469235D01*
X179266773Y-234475196D01*
X179242504Y-234478796D01*
X179218000Y-234480000D01*
X176718000Y-234480000D01*
X176693496Y-234478796D01*
X176669227Y-234475196D01*
X176645429Y-234469235D01*
X176622329Y-234460970D01*
X176600151Y-234450480D01*
X176579107Y-234437867D01*
X176559402Y-234423253D01*
X176541223Y-234406777D01*
X176524747Y-234388598D01*
X176510133Y-234368893D01*
X176497520Y-234347849D01*
X176487030Y-234325671D01*
X176478765Y-234302571D01*
X176472804Y-234278773D01*
X176469204Y-234254504D01*
X176468000Y-234230000D01*
X176468000Y-233130000D01*
X176469204Y-233105496D01*
X176472804Y-233081227D01*
X176478765Y-233057429D01*
X176487030Y-233034329D01*
X176497520Y-233012151D01*
X176510133Y-232991107D01*
X176524747Y-232971402D01*
X176541223Y-232953223D01*
X176559402Y-232936747D01*
X176579107Y-232922133D01*
X176600151Y-232909520D01*
X176622329Y-232899030D01*
X176645429Y-232890765D01*
X176669227Y-232884804D01*
X176693496Y-232881204D01*
X176718000Y-232880000D01*
X179218000Y-232880000D01*
X179242504Y-232881204D01*
G37*
G36*
X174842504Y-232881204D02*
G01*
X174866773Y-232884804D01*
X174890571Y-232890765D01*
X174913671Y-232899030D01*
X174935849Y-232909520D01*
X174956893Y-232922133D01*
X174976598Y-232936747D01*
X174994777Y-232953223D01*
X175011253Y-232971402D01*
X175025867Y-232991107D01*
X175038480Y-233012151D01*
X175048970Y-233034329D01*
X175057235Y-233057429D01*
X175063196Y-233081227D01*
X175066796Y-233105496D01*
X175068000Y-233130000D01*
X175068000Y-234230000D01*
X175066796Y-234254504D01*
X175063196Y-234278773D01*
X175057235Y-234302571D01*
X175048970Y-234325671D01*
X175038480Y-234347849D01*
X175025867Y-234368893D01*
X175011253Y-234388598D01*
X174994777Y-234406777D01*
X174976598Y-234423253D01*
X174956893Y-234437867D01*
X174935849Y-234450480D01*
X174913671Y-234460970D01*
X174890571Y-234469235D01*
X174866773Y-234475196D01*
X174842504Y-234478796D01*
X174818000Y-234480000D01*
X172318000Y-234480000D01*
X172293496Y-234478796D01*
X172269227Y-234475196D01*
X172245429Y-234469235D01*
X172222329Y-234460970D01*
X172200151Y-234450480D01*
X172179107Y-234437867D01*
X172159402Y-234423253D01*
X172141223Y-234406777D01*
X172124747Y-234388598D01*
X172110133Y-234368893D01*
X172097520Y-234347849D01*
X172087030Y-234325671D01*
X172078765Y-234302571D01*
X172072804Y-234278773D01*
X172069204Y-234254504D01*
X172068000Y-234230000D01*
X172068000Y-233130000D01*
X172069204Y-233105496D01*
X172072804Y-233081227D01*
X172078765Y-233057429D01*
X172087030Y-233034329D01*
X172097520Y-233012151D01*
X172110133Y-232991107D01*
X172124747Y-232971402D01*
X172141223Y-232953223D01*
X172159402Y-232936747D01*
X172179107Y-232922133D01*
X172200151Y-232909520D01*
X172222329Y-232899030D01*
X172245429Y-232890765D01*
X172269227Y-232884804D01*
X172293496Y-232881204D01*
X172318000Y-232880000D01*
X174818000Y-232880000D01*
X174842504Y-232881204D01*
G37*
G36*
X171670505Y-317198204D02*
G01*
X171694773Y-317201804D01*
X171718572Y-317207765D01*
X171741671Y-317216030D01*
X171763850Y-317226520D01*
X171784893Y-317239132D01*
X171804599Y-317253747D01*
X171822777Y-317270223D01*
X171839253Y-317288401D01*
X171853868Y-317308107D01*
X171866480Y-317329150D01*
X171876970Y-317351329D01*
X171885235Y-317374428D01*
X171891196Y-317398227D01*
X171894796Y-317422495D01*
X171896000Y-317446999D01*
X171896000Y-318097001D01*
X171894796Y-318121505D01*
X171891196Y-318145773D01*
X171885235Y-318169572D01*
X171876970Y-318192671D01*
X171866480Y-318214850D01*
X171853868Y-318235893D01*
X171839253Y-318255599D01*
X171822777Y-318273777D01*
X171804599Y-318290253D01*
X171784893Y-318304868D01*
X171763850Y-318317480D01*
X171741671Y-318327970D01*
X171718572Y-318336235D01*
X171694773Y-318342196D01*
X171670505Y-318345796D01*
X171646001Y-318347000D01*
X170745999Y-318347000D01*
X170721495Y-318345796D01*
X170697227Y-318342196D01*
X170673428Y-318336235D01*
X170650329Y-318327970D01*
X170628150Y-318317480D01*
X170607107Y-318304868D01*
X170587401Y-318290253D01*
X170569223Y-318273777D01*
X170552747Y-318255599D01*
X170538132Y-318235893D01*
X170525520Y-318214850D01*
X170515030Y-318192671D01*
X170506765Y-318169572D01*
X170500804Y-318145773D01*
X170497204Y-318121505D01*
X170496000Y-318097001D01*
X170496000Y-317446999D01*
X170497204Y-317422495D01*
X170500804Y-317398227D01*
X170506765Y-317374428D01*
X170515030Y-317351329D01*
X170525520Y-317329150D01*
X170538132Y-317308107D01*
X170552747Y-317288401D01*
X170569223Y-317270223D01*
X170587401Y-317253747D01*
X170607107Y-317239132D01*
X170628150Y-317226520D01*
X170650329Y-317216030D01*
X170673428Y-317207765D01*
X170697227Y-317201804D01*
X170721495Y-317198204D01*
X170745999Y-317197000D01*
X171646001Y-317197000D01*
X171670505Y-317198204D01*
G37*
G36*
X171670505Y-315148204D02*
G01*
X171694773Y-315151804D01*
X171718572Y-315157765D01*
X171741671Y-315166030D01*
X171763850Y-315176520D01*
X171784893Y-315189132D01*
X171804599Y-315203747D01*
X171822777Y-315220223D01*
X171839253Y-315238401D01*
X171853868Y-315258107D01*
X171866480Y-315279150D01*
X171876970Y-315301329D01*
X171885235Y-315324428D01*
X171891196Y-315348227D01*
X171894796Y-315372495D01*
X171896000Y-315396999D01*
X171896000Y-316047001D01*
X171894796Y-316071505D01*
X171891196Y-316095773D01*
X171885235Y-316119572D01*
X171876970Y-316142671D01*
X171866480Y-316164850D01*
X171853868Y-316185893D01*
X171839253Y-316205599D01*
X171822777Y-316223777D01*
X171804599Y-316240253D01*
X171784893Y-316254868D01*
X171763850Y-316267480D01*
X171741671Y-316277970D01*
X171718572Y-316286235D01*
X171694773Y-316292196D01*
X171670505Y-316295796D01*
X171646001Y-316297000D01*
X170745999Y-316297000D01*
X170721495Y-316295796D01*
X170697227Y-316292196D01*
X170673428Y-316286235D01*
X170650329Y-316277970D01*
X170628150Y-316267480D01*
X170607107Y-316254868D01*
X170587401Y-316240253D01*
X170569223Y-316223777D01*
X170552747Y-316205599D01*
X170538132Y-316185893D01*
X170525520Y-316164850D01*
X170515030Y-316142671D01*
X170506765Y-316119572D01*
X170500804Y-316095773D01*
X170497204Y-316071505D01*
X170496000Y-316047001D01*
X170496000Y-315396999D01*
X170497204Y-315372495D01*
X170500804Y-315348227D01*
X170506765Y-315324428D01*
X170515030Y-315301329D01*
X170525520Y-315279150D01*
X170538132Y-315258107D01*
X170552747Y-315238401D01*
X170569223Y-315220223D01*
X170587401Y-315203747D01*
X170607107Y-315189132D01*
X170628150Y-315176520D01*
X170650329Y-315166030D01*
X170673428Y-315157765D01*
X170697227Y-315151804D01*
X170721495Y-315148204D01*
X170745999Y-315147000D01*
X171646001Y-315147000D01*
X171670505Y-315148204D01*
G37*
G36*
X192368504Y-256503204D02*
G01*
X192392773Y-256506804D01*
X192416571Y-256512765D01*
X192439671Y-256521030D01*
X192461849Y-256531520D01*
X192482893Y-256544133D01*
X192502598Y-256558747D01*
X192520777Y-256575223D01*
X192537253Y-256593402D01*
X192551867Y-256613107D01*
X192564480Y-256634151D01*
X192574970Y-256656329D01*
X192583235Y-256679429D01*
X192589196Y-256703227D01*
X192592796Y-256727496D01*
X192594000Y-256752000D01*
X192594000Y-257852000D01*
X192592796Y-257876504D01*
X192589196Y-257900773D01*
X192583235Y-257924571D01*
X192574970Y-257947671D01*
X192564480Y-257969849D01*
X192551867Y-257990893D01*
X192537253Y-258010598D01*
X192520777Y-258028777D01*
X192502598Y-258045253D01*
X192482893Y-258059867D01*
X192461849Y-258072480D01*
X192439671Y-258082970D01*
X192416571Y-258091235D01*
X192392773Y-258097196D01*
X192368504Y-258100796D01*
X192344000Y-258102000D01*
X189844000Y-258102000D01*
X189819496Y-258100796D01*
X189795227Y-258097196D01*
X189771429Y-258091235D01*
X189748329Y-258082970D01*
X189726151Y-258072480D01*
X189705107Y-258059867D01*
X189685402Y-258045253D01*
X189667223Y-258028777D01*
X189650747Y-258010598D01*
X189636133Y-257990893D01*
X189623520Y-257969849D01*
X189613030Y-257947671D01*
X189604765Y-257924571D01*
X189598804Y-257900773D01*
X189595204Y-257876504D01*
X189594000Y-257852000D01*
X189594000Y-256752000D01*
X189595204Y-256727496D01*
X189598804Y-256703227D01*
X189604765Y-256679429D01*
X189613030Y-256656329D01*
X189623520Y-256634151D01*
X189636133Y-256613107D01*
X189650747Y-256593402D01*
X189667223Y-256575223D01*
X189685402Y-256558747D01*
X189705107Y-256544133D01*
X189726151Y-256531520D01*
X189748329Y-256521030D01*
X189771429Y-256512765D01*
X189795227Y-256506804D01*
X189819496Y-256503204D01*
X189844000Y-256502000D01*
X192344000Y-256502000D01*
X192368504Y-256503204D01*
G37*
G36*
X196768504Y-256503204D02*
G01*
X196792773Y-256506804D01*
X196816571Y-256512765D01*
X196839671Y-256521030D01*
X196861849Y-256531520D01*
X196882893Y-256544133D01*
X196902598Y-256558747D01*
X196920777Y-256575223D01*
X196937253Y-256593402D01*
X196951867Y-256613107D01*
X196964480Y-256634151D01*
X196974970Y-256656329D01*
X196983235Y-256679429D01*
X196989196Y-256703227D01*
X196992796Y-256727496D01*
X196994000Y-256752000D01*
X196994000Y-257852000D01*
X196992796Y-257876504D01*
X196989196Y-257900773D01*
X196983235Y-257924571D01*
X196974970Y-257947671D01*
X196964480Y-257969849D01*
X196951867Y-257990893D01*
X196937253Y-258010598D01*
X196920777Y-258028777D01*
X196902598Y-258045253D01*
X196882893Y-258059867D01*
X196861849Y-258072480D01*
X196839671Y-258082970D01*
X196816571Y-258091235D01*
X196792773Y-258097196D01*
X196768504Y-258100796D01*
X196744000Y-258102000D01*
X194244000Y-258102000D01*
X194219496Y-258100796D01*
X194195227Y-258097196D01*
X194171429Y-258091235D01*
X194148329Y-258082970D01*
X194126151Y-258072480D01*
X194105107Y-258059867D01*
X194085402Y-258045253D01*
X194067223Y-258028777D01*
X194050747Y-258010598D01*
X194036133Y-257990893D01*
X194023520Y-257969849D01*
X194013030Y-257947671D01*
X194004765Y-257924571D01*
X193998804Y-257900773D01*
X193995204Y-257876504D01*
X193994000Y-257852000D01*
X193994000Y-256752000D01*
X193995204Y-256727496D01*
X193998804Y-256703227D01*
X194004765Y-256679429D01*
X194013030Y-256656329D01*
X194023520Y-256634151D01*
X194036133Y-256613107D01*
X194050747Y-256593402D01*
X194067223Y-256575223D01*
X194085402Y-256558747D01*
X194105107Y-256544133D01*
X194126151Y-256531520D01*
X194148329Y-256521030D01*
X194171429Y-256512765D01*
X194195227Y-256506804D01*
X194219496Y-256503204D01*
X194244000Y-256502000D01*
X196744000Y-256502000D01*
X196768504Y-256503204D01*
G37*
G36*
X184978504Y-299151204D02*
G01*
X185002773Y-299154804D01*
X185026571Y-299160765D01*
X185049671Y-299169030D01*
X185071849Y-299179520D01*
X185092893Y-299192133D01*
X185112598Y-299206747D01*
X185130777Y-299223223D01*
X185147253Y-299241402D01*
X185161867Y-299261107D01*
X185174480Y-299282151D01*
X185184970Y-299304329D01*
X185193235Y-299327429D01*
X185199196Y-299351227D01*
X185202796Y-299375496D01*
X185204000Y-299400000D01*
X185204000Y-301900000D01*
X185202796Y-301924504D01*
X185199196Y-301948773D01*
X185193235Y-301972571D01*
X185184970Y-301995671D01*
X185174480Y-302017849D01*
X185161867Y-302038893D01*
X185147253Y-302058598D01*
X185130777Y-302076777D01*
X185112598Y-302093253D01*
X185092893Y-302107867D01*
X185071849Y-302120480D01*
X185049671Y-302130970D01*
X185026571Y-302139235D01*
X185002773Y-302145196D01*
X184978504Y-302148796D01*
X184954000Y-302150000D01*
X183854000Y-302150000D01*
X183829496Y-302148796D01*
X183805227Y-302145196D01*
X183781429Y-302139235D01*
X183758329Y-302130970D01*
X183736151Y-302120480D01*
X183715107Y-302107867D01*
X183695402Y-302093253D01*
X183677223Y-302076777D01*
X183660747Y-302058598D01*
X183646133Y-302038893D01*
X183633520Y-302017849D01*
X183623030Y-301995671D01*
X183614765Y-301972571D01*
X183608804Y-301948773D01*
X183605204Y-301924504D01*
X183604000Y-301900000D01*
X183604000Y-299400000D01*
X183605204Y-299375496D01*
X183608804Y-299351227D01*
X183614765Y-299327429D01*
X183623030Y-299304329D01*
X183633520Y-299282151D01*
X183646133Y-299261107D01*
X183660747Y-299241402D01*
X183677223Y-299223223D01*
X183695402Y-299206747D01*
X183715107Y-299192133D01*
X183736151Y-299179520D01*
X183758329Y-299169030D01*
X183781429Y-299160765D01*
X183805227Y-299154804D01*
X183829496Y-299151204D01*
X183854000Y-299150000D01*
X184954000Y-299150000D01*
X184978504Y-299151204D01*
G37*
G36*
X184978504Y-294751204D02*
G01*
X185002773Y-294754804D01*
X185026571Y-294760765D01*
X185049671Y-294769030D01*
X185071849Y-294779520D01*
X185092893Y-294792133D01*
X185112598Y-294806747D01*
X185130777Y-294823223D01*
X185147253Y-294841402D01*
X185161867Y-294861107D01*
X185174480Y-294882151D01*
X185184970Y-294904329D01*
X185193235Y-294927429D01*
X185199196Y-294951227D01*
X185202796Y-294975496D01*
X185204000Y-295000000D01*
X185204000Y-297500000D01*
X185202796Y-297524504D01*
X185199196Y-297548773D01*
X185193235Y-297572571D01*
X185184970Y-297595671D01*
X185174480Y-297617849D01*
X185161867Y-297638893D01*
X185147253Y-297658598D01*
X185130777Y-297676777D01*
X185112598Y-297693253D01*
X185092893Y-297707867D01*
X185071849Y-297720480D01*
X185049671Y-297730970D01*
X185026571Y-297739235D01*
X185002773Y-297745196D01*
X184978504Y-297748796D01*
X184954000Y-297750000D01*
X183854000Y-297750000D01*
X183829496Y-297748796D01*
X183805227Y-297745196D01*
X183781429Y-297739235D01*
X183758329Y-297730970D01*
X183736151Y-297720480D01*
X183715107Y-297707867D01*
X183695402Y-297693253D01*
X183677223Y-297676777D01*
X183660747Y-297658598D01*
X183646133Y-297638893D01*
X183633520Y-297617849D01*
X183623030Y-297595671D01*
X183614765Y-297572571D01*
X183608804Y-297548773D01*
X183605204Y-297524504D01*
X183604000Y-297500000D01*
X183604000Y-295000000D01*
X183605204Y-294975496D01*
X183608804Y-294951227D01*
X183614765Y-294927429D01*
X183623030Y-294904329D01*
X183633520Y-294882151D01*
X183646133Y-294861107D01*
X183660747Y-294841402D01*
X183677223Y-294823223D01*
X183695402Y-294806747D01*
X183715107Y-294792133D01*
X183736151Y-294779520D01*
X183758329Y-294769030D01*
X183781429Y-294760765D01*
X183805227Y-294754804D01*
X183829496Y-294751204D01*
X183854000Y-294750000D01*
X184954000Y-294750000D01*
X184978504Y-294751204D01*
G37*
G36*
X191593505Y-276669204D02*
G01*
X191617773Y-276672804D01*
X191641572Y-276678765D01*
X191664671Y-276687030D01*
X191686850Y-276697520D01*
X191707893Y-276710132D01*
X191727599Y-276724747D01*
X191745777Y-276741223D01*
X191762253Y-276759401D01*
X191776868Y-276779107D01*
X191789480Y-276800150D01*
X191799970Y-276822329D01*
X191808235Y-276845428D01*
X191814196Y-276869227D01*
X191817796Y-276893495D01*
X191819000Y-276917999D01*
X191819000Y-277818001D01*
X191817796Y-277842505D01*
X191814196Y-277866773D01*
X191808235Y-277890572D01*
X191799970Y-277913671D01*
X191789480Y-277935850D01*
X191776868Y-277956893D01*
X191762253Y-277976599D01*
X191745777Y-277994777D01*
X191727599Y-278011253D01*
X191707893Y-278025868D01*
X191686850Y-278038480D01*
X191664671Y-278048970D01*
X191641572Y-278057235D01*
X191617773Y-278063196D01*
X191593505Y-278066796D01*
X191569001Y-278068000D01*
X190918999Y-278068000D01*
X190894495Y-278066796D01*
X190870227Y-278063196D01*
X190846428Y-278057235D01*
X190823329Y-278048970D01*
X190801150Y-278038480D01*
X190780107Y-278025868D01*
X190760401Y-278011253D01*
X190742223Y-277994777D01*
X190725747Y-277976599D01*
X190711132Y-277956893D01*
X190698520Y-277935850D01*
X190688030Y-277913671D01*
X190679765Y-277890572D01*
X190673804Y-277866773D01*
X190670204Y-277842505D01*
X190669000Y-277818001D01*
X190669000Y-276917999D01*
X190670204Y-276893495D01*
X190673804Y-276869227D01*
X190679765Y-276845428D01*
X190688030Y-276822329D01*
X190698520Y-276800150D01*
X190711132Y-276779107D01*
X190725747Y-276759401D01*
X190742223Y-276741223D01*
X190760401Y-276724747D01*
X190780107Y-276710132D01*
X190801150Y-276697520D01*
X190823329Y-276687030D01*
X190846428Y-276678765D01*
X190870227Y-276672804D01*
X190894495Y-276669204D01*
X190918999Y-276668000D01*
X191569001Y-276668000D01*
X191593505Y-276669204D01*
G37*
G36*
X193643505Y-276669204D02*
G01*
X193667773Y-276672804D01*
X193691572Y-276678765D01*
X193714671Y-276687030D01*
X193736850Y-276697520D01*
X193757893Y-276710132D01*
X193777599Y-276724747D01*
X193795777Y-276741223D01*
X193812253Y-276759401D01*
X193826868Y-276779107D01*
X193839480Y-276800150D01*
X193849970Y-276822329D01*
X193858235Y-276845428D01*
X193864196Y-276869227D01*
X193867796Y-276893495D01*
X193869000Y-276917999D01*
X193869000Y-277818001D01*
X193867796Y-277842505D01*
X193864196Y-277866773D01*
X193858235Y-277890572D01*
X193849970Y-277913671D01*
X193839480Y-277935850D01*
X193826868Y-277956893D01*
X193812253Y-277976599D01*
X193795777Y-277994777D01*
X193777599Y-278011253D01*
X193757893Y-278025868D01*
X193736850Y-278038480D01*
X193714671Y-278048970D01*
X193691572Y-278057235D01*
X193667773Y-278063196D01*
X193643505Y-278066796D01*
X193619001Y-278068000D01*
X192968999Y-278068000D01*
X192944495Y-278066796D01*
X192920227Y-278063196D01*
X192896428Y-278057235D01*
X192873329Y-278048970D01*
X192851150Y-278038480D01*
X192830107Y-278025868D01*
X192810401Y-278011253D01*
X192792223Y-277994777D01*
X192775747Y-277976599D01*
X192761132Y-277956893D01*
X192748520Y-277935850D01*
X192738030Y-277913671D01*
X192729765Y-277890572D01*
X192723804Y-277866773D01*
X192720204Y-277842505D01*
X192719000Y-277818001D01*
X192719000Y-276917999D01*
X192720204Y-276893495D01*
X192723804Y-276869227D01*
X192729765Y-276845428D01*
X192738030Y-276822329D01*
X192748520Y-276800150D01*
X192761132Y-276779107D01*
X192775747Y-276759401D01*
X192792223Y-276741223D01*
X192810401Y-276724747D01*
X192830107Y-276710132D01*
X192851150Y-276697520D01*
X192873329Y-276687030D01*
X192896428Y-276678765D01*
X192920227Y-276672804D01*
X192944495Y-276669204D01*
X192968999Y-276668000D01*
X193619001Y-276668000D01*
X193643505Y-276669204D01*
G37*
G36*
X192622504Y-271743204D02*
G01*
X192646773Y-271746804D01*
X192670571Y-271752765D01*
X192693671Y-271761030D01*
X192715849Y-271771520D01*
X192736893Y-271784133D01*
X192756598Y-271798747D01*
X192774777Y-271815223D01*
X192791253Y-271833402D01*
X192805867Y-271853107D01*
X192818480Y-271874151D01*
X192828970Y-271896329D01*
X192837235Y-271919429D01*
X192843196Y-271943227D01*
X192846796Y-271967496D01*
X192848000Y-271992000D01*
X192848000Y-273092000D01*
X192846796Y-273116504D01*
X192843196Y-273140773D01*
X192837235Y-273164571D01*
X192828970Y-273187671D01*
X192818480Y-273209849D01*
X192805867Y-273230893D01*
X192791253Y-273250598D01*
X192774777Y-273268777D01*
X192756598Y-273285253D01*
X192736893Y-273299867D01*
X192715849Y-273312480D01*
X192693671Y-273322970D01*
X192670571Y-273331235D01*
X192646773Y-273337196D01*
X192622504Y-273340796D01*
X192598000Y-273342000D01*
X190098000Y-273342000D01*
X190073496Y-273340796D01*
X190049227Y-273337196D01*
X190025429Y-273331235D01*
X190002329Y-273322970D01*
X189980151Y-273312480D01*
X189959107Y-273299867D01*
X189939402Y-273285253D01*
X189921223Y-273268777D01*
X189904747Y-273250598D01*
X189890133Y-273230893D01*
X189877520Y-273209849D01*
X189867030Y-273187671D01*
X189858765Y-273164571D01*
X189852804Y-273140773D01*
X189849204Y-273116504D01*
X189848000Y-273092000D01*
X189848000Y-271992000D01*
X189849204Y-271967496D01*
X189852804Y-271943227D01*
X189858765Y-271919429D01*
X189867030Y-271896329D01*
X189877520Y-271874151D01*
X189890133Y-271853107D01*
X189904747Y-271833402D01*
X189921223Y-271815223D01*
X189939402Y-271798747D01*
X189959107Y-271784133D01*
X189980151Y-271771520D01*
X190002329Y-271761030D01*
X190025429Y-271752765D01*
X190049227Y-271746804D01*
X190073496Y-271743204D01*
X190098000Y-271742000D01*
X192598000Y-271742000D01*
X192622504Y-271743204D01*
G37*
G36*
X197022504Y-271743204D02*
G01*
X197046773Y-271746804D01*
X197070571Y-271752765D01*
X197093671Y-271761030D01*
X197115849Y-271771520D01*
X197136893Y-271784133D01*
X197156598Y-271798747D01*
X197174777Y-271815223D01*
X197191253Y-271833402D01*
X197205867Y-271853107D01*
X197218480Y-271874151D01*
X197228970Y-271896329D01*
X197237235Y-271919429D01*
X197243196Y-271943227D01*
X197246796Y-271967496D01*
X197248000Y-271992000D01*
X197248000Y-273092000D01*
X197246796Y-273116504D01*
X197243196Y-273140773D01*
X197237235Y-273164571D01*
X197228970Y-273187671D01*
X197218480Y-273209849D01*
X197205867Y-273230893D01*
X197191253Y-273250598D01*
X197174777Y-273268777D01*
X197156598Y-273285253D01*
X197136893Y-273299867D01*
X197115849Y-273312480D01*
X197093671Y-273322970D01*
X197070571Y-273331235D01*
X197046773Y-273337196D01*
X197022504Y-273340796D01*
X196998000Y-273342000D01*
X194498000Y-273342000D01*
X194473496Y-273340796D01*
X194449227Y-273337196D01*
X194425429Y-273331235D01*
X194402329Y-273322970D01*
X194380151Y-273312480D01*
X194359107Y-273299867D01*
X194339402Y-273285253D01*
X194321223Y-273268777D01*
X194304747Y-273250598D01*
X194290133Y-273230893D01*
X194277520Y-273209849D01*
X194267030Y-273187671D01*
X194258765Y-273164571D01*
X194252804Y-273140773D01*
X194249204Y-273116504D01*
X194248000Y-273092000D01*
X194248000Y-271992000D01*
X194249204Y-271967496D01*
X194252804Y-271943227D01*
X194258765Y-271919429D01*
X194267030Y-271896329D01*
X194277520Y-271874151D01*
X194290133Y-271853107D01*
X194304747Y-271833402D01*
X194321223Y-271815223D01*
X194339402Y-271798747D01*
X194359107Y-271784133D01*
X194380151Y-271771520D01*
X194402329Y-271761030D01*
X194425429Y-271752765D01*
X194449227Y-271746804D01*
X194473496Y-271743204D01*
X194498000Y-271742000D01*
X196998000Y-271742000D01*
X197022504Y-271743204D01*
G37*
G36*
X140049505Y-210121204D02*
G01*
X140073773Y-210124804D01*
X140097572Y-210130765D01*
X140120671Y-210139030D01*
X140142850Y-210149520D01*
X140163893Y-210162132D01*
X140183599Y-210176747D01*
X140201777Y-210193223D01*
X140218253Y-210211401D01*
X140232868Y-210231107D01*
X140245480Y-210252150D01*
X140255970Y-210274329D01*
X140264235Y-210297428D01*
X140270196Y-210321227D01*
X140273796Y-210345495D01*
X140275000Y-210369999D01*
X140275000Y-211270001D01*
X140273796Y-211294505D01*
X140270196Y-211318773D01*
X140264235Y-211342572D01*
X140255970Y-211365671D01*
X140245480Y-211387850D01*
X140232868Y-211408893D01*
X140218253Y-211428599D01*
X140201777Y-211446777D01*
X140183599Y-211463253D01*
X140163893Y-211477868D01*
X140142850Y-211490480D01*
X140120671Y-211500970D01*
X140097572Y-211509235D01*
X140073773Y-211515196D01*
X140049505Y-211518796D01*
X140025001Y-211520000D01*
X139374999Y-211520000D01*
X139350495Y-211518796D01*
X139326227Y-211515196D01*
X139302428Y-211509235D01*
X139279329Y-211500970D01*
X139257150Y-211490480D01*
X139236107Y-211477868D01*
X139216401Y-211463253D01*
X139198223Y-211446777D01*
X139181747Y-211428599D01*
X139167132Y-211408893D01*
X139154520Y-211387850D01*
X139144030Y-211365671D01*
X139135765Y-211342572D01*
X139129804Y-211318773D01*
X139126204Y-211294505D01*
X139125000Y-211270001D01*
X139125000Y-210369999D01*
X139126204Y-210345495D01*
X139129804Y-210321227D01*
X139135765Y-210297428D01*
X139144030Y-210274329D01*
X139154520Y-210252150D01*
X139167132Y-210231107D01*
X139181747Y-210211401D01*
X139198223Y-210193223D01*
X139216401Y-210176747D01*
X139236107Y-210162132D01*
X139257150Y-210149520D01*
X139279329Y-210139030D01*
X139302428Y-210130765D01*
X139326227Y-210124804D01*
X139350495Y-210121204D01*
X139374999Y-210120000D01*
X140025001Y-210120000D01*
X140049505Y-210121204D01*
G37*
G36*
X137999505Y-210121204D02*
G01*
X138023773Y-210124804D01*
X138047572Y-210130765D01*
X138070671Y-210139030D01*
X138092850Y-210149520D01*
X138113893Y-210162132D01*
X138133599Y-210176747D01*
X138151777Y-210193223D01*
X138168253Y-210211401D01*
X138182868Y-210231107D01*
X138195480Y-210252150D01*
X138205970Y-210274329D01*
X138214235Y-210297428D01*
X138220196Y-210321227D01*
X138223796Y-210345495D01*
X138225000Y-210369999D01*
X138225000Y-211270001D01*
X138223796Y-211294505D01*
X138220196Y-211318773D01*
X138214235Y-211342572D01*
X138205970Y-211365671D01*
X138195480Y-211387850D01*
X138182868Y-211408893D01*
X138168253Y-211428599D01*
X138151777Y-211446777D01*
X138133599Y-211463253D01*
X138113893Y-211477868D01*
X138092850Y-211490480D01*
X138070671Y-211500970D01*
X138047572Y-211509235D01*
X138023773Y-211515196D01*
X137999505Y-211518796D01*
X137975001Y-211520000D01*
X137324999Y-211520000D01*
X137300495Y-211518796D01*
X137276227Y-211515196D01*
X137252428Y-211509235D01*
X137229329Y-211500970D01*
X137207150Y-211490480D01*
X137186107Y-211477868D01*
X137166401Y-211463253D01*
X137148223Y-211446777D01*
X137131747Y-211428599D01*
X137117132Y-211408893D01*
X137104520Y-211387850D01*
X137094030Y-211365671D01*
X137085765Y-211342572D01*
X137079804Y-211318773D01*
X137076204Y-211294505D01*
X137075000Y-211270001D01*
X137075000Y-210369999D01*
X137076204Y-210345495D01*
X137079804Y-210321227D01*
X137085765Y-210297428D01*
X137094030Y-210274329D01*
X137104520Y-210252150D01*
X137117132Y-210231107D01*
X137131747Y-210211401D01*
X137148223Y-210193223D01*
X137166401Y-210176747D01*
X137186107Y-210162132D01*
X137207150Y-210149520D01*
X137229329Y-210139030D01*
X137252428Y-210130765D01*
X137276227Y-210124804D01*
X137300495Y-210121204D01*
X137324999Y-210120000D01*
X137975001Y-210120000D01*
X137999505Y-210121204D01*
G37*
G36*
X162272505Y-298366204D02*
G01*
X162296773Y-298369804D01*
X162320572Y-298375765D01*
X162343671Y-298384030D01*
X162365850Y-298394520D01*
X162386893Y-298407132D01*
X162406599Y-298421747D01*
X162424777Y-298438223D01*
X162441253Y-298456401D01*
X162455868Y-298476107D01*
X162468480Y-298497150D01*
X162478970Y-298519329D01*
X162487235Y-298542428D01*
X162493196Y-298566227D01*
X162496796Y-298590495D01*
X162498000Y-298614999D01*
X162498000Y-299265001D01*
X162496796Y-299289505D01*
X162493196Y-299313773D01*
X162487235Y-299337572D01*
X162478970Y-299360671D01*
X162468480Y-299382850D01*
X162455868Y-299403893D01*
X162441253Y-299423599D01*
X162424777Y-299441777D01*
X162406599Y-299458253D01*
X162386893Y-299472868D01*
X162365850Y-299485480D01*
X162343671Y-299495970D01*
X162320572Y-299504235D01*
X162296773Y-299510196D01*
X162272505Y-299513796D01*
X162248001Y-299515000D01*
X161347999Y-299515000D01*
X161323495Y-299513796D01*
X161299227Y-299510196D01*
X161275428Y-299504235D01*
X161252329Y-299495970D01*
X161230150Y-299485480D01*
X161209107Y-299472868D01*
X161189401Y-299458253D01*
X161171223Y-299441777D01*
X161154747Y-299423599D01*
X161140132Y-299403893D01*
X161127520Y-299382850D01*
X161117030Y-299360671D01*
X161108765Y-299337572D01*
X161102804Y-299313773D01*
X161099204Y-299289505D01*
X161098000Y-299265001D01*
X161098000Y-298614999D01*
X161099204Y-298590495D01*
X161102804Y-298566227D01*
X161108765Y-298542428D01*
X161117030Y-298519329D01*
X161127520Y-298497150D01*
X161140132Y-298476107D01*
X161154747Y-298456401D01*
X161171223Y-298438223D01*
X161189401Y-298421747D01*
X161209107Y-298407132D01*
X161230150Y-298394520D01*
X161252329Y-298384030D01*
X161275428Y-298375765D01*
X161299227Y-298369804D01*
X161323495Y-298366204D01*
X161347999Y-298365000D01*
X162248001Y-298365000D01*
X162272505Y-298366204D01*
G37*
G36*
X162272505Y-300416204D02*
G01*
X162296773Y-300419804D01*
X162320572Y-300425765D01*
X162343671Y-300434030D01*
X162365850Y-300444520D01*
X162386893Y-300457132D01*
X162406599Y-300471747D01*
X162424777Y-300488223D01*
X162441253Y-300506401D01*
X162455868Y-300526107D01*
X162468480Y-300547150D01*
X162478970Y-300569329D01*
X162487235Y-300592428D01*
X162493196Y-300616227D01*
X162496796Y-300640495D01*
X162498000Y-300664999D01*
X162498000Y-301315001D01*
X162496796Y-301339505D01*
X162493196Y-301363773D01*
X162487235Y-301387572D01*
X162478970Y-301410671D01*
X162468480Y-301432850D01*
X162455868Y-301453893D01*
X162441253Y-301473599D01*
X162424777Y-301491777D01*
X162406599Y-301508253D01*
X162386893Y-301522868D01*
X162365850Y-301535480D01*
X162343671Y-301545970D01*
X162320572Y-301554235D01*
X162296773Y-301560196D01*
X162272505Y-301563796D01*
X162248001Y-301565000D01*
X161347999Y-301565000D01*
X161323495Y-301563796D01*
X161299227Y-301560196D01*
X161275428Y-301554235D01*
X161252329Y-301545970D01*
X161230150Y-301535480D01*
X161209107Y-301522868D01*
X161189401Y-301508253D01*
X161171223Y-301491777D01*
X161154747Y-301473599D01*
X161140132Y-301453893D01*
X161127520Y-301432850D01*
X161117030Y-301410671D01*
X161108765Y-301387572D01*
X161102804Y-301363773D01*
X161099204Y-301339505D01*
X161098000Y-301315001D01*
X161098000Y-300664999D01*
X161099204Y-300640495D01*
X161102804Y-300616227D01*
X161108765Y-300592428D01*
X161117030Y-300569329D01*
X161127520Y-300547150D01*
X161140132Y-300526107D01*
X161154747Y-300506401D01*
X161171223Y-300488223D01*
X161189401Y-300471747D01*
X161209107Y-300457132D01*
X161230150Y-300444520D01*
X161252329Y-300434030D01*
X161275428Y-300425765D01*
X161299227Y-300419804D01*
X161323495Y-300416204D01*
X161347999Y-300415000D01*
X162248001Y-300415000D01*
X162272505Y-300416204D01*
G37*
G36*
X191860504Y-316447204D02*
G01*
X191884773Y-316450804D01*
X191908571Y-316456765D01*
X191931671Y-316465030D01*
X191953849Y-316475520D01*
X191974893Y-316488133D01*
X191994598Y-316502747D01*
X192012777Y-316519223D01*
X192029253Y-316537402D01*
X192043867Y-316557107D01*
X192056480Y-316578151D01*
X192066970Y-316600329D01*
X192075235Y-316623429D01*
X192081196Y-316647227D01*
X192084796Y-316671496D01*
X192086000Y-316696000D01*
X192086000Y-317796000D01*
X192084796Y-317820504D01*
X192081196Y-317844773D01*
X192075235Y-317868571D01*
X192066970Y-317891671D01*
X192056480Y-317913849D01*
X192043867Y-317934893D01*
X192029253Y-317954598D01*
X192012777Y-317972777D01*
X191994598Y-317989253D01*
X191974893Y-318003867D01*
X191953849Y-318016480D01*
X191931671Y-318026970D01*
X191908571Y-318035235D01*
X191884773Y-318041196D01*
X191860504Y-318044796D01*
X191836000Y-318046000D01*
X189336000Y-318046000D01*
X189311496Y-318044796D01*
X189287227Y-318041196D01*
X189263429Y-318035235D01*
X189240329Y-318026970D01*
X189218151Y-318016480D01*
X189197107Y-318003867D01*
X189177402Y-317989253D01*
X189159223Y-317972777D01*
X189142747Y-317954598D01*
X189128133Y-317934893D01*
X189115520Y-317913849D01*
X189105030Y-317891671D01*
X189096765Y-317868571D01*
X189090804Y-317844773D01*
X189087204Y-317820504D01*
X189086000Y-317796000D01*
X189086000Y-316696000D01*
X189087204Y-316671496D01*
X189090804Y-316647227D01*
X189096765Y-316623429D01*
X189105030Y-316600329D01*
X189115520Y-316578151D01*
X189128133Y-316557107D01*
X189142747Y-316537402D01*
X189159223Y-316519223D01*
X189177402Y-316502747D01*
X189197107Y-316488133D01*
X189218151Y-316475520D01*
X189240329Y-316465030D01*
X189263429Y-316456765D01*
X189287227Y-316450804D01*
X189311496Y-316447204D01*
X189336000Y-316446000D01*
X191836000Y-316446000D01*
X191860504Y-316447204D01*
G37*
G36*
X196260504Y-316447204D02*
G01*
X196284773Y-316450804D01*
X196308571Y-316456765D01*
X196331671Y-316465030D01*
X196353849Y-316475520D01*
X196374893Y-316488133D01*
X196394598Y-316502747D01*
X196412777Y-316519223D01*
X196429253Y-316537402D01*
X196443867Y-316557107D01*
X196456480Y-316578151D01*
X196466970Y-316600329D01*
X196475235Y-316623429D01*
X196481196Y-316647227D01*
X196484796Y-316671496D01*
X196486000Y-316696000D01*
X196486000Y-317796000D01*
X196484796Y-317820504D01*
X196481196Y-317844773D01*
X196475235Y-317868571D01*
X196466970Y-317891671D01*
X196456480Y-317913849D01*
X196443867Y-317934893D01*
X196429253Y-317954598D01*
X196412777Y-317972777D01*
X196394598Y-317989253D01*
X196374893Y-318003867D01*
X196353849Y-318016480D01*
X196331671Y-318026970D01*
X196308571Y-318035235D01*
X196284773Y-318041196D01*
X196260504Y-318044796D01*
X196236000Y-318046000D01*
X193736000Y-318046000D01*
X193711496Y-318044796D01*
X193687227Y-318041196D01*
X193663429Y-318035235D01*
X193640329Y-318026970D01*
X193618151Y-318016480D01*
X193597107Y-318003867D01*
X193577402Y-317989253D01*
X193559223Y-317972777D01*
X193542747Y-317954598D01*
X193528133Y-317934893D01*
X193515520Y-317913849D01*
X193505030Y-317891671D01*
X193496765Y-317868571D01*
X193490804Y-317844773D01*
X193487204Y-317820504D01*
X193486000Y-317796000D01*
X193486000Y-316696000D01*
X193487204Y-316671496D01*
X193490804Y-316647227D01*
X193496765Y-316623429D01*
X193505030Y-316600329D01*
X193515520Y-316578151D01*
X193528133Y-316557107D01*
X193542747Y-316537402D01*
X193559223Y-316519223D01*
X193577402Y-316502747D01*
X193597107Y-316488133D01*
X193618151Y-316475520D01*
X193640329Y-316465030D01*
X193663429Y-316456765D01*
X193687227Y-316450804D01*
X193711496Y-316447204D01*
X193736000Y-316446000D01*
X196236000Y-316446000D01*
X196260504Y-316447204D01*
G37*
G36*
X99994504Y-304763204D02*
G01*
X100018773Y-304766804D01*
X100042571Y-304772765D01*
X100065671Y-304781030D01*
X100087849Y-304791520D01*
X100108893Y-304804133D01*
X100128598Y-304818747D01*
X100146777Y-304835223D01*
X100163253Y-304853402D01*
X100177867Y-304873107D01*
X100190480Y-304894151D01*
X100200970Y-304916329D01*
X100209235Y-304939429D01*
X100215196Y-304963227D01*
X100218796Y-304987496D01*
X100220000Y-305012000D01*
X100220000Y-306112000D01*
X100218796Y-306136504D01*
X100215196Y-306160773D01*
X100209235Y-306184571D01*
X100200970Y-306207671D01*
X100190480Y-306229849D01*
X100177867Y-306250893D01*
X100163253Y-306270598D01*
X100146777Y-306288777D01*
X100128598Y-306305253D01*
X100108893Y-306319867D01*
X100087849Y-306332480D01*
X100065671Y-306342970D01*
X100042571Y-306351235D01*
X100018773Y-306357196D01*
X99994504Y-306360796D01*
X99970000Y-306362000D01*
X97470000Y-306362000D01*
X97445496Y-306360796D01*
X97421227Y-306357196D01*
X97397429Y-306351235D01*
X97374329Y-306342970D01*
X97352151Y-306332480D01*
X97331107Y-306319867D01*
X97311402Y-306305253D01*
X97293223Y-306288777D01*
X97276747Y-306270598D01*
X97262133Y-306250893D01*
X97249520Y-306229849D01*
X97239030Y-306207671D01*
X97230765Y-306184571D01*
X97224804Y-306160773D01*
X97221204Y-306136504D01*
X97220000Y-306112000D01*
X97220000Y-305012000D01*
X97221204Y-304987496D01*
X97224804Y-304963227D01*
X97230765Y-304939429D01*
X97239030Y-304916329D01*
X97249520Y-304894151D01*
X97262133Y-304873107D01*
X97276747Y-304853402D01*
X97293223Y-304835223D01*
X97311402Y-304818747D01*
X97331107Y-304804133D01*
X97352151Y-304791520D01*
X97374329Y-304781030D01*
X97397429Y-304772765D01*
X97421227Y-304766804D01*
X97445496Y-304763204D01*
X97470000Y-304762000D01*
X99970000Y-304762000D01*
X99994504Y-304763204D01*
G37*
G36*
X95594504Y-304763204D02*
G01*
X95618773Y-304766804D01*
X95642571Y-304772765D01*
X95665671Y-304781030D01*
X95687849Y-304791520D01*
X95708893Y-304804133D01*
X95728598Y-304818747D01*
X95746777Y-304835223D01*
X95763253Y-304853402D01*
X95777867Y-304873107D01*
X95790480Y-304894151D01*
X95800970Y-304916329D01*
X95809235Y-304939429D01*
X95815196Y-304963227D01*
X95818796Y-304987496D01*
X95820000Y-305012000D01*
X95820000Y-306112000D01*
X95818796Y-306136504D01*
X95815196Y-306160773D01*
X95809235Y-306184571D01*
X95800970Y-306207671D01*
X95790480Y-306229849D01*
X95777867Y-306250893D01*
X95763253Y-306270598D01*
X95746777Y-306288777D01*
X95728598Y-306305253D01*
X95708893Y-306319867D01*
X95687849Y-306332480D01*
X95665671Y-306342970D01*
X95642571Y-306351235D01*
X95618773Y-306357196D01*
X95594504Y-306360796D01*
X95570000Y-306362000D01*
X93070000Y-306362000D01*
X93045496Y-306360796D01*
X93021227Y-306357196D01*
X92997429Y-306351235D01*
X92974329Y-306342970D01*
X92952151Y-306332480D01*
X92931107Y-306319867D01*
X92911402Y-306305253D01*
X92893223Y-306288777D01*
X92876747Y-306270598D01*
X92862133Y-306250893D01*
X92849520Y-306229849D01*
X92839030Y-306207671D01*
X92830765Y-306184571D01*
X92824804Y-306160773D01*
X92821204Y-306136504D01*
X92820000Y-306112000D01*
X92820000Y-305012000D01*
X92821204Y-304987496D01*
X92824804Y-304963227D01*
X92830765Y-304939429D01*
X92839030Y-304916329D01*
X92849520Y-304894151D01*
X92862133Y-304873107D01*
X92876747Y-304853402D01*
X92893223Y-304835223D01*
X92911402Y-304818747D01*
X92931107Y-304804133D01*
X92952151Y-304791520D01*
X92974329Y-304781030D01*
X92997429Y-304772765D01*
X93021227Y-304766804D01*
X93045496Y-304763204D01*
X93070000Y-304762000D01*
X95570000Y-304762000D01*
X95594504Y-304763204D01*
G37*
G36*
X110964505Y-317198204D02*
G01*
X110988773Y-317201804D01*
X111012572Y-317207765D01*
X111035671Y-317216030D01*
X111057850Y-317226520D01*
X111078893Y-317239132D01*
X111098599Y-317253747D01*
X111116777Y-317270223D01*
X111133253Y-317288401D01*
X111147868Y-317308107D01*
X111160480Y-317329150D01*
X111170970Y-317351329D01*
X111179235Y-317374428D01*
X111185196Y-317398227D01*
X111188796Y-317422495D01*
X111190000Y-317446999D01*
X111190000Y-318097001D01*
X111188796Y-318121505D01*
X111185196Y-318145773D01*
X111179235Y-318169572D01*
X111170970Y-318192671D01*
X111160480Y-318214850D01*
X111147868Y-318235893D01*
X111133253Y-318255599D01*
X111116777Y-318273777D01*
X111098599Y-318290253D01*
X111078893Y-318304868D01*
X111057850Y-318317480D01*
X111035671Y-318327970D01*
X111012572Y-318336235D01*
X110988773Y-318342196D01*
X110964505Y-318345796D01*
X110940001Y-318347000D01*
X110039999Y-318347000D01*
X110015495Y-318345796D01*
X109991227Y-318342196D01*
X109967428Y-318336235D01*
X109944329Y-318327970D01*
X109922150Y-318317480D01*
X109901107Y-318304868D01*
X109881401Y-318290253D01*
X109863223Y-318273777D01*
X109846747Y-318255599D01*
X109832132Y-318235893D01*
X109819520Y-318214850D01*
X109809030Y-318192671D01*
X109800765Y-318169572D01*
X109794804Y-318145773D01*
X109791204Y-318121505D01*
X109790000Y-318097001D01*
X109790000Y-317446999D01*
X109791204Y-317422495D01*
X109794804Y-317398227D01*
X109800765Y-317374428D01*
X109809030Y-317351329D01*
X109819520Y-317329150D01*
X109832132Y-317308107D01*
X109846747Y-317288401D01*
X109863223Y-317270223D01*
X109881401Y-317253747D01*
X109901107Y-317239132D01*
X109922150Y-317226520D01*
X109944329Y-317216030D01*
X109967428Y-317207765D01*
X109991227Y-317201804D01*
X110015495Y-317198204D01*
X110039999Y-317197000D01*
X110940001Y-317197000D01*
X110964505Y-317198204D01*
G37*
G36*
X110964505Y-315148204D02*
G01*
X110988773Y-315151804D01*
X111012572Y-315157765D01*
X111035671Y-315166030D01*
X111057850Y-315176520D01*
X111078893Y-315189132D01*
X111098599Y-315203747D01*
X111116777Y-315220223D01*
X111133253Y-315238401D01*
X111147868Y-315258107D01*
X111160480Y-315279150D01*
X111170970Y-315301329D01*
X111179235Y-315324428D01*
X111185196Y-315348227D01*
X111188796Y-315372495D01*
X111190000Y-315396999D01*
X111190000Y-316047001D01*
X111188796Y-316071505D01*
X111185196Y-316095773D01*
X111179235Y-316119572D01*
X111170970Y-316142671D01*
X111160480Y-316164850D01*
X111147868Y-316185893D01*
X111133253Y-316205599D01*
X111116777Y-316223777D01*
X111098599Y-316240253D01*
X111078893Y-316254868D01*
X111057850Y-316267480D01*
X111035671Y-316277970D01*
X111012572Y-316286235D01*
X110988773Y-316292196D01*
X110964505Y-316295796D01*
X110940001Y-316297000D01*
X110039999Y-316297000D01*
X110015495Y-316295796D01*
X109991227Y-316292196D01*
X109967428Y-316286235D01*
X109944329Y-316277970D01*
X109922150Y-316267480D01*
X109901107Y-316254868D01*
X109881401Y-316240253D01*
X109863223Y-316223777D01*
X109846747Y-316205599D01*
X109832132Y-316185893D01*
X109819520Y-316164850D01*
X109809030Y-316142671D01*
X109800765Y-316119572D01*
X109794804Y-316095773D01*
X109791204Y-316071505D01*
X109790000Y-316047001D01*
X109790000Y-315396999D01*
X109791204Y-315372495D01*
X109794804Y-315348227D01*
X109800765Y-315324428D01*
X109809030Y-315301329D01*
X109819520Y-315279150D01*
X109832132Y-315258107D01*
X109846747Y-315238401D01*
X109863223Y-315220223D01*
X109881401Y-315203747D01*
X109901107Y-315189132D01*
X109922150Y-315176520D01*
X109944329Y-315166030D01*
X109967428Y-315157765D01*
X109991227Y-315151804D01*
X110015495Y-315148204D01*
X110039999Y-315147000D01*
X110940001Y-315147000D01*
X110964505Y-315148204D01*
G37*
G36*
X147794505Y-317180204D02*
G01*
X147818773Y-317183804D01*
X147842572Y-317189765D01*
X147865671Y-317198030D01*
X147887850Y-317208520D01*
X147908893Y-317221132D01*
X147928599Y-317235747D01*
X147946777Y-317252223D01*
X147963253Y-317270401D01*
X147977868Y-317290107D01*
X147990480Y-317311150D01*
X148000970Y-317333329D01*
X148009235Y-317356428D01*
X148015196Y-317380227D01*
X148018796Y-317404495D01*
X148020000Y-317428999D01*
X148020000Y-318079001D01*
X148018796Y-318103505D01*
X148015196Y-318127773D01*
X148009235Y-318151572D01*
X148000970Y-318174671D01*
X147990480Y-318196850D01*
X147977868Y-318217893D01*
X147963253Y-318237599D01*
X147946777Y-318255777D01*
X147928599Y-318272253D01*
X147908893Y-318286868D01*
X147887850Y-318299480D01*
X147865671Y-318309970D01*
X147842572Y-318318235D01*
X147818773Y-318324196D01*
X147794505Y-318327796D01*
X147770001Y-318329000D01*
X146869999Y-318329000D01*
X146845495Y-318327796D01*
X146821227Y-318324196D01*
X146797428Y-318318235D01*
X146774329Y-318309970D01*
X146752150Y-318299480D01*
X146731107Y-318286868D01*
X146711401Y-318272253D01*
X146693223Y-318255777D01*
X146676747Y-318237599D01*
X146662132Y-318217893D01*
X146649520Y-318196850D01*
X146639030Y-318174671D01*
X146630765Y-318151572D01*
X146624804Y-318127773D01*
X146621204Y-318103505D01*
X146620000Y-318079001D01*
X146620000Y-317428999D01*
X146621204Y-317404495D01*
X146624804Y-317380227D01*
X146630765Y-317356428D01*
X146639030Y-317333329D01*
X146649520Y-317311150D01*
X146662132Y-317290107D01*
X146676747Y-317270401D01*
X146693223Y-317252223D01*
X146711401Y-317235747D01*
X146731107Y-317221132D01*
X146752150Y-317208520D01*
X146774329Y-317198030D01*
X146797428Y-317189765D01*
X146821227Y-317183804D01*
X146845495Y-317180204D01*
X146869999Y-317179000D01*
X147770001Y-317179000D01*
X147794505Y-317180204D01*
G37*
G36*
X147794505Y-315130204D02*
G01*
X147818773Y-315133804D01*
X147842572Y-315139765D01*
X147865671Y-315148030D01*
X147887850Y-315158520D01*
X147908893Y-315171132D01*
X147928599Y-315185747D01*
X147946777Y-315202223D01*
X147963253Y-315220401D01*
X147977868Y-315240107D01*
X147990480Y-315261150D01*
X148000970Y-315283329D01*
X148009235Y-315306428D01*
X148015196Y-315330227D01*
X148018796Y-315354495D01*
X148020000Y-315378999D01*
X148020000Y-316029001D01*
X148018796Y-316053505D01*
X148015196Y-316077773D01*
X148009235Y-316101572D01*
X148000970Y-316124671D01*
X147990480Y-316146850D01*
X147977868Y-316167893D01*
X147963253Y-316187599D01*
X147946777Y-316205777D01*
X147928599Y-316222253D01*
X147908893Y-316236868D01*
X147887850Y-316249480D01*
X147865671Y-316259970D01*
X147842572Y-316268235D01*
X147818773Y-316274196D01*
X147794505Y-316277796D01*
X147770001Y-316279000D01*
X146869999Y-316279000D01*
X146845495Y-316277796D01*
X146821227Y-316274196D01*
X146797428Y-316268235D01*
X146774329Y-316259970D01*
X146752150Y-316249480D01*
X146731107Y-316236868D01*
X146711401Y-316222253D01*
X146693223Y-316205777D01*
X146676747Y-316187599D01*
X146662132Y-316167893D01*
X146649520Y-316146850D01*
X146639030Y-316124671D01*
X146630765Y-316101572D01*
X146624804Y-316077773D01*
X146621204Y-316053505D01*
X146620000Y-316029001D01*
X146620000Y-315378999D01*
X146621204Y-315354495D01*
X146624804Y-315330227D01*
X146630765Y-315306428D01*
X146639030Y-315283329D01*
X146649520Y-315261150D01*
X146662132Y-315240107D01*
X146676747Y-315220401D01*
X146693223Y-315202223D01*
X146711401Y-315185747D01*
X146731107Y-315171132D01*
X146752150Y-315158520D01*
X146774329Y-315148030D01*
X146797428Y-315139765D01*
X146821227Y-315133804D01*
X146845495Y-315130204D01*
X146869999Y-315129000D01*
X147770001Y-315129000D01*
X147794505Y-315130204D01*
G37*
G36*
X135602505Y-317198204D02*
G01*
X135626773Y-317201804D01*
X135650572Y-317207765D01*
X135673671Y-317216030D01*
X135695850Y-317226520D01*
X135716893Y-317239132D01*
X135736599Y-317253747D01*
X135754777Y-317270223D01*
X135771253Y-317288401D01*
X135785868Y-317308107D01*
X135798480Y-317329150D01*
X135808970Y-317351329D01*
X135817235Y-317374428D01*
X135823196Y-317398227D01*
X135826796Y-317422495D01*
X135828000Y-317446999D01*
X135828000Y-318097001D01*
X135826796Y-318121505D01*
X135823196Y-318145773D01*
X135817235Y-318169572D01*
X135808970Y-318192671D01*
X135798480Y-318214850D01*
X135785868Y-318235893D01*
X135771253Y-318255599D01*
X135754777Y-318273777D01*
X135736599Y-318290253D01*
X135716893Y-318304868D01*
X135695850Y-318317480D01*
X135673671Y-318327970D01*
X135650572Y-318336235D01*
X135626773Y-318342196D01*
X135602505Y-318345796D01*
X135578001Y-318347000D01*
X134677999Y-318347000D01*
X134653495Y-318345796D01*
X134629227Y-318342196D01*
X134605428Y-318336235D01*
X134582329Y-318327970D01*
X134560150Y-318317480D01*
X134539107Y-318304868D01*
X134519401Y-318290253D01*
X134501223Y-318273777D01*
X134484747Y-318255599D01*
X134470132Y-318235893D01*
X134457520Y-318214850D01*
X134447030Y-318192671D01*
X134438765Y-318169572D01*
X134432804Y-318145773D01*
X134429204Y-318121505D01*
X134428000Y-318097001D01*
X134428000Y-317446999D01*
X134429204Y-317422495D01*
X134432804Y-317398227D01*
X134438765Y-317374428D01*
X134447030Y-317351329D01*
X134457520Y-317329150D01*
X134470132Y-317308107D01*
X134484747Y-317288401D01*
X134501223Y-317270223D01*
X134519401Y-317253747D01*
X134539107Y-317239132D01*
X134560150Y-317226520D01*
X134582329Y-317216030D01*
X134605428Y-317207765D01*
X134629227Y-317201804D01*
X134653495Y-317198204D01*
X134677999Y-317197000D01*
X135578001Y-317197000D01*
X135602505Y-317198204D01*
G37*
G36*
X135602505Y-315148204D02*
G01*
X135626773Y-315151804D01*
X135650572Y-315157765D01*
X135673671Y-315166030D01*
X135695850Y-315176520D01*
X135716893Y-315189132D01*
X135736599Y-315203747D01*
X135754777Y-315220223D01*
X135771253Y-315238401D01*
X135785868Y-315258107D01*
X135798480Y-315279150D01*
X135808970Y-315301329D01*
X135817235Y-315324428D01*
X135823196Y-315348227D01*
X135826796Y-315372495D01*
X135828000Y-315396999D01*
X135828000Y-316047001D01*
X135826796Y-316071505D01*
X135823196Y-316095773D01*
X135817235Y-316119572D01*
X135808970Y-316142671D01*
X135798480Y-316164850D01*
X135785868Y-316185893D01*
X135771253Y-316205599D01*
X135754777Y-316223777D01*
X135736599Y-316240253D01*
X135716893Y-316254868D01*
X135695850Y-316267480D01*
X135673671Y-316277970D01*
X135650572Y-316286235D01*
X135626773Y-316292196D01*
X135602505Y-316295796D01*
X135578001Y-316297000D01*
X134677999Y-316297000D01*
X134653495Y-316295796D01*
X134629227Y-316292196D01*
X134605428Y-316286235D01*
X134582329Y-316277970D01*
X134560150Y-316267480D01*
X134539107Y-316254868D01*
X134519401Y-316240253D01*
X134501223Y-316223777D01*
X134484747Y-316205599D01*
X134470132Y-316185893D01*
X134457520Y-316164850D01*
X134447030Y-316142671D01*
X134438765Y-316119572D01*
X134432804Y-316095773D01*
X134429204Y-316071505D01*
X134428000Y-316047001D01*
X134428000Y-315396999D01*
X134429204Y-315372495D01*
X134432804Y-315348227D01*
X134438765Y-315324428D01*
X134447030Y-315301329D01*
X134457520Y-315279150D01*
X134470132Y-315258107D01*
X134484747Y-315238401D01*
X134501223Y-315220223D01*
X134519401Y-315203747D01*
X134539107Y-315189132D01*
X134560150Y-315176520D01*
X134582329Y-315166030D01*
X134605428Y-315157765D01*
X134629227Y-315151804D01*
X134653495Y-315148204D01*
X134677999Y-315147000D01*
X135578001Y-315147000D01*
X135602505Y-315148204D01*
G37*
G36*
X123410505Y-316944204D02*
G01*
X123434773Y-316947804D01*
X123458572Y-316953765D01*
X123481671Y-316962030D01*
X123503850Y-316972520D01*
X123524893Y-316985132D01*
X123544599Y-316999747D01*
X123562777Y-317016223D01*
X123579253Y-317034401D01*
X123593868Y-317054107D01*
X123606480Y-317075150D01*
X123616970Y-317097329D01*
X123625235Y-317120428D01*
X123631196Y-317144227D01*
X123634796Y-317168495D01*
X123636000Y-317192999D01*
X123636000Y-317843001D01*
X123634796Y-317867505D01*
X123631196Y-317891773D01*
X123625235Y-317915572D01*
X123616970Y-317938671D01*
X123606480Y-317960850D01*
X123593868Y-317981893D01*
X123579253Y-318001599D01*
X123562777Y-318019777D01*
X123544599Y-318036253D01*
X123524893Y-318050868D01*
X123503850Y-318063480D01*
X123481671Y-318073970D01*
X123458572Y-318082235D01*
X123434773Y-318088196D01*
X123410505Y-318091796D01*
X123386001Y-318093000D01*
X122485999Y-318093000D01*
X122461495Y-318091796D01*
X122437227Y-318088196D01*
X122413428Y-318082235D01*
X122390329Y-318073970D01*
X122368150Y-318063480D01*
X122347107Y-318050868D01*
X122327401Y-318036253D01*
X122309223Y-318019777D01*
X122292747Y-318001599D01*
X122278132Y-317981893D01*
X122265520Y-317960850D01*
X122255030Y-317938671D01*
X122246765Y-317915572D01*
X122240804Y-317891773D01*
X122237204Y-317867505D01*
X122236000Y-317843001D01*
X122236000Y-317192999D01*
X122237204Y-317168495D01*
X122240804Y-317144227D01*
X122246765Y-317120428D01*
X122255030Y-317097329D01*
X122265520Y-317075150D01*
X122278132Y-317054107D01*
X122292747Y-317034401D01*
X122309223Y-317016223D01*
X122327401Y-316999747D01*
X122347107Y-316985132D01*
X122368150Y-316972520D01*
X122390329Y-316962030D01*
X122413428Y-316953765D01*
X122437227Y-316947804D01*
X122461495Y-316944204D01*
X122485999Y-316943000D01*
X123386001Y-316943000D01*
X123410505Y-316944204D01*
G37*
G36*
X123410505Y-314894204D02*
G01*
X123434773Y-314897804D01*
X123458572Y-314903765D01*
X123481671Y-314912030D01*
X123503850Y-314922520D01*
X123524893Y-314935132D01*
X123544599Y-314949747D01*
X123562777Y-314966223D01*
X123579253Y-314984401D01*
X123593868Y-315004107D01*
X123606480Y-315025150D01*
X123616970Y-315047329D01*
X123625235Y-315070428D01*
X123631196Y-315094227D01*
X123634796Y-315118495D01*
X123636000Y-315142999D01*
X123636000Y-315793001D01*
X123634796Y-315817505D01*
X123631196Y-315841773D01*
X123625235Y-315865572D01*
X123616970Y-315888671D01*
X123606480Y-315910850D01*
X123593868Y-315931893D01*
X123579253Y-315951599D01*
X123562777Y-315969777D01*
X123544599Y-315986253D01*
X123524893Y-316000868D01*
X123503850Y-316013480D01*
X123481671Y-316023970D01*
X123458572Y-316032235D01*
X123434773Y-316038196D01*
X123410505Y-316041796D01*
X123386001Y-316043000D01*
X122485999Y-316043000D01*
X122461495Y-316041796D01*
X122437227Y-316038196D01*
X122413428Y-316032235D01*
X122390329Y-316023970D01*
X122368150Y-316013480D01*
X122347107Y-316000868D01*
X122327401Y-315986253D01*
X122309223Y-315969777D01*
X122292747Y-315951599D01*
X122278132Y-315931893D01*
X122265520Y-315910850D01*
X122255030Y-315888671D01*
X122246765Y-315865572D01*
X122240804Y-315841773D01*
X122237204Y-315817505D01*
X122236000Y-315793001D01*
X122236000Y-315142999D01*
X122237204Y-315118495D01*
X122240804Y-315094227D01*
X122246765Y-315070428D01*
X122255030Y-315047329D01*
X122265520Y-315025150D01*
X122278132Y-315004107D01*
X122292747Y-314984401D01*
X122309223Y-314966223D01*
X122327401Y-314949747D01*
X122347107Y-314935132D01*
X122368150Y-314922520D01*
X122390329Y-314912030D01*
X122413428Y-314903765D01*
X122437227Y-314897804D01*
X122461495Y-314894204D01*
X122485999Y-314893000D01*
X123386001Y-314893000D01*
X123410505Y-314894204D01*
G37*
G36*
X140566505Y-303085204D02*
G01*
X140590773Y-303088804D01*
X140614572Y-303094765D01*
X140637671Y-303103030D01*
X140659850Y-303113520D01*
X140680893Y-303126132D01*
X140700599Y-303140747D01*
X140718777Y-303157223D01*
X140735253Y-303175401D01*
X140749868Y-303195107D01*
X140762480Y-303216150D01*
X140772970Y-303238329D01*
X140781235Y-303261428D01*
X140787196Y-303285227D01*
X140790796Y-303309495D01*
X140792000Y-303333999D01*
X140792000Y-304234001D01*
X140790796Y-304258505D01*
X140787196Y-304282773D01*
X140781235Y-304306572D01*
X140772970Y-304329671D01*
X140762480Y-304351850D01*
X140749868Y-304372893D01*
X140735253Y-304392599D01*
X140718777Y-304410777D01*
X140700599Y-304427253D01*
X140680893Y-304441868D01*
X140659850Y-304454480D01*
X140637671Y-304464970D01*
X140614572Y-304473235D01*
X140590773Y-304479196D01*
X140566505Y-304482796D01*
X140542001Y-304484000D01*
X139891999Y-304484000D01*
X139867495Y-304482796D01*
X139843227Y-304479196D01*
X139819428Y-304473235D01*
X139796329Y-304464970D01*
X139774150Y-304454480D01*
X139753107Y-304441868D01*
X139733401Y-304427253D01*
X139715223Y-304410777D01*
X139698747Y-304392599D01*
X139684132Y-304372893D01*
X139671520Y-304351850D01*
X139661030Y-304329671D01*
X139652765Y-304306572D01*
X139646804Y-304282773D01*
X139643204Y-304258505D01*
X139642000Y-304234001D01*
X139642000Y-303333999D01*
X139643204Y-303309495D01*
X139646804Y-303285227D01*
X139652765Y-303261428D01*
X139661030Y-303238329D01*
X139671520Y-303216150D01*
X139684132Y-303195107D01*
X139698747Y-303175401D01*
X139715223Y-303157223D01*
X139733401Y-303140747D01*
X139753107Y-303126132D01*
X139774150Y-303113520D01*
X139796329Y-303103030D01*
X139819428Y-303094765D01*
X139843227Y-303088804D01*
X139867495Y-303085204D01*
X139891999Y-303084000D01*
X140542001Y-303084000D01*
X140566505Y-303085204D01*
G37*
G36*
X138516505Y-303085204D02*
G01*
X138540773Y-303088804D01*
X138564572Y-303094765D01*
X138587671Y-303103030D01*
X138609850Y-303113520D01*
X138630893Y-303126132D01*
X138650599Y-303140747D01*
X138668777Y-303157223D01*
X138685253Y-303175401D01*
X138699868Y-303195107D01*
X138712480Y-303216150D01*
X138722970Y-303238329D01*
X138731235Y-303261428D01*
X138737196Y-303285227D01*
X138740796Y-303309495D01*
X138742000Y-303333999D01*
X138742000Y-304234001D01*
X138740796Y-304258505D01*
X138737196Y-304282773D01*
X138731235Y-304306572D01*
X138722970Y-304329671D01*
X138712480Y-304351850D01*
X138699868Y-304372893D01*
X138685253Y-304392599D01*
X138668777Y-304410777D01*
X138650599Y-304427253D01*
X138630893Y-304441868D01*
X138609850Y-304454480D01*
X138587671Y-304464970D01*
X138564572Y-304473235D01*
X138540773Y-304479196D01*
X138516505Y-304482796D01*
X138492001Y-304484000D01*
X137841999Y-304484000D01*
X137817495Y-304482796D01*
X137793227Y-304479196D01*
X137769428Y-304473235D01*
X137746329Y-304464970D01*
X137724150Y-304454480D01*
X137703107Y-304441868D01*
X137683401Y-304427253D01*
X137665223Y-304410777D01*
X137648747Y-304392599D01*
X137634132Y-304372893D01*
X137621520Y-304351850D01*
X137611030Y-304329671D01*
X137602765Y-304306572D01*
X137596804Y-304282773D01*
X137593204Y-304258505D01*
X137592000Y-304234001D01*
X137592000Y-303333999D01*
X137593204Y-303309495D01*
X137596804Y-303285227D01*
X137602765Y-303261428D01*
X137611030Y-303238329D01*
X137621520Y-303216150D01*
X137634132Y-303195107D01*
X137648747Y-303175401D01*
X137665223Y-303157223D01*
X137683401Y-303140747D01*
X137703107Y-303126132D01*
X137724150Y-303113520D01*
X137746329Y-303103030D01*
X137769428Y-303094765D01*
X137793227Y-303088804D01*
X137817495Y-303085204D01*
X137841999Y-303084000D01*
X138492001Y-303084000D01*
X138516505Y-303085204D01*
G37*
G36*
X184370505Y-317180204D02*
G01*
X184394773Y-317183804D01*
X184418572Y-317189765D01*
X184441671Y-317198030D01*
X184463850Y-317208520D01*
X184484893Y-317221132D01*
X184504599Y-317235747D01*
X184522777Y-317252223D01*
X184539253Y-317270401D01*
X184553868Y-317290107D01*
X184566480Y-317311150D01*
X184576970Y-317333329D01*
X184585235Y-317356428D01*
X184591196Y-317380227D01*
X184594796Y-317404495D01*
X184596000Y-317428999D01*
X184596000Y-318079001D01*
X184594796Y-318103505D01*
X184591196Y-318127773D01*
X184585235Y-318151572D01*
X184576970Y-318174671D01*
X184566480Y-318196850D01*
X184553868Y-318217893D01*
X184539253Y-318237599D01*
X184522777Y-318255777D01*
X184504599Y-318272253D01*
X184484893Y-318286868D01*
X184463850Y-318299480D01*
X184441671Y-318309970D01*
X184418572Y-318318235D01*
X184394773Y-318324196D01*
X184370505Y-318327796D01*
X184346001Y-318329000D01*
X183445999Y-318329000D01*
X183421495Y-318327796D01*
X183397227Y-318324196D01*
X183373428Y-318318235D01*
X183350329Y-318309970D01*
X183328150Y-318299480D01*
X183307107Y-318286868D01*
X183287401Y-318272253D01*
X183269223Y-318255777D01*
X183252747Y-318237599D01*
X183238132Y-318217893D01*
X183225520Y-318196850D01*
X183215030Y-318174671D01*
X183206765Y-318151572D01*
X183200804Y-318127773D01*
X183197204Y-318103505D01*
X183196000Y-318079001D01*
X183196000Y-317428999D01*
X183197204Y-317404495D01*
X183200804Y-317380227D01*
X183206765Y-317356428D01*
X183215030Y-317333329D01*
X183225520Y-317311150D01*
X183238132Y-317290107D01*
X183252747Y-317270401D01*
X183269223Y-317252223D01*
X183287401Y-317235747D01*
X183307107Y-317221132D01*
X183328150Y-317208520D01*
X183350329Y-317198030D01*
X183373428Y-317189765D01*
X183397227Y-317183804D01*
X183421495Y-317180204D01*
X183445999Y-317179000D01*
X184346001Y-317179000D01*
X184370505Y-317180204D01*
G37*
G36*
X184370505Y-315130204D02*
G01*
X184394773Y-315133804D01*
X184418572Y-315139765D01*
X184441671Y-315148030D01*
X184463850Y-315158520D01*
X184484893Y-315171132D01*
X184504599Y-315185747D01*
X184522777Y-315202223D01*
X184539253Y-315220401D01*
X184553868Y-315240107D01*
X184566480Y-315261150D01*
X184576970Y-315283329D01*
X184585235Y-315306428D01*
X184591196Y-315330227D01*
X184594796Y-315354495D01*
X184596000Y-315378999D01*
X184596000Y-316029001D01*
X184594796Y-316053505D01*
X184591196Y-316077773D01*
X184585235Y-316101572D01*
X184576970Y-316124671D01*
X184566480Y-316146850D01*
X184553868Y-316167893D01*
X184539253Y-316187599D01*
X184522777Y-316205777D01*
X184504599Y-316222253D01*
X184484893Y-316236868D01*
X184463850Y-316249480D01*
X184441671Y-316259970D01*
X184418572Y-316268235D01*
X184394773Y-316274196D01*
X184370505Y-316277796D01*
X184346001Y-316279000D01*
X183445999Y-316279000D01*
X183421495Y-316277796D01*
X183397227Y-316274196D01*
X183373428Y-316268235D01*
X183350329Y-316259970D01*
X183328150Y-316249480D01*
X183307107Y-316236868D01*
X183287401Y-316222253D01*
X183269223Y-316205777D01*
X183252747Y-316187599D01*
X183238132Y-316167893D01*
X183225520Y-316146850D01*
X183215030Y-316124671D01*
X183206765Y-316101572D01*
X183200804Y-316077773D01*
X183197204Y-316053505D01*
X183196000Y-316029001D01*
X183196000Y-315378999D01*
X183197204Y-315354495D01*
X183200804Y-315330227D01*
X183206765Y-315306428D01*
X183215030Y-315283329D01*
X183225520Y-315261150D01*
X183238132Y-315240107D01*
X183252747Y-315220401D01*
X183269223Y-315202223D01*
X183287401Y-315185747D01*
X183307107Y-315171132D01*
X183328150Y-315158520D01*
X183350329Y-315148030D01*
X183373428Y-315139765D01*
X183397227Y-315133804D01*
X183421495Y-315130204D01*
X183445999Y-315129000D01*
X184346001Y-315129000D01*
X184370505Y-315130204D01*
G37*
G36*
X154019505Y-302831204D02*
G01*
X154043773Y-302834804D01*
X154067572Y-302840765D01*
X154090671Y-302849030D01*
X154112850Y-302859520D01*
X154133893Y-302872132D01*
X154153599Y-302886747D01*
X154171777Y-302903223D01*
X154188253Y-302921401D01*
X154202868Y-302941107D01*
X154215480Y-302962150D01*
X154225970Y-302984329D01*
X154234235Y-303007428D01*
X154240196Y-303031227D01*
X154243796Y-303055495D01*
X154245000Y-303079999D01*
X154245000Y-303980001D01*
X154243796Y-304004505D01*
X154240196Y-304028773D01*
X154234235Y-304052572D01*
X154225970Y-304075671D01*
X154215480Y-304097850D01*
X154202868Y-304118893D01*
X154188253Y-304138599D01*
X154171777Y-304156777D01*
X154153599Y-304173253D01*
X154133893Y-304187868D01*
X154112850Y-304200480D01*
X154090671Y-304210970D01*
X154067572Y-304219235D01*
X154043773Y-304225196D01*
X154019505Y-304228796D01*
X153995001Y-304230000D01*
X153344999Y-304230000D01*
X153320495Y-304228796D01*
X153296227Y-304225196D01*
X153272428Y-304219235D01*
X153249329Y-304210970D01*
X153227150Y-304200480D01*
X153206107Y-304187868D01*
X153186401Y-304173253D01*
X153168223Y-304156777D01*
X153151747Y-304138599D01*
X153137132Y-304118893D01*
X153124520Y-304097850D01*
X153114030Y-304075671D01*
X153105765Y-304052572D01*
X153099804Y-304028773D01*
X153096204Y-304004505D01*
X153095000Y-303980001D01*
X153095000Y-303079999D01*
X153096204Y-303055495D01*
X153099804Y-303031227D01*
X153105765Y-303007428D01*
X153114030Y-302984329D01*
X153124520Y-302962150D01*
X153137132Y-302941107D01*
X153151747Y-302921401D01*
X153168223Y-302903223D01*
X153186401Y-302886747D01*
X153206107Y-302872132D01*
X153227150Y-302859520D01*
X153249329Y-302849030D01*
X153272428Y-302840765D01*
X153296227Y-302834804D01*
X153320495Y-302831204D01*
X153344999Y-302830000D01*
X153995001Y-302830000D01*
X154019505Y-302831204D01*
G37*
G36*
X151969505Y-302831204D02*
G01*
X151993773Y-302834804D01*
X152017572Y-302840765D01*
X152040671Y-302849030D01*
X152062850Y-302859520D01*
X152083893Y-302872132D01*
X152103599Y-302886747D01*
X152121777Y-302903223D01*
X152138253Y-302921401D01*
X152152868Y-302941107D01*
X152165480Y-302962150D01*
X152175970Y-302984329D01*
X152184235Y-303007428D01*
X152190196Y-303031227D01*
X152193796Y-303055495D01*
X152195000Y-303079999D01*
X152195000Y-303980001D01*
X152193796Y-304004505D01*
X152190196Y-304028773D01*
X152184235Y-304052572D01*
X152175970Y-304075671D01*
X152165480Y-304097850D01*
X152152868Y-304118893D01*
X152138253Y-304138599D01*
X152121777Y-304156777D01*
X152103599Y-304173253D01*
X152083893Y-304187868D01*
X152062850Y-304200480D01*
X152040671Y-304210970D01*
X152017572Y-304219235D01*
X151993773Y-304225196D01*
X151969505Y-304228796D01*
X151945001Y-304230000D01*
X151294999Y-304230000D01*
X151270495Y-304228796D01*
X151246227Y-304225196D01*
X151222428Y-304219235D01*
X151199329Y-304210970D01*
X151177150Y-304200480D01*
X151156107Y-304187868D01*
X151136401Y-304173253D01*
X151118223Y-304156777D01*
X151101747Y-304138599D01*
X151087132Y-304118893D01*
X151074520Y-304097850D01*
X151064030Y-304075671D01*
X151055765Y-304052572D01*
X151049804Y-304028773D01*
X151046204Y-304004505D01*
X151045000Y-303980001D01*
X151045000Y-303079999D01*
X151046204Y-303055495D01*
X151049804Y-303031227D01*
X151055765Y-303007428D01*
X151064030Y-302984329D01*
X151074520Y-302962150D01*
X151087132Y-302941107D01*
X151101747Y-302921401D01*
X151118223Y-302903223D01*
X151136401Y-302886747D01*
X151156107Y-302872132D01*
X151177150Y-302859520D01*
X151199329Y-302849030D01*
X151222428Y-302840765D01*
X151246227Y-302834804D01*
X151270495Y-302831204D01*
X151294999Y-302830000D01*
X151945001Y-302830000D01*
X151969505Y-302831204D01*
G37*
G36*
X159732505Y-317180204D02*
G01*
X159756773Y-317183804D01*
X159780572Y-317189765D01*
X159803671Y-317198030D01*
X159825850Y-317208520D01*
X159846893Y-317221132D01*
X159866599Y-317235747D01*
X159884777Y-317252223D01*
X159901253Y-317270401D01*
X159915868Y-317290107D01*
X159928480Y-317311150D01*
X159938970Y-317333329D01*
X159947235Y-317356428D01*
X159953196Y-317380227D01*
X159956796Y-317404495D01*
X159958000Y-317428999D01*
X159958000Y-318079001D01*
X159956796Y-318103505D01*
X159953196Y-318127773D01*
X159947235Y-318151572D01*
X159938970Y-318174671D01*
X159928480Y-318196850D01*
X159915868Y-318217893D01*
X159901253Y-318237599D01*
X159884777Y-318255777D01*
X159866599Y-318272253D01*
X159846893Y-318286868D01*
X159825850Y-318299480D01*
X159803671Y-318309970D01*
X159780572Y-318318235D01*
X159756773Y-318324196D01*
X159732505Y-318327796D01*
X159708001Y-318329000D01*
X158807999Y-318329000D01*
X158783495Y-318327796D01*
X158759227Y-318324196D01*
X158735428Y-318318235D01*
X158712329Y-318309970D01*
X158690150Y-318299480D01*
X158669107Y-318286868D01*
X158649401Y-318272253D01*
X158631223Y-318255777D01*
X158614747Y-318237599D01*
X158600132Y-318217893D01*
X158587520Y-318196850D01*
X158577030Y-318174671D01*
X158568765Y-318151572D01*
X158562804Y-318127773D01*
X158559204Y-318103505D01*
X158558000Y-318079001D01*
X158558000Y-317428999D01*
X158559204Y-317404495D01*
X158562804Y-317380227D01*
X158568765Y-317356428D01*
X158577030Y-317333329D01*
X158587520Y-317311150D01*
X158600132Y-317290107D01*
X158614747Y-317270401D01*
X158631223Y-317252223D01*
X158649401Y-317235747D01*
X158669107Y-317221132D01*
X158690150Y-317208520D01*
X158712329Y-317198030D01*
X158735428Y-317189765D01*
X158759227Y-317183804D01*
X158783495Y-317180204D01*
X158807999Y-317179000D01*
X159708001Y-317179000D01*
X159732505Y-317180204D01*
G37*
G36*
X159732505Y-315130204D02*
G01*
X159756773Y-315133804D01*
X159780572Y-315139765D01*
X159803671Y-315148030D01*
X159825850Y-315158520D01*
X159846893Y-315171132D01*
X159866599Y-315185747D01*
X159884777Y-315202223D01*
X159901253Y-315220401D01*
X159915868Y-315240107D01*
X159928480Y-315261150D01*
X159938970Y-315283329D01*
X159947235Y-315306428D01*
X159953196Y-315330227D01*
X159956796Y-315354495D01*
X159958000Y-315378999D01*
X159958000Y-316029001D01*
X159956796Y-316053505D01*
X159953196Y-316077773D01*
X159947235Y-316101572D01*
X159938970Y-316124671D01*
X159928480Y-316146850D01*
X159915868Y-316167893D01*
X159901253Y-316187599D01*
X159884777Y-316205777D01*
X159866599Y-316222253D01*
X159846893Y-316236868D01*
X159825850Y-316249480D01*
X159803671Y-316259970D01*
X159780572Y-316268235D01*
X159756773Y-316274196D01*
X159732505Y-316277796D01*
X159708001Y-316279000D01*
X158807999Y-316279000D01*
X158783495Y-316277796D01*
X158759227Y-316274196D01*
X158735428Y-316268235D01*
X158712329Y-316259970D01*
X158690150Y-316249480D01*
X158669107Y-316236868D01*
X158649401Y-316222253D01*
X158631223Y-316205777D01*
X158614747Y-316187599D01*
X158600132Y-316167893D01*
X158587520Y-316146850D01*
X158577030Y-316124671D01*
X158568765Y-316101572D01*
X158562804Y-316077773D01*
X158559204Y-316053505D01*
X158558000Y-316029001D01*
X158558000Y-315378999D01*
X158559204Y-315354495D01*
X158562804Y-315330227D01*
X158568765Y-315306428D01*
X158577030Y-315283329D01*
X158587520Y-315261150D01*
X158600132Y-315240107D01*
X158614747Y-315220401D01*
X158631223Y-315202223D01*
X158649401Y-315185747D01*
X158669107Y-315171132D01*
X158690150Y-315158520D01*
X158712329Y-315148030D01*
X158735428Y-315139765D01*
X158759227Y-315133804D01*
X158783495Y-315130204D01*
X158807999Y-315129000D01*
X159708001Y-315129000D01*
X159732505Y-315130204D01*
G37*
G36*
X140049505Y-213169204D02*
G01*
X140073773Y-213172804D01*
X140097572Y-213178765D01*
X140120671Y-213187030D01*
X140142850Y-213197520D01*
X140163893Y-213210132D01*
X140183599Y-213224747D01*
X140201777Y-213241223D01*
X140218253Y-213259401D01*
X140232868Y-213279107D01*
X140245480Y-213300150D01*
X140255970Y-213322329D01*
X140264235Y-213345428D01*
X140270196Y-213369227D01*
X140273796Y-213393495D01*
X140275000Y-213417999D01*
X140275000Y-214318001D01*
X140273796Y-214342505D01*
X140270196Y-214366773D01*
X140264235Y-214390572D01*
X140255970Y-214413671D01*
X140245480Y-214435850D01*
X140232868Y-214456893D01*
X140218253Y-214476599D01*
X140201777Y-214494777D01*
X140183599Y-214511253D01*
X140163893Y-214525868D01*
X140142850Y-214538480D01*
X140120671Y-214548970D01*
X140097572Y-214557235D01*
X140073773Y-214563196D01*
X140049505Y-214566796D01*
X140025001Y-214568000D01*
X139374999Y-214568000D01*
X139350495Y-214566796D01*
X139326227Y-214563196D01*
X139302428Y-214557235D01*
X139279329Y-214548970D01*
X139257150Y-214538480D01*
X139236107Y-214525868D01*
X139216401Y-214511253D01*
X139198223Y-214494777D01*
X139181747Y-214476599D01*
X139167132Y-214456893D01*
X139154520Y-214435850D01*
X139144030Y-214413671D01*
X139135765Y-214390572D01*
X139129804Y-214366773D01*
X139126204Y-214342505D01*
X139125000Y-214318001D01*
X139125000Y-213417999D01*
X139126204Y-213393495D01*
X139129804Y-213369227D01*
X139135765Y-213345428D01*
X139144030Y-213322329D01*
X139154520Y-213300150D01*
X139167132Y-213279107D01*
X139181747Y-213259401D01*
X139198223Y-213241223D01*
X139216401Y-213224747D01*
X139236107Y-213210132D01*
X139257150Y-213197520D01*
X139279329Y-213187030D01*
X139302428Y-213178765D01*
X139326227Y-213172804D01*
X139350495Y-213169204D01*
X139374999Y-213168000D01*
X140025001Y-213168000D01*
X140049505Y-213169204D01*
G37*
G36*
X137999505Y-213169204D02*
G01*
X138023773Y-213172804D01*
X138047572Y-213178765D01*
X138070671Y-213187030D01*
X138092850Y-213197520D01*
X138113893Y-213210132D01*
X138133599Y-213224747D01*
X138151777Y-213241223D01*
X138168253Y-213259401D01*
X138182868Y-213279107D01*
X138195480Y-213300150D01*
X138205970Y-213322329D01*
X138214235Y-213345428D01*
X138220196Y-213369227D01*
X138223796Y-213393495D01*
X138225000Y-213417999D01*
X138225000Y-214318001D01*
X138223796Y-214342505D01*
X138220196Y-214366773D01*
X138214235Y-214390572D01*
X138205970Y-214413671D01*
X138195480Y-214435850D01*
X138182868Y-214456893D01*
X138168253Y-214476599D01*
X138151777Y-214494777D01*
X138133599Y-214511253D01*
X138113893Y-214525868D01*
X138092850Y-214538480D01*
X138070671Y-214548970D01*
X138047572Y-214557235D01*
X138023773Y-214563196D01*
X137999505Y-214566796D01*
X137975001Y-214568000D01*
X137324999Y-214568000D01*
X137300495Y-214566796D01*
X137276227Y-214563196D01*
X137252428Y-214557235D01*
X137229329Y-214548970D01*
X137207150Y-214538480D01*
X137186107Y-214525868D01*
X137166401Y-214511253D01*
X137148223Y-214494777D01*
X137131747Y-214476599D01*
X137117132Y-214456893D01*
X137104520Y-214435850D01*
X137094030Y-214413671D01*
X137085765Y-214390572D01*
X137079804Y-214366773D01*
X137076204Y-214342505D01*
X137075000Y-214318001D01*
X137075000Y-213417999D01*
X137076204Y-213393495D01*
X137079804Y-213369227D01*
X137085765Y-213345428D01*
X137094030Y-213322329D01*
X137104520Y-213300150D01*
X137117132Y-213279107D01*
X137131747Y-213259401D01*
X137148223Y-213241223D01*
X137166401Y-213224747D01*
X137186107Y-213210132D01*
X137207150Y-213197520D01*
X137229329Y-213187030D01*
X137252428Y-213178765D01*
X137276227Y-213172804D01*
X137300495Y-213169204D01*
X137324999Y-213168000D01*
X137975001Y-213168000D01*
X137999505Y-213169204D01*
G37*
G36*
X151733505Y-217995204D02*
G01*
X151757773Y-217998804D01*
X151781572Y-218004765D01*
X151804671Y-218013030D01*
X151826850Y-218023520D01*
X151847893Y-218036132D01*
X151867599Y-218050747D01*
X151885777Y-218067223D01*
X151902253Y-218085401D01*
X151916868Y-218105107D01*
X151929480Y-218126150D01*
X151939970Y-218148329D01*
X151948235Y-218171428D01*
X151954196Y-218195227D01*
X151957796Y-218219495D01*
X151959000Y-218243999D01*
X151959000Y-219144001D01*
X151957796Y-219168505D01*
X151954196Y-219192773D01*
X151948235Y-219216572D01*
X151939970Y-219239671D01*
X151929480Y-219261850D01*
X151916868Y-219282893D01*
X151902253Y-219302599D01*
X151885777Y-219320777D01*
X151867599Y-219337253D01*
X151847893Y-219351868D01*
X151826850Y-219364480D01*
X151804671Y-219374970D01*
X151781572Y-219383235D01*
X151757773Y-219389196D01*
X151733505Y-219392796D01*
X151709001Y-219394000D01*
X151058999Y-219394000D01*
X151034495Y-219392796D01*
X151010227Y-219389196D01*
X150986428Y-219383235D01*
X150963329Y-219374970D01*
X150941150Y-219364480D01*
X150920107Y-219351868D01*
X150900401Y-219337253D01*
X150882223Y-219320777D01*
X150865747Y-219302599D01*
X150851132Y-219282893D01*
X150838520Y-219261850D01*
X150828030Y-219239671D01*
X150819765Y-219216572D01*
X150813804Y-219192773D01*
X150810204Y-219168505D01*
X150809000Y-219144001D01*
X150809000Y-218243999D01*
X150810204Y-218219495D01*
X150813804Y-218195227D01*
X150819765Y-218171428D01*
X150828030Y-218148329D01*
X150838520Y-218126150D01*
X150851132Y-218105107D01*
X150865747Y-218085401D01*
X150882223Y-218067223D01*
X150900401Y-218050747D01*
X150920107Y-218036132D01*
X150941150Y-218023520D01*
X150963329Y-218013030D01*
X150986428Y-218004765D01*
X151010227Y-217998804D01*
X151034495Y-217995204D01*
X151058999Y-217994000D01*
X151709001Y-217994000D01*
X151733505Y-217995204D01*
G37*
G36*
X153783505Y-217995204D02*
G01*
X153807773Y-217998804D01*
X153831572Y-218004765D01*
X153854671Y-218013030D01*
X153876850Y-218023520D01*
X153897893Y-218036132D01*
X153917599Y-218050747D01*
X153935777Y-218067223D01*
X153952253Y-218085401D01*
X153966868Y-218105107D01*
X153979480Y-218126150D01*
X153989970Y-218148329D01*
X153998235Y-218171428D01*
X154004196Y-218195227D01*
X154007796Y-218219495D01*
X154009000Y-218243999D01*
X154009000Y-219144001D01*
X154007796Y-219168505D01*
X154004196Y-219192773D01*
X153998235Y-219216572D01*
X153989970Y-219239671D01*
X153979480Y-219261850D01*
X153966868Y-219282893D01*
X153952253Y-219302599D01*
X153935777Y-219320777D01*
X153917599Y-219337253D01*
X153897893Y-219351868D01*
X153876850Y-219364480D01*
X153854671Y-219374970D01*
X153831572Y-219383235D01*
X153807773Y-219389196D01*
X153783505Y-219392796D01*
X153759001Y-219394000D01*
X153108999Y-219394000D01*
X153084495Y-219392796D01*
X153060227Y-219389196D01*
X153036428Y-219383235D01*
X153013329Y-219374970D01*
X152991150Y-219364480D01*
X152970107Y-219351868D01*
X152950401Y-219337253D01*
X152932223Y-219320777D01*
X152915747Y-219302599D01*
X152901132Y-219282893D01*
X152888520Y-219261850D01*
X152878030Y-219239671D01*
X152869765Y-219216572D01*
X152863804Y-219192773D01*
X152860204Y-219168505D01*
X152859000Y-219144001D01*
X152859000Y-218243999D01*
X152860204Y-218219495D01*
X152863804Y-218195227D01*
X152869765Y-218171428D01*
X152878030Y-218148329D01*
X152888520Y-218126150D01*
X152901132Y-218105107D01*
X152915747Y-218085401D01*
X152932223Y-218067223D01*
X152950401Y-218050747D01*
X152970107Y-218036132D01*
X152991150Y-218023520D01*
X153013329Y-218013030D01*
X153036428Y-218004765D01*
X153060227Y-217998804D01*
X153084495Y-217995204D01*
X153108999Y-217994000D01*
X153759001Y-217994000D01*
X153783505Y-217995204D01*
G37*
G36*
X155289505Y-217995204D02*
G01*
X155313773Y-217998804D01*
X155337572Y-218004765D01*
X155360671Y-218013030D01*
X155382850Y-218023520D01*
X155403893Y-218036132D01*
X155423599Y-218050747D01*
X155441777Y-218067223D01*
X155458253Y-218085401D01*
X155472868Y-218105107D01*
X155485480Y-218126150D01*
X155495970Y-218148329D01*
X155504235Y-218171428D01*
X155510196Y-218195227D01*
X155513796Y-218219495D01*
X155515000Y-218243999D01*
X155515000Y-219144001D01*
X155513796Y-219168505D01*
X155510196Y-219192773D01*
X155504235Y-219216572D01*
X155495970Y-219239671D01*
X155485480Y-219261850D01*
X155472868Y-219282893D01*
X155458253Y-219302599D01*
X155441777Y-219320777D01*
X155423599Y-219337253D01*
X155403893Y-219351868D01*
X155382850Y-219364480D01*
X155360671Y-219374970D01*
X155337572Y-219383235D01*
X155313773Y-219389196D01*
X155289505Y-219392796D01*
X155265001Y-219394000D01*
X154614999Y-219394000D01*
X154590495Y-219392796D01*
X154566227Y-219389196D01*
X154542428Y-219383235D01*
X154519329Y-219374970D01*
X154497150Y-219364480D01*
X154476107Y-219351868D01*
X154456401Y-219337253D01*
X154438223Y-219320777D01*
X154421747Y-219302599D01*
X154407132Y-219282893D01*
X154394520Y-219261850D01*
X154384030Y-219239671D01*
X154375765Y-219216572D01*
X154369804Y-219192773D01*
X154366204Y-219168505D01*
X154365000Y-219144001D01*
X154365000Y-218243999D01*
X154366204Y-218219495D01*
X154369804Y-218195227D01*
X154375765Y-218171428D01*
X154384030Y-218148329D01*
X154394520Y-218126150D01*
X154407132Y-218105107D01*
X154421747Y-218085401D01*
X154438223Y-218067223D01*
X154456401Y-218050747D01*
X154476107Y-218036132D01*
X154497150Y-218023520D01*
X154519329Y-218013030D01*
X154542428Y-218004765D01*
X154566227Y-217998804D01*
X154590495Y-217995204D01*
X154614999Y-217994000D01*
X155265001Y-217994000D01*
X155289505Y-217995204D01*
G37*
G36*
X157339505Y-217995204D02*
G01*
X157363773Y-217998804D01*
X157387572Y-218004765D01*
X157410671Y-218013030D01*
X157432850Y-218023520D01*
X157453893Y-218036132D01*
X157473599Y-218050747D01*
X157491777Y-218067223D01*
X157508253Y-218085401D01*
X157522868Y-218105107D01*
X157535480Y-218126150D01*
X157545970Y-218148329D01*
X157554235Y-218171428D01*
X157560196Y-218195227D01*
X157563796Y-218219495D01*
X157565000Y-218243999D01*
X157565000Y-219144001D01*
X157563796Y-219168505D01*
X157560196Y-219192773D01*
X157554235Y-219216572D01*
X157545970Y-219239671D01*
X157535480Y-219261850D01*
X157522868Y-219282893D01*
X157508253Y-219302599D01*
X157491777Y-219320777D01*
X157473599Y-219337253D01*
X157453893Y-219351868D01*
X157432850Y-219364480D01*
X157410671Y-219374970D01*
X157387572Y-219383235D01*
X157363773Y-219389196D01*
X157339505Y-219392796D01*
X157315001Y-219394000D01*
X156664999Y-219394000D01*
X156640495Y-219392796D01*
X156616227Y-219389196D01*
X156592428Y-219383235D01*
X156569329Y-219374970D01*
X156547150Y-219364480D01*
X156526107Y-219351868D01*
X156506401Y-219337253D01*
X156488223Y-219320777D01*
X156471747Y-219302599D01*
X156457132Y-219282893D01*
X156444520Y-219261850D01*
X156434030Y-219239671D01*
X156425765Y-219216572D01*
X156419804Y-219192773D01*
X156416204Y-219168505D01*
X156415000Y-219144001D01*
X156415000Y-218243999D01*
X156416204Y-218219495D01*
X156419804Y-218195227D01*
X156425765Y-218171428D01*
X156434030Y-218148329D01*
X156444520Y-218126150D01*
X156457132Y-218105107D01*
X156471747Y-218085401D01*
X156488223Y-218067223D01*
X156506401Y-218050747D01*
X156526107Y-218036132D01*
X156547150Y-218023520D01*
X156569329Y-218013030D01*
X156592428Y-218004765D01*
X156616227Y-217998804D01*
X156640495Y-217995204D01*
X156664999Y-217994000D01*
X157315001Y-217994000D01*
X157339505Y-217995204D01*
G37*
G36*
X158827505Y-217995204D02*
G01*
X158851773Y-217998804D01*
X158875572Y-218004765D01*
X158898671Y-218013030D01*
X158920850Y-218023520D01*
X158941893Y-218036132D01*
X158961599Y-218050747D01*
X158979777Y-218067223D01*
X158996253Y-218085401D01*
X159010868Y-218105107D01*
X159023480Y-218126150D01*
X159033970Y-218148329D01*
X159042235Y-218171428D01*
X159048196Y-218195227D01*
X159051796Y-218219495D01*
X159053000Y-218243999D01*
X159053000Y-219144001D01*
X159051796Y-219168505D01*
X159048196Y-219192773D01*
X159042235Y-219216572D01*
X159033970Y-219239671D01*
X159023480Y-219261850D01*
X159010868Y-219282893D01*
X158996253Y-219302599D01*
X158979777Y-219320777D01*
X158961599Y-219337253D01*
X158941893Y-219351868D01*
X158920850Y-219364480D01*
X158898671Y-219374970D01*
X158875572Y-219383235D01*
X158851773Y-219389196D01*
X158827505Y-219392796D01*
X158803001Y-219394000D01*
X158152999Y-219394000D01*
X158128495Y-219392796D01*
X158104227Y-219389196D01*
X158080428Y-219383235D01*
X158057329Y-219374970D01*
X158035150Y-219364480D01*
X158014107Y-219351868D01*
X157994401Y-219337253D01*
X157976223Y-219320777D01*
X157959747Y-219302599D01*
X157945132Y-219282893D01*
X157932520Y-219261850D01*
X157922030Y-219239671D01*
X157913765Y-219216572D01*
X157907804Y-219192773D01*
X157904204Y-219168505D01*
X157903000Y-219144001D01*
X157903000Y-218243999D01*
X157904204Y-218219495D01*
X157907804Y-218195227D01*
X157913765Y-218171428D01*
X157922030Y-218148329D01*
X157932520Y-218126150D01*
X157945132Y-218105107D01*
X157959747Y-218085401D01*
X157976223Y-218067223D01*
X157994401Y-218050747D01*
X158014107Y-218036132D01*
X158035150Y-218023520D01*
X158057329Y-218013030D01*
X158080428Y-218004765D01*
X158104227Y-217998804D01*
X158128495Y-217995204D01*
X158152999Y-217994000D01*
X158803001Y-217994000D01*
X158827505Y-217995204D01*
G37*
G36*
X160877505Y-217995204D02*
G01*
X160901773Y-217998804D01*
X160925572Y-218004765D01*
X160948671Y-218013030D01*
X160970850Y-218023520D01*
X160991893Y-218036132D01*
X161011599Y-218050747D01*
X161029777Y-218067223D01*
X161046253Y-218085401D01*
X161060868Y-218105107D01*
X161073480Y-218126150D01*
X161083970Y-218148329D01*
X161092235Y-218171428D01*
X161098196Y-218195227D01*
X161101796Y-218219495D01*
X161103000Y-218243999D01*
X161103000Y-219144001D01*
X161101796Y-219168505D01*
X161098196Y-219192773D01*
X161092235Y-219216572D01*
X161083970Y-219239671D01*
X161073480Y-219261850D01*
X161060868Y-219282893D01*
X161046253Y-219302599D01*
X161029777Y-219320777D01*
X161011599Y-219337253D01*
X160991893Y-219351868D01*
X160970850Y-219364480D01*
X160948671Y-219374970D01*
X160925572Y-219383235D01*
X160901773Y-219389196D01*
X160877505Y-219392796D01*
X160853001Y-219394000D01*
X160202999Y-219394000D01*
X160178495Y-219392796D01*
X160154227Y-219389196D01*
X160130428Y-219383235D01*
X160107329Y-219374970D01*
X160085150Y-219364480D01*
X160064107Y-219351868D01*
X160044401Y-219337253D01*
X160026223Y-219320777D01*
X160009747Y-219302599D01*
X159995132Y-219282893D01*
X159982520Y-219261850D01*
X159972030Y-219239671D01*
X159963765Y-219216572D01*
X159957804Y-219192773D01*
X159954204Y-219168505D01*
X159953000Y-219144001D01*
X159953000Y-218243999D01*
X159954204Y-218219495D01*
X159957804Y-218195227D01*
X159963765Y-218171428D01*
X159972030Y-218148329D01*
X159982520Y-218126150D01*
X159995132Y-218105107D01*
X160009747Y-218085401D01*
X160026223Y-218067223D01*
X160044401Y-218050747D01*
X160064107Y-218036132D01*
X160085150Y-218023520D01*
X160107329Y-218013030D01*
X160130428Y-218004765D01*
X160154227Y-217998804D01*
X160178495Y-217995204D01*
X160202999Y-217994000D01*
X160853001Y-217994000D01*
X160877505Y-217995204D01*
G37*
G36*
X160886505Y-212407204D02*
G01*
X160910773Y-212410804D01*
X160934572Y-212416765D01*
X160957671Y-212425030D01*
X160979850Y-212435520D01*
X161000893Y-212448132D01*
X161020599Y-212462747D01*
X161038777Y-212479223D01*
X161055253Y-212497401D01*
X161069868Y-212517107D01*
X161082480Y-212538150D01*
X161092970Y-212560329D01*
X161101235Y-212583428D01*
X161107196Y-212607227D01*
X161110796Y-212631495D01*
X161112000Y-212655999D01*
X161112000Y-213556001D01*
X161110796Y-213580505D01*
X161107196Y-213604773D01*
X161101235Y-213628572D01*
X161092970Y-213651671D01*
X161082480Y-213673850D01*
X161069868Y-213694893D01*
X161055253Y-213714599D01*
X161038777Y-213732777D01*
X161020599Y-213749253D01*
X161000893Y-213763868D01*
X160979850Y-213776480D01*
X160957671Y-213786970D01*
X160934572Y-213795235D01*
X160910773Y-213801196D01*
X160886505Y-213804796D01*
X160862001Y-213806000D01*
X160211999Y-213806000D01*
X160187495Y-213804796D01*
X160163227Y-213801196D01*
X160139428Y-213795235D01*
X160116329Y-213786970D01*
X160094150Y-213776480D01*
X160073107Y-213763868D01*
X160053401Y-213749253D01*
X160035223Y-213732777D01*
X160018747Y-213714599D01*
X160004132Y-213694893D01*
X159991520Y-213673850D01*
X159981030Y-213651671D01*
X159972765Y-213628572D01*
X159966804Y-213604773D01*
X159963204Y-213580505D01*
X159962000Y-213556001D01*
X159962000Y-212655999D01*
X159963204Y-212631495D01*
X159966804Y-212607227D01*
X159972765Y-212583428D01*
X159981030Y-212560329D01*
X159991520Y-212538150D01*
X160004132Y-212517107D01*
X160018747Y-212497401D01*
X160035223Y-212479223D01*
X160053401Y-212462747D01*
X160073107Y-212448132D01*
X160094150Y-212435520D01*
X160116329Y-212425030D01*
X160139428Y-212416765D01*
X160163227Y-212410804D01*
X160187495Y-212407204D01*
X160211999Y-212406000D01*
X160862001Y-212406000D01*
X160886505Y-212407204D01*
G37*
G36*
X158836505Y-212407204D02*
G01*
X158860773Y-212410804D01*
X158884572Y-212416765D01*
X158907671Y-212425030D01*
X158929850Y-212435520D01*
X158950893Y-212448132D01*
X158970599Y-212462747D01*
X158988777Y-212479223D01*
X159005253Y-212497401D01*
X159019868Y-212517107D01*
X159032480Y-212538150D01*
X159042970Y-212560329D01*
X159051235Y-212583428D01*
X159057196Y-212607227D01*
X159060796Y-212631495D01*
X159062000Y-212655999D01*
X159062000Y-213556001D01*
X159060796Y-213580505D01*
X159057196Y-213604773D01*
X159051235Y-213628572D01*
X159042970Y-213651671D01*
X159032480Y-213673850D01*
X159019868Y-213694893D01*
X159005253Y-213714599D01*
X158988777Y-213732777D01*
X158970599Y-213749253D01*
X158950893Y-213763868D01*
X158929850Y-213776480D01*
X158907671Y-213786970D01*
X158884572Y-213795235D01*
X158860773Y-213801196D01*
X158836505Y-213804796D01*
X158812001Y-213806000D01*
X158161999Y-213806000D01*
X158137495Y-213804796D01*
X158113227Y-213801196D01*
X158089428Y-213795235D01*
X158066329Y-213786970D01*
X158044150Y-213776480D01*
X158023107Y-213763868D01*
X158003401Y-213749253D01*
X157985223Y-213732777D01*
X157968747Y-213714599D01*
X157954132Y-213694893D01*
X157941520Y-213673850D01*
X157931030Y-213651671D01*
X157922765Y-213628572D01*
X157916804Y-213604773D01*
X157913204Y-213580505D01*
X157912000Y-213556001D01*
X157912000Y-212655999D01*
X157913204Y-212631495D01*
X157916804Y-212607227D01*
X157922765Y-212583428D01*
X157931030Y-212560329D01*
X157941520Y-212538150D01*
X157954132Y-212517107D01*
X157968747Y-212497401D01*
X157985223Y-212479223D01*
X158003401Y-212462747D01*
X158023107Y-212448132D01*
X158044150Y-212435520D01*
X158066329Y-212425030D01*
X158089428Y-212416765D01*
X158113227Y-212410804D01*
X158137495Y-212407204D01*
X158161999Y-212406000D01*
X158812001Y-212406000D01*
X158836505Y-212407204D01*
G37*
G36*
X157321505Y-212407204D02*
G01*
X157345773Y-212410804D01*
X157369572Y-212416765D01*
X157392671Y-212425030D01*
X157414850Y-212435520D01*
X157435893Y-212448132D01*
X157455599Y-212462747D01*
X157473777Y-212479223D01*
X157490253Y-212497401D01*
X157504868Y-212517107D01*
X157517480Y-212538150D01*
X157527970Y-212560329D01*
X157536235Y-212583428D01*
X157542196Y-212607227D01*
X157545796Y-212631495D01*
X157547000Y-212655999D01*
X157547000Y-213556001D01*
X157545796Y-213580505D01*
X157542196Y-213604773D01*
X157536235Y-213628572D01*
X157527970Y-213651671D01*
X157517480Y-213673850D01*
X157504868Y-213694893D01*
X157490253Y-213714599D01*
X157473777Y-213732777D01*
X157455599Y-213749253D01*
X157435893Y-213763868D01*
X157414850Y-213776480D01*
X157392671Y-213786970D01*
X157369572Y-213795235D01*
X157345773Y-213801196D01*
X157321505Y-213804796D01*
X157297001Y-213806000D01*
X156646999Y-213806000D01*
X156622495Y-213804796D01*
X156598227Y-213801196D01*
X156574428Y-213795235D01*
X156551329Y-213786970D01*
X156529150Y-213776480D01*
X156508107Y-213763868D01*
X156488401Y-213749253D01*
X156470223Y-213732777D01*
X156453747Y-213714599D01*
X156439132Y-213694893D01*
X156426520Y-213673850D01*
X156416030Y-213651671D01*
X156407765Y-213628572D01*
X156401804Y-213604773D01*
X156398204Y-213580505D01*
X156397000Y-213556001D01*
X156397000Y-212655999D01*
X156398204Y-212631495D01*
X156401804Y-212607227D01*
X156407765Y-212583428D01*
X156416030Y-212560329D01*
X156426520Y-212538150D01*
X156439132Y-212517107D01*
X156453747Y-212497401D01*
X156470223Y-212479223D01*
X156488401Y-212462747D01*
X156508107Y-212448132D01*
X156529150Y-212435520D01*
X156551329Y-212425030D01*
X156574428Y-212416765D01*
X156598227Y-212410804D01*
X156622495Y-212407204D01*
X156646999Y-212406000D01*
X157297001Y-212406000D01*
X157321505Y-212407204D01*
G37*
G36*
X155271505Y-212407204D02*
G01*
X155295773Y-212410804D01*
X155319572Y-212416765D01*
X155342671Y-212425030D01*
X155364850Y-212435520D01*
X155385893Y-212448132D01*
X155405599Y-212462747D01*
X155423777Y-212479223D01*
X155440253Y-212497401D01*
X155454868Y-212517107D01*
X155467480Y-212538150D01*
X155477970Y-212560329D01*
X155486235Y-212583428D01*
X155492196Y-212607227D01*
X155495796Y-212631495D01*
X155497000Y-212655999D01*
X155497000Y-213556001D01*
X155495796Y-213580505D01*
X155492196Y-213604773D01*
X155486235Y-213628572D01*
X155477970Y-213651671D01*
X155467480Y-213673850D01*
X155454868Y-213694893D01*
X155440253Y-213714599D01*
X155423777Y-213732777D01*
X155405599Y-213749253D01*
X155385893Y-213763868D01*
X155364850Y-213776480D01*
X155342671Y-213786970D01*
X155319572Y-213795235D01*
X155295773Y-213801196D01*
X155271505Y-213804796D01*
X155247001Y-213806000D01*
X154596999Y-213806000D01*
X154572495Y-213804796D01*
X154548227Y-213801196D01*
X154524428Y-213795235D01*
X154501329Y-213786970D01*
X154479150Y-213776480D01*
X154458107Y-213763868D01*
X154438401Y-213749253D01*
X154420223Y-213732777D01*
X154403747Y-213714599D01*
X154389132Y-213694893D01*
X154376520Y-213673850D01*
X154366030Y-213651671D01*
X154357765Y-213628572D01*
X154351804Y-213604773D01*
X154348204Y-213580505D01*
X154347000Y-213556001D01*
X154347000Y-212655999D01*
X154348204Y-212631495D01*
X154351804Y-212607227D01*
X154357765Y-212583428D01*
X154366030Y-212560329D01*
X154376520Y-212538150D01*
X154389132Y-212517107D01*
X154403747Y-212497401D01*
X154420223Y-212479223D01*
X154438401Y-212462747D01*
X154458107Y-212448132D01*
X154479150Y-212435520D01*
X154501329Y-212425030D01*
X154524428Y-212416765D01*
X154548227Y-212410804D01*
X154572495Y-212407204D01*
X154596999Y-212406000D01*
X155247001Y-212406000D01*
X155271505Y-212407204D01*
G37*
G36*
X153783505Y-212407204D02*
G01*
X153807773Y-212410804D01*
X153831572Y-212416765D01*
X153854671Y-212425030D01*
X153876850Y-212435520D01*
X153897893Y-212448132D01*
X153917599Y-212462747D01*
X153935777Y-212479223D01*
X153952253Y-212497401D01*
X153966868Y-212517107D01*
X153979480Y-212538150D01*
X153989970Y-212560329D01*
X153998235Y-212583428D01*
X154004196Y-212607227D01*
X154007796Y-212631495D01*
X154009000Y-212655999D01*
X154009000Y-213556001D01*
X154007796Y-213580505D01*
X154004196Y-213604773D01*
X153998235Y-213628572D01*
X153989970Y-213651671D01*
X153979480Y-213673850D01*
X153966868Y-213694893D01*
X153952253Y-213714599D01*
X153935777Y-213732777D01*
X153917599Y-213749253D01*
X153897893Y-213763868D01*
X153876850Y-213776480D01*
X153854671Y-213786970D01*
X153831572Y-213795235D01*
X153807773Y-213801196D01*
X153783505Y-213804796D01*
X153759001Y-213806000D01*
X153108999Y-213806000D01*
X153084495Y-213804796D01*
X153060227Y-213801196D01*
X153036428Y-213795235D01*
X153013329Y-213786970D01*
X152991150Y-213776480D01*
X152970107Y-213763868D01*
X152950401Y-213749253D01*
X152932223Y-213732777D01*
X152915747Y-213714599D01*
X152901132Y-213694893D01*
X152888520Y-213673850D01*
X152878030Y-213651671D01*
X152869765Y-213628572D01*
X152863804Y-213604773D01*
X152860204Y-213580505D01*
X152859000Y-213556001D01*
X152859000Y-212655999D01*
X152860204Y-212631495D01*
X152863804Y-212607227D01*
X152869765Y-212583428D01*
X152878030Y-212560329D01*
X152888520Y-212538150D01*
X152901132Y-212517107D01*
X152915747Y-212497401D01*
X152932223Y-212479223D01*
X152950401Y-212462747D01*
X152970107Y-212448132D01*
X152991150Y-212435520D01*
X153013329Y-212425030D01*
X153036428Y-212416765D01*
X153060227Y-212410804D01*
X153084495Y-212407204D01*
X153108999Y-212406000D01*
X153759001Y-212406000D01*
X153783505Y-212407204D01*
G37*
G36*
X151733505Y-212407204D02*
G01*
X151757773Y-212410804D01*
X151781572Y-212416765D01*
X151804671Y-212425030D01*
X151826850Y-212435520D01*
X151847893Y-212448132D01*
X151867599Y-212462747D01*
X151885777Y-212479223D01*
X151902253Y-212497401D01*
X151916868Y-212517107D01*
X151929480Y-212538150D01*
X151939970Y-212560329D01*
X151948235Y-212583428D01*
X151954196Y-212607227D01*
X151957796Y-212631495D01*
X151959000Y-212655999D01*
X151959000Y-213556001D01*
X151957796Y-213580505D01*
X151954196Y-213604773D01*
X151948235Y-213628572D01*
X151939970Y-213651671D01*
X151929480Y-213673850D01*
X151916868Y-213694893D01*
X151902253Y-213714599D01*
X151885777Y-213732777D01*
X151867599Y-213749253D01*
X151847893Y-213763868D01*
X151826850Y-213776480D01*
X151804671Y-213786970D01*
X151781572Y-213795235D01*
X151757773Y-213801196D01*
X151733505Y-213804796D01*
X151709001Y-213806000D01*
X151058999Y-213806000D01*
X151034495Y-213804796D01*
X151010227Y-213801196D01*
X150986428Y-213795235D01*
X150963329Y-213786970D01*
X150941150Y-213776480D01*
X150920107Y-213763868D01*
X150900401Y-213749253D01*
X150882223Y-213732777D01*
X150865747Y-213714599D01*
X150851132Y-213694893D01*
X150838520Y-213673850D01*
X150828030Y-213651671D01*
X150819765Y-213628572D01*
X150813804Y-213604773D01*
X150810204Y-213580505D01*
X150809000Y-213556001D01*
X150809000Y-212655999D01*
X150810204Y-212631495D01*
X150813804Y-212607227D01*
X150819765Y-212583428D01*
X150828030Y-212560329D01*
X150838520Y-212538150D01*
X150851132Y-212517107D01*
X150865747Y-212497401D01*
X150882223Y-212479223D01*
X150900401Y-212462747D01*
X150920107Y-212448132D01*
X150941150Y-212435520D01*
X150963329Y-212425030D01*
X150986428Y-212416765D01*
X151010227Y-212410804D01*
X151034495Y-212407204D01*
X151058999Y-212406000D01*
X151709001Y-212406000D01*
X151733505Y-212407204D01*
G37*
G36*
X146916505Y-212661204D02*
G01*
X146940773Y-212664804D01*
X146964572Y-212670765D01*
X146987671Y-212679030D01*
X147009850Y-212689520D01*
X147030893Y-212702132D01*
X147050599Y-212716747D01*
X147068777Y-212733223D01*
X147085253Y-212751401D01*
X147099868Y-212771107D01*
X147112480Y-212792150D01*
X147122970Y-212814329D01*
X147131235Y-212837428D01*
X147137196Y-212861227D01*
X147140796Y-212885495D01*
X147142000Y-212909999D01*
X147142000Y-213810001D01*
X147140796Y-213834505D01*
X147137196Y-213858773D01*
X147131235Y-213882572D01*
X147122970Y-213905671D01*
X147112480Y-213927850D01*
X147099868Y-213948893D01*
X147085253Y-213968599D01*
X147068777Y-213986777D01*
X147050599Y-214003253D01*
X147030893Y-214017868D01*
X147009850Y-214030480D01*
X146987671Y-214040970D01*
X146964572Y-214049235D01*
X146940773Y-214055196D01*
X146916505Y-214058796D01*
X146892001Y-214060000D01*
X146241999Y-214060000D01*
X146217495Y-214058796D01*
X146193227Y-214055196D01*
X146169428Y-214049235D01*
X146146329Y-214040970D01*
X146124150Y-214030480D01*
X146103107Y-214017868D01*
X146083401Y-214003253D01*
X146065223Y-213986777D01*
X146048747Y-213968599D01*
X146034132Y-213948893D01*
X146021520Y-213927850D01*
X146011030Y-213905671D01*
X146002765Y-213882572D01*
X145996804Y-213858773D01*
X145993204Y-213834505D01*
X145992000Y-213810001D01*
X145992000Y-212909999D01*
X145993204Y-212885495D01*
X145996804Y-212861227D01*
X146002765Y-212837428D01*
X146011030Y-212814329D01*
X146021520Y-212792150D01*
X146034132Y-212771107D01*
X146048747Y-212751401D01*
X146065223Y-212733223D01*
X146083401Y-212716747D01*
X146103107Y-212702132D01*
X146124150Y-212689520D01*
X146146329Y-212679030D01*
X146169428Y-212670765D01*
X146193227Y-212664804D01*
X146217495Y-212661204D01*
X146241999Y-212660000D01*
X146892001Y-212660000D01*
X146916505Y-212661204D01*
G37*
G36*
X144866505Y-212661204D02*
G01*
X144890773Y-212664804D01*
X144914572Y-212670765D01*
X144937671Y-212679030D01*
X144959850Y-212689520D01*
X144980893Y-212702132D01*
X145000599Y-212716747D01*
X145018777Y-212733223D01*
X145035253Y-212751401D01*
X145049868Y-212771107D01*
X145062480Y-212792150D01*
X145072970Y-212814329D01*
X145081235Y-212837428D01*
X145087196Y-212861227D01*
X145090796Y-212885495D01*
X145092000Y-212909999D01*
X145092000Y-213810001D01*
X145090796Y-213834505D01*
X145087196Y-213858773D01*
X145081235Y-213882572D01*
X145072970Y-213905671D01*
X145062480Y-213927850D01*
X145049868Y-213948893D01*
X145035253Y-213968599D01*
X145018777Y-213986777D01*
X145000599Y-214003253D01*
X144980893Y-214017868D01*
X144959850Y-214030480D01*
X144937671Y-214040970D01*
X144914572Y-214049235D01*
X144890773Y-214055196D01*
X144866505Y-214058796D01*
X144842001Y-214060000D01*
X144191999Y-214060000D01*
X144167495Y-214058796D01*
X144143227Y-214055196D01*
X144119428Y-214049235D01*
X144096329Y-214040970D01*
X144074150Y-214030480D01*
X144053107Y-214017868D01*
X144033401Y-214003253D01*
X144015223Y-213986777D01*
X143998747Y-213968599D01*
X143984132Y-213948893D01*
X143971520Y-213927850D01*
X143961030Y-213905671D01*
X143952765Y-213882572D01*
X143946804Y-213858773D01*
X143943204Y-213834505D01*
X143942000Y-213810001D01*
X143942000Y-212909999D01*
X143943204Y-212885495D01*
X143946804Y-212861227D01*
X143952765Y-212837428D01*
X143961030Y-212814329D01*
X143971520Y-212792150D01*
X143984132Y-212771107D01*
X143998747Y-212751401D01*
X144015223Y-212733223D01*
X144033401Y-212716747D01*
X144053107Y-212702132D01*
X144074150Y-212689520D01*
X144096329Y-212679030D01*
X144119428Y-212670765D01*
X144143227Y-212664804D01*
X144167495Y-212661204D01*
X144191999Y-212660000D01*
X144842001Y-212660000D01*
X144866505Y-212661204D01*
G37*
D16*
X189738000Y-296736000D03*
X189738000Y-300736000D03*
D11*
X101162000Y-231786000D03*
D12*
X101962000Y-231786000D03*
D11*
X103562000Y-231786000D03*
D12*
X102762000Y-231786000D03*
D11*
X101162000Y-229986000D03*
D12*
X102762000Y-229986000D03*
X101962000Y-229986000D03*
D11*
X103562000Y-229986000D03*
X107766000Y-233564000D03*
D12*
X108566000Y-233564000D03*
D11*
X110166000Y-233564000D03*
D12*
X109366000Y-233564000D03*
D11*
X107766000Y-231764000D03*
D12*
X109366000Y-231764000D03*
X108566000Y-231764000D03*
D11*
X110166000Y-231764000D03*
X118942000Y-233564000D03*
D12*
X119742000Y-233564000D03*
D11*
X121342000Y-233564000D03*
D12*
X120542000Y-233564000D03*
D11*
X118942000Y-231764000D03*
D12*
X120542000Y-231764000D03*
X119742000Y-231764000D03*
D11*
X121342000Y-231764000D03*
X131248000Y-231764000D03*
D12*
X130448000Y-231764000D03*
D11*
X128848000Y-231764000D03*
D12*
X129648000Y-231764000D03*
D11*
X131248000Y-233564000D03*
D12*
X129648000Y-233564000D03*
X130448000Y-233564000D03*
D11*
X128848000Y-233564000D03*
X136582000Y-231764000D03*
D12*
X135782000Y-231764000D03*
D11*
X134182000Y-231764000D03*
D12*
X134982000Y-231764000D03*
D11*
X136582000Y-233564000D03*
D12*
X134982000Y-233564000D03*
X135782000Y-233564000D03*
D11*
X134182000Y-233564000D03*
X142932000Y-231764000D03*
D12*
X142132000Y-231764000D03*
D11*
X140532000Y-231764000D03*
D12*
X141332000Y-231764000D03*
D11*
X142932000Y-233564000D03*
D12*
X141332000Y-233564000D03*
X142132000Y-233564000D03*
D11*
X140532000Y-233564000D03*
X171634000Y-280278000D03*
D12*
X170834000Y-280278000D03*
D11*
X169234000Y-280278000D03*
D12*
X170034000Y-280278000D03*
D11*
X171634000Y-282078000D03*
D12*
X170034000Y-282078000D03*
X170834000Y-282078000D03*
D11*
X169234000Y-282078000D03*
X181286000Y-280278000D03*
D12*
X180486000Y-280278000D03*
D11*
X178886000Y-280278000D03*
D12*
X179686000Y-280278000D03*
D11*
X181286000Y-282078000D03*
D12*
X179686000Y-282078000D03*
X180486000Y-282078000D03*
D11*
X178886000Y-282078000D03*
X111068000Y-282078000D03*
D12*
X111868000Y-282078000D03*
D11*
X113468000Y-282078000D03*
D12*
X112668000Y-282078000D03*
D11*
X111068000Y-280278000D03*
D12*
X112668000Y-280278000D03*
X111868000Y-280278000D03*
D11*
X113468000Y-280278000D03*
X158820000Y-282078000D03*
D12*
X159620000Y-282078000D03*
D11*
X161220000Y-282078000D03*
D12*
X160420000Y-282078000D03*
D11*
X158820000Y-280278000D03*
D12*
X160420000Y-280278000D03*
X159620000Y-280278000D03*
D11*
X161220000Y-280278000D03*
X137484000Y-282078000D03*
D12*
X138284000Y-282078000D03*
D11*
X139884000Y-282078000D03*
D12*
X139084000Y-282078000D03*
D11*
X137484000Y-280278000D03*
D12*
X139084000Y-280278000D03*
X138284000Y-280278000D03*
D11*
X139884000Y-280278000D03*
X131572000Y-282078000D03*
D12*
X132372000Y-282078000D03*
D11*
X133972000Y-282078000D03*
D12*
X133172000Y-282078000D03*
D11*
X131572000Y-280278000D03*
D12*
X133172000Y-280278000D03*
X132372000Y-280278000D03*
D11*
X133972000Y-280278000D03*
X120720000Y-282078000D03*
D12*
X121520000Y-282078000D03*
D11*
X123120000Y-282078000D03*
D12*
X122320000Y-282078000D03*
D11*
X120720000Y-280278000D03*
D12*
X122320000Y-280278000D03*
X121520000Y-280278000D03*
D11*
X123120000Y-280278000D03*
D10*
G36*
X180814505Y-308290204D02*
G01*
X180838773Y-308293804D01*
X180862572Y-308299765D01*
X180885671Y-308308030D01*
X180907850Y-308318520D01*
X180928893Y-308331132D01*
X180948599Y-308345747D01*
X180966777Y-308362223D01*
X180983253Y-308380401D01*
X180997868Y-308400107D01*
X181010480Y-308421150D01*
X181020970Y-308443329D01*
X181029235Y-308466428D01*
X181035196Y-308490227D01*
X181038796Y-308514495D01*
X181040000Y-308538999D01*
X181040000Y-309189001D01*
X181038796Y-309213505D01*
X181035196Y-309237773D01*
X181029235Y-309261572D01*
X181020970Y-309284671D01*
X181010480Y-309306850D01*
X180997868Y-309327893D01*
X180983253Y-309347599D01*
X180966777Y-309365777D01*
X180948599Y-309382253D01*
X180928893Y-309396868D01*
X180907850Y-309409480D01*
X180885671Y-309419970D01*
X180862572Y-309428235D01*
X180838773Y-309434196D01*
X180814505Y-309437796D01*
X180790001Y-309439000D01*
X179889999Y-309439000D01*
X179865495Y-309437796D01*
X179841227Y-309434196D01*
X179817428Y-309428235D01*
X179794329Y-309419970D01*
X179772150Y-309409480D01*
X179751107Y-309396868D01*
X179731401Y-309382253D01*
X179713223Y-309365777D01*
X179696747Y-309347599D01*
X179682132Y-309327893D01*
X179669520Y-309306850D01*
X179659030Y-309284671D01*
X179650765Y-309261572D01*
X179644804Y-309237773D01*
X179641204Y-309213505D01*
X179640000Y-309189001D01*
X179640000Y-308538999D01*
X179641204Y-308514495D01*
X179644804Y-308490227D01*
X179650765Y-308466428D01*
X179659030Y-308443329D01*
X179669520Y-308421150D01*
X179682132Y-308400107D01*
X179696747Y-308380401D01*
X179713223Y-308362223D01*
X179731401Y-308345747D01*
X179751107Y-308331132D01*
X179772150Y-308318520D01*
X179794329Y-308308030D01*
X179817428Y-308299765D01*
X179841227Y-308293804D01*
X179865495Y-308290204D01*
X179889999Y-308289000D01*
X180790001Y-308289000D01*
X180814505Y-308290204D01*
G37*
G36*
X180814505Y-310340204D02*
G01*
X180838773Y-310343804D01*
X180862572Y-310349765D01*
X180885671Y-310358030D01*
X180907850Y-310368520D01*
X180928893Y-310381132D01*
X180948599Y-310395747D01*
X180966777Y-310412223D01*
X180983253Y-310430401D01*
X180997868Y-310450107D01*
X181010480Y-310471150D01*
X181020970Y-310493329D01*
X181029235Y-310516428D01*
X181035196Y-310540227D01*
X181038796Y-310564495D01*
X181040000Y-310588999D01*
X181040000Y-311239001D01*
X181038796Y-311263505D01*
X181035196Y-311287773D01*
X181029235Y-311311572D01*
X181020970Y-311334671D01*
X181010480Y-311356850D01*
X180997868Y-311377893D01*
X180983253Y-311397599D01*
X180966777Y-311415777D01*
X180948599Y-311432253D01*
X180928893Y-311446868D01*
X180907850Y-311459480D01*
X180885671Y-311469970D01*
X180862572Y-311478235D01*
X180838773Y-311484196D01*
X180814505Y-311487796D01*
X180790001Y-311489000D01*
X179889999Y-311489000D01*
X179865495Y-311487796D01*
X179841227Y-311484196D01*
X179817428Y-311478235D01*
X179794329Y-311469970D01*
X179772150Y-311459480D01*
X179751107Y-311446868D01*
X179731401Y-311432253D01*
X179713223Y-311415777D01*
X179696747Y-311397599D01*
X179682132Y-311377893D01*
X179669520Y-311356850D01*
X179659030Y-311334671D01*
X179650765Y-311311572D01*
X179644804Y-311287773D01*
X179641204Y-311263505D01*
X179640000Y-311239001D01*
X179640000Y-310588999D01*
X179641204Y-310564495D01*
X179644804Y-310540227D01*
X179650765Y-310516428D01*
X179659030Y-310493329D01*
X179669520Y-310471150D01*
X179682132Y-310450107D01*
X179696747Y-310430401D01*
X179713223Y-310412223D01*
X179731401Y-310395747D01*
X179751107Y-310381132D01*
X179772150Y-310368520D01*
X179794329Y-310358030D01*
X179817428Y-310349765D01*
X179841227Y-310343804D01*
X179865495Y-310340204D01*
X179889999Y-310339000D01*
X180790001Y-310339000D01*
X180814505Y-310340204D01*
G37*
G36*
X182846505Y-308290204D02*
G01*
X182870773Y-308293804D01*
X182894572Y-308299765D01*
X182917671Y-308308030D01*
X182939850Y-308318520D01*
X182960893Y-308331132D01*
X182980599Y-308345747D01*
X182998777Y-308362223D01*
X183015253Y-308380401D01*
X183029868Y-308400107D01*
X183042480Y-308421150D01*
X183052970Y-308443329D01*
X183061235Y-308466428D01*
X183067196Y-308490227D01*
X183070796Y-308514495D01*
X183072000Y-308538999D01*
X183072000Y-309189001D01*
X183070796Y-309213505D01*
X183067196Y-309237773D01*
X183061235Y-309261572D01*
X183052970Y-309284671D01*
X183042480Y-309306850D01*
X183029868Y-309327893D01*
X183015253Y-309347599D01*
X182998777Y-309365777D01*
X182980599Y-309382253D01*
X182960893Y-309396868D01*
X182939850Y-309409480D01*
X182917671Y-309419970D01*
X182894572Y-309428235D01*
X182870773Y-309434196D01*
X182846505Y-309437796D01*
X182822001Y-309439000D01*
X181921999Y-309439000D01*
X181897495Y-309437796D01*
X181873227Y-309434196D01*
X181849428Y-309428235D01*
X181826329Y-309419970D01*
X181804150Y-309409480D01*
X181783107Y-309396868D01*
X181763401Y-309382253D01*
X181745223Y-309365777D01*
X181728747Y-309347599D01*
X181714132Y-309327893D01*
X181701520Y-309306850D01*
X181691030Y-309284671D01*
X181682765Y-309261572D01*
X181676804Y-309237773D01*
X181673204Y-309213505D01*
X181672000Y-309189001D01*
X181672000Y-308538999D01*
X181673204Y-308514495D01*
X181676804Y-308490227D01*
X181682765Y-308466428D01*
X181691030Y-308443329D01*
X181701520Y-308421150D01*
X181714132Y-308400107D01*
X181728747Y-308380401D01*
X181745223Y-308362223D01*
X181763401Y-308345747D01*
X181783107Y-308331132D01*
X181804150Y-308318520D01*
X181826329Y-308308030D01*
X181849428Y-308299765D01*
X181873227Y-308293804D01*
X181897495Y-308290204D01*
X181921999Y-308289000D01*
X182822001Y-308289000D01*
X182846505Y-308290204D01*
G37*
G36*
X182846505Y-310340204D02*
G01*
X182870773Y-310343804D01*
X182894572Y-310349765D01*
X182917671Y-310358030D01*
X182939850Y-310368520D01*
X182960893Y-310381132D01*
X182980599Y-310395747D01*
X182998777Y-310412223D01*
X183015253Y-310430401D01*
X183029868Y-310450107D01*
X183042480Y-310471150D01*
X183052970Y-310493329D01*
X183061235Y-310516428D01*
X183067196Y-310540227D01*
X183070796Y-310564495D01*
X183072000Y-310588999D01*
X183072000Y-311239001D01*
X183070796Y-311263505D01*
X183067196Y-311287773D01*
X183061235Y-311311572D01*
X183052970Y-311334671D01*
X183042480Y-311356850D01*
X183029868Y-311377893D01*
X183015253Y-311397599D01*
X182998777Y-311415777D01*
X182980599Y-311432253D01*
X182960893Y-311446868D01*
X182939850Y-311459480D01*
X182917671Y-311469970D01*
X182894572Y-311478235D01*
X182870773Y-311484196D01*
X182846505Y-311487796D01*
X182822001Y-311489000D01*
X181921999Y-311489000D01*
X181897495Y-311487796D01*
X181873227Y-311484196D01*
X181849428Y-311478235D01*
X181826329Y-311469970D01*
X181804150Y-311459480D01*
X181783107Y-311446868D01*
X181763401Y-311432253D01*
X181745223Y-311415777D01*
X181728747Y-311397599D01*
X181714132Y-311377893D01*
X181701520Y-311356850D01*
X181691030Y-311334671D01*
X181682765Y-311311572D01*
X181676804Y-311287773D01*
X181673204Y-311263505D01*
X181672000Y-311239001D01*
X181672000Y-310588999D01*
X181673204Y-310564495D01*
X181676804Y-310540227D01*
X181682765Y-310516428D01*
X181691030Y-310493329D01*
X181701520Y-310471150D01*
X181714132Y-310450107D01*
X181728747Y-310430401D01*
X181745223Y-310412223D01*
X181763401Y-310395747D01*
X181783107Y-310381132D01*
X181804150Y-310368520D01*
X181826329Y-310358030D01*
X181849428Y-310349765D01*
X181873227Y-310343804D01*
X181897495Y-310340204D01*
X181921999Y-310339000D01*
X182822001Y-310339000D01*
X182846505Y-310340204D01*
G37*
G36*
X168114505Y-308281204D02*
G01*
X168138773Y-308284804D01*
X168162572Y-308290765D01*
X168185671Y-308299030D01*
X168207850Y-308309520D01*
X168228893Y-308322132D01*
X168248599Y-308336747D01*
X168266777Y-308353223D01*
X168283253Y-308371401D01*
X168297868Y-308391107D01*
X168310480Y-308412150D01*
X168320970Y-308434329D01*
X168329235Y-308457428D01*
X168335196Y-308481227D01*
X168338796Y-308505495D01*
X168340000Y-308529999D01*
X168340000Y-309180001D01*
X168338796Y-309204505D01*
X168335196Y-309228773D01*
X168329235Y-309252572D01*
X168320970Y-309275671D01*
X168310480Y-309297850D01*
X168297868Y-309318893D01*
X168283253Y-309338599D01*
X168266777Y-309356777D01*
X168248599Y-309373253D01*
X168228893Y-309387868D01*
X168207850Y-309400480D01*
X168185671Y-309410970D01*
X168162572Y-309419235D01*
X168138773Y-309425196D01*
X168114505Y-309428796D01*
X168090001Y-309430000D01*
X167189999Y-309430000D01*
X167165495Y-309428796D01*
X167141227Y-309425196D01*
X167117428Y-309419235D01*
X167094329Y-309410970D01*
X167072150Y-309400480D01*
X167051107Y-309387868D01*
X167031401Y-309373253D01*
X167013223Y-309356777D01*
X166996747Y-309338599D01*
X166982132Y-309318893D01*
X166969520Y-309297850D01*
X166959030Y-309275671D01*
X166950765Y-309252572D01*
X166944804Y-309228773D01*
X166941204Y-309204505D01*
X166940000Y-309180001D01*
X166940000Y-308529999D01*
X166941204Y-308505495D01*
X166944804Y-308481227D01*
X166950765Y-308457428D01*
X166959030Y-308434329D01*
X166969520Y-308412150D01*
X166982132Y-308391107D01*
X166996747Y-308371401D01*
X167013223Y-308353223D01*
X167031401Y-308336747D01*
X167051107Y-308322132D01*
X167072150Y-308309520D01*
X167094329Y-308299030D01*
X167117428Y-308290765D01*
X167141227Y-308284804D01*
X167165495Y-308281204D01*
X167189999Y-308280000D01*
X168090001Y-308280000D01*
X168114505Y-308281204D01*
G37*
G36*
X168114505Y-310331204D02*
G01*
X168138773Y-310334804D01*
X168162572Y-310340765D01*
X168185671Y-310349030D01*
X168207850Y-310359520D01*
X168228893Y-310372132D01*
X168248599Y-310386747D01*
X168266777Y-310403223D01*
X168283253Y-310421401D01*
X168297868Y-310441107D01*
X168310480Y-310462150D01*
X168320970Y-310484329D01*
X168329235Y-310507428D01*
X168335196Y-310531227D01*
X168338796Y-310555495D01*
X168340000Y-310579999D01*
X168340000Y-311230001D01*
X168338796Y-311254505D01*
X168335196Y-311278773D01*
X168329235Y-311302572D01*
X168320970Y-311325671D01*
X168310480Y-311347850D01*
X168297868Y-311368893D01*
X168283253Y-311388599D01*
X168266777Y-311406777D01*
X168248599Y-311423253D01*
X168228893Y-311437868D01*
X168207850Y-311450480D01*
X168185671Y-311460970D01*
X168162572Y-311469235D01*
X168138773Y-311475196D01*
X168114505Y-311478796D01*
X168090001Y-311480000D01*
X167189999Y-311480000D01*
X167165495Y-311478796D01*
X167141227Y-311475196D01*
X167117428Y-311469235D01*
X167094329Y-311460970D01*
X167072150Y-311450480D01*
X167051107Y-311437868D01*
X167031401Y-311423253D01*
X167013223Y-311406777D01*
X166996747Y-311388599D01*
X166982132Y-311368893D01*
X166969520Y-311347850D01*
X166959030Y-311325671D01*
X166950765Y-311302572D01*
X166944804Y-311278773D01*
X166941204Y-311254505D01*
X166940000Y-311230001D01*
X166940000Y-310579999D01*
X166941204Y-310555495D01*
X166944804Y-310531227D01*
X166950765Y-310507428D01*
X166959030Y-310484329D01*
X166969520Y-310462150D01*
X166982132Y-310441107D01*
X166996747Y-310421401D01*
X167013223Y-310403223D01*
X167031401Y-310386747D01*
X167051107Y-310372132D01*
X167072150Y-310359520D01*
X167094329Y-310349030D01*
X167117428Y-310340765D01*
X167141227Y-310334804D01*
X167165495Y-310331204D01*
X167189999Y-310330000D01*
X168090001Y-310330000D01*
X168114505Y-310331204D01*
G37*
G36*
X170146505Y-308290204D02*
G01*
X170170773Y-308293804D01*
X170194572Y-308299765D01*
X170217671Y-308308030D01*
X170239850Y-308318520D01*
X170260893Y-308331132D01*
X170280599Y-308345747D01*
X170298777Y-308362223D01*
X170315253Y-308380401D01*
X170329868Y-308400107D01*
X170342480Y-308421150D01*
X170352970Y-308443329D01*
X170361235Y-308466428D01*
X170367196Y-308490227D01*
X170370796Y-308514495D01*
X170372000Y-308538999D01*
X170372000Y-309189001D01*
X170370796Y-309213505D01*
X170367196Y-309237773D01*
X170361235Y-309261572D01*
X170352970Y-309284671D01*
X170342480Y-309306850D01*
X170329868Y-309327893D01*
X170315253Y-309347599D01*
X170298777Y-309365777D01*
X170280599Y-309382253D01*
X170260893Y-309396868D01*
X170239850Y-309409480D01*
X170217671Y-309419970D01*
X170194572Y-309428235D01*
X170170773Y-309434196D01*
X170146505Y-309437796D01*
X170122001Y-309439000D01*
X169221999Y-309439000D01*
X169197495Y-309437796D01*
X169173227Y-309434196D01*
X169149428Y-309428235D01*
X169126329Y-309419970D01*
X169104150Y-309409480D01*
X169083107Y-309396868D01*
X169063401Y-309382253D01*
X169045223Y-309365777D01*
X169028747Y-309347599D01*
X169014132Y-309327893D01*
X169001520Y-309306850D01*
X168991030Y-309284671D01*
X168982765Y-309261572D01*
X168976804Y-309237773D01*
X168973204Y-309213505D01*
X168972000Y-309189001D01*
X168972000Y-308538999D01*
X168973204Y-308514495D01*
X168976804Y-308490227D01*
X168982765Y-308466428D01*
X168991030Y-308443329D01*
X169001520Y-308421150D01*
X169014132Y-308400107D01*
X169028747Y-308380401D01*
X169045223Y-308362223D01*
X169063401Y-308345747D01*
X169083107Y-308331132D01*
X169104150Y-308318520D01*
X169126329Y-308308030D01*
X169149428Y-308299765D01*
X169173227Y-308293804D01*
X169197495Y-308290204D01*
X169221999Y-308289000D01*
X170122001Y-308289000D01*
X170146505Y-308290204D01*
G37*
G36*
X170146505Y-310340204D02*
G01*
X170170773Y-310343804D01*
X170194572Y-310349765D01*
X170217671Y-310358030D01*
X170239850Y-310368520D01*
X170260893Y-310381132D01*
X170280599Y-310395747D01*
X170298777Y-310412223D01*
X170315253Y-310430401D01*
X170329868Y-310450107D01*
X170342480Y-310471150D01*
X170352970Y-310493329D01*
X170361235Y-310516428D01*
X170367196Y-310540227D01*
X170370796Y-310564495D01*
X170372000Y-310588999D01*
X170372000Y-311239001D01*
X170370796Y-311263505D01*
X170367196Y-311287773D01*
X170361235Y-311311572D01*
X170352970Y-311334671D01*
X170342480Y-311356850D01*
X170329868Y-311377893D01*
X170315253Y-311397599D01*
X170298777Y-311415777D01*
X170280599Y-311432253D01*
X170260893Y-311446868D01*
X170239850Y-311459480D01*
X170217671Y-311469970D01*
X170194572Y-311478235D01*
X170170773Y-311484196D01*
X170146505Y-311487796D01*
X170122001Y-311489000D01*
X169221999Y-311489000D01*
X169197495Y-311487796D01*
X169173227Y-311484196D01*
X169149428Y-311478235D01*
X169126329Y-311469970D01*
X169104150Y-311459480D01*
X169083107Y-311446868D01*
X169063401Y-311432253D01*
X169045223Y-311415777D01*
X169028747Y-311397599D01*
X169014132Y-311377893D01*
X169001520Y-311356850D01*
X168991030Y-311334671D01*
X168982765Y-311311572D01*
X168976804Y-311287773D01*
X168973204Y-311263505D01*
X168972000Y-311239001D01*
X168972000Y-310588999D01*
X168973204Y-310564495D01*
X168976804Y-310540227D01*
X168982765Y-310516428D01*
X168991030Y-310493329D01*
X169001520Y-310471150D01*
X169014132Y-310450107D01*
X169028747Y-310430401D01*
X169045223Y-310412223D01*
X169063401Y-310395747D01*
X169083107Y-310381132D01*
X169104150Y-310368520D01*
X169126329Y-310358030D01*
X169149428Y-310349765D01*
X169173227Y-310343804D01*
X169197495Y-310340204D01*
X169221999Y-310339000D01*
X170122001Y-310339000D01*
X170146505Y-310340204D01*
G37*
G36*
X156430505Y-308290204D02*
G01*
X156454773Y-308293804D01*
X156478572Y-308299765D01*
X156501671Y-308308030D01*
X156523850Y-308318520D01*
X156544893Y-308331132D01*
X156564599Y-308345747D01*
X156582777Y-308362223D01*
X156599253Y-308380401D01*
X156613868Y-308400107D01*
X156626480Y-308421150D01*
X156636970Y-308443329D01*
X156645235Y-308466428D01*
X156651196Y-308490227D01*
X156654796Y-308514495D01*
X156656000Y-308538999D01*
X156656000Y-309189001D01*
X156654796Y-309213505D01*
X156651196Y-309237773D01*
X156645235Y-309261572D01*
X156636970Y-309284671D01*
X156626480Y-309306850D01*
X156613868Y-309327893D01*
X156599253Y-309347599D01*
X156582777Y-309365777D01*
X156564599Y-309382253D01*
X156544893Y-309396868D01*
X156523850Y-309409480D01*
X156501671Y-309419970D01*
X156478572Y-309428235D01*
X156454773Y-309434196D01*
X156430505Y-309437796D01*
X156406001Y-309439000D01*
X155505999Y-309439000D01*
X155481495Y-309437796D01*
X155457227Y-309434196D01*
X155433428Y-309428235D01*
X155410329Y-309419970D01*
X155388150Y-309409480D01*
X155367107Y-309396868D01*
X155347401Y-309382253D01*
X155329223Y-309365777D01*
X155312747Y-309347599D01*
X155298132Y-309327893D01*
X155285520Y-309306850D01*
X155275030Y-309284671D01*
X155266765Y-309261572D01*
X155260804Y-309237773D01*
X155257204Y-309213505D01*
X155256000Y-309189001D01*
X155256000Y-308538999D01*
X155257204Y-308514495D01*
X155260804Y-308490227D01*
X155266765Y-308466428D01*
X155275030Y-308443329D01*
X155285520Y-308421150D01*
X155298132Y-308400107D01*
X155312747Y-308380401D01*
X155329223Y-308362223D01*
X155347401Y-308345747D01*
X155367107Y-308331132D01*
X155388150Y-308318520D01*
X155410329Y-308308030D01*
X155433428Y-308299765D01*
X155457227Y-308293804D01*
X155481495Y-308290204D01*
X155505999Y-308289000D01*
X156406001Y-308289000D01*
X156430505Y-308290204D01*
G37*
G36*
X156430505Y-310340204D02*
G01*
X156454773Y-310343804D01*
X156478572Y-310349765D01*
X156501671Y-310358030D01*
X156523850Y-310368520D01*
X156544893Y-310381132D01*
X156564599Y-310395747D01*
X156582777Y-310412223D01*
X156599253Y-310430401D01*
X156613868Y-310450107D01*
X156626480Y-310471150D01*
X156636970Y-310493329D01*
X156645235Y-310516428D01*
X156651196Y-310540227D01*
X156654796Y-310564495D01*
X156656000Y-310588999D01*
X156656000Y-311239001D01*
X156654796Y-311263505D01*
X156651196Y-311287773D01*
X156645235Y-311311572D01*
X156636970Y-311334671D01*
X156626480Y-311356850D01*
X156613868Y-311377893D01*
X156599253Y-311397599D01*
X156582777Y-311415777D01*
X156564599Y-311432253D01*
X156544893Y-311446868D01*
X156523850Y-311459480D01*
X156501671Y-311469970D01*
X156478572Y-311478235D01*
X156454773Y-311484196D01*
X156430505Y-311487796D01*
X156406001Y-311489000D01*
X155505999Y-311489000D01*
X155481495Y-311487796D01*
X155457227Y-311484196D01*
X155433428Y-311478235D01*
X155410329Y-311469970D01*
X155388150Y-311459480D01*
X155367107Y-311446868D01*
X155347401Y-311432253D01*
X155329223Y-311415777D01*
X155312747Y-311397599D01*
X155298132Y-311377893D01*
X155285520Y-311356850D01*
X155275030Y-311334671D01*
X155266765Y-311311572D01*
X155260804Y-311287773D01*
X155257204Y-311263505D01*
X155256000Y-311239001D01*
X155256000Y-310588999D01*
X155257204Y-310564495D01*
X155260804Y-310540227D01*
X155266765Y-310516428D01*
X155275030Y-310493329D01*
X155285520Y-310471150D01*
X155298132Y-310450107D01*
X155312747Y-310430401D01*
X155329223Y-310412223D01*
X155347401Y-310395747D01*
X155367107Y-310381132D01*
X155388150Y-310368520D01*
X155410329Y-310358030D01*
X155433428Y-310349765D01*
X155457227Y-310343804D01*
X155481495Y-310340204D01*
X155505999Y-310339000D01*
X156406001Y-310339000D01*
X156430505Y-310340204D01*
G37*
G36*
X158462505Y-308290204D02*
G01*
X158486773Y-308293804D01*
X158510572Y-308299765D01*
X158533671Y-308308030D01*
X158555850Y-308318520D01*
X158576893Y-308331132D01*
X158596599Y-308345747D01*
X158614777Y-308362223D01*
X158631253Y-308380401D01*
X158645868Y-308400107D01*
X158658480Y-308421150D01*
X158668970Y-308443329D01*
X158677235Y-308466428D01*
X158683196Y-308490227D01*
X158686796Y-308514495D01*
X158688000Y-308538999D01*
X158688000Y-309189001D01*
X158686796Y-309213505D01*
X158683196Y-309237773D01*
X158677235Y-309261572D01*
X158668970Y-309284671D01*
X158658480Y-309306850D01*
X158645868Y-309327893D01*
X158631253Y-309347599D01*
X158614777Y-309365777D01*
X158596599Y-309382253D01*
X158576893Y-309396868D01*
X158555850Y-309409480D01*
X158533671Y-309419970D01*
X158510572Y-309428235D01*
X158486773Y-309434196D01*
X158462505Y-309437796D01*
X158438001Y-309439000D01*
X157537999Y-309439000D01*
X157513495Y-309437796D01*
X157489227Y-309434196D01*
X157465428Y-309428235D01*
X157442329Y-309419970D01*
X157420150Y-309409480D01*
X157399107Y-309396868D01*
X157379401Y-309382253D01*
X157361223Y-309365777D01*
X157344747Y-309347599D01*
X157330132Y-309327893D01*
X157317520Y-309306850D01*
X157307030Y-309284671D01*
X157298765Y-309261572D01*
X157292804Y-309237773D01*
X157289204Y-309213505D01*
X157288000Y-309189001D01*
X157288000Y-308538999D01*
X157289204Y-308514495D01*
X157292804Y-308490227D01*
X157298765Y-308466428D01*
X157307030Y-308443329D01*
X157317520Y-308421150D01*
X157330132Y-308400107D01*
X157344747Y-308380401D01*
X157361223Y-308362223D01*
X157379401Y-308345747D01*
X157399107Y-308331132D01*
X157420150Y-308318520D01*
X157442329Y-308308030D01*
X157465428Y-308299765D01*
X157489227Y-308293804D01*
X157513495Y-308290204D01*
X157537999Y-308289000D01*
X158438001Y-308289000D01*
X158462505Y-308290204D01*
G37*
G36*
X158462505Y-310340204D02*
G01*
X158486773Y-310343804D01*
X158510572Y-310349765D01*
X158533671Y-310358030D01*
X158555850Y-310368520D01*
X158576893Y-310381132D01*
X158596599Y-310395747D01*
X158614777Y-310412223D01*
X158631253Y-310430401D01*
X158645868Y-310450107D01*
X158658480Y-310471150D01*
X158668970Y-310493329D01*
X158677235Y-310516428D01*
X158683196Y-310540227D01*
X158686796Y-310564495D01*
X158688000Y-310588999D01*
X158688000Y-311239001D01*
X158686796Y-311263505D01*
X158683196Y-311287773D01*
X158677235Y-311311572D01*
X158668970Y-311334671D01*
X158658480Y-311356850D01*
X158645868Y-311377893D01*
X158631253Y-311397599D01*
X158614777Y-311415777D01*
X158596599Y-311432253D01*
X158576893Y-311446868D01*
X158555850Y-311459480D01*
X158533671Y-311469970D01*
X158510572Y-311478235D01*
X158486773Y-311484196D01*
X158462505Y-311487796D01*
X158438001Y-311489000D01*
X157537999Y-311489000D01*
X157513495Y-311487796D01*
X157489227Y-311484196D01*
X157465428Y-311478235D01*
X157442329Y-311469970D01*
X157420150Y-311459480D01*
X157399107Y-311446868D01*
X157379401Y-311432253D01*
X157361223Y-311415777D01*
X157344747Y-311397599D01*
X157330132Y-311377893D01*
X157317520Y-311356850D01*
X157307030Y-311334671D01*
X157298765Y-311311572D01*
X157292804Y-311287773D01*
X157289204Y-311263505D01*
X157288000Y-311239001D01*
X157288000Y-310588999D01*
X157289204Y-310564495D01*
X157292804Y-310540227D01*
X157298765Y-310516428D01*
X157307030Y-310493329D01*
X157317520Y-310471150D01*
X157330132Y-310450107D01*
X157344747Y-310430401D01*
X157361223Y-310412223D01*
X157379401Y-310395747D01*
X157399107Y-310381132D01*
X157420150Y-310368520D01*
X157442329Y-310358030D01*
X157465428Y-310349765D01*
X157489227Y-310343804D01*
X157513495Y-310340204D01*
X157537999Y-310339000D01*
X158438001Y-310339000D01*
X158462505Y-310340204D01*
G37*
G36*
X144238505Y-308290204D02*
G01*
X144262773Y-308293804D01*
X144286572Y-308299765D01*
X144309671Y-308308030D01*
X144331850Y-308318520D01*
X144352893Y-308331132D01*
X144372599Y-308345747D01*
X144390777Y-308362223D01*
X144407253Y-308380401D01*
X144421868Y-308400107D01*
X144434480Y-308421150D01*
X144444970Y-308443329D01*
X144453235Y-308466428D01*
X144459196Y-308490227D01*
X144462796Y-308514495D01*
X144464000Y-308538999D01*
X144464000Y-309189001D01*
X144462796Y-309213505D01*
X144459196Y-309237773D01*
X144453235Y-309261572D01*
X144444970Y-309284671D01*
X144434480Y-309306850D01*
X144421868Y-309327893D01*
X144407253Y-309347599D01*
X144390777Y-309365777D01*
X144372599Y-309382253D01*
X144352893Y-309396868D01*
X144331850Y-309409480D01*
X144309671Y-309419970D01*
X144286572Y-309428235D01*
X144262773Y-309434196D01*
X144238505Y-309437796D01*
X144214001Y-309439000D01*
X143313999Y-309439000D01*
X143289495Y-309437796D01*
X143265227Y-309434196D01*
X143241428Y-309428235D01*
X143218329Y-309419970D01*
X143196150Y-309409480D01*
X143175107Y-309396868D01*
X143155401Y-309382253D01*
X143137223Y-309365777D01*
X143120747Y-309347599D01*
X143106132Y-309327893D01*
X143093520Y-309306850D01*
X143083030Y-309284671D01*
X143074765Y-309261572D01*
X143068804Y-309237773D01*
X143065204Y-309213505D01*
X143064000Y-309189001D01*
X143064000Y-308538999D01*
X143065204Y-308514495D01*
X143068804Y-308490227D01*
X143074765Y-308466428D01*
X143083030Y-308443329D01*
X143093520Y-308421150D01*
X143106132Y-308400107D01*
X143120747Y-308380401D01*
X143137223Y-308362223D01*
X143155401Y-308345747D01*
X143175107Y-308331132D01*
X143196150Y-308318520D01*
X143218329Y-308308030D01*
X143241428Y-308299765D01*
X143265227Y-308293804D01*
X143289495Y-308290204D01*
X143313999Y-308289000D01*
X144214001Y-308289000D01*
X144238505Y-308290204D01*
G37*
G36*
X144238505Y-310340204D02*
G01*
X144262773Y-310343804D01*
X144286572Y-310349765D01*
X144309671Y-310358030D01*
X144331850Y-310368520D01*
X144352893Y-310381132D01*
X144372599Y-310395747D01*
X144390777Y-310412223D01*
X144407253Y-310430401D01*
X144421868Y-310450107D01*
X144434480Y-310471150D01*
X144444970Y-310493329D01*
X144453235Y-310516428D01*
X144459196Y-310540227D01*
X144462796Y-310564495D01*
X144464000Y-310588999D01*
X144464000Y-311239001D01*
X144462796Y-311263505D01*
X144459196Y-311287773D01*
X144453235Y-311311572D01*
X144444970Y-311334671D01*
X144434480Y-311356850D01*
X144421868Y-311377893D01*
X144407253Y-311397599D01*
X144390777Y-311415777D01*
X144372599Y-311432253D01*
X144352893Y-311446868D01*
X144331850Y-311459480D01*
X144309671Y-311469970D01*
X144286572Y-311478235D01*
X144262773Y-311484196D01*
X144238505Y-311487796D01*
X144214001Y-311489000D01*
X143313999Y-311489000D01*
X143289495Y-311487796D01*
X143265227Y-311484196D01*
X143241428Y-311478235D01*
X143218329Y-311469970D01*
X143196150Y-311459480D01*
X143175107Y-311446868D01*
X143155401Y-311432253D01*
X143137223Y-311415777D01*
X143120747Y-311397599D01*
X143106132Y-311377893D01*
X143093520Y-311356850D01*
X143083030Y-311334671D01*
X143074765Y-311311572D01*
X143068804Y-311287773D01*
X143065204Y-311263505D01*
X143064000Y-311239001D01*
X143064000Y-310588999D01*
X143065204Y-310564495D01*
X143068804Y-310540227D01*
X143074765Y-310516428D01*
X143083030Y-310493329D01*
X143093520Y-310471150D01*
X143106132Y-310450107D01*
X143120747Y-310430401D01*
X143137223Y-310412223D01*
X143155401Y-310395747D01*
X143175107Y-310381132D01*
X143196150Y-310368520D01*
X143218329Y-310358030D01*
X143241428Y-310349765D01*
X143265227Y-310343804D01*
X143289495Y-310340204D01*
X143313999Y-310339000D01*
X144214001Y-310339000D01*
X144238505Y-310340204D01*
G37*
G36*
X146270505Y-308290204D02*
G01*
X146294773Y-308293804D01*
X146318572Y-308299765D01*
X146341671Y-308308030D01*
X146363850Y-308318520D01*
X146384893Y-308331132D01*
X146404599Y-308345747D01*
X146422777Y-308362223D01*
X146439253Y-308380401D01*
X146453868Y-308400107D01*
X146466480Y-308421150D01*
X146476970Y-308443329D01*
X146485235Y-308466428D01*
X146491196Y-308490227D01*
X146494796Y-308514495D01*
X146496000Y-308538999D01*
X146496000Y-309189001D01*
X146494796Y-309213505D01*
X146491196Y-309237773D01*
X146485235Y-309261572D01*
X146476970Y-309284671D01*
X146466480Y-309306850D01*
X146453868Y-309327893D01*
X146439253Y-309347599D01*
X146422777Y-309365777D01*
X146404599Y-309382253D01*
X146384893Y-309396868D01*
X146363850Y-309409480D01*
X146341671Y-309419970D01*
X146318572Y-309428235D01*
X146294773Y-309434196D01*
X146270505Y-309437796D01*
X146246001Y-309439000D01*
X145345999Y-309439000D01*
X145321495Y-309437796D01*
X145297227Y-309434196D01*
X145273428Y-309428235D01*
X145250329Y-309419970D01*
X145228150Y-309409480D01*
X145207107Y-309396868D01*
X145187401Y-309382253D01*
X145169223Y-309365777D01*
X145152747Y-309347599D01*
X145138132Y-309327893D01*
X145125520Y-309306850D01*
X145115030Y-309284671D01*
X145106765Y-309261572D01*
X145100804Y-309237773D01*
X145097204Y-309213505D01*
X145096000Y-309189001D01*
X145096000Y-308538999D01*
X145097204Y-308514495D01*
X145100804Y-308490227D01*
X145106765Y-308466428D01*
X145115030Y-308443329D01*
X145125520Y-308421150D01*
X145138132Y-308400107D01*
X145152747Y-308380401D01*
X145169223Y-308362223D01*
X145187401Y-308345747D01*
X145207107Y-308331132D01*
X145228150Y-308318520D01*
X145250329Y-308308030D01*
X145273428Y-308299765D01*
X145297227Y-308293804D01*
X145321495Y-308290204D01*
X145345999Y-308289000D01*
X146246001Y-308289000D01*
X146270505Y-308290204D01*
G37*
G36*
X146270505Y-310340204D02*
G01*
X146294773Y-310343804D01*
X146318572Y-310349765D01*
X146341671Y-310358030D01*
X146363850Y-310368520D01*
X146384893Y-310381132D01*
X146404599Y-310395747D01*
X146422777Y-310412223D01*
X146439253Y-310430401D01*
X146453868Y-310450107D01*
X146466480Y-310471150D01*
X146476970Y-310493329D01*
X146485235Y-310516428D01*
X146491196Y-310540227D01*
X146494796Y-310564495D01*
X146496000Y-310588999D01*
X146496000Y-311239001D01*
X146494796Y-311263505D01*
X146491196Y-311287773D01*
X146485235Y-311311572D01*
X146476970Y-311334671D01*
X146466480Y-311356850D01*
X146453868Y-311377893D01*
X146439253Y-311397599D01*
X146422777Y-311415777D01*
X146404599Y-311432253D01*
X146384893Y-311446868D01*
X146363850Y-311459480D01*
X146341671Y-311469970D01*
X146318572Y-311478235D01*
X146294773Y-311484196D01*
X146270505Y-311487796D01*
X146246001Y-311489000D01*
X145345999Y-311489000D01*
X145321495Y-311487796D01*
X145297227Y-311484196D01*
X145273428Y-311478235D01*
X145250329Y-311469970D01*
X145228150Y-311459480D01*
X145207107Y-311446868D01*
X145187401Y-311432253D01*
X145169223Y-311415777D01*
X145152747Y-311397599D01*
X145138132Y-311377893D01*
X145125520Y-311356850D01*
X145115030Y-311334671D01*
X145106765Y-311311572D01*
X145100804Y-311287773D01*
X145097204Y-311263505D01*
X145096000Y-311239001D01*
X145096000Y-310588999D01*
X145097204Y-310564495D01*
X145100804Y-310540227D01*
X145106765Y-310516428D01*
X145115030Y-310493329D01*
X145125520Y-310471150D01*
X145138132Y-310450107D01*
X145152747Y-310430401D01*
X145169223Y-310412223D01*
X145187401Y-310395747D01*
X145207107Y-310381132D01*
X145228150Y-310368520D01*
X145250329Y-310358030D01*
X145273428Y-310349765D01*
X145297227Y-310343804D01*
X145321495Y-310340204D01*
X145345999Y-310339000D01*
X146246001Y-310339000D01*
X146270505Y-310340204D01*
G37*
G36*
X132046505Y-308281204D02*
G01*
X132070773Y-308284804D01*
X132094572Y-308290765D01*
X132117671Y-308299030D01*
X132139850Y-308309520D01*
X132160893Y-308322132D01*
X132180599Y-308336747D01*
X132198777Y-308353223D01*
X132215253Y-308371401D01*
X132229868Y-308391107D01*
X132242480Y-308412150D01*
X132252970Y-308434329D01*
X132261235Y-308457428D01*
X132267196Y-308481227D01*
X132270796Y-308505495D01*
X132272000Y-308529999D01*
X132272000Y-309180001D01*
X132270796Y-309204505D01*
X132267196Y-309228773D01*
X132261235Y-309252572D01*
X132252970Y-309275671D01*
X132242480Y-309297850D01*
X132229868Y-309318893D01*
X132215253Y-309338599D01*
X132198777Y-309356777D01*
X132180599Y-309373253D01*
X132160893Y-309387868D01*
X132139850Y-309400480D01*
X132117671Y-309410970D01*
X132094572Y-309419235D01*
X132070773Y-309425196D01*
X132046505Y-309428796D01*
X132022001Y-309430000D01*
X131121999Y-309430000D01*
X131097495Y-309428796D01*
X131073227Y-309425196D01*
X131049428Y-309419235D01*
X131026329Y-309410970D01*
X131004150Y-309400480D01*
X130983107Y-309387868D01*
X130963401Y-309373253D01*
X130945223Y-309356777D01*
X130928747Y-309338599D01*
X130914132Y-309318893D01*
X130901520Y-309297850D01*
X130891030Y-309275671D01*
X130882765Y-309252572D01*
X130876804Y-309228773D01*
X130873204Y-309204505D01*
X130872000Y-309180001D01*
X130872000Y-308529999D01*
X130873204Y-308505495D01*
X130876804Y-308481227D01*
X130882765Y-308457428D01*
X130891030Y-308434329D01*
X130901520Y-308412150D01*
X130914132Y-308391107D01*
X130928747Y-308371401D01*
X130945223Y-308353223D01*
X130963401Y-308336747D01*
X130983107Y-308322132D01*
X131004150Y-308309520D01*
X131026329Y-308299030D01*
X131049428Y-308290765D01*
X131073227Y-308284804D01*
X131097495Y-308281204D01*
X131121999Y-308280000D01*
X132022001Y-308280000D01*
X132046505Y-308281204D01*
G37*
G36*
X132046505Y-310331204D02*
G01*
X132070773Y-310334804D01*
X132094572Y-310340765D01*
X132117671Y-310349030D01*
X132139850Y-310359520D01*
X132160893Y-310372132D01*
X132180599Y-310386747D01*
X132198777Y-310403223D01*
X132215253Y-310421401D01*
X132229868Y-310441107D01*
X132242480Y-310462150D01*
X132252970Y-310484329D01*
X132261235Y-310507428D01*
X132267196Y-310531227D01*
X132270796Y-310555495D01*
X132272000Y-310579999D01*
X132272000Y-311230001D01*
X132270796Y-311254505D01*
X132267196Y-311278773D01*
X132261235Y-311302572D01*
X132252970Y-311325671D01*
X132242480Y-311347850D01*
X132229868Y-311368893D01*
X132215253Y-311388599D01*
X132198777Y-311406777D01*
X132180599Y-311423253D01*
X132160893Y-311437868D01*
X132139850Y-311450480D01*
X132117671Y-311460970D01*
X132094572Y-311469235D01*
X132070773Y-311475196D01*
X132046505Y-311478796D01*
X132022001Y-311480000D01*
X131121999Y-311480000D01*
X131097495Y-311478796D01*
X131073227Y-311475196D01*
X131049428Y-311469235D01*
X131026329Y-311460970D01*
X131004150Y-311450480D01*
X130983107Y-311437868D01*
X130963401Y-311423253D01*
X130945223Y-311406777D01*
X130928747Y-311388599D01*
X130914132Y-311368893D01*
X130901520Y-311347850D01*
X130891030Y-311325671D01*
X130882765Y-311302572D01*
X130876804Y-311278773D01*
X130873204Y-311254505D01*
X130872000Y-311230001D01*
X130872000Y-310579999D01*
X130873204Y-310555495D01*
X130876804Y-310531227D01*
X130882765Y-310507428D01*
X130891030Y-310484329D01*
X130901520Y-310462150D01*
X130914132Y-310441107D01*
X130928747Y-310421401D01*
X130945223Y-310403223D01*
X130963401Y-310386747D01*
X130983107Y-310372132D01*
X131004150Y-310359520D01*
X131026329Y-310349030D01*
X131049428Y-310340765D01*
X131073227Y-310334804D01*
X131097495Y-310331204D01*
X131121999Y-310330000D01*
X132022001Y-310330000D01*
X132046505Y-310331204D01*
G37*
G36*
X134078505Y-308290204D02*
G01*
X134102773Y-308293804D01*
X134126572Y-308299765D01*
X134149671Y-308308030D01*
X134171850Y-308318520D01*
X134192893Y-308331132D01*
X134212599Y-308345747D01*
X134230777Y-308362223D01*
X134247253Y-308380401D01*
X134261868Y-308400107D01*
X134274480Y-308421150D01*
X134284970Y-308443329D01*
X134293235Y-308466428D01*
X134299196Y-308490227D01*
X134302796Y-308514495D01*
X134304000Y-308538999D01*
X134304000Y-309189001D01*
X134302796Y-309213505D01*
X134299196Y-309237773D01*
X134293235Y-309261572D01*
X134284970Y-309284671D01*
X134274480Y-309306850D01*
X134261868Y-309327893D01*
X134247253Y-309347599D01*
X134230777Y-309365777D01*
X134212599Y-309382253D01*
X134192893Y-309396868D01*
X134171850Y-309409480D01*
X134149671Y-309419970D01*
X134126572Y-309428235D01*
X134102773Y-309434196D01*
X134078505Y-309437796D01*
X134054001Y-309439000D01*
X133153999Y-309439000D01*
X133129495Y-309437796D01*
X133105227Y-309434196D01*
X133081428Y-309428235D01*
X133058329Y-309419970D01*
X133036150Y-309409480D01*
X133015107Y-309396868D01*
X132995401Y-309382253D01*
X132977223Y-309365777D01*
X132960747Y-309347599D01*
X132946132Y-309327893D01*
X132933520Y-309306850D01*
X132923030Y-309284671D01*
X132914765Y-309261572D01*
X132908804Y-309237773D01*
X132905204Y-309213505D01*
X132904000Y-309189001D01*
X132904000Y-308538999D01*
X132905204Y-308514495D01*
X132908804Y-308490227D01*
X132914765Y-308466428D01*
X132923030Y-308443329D01*
X132933520Y-308421150D01*
X132946132Y-308400107D01*
X132960747Y-308380401D01*
X132977223Y-308362223D01*
X132995401Y-308345747D01*
X133015107Y-308331132D01*
X133036150Y-308318520D01*
X133058329Y-308308030D01*
X133081428Y-308299765D01*
X133105227Y-308293804D01*
X133129495Y-308290204D01*
X133153999Y-308289000D01*
X134054001Y-308289000D01*
X134078505Y-308290204D01*
G37*
G36*
X134078505Y-310340204D02*
G01*
X134102773Y-310343804D01*
X134126572Y-310349765D01*
X134149671Y-310358030D01*
X134171850Y-310368520D01*
X134192893Y-310381132D01*
X134212599Y-310395747D01*
X134230777Y-310412223D01*
X134247253Y-310430401D01*
X134261868Y-310450107D01*
X134274480Y-310471150D01*
X134284970Y-310493329D01*
X134293235Y-310516428D01*
X134299196Y-310540227D01*
X134302796Y-310564495D01*
X134304000Y-310588999D01*
X134304000Y-311239001D01*
X134302796Y-311263505D01*
X134299196Y-311287773D01*
X134293235Y-311311572D01*
X134284970Y-311334671D01*
X134274480Y-311356850D01*
X134261868Y-311377893D01*
X134247253Y-311397599D01*
X134230777Y-311415777D01*
X134212599Y-311432253D01*
X134192893Y-311446868D01*
X134171850Y-311459480D01*
X134149671Y-311469970D01*
X134126572Y-311478235D01*
X134102773Y-311484196D01*
X134078505Y-311487796D01*
X134054001Y-311489000D01*
X133153999Y-311489000D01*
X133129495Y-311487796D01*
X133105227Y-311484196D01*
X133081428Y-311478235D01*
X133058329Y-311469970D01*
X133036150Y-311459480D01*
X133015107Y-311446868D01*
X132995401Y-311432253D01*
X132977223Y-311415777D01*
X132960747Y-311397599D01*
X132946132Y-311377893D01*
X132933520Y-311356850D01*
X132923030Y-311334671D01*
X132914765Y-311311572D01*
X132908804Y-311287773D01*
X132905204Y-311263505D01*
X132904000Y-311239001D01*
X132904000Y-310588999D01*
X132905204Y-310564495D01*
X132908804Y-310540227D01*
X132914765Y-310516428D01*
X132923030Y-310493329D01*
X132933520Y-310471150D01*
X132946132Y-310450107D01*
X132960747Y-310430401D01*
X132977223Y-310412223D01*
X132995401Y-310395747D01*
X133015107Y-310381132D01*
X133036150Y-310368520D01*
X133058329Y-310358030D01*
X133081428Y-310349765D01*
X133105227Y-310343804D01*
X133129495Y-310340204D01*
X133153999Y-310339000D01*
X134054001Y-310339000D01*
X134078505Y-310340204D01*
G37*
G36*
X119854505Y-308272204D02*
G01*
X119878773Y-308275804D01*
X119902572Y-308281765D01*
X119925671Y-308290030D01*
X119947850Y-308300520D01*
X119968893Y-308313132D01*
X119988599Y-308327747D01*
X120006777Y-308344223D01*
X120023253Y-308362401D01*
X120037868Y-308382107D01*
X120050480Y-308403150D01*
X120060970Y-308425329D01*
X120069235Y-308448428D01*
X120075196Y-308472227D01*
X120078796Y-308496495D01*
X120080000Y-308520999D01*
X120080000Y-309171001D01*
X120078796Y-309195505D01*
X120075196Y-309219773D01*
X120069235Y-309243572D01*
X120060970Y-309266671D01*
X120050480Y-309288850D01*
X120037868Y-309309893D01*
X120023253Y-309329599D01*
X120006777Y-309347777D01*
X119988599Y-309364253D01*
X119968893Y-309378868D01*
X119947850Y-309391480D01*
X119925671Y-309401970D01*
X119902572Y-309410235D01*
X119878773Y-309416196D01*
X119854505Y-309419796D01*
X119830001Y-309421000D01*
X118929999Y-309421000D01*
X118905495Y-309419796D01*
X118881227Y-309416196D01*
X118857428Y-309410235D01*
X118834329Y-309401970D01*
X118812150Y-309391480D01*
X118791107Y-309378868D01*
X118771401Y-309364253D01*
X118753223Y-309347777D01*
X118736747Y-309329599D01*
X118722132Y-309309893D01*
X118709520Y-309288850D01*
X118699030Y-309266671D01*
X118690765Y-309243572D01*
X118684804Y-309219773D01*
X118681204Y-309195505D01*
X118680000Y-309171001D01*
X118680000Y-308520999D01*
X118681204Y-308496495D01*
X118684804Y-308472227D01*
X118690765Y-308448428D01*
X118699030Y-308425329D01*
X118709520Y-308403150D01*
X118722132Y-308382107D01*
X118736747Y-308362401D01*
X118753223Y-308344223D01*
X118771401Y-308327747D01*
X118791107Y-308313132D01*
X118812150Y-308300520D01*
X118834329Y-308290030D01*
X118857428Y-308281765D01*
X118881227Y-308275804D01*
X118905495Y-308272204D01*
X118929999Y-308271000D01*
X119830001Y-308271000D01*
X119854505Y-308272204D01*
G37*
G36*
X119854505Y-310322204D02*
G01*
X119878773Y-310325804D01*
X119902572Y-310331765D01*
X119925671Y-310340030D01*
X119947850Y-310350520D01*
X119968893Y-310363132D01*
X119988599Y-310377747D01*
X120006777Y-310394223D01*
X120023253Y-310412401D01*
X120037868Y-310432107D01*
X120050480Y-310453150D01*
X120060970Y-310475329D01*
X120069235Y-310498428D01*
X120075196Y-310522227D01*
X120078796Y-310546495D01*
X120080000Y-310570999D01*
X120080000Y-311221001D01*
X120078796Y-311245505D01*
X120075196Y-311269773D01*
X120069235Y-311293572D01*
X120060970Y-311316671D01*
X120050480Y-311338850D01*
X120037868Y-311359893D01*
X120023253Y-311379599D01*
X120006777Y-311397777D01*
X119988599Y-311414253D01*
X119968893Y-311428868D01*
X119947850Y-311441480D01*
X119925671Y-311451970D01*
X119902572Y-311460235D01*
X119878773Y-311466196D01*
X119854505Y-311469796D01*
X119830001Y-311471000D01*
X118929999Y-311471000D01*
X118905495Y-311469796D01*
X118881227Y-311466196D01*
X118857428Y-311460235D01*
X118834329Y-311451970D01*
X118812150Y-311441480D01*
X118791107Y-311428868D01*
X118771401Y-311414253D01*
X118753223Y-311397777D01*
X118736747Y-311379599D01*
X118722132Y-311359893D01*
X118709520Y-311338850D01*
X118699030Y-311316671D01*
X118690765Y-311293572D01*
X118684804Y-311269773D01*
X118681204Y-311245505D01*
X118680000Y-311221001D01*
X118680000Y-310570999D01*
X118681204Y-310546495D01*
X118684804Y-310522227D01*
X118690765Y-310498428D01*
X118699030Y-310475329D01*
X118709520Y-310453150D01*
X118722132Y-310432107D01*
X118736747Y-310412401D01*
X118753223Y-310394223D01*
X118771401Y-310377747D01*
X118791107Y-310363132D01*
X118812150Y-310350520D01*
X118834329Y-310340030D01*
X118857428Y-310331765D01*
X118881227Y-310325804D01*
X118905495Y-310322204D01*
X118929999Y-310321000D01*
X119830001Y-310321000D01*
X119854505Y-310322204D01*
G37*
G36*
X121886505Y-308272204D02*
G01*
X121910773Y-308275804D01*
X121934572Y-308281765D01*
X121957671Y-308290030D01*
X121979850Y-308300520D01*
X122000893Y-308313132D01*
X122020599Y-308327747D01*
X122038777Y-308344223D01*
X122055253Y-308362401D01*
X122069868Y-308382107D01*
X122082480Y-308403150D01*
X122092970Y-308425329D01*
X122101235Y-308448428D01*
X122107196Y-308472227D01*
X122110796Y-308496495D01*
X122112000Y-308520999D01*
X122112000Y-309171001D01*
X122110796Y-309195505D01*
X122107196Y-309219773D01*
X122101235Y-309243572D01*
X122092970Y-309266671D01*
X122082480Y-309288850D01*
X122069868Y-309309893D01*
X122055253Y-309329599D01*
X122038777Y-309347777D01*
X122020599Y-309364253D01*
X122000893Y-309378868D01*
X121979850Y-309391480D01*
X121957671Y-309401970D01*
X121934572Y-309410235D01*
X121910773Y-309416196D01*
X121886505Y-309419796D01*
X121862001Y-309421000D01*
X120961999Y-309421000D01*
X120937495Y-309419796D01*
X120913227Y-309416196D01*
X120889428Y-309410235D01*
X120866329Y-309401970D01*
X120844150Y-309391480D01*
X120823107Y-309378868D01*
X120803401Y-309364253D01*
X120785223Y-309347777D01*
X120768747Y-309329599D01*
X120754132Y-309309893D01*
X120741520Y-309288850D01*
X120731030Y-309266671D01*
X120722765Y-309243572D01*
X120716804Y-309219773D01*
X120713204Y-309195505D01*
X120712000Y-309171001D01*
X120712000Y-308520999D01*
X120713204Y-308496495D01*
X120716804Y-308472227D01*
X120722765Y-308448428D01*
X120731030Y-308425329D01*
X120741520Y-308403150D01*
X120754132Y-308382107D01*
X120768747Y-308362401D01*
X120785223Y-308344223D01*
X120803401Y-308327747D01*
X120823107Y-308313132D01*
X120844150Y-308300520D01*
X120866329Y-308290030D01*
X120889428Y-308281765D01*
X120913227Y-308275804D01*
X120937495Y-308272204D01*
X120961999Y-308271000D01*
X121862001Y-308271000D01*
X121886505Y-308272204D01*
G37*
G36*
X121886505Y-310322204D02*
G01*
X121910773Y-310325804D01*
X121934572Y-310331765D01*
X121957671Y-310340030D01*
X121979850Y-310350520D01*
X122000893Y-310363132D01*
X122020599Y-310377747D01*
X122038777Y-310394223D01*
X122055253Y-310412401D01*
X122069868Y-310432107D01*
X122082480Y-310453150D01*
X122092970Y-310475329D01*
X122101235Y-310498428D01*
X122107196Y-310522227D01*
X122110796Y-310546495D01*
X122112000Y-310570999D01*
X122112000Y-311221001D01*
X122110796Y-311245505D01*
X122107196Y-311269773D01*
X122101235Y-311293572D01*
X122092970Y-311316671D01*
X122082480Y-311338850D01*
X122069868Y-311359893D01*
X122055253Y-311379599D01*
X122038777Y-311397777D01*
X122020599Y-311414253D01*
X122000893Y-311428868D01*
X121979850Y-311441480D01*
X121957671Y-311451970D01*
X121934572Y-311460235D01*
X121910773Y-311466196D01*
X121886505Y-311469796D01*
X121862001Y-311471000D01*
X120961999Y-311471000D01*
X120937495Y-311469796D01*
X120913227Y-311466196D01*
X120889428Y-311460235D01*
X120866329Y-311451970D01*
X120844150Y-311441480D01*
X120823107Y-311428868D01*
X120803401Y-311414253D01*
X120785223Y-311397777D01*
X120768747Y-311379599D01*
X120754132Y-311359893D01*
X120741520Y-311338850D01*
X120731030Y-311316671D01*
X120722765Y-311293572D01*
X120716804Y-311269773D01*
X120713204Y-311245505D01*
X120712000Y-311221001D01*
X120712000Y-310570999D01*
X120713204Y-310546495D01*
X120716804Y-310522227D01*
X120722765Y-310498428D01*
X120731030Y-310475329D01*
X120741520Y-310453150D01*
X120754132Y-310432107D01*
X120768747Y-310412401D01*
X120785223Y-310394223D01*
X120803401Y-310377747D01*
X120823107Y-310363132D01*
X120844150Y-310350520D01*
X120866329Y-310340030D01*
X120889428Y-310331765D01*
X120913227Y-310325804D01*
X120937495Y-310322204D01*
X120961999Y-310321000D01*
X121862001Y-310321000D01*
X121886505Y-310322204D01*
G37*
G36*
X107662505Y-308281204D02*
G01*
X107686773Y-308284804D01*
X107710572Y-308290765D01*
X107733671Y-308299030D01*
X107755850Y-308309520D01*
X107776893Y-308322132D01*
X107796599Y-308336747D01*
X107814777Y-308353223D01*
X107831253Y-308371401D01*
X107845868Y-308391107D01*
X107858480Y-308412150D01*
X107868970Y-308434329D01*
X107877235Y-308457428D01*
X107883196Y-308481227D01*
X107886796Y-308505495D01*
X107888000Y-308529999D01*
X107888000Y-309180001D01*
X107886796Y-309204505D01*
X107883196Y-309228773D01*
X107877235Y-309252572D01*
X107868970Y-309275671D01*
X107858480Y-309297850D01*
X107845868Y-309318893D01*
X107831253Y-309338599D01*
X107814777Y-309356777D01*
X107796599Y-309373253D01*
X107776893Y-309387868D01*
X107755850Y-309400480D01*
X107733671Y-309410970D01*
X107710572Y-309419235D01*
X107686773Y-309425196D01*
X107662505Y-309428796D01*
X107638001Y-309430000D01*
X106737999Y-309430000D01*
X106713495Y-309428796D01*
X106689227Y-309425196D01*
X106665428Y-309419235D01*
X106642329Y-309410970D01*
X106620150Y-309400480D01*
X106599107Y-309387868D01*
X106579401Y-309373253D01*
X106561223Y-309356777D01*
X106544747Y-309338599D01*
X106530132Y-309318893D01*
X106517520Y-309297850D01*
X106507030Y-309275671D01*
X106498765Y-309252572D01*
X106492804Y-309228773D01*
X106489204Y-309204505D01*
X106488000Y-309180001D01*
X106488000Y-308529999D01*
X106489204Y-308505495D01*
X106492804Y-308481227D01*
X106498765Y-308457428D01*
X106507030Y-308434329D01*
X106517520Y-308412150D01*
X106530132Y-308391107D01*
X106544747Y-308371401D01*
X106561223Y-308353223D01*
X106579401Y-308336747D01*
X106599107Y-308322132D01*
X106620150Y-308309520D01*
X106642329Y-308299030D01*
X106665428Y-308290765D01*
X106689227Y-308284804D01*
X106713495Y-308281204D01*
X106737999Y-308280000D01*
X107638001Y-308280000D01*
X107662505Y-308281204D01*
G37*
G36*
X107662505Y-310331204D02*
G01*
X107686773Y-310334804D01*
X107710572Y-310340765D01*
X107733671Y-310349030D01*
X107755850Y-310359520D01*
X107776893Y-310372132D01*
X107796599Y-310386747D01*
X107814777Y-310403223D01*
X107831253Y-310421401D01*
X107845868Y-310441107D01*
X107858480Y-310462150D01*
X107868970Y-310484329D01*
X107877235Y-310507428D01*
X107883196Y-310531227D01*
X107886796Y-310555495D01*
X107888000Y-310579999D01*
X107888000Y-311230001D01*
X107886796Y-311254505D01*
X107883196Y-311278773D01*
X107877235Y-311302572D01*
X107868970Y-311325671D01*
X107858480Y-311347850D01*
X107845868Y-311368893D01*
X107831253Y-311388599D01*
X107814777Y-311406777D01*
X107796599Y-311423253D01*
X107776893Y-311437868D01*
X107755850Y-311450480D01*
X107733671Y-311460970D01*
X107710572Y-311469235D01*
X107686773Y-311475196D01*
X107662505Y-311478796D01*
X107638001Y-311480000D01*
X106737999Y-311480000D01*
X106713495Y-311478796D01*
X106689227Y-311475196D01*
X106665428Y-311469235D01*
X106642329Y-311460970D01*
X106620150Y-311450480D01*
X106599107Y-311437868D01*
X106579401Y-311423253D01*
X106561223Y-311406777D01*
X106544747Y-311388599D01*
X106530132Y-311368893D01*
X106517520Y-311347850D01*
X106507030Y-311325671D01*
X106498765Y-311302572D01*
X106492804Y-311278773D01*
X106489204Y-311254505D01*
X106488000Y-311230001D01*
X106488000Y-310579999D01*
X106489204Y-310555495D01*
X106492804Y-310531227D01*
X106498765Y-310507428D01*
X106507030Y-310484329D01*
X106517520Y-310462150D01*
X106530132Y-310441107D01*
X106544747Y-310421401D01*
X106561223Y-310403223D01*
X106579401Y-310386747D01*
X106599107Y-310372132D01*
X106620150Y-310359520D01*
X106642329Y-310349030D01*
X106665428Y-310340765D01*
X106689227Y-310334804D01*
X106713495Y-310331204D01*
X106737999Y-310330000D01*
X107638001Y-310330000D01*
X107662505Y-310331204D01*
G37*
G36*
X109694505Y-308290204D02*
G01*
X109718773Y-308293804D01*
X109742572Y-308299765D01*
X109765671Y-308308030D01*
X109787850Y-308318520D01*
X109808893Y-308331132D01*
X109828599Y-308345747D01*
X109846777Y-308362223D01*
X109863253Y-308380401D01*
X109877868Y-308400107D01*
X109890480Y-308421150D01*
X109900970Y-308443329D01*
X109909235Y-308466428D01*
X109915196Y-308490227D01*
X109918796Y-308514495D01*
X109920000Y-308538999D01*
X109920000Y-309189001D01*
X109918796Y-309213505D01*
X109915196Y-309237773D01*
X109909235Y-309261572D01*
X109900970Y-309284671D01*
X109890480Y-309306850D01*
X109877868Y-309327893D01*
X109863253Y-309347599D01*
X109846777Y-309365777D01*
X109828599Y-309382253D01*
X109808893Y-309396868D01*
X109787850Y-309409480D01*
X109765671Y-309419970D01*
X109742572Y-309428235D01*
X109718773Y-309434196D01*
X109694505Y-309437796D01*
X109670001Y-309439000D01*
X108769999Y-309439000D01*
X108745495Y-309437796D01*
X108721227Y-309434196D01*
X108697428Y-309428235D01*
X108674329Y-309419970D01*
X108652150Y-309409480D01*
X108631107Y-309396868D01*
X108611401Y-309382253D01*
X108593223Y-309365777D01*
X108576747Y-309347599D01*
X108562132Y-309327893D01*
X108549520Y-309306850D01*
X108539030Y-309284671D01*
X108530765Y-309261572D01*
X108524804Y-309237773D01*
X108521204Y-309213505D01*
X108520000Y-309189001D01*
X108520000Y-308538999D01*
X108521204Y-308514495D01*
X108524804Y-308490227D01*
X108530765Y-308466428D01*
X108539030Y-308443329D01*
X108549520Y-308421150D01*
X108562132Y-308400107D01*
X108576747Y-308380401D01*
X108593223Y-308362223D01*
X108611401Y-308345747D01*
X108631107Y-308331132D01*
X108652150Y-308318520D01*
X108674329Y-308308030D01*
X108697428Y-308299765D01*
X108721227Y-308293804D01*
X108745495Y-308290204D01*
X108769999Y-308289000D01*
X109670001Y-308289000D01*
X109694505Y-308290204D01*
G37*
G36*
X109694505Y-310340204D02*
G01*
X109718773Y-310343804D01*
X109742572Y-310349765D01*
X109765671Y-310358030D01*
X109787850Y-310368520D01*
X109808893Y-310381132D01*
X109828599Y-310395747D01*
X109846777Y-310412223D01*
X109863253Y-310430401D01*
X109877868Y-310450107D01*
X109890480Y-310471150D01*
X109900970Y-310493329D01*
X109909235Y-310516428D01*
X109915196Y-310540227D01*
X109918796Y-310564495D01*
X109920000Y-310588999D01*
X109920000Y-311239001D01*
X109918796Y-311263505D01*
X109915196Y-311287773D01*
X109909235Y-311311572D01*
X109900970Y-311334671D01*
X109890480Y-311356850D01*
X109877868Y-311377893D01*
X109863253Y-311397599D01*
X109846777Y-311415777D01*
X109828599Y-311432253D01*
X109808893Y-311446868D01*
X109787850Y-311459480D01*
X109765671Y-311469970D01*
X109742572Y-311478235D01*
X109718773Y-311484196D01*
X109694505Y-311487796D01*
X109670001Y-311489000D01*
X108769999Y-311489000D01*
X108745495Y-311487796D01*
X108721227Y-311484196D01*
X108697428Y-311478235D01*
X108674329Y-311469970D01*
X108652150Y-311459480D01*
X108631107Y-311446868D01*
X108611401Y-311432253D01*
X108593223Y-311415777D01*
X108576747Y-311397599D01*
X108562132Y-311377893D01*
X108549520Y-311356850D01*
X108539030Y-311334671D01*
X108530765Y-311311572D01*
X108524804Y-311287773D01*
X108521204Y-311263505D01*
X108520000Y-311239001D01*
X108520000Y-310588999D01*
X108521204Y-310564495D01*
X108524804Y-310540227D01*
X108530765Y-310516428D01*
X108539030Y-310493329D01*
X108549520Y-310471150D01*
X108562132Y-310450107D01*
X108576747Y-310430401D01*
X108593223Y-310412223D01*
X108611401Y-310395747D01*
X108631107Y-310381132D01*
X108652150Y-310368520D01*
X108674329Y-310358030D01*
X108697428Y-310349765D01*
X108721227Y-310343804D01*
X108745495Y-310340204D01*
X108769999Y-310339000D01*
X109670001Y-310339000D01*
X109694505Y-310340204D01*
G37*
G36*
X95470505Y-309043204D02*
G01*
X95494773Y-309046804D01*
X95518572Y-309052765D01*
X95541671Y-309061030D01*
X95563850Y-309071520D01*
X95584893Y-309084132D01*
X95604599Y-309098747D01*
X95622777Y-309115223D01*
X95639253Y-309133401D01*
X95653868Y-309153107D01*
X95666480Y-309174150D01*
X95676970Y-309196329D01*
X95685235Y-309219428D01*
X95691196Y-309243227D01*
X95694796Y-309267495D01*
X95696000Y-309291999D01*
X95696000Y-309942001D01*
X95694796Y-309966505D01*
X95691196Y-309990773D01*
X95685235Y-310014572D01*
X95676970Y-310037671D01*
X95666480Y-310059850D01*
X95653868Y-310080893D01*
X95639253Y-310100599D01*
X95622777Y-310118777D01*
X95604599Y-310135253D01*
X95584893Y-310149868D01*
X95563850Y-310162480D01*
X95541671Y-310172970D01*
X95518572Y-310181235D01*
X95494773Y-310187196D01*
X95470505Y-310190796D01*
X95446001Y-310192000D01*
X94545999Y-310192000D01*
X94521495Y-310190796D01*
X94497227Y-310187196D01*
X94473428Y-310181235D01*
X94450329Y-310172970D01*
X94428150Y-310162480D01*
X94407107Y-310149868D01*
X94387401Y-310135253D01*
X94369223Y-310118777D01*
X94352747Y-310100599D01*
X94338132Y-310080893D01*
X94325520Y-310059850D01*
X94315030Y-310037671D01*
X94306765Y-310014572D01*
X94300804Y-309990773D01*
X94297204Y-309966505D01*
X94296000Y-309942001D01*
X94296000Y-309291999D01*
X94297204Y-309267495D01*
X94300804Y-309243227D01*
X94306765Y-309219428D01*
X94315030Y-309196329D01*
X94325520Y-309174150D01*
X94338132Y-309153107D01*
X94352747Y-309133401D01*
X94369223Y-309115223D01*
X94387401Y-309098747D01*
X94407107Y-309084132D01*
X94428150Y-309071520D01*
X94450329Y-309061030D01*
X94473428Y-309052765D01*
X94497227Y-309046804D01*
X94521495Y-309043204D01*
X94545999Y-309042000D01*
X95446001Y-309042000D01*
X95470505Y-309043204D01*
G37*
G36*
X95470505Y-311093204D02*
G01*
X95494773Y-311096804D01*
X95518572Y-311102765D01*
X95541671Y-311111030D01*
X95563850Y-311121520D01*
X95584893Y-311134132D01*
X95604599Y-311148747D01*
X95622777Y-311165223D01*
X95639253Y-311183401D01*
X95653868Y-311203107D01*
X95666480Y-311224150D01*
X95676970Y-311246329D01*
X95685235Y-311269428D01*
X95691196Y-311293227D01*
X95694796Y-311317495D01*
X95696000Y-311341999D01*
X95696000Y-311992001D01*
X95694796Y-312016505D01*
X95691196Y-312040773D01*
X95685235Y-312064572D01*
X95676970Y-312087671D01*
X95666480Y-312109850D01*
X95653868Y-312130893D01*
X95639253Y-312150599D01*
X95622777Y-312168777D01*
X95604599Y-312185253D01*
X95584893Y-312199868D01*
X95563850Y-312212480D01*
X95541671Y-312222970D01*
X95518572Y-312231235D01*
X95494773Y-312237196D01*
X95470505Y-312240796D01*
X95446001Y-312242000D01*
X94545999Y-312242000D01*
X94521495Y-312240796D01*
X94497227Y-312237196D01*
X94473428Y-312231235D01*
X94450329Y-312222970D01*
X94428150Y-312212480D01*
X94407107Y-312199868D01*
X94387401Y-312185253D01*
X94369223Y-312168777D01*
X94352747Y-312150599D01*
X94338132Y-312130893D01*
X94325520Y-312109850D01*
X94315030Y-312087671D01*
X94306765Y-312064572D01*
X94300804Y-312040773D01*
X94297204Y-312016505D01*
X94296000Y-311992001D01*
X94296000Y-311341999D01*
X94297204Y-311317495D01*
X94300804Y-311293227D01*
X94306765Y-311269428D01*
X94315030Y-311246329D01*
X94325520Y-311224150D01*
X94338132Y-311203107D01*
X94352747Y-311183401D01*
X94369223Y-311165223D01*
X94387401Y-311148747D01*
X94407107Y-311134132D01*
X94428150Y-311121520D01*
X94450329Y-311111030D01*
X94473428Y-311102765D01*
X94497227Y-311096804D01*
X94521495Y-311093204D01*
X94545999Y-311092000D01*
X95446001Y-311092000D01*
X95470505Y-311093204D01*
G37*
D17*
X149737000Y-303686000D03*
X149087000Y-303686000D03*
X148437000Y-303686000D03*
X147787000Y-303686000D03*
X147137000Y-303686000D03*
X146487000Y-303686000D03*
X145837000Y-303686000D03*
X145187000Y-303686000D03*
X144537000Y-303686000D03*
X143887000Y-303686000D03*
X143887000Y-297786000D03*
X144537000Y-297786000D03*
X145187000Y-297786000D03*
X145837000Y-297786000D03*
X146487000Y-297786000D03*
X147137000Y-297786000D03*
X147787000Y-297786000D03*
X148437000Y-297786000D03*
X149087000Y-297786000D03*
X149737000Y-297786000D03*
X136529000Y-303686000D03*
X135879000Y-303686000D03*
X135229000Y-303686000D03*
X134579000Y-303686000D03*
X133929000Y-303686000D03*
X133279000Y-303686000D03*
X132629000Y-303686000D03*
X131979000Y-303686000D03*
X131329000Y-303686000D03*
X130679000Y-303686000D03*
X130679000Y-297786000D03*
X131329000Y-297786000D03*
X131979000Y-297786000D03*
X132629000Y-297786000D03*
X133279000Y-297786000D03*
X133929000Y-297786000D03*
X134579000Y-297786000D03*
X135229000Y-297786000D03*
X135879000Y-297786000D03*
X136529000Y-297786000D03*
D18*
X147742000Y-215154000D03*
X147742000Y-215654000D03*
X147742000Y-216154000D03*
X147742000Y-216654000D03*
X147742000Y-217154000D03*
X143342000Y-217154000D03*
X143342000Y-216654000D03*
X143342000Y-216154000D03*
X143342000Y-215654000D03*
X143342000Y-215154000D03*
D19*
X121148000Y-317720360D03*
X120498000Y-317720360D03*
X119848000Y-317720360D03*
X119198000Y-317720360D03*
X119198000Y-313320360D03*
X119848000Y-313320360D03*
X120498000Y-313320360D03*
X121148000Y-313320360D03*
X96692000Y-317720360D03*
X96042000Y-317720360D03*
X95392000Y-317720360D03*
X94742000Y-317720360D03*
X94742000Y-313320360D03*
X95392000Y-313320360D03*
X96042000Y-313320360D03*
X96692000Y-313320360D03*
X169672000Y-317836000D03*
X169022000Y-317836000D03*
X168372000Y-317836000D03*
X167722000Y-317836000D03*
X167722000Y-313436000D03*
X168372000Y-313436000D03*
X169022000Y-313436000D03*
X169672000Y-313436000D03*
X182331000Y-317836000D03*
X181681000Y-317836000D03*
X181031000Y-317836000D03*
X180381000Y-317836000D03*
X180381000Y-313436000D03*
X181031000Y-313436000D03*
X181681000Y-313436000D03*
X182331000Y-313436000D03*
X108920000Y-317720360D03*
X108270000Y-317720360D03*
X107620000Y-317720360D03*
X106970000Y-317720360D03*
X106970000Y-313320360D03*
X107620000Y-313320360D03*
X108270000Y-313320360D03*
X108920000Y-313320360D03*
X145604000Y-317720360D03*
X144954000Y-317720360D03*
X144304000Y-317720360D03*
X143654000Y-317720360D03*
X143654000Y-313320360D03*
X144304000Y-313320360D03*
X144954000Y-313320360D03*
X145604000Y-313320360D03*
X133376000Y-317720360D03*
X132726000Y-317720360D03*
X132076000Y-317720360D03*
X131426000Y-317720360D03*
X131426000Y-313320360D03*
X132076000Y-313320360D03*
X132726000Y-313320360D03*
X133376000Y-313320360D03*
X157832000Y-317720360D03*
X157182000Y-317720360D03*
X156532000Y-317720360D03*
X155882000Y-317720360D03*
X155882000Y-313320360D03*
X156532000Y-313320360D03*
X157182000Y-313320360D03*
X157832000Y-313320360D03*
M02*
