M48
; DRILL file {KiCad (5.1.5)-3} date 07/04/20 05:03:47
; FORMAT={-:-/ absolute / inch / decimal}
; #@! TF.CreationDate,2020-07-04T05:03:47+02:00
; #@! TF.GenerationSoftware,Kicad,Pcbnew,(5.1.5)-3
; #@! TF.FileFunction,NonPlated,1,2,NPTH
FMAT,2
INCH
T1C0.0590
T2C0.1570
%
G90
G05
T1
X5.7055Y-7.4803
X4.1307Y-8.2677
X8.8551Y-7.4803
X9.2551Y-7.4803
X4.1307Y-7.4803
X4.5307Y-7.4803
X6.4929Y-7.4803
X6.8929Y-7.4803
X7.2803Y-8.2677
X7.6803Y-8.2677
X4.9181Y-8.2677
X5.3181Y-8.2677
X5.7055Y-8.2677
X6.1055Y-8.2677
X7.2803Y-7.4803
X7.6803Y-7.4803
X3.3433Y-7.4803
X3.7433Y-7.4803
X6.4929Y-8.2677
X6.8929Y-8.2677
X6.1055Y-7.4803
X3.3433Y-8.2677
X3.7433Y-8.2677
X4.5307Y-8.2677
X8.8551Y-8.2677
X9.2551Y-8.2677
X8.0677Y-7.4803
X8.4677Y-7.4803
X8.0677Y-8.2677
X8.4677Y-8.2677
X4.9181Y-7.4803
X5.3181Y-7.4803
T2
X9.0551Y-7.4803
X4.3307Y-7.4803
X6.6929Y-7.4803
X7.4803Y-8.2677
X5.1181Y-8.2677
X5.9055Y-8.2677
X7.4803Y-7.4803
X3.5433Y-7.4803
X6.6929Y-8.2677
X5.9055Y-7.4803
X3.5433Y-8.2677
X4.3307Y-8.2677
X9.0551Y-8.2677
X8.2677Y-7.4803
X8.2677Y-8.2677
X5.1181Y-7.4803
T0
M30
