G04 #@! TF.GenerationSoftware,KiCad,Pcbnew,(5.1.5)-3*
G04 #@! TF.CreationDate,2020-07-04T05:03:46+02:00*
G04 #@! TF.ProjectId,buttonboard,62757474-6f6e-4626-9f61-72642e6b6963,rev?*
G04 #@! TF.SameCoordinates,Original*
G04 #@! TF.FileFunction,Legend,Bot*
G04 #@! TF.FilePolarity,Positive*
%FSLAX46Y46*%
G04 Gerber Fmt 4.6, Leading zero omitted, Abs format (unit mm)*
G04 Created by KiCad (PCBNEW (5.1.5)-3) date 2020-07-04 05:03:46*
%MOMM*%
%LPD*%
G04 APERTURE LIST*
%ADD10C,0.120000*%
%ADD11C,0.150000*%
G04 APERTURE END LIST*
D10*
X88670000Y-179000000D02*
X88670000Y-180330000D01*
X88670000Y-180330000D02*
X90000000Y-180330000D01*
X88670000Y-177730000D02*
X91270000Y-177730000D01*
X91270000Y-177730000D02*
X91270000Y-180330000D01*
X91270000Y-180330000D02*
X121810000Y-180330000D01*
X121810000Y-175130000D02*
X121810000Y-180330000D01*
X88670000Y-175130000D02*
X121810000Y-175130000D01*
X88670000Y-175130000D02*
X88670000Y-177730000D01*
X144710000Y-194738748D02*
X144710000Y-195261252D01*
X143290000Y-194738748D02*
X143290000Y-195261252D01*
X144710000Y-214763748D02*
X144710000Y-215286252D01*
X143290000Y-214763748D02*
X143290000Y-215286252D01*
X84710000Y-194738748D02*
X84710000Y-195261252D01*
X83290000Y-194738748D02*
X83290000Y-195261252D01*
X104710000Y-214763748D02*
X104710000Y-215286252D01*
X103290000Y-214763748D02*
X103290000Y-215286252D01*
X124710000Y-194738748D02*
X124710000Y-195261252D01*
X123290000Y-194738748D02*
X123290000Y-195261252D01*
X84710000Y-214763748D02*
X84710000Y-215286252D01*
X83290000Y-214763748D02*
X83290000Y-215286252D01*
X104710000Y-194713748D02*
X104710000Y-195236252D01*
X103290000Y-194713748D02*
X103290000Y-195236252D01*
X124710000Y-214763748D02*
X124710000Y-215286252D01*
X123290000Y-214763748D02*
X123290000Y-215286252D01*
X164710000Y-194763748D02*
X164710000Y-195286252D01*
X163290000Y-194763748D02*
X163290000Y-195286252D01*
X204710000Y-214763748D02*
X204710000Y-215286252D01*
X203290000Y-214763748D02*
X203290000Y-215286252D01*
X184710000Y-214763748D02*
X184710000Y-215286252D01*
X183290000Y-214763748D02*
X183290000Y-215286252D01*
X164710000Y-214763748D02*
X164710000Y-215286252D01*
X163290000Y-214763748D02*
X163290000Y-215286252D01*
X224710000Y-214763748D02*
X224710000Y-215286252D01*
X223290000Y-214763748D02*
X223290000Y-215286252D01*
X224710000Y-194713748D02*
X224710000Y-195236252D01*
X223290000Y-194713748D02*
X223290000Y-195236252D01*
X184710000Y-194713748D02*
X184710000Y-195236252D01*
X183290000Y-194713748D02*
X183290000Y-195236252D01*
X204710000Y-194713748D02*
X204710000Y-195236252D01*
X203290000Y-194713748D02*
X203290000Y-195236252D01*
D11*
X86682380Y-177396666D02*
X87396666Y-177396666D01*
X87539523Y-177349047D01*
X87634761Y-177253809D01*
X87682380Y-177110952D01*
X87682380Y-177015714D01*
X86777619Y-177825238D02*
X86730000Y-177872857D01*
X86682380Y-177968095D01*
X86682380Y-178206190D01*
X86730000Y-178301428D01*
X86777619Y-178349047D01*
X86872857Y-178396666D01*
X86968095Y-178396666D01*
X87110952Y-178349047D01*
X87682380Y-177777619D01*
X87682380Y-178396666D01*
X142707142Y-194357142D02*
X142754761Y-194309523D01*
X142802380Y-194166666D01*
X142802380Y-194071428D01*
X142754761Y-193928571D01*
X142659523Y-193833333D01*
X142564285Y-193785714D01*
X142373809Y-193738095D01*
X142230952Y-193738095D01*
X142040476Y-193785714D01*
X141945238Y-193833333D01*
X141850000Y-193928571D01*
X141802380Y-194071428D01*
X141802380Y-194166666D01*
X141850000Y-194309523D01*
X141897619Y-194357142D01*
X142802380Y-195309523D02*
X142802380Y-194738095D01*
X142802380Y-195023809D02*
X141802380Y-195023809D01*
X141945238Y-194928571D01*
X142040476Y-194833333D01*
X142088095Y-194738095D01*
X141802380Y-196166666D02*
X141802380Y-195976190D01*
X141850000Y-195880952D01*
X141897619Y-195833333D01*
X142040476Y-195738095D01*
X142230952Y-195690476D01*
X142611904Y-195690476D01*
X142707142Y-195738095D01*
X142754761Y-195785714D01*
X142802380Y-195880952D01*
X142802380Y-196071428D01*
X142754761Y-196166666D01*
X142707142Y-196214285D01*
X142611904Y-196261904D01*
X142373809Y-196261904D01*
X142278571Y-196214285D01*
X142230952Y-196166666D01*
X142183333Y-196071428D01*
X142183333Y-195880952D01*
X142230952Y-195785714D01*
X142278571Y-195738095D01*
X142373809Y-195690476D01*
X142707142Y-214382142D02*
X142754761Y-214334523D01*
X142802380Y-214191666D01*
X142802380Y-214096428D01*
X142754761Y-213953571D01*
X142659523Y-213858333D01*
X142564285Y-213810714D01*
X142373809Y-213763095D01*
X142230952Y-213763095D01*
X142040476Y-213810714D01*
X141945238Y-213858333D01*
X141850000Y-213953571D01*
X141802380Y-214096428D01*
X141802380Y-214191666D01*
X141850000Y-214334523D01*
X141897619Y-214382142D01*
X142802380Y-215334523D02*
X142802380Y-214763095D01*
X142802380Y-215048809D02*
X141802380Y-215048809D01*
X141945238Y-214953571D01*
X142040476Y-214858333D01*
X142088095Y-214763095D01*
X141802380Y-216239285D02*
X141802380Y-215763095D01*
X142278571Y-215715476D01*
X142230952Y-215763095D01*
X142183333Y-215858333D01*
X142183333Y-216096428D01*
X142230952Y-216191666D01*
X142278571Y-216239285D01*
X142373809Y-216286904D01*
X142611904Y-216286904D01*
X142707142Y-216239285D01*
X142754761Y-216191666D01*
X142802380Y-216096428D01*
X142802380Y-215858333D01*
X142754761Y-215763095D01*
X142707142Y-215715476D01*
X82707142Y-194357142D02*
X82754761Y-194309523D01*
X82802380Y-194166666D01*
X82802380Y-194071428D01*
X82754761Y-193928571D01*
X82659523Y-193833333D01*
X82564285Y-193785714D01*
X82373809Y-193738095D01*
X82230952Y-193738095D01*
X82040476Y-193785714D01*
X81945238Y-193833333D01*
X81850000Y-193928571D01*
X81802380Y-194071428D01*
X81802380Y-194166666D01*
X81850000Y-194309523D01*
X81897619Y-194357142D01*
X82802380Y-195309523D02*
X82802380Y-194738095D01*
X82802380Y-195023809D02*
X81802380Y-195023809D01*
X81945238Y-194928571D01*
X82040476Y-194833333D01*
X82088095Y-194738095D01*
X82135714Y-196166666D02*
X82802380Y-196166666D01*
X81754761Y-195928571D02*
X82469047Y-195690476D01*
X82469047Y-196309523D01*
X102707142Y-214382142D02*
X102754761Y-214334523D01*
X102802380Y-214191666D01*
X102802380Y-214096428D01*
X102754761Y-213953571D01*
X102659523Y-213858333D01*
X102564285Y-213810714D01*
X102373809Y-213763095D01*
X102230952Y-213763095D01*
X102040476Y-213810714D01*
X101945238Y-213858333D01*
X101850000Y-213953571D01*
X101802380Y-214096428D01*
X101802380Y-214191666D01*
X101850000Y-214334523D01*
X101897619Y-214382142D01*
X102802380Y-215334523D02*
X102802380Y-214763095D01*
X102802380Y-215048809D02*
X101802380Y-215048809D01*
X101945238Y-214953571D01*
X102040476Y-214858333D01*
X102088095Y-214763095D01*
X101802380Y-215667857D02*
X101802380Y-216286904D01*
X102183333Y-215953571D01*
X102183333Y-216096428D01*
X102230952Y-216191666D01*
X102278571Y-216239285D01*
X102373809Y-216286904D01*
X102611904Y-216286904D01*
X102707142Y-216239285D01*
X102754761Y-216191666D01*
X102802380Y-216096428D01*
X102802380Y-215810714D01*
X102754761Y-215715476D01*
X102707142Y-215667857D01*
X82707142Y-214382142D02*
X82754761Y-214334523D01*
X82802380Y-214191666D01*
X82802380Y-214096428D01*
X82754761Y-213953571D01*
X82659523Y-213858333D01*
X82564285Y-213810714D01*
X82373809Y-213763095D01*
X82230952Y-213763095D01*
X82040476Y-213810714D01*
X81945238Y-213858333D01*
X81850000Y-213953571D01*
X81802380Y-214096428D01*
X81802380Y-214191666D01*
X81850000Y-214334523D01*
X81897619Y-214382142D01*
X82802380Y-215334523D02*
X82802380Y-214763095D01*
X82802380Y-215048809D02*
X81802380Y-215048809D01*
X81945238Y-214953571D01*
X82040476Y-214858333D01*
X82088095Y-214763095D01*
X82802380Y-216286904D02*
X82802380Y-215715476D01*
X82802380Y-216001190D02*
X81802380Y-216001190D01*
X81945238Y-215905952D01*
X82040476Y-215810714D01*
X82088095Y-215715476D01*
X102707142Y-194332142D02*
X102754761Y-194284523D01*
X102802380Y-194141666D01*
X102802380Y-194046428D01*
X102754761Y-193903571D01*
X102659523Y-193808333D01*
X102564285Y-193760714D01*
X102373809Y-193713095D01*
X102230952Y-193713095D01*
X102040476Y-193760714D01*
X101945238Y-193808333D01*
X101850000Y-193903571D01*
X101802380Y-194046428D01*
X101802380Y-194141666D01*
X101850000Y-194284523D01*
X101897619Y-194332142D01*
X102802380Y-195284523D02*
X102802380Y-194713095D01*
X102802380Y-194998809D02*
X101802380Y-194998809D01*
X101945238Y-194903571D01*
X102040476Y-194808333D01*
X102088095Y-194713095D01*
X101802380Y-195903571D02*
X101802380Y-195998809D01*
X101850000Y-196094047D01*
X101897619Y-196141666D01*
X101992857Y-196189285D01*
X102183333Y-196236904D01*
X102421428Y-196236904D01*
X102611904Y-196189285D01*
X102707142Y-196141666D01*
X102754761Y-196094047D01*
X102802380Y-195998809D01*
X102802380Y-195903571D01*
X102754761Y-195808333D01*
X102707142Y-195760714D01*
X102611904Y-195713095D01*
X102421428Y-195665476D01*
X102183333Y-195665476D01*
X101992857Y-195713095D01*
X101897619Y-195760714D01*
X101850000Y-195808333D01*
X101802380Y-195903571D01*
X122707142Y-214858333D02*
X122754761Y-214810714D01*
X122802380Y-214667857D01*
X122802380Y-214572619D01*
X122754761Y-214429761D01*
X122659523Y-214334523D01*
X122564285Y-214286904D01*
X122373809Y-214239285D01*
X122230952Y-214239285D01*
X122040476Y-214286904D01*
X121945238Y-214334523D01*
X121850000Y-214429761D01*
X121802380Y-214572619D01*
X121802380Y-214667857D01*
X121850000Y-214810714D01*
X121897619Y-214858333D01*
X122802380Y-215334523D02*
X122802380Y-215525000D01*
X122754761Y-215620238D01*
X122707142Y-215667857D01*
X122564285Y-215763095D01*
X122373809Y-215810714D01*
X121992857Y-215810714D01*
X121897619Y-215763095D01*
X121850000Y-215715476D01*
X121802380Y-215620238D01*
X121802380Y-215429761D01*
X121850000Y-215334523D01*
X121897619Y-215286904D01*
X121992857Y-215239285D01*
X122230952Y-215239285D01*
X122326190Y-215286904D01*
X122373809Y-215334523D01*
X122421428Y-215429761D01*
X122421428Y-215620238D01*
X122373809Y-215715476D01*
X122326190Y-215763095D01*
X122230952Y-215810714D01*
X162707142Y-194858333D02*
X162754761Y-194810714D01*
X162802380Y-194667857D01*
X162802380Y-194572619D01*
X162754761Y-194429761D01*
X162659523Y-194334523D01*
X162564285Y-194286904D01*
X162373809Y-194239285D01*
X162230952Y-194239285D01*
X162040476Y-194286904D01*
X161945238Y-194334523D01*
X161850000Y-194429761D01*
X161802380Y-194572619D01*
X161802380Y-194667857D01*
X161850000Y-194810714D01*
X161897619Y-194858333D01*
X162230952Y-195429761D02*
X162183333Y-195334523D01*
X162135714Y-195286904D01*
X162040476Y-195239285D01*
X161992857Y-195239285D01*
X161897619Y-195286904D01*
X161850000Y-195334523D01*
X161802380Y-195429761D01*
X161802380Y-195620238D01*
X161850000Y-195715476D01*
X161897619Y-195763095D01*
X161992857Y-195810714D01*
X162040476Y-195810714D01*
X162135714Y-195763095D01*
X162183333Y-195715476D01*
X162230952Y-195620238D01*
X162230952Y-195429761D01*
X162278571Y-195334523D01*
X162326190Y-195286904D01*
X162421428Y-195239285D01*
X162611904Y-195239285D01*
X162707142Y-195286904D01*
X162754761Y-195334523D01*
X162802380Y-195429761D01*
X162802380Y-195620238D01*
X162754761Y-195715476D01*
X162707142Y-195763095D01*
X162611904Y-195810714D01*
X162421428Y-195810714D01*
X162326190Y-195763095D01*
X162278571Y-195715476D01*
X162230952Y-195620238D01*
X202707142Y-214858333D02*
X202754761Y-214810714D01*
X202802380Y-214667857D01*
X202802380Y-214572619D01*
X202754761Y-214429761D01*
X202659523Y-214334523D01*
X202564285Y-214286904D01*
X202373809Y-214239285D01*
X202230952Y-214239285D01*
X202040476Y-214286904D01*
X201945238Y-214334523D01*
X201850000Y-214429761D01*
X201802380Y-214572619D01*
X201802380Y-214667857D01*
X201850000Y-214810714D01*
X201897619Y-214858333D01*
X201802380Y-215191666D02*
X201802380Y-215858333D01*
X202802380Y-215429761D01*
X182707142Y-214858333D02*
X182754761Y-214810714D01*
X182802380Y-214667857D01*
X182802380Y-214572619D01*
X182754761Y-214429761D01*
X182659523Y-214334523D01*
X182564285Y-214286904D01*
X182373809Y-214239285D01*
X182230952Y-214239285D01*
X182040476Y-214286904D01*
X181945238Y-214334523D01*
X181850000Y-214429761D01*
X181802380Y-214572619D01*
X181802380Y-214667857D01*
X181850000Y-214810714D01*
X181897619Y-214858333D01*
X181802380Y-215715476D02*
X181802380Y-215525000D01*
X181850000Y-215429761D01*
X181897619Y-215382142D01*
X182040476Y-215286904D01*
X182230952Y-215239285D01*
X182611904Y-215239285D01*
X182707142Y-215286904D01*
X182754761Y-215334523D01*
X182802380Y-215429761D01*
X182802380Y-215620238D01*
X182754761Y-215715476D01*
X182707142Y-215763095D01*
X182611904Y-215810714D01*
X182373809Y-215810714D01*
X182278571Y-215763095D01*
X182230952Y-215715476D01*
X182183333Y-215620238D01*
X182183333Y-215429761D01*
X182230952Y-215334523D01*
X182278571Y-215286904D01*
X182373809Y-215239285D01*
X162707142Y-214858333D02*
X162754761Y-214810714D01*
X162802380Y-214667857D01*
X162802380Y-214572619D01*
X162754761Y-214429761D01*
X162659523Y-214334523D01*
X162564285Y-214286904D01*
X162373809Y-214239285D01*
X162230952Y-214239285D01*
X162040476Y-214286904D01*
X161945238Y-214334523D01*
X161850000Y-214429761D01*
X161802380Y-214572619D01*
X161802380Y-214667857D01*
X161850000Y-214810714D01*
X161897619Y-214858333D01*
X161802380Y-215763095D02*
X161802380Y-215286904D01*
X162278571Y-215239285D01*
X162230952Y-215286904D01*
X162183333Y-215382142D01*
X162183333Y-215620238D01*
X162230952Y-215715476D01*
X162278571Y-215763095D01*
X162373809Y-215810714D01*
X162611904Y-215810714D01*
X162707142Y-215763095D01*
X162754761Y-215715476D01*
X162802380Y-215620238D01*
X162802380Y-215382142D01*
X162754761Y-215286904D01*
X162707142Y-215239285D01*
X222707142Y-214858333D02*
X222754761Y-214810714D01*
X222802380Y-214667857D01*
X222802380Y-214572619D01*
X222754761Y-214429761D01*
X222659523Y-214334523D01*
X222564285Y-214286904D01*
X222373809Y-214239285D01*
X222230952Y-214239285D01*
X222040476Y-214286904D01*
X221945238Y-214334523D01*
X221850000Y-214429761D01*
X221802380Y-214572619D01*
X221802380Y-214667857D01*
X221850000Y-214810714D01*
X221897619Y-214858333D01*
X222135714Y-215715476D02*
X222802380Y-215715476D01*
X221754761Y-215477380D02*
X222469047Y-215239285D01*
X222469047Y-215858333D01*
X222707142Y-194808333D02*
X222754761Y-194760714D01*
X222802380Y-194617857D01*
X222802380Y-194522619D01*
X222754761Y-194379761D01*
X222659523Y-194284523D01*
X222564285Y-194236904D01*
X222373809Y-194189285D01*
X222230952Y-194189285D01*
X222040476Y-194236904D01*
X221945238Y-194284523D01*
X221850000Y-194379761D01*
X221802380Y-194522619D01*
X221802380Y-194617857D01*
X221850000Y-194760714D01*
X221897619Y-194808333D01*
X221802380Y-195141666D02*
X221802380Y-195760714D01*
X222183333Y-195427380D01*
X222183333Y-195570238D01*
X222230952Y-195665476D01*
X222278571Y-195713095D01*
X222373809Y-195760714D01*
X222611904Y-195760714D01*
X222707142Y-195713095D01*
X222754761Y-195665476D01*
X222802380Y-195570238D01*
X222802380Y-195284523D01*
X222754761Y-195189285D01*
X222707142Y-195141666D01*
X182707142Y-194808333D02*
X182754761Y-194760714D01*
X182802380Y-194617857D01*
X182802380Y-194522619D01*
X182754761Y-194379761D01*
X182659523Y-194284523D01*
X182564285Y-194236904D01*
X182373809Y-194189285D01*
X182230952Y-194189285D01*
X182040476Y-194236904D01*
X181945238Y-194284523D01*
X181850000Y-194379761D01*
X181802380Y-194522619D01*
X181802380Y-194617857D01*
X181850000Y-194760714D01*
X181897619Y-194808333D01*
X181897619Y-195189285D02*
X181850000Y-195236904D01*
X181802380Y-195332142D01*
X181802380Y-195570238D01*
X181850000Y-195665476D01*
X181897619Y-195713095D01*
X181992857Y-195760714D01*
X182088095Y-195760714D01*
X182230952Y-195713095D01*
X182802380Y-195141666D01*
X182802380Y-195760714D01*
X202707142Y-194808333D02*
X202754761Y-194760714D01*
X202802380Y-194617857D01*
X202802380Y-194522619D01*
X202754761Y-194379761D01*
X202659523Y-194284523D01*
X202564285Y-194236904D01*
X202373809Y-194189285D01*
X202230952Y-194189285D01*
X202040476Y-194236904D01*
X201945238Y-194284523D01*
X201850000Y-194379761D01*
X201802380Y-194522619D01*
X201802380Y-194617857D01*
X201850000Y-194760714D01*
X201897619Y-194808333D01*
X202802380Y-195760714D02*
X202802380Y-195189285D01*
X202802380Y-195475000D02*
X201802380Y-195475000D01*
X201945238Y-195379761D01*
X202040476Y-195284523D01*
X202088095Y-195189285D01*
M02*
