M48
; DRILL file {KiCad (5.1.5)-3} date 07/04/20 05:03:47
; FORMAT={-:-/ absolute / inch / decimal}
; #@! TF.CreationDate,2020-07-04T05:03:47+02:00
; #@! TF.GenerationSoftware,Kicad,Pcbnew,(5.1.5)-3
; #@! TF.FileFunction,Plated,1,2,PTH
FMAT,2
INCH
T1C0.0157
T2C0.0197
T3C0.0394
T4C0.0590
T5C0.1260
%
G90
G05
T1
X3.3661Y-7.7756
X3.4646Y-8.589
X3.6811Y-8.3465
X3.7362Y-7.5748
X3.8363Y-7.4238
X3.8386Y-7.3425
X3.8465Y-7.4882
X3.9213Y-7.4685
X4.0236Y-7.3543
X4.0433Y-7.465
X4.1339Y-7.7953
X4.1732Y-8.5827
X4.2953Y-7.2402
X4.5276Y-7.6378
X4.5276Y-8.4252
X4.626Y-7.9154
X4.654Y-8.0241
X4.6806Y-7.9168
X4.6993Y-7.9788
X4.8478Y-7.3254
X4.9007Y-7.2725
X4.9213Y-7.7953
X5.0Y-8.5827
X5.315Y-7.6378
X5.315Y-8.3858
X5.3386Y-7.4094
X5.3504Y-7.3518
X5.594Y-8.0271
X5.6024Y-8.1024
X5.6181Y-7.3976
X5.6653Y-7.337
X5.7087Y-7.7953
X5.7874Y-8.5827
X6.1024Y-7.6378
X6.1024Y-8.3858
X6.185Y-8.2717
X6.2756Y-8.2835
X6.3583Y-7.6772
X6.4567Y-7.7953
X6.5157Y-7.6772
X6.5354Y-8.5827
X6.8229Y-8.3977
X6.8898Y-7.6378
X6.9803Y-7.3504
X6.9882Y-7.4089
X7.0157Y-7.9803
X7.0382Y-8.0871
X7.0473Y-7.9489
X7.0522Y-8.0247
X7.185Y-7.4331
X7.2165Y-7.3701
X7.2835Y-7.7953
X7.4016Y-8.589
X7.6378Y-7.6772
X7.6772Y-8.4252
X7.8074Y-7.9397
X7.841Y-7.3991
X7.8504Y-7.3268
X7.9134Y-7.9075
X7.9234Y-8.112
X7.9559Y-8.0638
X7.9646Y-7.4321
X7.9724Y-7.375
X8.0709Y-7.7953
X8.189Y-8.589
X8.4646Y-7.6378
X8.4646Y-8.3858
X8.5386Y-7.4496
X8.5403Y-7.3888
X8.5551Y-7.3228
X8.576Y-7.2894
X8.626Y-8.2717
X8.685Y-8.3189
X8.8583Y-7.8346
X9.252Y-7.6378
X9.252Y-8.3858
T2
X3.8268Y-8.1313
X3.8346Y-8.2041
X3.8839Y-8.5256
X3.9216Y-8.5909
X4.6614Y-7.2451
X8.7294Y-8.335
X8.752Y-8.1772
T3
X8.937Y-7.0472
X9.037Y-7.0472
X3.5433Y-6.9472
X3.5433Y-7.0472
X3.6433Y-6.9472
X3.6433Y-7.0472
X3.7433Y-6.9472
X3.7433Y-7.0472
X3.8433Y-6.9472
X3.8433Y-7.0472
X3.9433Y-6.9472
X3.9433Y-7.0472
X4.0433Y-6.9472
X4.0433Y-7.0472
X4.1433Y-6.9472
X4.1433Y-7.0472
X4.2433Y-6.9472
X4.2433Y-7.0472
X4.3433Y-6.9472
X4.3433Y-7.0472
X4.4433Y-6.9472
X4.4433Y-7.0472
X4.5433Y-6.9472
X4.5433Y-7.0472
X4.6433Y-6.9472
X4.6433Y-7.0472
X4.7433Y-6.9472
X4.7433Y-7.0472
T4
X4.1807Y-7.3803
X4.2307Y-7.2803
X4.4307Y-7.2803
X4.4807Y-7.3803
X6.5429Y-7.3803
X6.5929Y-7.2803
X6.7929Y-7.2803
X6.8429Y-7.3803
X7.3303Y-8.1677
X7.3803Y-8.0677
X7.5803Y-8.0677
X7.6303Y-8.1677
X4.9681Y-8.1677
X5.0181Y-8.0677
X5.2181Y-8.0677
X5.2681Y-8.1677
X5.7555Y-8.1677
X5.8055Y-8.0677
X6.0055Y-8.0677
X6.0555Y-8.1677
X7.3303Y-7.3803
X7.3803Y-7.2803
X7.5803Y-7.2803
X7.6303Y-7.3803
X3.3933Y-7.3803
X3.4433Y-7.2803
X3.6433Y-7.2803
X3.6933Y-7.3803
X6.5429Y-8.1677
X6.5929Y-8.0677
X6.7929Y-8.0677
X6.8429Y-8.1677
X5.7555Y-7.3803
X5.8055Y-7.2803
X6.0055Y-7.2803
X6.0555Y-7.3803
X3.3933Y-8.1677
X3.4433Y-8.0677
X3.6433Y-8.0677
X3.6933Y-8.1677
X4.1807Y-8.1677
X4.2307Y-8.0677
X4.4307Y-8.0677
X4.4807Y-8.1677
X8.9051Y-8.1677
X8.9551Y-8.0677
X9.1551Y-8.0677
X9.2051Y-8.1677
X8.1177Y-7.3803
X8.1677Y-7.2803
X8.3677Y-7.2803
X8.4177Y-7.3803
X8.1177Y-8.1677
X8.1677Y-8.0677
X8.3677Y-8.0677
X8.4177Y-8.1677
X4.9681Y-7.3803
X5.0181Y-7.2803
X5.2181Y-7.2803
X5.2681Y-7.3803
X8.9051Y-7.3803
X8.9551Y-7.2803
X9.1551Y-7.2803
X9.2051Y-7.3803
T5
X3.2677Y-6.8898
X4.7835Y-8.8583
X9.3307Y-8.8583
X7.815Y-8.8583
X3.2677Y-8.8583
X6.2992Y-8.8583
X9.3307Y-6.8898
X6.2992Y-6.8898
T0
M30
