G04 #@! TF.GenerationSoftware,KiCad,Pcbnew,(5.1.5)-3*
G04 #@! TF.CreationDate,2020-07-04T05:03:45+02:00*
G04 #@! TF.ProjectId,buttonboard,62757474-6f6e-4626-9f61-72642e6b6963,rev?*
G04 #@! TF.SameCoordinates,Original*
G04 #@! TF.FileFunction,Copper,L1,Top*
G04 #@! TF.FilePolarity,Positive*
%FSLAX46Y46*%
G04 Gerber Fmt 4.6, Leading zero omitted, Abs format (unit mm)*
G04 Created by KiCad (PCBNEW (5.1.5)-3) date 2020-07-04 05:03:45*
%MOMM*%
%LPD*%
G04 APERTURE LIST*
%ADD10C,5.700000*%
%ADD11C,2.200000*%
%ADD12C,0.100000*%
%ADD13O,1.700000X1.700000*%
%ADD14R,1.700000X1.700000*%
%ADD15C,0.800000*%
%ADD16C,1.200000*%
%ADD17C,0.250000*%
G04 APERTURE END LIST*
D10*
X198500000Y-225000000D03*
X160000000Y-225000000D03*
X121500000Y-225000000D03*
X83000000Y-225000000D03*
X237000000Y-225000000D03*
X160000000Y-175000000D03*
D11*
X107460000Y-184920000D03*
X113810000Y-187460000D03*
X112540000Y-184920000D03*
X106190000Y-187460000D03*
D10*
X237000000Y-175000000D03*
X83000000Y-175000000D03*
D11*
X147460000Y-204920000D03*
X153810000Y-207460000D03*
X152540000Y-204920000D03*
X146190000Y-207460000D03*
X187460000Y-204920000D03*
X193810000Y-207460000D03*
X192540000Y-204920000D03*
X186190000Y-207460000D03*
X167460000Y-204920000D03*
X173810000Y-207460000D03*
X172540000Y-204920000D03*
X166190000Y-207460000D03*
X207460000Y-204920000D03*
X213810000Y-207460000D03*
X212540000Y-204920000D03*
X206190000Y-207460000D03*
X227460000Y-204920000D03*
X233810000Y-207460000D03*
X232540000Y-204920000D03*
X226190000Y-207460000D03*
X227460000Y-184920000D03*
X233810000Y-187460000D03*
X232540000Y-184920000D03*
X226190000Y-187460000D03*
X207460000Y-184920000D03*
X213810000Y-187460000D03*
X212540000Y-184920000D03*
X206190000Y-187460000D03*
X187460000Y-184920000D03*
X193810000Y-187460000D03*
X192540000Y-184920000D03*
X186190000Y-187460000D03*
X167460000Y-184920000D03*
X173810000Y-187460000D03*
X172540000Y-184920000D03*
X166190000Y-187460000D03*
X147460000Y-184920000D03*
X153810000Y-187460000D03*
X152540000Y-184920000D03*
X146190000Y-187460000D03*
X127460000Y-204920000D03*
X133810000Y-207460000D03*
X132540000Y-204920000D03*
X126190000Y-207460000D03*
X127460000Y-184920000D03*
X133810000Y-187460000D03*
X132540000Y-184920000D03*
X126190000Y-187460000D03*
X107460000Y-204920000D03*
X113810000Y-207460000D03*
X112540000Y-204920000D03*
X106190000Y-207460000D03*
X87460000Y-204920000D03*
X93810000Y-207460000D03*
X92540000Y-204920000D03*
X86190000Y-207460000D03*
X87460000Y-184920000D03*
X93810000Y-187460000D03*
X92540000Y-184920000D03*
X86190000Y-187460000D03*
G04 #@! TA.AperFunction,SMDPad,CuDef*
D12*
G36*
X221474505Y-209451204D02*
G01*
X221498773Y-209454804D01*
X221522572Y-209460765D01*
X221545671Y-209469030D01*
X221567850Y-209479520D01*
X221588893Y-209492132D01*
X221608599Y-209506747D01*
X221626777Y-209523223D01*
X221643253Y-209541401D01*
X221657868Y-209561107D01*
X221670480Y-209582150D01*
X221680970Y-209604329D01*
X221689235Y-209627428D01*
X221695196Y-209651227D01*
X221698796Y-209675495D01*
X221700000Y-209699999D01*
X221700000Y-210350001D01*
X221698796Y-210374505D01*
X221695196Y-210398773D01*
X221689235Y-210422572D01*
X221680970Y-210445671D01*
X221670480Y-210467850D01*
X221657868Y-210488893D01*
X221643253Y-210508599D01*
X221626777Y-210526777D01*
X221608599Y-210543253D01*
X221588893Y-210557868D01*
X221567850Y-210570480D01*
X221545671Y-210580970D01*
X221522572Y-210589235D01*
X221498773Y-210595196D01*
X221474505Y-210598796D01*
X221450001Y-210600000D01*
X220549999Y-210600000D01*
X220525495Y-210598796D01*
X220501227Y-210595196D01*
X220477428Y-210589235D01*
X220454329Y-210580970D01*
X220432150Y-210570480D01*
X220411107Y-210557868D01*
X220391401Y-210543253D01*
X220373223Y-210526777D01*
X220356747Y-210508599D01*
X220342132Y-210488893D01*
X220329520Y-210467850D01*
X220319030Y-210445671D01*
X220310765Y-210422572D01*
X220304804Y-210398773D01*
X220301204Y-210374505D01*
X220300000Y-210350001D01*
X220300000Y-209699999D01*
X220301204Y-209675495D01*
X220304804Y-209651227D01*
X220310765Y-209627428D01*
X220319030Y-209604329D01*
X220329520Y-209582150D01*
X220342132Y-209561107D01*
X220356747Y-209541401D01*
X220373223Y-209523223D01*
X220391401Y-209506747D01*
X220411107Y-209492132D01*
X220432150Y-209479520D01*
X220454329Y-209469030D01*
X220477428Y-209460765D01*
X220501227Y-209454804D01*
X220525495Y-209451204D01*
X220549999Y-209450000D01*
X221450001Y-209450000D01*
X221474505Y-209451204D01*
G37*
G04 #@! TD.AperFunction*
G04 #@! TA.AperFunction,SMDPad,CuDef*
G36*
X221474505Y-207401204D02*
G01*
X221498773Y-207404804D01*
X221522572Y-207410765D01*
X221545671Y-207419030D01*
X221567850Y-207429520D01*
X221588893Y-207442132D01*
X221608599Y-207456747D01*
X221626777Y-207473223D01*
X221643253Y-207491401D01*
X221657868Y-207511107D01*
X221670480Y-207532150D01*
X221680970Y-207554329D01*
X221689235Y-207577428D01*
X221695196Y-207601227D01*
X221698796Y-207625495D01*
X221700000Y-207649999D01*
X221700000Y-208300001D01*
X221698796Y-208324505D01*
X221695196Y-208348773D01*
X221689235Y-208372572D01*
X221680970Y-208395671D01*
X221670480Y-208417850D01*
X221657868Y-208438893D01*
X221643253Y-208458599D01*
X221626777Y-208476777D01*
X221608599Y-208493253D01*
X221588893Y-208507868D01*
X221567850Y-208520480D01*
X221545671Y-208530970D01*
X221522572Y-208539235D01*
X221498773Y-208545196D01*
X221474505Y-208548796D01*
X221450001Y-208550000D01*
X220549999Y-208550000D01*
X220525495Y-208548796D01*
X220501227Y-208545196D01*
X220477428Y-208539235D01*
X220454329Y-208530970D01*
X220432150Y-208520480D01*
X220411107Y-208507868D01*
X220391401Y-208493253D01*
X220373223Y-208476777D01*
X220356747Y-208458599D01*
X220342132Y-208438893D01*
X220329520Y-208417850D01*
X220319030Y-208395671D01*
X220310765Y-208372572D01*
X220304804Y-208348773D01*
X220301204Y-208324505D01*
X220300000Y-208300001D01*
X220300000Y-207649999D01*
X220301204Y-207625495D01*
X220304804Y-207601227D01*
X220310765Y-207577428D01*
X220319030Y-207554329D01*
X220329520Y-207532150D01*
X220342132Y-207511107D01*
X220356747Y-207491401D01*
X220373223Y-207473223D01*
X220391401Y-207456747D01*
X220411107Y-207442132D01*
X220432150Y-207429520D01*
X220454329Y-207419030D01*
X220477428Y-207410765D01*
X220501227Y-207404804D01*
X220525495Y-207401204D01*
X220549999Y-207400000D01*
X221450001Y-207400000D01*
X221474505Y-207401204D01*
G37*
G04 #@! TD.AperFunction*
G04 #@! TA.AperFunction,SMDPad,CuDef*
G36*
X219474505Y-187451204D02*
G01*
X219498773Y-187454804D01*
X219522572Y-187460765D01*
X219545671Y-187469030D01*
X219567850Y-187479520D01*
X219588893Y-187492132D01*
X219608599Y-187506747D01*
X219626777Y-187523223D01*
X219643253Y-187541401D01*
X219657868Y-187561107D01*
X219670480Y-187582150D01*
X219680970Y-187604329D01*
X219689235Y-187627428D01*
X219695196Y-187651227D01*
X219698796Y-187675495D01*
X219700000Y-187699999D01*
X219700000Y-188350001D01*
X219698796Y-188374505D01*
X219695196Y-188398773D01*
X219689235Y-188422572D01*
X219680970Y-188445671D01*
X219670480Y-188467850D01*
X219657868Y-188488893D01*
X219643253Y-188508599D01*
X219626777Y-188526777D01*
X219608599Y-188543253D01*
X219588893Y-188557868D01*
X219567850Y-188570480D01*
X219545671Y-188580970D01*
X219522572Y-188589235D01*
X219498773Y-188595196D01*
X219474505Y-188598796D01*
X219450001Y-188600000D01*
X218549999Y-188600000D01*
X218525495Y-188598796D01*
X218501227Y-188595196D01*
X218477428Y-188589235D01*
X218454329Y-188580970D01*
X218432150Y-188570480D01*
X218411107Y-188557868D01*
X218391401Y-188543253D01*
X218373223Y-188526777D01*
X218356747Y-188508599D01*
X218342132Y-188488893D01*
X218329520Y-188467850D01*
X218319030Y-188445671D01*
X218310765Y-188422572D01*
X218304804Y-188398773D01*
X218301204Y-188374505D01*
X218300000Y-188350001D01*
X218300000Y-187699999D01*
X218301204Y-187675495D01*
X218304804Y-187651227D01*
X218310765Y-187627428D01*
X218319030Y-187604329D01*
X218329520Y-187582150D01*
X218342132Y-187561107D01*
X218356747Y-187541401D01*
X218373223Y-187523223D01*
X218391401Y-187506747D01*
X218411107Y-187492132D01*
X218432150Y-187479520D01*
X218454329Y-187469030D01*
X218477428Y-187460765D01*
X218501227Y-187454804D01*
X218525495Y-187451204D01*
X218549999Y-187450000D01*
X219450001Y-187450000D01*
X219474505Y-187451204D01*
G37*
G04 #@! TD.AperFunction*
G04 #@! TA.AperFunction,SMDPad,CuDef*
G36*
X219474505Y-185401204D02*
G01*
X219498773Y-185404804D01*
X219522572Y-185410765D01*
X219545671Y-185419030D01*
X219567850Y-185429520D01*
X219588893Y-185442132D01*
X219608599Y-185456747D01*
X219626777Y-185473223D01*
X219643253Y-185491401D01*
X219657868Y-185511107D01*
X219670480Y-185532150D01*
X219680970Y-185554329D01*
X219689235Y-185577428D01*
X219695196Y-185601227D01*
X219698796Y-185625495D01*
X219700000Y-185649999D01*
X219700000Y-186300001D01*
X219698796Y-186324505D01*
X219695196Y-186348773D01*
X219689235Y-186372572D01*
X219680970Y-186395671D01*
X219670480Y-186417850D01*
X219657868Y-186438893D01*
X219643253Y-186458599D01*
X219626777Y-186476777D01*
X219608599Y-186493253D01*
X219588893Y-186507868D01*
X219567850Y-186520480D01*
X219545671Y-186530970D01*
X219522572Y-186539235D01*
X219498773Y-186545196D01*
X219474505Y-186548796D01*
X219450001Y-186550000D01*
X218549999Y-186550000D01*
X218525495Y-186548796D01*
X218501227Y-186545196D01*
X218477428Y-186539235D01*
X218454329Y-186530970D01*
X218432150Y-186520480D01*
X218411107Y-186507868D01*
X218391401Y-186493253D01*
X218373223Y-186476777D01*
X218356747Y-186458599D01*
X218342132Y-186438893D01*
X218329520Y-186417850D01*
X218319030Y-186395671D01*
X218310765Y-186372572D01*
X218304804Y-186348773D01*
X218301204Y-186324505D01*
X218300000Y-186300001D01*
X218300000Y-185649999D01*
X218301204Y-185625495D01*
X218304804Y-185601227D01*
X218310765Y-185577428D01*
X218319030Y-185554329D01*
X218329520Y-185532150D01*
X218342132Y-185511107D01*
X218356747Y-185491401D01*
X218373223Y-185473223D01*
X218391401Y-185456747D01*
X218411107Y-185442132D01*
X218432150Y-185429520D01*
X218454329Y-185419030D01*
X218477428Y-185410765D01*
X218501227Y-185404804D01*
X218525495Y-185401204D01*
X218549999Y-185400000D01*
X219450001Y-185400000D01*
X219474505Y-185401204D01*
G37*
G04 #@! TD.AperFunction*
G04 #@! TA.AperFunction,SMDPad,CuDef*
G36*
X201474505Y-209451204D02*
G01*
X201498773Y-209454804D01*
X201522572Y-209460765D01*
X201545671Y-209469030D01*
X201567850Y-209479520D01*
X201588893Y-209492132D01*
X201608599Y-209506747D01*
X201626777Y-209523223D01*
X201643253Y-209541401D01*
X201657868Y-209561107D01*
X201670480Y-209582150D01*
X201680970Y-209604329D01*
X201689235Y-209627428D01*
X201695196Y-209651227D01*
X201698796Y-209675495D01*
X201700000Y-209699999D01*
X201700000Y-210350001D01*
X201698796Y-210374505D01*
X201695196Y-210398773D01*
X201689235Y-210422572D01*
X201680970Y-210445671D01*
X201670480Y-210467850D01*
X201657868Y-210488893D01*
X201643253Y-210508599D01*
X201626777Y-210526777D01*
X201608599Y-210543253D01*
X201588893Y-210557868D01*
X201567850Y-210570480D01*
X201545671Y-210580970D01*
X201522572Y-210589235D01*
X201498773Y-210595196D01*
X201474505Y-210598796D01*
X201450001Y-210600000D01*
X200549999Y-210600000D01*
X200525495Y-210598796D01*
X200501227Y-210595196D01*
X200477428Y-210589235D01*
X200454329Y-210580970D01*
X200432150Y-210570480D01*
X200411107Y-210557868D01*
X200391401Y-210543253D01*
X200373223Y-210526777D01*
X200356747Y-210508599D01*
X200342132Y-210488893D01*
X200329520Y-210467850D01*
X200319030Y-210445671D01*
X200310765Y-210422572D01*
X200304804Y-210398773D01*
X200301204Y-210374505D01*
X200300000Y-210350001D01*
X200300000Y-209699999D01*
X200301204Y-209675495D01*
X200304804Y-209651227D01*
X200310765Y-209627428D01*
X200319030Y-209604329D01*
X200329520Y-209582150D01*
X200342132Y-209561107D01*
X200356747Y-209541401D01*
X200373223Y-209523223D01*
X200391401Y-209506747D01*
X200411107Y-209492132D01*
X200432150Y-209479520D01*
X200454329Y-209469030D01*
X200477428Y-209460765D01*
X200501227Y-209454804D01*
X200525495Y-209451204D01*
X200549999Y-209450000D01*
X201450001Y-209450000D01*
X201474505Y-209451204D01*
G37*
G04 #@! TD.AperFunction*
G04 #@! TA.AperFunction,SMDPad,CuDef*
G36*
X201474505Y-207401204D02*
G01*
X201498773Y-207404804D01*
X201522572Y-207410765D01*
X201545671Y-207419030D01*
X201567850Y-207429520D01*
X201588893Y-207442132D01*
X201608599Y-207456747D01*
X201626777Y-207473223D01*
X201643253Y-207491401D01*
X201657868Y-207511107D01*
X201670480Y-207532150D01*
X201680970Y-207554329D01*
X201689235Y-207577428D01*
X201695196Y-207601227D01*
X201698796Y-207625495D01*
X201700000Y-207649999D01*
X201700000Y-208300001D01*
X201698796Y-208324505D01*
X201695196Y-208348773D01*
X201689235Y-208372572D01*
X201680970Y-208395671D01*
X201670480Y-208417850D01*
X201657868Y-208438893D01*
X201643253Y-208458599D01*
X201626777Y-208476777D01*
X201608599Y-208493253D01*
X201588893Y-208507868D01*
X201567850Y-208520480D01*
X201545671Y-208530970D01*
X201522572Y-208539235D01*
X201498773Y-208545196D01*
X201474505Y-208548796D01*
X201450001Y-208550000D01*
X200549999Y-208550000D01*
X200525495Y-208548796D01*
X200501227Y-208545196D01*
X200477428Y-208539235D01*
X200454329Y-208530970D01*
X200432150Y-208520480D01*
X200411107Y-208507868D01*
X200391401Y-208493253D01*
X200373223Y-208476777D01*
X200356747Y-208458599D01*
X200342132Y-208438893D01*
X200329520Y-208417850D01*
X200319030Y-208395671D01*
X200310765Y-208372572D01*
X200304804Y-208348773D01*
X200301204Y-208324505D01*
X200300000Y-208300001D01*
X200300000Y-207649999D01*
X200301204Y-207625495D01*
X200304804Y-207601227D01*
X200310765Y-207577428D01*
X200319030Y-207554329D01*
X200329520Y-207532150D01*
X200342132Y-207511107D01*
X200356747Y-207491401D01*
X200373223Y-207473223D01*
X200391401Y-207456747D01*
X200411107Y-207442132D01*
X200432150Y-207429520D01*
X200454329Y-207419030D01*
X200477428Y-207410765D01*
X200501227Y-207404804D01*
X200525495Y-207401204D01*
X200549999Y-207400000D01*
X201450001Y-207400000D01*
X201474505Y-207401204D01*
G37*
G04 #@! TD.AperFunction*
G04 #@! TA.AperFunction,SMDPad,CuDef*
G36*
X201474505Y-187476204D02*
G01*
X201498773Y-187479804D01*
X201522572Y-187485765D01*
X201545671Y-187494030D01*
X201567850Y-187504520D01*
X201588893Y-187517132D01*
X201608599Y-187531747D01*
X201626777Y-187548223D01*
X201643253Y-187566401D01*
X201657868Y-187586107D01*
X201670480Y-187607150D01*
X201680970Y-187629329D01*
X201689235Y-187652428D01*
X201695196Y-187676227D01*
X201698796Y-187700495D01*
X201700000Y-187724999D01*
X201700000Y-188375001D01*
X201698796Y-188399505D01*
X201695196Y-188423773D01*
X201689235Y-188447572D01*
X201680970Y-188470671D01*
X201670480Y-188492850D01*
X201657868Y-188513893D01*
X201643253Y-188533599D01*
X201626777Y-188551777D01*
X201608599Y-188568253D01*
X201588893Y-188582868D01*
X201567850Y-188595480D01*
X201545671Y-188605970D01*
X201522572Y-188614235D01*
X201498773Y-188620196D01*
X201474505Y-188623796D01*
X201450001Y-188625000D01*
X200549999Y-188625000D01*
X200525495Y-188623796D01*
X200501227Y-188620196D01*
X200477428Y-188614235D01*
X200454329Y-188605970D01*
X200432150Y-188595480D01*
X200411107Y-188582868D01*
X200391401Y-188568253D01*
X200373223Y-188551777D01*
X200356747Y-188533599D01*
X200342132Y-188513893D01*
X200329520Y-188492850D01*
X200319030Y-188470671D01*
X200310765Y-188447572D01*
X200304804Y-188423773D01*
X200301204Y-188399505D01*
X200300000Y-188375001D01*
X200300000Y-187724999D01*
X200301204Y-187700495D01*
X200304804Y-187676227D01*
X200310765Y-187652428D01*
X200319030Y-187629329D01*
X200329520Y-187607150D01*
X200342132Y-187586107D01*
X200356747Y-187566401D01*
X200373223Y-187548223D01*
X200391401Y-187531747D01*
X200411107Y-187517132D01*
X200432150Y-187504520D01*
X200454329Y-187494030D01*
X200477428Y-187485765D01*
X200501227Y-187479804D01*
X200525495Y-187476204D01*
X200549999Y-187475000D01*
X201450001Y-187475000D01*
X201474505Y-187476204D01*
G37*
G04 #@! TD.AperFunction*
G04 #@! TA.AperFunction,SMDPad,CuDef*
G36*
X201474505Y-185426204D02*
G01*
X201498773Y-185429804D01*
X201522572Y-185435765D01*
X201545671Y-185444030D01*
X201567850Y-185454520D01*
X201588893Y-185467132D01*
X201608599Y-185481747D01*
X201626777Y-185498223D01*
X201643253Y-185516401D01*
X201657868Y-185536107D01*
X201670480Y-185557150D01*
X201680970Y-185579329D01*
X201689235Y-185602428D01*
X201695196Y-185626227D01*
X201698796Y-185650495D01*
X201700000Y-185674999D01*
X201700000Y-186325001D01*
X201698796Y-186349505D01*
X201695196Y-186373773D01*
X201689235Y-186397572D01*
X201680970Y-186420671D01*
X201670480Y-186442850D01*
X201657868Y-186463893D01*
X201643253Y-186483599D01*
X201626777Y-186501777D01*
X201608599Y-186518253D01*
X201588893Y-186532868D01*
X201567850Y-186545480D01*
X201545671Y-186555970D01*
X201522572Y-186564235D01*
X201498773Y-186570196D01*
X201474505Y-186573796D01*
X201450001Y-186575000D01*
X200549999Y-186575000D01*
X200525495Y-186573796D01*
X200501227Y-186570196D01*
X200477428Y-186564235D01*
X200454329Y-186555970D01*
X200432150Y-186545480D01*
X200411107Y-186532868D01*
X200391401Y-186518253D01*
X200373223Y-186501777D01*
X200356747Y-186483599D01*
X200342132Y-186463893D01*
X200329520Y-186442850D01*
X200319030Y-186420671D01*
X200310765Y-186397572D01*
X200304804Y-186373773D01*
X200301204Y-186349505D01*
X200300000Y-186325001D01*
X200300000Y-185674999D01*
X200301204Y-185650495D01*
X200304804Y-185626227D01*
X200310765Y-185602428D01*
X200319030Y-185579329D01*
X200329520Y-185557150D01*
X200342132Y-185536107D01*
X200356747Y-185516401D01*
X200373223Y-185498223D01*
X200391401Y-185481747D01*
X200411107Y-185467132D01*
X200432150Y-185454520D01*
X200454329Y-185444030D01*
X200477428Y-185435765D01*
X200501227Y-185429804D01*
X200525495Y-185426204D01*
X200549999Y-185425000D01*
X201450001Y-185425000D01*
X201474505Y-185426204D01*
G37*
G04 #@! TD.AperFunction*
G04 #@! TA.AperFunction,SMDPad,CuDef*
G36*
X181474505Y-209451204D02*
G01*
X181498773Y-209454804D01*
X181522572Y-209460765D01*
X181545671Y-209469030D01*
X181567850Y-209479520D01*
X181588893Y-209492132D01*
X181608599Y-209506747D01*
X181626777Y-209523223D01*
X181643253Y-209541401D01*
X181657868Y-209561107D01*
X181670480Y-209582150D01*
X181680970Y-209604329D01*
X181689235Y-209627428D01*
X181695196Y-209651227D01*
X181698796Y-209675495D01*
X181700000Y-209699999D01*
X181700000Y-210350001D01*
X181698796Y-210374505D01*
X181695196Y-210398773D01*
X181689235Y-210422572D01*
X181680970Y-210445671D01*
X181670480Y-210467850D01*
X181657868Y-210488893D01*
X181643253Y-210508599D01*
X181626777Y-210526777D01*
X181608599Y-210543253D01*
X181588893Y-210557868D01*
X181567850Y-210570480D01*
X181545671Y-210580970D01*
X181522572Y-210589235D01*
X181498773Y-210595196D01*
X181474505Y-210598796D01*
X181450001Y-210600000D01*
X180549999Y-210600000D01*
X180525495Y-210598796D01*
X180501227Y-210595196D01*
X180477428Y-210589235D01*
X180454329Y-210580970D01*
X180432150Y-210570480D01*
X180411107Y-210557868D01*
X180391401Y-210543253D01*
X180373223Y-210526777D01*
X180356747Y-210508599D01*
X180342132Y-210488893D01*
X180329520Y-210467850D01*
X180319030Y-210445671D01*
X180310765Y-210422572D01*
X180304804Y-210398773D01*
X180301204Y-210374505D01*
X180300000Y-210350001D01*
X180300000Y-209699999D01*
X180301204Y-209675495D01*
X180304804Y-209651227D01*
X180310765Y-209627428D01*
X180319030Y-209604329D01*
X180329520Y-209582150D01*
X180342132Y-209561107D01*
X180356747Y-209541401D01*
X180373223Y-209523223D01*
X180391401Y-209506747D01*
X180411107Y-209492132D01*
X180432150Y-209479520D01*
X180454329Y-209469030D01*
X180477428Y-209460765D01*
X180501227Y-209454804D01*
X180525495Y-209451204D01*
X180549999Y-209450000D01*
X181450001Y-209450000D01*
X181474505Y-209451204D01*
G37*
G04 #@! TD.AperFunction*
G04 #@! TA.AperFunction,SMDPad,CuDef*
G36*
X181474505Y-207401204D02*
G01*
X181498773Y-207404804D01*
X181522572Y-207410765D01*
X181545671Y-207419030D01*
X181567850Y-207429520D01*
X181588893Y-207442132D01*
X181608599Y-207456747D01*
X181626777Y-207473223D01*
X181643253Y-207491401D01*
X181657868Y-207511107D01*
X181670480Y-207532150D01*
X181680970Y-207554329D01*
X181689235Y-207577428D01*
X181695196Y-207601227D01*
X181698796Y-207625495D01*
X181700000Y-207649999D01*
X181700000Y-208300001D01*
X181698796Y-208324505D01*
X181695196Y-208348773D01*
X181689235Y-208372572D01*
X181680970Y-208395671D01*
X181670480Y-208417850D01*
X181657868Y-208438893D01*
X181643253Y-208458599D01*
X181626777Y-208476777D01*
X181608599Y-208493253D01*
X181588893Y-208507868D01*
X181567850Y-208520480D01*
X181545671Y-208530970D01*
X181522572Y-208539235D01*
X181498773Y-208545196D01*
X181474505Y-208548796D01*
X181450001Y-208550000D01*
X180549999Y-208550000D01*
X180525495Y-208548796D01*
X180501227Y-208545196D01*
X180477428Y-208539235D01*
X180454329Y-208530970D01*
X180432150Y-208520480D01*
X180411107Y-208507868D01*
X180391401Y-208493253D01*
X180373223Y-208476777D01*
X180356747Y-208458599D01*
X180342132Y-208438893D01*
X180329520Y-208417850D01*
X180319030Y-208395671D01*
X180310765Y-208372572D01*
X180304804Y-208348773D01*
X180301204Y-208324505D01*
X180300000Y-208300001D01*
X180300000Y-207649999D01*
X180301204Y-207625495D01*
X180304804Y-207601227D01*
X180310765Y-207577428D01*
X180319030Y-207554329D01*
X180329520Y-207532150D01*
X180342132Y-207511107D01*
X180356747Y-207491401D01*
X180373223Y-207473223D01*
X180391401Y-207456747D01*
X180411107Y-207442132D01*
X180432150Y-207429520D01*
X180454329Y-207419030D01*
X180477428Y-207410765D01*
X180501227Y-207404804D01*
X180525495Y-207401204D01*
X180549999Y-207400000D01*
X181450001Y-207400000D01*
X181474505Y-207401204D01*
G37*
G04 #@! TD.AperFunction*
G04 #@! TA.AperFunction,SMDPad,CuDef*
G36*
X181474505Y-187451204D02*
G01*
X181498773Y-187454804D01*
X181522572Y-187460765D01*
X181545671Y-187469030D01*
X181567850Y-187479520D01*
X181588893Y-187492132D01*
X181608599Y-187506747D01*
X181626777Y-187523223D01*
X181643253Y-187541401D01*
X181657868Y-187561107D01*
X181670480Y-187582150D01*
X181680970Y-187604329D01*
X181689235Y-187627428D01*
X181695196Y-187651227D01*
X181698796Y-187675495D01*
X181700000Y-187699999D01*
X181700000Y-188350001D01*
X181698796Y-188374505D01*
X181695196Y-188398773D01*
X181689235Y-188422572D01*
X181680970Y-188445671D01*
X181670480Y-188467850D01*
X181657868Y-188488893D01*
X181643253Y-188508599D01*
X181626777Y-188526777D01*
X181608599Y-188543253D01*
X181588893Y-188557868D01*
X181567850Y-188570480D01*
X181545671Y-188580970D01*
X181522572Y-188589235D01*
X181498773Y-188595196D01*
X181474505Y-188598796D01*
X181450001Y-188600000D01*
X180549999Y-188600000D01*
X180525495Y-188598796D01*
X180501227Y-188595196D01*
X180477428Y-188589235D01*
X180454329Y-188580970D01*
X180432150Y-188570480D01*
X180411107Y-188557868D01*
X180391401Y-188543253D01*
X180373223Y-188526777D01*
X180356747Y-188508599D01*
X180342132Y-188488893D01*
X180329520Y-188467850D01*
X180319030Y-188445671D01*
X180310765Y-188422572D01*
X180304804Y-188398773D01*
X180301204Y-188374505D01*
X180300000Y-188350001D01*
X180300000Y-187699999D01*
X180301204Y-187675495D01*
X180304804Y-187651227D01*
X180310765Y-187627428D01*
X180319030Y-187604329D01*
X180329520Y-187582150D01*
X180342132Y-187561107D01*
X180356747Y-187541401D01*
X180373223Y-187523223D01*
X180391401Y-187506747D01*
X180411107Y-187492132D01*
X180432150Y-187479520D01*
X180454329Y-187469030D01*
X180477428Y-187460765D01*
X180501227Y-187454804D01*
X180525495Y-187451204D01*
X180549999Y-187450000D01*
X181450001Y-187450000D01*
X181474505Y-187451204D01*
G37*
G04 #@! TD.AperFunction*
G04 #@! TA.AperFunction,SMDPad,CuDef*
G36*
X181474505Y-185401204D02*
G01*
X181498773Y-185404804D01*
X181522572Y-185410765D01*
X181545671Y-185419030D01*
X181567850Y-185429520D01*
X181588893Y-185442132D01*
X181608599Y-185456747D01*
X181626777Y-185473223D01*
X181643253Y-185491401D01*
X181657868Y-185511107D01*
X181670480Y-185532150D01*
X181680970Y-185554329D01*
X181689235Y-185577428D01*
X181695196Y-185601227D01*
X181698796Y-185625495D01*
X181700000Y-185649999D01*
X181700000Y-186300001D01*
X181698796Y-186324505D01*
X181695196Y-186348773D01*
X181689235Y-186372572D01*
X181680970Y-186395671D01*
X181670480Y-186417850D01*
X181657868Y-186438893D01*
X181643253Y-186458599D01*
X181626777Y-186476777D01*
X181608599Y-186493253D01*
X181588893Y-186507868D01*
X181567850Y-186520480D01*
X181545671Y-186530970D01*
X181522572Y-186539235D01*
X181498773Y-186545196D01*
X181474505Y-186548796D01*
X181450001Y-186550000D01*
X180549999Y-186550000D01*
X180525495Y-186548796D01*
X180501227Y-186545196D01*
X180477428Y-186539235D01*
X180454329Y-186530970D01*
X180432150Y-186520480D01*
X180411107Y-186507868D01*
X180391401Y-186493253D01*
X180373223Y-186476777D01*
X180356747Y-186458599D01*
X180342132Y-186438893D01*
X180329520Y-186417850D01*
X180319030Y-186395671D01*
X180310765Y-186372572D01*
X180304804Y-186348773D01*
X180301204Y-186324505D01*
X180300000Y-186300001D01*
X180300000Y-185649999D01*
X180301204Y-185625495D01*
X180304804Y-185601227D01*
X180310765Y-185577428D01*
X180319030Y-185554329D01*
X180329520Y-185532150D01*
X180342132Y-185511107D01*
X180356747Y-185491401D01*
X180373223Y-185473223D01*
X180391401Y-185456747D01*
X180411107Y-185442132D01*
X180432150Y-185429520D01*
X180454329Y-185419030D01*
X180477428Y-185410765D01*
X180501227Y-185404804D01*
X180525495Y-185401204D01*
X180549999Y-185400000D01*
X181450001Y-185400000D01*
X181474505Y-185401204D01*
G37*
G04 #@! TD.AperFunction*
G04 #@! TA.AperFunction,SMDPad,CuDef*
G36*
X161474505Y-209451204D02*
G01*
X161498773Y-209454804D01*
X161522572Y-209460765D01*
X161545671Y-209469030D01*
X161567850Y-209479520D01*
X161588893Y-209492132D01*
X161608599Y-209506747D01*
X161626777Y-209523223D01*
X161643253Y-209541401D01*
X161657868Y-209561107D01*
X161670480Y-209582150D01*
X161680970Y-209604329D01*
X161689235Y-209627428D01*
X161695196Y-209651227D01*
X161698796Y-209675495D01*
X161700000Y-209699999D01*
X161700000Y-210350001D01*
X161698796Y-210374505D01*
X161695196Y-210398773D01*
X161689235Y-210422572D01*
X161680970Y-210445671D01*
X161670480Y-210467850D01*
X161657868Y-210488893D01*
X161643253Y-210508599D01*
X161626777Y-210526777D01*
X161608599Y-210543253D01*
X161588893Y-210557868D01*
X161567850Y-210570480D01*
X161545671Y-210580970D01*
X161522572Y-210589235D01*
X161498773Y-210595196D01*
X161474505Y-210598796D01*
X161450001Y-210600000D01*
X160549999Y-210600000D01*
X160525495Y-210598796D01*
X160501227Y-210595196D01*
X160477428Y-210589235D01*
X160454329Y-210580970D01*
X160432150Y-210570480D01*
X160411107Y-210557868D01*
X160391401Y-210543253D01*
X160373223Y-210526777D01*
X160356747Y-210508599D01*
X160342132Y-210488893D01*
X160329520Y-210467850D01*
X160319030Y-210445671D01*
X160310765Y-210422572D01*
X160304804Y-210398773D01*
X160301204Y-210374505D01*
X160300000Y-210350001D01*
X160300000Y-209699999D01*
X160301204Y-209675495D01*
X160304804Y-209651227D01*
X160310765Y-209627428D01*
X160319030Y-209604329D01*
X160329520Y-209582150D01*
X160342132Y-209561107D01*
X160356747Y-209541401D01*
X160373223Y-209523223D01*
X160391401Y-209506747D01*
X160411107Y-209492132D01*
X160432150Y-209479520D01*
X160454329Y-209469030D01*
X160477428Y-209460765D01*
X160501227Y-209454804D01*
X160525495Y-209451204D01*
X160549999Y-209450000D01*
X161450001Y-209450000D01*
X161474505Y-209451204D01*
G37*
G04 #@! TD.AperFunction*
G04 #@! TA.AperFunction,SMDPad,CuDef*
G36*
X161474505Y-207401204D02*
G01*
X161498773Y-207404804D01*
X161522572Y-207410765D01*
X161545671Y-207419030D01*
X161567850Y-207429520D01*
X161588893Y-207442132D01*
X161608599Y-207456747D01*
X161626777Y-207473223D01*
X161643253Y-207491401D01*
X161657868Y-207511107D01*
X161670480Y-207532150D01*
X161680970Y-207554329D01*
X161689235Y-207577428D01*
X161695196Y-207601227D01*
X161698796Y-207625495D01*
X161700000Y-207649999D01*
X161700000Y-208300001D01*
X161698796Y-208324505D01*
X161695196Y-208348773D01*
X161689235Y-208372572D01*
X161680970Y-208395671D01*
X161670480Y-208417850D01*
X161657868Y-208438893D01*
X161643253Y-208458599D01*
X161626777Y-208476777D01*
X161608599Y-208493253D01*
X161588893Y-208507868D01*
X161567850Y-208520480D01*
X161545671Y-208530970D01*
X161522572Y-208539235D01*
X161498773Y-208545196D01*
X161474505Y-208548796D01*
X161450001Y-208550000D01*
X160549999Y-208550000D01*
X160525495Y-208548796D01*
X160501227Y-208545196D01*
X160477428Y-208539235D01*
X160454329Y-208530970D01*
X160432150Y-208520480D01*
X160411107Y-208507868D01*
X160391401Y-208493253D01*
X160373223Y-208476777D01*
X160356747Y-208458599D01*
X160342132Y-208438893D01*
X160329520Y-208417850D01*
X160319030Y-208395671D01*
X160310765Y-208372572D01*
X160304804Y-208348773D01*
X160301204Y-208324505D01*
X160300000Y-208300001D01*
X160300000Y-207649999D01*
X160301204Y-207625495D01*
X160304804Y-207601227D01*
X160310765Y-207577428D01*
X160319030Y-207554329D01*
X160329520Y-207532150D01*
X160342132Y-207511107D01*
X160356747Y-207491401D01*
X160373223Y-207473223D01*
X160391401Y-207456747D01*
X160411107Y-207442132D01*
X160432150Y-207429520D01*
X160454329Y-207419030D01*
X160477428Y-207410765D01*
X160501227Y-207404804D01*
X160525495Y-207401204D01*
X160549999Y-207400000D01*
X161450001Y-207400000D01*
X161474505Y-207401204D01*
G37*
G04 #@! TD.AperFunction*
G04 #@! TA.AperFunction,SMDPad,CuDef*
G36*
X179474505Y-187426204D02*
G01*
X179498773Y-187429804D01*
X179522572Y-187435765D01*
X179545671Y-187444030D01*
X179567850Y-187454520D01*
X179588893Y-187467132D01*
X179608599Y-187481747D01*
X179626777Y-187498223D01*
X179643253Y-187516401D01*
X179657868Y-187536107D01*
X179670480Y-187557150D01*
X179680970Y-187579329D01*
X179689235Y-187602428D01*
X179695196Y-187626227D01*
X179698796Y-187650495D01*
X179700000Y-187674999D01*
X179700000Y-188325001D01*
X179698796Y-188349505D01*
X179695196Y-188373773D01*
X179689235Y-188397572D01*
X179680970Y-188420671D01*
X179670480Y-188442850D01*
X179657868Y-188463893D01*
X179643253Y-188483599D01*
X179626777Y-188501777D01*
X179608599Y-188518253D01*
X179588893Y-188532868D01*
X179567850Y-188545480D01*
X179545671Y-188555970D01*
X179522572Y-188564235D01*
X179498773Y-188570196D01*
X179474505Y-188573796D01*
X179450001Y-188575000D01*
X178549999Y-188575000D01*
X178525495Y-188573796D01*
X178501227Y-188570196D01*
X178477428Y-188564235D01*
X178454329Y-188555970D01*
X178432150Y-188545480D01*
X178411107Y-188532868D01*
X178391401Y-188518253D01*
X178373223Y-188501777D01*
X178356747Y-188483599D01*
X178342132Y-188463893D01*
X178329520Y-188442850D01*
X178319030Y-188420671D01*
X178310765Y-188397572D01*
X178304804Y-188373773D01*
X178301204Y-188349505D01*
X178300000Y-188325001D01*
X178300000Y-187674999D01*
X178301204Y-187650495D01*
X178304804Y-187626227D01*
X178310765Y-187602428D01*
X178319030Y-187579329D01*
X178329520Y-187557150D01*
X178342132Y-187536107D01*
X178356747Y-187516401D01*
X178373223Y-187498223D01*
X178391401Y-187481747D01*
X178411107Y-187467132D01*
X178432150Y-187454520D01*
X178454329Y-187444030D01*
X178477428Y-187435765D01*
X178501227Y-187429804D01*
X178525495Y-187426204D01*
X178549999Y-187425000D01*
X179450001Y-187425000D01*
X179474505Y-187426204D01*
G37*
G04 #@! TD.AperFunction*
G04 #@! TA.AperFunction,SMDPad,CuDef*
G36*
X179474505Y-185376204D02*
G01*
X179498773Y-185379804D01*
X179522572Y-185385765D01*
X179545671Y-185394030D01*
X179567850Y-185404520D01*
X179588893Y-185417132D01*
X179608599Y-185431747D01*
X179626777Y-185448223D01*
X179643253Y-185466401D01*
X179657868Y-185486107D01*
X179670480Y-185507150D01*
X179680970Y-185529329D01*
X179689235Y-185552428D01*
X179695196Y-185576227D01*
X179698796Y-185600495D01*
X179700000Y-185624999D01*
X179700000Y-186275001D01*
X179698796Y-186299505D01*
X179695196Y-186323773D01*
X179689235Y-186347572D01*
X179680970Y-186370671D01*
X179670480Y-186392850D01*
X179657868Y-186413893D01*
X179643253Y-186433599D01*
X179626777Y-186451777D01*
X179608599Y-186468253D01*
X179588893Y-186482868D01*
X179567850Y-186495480D01*
X179545671Y-186505970D01*
X179522572Y-186514235D01*
X179498773Y-186520196D01*
X179474505Y-186523796D01*
X179450001Y-186525000D01*
X178549999Y-186525000D01*
X178525495Y-186523796D01*
X178501227Y-186520196D01*
X178477428Y-186514235D01*
X178454329Y-186505970D01*
X178432150Y-186495480D01*
X178411107Y-186482868D01*
X178391401Y-186468253D01*
X178373223Y-186451777D01*
X178356747Y-186433599D01*
X178342132Y-186413893D01*
X178329520Y-186392850D01*
X178319030Y-186370671D01*
X178310765Y-186347572D01*
X178304804Y-186323773D01*
X178301204Y-186299505D01*
X178300000Y-186275001D01*
X178300000Y-185624999D01*
X178301204Y-185600495D01*
X178304804Y-185576227D01*
X178310765Y-185552428D01*
X178319030Y-185529329D01*
X178329520Y-185507150D01*
X178342132Y-185486107D01*
X178356747Y-185466401D01*
X178373223Y-185448223D01*
X178391401Y-185431747D01*
X178411107Y-185417132D01*
X178432150Y-185404520D01*
X178454329Y-185394030D01*
X178477428Y-185385765D01*
X178501227Y-185379804D01*
X178525495Y-185376204D01*
X178549999Y-185375000D01*
X179450001Y-185375000D01*
X179474505Y-185376204D01*
G37*
G04 #@! TD.AperFunction*
G04 #@! TA.AperFunction,SMDPad,CuDef*
G36*
X141474505Y-209451204D02*
G01*
X141498773Y-209454804D01*
X141522572Y-209460765D01*
X141545671Y-209469030D01*
X141567850Y-209479520D01*
X141588893Y-209492132D01*
X141608599Y-209506747D01*
X141626777Y-209523223D01*
X141643253Y-209541401D01*
X141657868Y-209561107D01*
X141670480Y-209582150D01*
X141680970Y-209604329D01*
X141689235Y-209627428D01*
X141695196Y-209651227D01*
X141698796Y-209675495D01*
X141700000Y-209699999D01*
X141700000Y-210350001D01*
X141698796Y-210374505D01*
X141695196Y-210398773D01*
X141689235Y-210422572D01*
X141680970Y-210445671D01*
X141670480Y-210467850D01*
X141657868Y-210488893D01*
X141643253Y-210508599D01*
X141626777Y-210526777D01*
X141608599Y-210543253D01*
X141588893Y-210557868D01*
X141567850Y-210570480D01*
X141545671Y-210580970D01*
X141522572Y-210589235D01*
X141498773Y-210595196D01*
X141474505Y-210598796D01*
X141450001Y-210600000D01*
X140549999Y-210600000D01*
X140525495Y-210598796D01*
X140501227Y-210595196D01*
X140477428Y-210589235D01*
X140454329Y-210580970D01*
X140432150Y-210570480D01*
X140411107Y-210557868D01*
X140391401Y-210543253D01*
X140373223Y-210526777D01*
X140356747Y-210508599D01*
X140342132Y-210488893D01*
X140329520Y-210467850D01*
X140319030Y-210445671D01*
X140310765Y-210422572D01*
X140304804Y-210398773D01*
X140301204Y-210374505D01*
X140300000Y-210350001D01*
X140300000Y-209699999D01*
X140301204Y-209675495D01*
X140304804Y-209651227D01*
X140310765Y-209627428D01*
X140319030Y-209604329D01*
X140329520Y-209582150D01*
X140342132Y-209561107D01*
X140356747Y-209541401D01*
X140373223Y-209523223D01*
X140391401Y-209506747D01*
X140411107Y-209492132D01*
X140432150Y-209479520D01*
X140454329Y-209469030D01*
X140477428Y-209460765D01*
X140501227Y-209454804D01*
X140525495Y-209451204D01*
X140549999Y-209450000D01*
X141450001Y-209450000D01*
X141474505Y-209451204D01*
G37*
G04 #@! TD.AperFunction*
G04 #@! TA.AperFunction,SMDPad,CuDef*
G36*
X141474505Y-207401204D02*
G01*
X141498773Y-207404804D01*
X141522572Y-207410765D01*
X141545671Y-207419030D01*
X141567850Y-207429520D01*
X141588893Y-207442132D01*
X141608599Y-207456747D01*
X141626777Y-207473223D01*
X141643253Y-207491401D01*
X141657868Y-207511107D01*
X141670480Y-207532150D01*
X141680970Y-207554329D01*
X141689235Y-207577428D01*
X141695196Y-207601227D01*
X141698796Y-207625495D01*
X141700000Y-207649999D01*
X141700000Y-208300001D01*
X141698796Y-208324505D01*
X141695196Y-208348773D01*
X141689235Y-208372572D01*
X141680970Y-208395671D01*
X141670480Y-208417850D01*
X141657868Y-208438893D01*
X141643253Y-208458599D01*
X141626777Y-208476777D01*
X141608599Y-208493253D01*
X141588893Y-208507868D01*
X141567850Y-208520480D01*
X141545671Y-208530970D01*
X141522572Y-208539235D01*
X141498773Y-208545196D01*
X141474505Y-208548796D01*
X141450001Y-208550000D01*
X140549999Y-208550000D01*
X140525495Y-208548796D01*
X140501227Y-208545196D01*
X140477428Y-208539235D01*
X140454329Y-208530970D01*
X140432150Y-208520480D01*
X140411107Y-208507868D01*
X140391401Y-208493253D01*
X140373223Y-208476777D01*
X140356747Y-208458599D01*
X140342132Y-208438893D01*
X140329520Y-208417850D01*
X140319030Y-208395671D01*
X140310765Y-208372572D01*
X140304804Y-208348773D01*
X140301204Y-208324505D01*
X140300000Y-208300001D01*
X140300000Y-207649999D01*
X140301204Y-207625495D01*
X140304804Y-207601227D01*
X140310765Y-207577428D01*
X140319030Y-207554329D01*
X140329520Y-207532150D01*
X140342132Y-207511107D01*
X140356747Y-207491401D01*
X140373223Y-207473223D01*
X140391401Y-207456747D01*
X140411107Y-207442132D01*
X140432150Y-207429520D01*
X140454329Y-207419030D01*
X140477428Y-207410765D01*
X140501227Y-207404804D01*
X140525495Y-207401204D01*
X140549999Y-207400000D01*
X141450001Y-207400000D01*
X141474505Y-207401204D01*
G37*
G04 #@! TD.AperFunction*
G04 #@! TA.AperFunction,SMDPad,CuDef*
G36*
X141474505Y-186476204D02*
G01*
X141498773Y-186479804D01*
X141522572Y-186485765D01*
X141545671Y-186494030D01*
X141567850Y-186504520D01*
X141588893Y-186517132D01*
X141608599Y-186531747D01*
X141626777Y-186548223D01*
X141643253Y-186566401D01*
X141657868Y-186586107D01*
X141670480Y-186607150D01*
X141680970Y-186629329D01*
X141689235Y-186652428D01*
X141695196Y-186676227D01*
X141698796Y-186700495D01*
X141700000Y-186724999D01*
X141700000Y-187375001D01*
X141698796Y-187399505D01*
X141695196Y-187423773D01*
X141689235Y-187447572D01*
X141680970Y-187470671D01*
X141670480Y-187492850D01*
X141657868Y-187513893D01*
X141643253Y-187533599D01*
X141626777Y-187551777D01*
X141608599Y-187568253D01*
X141588893Y-187582868D01*
X141567850Y-187595480D01*
X141545671Y-187605970D01*
X141522572Y-187614235D01*
X141498773Y-187620196D01*
X141474505Y-187623796D01*
X141450001Y-187625000D01*
X140549999Y-187625000D01*
X140525495Y-187623796D01*
X140501227Y-187620196D01*
X140477428Y-187614235D01*
X140454329Y-187605970D01*
X140432150Y-187595480D01*
X140411107Y-187582868D01*
X140391401Y-187568253D01*
X140373223Y-187551777D01*
X140356747Y-187533599D01*
X140342132Y-187513893D01*
X140329520Y-187492850D01*
X140319030Y-187470671D01*
X140310765Y-187447572D01*
X140304804Y-187423773D01*
X140301204Y-187399505D01*
X140300000Y-187375001D01*
X140300000Y-186724999D01*
X140301204Y-186700495D01*
X140304804Y-186676227D01*
X140310765Y-186652428D01*
X140319030Y-186629329D01*
X140329520Y-186607150D01*
X140342132Y-186586107D01*
X140356747Y-186566401D01*
X140373223Y-186548223D01*
X140391401Y-186531747D01*
X140411107Y-186517132D01*
X140432150Y-186504520D01*
X140454329Y-186494030D01*
X140477428Y-186485765D01*
X140501227Y-186479804D01*
X140525495Y-186476204D01*
X140549999Y-186475000D01*
X141450001Y-186475000D01*
X141474505Y-186476204D01*
G37*
G04 #@! TD.AperFunction*
G04 #@! TA.AperFunction,SMDPad,CuDef*
G36*
X141474505Y-184426204D02*
G01*
X141498773Y-184429804D01*
X141522572Y-184435765D01*
X141545671Y-184444030D01*
X141567850Y-184454520D01*
X141588893Y-184467132D01*
X141608599Y-184481747D01*
X141626777Y-184498223D01*
X141643253Y-184516401D01*
X141657868Y-184536107D01*
X141670480Y-184557150D01*
X141680970Y-184579329D01*
X141689235Y-184602428D01*
X141695196Y-184626227D01*
X141698796Y-184650495D01*
X141700000Y-184674999D01*
X141700000Y-185325001D01*
X141698796Y-185349505D01*
X141695196Y-185373773D01*
X141689235Y-185397572D01*
X141680970Y-185420671D01*
X141670480Y-185442850D01*
X141657868Y-185463893D01*
X141643253Y-185483599D01*
X141626777Y-185501777D01*
X141608599Y-185518253D01*
X141588893Y-185532868D01*
X141567850Y-185545480D01*
X141545671Y-185555970D01*
X141522572Y-185564235D01*
X141498773Y-185570196D01*
X141474505Y-185573796D01*
X141450001Y-185575000D01*
X140549999Y-185575000D01*
X140525495Y-185573796D01*
X140501227Y-185570196D01*
X140477428Y-185564235D01*
X140454329Y-185555970D01*
X140432150Y-185545480D01*
X140411107Y-185532868D01*
X140391401Y-185518253D01*
X140373223Y-185501777D01*
X140356747Y-185483599D01*
X140342132Y-185463893D01*
X140329520Y-185442850D01*
X140319030Y-185420671D01*
X140310765Y-185397572D01*
X140304804Y-185373773D01*
X140301204Y-185349505D01*
X140300000Y-185325001D01*
X140300000Y-184674999D01*
X140301204Y-184650495D01*
X140304804Y-184626227D01*
X140310765Y-184602428D01*
X140319030Y-184579329D01*
X140329520Y-184557150D01*
X140342132Y-184536107D01*
X140356747Y-184516401D01*
X140373223Y-184498223D01*
X140391401Y-184481747D01*
X140411107Y-184467132D01*
X140432150Y-184454520D01*
X140454329Y-184444030D01*
X140477428Y-184435765D01*
X140501227Y-184429804D01*
X140525495Y-184426204D01*
X140549999Y-184425000D01*
X141450001Y-184425000D01*
X141474505Y-184426204D01*
G37*
G04 #@! TD.AperFunction*
G04 #@! TA.AperFunction,SMDPad,CuDef*
G36*
X121474505Y-209451204D02*
G01*
X121498773Y-209454804D01*
X121522572Y-209460765D01*
X121545671Y-209469030D01*
X121567850Y-209479520D01*
X121588893Y-209492132D01*
X121608599Y-209506747D01*
X121626777Y-209523223D01*
X121643253Y-209541401D01*
X121657868Y-209561107D01*
X121670480Y-209582150D01*
X121680970Y-209604329D01*
X121689235Y-209627428D01*
X121695196Y-209651227D01*
X121698796Y-209675495D01*
X121700000Y-209699999D01*
X121700000Y-210350001D01*
X121698796Y-210374505D01*
X121695196Y-210398773D01*
X121689235Y-210422572D01*
X121680970Y-210445671D01*
X121670480Y-210467850D01*
X121657868Y-210488893D01*
X121643253Y-210508599D01*
X121626777Y-210526777D01*
X121608599Y-210543253D01*
X121588893Y-210557868D01*
X121567850Y-210570480D01*
X121545671Y-210580970D01*
X121522572Y-210589235D01*
X121498773Y-210595196D01*
X121474505Y-210598796D01*
X121450001Y-210600000D01*
X120549999Y-210600000D01*
X120525495Y-210598796D01*
X120501227Y-210595196D01*
X120477428Y-210589235D01*
X120454329Y-210580970D01*
X120432150Y-210570480D01*
X120411107Y-210557868D01*
X120391401Y-210543253D01*
X120373223Y-210526777D01*
X120356747Y-210508599D01*
X120342132Y-210488893D01*
X120329520Y-210467850D01*
X120319030Y-210445671D01*
X120310765Y-210422572D01*
X120304804Y-210398773D01*
X120301204Y-210374505D01*
X120300000Y-210350001D01*
X120300000Y-209699999D01*
X120301204Y-209675495D01*
X120304804Y-209651227D01*
X120310765Y-209627428D01*
X120319030Y-209604329D01*
X120329520Y-209582150D01*
X120342132Y-209561107D01*
X120356747Y-209541401D01*
X120373223Y-209523223D01*
X120391401Y-209506747D01*
X120411107Y-209492132D01*
X120432150Y-209479520D01*
X120454329Y-209469030D01*
X120477428Y-209460765D01*
X120501227Y-209454804D01*
X120525495Y-209451204D01*
X120549999Y-209450000D01*
X121450001Y-209450000D01*
X121474505Y-209451204D01*
G37*
G04 #@! TD.AperFunction*
G04 #@! TA.AperFunction,SMDPad,CuDef*
G36*
X121474505Y-207401204D02*
G01*
X121498773Y-207404804D01*
X121522572Y-207410765D01*
X121545671Y-207419030D01*
X121567850Y-207429520D01*
X121588893Y-207442132D01*
X121608599Y-207456747D01*
X121626777Y-207473223D01*
X121643253Y-207491401D01*
X121657868Y-207511107D01*
X121670480Y-207532150D01*
X121680970Y-207554329D01*
X121689235Y-207577428D01*
X121695196Y-207601227D01*
X121698796Y-207625495D01*
X121700000Y-207649999D01*
X121700000Y-208300001D01*
X121698796Y-208324505D01*
X121695196Y-208348773D01*
X121689235Y-208372572D01*
X121680970Y-208395671D01*
X121670480Y-208417850D01*
X121657868Y-208438893D01*
X121643253Y-208458599D01*
X121626777Y-208476777D01*
X121608599Y-208493253D01*
X121588893Y-208507868D01*
X121567850Y-208520480D01*
X121545671Y-208530970D01*
X121522572Y-208539235D01*
X121498773Y-208545196D01*
X121474505Y-208548796D01*
X121450001Y-208550000D01*
X120549999Y-208550000D01*
X120525495Y-208548796D01*
X120501227Y-208545196D01*
X120477428Y-208539235D01*
X120454329Y-208530970D01*
X120432150Y-208520480D01*
X120411107Y-208507868D01*
X120391401Y-208493253D01*
X120373223Y-208476777D01*
X120356747Y-208458599D01*
X120342132Y-208438893D01*
X120329520Y-208417850D01*
X120319030Y-208395671D01*
X120310765Y-208372572D01*
X120304804Y-208348773D01*
X120301204Y-208324505D01*
X120300000Y-208300001D01*
X120300000Y-207649999D01*
X120301204Y-207625495D01*
X120304804Y-207601227D01*
X120310765Y-207577428D01*
X120319030Y-207554329D01*
X120329520Y-207532150D01*
X120342132Y-207511107D01*
X120356747Y-207491401D01*
X120373223Y-207473223D01*
X120391401Y-207456747D01*
X120411107Y-207442132D01*
X120432150Y-207429520D01*
X120454329Y-207419030D01*
X120477428Y-207410765D01*
X120501227Y-207404804D01*
X120525495Y-207401204D01*
X120549999Y-207400000D01*
X121450001Y-207400000D01*
X121474505Y-207401204D01*
G37*
G04 #@! TD.AperFunction*
G04 #@! TA.AperFunction,SMDPad,CuDef*
G36*
X139474505Y-186451204D02*
G01*
X139498773Y-186454804D01*
X139522572Y-186460765D01*
X139545671Y-186469030D01*
X139567850Y-186479520D01*
X139588893Y-186492132D01*
X139608599Y-186506747D01*
X139626777Y-186523223D01*
X139643253Y-186541401D01*
X139657868Y-186561107D01*
X139670480Y-186582150D01*
X139680970Y-186604329D01*
X139689235Y-186627428D01*
X139695196Y-186651227D01*
X139698796Y-186675495D01*
X139700000Y-186699999D01*
X139700000Y-187350001D01*
X139698796Y-187374505D01*
X139695196Y-187398773D01*
X139689235Y-187422572D01*
X139680970Y-187445671D01*
X139670480Y-187467850D01*
X139657868Y-187488893D01*
X139643253Y-187508599D01*
X139626777Y-187526777D01*
X139608599Y-187543253D01*
X139588893Y-187557868D01*
X139567850Y-187570480D01*
X139545671Y-187580970D01*
X139522572Y-187589235D01*
X139498773Y-187595196D01*
X139474505Y-187598796D01*
X139450001Y-187600000D01*
X138549999Y-187600000D01*
X138525495Y-187598796D01*
X138501227Y-187595196D01*
X138477428Y-187589235D01*
X138454329Y-187580970D01*
X138432150Y-187570480D01*
X138411107Y-187557868D01*
X138391401Y-187543253D01*
X138373223Y-187526777D01*
X138356747Y-187508599D01*
X138342132Y-187488893D01*
X138329520Y-187467850D01*
X138319030Y-187445671D01*
X138310765Y-187422572D01*
X138304804Y-187398773D01*
X138301204Y-187374505D01*
X138300000Y-187350001D01*
X138300000Y-186699999D01*
X138301204Y-186675495D01*
X138304804Y-186651227D01*
X138310765Y-186627428D01*
X138319030Y-186604329D01*
X138329520Y-186582150D01*
X138342132Y-186561107D01*
X138356747Y-186541401D01*
X138373223Y-186523223D01*
X138391401Y-186506747D01*
X138411107Y-186492132D01*
X138432150Y-186479520D01*
X138454329Y-186469030D01*
X138477428Y-186460765D01*
X138501227Y-186454804D01*
X138525495Y-186451204D01*
X138549999Y-186450000D01*
X139450001Y-186450000D01*
X139474505Y-186451204D01*
G37*
G04 #@! TD.AperFunction*
G04 #@! TA.AperFunction,SMDPad,CuDef*
G36*
X139474505Y-184401204D02*
G01*
X139498773Y-184404804D01*
X139522572Y-184410765D01*
X139545671Y-184419030D01*
X139567850Y-184429520D01*
X139588893Y-184442132D01*
X139608599Y-184456747D01*
X139626777Y-184473223D01*
X139643253Y-184491401D01*
X139657868Y-184511107D01*
X139670480Y-184532150D01*
X139680970Y-184554329D01*
X139689235Y-184577428D01*
X139695196Y-184601227D01*
X139698796Y-184625495D01*
X139700000Y-184649999D01*
X139700000Y-185300001D01*
X139698796Y-185324505D01*
X139695196Y-185348773D01*
X139689235Y-185372572D01*
X139680970Y-185395671D01*
X139670480Y-185417850D01*
X139657868Y-185438893D01*
X139643253Y-185458599D01*
X139626777Y-185476777D01*
X139608599Y-185493253D01*
X139588893Y-185507868D01*
X139567850Y-185520480D01*
X139545671Y-185530970D01*
X139522572Y-185539235D01*
X139498773Y-185545196D01*
X139474505Y-185548796D01*
X139450001Y-185550000D01*
X138549999Y-185550000D01*
X138525495Y-185548796D01*
X138501227Y-185545196D01*
X138477428Y-185539235D01*
X138454329Y-185530970D01*
X138432150Y-185520480D01*
X138411107Y-185507868D01*
X138391401Y-185493253D01*
X138373223Y-185476777D01*
X138356747Y-185458599D01*
X138342132Y-185438893D01*
X138329520Y-185417850D01*
X138319030Y-185395671D01*
X138310765Y-185372572D01*
X138304804Y-185348773D01*
X138301204Y-185324505D01*
X138300000Y-185300001D01*
X138300000Y-184649999D01*
X138301204Y-184625495D01*
X138304804Y-184601227D01*
X138310765Y-184577428D01*
X138319030Y-184554329D01*
X138329520Y-184532150D01*
X138342132Y-184511107D01*
X138356747Y-184491401D01*
X138373223Y-184473223D01*
X138391401Y-184456747D01*
X138411107Y-184442132D01*
X138432150Y-184429520D01*
X138454329Y-184419030D01*
X138477428Y-184410765D01*
X138501227Y-184404804D01*
X138525495Y-184401204D01*
X138549999Y-184400000D01*
X139450001Y-184400000D01*
X139474505Y-184401204D01*
G37*
G04 #@! TD.AperFunction*
G04 #@! TA.AperFunction,SMDPad,CuDef*
G36*
X101474505Y-206451204D02*
G01*
X101498773Y-206454804D01*
X101522572Y-206460765D01*
X101545671Y-206469030D01*
X101567850Y-206479520D01*
X101588893Y-206492132D01*
X101608599Y-206506747D01*
X101626777Y-206523223D01*
X101643253Y-206541401D01*
X101657868Y-206561107D01*
X101670480Y-206582150D01*
X101680970Y-206604329D01*
X101689235Y-206627428D01*
X101695196Y-206651227D01*
X101698796Y-206675495D01*
X101700000Y-206699999D01*
X101700000Y-207350001D01*
X101698796Y-207374505D01*
X101695196Y-207398773D01*
X101689235Y-207422572D01*
X101680970Y-207445671D01*
X101670480Y-207467850D01*
X101657868Y-207488893D01*
X101643253Y-207508599D01*
X101626777Y-207526777D01*
X101608599Y-207543253D01*
X101588893Y-207557868D01*
X101567850Y-207570480D01*
X101545671Y-207580970D01*
X101522572Y-207589235D01*
X101498773Y-207595196D01*
X101474505Y-207598796D01*
X101450001Y-207600000D01*
X100549999Y-207600000D01*
X100525495Y-207598796D01*
X100501227Y-207595196D01*
X100477428Y-207589235D01*
X100454329Y-207580970D01*
X100432150Y-207570480D01*
X100411107Y-207557868D01*
X100391401Y-207543253D01*
X100373223Y-207526777D01*
X100356747Y-207508599D01*
X100342132Y-207488893D01*
X100329520Y-207467850D01*
X100319030Y-207445671D01*
X100310765Y-207422572D01*
X100304804Y-207398773D01*
X100301204Y-207374505D01*
X100300000Y-207350001D01*
X100300000Y-206699999D01*
X100301204Y-206675495D01*
X100304804Y-206651227D01*
X100310765Y-206627428D01*
X100319030Y-206604329D01*
X100329520Y-206582150D01*
X100342132Y-206561107D01*
X100356747Y-206541401D01*
X100373223Y-206523223D01*
X100391401Y-206506747D01*
X100411107Y-206492132D01*
X100432150Y-206479520D01*
X100454329Y-206469030D01*
X100477428Y-206460765D01*
X100501227Y-206454804D01*
X100525495Y-206451204D01*
X100549999Y-206450000D01*
X101450001Y-206450000D01*
X101474505Y-206451204D01*
G37*
G04 #@! TD.AperFunction*
G04 #@! TA.AperFunction,SMDPad,CuDef*
G36*
X101474505Y-204401204D02*
G01*
X101498773Y-204404804D01*
X101522572Y-204410765D01*
X101545671Y-204419030D01*
X101567850Y-204429520D01*
X101588893Y-204442132D01*
X101608599Y-204456747D01*
X101626777Y-204473223D01*
X101643253Y-204491401D01*
X101657868Y-204511107D01*
X101670480Y-204532150D01*
X101680970Y-204554329D01*
X101689235Y-204577428D01*
X101695196Y-204601227D01*
X101698796Y-204625495D01*
X101700000Y-204649999D01*
X101700000Y-205300001D01*
X101698796Y-205324505D01*
X101695196Y-205348773D01*
X101689235Y-205372572D01*
X101680970Y-205395671D01*
X101670480Y-205417850D01*
X101657868Y-205438893D01*
X101643253Y-205458599D01*
X101626777Y-205476777D01*
X101608599Y-205493253D01*
X101588893Y-205507868D01*
X101567850Y-205520480D01*
X101545671Y-205530970D01*
X101522572Y-205539235D01*
X101498773Y-205545196D01*
X101474505Y-205548796D01*
X101450001Y-205550000D01*
X100549999Y-205550000D01*
X100525495Y-205548796D01*
X100501227Y-205545196D01*
X100477428Y-205539235D01*
X100454329Y-205530970D01*
X100432150Y-205520480D01*
X100411107Y-205507868D01*
X100391401Y-205493253D01*
X100373223Y-205476777D01*
X100356747Y-205458599D01*
X100342132Y-205438893D01*
X100329520Y-205417850D01*
X100319030Y-205395671D01*
X100310765Y-205372572D01*
X100304804Y-205348773D01*
X100301204Y-205324505D01*
X100300000Y-205300001D01*
X100300000Y-204649999D01*
X100301204Y-204625495D01*
X100304804Y-204601227D01*
X100310765Y-204577428D01*
X100319030Y-204554329D01*
X100329520Y-204532150D01*
X100342132Y-204511107D01*
X100356747Y-204491401D01*
X100373223Y-204473223D01*
X100391401Y-204456747D01*
X100411107Y-204442132D01*
X100432150Y-204429520D01*
X100454329Y-204419030D01*
X100477428Y-204410765D01*
X100501227Y-204404804D01*
X100525495Y-204401204D01*
X100549999Y-204400000D01*
X101450001Y-204400000D01*
X101474505Y-204401204D01*
G37*
G04 #@! TD.AperFunction*
G04 #@! TA.AperFunction,SMDPad,CuDef*
G36*
X101474505Y-187476204D02*
G01*
X101498773Y-187479804D01*
X101522572Y-187485765D01*
X101545671Y-187494030D01*
X101567850Y-187504520D01*
X101588893Y-187517132D01*
X101608599Y-187531747D01*
X101626777Y-187548223D01*
X101643253Y-187566401D01*
X101657868Y-187586107D01*
X101670480Y-187607150D01*
X101680970Y-187629329D01*
X101689235Y-187652428D01*
X101695196Y-187676227D01*
X101698796Y-187700495D01*
X101700000Y-187724999D01*
X101700000Y-188375001D01*
X101698796Y-188399505D01*
X101695196Y-188423773D01*
X101689235Y-188447572D01*
X101680970Y-188470671D01*
X101670480Y-188492850D01*
X101657868Y-188513893D01*
X101643253Y-188533599D01*
X101626777Y-188551777D01*
X101608599Y-188568253D01*
X101588893Y-188582868D01*
X101567850Y-188595480D01*
X101545671Y-188605970D01*
X101522572Y-188614235D01*
X101498773Y-188620196D01*
X101474505Y-188623796D01*
X101450001Y-188625000D01*
X100549999Y-188625000D01*
X100525495Y-188623796D01*
X100501227Y-188620196D01*
X100477428Y-188614235D01*
X100454329Y-188605970D01*
X100432150Y-188595480D01*
X100411107Y-188582868D01*
X100391401Y-188568253D01*
X100373223Y-188551777D01*
X100356747Y-188533599D01*
X100342132Y-188513893D01*
X100329520Y-188492850D01*
X100319030Y-188470671D01*
X100310765Y-188447572D01*
X100304804Y-188423773D01*
X100301204Y-188399505D01*
X100300000Y-188375001D01*
X100300000Y-187724999D01*
X100301204Y-187700495D01*
X100304804Y-187676227D01*
X100310765Y-187652428D01*
X100319030Y-187629329D01*
X100329520Y-187607150D01*
X100342132Y-187586107D01*
X100356747Y-187566401D01*
X100373223Y-187548223D01*
X100391401Y-187531747D01*
X100411107Y-187517132D01*
X100432150Y-187504520D01*
X100454329Y-187494030D01*
X100477428Y-187485765D01*
X100501227Y-187479804D01*
X100525495Y-187476204D01*
X100549999Y-187475000D01*
X101450001Y-187475000D01*
X101474505Y-187476204D01*
G37*
G04 #@! TD.AperFunction*
G04 #@! TA.AperFunction,SMDPad,CuDef*
G36*
X101474505Y-185426204D02*
G01*
X101498773Y-185429804D01*
X101522572Y-185435765D01*
X101545671Y-185444030D01*
X101567850Y-185454520D01*
X101588893Y-185467132D01*
X101608599Y-185481747D01*
X101626777Y-185498223D01*
X101643253Y-185516401D01*
X101657868Y-185536107D01*
X101670480Y-185557150D01*
X101680970Y-185579329D01*
X101689235Y-185602428D01*
X101695196Y-185626227D01*
X101698796Y-185650495D01*
X101700000Y-185674999D01*
X101700000Y-186325001D01*
X101698796Y-186349505D01*
X101695196Y-186373773D01*
X101689235Y-186397572D01*
X101680970Y-186420671D01*
X101670480Y-186442850D01*
X101657868Y-186463893D01*
X101643253Y-186483599D01*
X101626777Y-186501777D01*
X101608599Y-186518253D01*
X101588893Y-186532868D01*
X101567850Y-186545480D01*
X101545671Y-186555970D01*
X101522572Y-186564235D01*
X101498773Y-186570196D01*
X101474505Y-186573796D01*
X101450001Y-186575000D01*
X100549999Y-186575000D01*
X100525495Y-186573796D01*
X100501227Y-186570196D01*
X100477428Y-186564235D01*
X100454329Y-186555970D01*
X100432150Y-186545480D01*
X100411107Y-186532868D01*
X100391401Y-186518253D01*
X100373223Y-186501777D01*
X100356747Y-186483599D01*
X100342132Y-186463893D01*
X100329520Y-186442850D01*
X100319030Y-186420671D01*
X100310765Y-186397572D01*
X100304804Y-186373773D01*
X100301204Y-186349505D01*
X100300000Y-186325001D01*
X100300000Y-185674999D01*
X100301204Y-185650495D01*
X100304804Y-185626227D01*
X100310765Y-185602428D01*
X100319030Y-185579329D01*
X100329520Y-185557150D01*
X100342132Y-185536107D01*
X100356747Y-185516401D01*
X100373223Y-185498223D01*
X100391401Y-185481747D01*
X100411107Y-185467132D01*
X100432150Y-185454520D01*
X100454329Y-185444030D01*
X100477428Y-185435765D01*
X100501227Y-185429804D01*
X100525495Y-185426204D01*
X100549999Y-185425000D01*
X101450001Y-185425000D01*
X101474505Y-185426204D01*
G37*
G04 #@! TD.AperFunction*
G04 #@! TA.AperFunction,SMDPad,CuDef*
G36*
X99474505Y-206476204D02*
G01*
X99498773Y-206479804D01*
X99522572Y-206485765D01*
X99545671Y-206494030D01*
X99567850Y-206504520D01*
X99588893Y-206517132D01*
X99608599Y-206531747D01*
X99626777Y-206548223D01*
X99643253Y-206566401D01*
X99657868Y-206586107D01*
X99670480Y-206607150D01*
X99680970Y-206629329D01*
X99689235Y-206652428D01*
X99695196Y-206676227D01*
X99698796Y-206700495D01*
X99700000Y-206724999D01*
X99700000Y-207375001D01*
X99698796Y-207399505D01*
X99695196Y-207423773D01*
X99689235Y-207447572D01*
X99680970Y-207470671D01*
X99670480Y-207492850D01*
X99657868Y-207513893D01*
X99643253Y-207533599D01*
X99626777Y-207551777D01*
X99608599Y-207568253D01*
X99588893Y-207582868D01*
X99567850Y-207595480D01*
X99545671Y-207605970D01*
X99522572Y-207614235D01*
X99498773Y-207620196D01*
X99474505Y-207623796D01*
X99450001Y-207625000D01*
X98549999Y-207625000D01*
X98525495Y-207623796D01*
X98501227Y-207620196D01*
X98477428Y-207614235D01*
X98454329Y-207605970D01*
X98432150Y-207595480D01*
X98411107Y-207582868D01*
X98391401Y-207568253D01*
X98373223Y-207551777D01*
X98356747Y-207533599D01*
X98342132Y-207513893D01*
X98329520Y-207492850D01*
X98319030Y-207470671D01*
X98310765Y-207447572D01*
X98304804Y-207423773D01*
X98301204Y-207399505D01*
X98300000Y-207375001D01*
X98300000Y-206724999D01*
X98301204Y-206700495D01*
X98304804Y-206676227D01*
X98310765Y-206652428D01*
X98319030Y-206629329D01*
X98329520Y-206607150D01*
X98342132Y-206586107D01*
X98356747Y-206566401D01*
X98373223Y-206548223D01*
X98391401Y-206531747D01*
X98411107Y-206517132D01*
X98432150Y-206504520D01*
X98454329Y-206494030D01*
X98477428Y-206485765D01*
X98501227Y-206479804D01*
X98525495Y-206476204D01*
X98549999Y-206475000D01*
X99450001Y-206475000D01*
X99474505Y-206476204D01*
G37*
G04 #@! TD.AperFunction*
G04 #@! TA.AperFunction,SMDPad,CuDef*
G36*
X99474505Y-204426204D02*
G01*
X99498773Y-204429804D01*
X99522572Y-204435765D01*
X99545671Y-204444030D01*
X99567850Y-204454520D01*
X99588893Y-204467132D01*
X99608599Y-204481747D01*
X99626777Y-204498223D01*
X99643253Y-204516401D01*
X99657868Y-204536107D01*
X99670480Y-204557150D01*
X99680970Y-204579329D01*
X99689235Y-204602428D01*
X99695196Y-204626227D01*
X99698796Y-204650495D01*
X99700000Y-204674999D01*
X99700000Y-205325001D01*
X99698796Y-205349505D01*
X99695196Y-205373773D01*
X99689235Y-205397572D01*
X99680970Y-205420671D01*
X99670480Y-205442850D01*
X99657868Y-205463893D01*
X99643253Y-205483599D01*
X99626777Y-205501777D01*
X99608599Y-205518253D01*
X99588893Y-205532868D01*
X99567850Y-205545480D01*
X99545671Y-205555970D01*
X99522572Y-205564235D01*
X99498773Y-205570196D01*
X99474505Y-205573796D01*
X99450001Y-205575000D01*
X98549999Y-205575000D01*
X98525495Y-205573796D01*
X98501227Y-205570196D01*
X98477428Y-205564235D01*
X98454329Y-205555970D01*
X98432150Y-205545480D01*
X98411107Y-205532868D01*
X98391401Y-205518253D01*
X98373223Y-205501777D01*
X98356747Y-205483599D01*
X98342132Y-205463893D01*
X98329520Y-205442850D01*
X98319030Y-205420671D01*
X98310765Y-205397572D01*
X98304804Y-205373773D01*
X98301204Y-205349505D01*
X98300000Y-205325001D01*
X98300000Y-204674999D01*
X98301204Y-204650495D01*
X98304804Y-204626227D01*
X98310765Y-204602428D01*
X98319030Y-204579329D01*
X98329520Y-204557150D01*
X98342132Y-204536107D01*
X98356747Y-204516401D01*
X98373223Y-204498223D01*
X98391401Y-204481747D01*
X98411107Y-204467132D01*
X98432150Y-204454520D01*
X98454329Y-204444030D01*
X98477428Y-204435765D01*
X98501227Y-204429804D01*
X98525495Y-204426204D01*
X98549999Y-204425000D01*
X99450001Y-204425000D01*
X99474505Y-204426204D01*
G37*
G04 #@! TD.AperFunction*
G04 #@! TA.AperFunction,SMDPad,CuDef*
G36*
X99474505Y-187451204D02*
G01*
X99498773Y-187454804D01*
X99522572Y-187460765D01*
X99545671Y-187469030D01*
X99567850Y-187479520D01*
X99588893Y-187492132D01*
X99608599Y-187506747D01*
X99626777Y-187523223D01*
X99643253Y-187541401D01*
X99657868Y-187561107D01*
X99670480Y-187582150D01*
X99680970Y-187604329D01*
X99689235Y-187627428D01*
X99695196Y-187651227D01*
X99698796Y-187675495D01*
X99700000Y-187699999D01*
X99700000Y-188350001D01*
X99698796Y-188374505D01*
X99695196Y-188398773D01*
X99689235Y-188422572D01*
X99680970Y-188445671D01*
X99670480Y-188467850D01*
X99657868Y-188488893D01*
X99643253Y-188508599D01*
X99626777Y-188526777D01*
X99608599Y-188543253D01*
X99588893Y-188557868D01*
X99567850Y-188570480D01*
X99545671Y-188580970D01*
X99522572Y-188589235D01*
X99498773Y-188595196D01*
X99474505Y-188598796D01*
X99450001Y-188600000D01*
X98549999Y-188600000D01*
X98525495Y-188598796D01*
X98501227Y-188595196D01*
X98477428Y-188589235D01*
X98454329Y-188580970D01*
X98432150Y-188570480D01*
X98411107Y-188557868D01*
X98391401Y-188543253D01*
X98373223Y-188526777D01*
X98356747Y-188508599D01*
X98342132Y-188488893D01*
X98329520Y-188467850D01*
X98319030Y-188445671D01*
X98310765Y-188422572D01*
X98304804Y-188398773D01*
X98301204Y-188374505D01*
X98300000Y-188350001D01*
X98300000Y-187699999D01*
X98301204Y-187675495D01*
X98304804Y-187651227D01*
X98310765Y-187627428D01*
X98319030Y-187604329D01*
X98329520Y-187582150D01*
X98342132Y-187561107D01*
X98356747Y-187541401D01*
X98373223Y-187523223D01*
X98391401Y-187506747D01*
X98411107Y-187492132D01*
X98432150Y-187479520D01*
X98454329Y-187469030D01*
X98477428Y-187460765D01*
X98501227Y-187454804D01*
X98525495Y-187451204D01*
X98549999Y-187450000D01*
X99450001Y-187450000D01*
X99474505Y-187451204D01*
G37*
G04 #@! TD.AperFunction*
G04 #@! TA.AperFunction,SMDPad,CuDef*
G36*
X99474505Y-185401204D02*
G01*
X99498773Y-185404804D01*
X99522572Y-185410765D01*
X99545671Y-185419030D01*
X99567850Y-185429520D01*
X99588893Y-185442132D01*
X99608599Y-185456747D01*
X99626777Y-185473223D01*
X99643253Y-185491401D01*
X99657868Y-185511107D01*
X99670480Y-185532150D01*
X99680970Y-185554329D01*
X99689235Y-185577428D01*
X99695196Y-185601227D01*
X99698796Y-185625495D01*
X99700000Y-185649999D01*
X99700000Y-186300001D01*
X99698796Y-186324505D01*
X99695196Y-186348773D01*
X99689235Y-186372572D01*
X99680970Y-186395671D01*
X99670480Y-186417850D01*
X99657868Y-186438893D01*
X99643253Y-186458599D01*
X99626777Y-186476777D01*
X99608599Y-186493253D01*
X99588893Y-186507868D01*
X99567850Y-186520480D01*
X99545671Y-186530970D01*
X99522572Y-186539235D01*
X99498773Y-186545196D01*
X99474505Y-186548796D01*
X99450001Y-186550000D01*
X98549999Y-186550000D01*
X98525495Y-186548796D01*
X98501227Y-186545196D01*
X98477428Y-186539235D01*
X98454329Y-186530970D01*
X98432150Y-186520480D01*
X98411107Y-186507868D01*
X98391401Y-186493253D01*
X98373223Y-186476777D01*
X98356747Y-186458599D01*
X98342132Y-186438893D01*
X98329520Y-186417850D01*
X98319030Y-186395671D01*
X98310765Y-186372572D01*
X98304804Y-186348773D01*
X98301204Y-186324505D01*
X98300000Y-186300001D01*
X98300000Y-185649999D01*
X98301204Y-185625495D01*
X98304804Y-185601227D01*
X98310765Y-185577428D01*
X98319030Y-185554329D01*
X98329520Y-185532150D01*
X98342132Y-185511107D01*
X98356747Y-185491401D01*
X98373223Y-185473223D01*
X98391401Y-185456747D01*
X98411107Y-185442132D01*
X98432150Y-185429520D01*
X98454329Y-185419030D01*
X98477428Y-185410765D01*
X98501227Y-185404804D01*
X98525495Y-185401204D01*
X98549999Y-185400000D01*
X99450001Y-185400000D01*
X99474505Y-185401204D01*
G37*
G04 #@! TD.AperFunction*
D13*
X120480000Y-176460000D03*
X120480000Y-179000000D03*
X117940000Y-176460000D03*
X117940000Y-179000000D03*
X115400000Y-176460000D03*
X115400000Y-179000000D03*
X112860000Y-176460000D03*
X112860000Y-179000000D03*
X110320000Y-176460000D03*
X110320000Y-179000000D03*
X107780000Y-176460000D03*
X107780000Y-179000000D03*
X105240000Y-176460000D03*
X105240000Y-179000000D03*
X102700000Y-176460000D03*
X102700000Y-179000000D03*
X100160000Y-176460000D03*
X100160000Y-179000000D03*
X97620000Y-176460000D03*
X97620000Y-179000000D03*
X95080000Y-176460000D03*
X95080000Y-179000000D03*
X92540000Y-176460000D03*
X92540000Y-179000000D03*
X90000000Y-176460000D03*
D14*
X90000000Y-179000000D03*
D13*
X227000000Y-179000000D03*
D14*
X229540000Y-179000000D03*
D15*
X165500000Y-195000000D03*
X161500000Y-195000000D03*
D16*
X97200000Y-206535000D03*
X97400000Y-208385000D03*
X98650909Y-216550909D03*
X99609057Y-218209057D03*
X221727754Y-211710092D03*
X222300000Y-207700000D03*
X118400000Y-184025000D03*
D15*
X118212653Y-203812653D03*
X117500000Y-201050000D03*
X102200000Y-186800000D03*
X102700000Y-189610001D03*
X135900000Y-186735000D03*
X135600000Y-188200000D03*
X177300000Y-186700000D03*
X177500000Y-188185000D03*
X178200000Y-202700000D03*
X178770514Y-205412029D03*
X202500000Y-187325000D03*
X202300000Y-188775000D03*
X202079810Y-204820190D03*
X201254505Y-206045495D03*
X216879352Y-189220648D03*
X217830109Y-185151820D03*
X109100000Y-183900000D03*
X99600789Y-189699211D03*
X97700000Y-190200000D03*
X94900000Y-192400000D03*
X217300153Y-185999847D03*
X216924847Y-187675153D03*
X219100000Y-210100000D03*
X220600000Y-211300000D03*
X143897389Y-186359998D03*
X142700000Y-187900000D03*
X142087347Y-203887347D03*
X142300000Y-205800000D03*
X199400000Y-186100000D03*
X199162347Y-187937653D03*
X124477653Y-184722347D03*
X118887347Y-201087347D03*
X119362653Y-202662653D03*
X123134142Y-186065858D03*
X97500000Y-186500000D03*
X97441573Y-188565301D03*
X183300000Y-187200000D03*
X182500000Y-188800000D03*
X179000846Y-201900846D03*
X179126152Y-203826152D03*
X157100000Y-210100000D03*
X159400000Y-210400000D03*
X85500000Y-197500000D03*
X93500000Y-212000000D03*
X88000000Y-218160000D03*
X115000000Y-194000000D03*
X105000000Y-198000000D03*
X115000000Y-214000000D03*
X106000000Y-218000000D03*
X135000000Y-194000000D03*
X125000000Y-198000000D03*
X135000000Y-213000000D03*
X127000000Y-218000000D03*
X155000000Y-194000000D03*
X145000000Y-198000000D03*
X155000000Y-213000000D03*
X147000000Y-218000000D03*
X175000000Y-194000000D03*
X164000000Y-198000000D03*
X173302000Y-213302000D03*
X194000000Y-195000000D03*
X166000000Y-218000000D03*
X195000000Y-214000000D03*
X185000000Y-198000000D03*
X188000000Y-218160000D03*
X215000000Y-194000000D03*
X198307340Y-201668440D03*
X201000000Y-200850000D03*
X205000000Y-198000000D03*
X215000000Y-213000000D03*
X208000000Y-218160000D03*
X235000000Y-194000000D03*
X225000000Y-199000000D03*
X235000000Y-213000000D03*
D17*
X165500000Y-195000000D02*
X161500000Y-195000000D01*
X100975000Y-185975000D02*
X101000000Y-186000000D01*
X99000000Y-185975000D02*
X100975000Y-185975000D01*
X100975000Y-205000000D02*
X101000000Y-204975000D01*
X99000000Y-205000000D02*
X100975000Y-205000000D01*
X99000000Y-205000000D02*
X98300000Y-205000000D01*
X97200000Y-206100000D02*
X97200000Y-206535000D01*
X98300000Y-205000000D02*
X97200000Y-206100000D01*
X97400000Y-208385000D02*
X98650909Y-209635909D01*
X98650909Y-209635909D02*
X98650909Y-216550909D01*
X214552845Y-218885001D02*
X221727754Y-211710092D01*
X99609057Y-218209057D02*
X100285001Y-218885001D01*
X221275000Y-207700000D02*
X221000000Y-207975000D01*
X222300000Y-207700000D02*
X221275000Y-207700000D01*
X118400000Y-184025000D02*
X118400000Y-200150000D01*
X118400000Y-200150000D02*
X117500000Y-201050000D01*
X118212653Y-218787347D02*
X118200000Y-218800000D01*
X100285001Y-218885001D02*
X118200000Y-218800000D01*
X118212653Y-207987347D02*
X118225000Y-207975000D01*
X118212653Y-207987347D02*
X118212653Y-218787347D01*
X118225000Y-207975000D02*
X121000000Y-207975000D01*
X118212653Y-203812653D02*
X118212653Y-207987347D01*
X140300000Y-207975000D02*
X141000000Y-207975000D01*
X139481227Y-218818773D02*
X139481227Y-208793773D01*
X139481227Y-208793773D02*
X140300000Y-207975000D01*
X118200000Y-218800000D02*
X139481227Y-218818773D01*
X158500000Y-209775000D02*
X158500000Y-218800000D01*
X160300000Y-207975000D02*
X158500000Y-209775000D01*
X161000000Y-207975000D02*
X160300000Y-207975000D01*
X179431741Y-208843259D02*
X180300000Y-207975000D01*
X179431741Y-218831741D02*
X179431741Y-208843259D01*
X180300000Y-207975000D02*
X181000000Y-207975000D01*
X199662421Y-208612579D02*
X200300000Y-207975000D01*
X199662421Y-218862421D02*
X199662421Y-208612579D01*
X200300000Y-207975000D02*
X201000000Y-207975000D01*
X101000000Y-186000000D02*
X101400000Y-186000000D01*
X101400000Y-186000000D02*
X102200000Y-186800000D01*
X118400000Y-184873528D02*
X118400000Y-184025000D01*
X118400000Y-184979002D02*
X118400000Y-184873528D01*
X114494001Y-188885001D02*
X118400000Y-184979002D01*
X113125999Y-188885001D02*
X114494001Y-188885001D01*
X108886927Y-187681099D02*
X111922097Y-187681099D01*
X105493725Y-191074301D02*
X108886927Y-187681099D01*
X103598615Y-191074301D02*
X105493725Y-191074301D01*
X102700000Y-190175686D02*
X103598615Y-191074301D01*
X111922097Y-187681099D02*
X113125999Y-188885001D01*
X102700000Y-189610001D02*
X102700000Y-190175686D01*
X139025000Y-185000000D02*
X139000000Y-184975000D01*
X141000000Y-185000000D02*
X139025000Y-185000000D01*
X139000000Y-184975000D02*
X137660000Y-184975000D01*
X137660000Y-184975000D02*
X135900000Y-186735000D01*
X120225000Y-184025000D02*
X118400000Y-184025000D01*
X124300000Y-186206410D02*
X122118590Y-184025000D01*
X125505999Y-188885001D02*
X124300000Y-187679002D01*
X134914999Y-188885001D02*
X133125999Y-188885001D01*
X122118590Y-184025000D02*
X120225000Y-184025000D01*
X135600000Y-188200000D02*
X134914999Y-188885001D01*
X124300000Y-187679002D02*
X124300000Y-186206410D01*
X128659002Y-187100000D02*
X126874001Y-188885001D01*
X126874001Y-188885001D02*
X125505999Y-188885001D01*
X133125999Y-188885001D02*
X131340998Y-187100000D01*
X131340998Y-187100000D02*
X128659002Y-187100000D01*
X179025000Y-185975000D02*
X179000000Y-185950000D01*
X181000000Y-185975000D02*
X179025000Y-185975000D01*
X179000000Y-185950000D02*
X178050000Y-185950000D01*
X178050000Y-185950000D02*
X177300000Y-186700000D01*
X177500000Y-188185000D02*
X178200000Y-188885000D01*
X178200000Y-188885000D02*
X178200000Y-202700000D01*
X181000000Y-207641515D02*
X181000000Y-207975000D01*
X178770514Y-205412029D02*
X181000000Y-207641515D01*
X201000000Y-186000000D02*
X201175000Y-186000000D01*
X201175000Y-186000000D02*
X202500000Y-187325000D01*
X202300000Y-188775000D02*
X198400000Y-192675000D01*
X198325000Y-192675000D02*
X198146038Y-192853962D01*
X198400000Y-192675000D02*
X198325000Y-192675000D01*
X199482351Y-201134039D02*
X199482351Y-202611626D01*
X198146038Y-192853962D02*
X198146038Y-199797726D01*
X198146038Y-199797726D02*
X199482351Y-201134039D01*
X199482351Y-202611626D02*
X201690915Y-204820190D01*
X201690915Y-204820190D02*
X202079810Y-204820190D01*
X201254505Y-207720495D02*
X201000000Y-207975000D01*
X201254505Y-206045495D02*
X201254505Y-207720495D01*
X213125999Y-188885001D02*
X216543705Y-188885001D01*
X216543705Y-188885001D02*
X216879352Y-189220648D01*
X211922097Y-187681099D02*
X213125999Y-188885001D01*
X202865685Y-188775000D02*
X202975686Y-188885001D01*
X202975686Y-188885001D02*
X207683025Y-188885001D01*
X202300000Y-188775000D02*
X202865685Y-188775000D01*
X207683025Y-188885001D02*
X208886927Y-187681099D01*
X208886927Y-187681099D02*
X211922097Y-187681099D01*
X218176820Y-185151820D02*
X219000000Y-185975000D01*
X217830109Y-185151820D02*
X218176820Y-185151820D01*
X139547455Y-218885001D02*
X214552845Y-218885001D01*
X139481227Y-218818773D02*
X139547455Y-218885001D01*
X109100000Y-186659002D02*
X106874001Y-188885001D01*
X100938979Y-189699211D02*
X99600789Y-189699211D01*
X109100000Y-183900000D02*
X109100000Y-186659002D01*
X101753189Y-188885001D02*
X100938979Y-189699211D01*
X106874001Y-188885001D02*
X101753189Y-188885001D01*
X97700000Y-190200000D02*
X95500000Y-192400000D01*
X95500000Y-192400000D02*
X94900000Y-192400000D01*
X224265000Y-207460000D02*
X224634366Y-207460000D01*
X221700000Y-210025000D02*
X224265000Y-207460000D01*
X224634366Y-207460000D02*
X226190000Y-207460000D01*
X221000000Y-210025000D02*
X221700000Y-210025000D01*
X122180593Y-173034953D02*
X126161928Y-177016288D01*
X90000000Y-176460000D02*
X93425047Y-173034953D01*
X93425047Y-173034953D02*
X122180593Y-173034953D01*
X126161928Y-177016288D02*
X126161928Y-179444916D01*
X126161928Y-179444916D02*
X153628789Y-179444917D01*
X155333825Y-181149953D02*
X180945193Y-181149953D01*
X153628789Y-179444917D02*
X155333825Y-181149953D01*
X181934011Y-182138771D02*
X196711592Y-182138772D01*
X180945193Y-181149953D02*
X181934011Y-182138771D01*
X196711592Y-182138772D02*
X197617809Y-183044989D01*
X217300153Y-185863743D02*
X217300153Y-185999847D01*
X197617809Y-183044989D02*
X214481399Y-183044989D01*
X214481399Y-183044989D02*
X217300153Y-185863743D01*
X216924847Y-188240838D02*
X219400000Y-190715991D01*
X216924847Y-187675153D02*
X216924847Y-188240838D01*
X219400000Y-190715991D02*
X219400000Y-209800000D01*
X219400000Y-209800000D02*
X219100000Y-210100000D01*
X220600000Y-210425000D02*
X221000000Y-210025000D01*
X220600000Y-211300000D02*
X220600000Y-210425000D01*
X144634366Y-207460000D02*
X146190000Y-207460000D01*
X141700000Y-210025000D02*
X144265000Y-207460000D01*
X144265000Y-207460000D02*
X144634366Y-207460000D01*
X107780000Y-179000000D02*
X107780000Y-181629971D01*
X107780000Y-181629971D02*
X107900000Y-181749971D01*
X107900000Y-181749971D02*
X122778098Y-181749972D01*
X122778098Y-181749972D02*
X124073115Y-183044989D01*
X143897389Y-185672789D02*
X143897389Y-186359998D01*
X124073115Y-183044989D02*
X141269590Y-183044990D01*
X141269590Y-183044990D02*
X143897389Y-185672789D01*
X142700000Y-187900000D02*
X142087347Y-188512653D01*
X142087347Y-188512653D02*
X142087347Y-203887347D01*
X141700000Y-210025000D02*
X141000000Y-210025000D01*
X142300000Y-209425000D02*
X141700000Y-210025000D01*
X142300000Y-205800000D02*
X142300000Y-209425000D01*
X225625000Y-188025000D02*
X226190000Y-187460000D01*
X219000000Y-188025000D02*
X225625000Y-188025000D01*
X121994192Y-173484962D02*
X125711918Y-177202688D01*
X92540000Y-176460000D02*
X95515038Y-173484962D01*
X95515038Y-173484962D02*
X121994192Y-173484962D01*
X125711918Y-177202688D02*
X125711918Y-179811918D01*
X125794925Y-179894925D02*
X153442388Y-179894926D01*
X125711918Y-179811918D02*
X125794925Y-179894925D01*
X153442388Y-179894926D02*
X155147424Y-181599962D01*
X155147424Y-181599962D02*
X180758793Y-181599963D01*
X181747610Y-182588780D02*
X196525191Y-182588781D01*
X180758793Y-181599963D02*
X181747610Y-182588780D01*
X196525191Y-182588781D02*
X197436410Y-183500000D01*
X197441411Y-183494999D02*
X214294999Y-183494999D01*
X197436410Y-183500000D02*
X197441411Y-183494999D01*
X214294999Y-184019999D02*
X218300000Y-188025000D01*
X218300000Y-188025000D02*
X219000000Y-188025000D01*
X214294999Y-183494999D02*
X214294999Y-184019999D01*
X145780000Y-187050000D02*
X146190000Y-187460000D01*
X105240000Y-180202081D02*
X105200000Y-180242081D01*
X105240000Y-179000000D02*
X105240000Y-180202081D01*
X105200000Y-180242081D02*
X105200000Y-182199980D01*
X105200000Y-182199980D02*
X122591697Y-182199981D01*
X122591697Y-182199981D02*
X123886715Y-183494999D01*
X143100000Y-185511810D02*
X143100000Y-187100000D01*
X123886715Y-183494999D02*
X141083189Y-183494999D01*
X141083189Y-183494999D02*
X143100000Y-185511810D01*
X141000000Y-187050000D02*
X143100000Y-187100000D01*
X143100000Y-187100000D02*
X145780000Y-187050000D01*
X204265000Y-207460000D02*
X204634366Y-207460000D01*
X204634366Y-207460000D02*
X206190000Y-207460000D01*
X201000000Y-210025000D02*
X201700000Y-210025000D01*
X121807791Y-173934971D02*
X125261908Y-177389088D01*
X95080000Y-176460000D02*
X97605029Y-173934971D01*
X97605029Y-173934971D02*
X121807791Y-173934971D01*
X125261908Y-180261908D02*
X125344934Y-180344934D01*
X125261908Y-177389088D02*
X125261908Y-180261908D01*
X125344934Y-180344934D02*
X153255987Y-180344935D01*
X180572392Y-182049972D02*
X181561210Y-183038790D01*
X153255987Y-180344935D02*
X154961024Y-182049972D01*
X154961024Y-182049972D02*
X180572392Y-182049972D01*
X181561210Y-183038790D02*
X196338790Y-183038790D01*
X196338790Y-183038790D02*
X199400000Y-186100000D01*
X199162347Y-187937653D02*
X197696028Y-189403972D01*
X198912653Y-202678338D02*
X203300000Y-207065685D01*
X198912653Y-202112653D02*
X198912653Y-202678338D01*
X201700000Y-210025000D02*
X203300000Y-208400000D01*
X203300000Y-207065685D02*
X203300000Y-208400000D01*
X203300000Y-208400000D02*
X204265000Y-207460000D01*
X198415874Y-200703972D02*
X199032341Y-201320439D01*
X199032341Y-201992965D02*
X198912653Y-202112653D01*
X197696028Y-200703972D02*
X198415874Y-200703972D01*
X199032341Y-201320439D02*
X199032341Y-201992965D01*
X197696028Y-189403972D02*
X197696028Y-200703972D01*
X124634366Y-207460000D02*
X126190000Y-207460000D01*
X124265000Y-207460000D02*
X124634366Y-207460000D01*
X121700000Y-210025000D02*
X124265000Y-207460000D01*
X121000000Y-210025000D02*
X121700000Y-210025000D01*
X102700000Y-179000000D02*
X102700000Y-182349990D01*
X102700000Y-182349990D02*
X103000000Y-182649990D01*
X103000000Y-182649990D02*
X122405296Y-182649990D01*
X122405296Y-182649990D02*
X124477653Y-184722347D01*
X123502347Y-196861243D02*
X119276243Y-201087347D01*
X119276243Y-201087347D02*
X118887347Y-201087347D01*
X124160000Y-207460000D02*
X126190000Y-207460000D01*
X119362653Y-202662653D02*
X124160000Y-207460000D01*
X123134142Y-196493038D02*
X123502347Y-196861243D01*
X123134142Y-186065858D02*
X123134142Y-196493038D01*
X205600000Y-188050000D02*
X206190000Y-187460000D01*
X201000000Y-188050000D02*
X205600000Y-188050000D01*
X121621390Y-174384980D02*
X124811898Y-177575488D01*
X97620000Y-176460000D02*
X99695021Y-174384979D01*
X99695021Y-174384979D02*
X121621390Y-174384980D01*
X124811898Y-180551712D02*
X125055129Y-180794943D01*
X124811898Y-177575488D02*
X124811898Y-180551712D01*
X125055129Y-180794943D02*
X153069586Y-180794944D01*
X153069586Y-180794944D02*
X154774623Y-182499981D01*
X154774623Y-182499981D02*
X180385992Y-182499982D01*
X195744999Y-183494999D02*
X200300000Y-188050000D01*
X200300000Y-188050000D02*
X201000000Y-188050000D01*
X181381009Y-183494999D02*
X195744999Y-183494999D01*
X180385992Y-182499982D02*
X181381009Y-183494999D01*
X105755000Y-207025000D02*
X106190000Y-207460000D01*
X101000000Y-207025000D02*
X105755000Y-207025000D01*
X97620000Y-179000000D02*
X97620000Y-186380000D01*
X97620000Y-186380000D02*
X97500000Y-186500000D01*
X102025010Y-193148738D02*
X102025010Y-206699990D01*
X101700000Y-207025000D02*
X101000000Y-207025000D01*
X102025010Y-206699990D02*
X101700000Y-207025000D01*
X97441573Y-188565301D02*
X102025010Y-193148738D01*
X184265000Y-207460000D02*
X184634366Y-207460000D01*
X184634366Y-207460000D02*
X186190000Y-207460000D01*
X181000000Y-210025000D02*
X181700000Y-210025000D01*
X101785011Y-174834989D02*
X121434989Y-174834989D01*
X100160000Y-176460000D02*
X101785011Y-174834989D01*
X121434989Y-174834989D02*
X124350010Y-177750010D01*
X124350010Y-177750010D02*
X124361888Y-177761888D01*
X124400000Y-180776224D02*
X124400000Y-180826234D01*
X124361888Y-177761888D02*
X124361888Y-180738112D01*
X124361888Y-180738112D02*
X124400000Y-180776224D01*
X124818718Y-181244952D02*
X152883185Y-181244953D01*
X124400000Y-180826234D02*
X124818718Y-181244952D01*
X152883185Y-181244953D02*
X154588222Y-182949990D01*
X183300000Y-186050400D02*
X183300000Y-187200000D01*
X154588222Y-182949990D02*
X180199591Y-182949991D01*
X180199591Y-182949991D02*
X183300000Y-186050400D01*
X182500000Y-188800000D02*
X179000846Y-192299154D01*
X179000846Y-192299154D02*
X179000846Y-201900846D01*
X179126152Y-204391837D02*
X179334315Y-204600000D01*
X179126152Y-203826152D02*
X179126152Y-204391837D01*
X180100000Y-204600000D02*
X183600000Y-208100000D01*
X179334315Y-204600000D02*
X180100000Y-204600000D01*
X181700000Y-210025000D02*
X183600000Y-208100000D01*
X183600000Y-208100000D02*
X184265000Y-207460000D01*
X185625000Y-188025000D02*
X186190000Y-187460000D01*
X182500000Y-185886810D02*
X182500000Y-187900000D01*
X121044001Y-175284999D02*
X123900000Y-178140998D01*
X103875001Y-175284999D02*
X121044001Y-175284999D01*
X182500000Y-187900000D02*
X185625000Y-188025000D01*
X154401822Y-183400000D02*
X180013190Y-183400000D01*
X181000000Y-188025000D02*
X182500000Y-187900000D01*
X123900000Y-178140998D02*
X123900000Y-180962644D01*
X180013190Y-183400000D02*
X182500000Y-185886810D01*
X123900000Y-180962644D02*
X124632317Y-181694961D01*
X102700000Y-176460000D02*
X103875001Y-175284999D01*
X124632317Y-181694961D02*
X152696784Y-181694962D01*
X152696784Y-181694962D02*
X154401822Y-183400000D01*
X105600000Y-188050000D02*
X106190000Y-187460000D01*
X102950000Y-186361810D02*
X102950000Y-188050000D01*
X98184001Y-177824999D02*
X98984999Y-178625997D01*
X98984999Y-182396809D02*
X102950000Y-186361810D01*
X96255001Y-177824999D02*
X98184001Y-177824999D01*
X95080000Y-179000000D02*
X96255001Y-177824999D01*
X98984999Y-178625997D02*
X98984999Y-182396809D01*
X101000000Y-188050000D02*
X102950000Y-188050000D01*
X102950000Y-188050000D02*
X105600000Y-188050000D01*
X164265000Y-207460000D02*
X164634366Y-207460000D01*
X161700000Y-210025000D02*
X164265000Y-207460000D01*
X164634366Y-207460000D02*
X166190000Y-207460000D01*
X161000000Y-210025000D02*
X161700000Y-210025000D01*
X109144999Y-180644999D02*
X109799962Y-181299962D01*
X109144999Y-178625997D02*
X109144999Y-180644999D01*
X105240000Y-176460000D02*
X106604999Y-177824999D01*
X108344001Y-177824999D02*
X109144999Y-178625997D01*
X106604999Y-177824999D02*
X108344001Y-177824999D01*
X109799962Y-181299962D02*
X122964499Y-181299963D01*
X122964499Y-181299963D02*
X124259516Y-182594980D01*
X152323982Y-182594980D02*
X157500000Y-187770998D01*
X124259516Y-182594980D02*
X152323982Y-182594980D01*
X157500000Y-187770998D02*
X157500000Y-209700000D01*
X157500000Y-209700000D02*
X157100000Y-210100000D01*
X160625000Y-210400000D02*
X161000000Y-210025000D01*
X159775000Y-210025000D02*
X159400000Y-210400000D01*
X161000000Y-210025000D02*
X159775000Y-210025000D01*
X98590000Y-207460000D02*
X99000000Y-207050000D01*
X93810000Y-207460000D02*
X98590000Y-207460000D01*
X85090001Y-206360001D02*
X86190000Y-207460000D01*
X83845699Y-205115699D02*
X85090001Y-206360001D01*
X83845699Y-182869299D02*
X83845699Y-205115699D01*
X89079997Y-177635001D02*
X83845699Y-182869299D01*
X91175001Y-177635001D02*
X89079997Y-177635001D01*
X92540000Y-179000000D02*
X91175001Y-177635001D01*
X110884001Y-177824999D02*
X111500000Y-178440998D01*
X107780000Y-177080000D02*
X108074989Y-177374989D01*
X107780000Y-176460000D02*
X107780000Y-177080000D01*
X111500000Y-178440998D02*
X111500000Y-180849953D01*
X109374989Y-177374989D02*
X109824999Y-177824999D01*
X108074989Y-177374989D02*
X109374989Y-177374989D01*
X109824999Y-177824999D02*
X110884001Y-177824999D01*
X111500000Y-180849953D02*
X123150900Y-180849954D01*
X123150900Y-180849954D02*
X124445916Y-182144970D01*
X152510383Y-182144971D02*
X157950009Y-187584597D01*
X124445916Y-182144970D02*
X152510383Y-182144971D01*
X158074606Y-187460000D02*
X166190000Y-187460000D01*
X157950009Y-187584597D02*
X158074606Y-187460000D01*
X178460000Y-187460000D02*
X179000000Y-188000000D01*
X173810000Y-187460000D02*
X178460000Y-187460000D01*
X98435000Y-187460000D02*
X99000000Y-188025000D01*
X93810000Y-187460000D02*
X98435000Y-187460000D01*
X90000000Y-180100000D02*
X90000000Y-179000000D01*
X97925000Y-188025000D02*
X90000000Y-180100000D01*
X99000000Y-188025000D02*
X97925000Y-188025000D01*
X138565000Y-187460000D02*
X139000000Y-187025000D01*
X133810000Y-187460000D02*
X138565000Y-187460000D01*
X100160000Y-179000000D02*
X100160000Y-182560000D01*
X100160000Y-182560000D02*
X100700000Y-183100000D01*
X121830000Y-183100000D02*
X126190000Y-187460000D01*
X100700000Y-183100000D02*
X121830000Y-183100000D01*
X93500000Y-209259002D02*
X93500000Y-212000000D01*
X91114999Y-206874001D02*
X93500000Y-209259002D01*
X85500000Y-197500000D02*
X91114999Y-203114999D01*
X91114999Y-203114999D02*
X91114999Y-206874001D01*
X104651999Y-197274999D02*
X105348001Y-197274999D01*
X104274999Y-197651999D02*
X104651999Y-197274999D01*
X98349966Y-218160000D02*
X108885001Y-207624965D01*
X88000000Y-218160000D02*
X98349966Y-218160000D01*
X104274999Y-198348001D02*
X104274999Y-197651999D01*
X108885001Y-207624965D02*
X108885001Y-202958003D01*
X105348001Y-197274999D02*
X107000000Y-198926998D01*
X108885001Y-202958003D02*
X104274999Y-198348001D01*
X107000000Y-198926998D02*
X113073002Y-198926998D01*
X113073002Y-198926998D02*
X115000000Y-197000000D01*
X115000000Y-197000000D02*
X115000000Y-194000000D01*
X111113073Y-207681099D02*
X115000000Y-211568026D01*
X105000000Y-198000000D02*
X111113073Y-204113073D01*
X115000000Y-211568026D02*
X115000000Y-214000000D01*
X111113073Y-204113073D02*
X111113073Y-207681099D01*
X135000000Y-197770020D02*
X135000000Y-194000000D01*
X134885010Y-197885010D02*
X135000000Y-197770020D01*
X126000000Y-197000000D02*
X126885010Y-197885010D01*
X112544486Y-218000000D02*
X117000000Y-213544486D01*
X117000000Y-213544486D02*
X117000000Y-204000000D01*
X117000000Y-204000000D02*
X124000000Y-197000000D01*
X126885010Y-197885010D02*
X134885010Y-197885010D01*
X106000000Y-218000000D02*
X112544486Y-218000000D01*
X124000000Y-197000000D02*
X126000000Y-197000000D01*
X135000000Y-211568026D02*
X135000000Y-213000000D01*
X125000000Y-198000000D02*
X131113073Y-204113073D01*
X131113073Y-207681099D02*
X135000000Y-211568026D01*
X131113073Y-204113073D02*
X131113073Y-207681099D01*
X127000000Y-218000000D02*
X132544486Y-218000000D01*
X132544486Y-218000000D02*
X139000000Y-211544486D01*
X139000000Y-211544486D02*
X139000000Y-208000000D01*
X139000000Y-208000000D02*
X143000000Y-204000000D01*
X143000000Y-204000000D02*
X143000000Y-198000000D01*
X143000000Y-198000000D02*
X144000000Y-197000000D01*
X144000000Y-197000000D02*
X146000000Y-197000000D01*
X152659476Y-197885010D02*
X155000000Y-195544486D01*
X146000000Y-197000000D02*
X146885010Y-197885010D01*
X155000000Y-195544486D02*
X155000000Y-194000000D01*
X146885010Y-197885010D02*
X152659476Y-197885010D01*
X155000000Y-211568026D02*
X155000000Y-213000000D01*
X151113073Y-207681099D02*
X155000000Y-211568026D01*
X145000000Y-198000000D02*
X151113073Y-204113073D01*
X151113073Y-204113073D02*
X151113073Y-207681099D01*
X152544486Y-218000000D02*
X158000000Y-212544486D01*
X147000000Y-218000000D02*
X152544486Y-218000000D01*
X158000000Y-212544486D02*
X158000000Y-209386810D01*
X158000000Y-209386810D02*
X158000000Y-202000000D01*
X158000000Y-202000000D02*
X163000000Y-197000000D01*
X163000000Y-197000000D02*
X165000000Y-197000000D01*
X175000000Y-195544486D02*
X175000000Y-194000000D01*
X172659476Y-197885010D02*
X175000000Y-195544486D01*
X165000000Y-197000000D02*
X165885010Y-197885010D01*
X165885010Y-197885010D02*
X172659476Y-197885010D01*
X173302000Y-209061002D02*
X173302000Y-213302000D01*
X171114999Y-206874001D02*
X173302000Y-209061002D01*
X171114999Y-205114999D02*
X171114999Y-206874001D01*
X164000000Y-198000000D02*
X171114999Y-205114999D01*
X194000000Y-196544486D02*
X192544486Y-198000000D01*
X194000000Y-195000000D02*
X194000000Y-196544486D01*
X184651999Y-197274999D02*
X178000000Y-203926998D01*
X185348001Y-197274999D02*
X184651999Y-197274999D01*
X192544486Y-198000000D02*
X186073002Y-198000000D01*
X186073002Y-198000000D02*
X185348001Y-197274999D01*
X172544486Y-218000000D02*
X166000000Y-218000000D01*
X178000000Y-203926998D02*
X178000000Y-212544486D01*
X178000000Y-212544486D02*
X172544486Y-218000000D01*
X185000000Y-199489002D02*
X192384999Y-206874001D01*
X192384999Y-206874001D02*
X192384999Y-211840513D01*
X185000000Y-198000000D02*
X185000000Y-199489002D01*
X193000000Y-212455514D02*
X193455514Y-212455514D01*
X193455514Y-212455514D02*
X195000000Y-214000000D01*
X192384999Y-211840513D02*
X193000000Y-212455514D01*
X192384486Y-218160000D02*
X198000000Y-212544486D01*
X188000000Y-218160000D02*
X192384486Y-218160000D01*
X198000000Y-212544486D02*
X198000000Y-202000000D01*
X203000000Y-197000000D02*
X206000000Y-197000000D01*
X206885010Y-197885010D02*
X214114990Y-197885010D01*
X206000000Y-197000000D02*
X206885010Y-197885010D01*
X214114990Y-197885010D02*
X215000000Y-197000000D01*
X215000000Y-197000000D02*
X215000000Y-194000000D01*
X198000000Y-202000000D02*
X198000000Y-201975780D01*
X198000000Y-201975780D02*
X198307340Y-201668440D01*
X203000000Y-198850000D02*
X203000000Y-197000000D01*
X201000000Y-200850000D02*
X203000000Y-198850000D01*
X215000000Y-211568026D02*
X215000000Y-213000000D01*
X211113073Y-207681099D02*
X215000000Y-211568026D01*
X205000000Y-198000000D02*
X211113073Y-204113073D01*
X211113073Y-204113073D02*
X211113073Y-207681099D01*
X219974990Y-210569496D02*
X219974990Y-202025010D01*
X208000000Y-218160000D02*
X212384486Y-218160000D01*
X212384486Y-218160000D02*
X219974990Y-210569496D01*
X219974990Y-202025010D02*
X224000000Y-198000000D01*
X235000000Y-195544486D02*
X235000000Y-194000000D01*
X224000000Y-198000000D02*
X232544486Y-198000000D01*
X232544486Y-198000000D02*
X235000000Y-195544486D01*
X231113073Y-207681099D02*
X235000000Y-211568026D01*
X235000000Y-211568026D02*
X235000000Y-213000000D01*
X225000000Y-199000000D02*
X231113073Y-205113073D01*
X231113073Y-205113073D02*
X231113073Y-207681099D01*
M02*
