G04 #@! TF.GenerationSoftware,KiCad,Pcbnew,(5.1.5)-3*
G04 #@! TF.CreationDate,2020-07-04T05:03:45+02:00*
G04 #@! TF.ProjectId,buttonboard,62757474-6f6e-4626-9f61-72642e6b6963,rev?*
G04 #@! TF.SameCoordinates,Original*
G04 #@! TF.FileFunction,Paste,Bot*
G04 #@! TF.FilePolarity,Positive*
%FSLAX46Y46*%
G04 Gerber Fmt 4.6, Leading zero omitted, Abs format (unit mm)*
G04 Created by KiCad (PCBNEW (5.1.5)-3) date 2020-07-04 05:03:45*
%MOMM*%
%LPD*%
G04 APERTURE LIST*
%ADD10R,1.500000X1.500000*%
%ADD11C,0.100000*%
G04 APERTURE END LIST*
D10*
X106698000Y-196731000D03*
X106698000Y-193302000D03*
X113302000Y-196731000D03*
X113302000Y-193302000D03*
X146698000Y-216731000D03*
X146698000Y-213302000D03*
X153302000Y-216731000D03*
X153302000Y-213302000D03*
X186698000Y-216731000D03*
X186698000Y-213302000D03*
X193302000Y-216731000D03*
X193302000Y-213302000D03*
X166698000Y-216731000D03*
X166698000Y-213302000D03*
X173302000Y-216731000D03*
X173302000Y-213302000D03*
X206698000Y-216731000D03*
X206698000Y-213302000D03*
X213302000Y-216731000D03*
X213302000Y-213302000D03*
X226698000Y-216731000D03*
X226698000Y-213302000D03*
X233302000Y-216731000D03*
X233302000Y-213302000D03*
X226698000Y-196731000D03*
X226698000Y-193302000D03*
X233302000Y-196731000D03*
X233302000Y-193302000D03*
X206698000Y-196731000D03*
X206698000Y-193302000D03*
X213302000Y-196731000D03*
X213302000Y-193302000D03*
X186698000Y-196731000D03*
X186698000Y-193302000D03*
X193302000Y-196731000D03*
X193302000Y-193302000D03*
X166698000Y-196731000D03*
X166698000Y-193302000D03*
X173302000Y-196731000D03*
X173302000Y-193302000D03*
X146698000Y-196731000D03*
X146698000Y-193302000D03*
X153302000Y-196731000D03*
X153302000Y-193302000D03*
X126698000Y-216731000D03*
X126698000Y-213302000D03*
X133302000Y-216731000D03*
X133302000Y-213302000D03*
X126698000Y-196731000D03*
X126698000Y-193302000D03*
X133302000Y-196731000D03*
X133302000Y-193302000D03*
X106698000Y-216731000D03*
X106698000Y-213302000D03*
X113302000Y-216731000D03*
X113302000Y-213302000D03*
X86698000Y-216731000D03*
X86698000Y-213302000D03*
X93302000Y-216731000D03*
X93302000Y-213302000D03*
X86698000Y-196731000D03*
X86698000Y-193302000D03*
X93302000Y-196731000D03*
X93302000Y-193302000D03*
D11*
G36*
X144474505Y-195451204D02*
G01*
X144498773Y-195454804D01*
X144522572Y-195460765D01*
X144545671Y-195469030D01*
X144567850Y-195479520D01*
X144588893Y-195492132D01*
X144608599Y-195506747D01*
X144626777Y-195523223D01*
X144643253Y-195541401D01*
X144657868Y-195561107D01*
X144670480Y-195582150D01*
X144680970Y-195604329D01*
X144689235Y-195627428D01*
X144695196Y-195651227D01*
X144698796Y-195675495D01*
X144700000Y-195699999D01*
X144700000Y-196350001D01*
X144698796Y-196374505D01*
X144695196Y-196398773D01*
X144689235Y-196422572D01*
X144680970Y-196445671D01*
X144670480Y-196467850D01*
X144657868Y-196488893D01*
X144643253Y-196508599D01*
X144626777Y-196526777D01*
X144608599Y-196543253D01*
X144588893Y-196557868D01*
X144567850Y-196570480D01*
X144545671Y-196580970D01*
X144522572Y-196589235D01*
X144498773Y-196595196D01*
X144474505Y-196598796D01*
X144450001Y-196600000D01*
X143549999Y-196600000D01*
X143525495Y-196598796D01*
X143501227Y-196595196D01*
X143477428Y-196589235D01*
X143454329Y-196580970D01*
X143432150Y-196570480D01*
X143411107Y-196557868D01*
X143391401Y-196543253D01*
X143373223Y-196526777D01*
X143356747Y-196508599D01*
X143342132Y-196488893D01*
X143329520Y-196467850D01*
X143319030Y-196445671D01*
X143310765Y-196422572D01*
X143304804Y-196398773D01*
X143301204Y-196374505D01*
X143300000Y-196350001D01*
X143300000Y-195699999D01*
X143301204Y-195675495D01*
X143304804Y-195651227D01*
X143310765Y-195627428D01*
X143319030Y-195604329D01*
X143329520Y-195582150D01*
X143342132Y-195561107D01*
X143356747Y-195541401D01*
X143373223Y-195523223D01*
X143391401Y-195506747D01*
X143411107Y-195492132D01*
X143432150Y-195479520D01*
X143454329Y-195469030D01*
X143477428Y-195460765D01*
X143501227Y-195454804D01*
X143525495Y-195451204D01*
X143549999Y-195450000D01*
X144450001Y-195450000D01*
X144474505Y-195451204D01*
G37*
G36*
X144474505Y-193401204D02*
G01*
X144498773Y-193404804D01*
X144522572Y-193410765D01*
X144545671Y-193419030D01*
X144567850Y-193429520D01*
X144588893Y-193442132D01*
X144608599Y-193456747D01*
X144626777Y-193473223D01*
X144643253Y-193491401D01*
X144657868Y-193511107D01*
X144670480Y-193532150D01*
X144680970Y-193554329D01*
X144689235Y-193577428D01*
X144695196Y-193601227D01*
X144698796Y-193625495D01*
X144700000Y-193649999D01*
X144700000Y-194300001D01*
X144698796Y-194324505D01*
X144695196Y-194348773D01*
X144689235Y-194372572D01*
X144680970Y-194395671D01*
X144670480Y-194417850D01*
X144657868Y-194438893D01*
X144643253Y-194458599D01*
X144626777Y-194476777D01*
X144608599Y-194493253D01*
X144588893Y-194507868D01*
X144567850Y-194520480D01*
X144545671Y-194530970D01*
X144522572Y-194539235D01*
X144498773Y-194545196D01*
X144474505Y-194548796D01*
X144450001Y-194550000D01*
X143549999Y-194550000D01*
X143525495Y-194548796D01*
X143501227Y-194545196D01*
X143477428Y-194539235D01*
X143454329Y-194530970D01*
X143432150Y-194520480D01*
X143411107Y-194507868D01*
X143391401Y-194493253D01*
X143373223Y-194476777D01*
X143356747Y-194458599D01*
X143342132Y-194438893D01*
X143329520Y-194417850D01*
X143319030Y-194395671D01*
X143310765Y-194372572D01*
X143304804Y-194348773D01*
X143301204Y-194324505D01*
X143300000Y-194300001D01*
X143300000Y-193649999D01*
X143301204Y-193625495D01*
X143304804Y-193601227D01*
X143310765Y-193577428D01*
X143319030Y-193554329D01*
X143329520Y-193532150D01*
X143342132Y-193511107D01*
X143356747Y-193491401D01*
X143373223Y-193473223D01*
X143391401Y-193456747D01*
X143411107Y-193442132D01*
X143432150Y-193429520D01*
X143454329Y-193419030D01*
X143477428Y-193410765D01*
X143501227Y-193404804D01*
X143525495Y-193401204D01*
X143549999Y-193400000D01*
X144450001Y-193400000D01*
X144474505Y-193401204D01*
G37*
G36*
X144474505Y-215476204D02*
G01*
X144498773Y-215479804D01*
X144522572Y-215485765D01*
X144545671Y-215494030D01*
X144567850Y-215504520D01*
X144588893Y-215517132D01*
X144608599Y-215531747D01*
X144626777Y-215548223D01*
X144643253Y-215566401D01*
X144657868Y-215586107D01*
X144670480Y-215607150D01*
X144680970Y-215629329D01*
X144689235Y-215652428D01*
X144695196Y-215676227D01*
X144698796Y-215700495D01*
X144700000Y-215724999D01*
X144700000Y-216375001D01*
X144698796Y-216399505D01*
X144695196Y-216423773D01*
X144689235Y-216447572D01*
X144680970Y-216470671D01*
X144670480Y-216492850D01*
X144657868Y-216513893D01*
X144643253Y-216533599D01*
X144626777Y-216551777D01*
X144608599Y-216568253D01*
X144588893Y-216582868D01*
X144567850Y-216595480D01*
X144545671Y-216605970D01*
X144522572Y-216614235D01*
X144498773Y-216620196D01*
X144474505Y-216623796D01*
X144450001Y-216625000D01*
X143549999Y-216625000D01*
X143525495Y-216623796D01*
X143501227Y-216620196D01*
X143477428Y-216614235D01*
X143454329Y-216605970D01*
X143432150Y-216595480D01*
X143411107Y-216582868D01*
X143391401Y-216568253D01*
X143373223Y-216551777D01*
X143356747Y-216533599D01*
X143342132Y-216513893D01*
X143329520Y-216492850D01*
X143319030Y-216470671D01*
X143310765Y-216447572D01*
X143304804Y-216423773D01*
X143301204Y-216399505D01*
X143300000Y-216375001D01*
X143300000Y-215724999D01*
X143301204Y-215700495D01*
X143304804Y-215676227D01*
X143310765Y-215652428D01*
X143319030Y-215629329D01*
X143329520Y-215607150D01*
X143342132Y-215586107D01*
X143356747Y-215566401D01*
X143373223Y-215548223D01*
X143391401Y-215531747D01*
X143411107Y-215517132D01*
X143432150Y-215504520D01*
X143454329Y-215494030D01*
X143477428Y-215485765D01*
X143501227Y-215479804D01*
X143525495Y-215476204D01*
X143549999Y-215475000D01*
X144450001Y-215475000D01*
X144474505Y-215476204D01*
G37*
G36*
X144474505Y-213426204D02*
G01*
X144498773Y-213429804D01*
X144522572Y-213435765D01*
X144545671Y-213444030D01*
X144567850Y-213454520D01*
X144588893Y-213467132D01*
X144608599Y-213481747D01*
X144626777Y-213498223D01*
X144643253Y-213516401D01*
X144657868Y-213536107D01*
X144670480Y-213557150D01*
X144680970Y-213579329D01*
X144689235Y-213602428D01*
X144695196Y-213626227D01*
X144698796Y-213650495D01*
X144700000Y-213674999D01*
X144700000Y-214325001D01*
X144698796Y-214349505D01*
X144695196Y-214373773D01*
X144689235Y-214397572D01*
X144680970Y-214420671D01*
X144670480Y-214442850D01*
X144657868Y-214463893D01*
X144643253Y-214483599D01*
X144626777Y-214501777D01*
X144608599Y-214518253D01*
X144588893Y-214532868D01*
X144567850Y-214545480D01*
X144545671Y-214555970D01*
X144522572Y-214564235D01*
X144498773Y-214570196D01*
X144474505Y-214573796D01*
X144450001Y-214575000D01*
X143549999Y-214575000D01*
X143525495Y-214573796D01*
X143501227Y-214570196D01*
X143477428Y-214564235D01*
X143454329Y-214555970D01*
X143432150Y-214545480D01*
X143411107Y-214532868D01*
X143391401Y-214518253D01*
X143373223Y-214501777D01*
X143356747Y-214483599D01*
X143342132Y-214463893D01*
X143329520Y-214442850D01*
X143319030Y-214420671D01*
X143310765Y-214397572D01*
X143304804Y-214373773D01*
X143301204Y-214349505D01*
X143300000Y-214325001D01*
X143300000Y-213674999D01*
X143301204Y-213650495D01*
X143304804Y-213626227D01*
X143310765Y-213602428D01*
X143319030Y-213579329D01*
X143329520Y-213557150D01*
X143342132Y-213536107D01*
X143356747Y-213516401D01*
X143373223Y-213498223D01*
X143391401Y-213481747D01*
X143411107Y-213467132D01*
X143432150Y-213454520D01*
X143454329Y-213444030D01*
X143477428Y-213435765D01*
X143501227Y-213429804D01*
X143525495Y-213426204D01*
X143549999Y-213425000D01*
X144450001Y-213425000D01*
X144474505Y-213426204D01*
G37*
G36*
X84474505Y-195451204D02*
G01*
X84498773Y-195454804D01*
X84522572Y-195460765D01*
X84545671Y-195469030D01*
X84567850Y-195479520D01*
X84588893Y-195492132D01*
X84608599Y-195506747D01*
X84626777Y-195523223D01*
X84643253Y-195541401D01*
X84657868Y-195561107D01*
X84670480Y-195582150D01*
X84680970Y-195604329D01*
X84689235Y-195627428D01*
X84695196Y-195651227D01*
X84698796Y-195675495D01*
X84700000Y-195699999D01*
X84700000Y-196350001D01*
X84698796Y-196374505D01*
X84695196Y-196398773D01*
X84689235Y-196422572D01*
X84680970Y-196445671D01*
X84670480Y-196467850D01*
X84657868Y-196488893D01*
X84643253Y-196508599D01*
X84626777Y-196526777D01*
X84608599Y-196543253D01*
X84588893Y-196557868D01*
X84567850Y-196570480D01*
X84545671Y-196580970D01*
X84522572Y-196589235D01*
X84498773Y-196595196D01*
X84474505Y-196598796D01*
X84450001Y-196600000D01*
X83549999Y-196600000D01*
X83525495Y-196598796D01*
X83501227Y-196595196D01*
X83477428Y-196589235D01*
X83454329Y-196580970D01*
X83432150Y-196570480D01*
X83411107Y-196557868D01*
X83391401Y-196543253D01*
X83373223Y-196526777D01*
X83356747Y-196508599D01*
X83342132Y-196488893D01*
X83329520Y-196467850D01*
X83319030Y-196445671D01*
X83310765Y-196422572D01*
X83304804Y-196398773D01*
X83301204Y-196374505D01*
X83300000Y-196350001D01*
X83300000Y-195699999D01*
X83301204Y-195675495D01*
X83304804Y-195651227D01*
X83310765Y-195627428D01*
X83319030Y-195604329D01*
X83329520Y-195582150D01*
X83342132Y-195561107D01*
X83356747Y-195541401D01*
X83373223Y-195523223D01*
X83391401Y-195506747D01*
X83411107Y-195492132D01*
X83432150Y-195479520D01*
X83454329Y-195469030D01*
X83477428Y-195460765D01*
X83501227Y-195454804D01*
X83525495Y-195451204D01*
X83549999Y-195450000D01*
X84450001Y-195450000D01*
X84474505Y-195451204D01*
G37*
G36*
X84474505Y-193401204D02*
G01*
X84498773Y-193404804D01*
X84522572Y-193410765D01*
X84545671Y-193419030D01*
X84567850Y-193429520D01*
X84588893Y-193442132D01*
X84608599Y-193456747D01*
X84626777Y-193473223D01*
X84643253Y-193491401D01*
X84657868Y-193511107D01*
X84670480Y-193532150D01*
X84680970Y-193554329D01*
X84689235Y-193577428D01*
X84695196Y-193601227D01*
X84698796Y-193625495D01*
X84700000Y-193649999D01*
X84700000Y-194300001D01*
X84698796Y-194324505D01*
X84695196Y-194348773D01*
X84689235Y-194372572D01*
X84680970Y-194395671D01*
X84670480Y-194417850D01*
X84657868Y-194438893D01*
X84643253Y-194458599D01*
X84626777Y-194476777D01*
X84608599Y-194493253D01*
X84588893Y-194507868D01*
X84567850Y-194520480D01*
X84545671Y-194530970D01*
X84522572Y-194539235D01*
X84498773Y-194545196D01*
X84474505Y-194548796D01*
X84450001Y-194550000D01*
X83549999Y-194550000D01*
X83525495Y-194548796D01*
X83501227Y-194545196D01*
X83477428Y-194539235D01*
X83454329Y-194530970D01*
X83432150Y-194520480D01*
X83411107Y-194507868D01*
X83391401Y-194493253D01*
X83373223Y-194476777D01*
X83356747Y-194458599D01*
X83342132Y-194438893D01*
X83329520Y-194417850D01*
X83319030Y-194395671D01*
X83310765Y-194372572D01*
X83304804Y-194348773D01*
X83301204Y-194324505D01*
X83300000Y-194300001D01*
X83300000Y-193649999D01*
X83301204Y-193625495D01*
X83304804Y-193601227D01*
X83310765Y-193577428D01*
X83319030Y-193554329D01*
X83329520Y-193532150D01*
X83342132Y-193511107D01*
X83356747Y-193491401D01*
X83373223Y-193473223D01*
X83391401Y-193456747D01*
X83411107Y-193442132D01*
X83432150Y-193429520D01*
X83454329Y-193419030D01*
X83477428Y-193410765D01*
X83501227Y-193404804D01*
X83525495Y-193401204D01*
X83549999Y-193400000D01*
X84450001Y-193400000D01*
X84474505Y-193401204D01*
G37*
G36*
X104474505Y-215476204D02*
G01*
X104498773Y-215479804D01*
X104522572Y-215485765D01*
X104545671Y-215494030D01*
X104567850Y-215504520D01*
X104588893Y-215517132D01*
X104608599Y-215531747D01*
X104626777Y-215548223D01*
X104643253Y-215566401D01*
X104657868Y-215586107D01*
X104670480Y-215607150D01*
X104680970Y-215629329D01*
X104689235Y-215652428D01*
X104695196Y-215676227D01*
X104698796Y-215700495D01*
X104700000Y-215724999D01*
X104700000Y-216375001D01*
X104698796Y-216399505D01*
X104695196Y-216423773D01*
X104689235Y-216447572D01*
X104680970Y-216470671D01*
X104670480Y-216492850D01*
X104657868Y-216513893D01*
X104643253Y-216533599D01*
X104626777Y-216551777D01*
X104608599Y-216568253D01*
X104588893Y-216582868D01*
X104567850Y-216595480D01*
X104545671Y-216605970D01*
X104522572Y-216614235D01*
X104498773Y-216620196D01*
X104474505Y-216623796D01*
X104450001Y-216625000D01*
X103549999Y-216625000D01*
X103525495Y-216623796D01*
X103501227Y-216620196D01*
X103477428Y-216614235D01*
X103454329Y-216605970D01*
X103432150Y-216595480D01*
X103411107Y-216582868D01*
X103391401Y-216568253D01*
X103373223Y-216551777D01*
X103356747Y-216533599D01*
X103342132Y-216513893D01*
X103329520Y-216492850D01*
X103319030Y-216470671D01*
X103310765Y-216447572D01*
X103304804Y-216423773D01*
X103301204Y-216399505D01*
X103300000Y-216375001D01*
X103300000Y-215724999D01*
X103301204Y-215700495D01*
X103304804Y-215676227D01*
X103310765Y-215652428D01*
X103319030Y-215629329D01*
X103329520Y-215607150D01*
X103342132Y-215586107D01*
X103356747Y-215566401D01*
X103373223Y-215548223D01*
X103391401Y-215531747D01*
X103411107Y-215517132D01*
X103432150Y-215504520D01*
X103454329Y-215494030D01*
X103477428Y-215485765D01*
X103501227Y-215479804D01*
X103525495Y-215476204D01*
X103549999Y-215475000D01*
X104450001Y-215475000D01*
X104474505Y-215476204D01*
G37*
G36*
X104474505Y-213426204D02*
G01*
X104498773Y-213429804D01*
X104522572Y-213435765D01*
X104545671Y-213444030D01*
X104567850Y-213454520D01*
X104588893Y-213467132D01*
X104608599Y-213481747D01*
X104626777Y-213498223D01*
X104643253Y-213516401D01*
X104657868Y-213536107D01*
X104670480Y-213557150D01*
X104680970Y-213579329D01*
X104689235Y-213602428D01*
X104695196Y-213626227D01*
X104698796Y-213650495D01*
X104700000Y-213674999D01*
X104700000Y-214325001D01*
X104698796Y-214349505D01*
X104695196Y-214373773D01*
X104689235Y-214397572D01*
X104680970Y-214420671D01*
X104670480Y-214442850D01*
X104657868Y-214463893D01*
X104643253Y-214483599D01*
X104626777Y-214501777D01*
X104608599Y-214518253D01*
X104588893Y-214532868D01*
X104567850Y-214545480D01*
X104545671Y-214555970D01*
X104522572Y-214564235D01*
X104498773Y-214570196D01*
X104474505Y-214573796D01*
X104450001Y-214575000D01*
X103549999Y-214575000D01*
X103525495Y-214573796D01*
X103501227Y-214570196D01*
X103477428Y-214564235D01*
X103454329Y-214555970D01*
X103432150Y-214545480D01*
X103411107Y-214532868D01*
X103391401Y-214518253D01*
X103373223Y-214501777D01*
X103356747Y-214483599D01*
X103342132Y-214463893D01*
X103329520Y-214442850D01*
X103319030Y-214420671D01*
X103310765Y-214397572D01*
X103304804Y-214373773D01*
X103301204Y-214349505D01*
X103300000Y-214325001D01*
X103300000Y-213674999D01*
X103301204Y-213650495D01*
X103304804Y-213626227D01*
X103310765Y-213602428D01*
X103319030Y-213579329D01*
X103329520Y-213557150D01*
X103342132Y-213536107D01*
X103356747Y-213516401D01*
X103373223Y-213498223D01*
X103391401Y-213481747D01*
X103411107Y-213467132D01*
X103432150Y-213454520D01*
X103454329Y-213444030D01*
X103477428Y-213435765D01*
X103501227Y-213429804D01*
X103525495Y-213426204D01*
X103549999Y-213425000D01*
X104450001Y-213425000D01*
X104474505Y-213426204D01*
G37*
G36*
X124474505Y-195451204D02*
G01*
X124498773Y-195454804D01*
X124522572Y-195460765D01*
X124545671Y-195469030D01*
X124567850Y-195479520D01*
X124588893Y-195492132D01*
X124608599Y-195506747D01*
X124626777Y-195523223D01*
X124643253Y-195541401D01*
X124657868Y-195561107D01*
X124670480Y-195582150D01*
X124680970Y-195604329D01*
X124689235Y-195627428D01*
X124695196Y-195651227D01*
X124698796Y-195675495D01*
X124700000Y-195699999D01*
X124700000Y-196350001D01*
X124698796Y-196374505D01*
X124695196Y-196398773D01*
X124689235Y-196422572D01*
X124680970Y-196445671D01*
X124670480Y-196467850D01*
X124657868Y-196488893D01*
X124643253Y-196508599D01*
X124626777Y-196526777D01*
X124608599Y-196543253D01*
X124588893Y-196557868D01*
X124567850Y-196570480D01*
X124545671Y-196580970D01*
X124522572Y-196589235D01*
X124498773Y-196595196D01*
X124474505Y-196598796D01*
X124450001Y-196600000D01*
X123549999Y-196600000D01*
X123525495Y-196598796D01*
X123501227Y-196595196D01*
X123477428Y-196589235D01*
X123454329Y-196580970D01*
X123432150Y-196570480D01*
X123411107Y-196557868D01*
X123391401Y-196543253D01*
X123373223Y-196526777D01*
X123356747Y-196508599D01*
X123342132Y-196488893D01*
X123329520Y-196467850D01*
X123319030Y-196445671D01*
X123310765Y-196422572D01*
X123304804Y-196398773D01*
X123301204Y-196374505D01*
X123300000Y-196350001D01*
X123300000Y-195699999D01*
X123301204Y-195675495D01*
X123304804Y-195651227D01*
X123310765Y-195627428D01*
X123319030Y-195604329D01*
X123329520Y-195582150D01*
X123342132Y-195561107D01*
X123356747Y-195541401D01*
X123373223Y-195523223D01*
X123391401Y-195506747D01*
X123411107Y-195492132D01*
X123432150Y-195479520D01*
X123454329Y-195469030D01*
X123477428Y-195460765D01*
X123501227Y-195454804D01*
X123525495Y-195451204D01*
X123549999Y-195450000D01*
X124450001Y-195450000D01*
X124474505Y-195451204D01*
G37*
G36*
X124474505Y-193401204D02*
G01*
X124498773Y-193404804D01*
X124522572Y-193410765D01*
X124545671Y-193419030D01*
X124567850Y-193429520D01*
X124588893Y-193442132D01*
X124608599Y-193456747D01*
X124626777Y-193473223D01*
X124643253Y-193491401D01*
X124657868Y-193511107D01*
X124670480Y-193532150D01*
X124680970Y-193554329D01*
X124689235Y-193577428D01*
X124695196Y-193601227D01*
X124698796Y-193625495D01*
X124700000Y-193649999D01*
X124700000Y-194300001D01*
X124698796Y-194324505D01*
X124695196Y-194348773D01*
X124689235Y-194372572D01*
X124680970Y-194395671D01*
X124670480Y-194417850D01*
X124657868Y-194438893D01*
X124643253Y-194458599D01*
X124626777Y-194476777D01*
X124608599Y-194493253D01*
X124588893Y-194507868D01*
X124567850Y-194520480D01*
X124545671Y-194530970D01*
X124522572Y-194539235D01*
X124498773Y-194545196D01*
X124474505Y-194548796D01*
X124450001Y-194550000D01*
X123549999Y-194550000D01*
X123525495Y-194548796D01*
X123501227Y-194545196D01*
X123477428Y-194539235D01*
X123454329Y-194530970D01*
X123432150Y-194520480D01*
X123411107Y-194507868D01*
X123391401Y-194493253D01*
X123373223Y-194476777D01*
X123356747Y-194458599D01*
X123342132Y-194438893D01*
X123329520Y-194417850D01*
X123319030Y-194395671D01*
X123310765Y-194372572D01*
X123304804Y-194348773D01*
X123301204Y-194324505D01*
X123300000Y-194300001D01*
X123300000Y-193649999D01*
X123301204Y-193625495D01*
X123304804Y-193601227D01*
X123310765Y-193577428D01*
X123319030Y-193554329D01*
X123329520Y-193532150D01*
X123342132Y-193511107D01*
X123356747Y-193491401D01*
X123373223Y-193473223D01*
X123391401Y-193456747D01*
X123411107Y-193442132D01*
X123432150Y-193429520D01*
X123454329Y-193419030D01*
X123477428Y-193410765D01*
X123501227Y-193404804D01*
X123525495Y-193401204D01*
X123549999Y-193400000D01*
X124450001Y-193400000D01*
X124474505Y-193401204D01*
G37*
G36*
X84474505Y-215476204D02*
G01*
X84498773Y-215479804D01*
X84522572Y-215485765D01*
X84545671Y-215494030D01*
X84567850Y-215504520D01*
X84588893Y-215517132D01*
X84608599Y-215531747D01*
X84626777Y-215548223D01*
X84643253Y-215566401D01*
X84657868Y-215586107D01*
X84670480Y-215607150D01*
X84680970Y-215629329D01*
X84689235Y-215652428D01*
X84695196Y-215676227D01*
X84698796Y-215700495D01*
X84700000Y-215724999D01*
X84700000Y-216375001D01*
X84698796Y-216399505D01*
X84695196Y-216423773D01*
X84689235Y-216447572D01*
X84680970Y-216470671D01*
X84670480Y-216492850D01*
X84657868Y-216513893D01*
X84643253Y-216533599D01*
X84626777Y-216551777D01*
X84608599Y-216568253D01*
X84588893Y-216582868D01*
X84567850Y-216595480D01*
X84545671Y-216605970D01*
X84522572Y-216614235D01*
X84498773Y-216620196D01*
X84474505Y-216623796D01*
X84450001Y-216625000D01*
X83549999Y-216625000D01*
X83525495Y-216623796D01*
X83501227Y-216620196D01*
X83477428Y-216614235D01*
X83454329Y-216605970D01*
X83432150Y-216595480D01*
X83411107Y-216582868D01*
X83391401Y-216568253D01*
X83373223Y-216551777D01*
X83356747Y-216533599D01*
X83342132Y-216513893D01*
X83329520Y-216492850D01*
X83319030Y-216470671D01*
X83310765Y-216447572D01*
X83304804Y-216423773D01*
X83301204Y-216399505D01*
X83300000Y-216375001D01*
X83300000Y-215724999D01*
X83301204Y-215700495D01*
X83304804Y-215676227D01*
X83310765Y-215652428D01*
X83319030Y-215629329D01*
X83329520Y-215607150D01*
X83342132Y-215586107D01*
X83356747Y-215566401D01*
X83373223Y-215548223D01*
X83391401Y-215531747D01*
X83411107Y-215517132D01*
X83432150Y-215504520D01*
X83454329Y-215494030D01*
X83477428Y-215485765D01*
X83501227Y-215479804D01*
X83525495Y-215476204D01*
X83549999Y-215475000D01*
X84450001Y-215475000D01*
X84474505Y-215476204D01*
G37*
G36*
X84474505Y-213426204D02*
G01*
X84498773Y-213429804D01*
X84522572Y-213435765D01*
X84545671Y-213444030D01*
X84567850Y-213454520D01*
X84588893Y-213467132D01*
X84608599Y-213481747D01*
X84626777Y-213498223D01*
X84643253Y-213516401D01*
X84657868Y-213536107D01*
X84670480Y-213557150D01*
X84680970Y-213579329D01*
X84689235Y-213602428D01*
X84695196Y-213626227D01*
X84698796Y-213650495D01*
X84700000Y-213674999D01*
X84700000Y-214325001D01*
X84698796Y-214349505D01*
X84695196Y-214373773D01*
X84689235Y-214397572D01*
X84680970Y-214420671D01*
X84670480Y-214442850D01*
X84657868Y-214463893D01*
X84643253Y-214483599D01*
X84626777Y-214501777D01*
X84608599Y-214518253D01*
X84588893Y-214532868D01*
X84567850Y-214545480D01*
X84545671Y-214555970D01*
X84522572Y-214564235D01*
X84498773Y-214570196D01*
X84474505Y-214573796D01*
X84450001Y-214575000D01*
X83549999Y-214575000D01*
X83525495Y-214573796D01*
X83501227Y-214570196D01*
X83477428Y-214564235D01*
X83454329Y-214555970D01*
X83432150Y-214545480D01*
X83411107Y-214532868D01*
X83391401Y-214518253D01*
X83373223Y-214501777D01*
X83356747Y-214483599D01*
X83342132Y-214463893D01*
X83329520Y-214442850D01*
X83319030Y-214420671D01*
X83310765Y-214397572D01*
X83304804Y-214373773D01*
X83301204Y-214349505D01*
X83300000Y-214325001D01*
X83300000Y-213674999D01*
X83301204Y-213650495D01*
X83304804Y-213626227D01*
X83310765Y-213602428D01*
X83319030Y-213579329D01*
X83329520Y-213557150D01*
X83342132Y-213536107D01*
X83356747Y-213516401D01*
X83373223Y-213498223D01*
X83391401Y-213481747D01*
X83411107Y-213467132D01*
X83432150Y-213454520D01*
X83454329Y-213444030D01*
X83477428Y-213435765D01*
X83501227Y-213429804D01*
X83525495Y-213426204D01*
X83549999Y-213425000D01*
X84450001Y-213425000D01*
X84474505Y-213426204D01*
G37*
G36*
X104474505Y-195426204D02*
G01*
X104498773Y-195429804D01*
X104522572Y-195435765D01*
X104545671Y-195444030D01*
X104567850Y-195454520D01*
X104588893Y-195467132D01*
X104608599Y-195481747D01*
X104626777Y-195498223D01*
X104643253Y-195516401D01*
X104657868Y-195536107D01*
X104670480Y-195557150D01*
X104680970Y-195579329D01*
X104689235Y-195602428D01*
X104695196Y-195626227D01*
X104698796Y-195650495D01*
X104700000Y-195674999D01*
X104700000Y-196325001D01*
X104698796Y-196349505D01*
X104695196Y-196373773D01*
X104689235Y-196397572D01*
X104680970Y-196420671D01*
X104670480Y-196442850D01*
X104657868Y-196463893D01*
X104643253Y-196483599D01*
X104626777Y-196501777D01*
X104608599Y-196518253D01*
X104588893Y-196532868D01*
X104567850Y-196545480D01*
X104545671Y-196555970D01*
X104522572Y-196564235D01*
X104498773Y-196570196D01*
X104474505Y-196573796D01*
X104450001Y-196575000D01*
X103549999Y-196575000D01*
X103525495Y-196573796D01*
X103501227Y-196570196D01*
X103477428Y-196564235D01*
X103454329Y-196555970D01*
X103432150Y-196545480D01*
X103411107Y-196532868D01*
X103391401Y-196518253D01*
X103373223Y-196501777D01*
X103356747Y-196483599D01*
X103342132Y-196463893D01*
X103329520Y-196442850D01*
X103319030Y-196420671D01*
X103310765Y-196397572D01*
X103304804Y-196373773D01*
X103301204Y-196349505D01*
X103300000Y-196325001D01*
X103300000Y-195674999D01*
X103301204Y-195650495D01*
X103304804Y-195626227D01*
X103310765Y-195602428D01*
X103319030Y-195579329D01*
X103329520Y-195557150D01*
X103342132Y-195536107D01*
X103356747Y-195516401D01*
X103373223Y-195498223D01*
X103391401Y-195481747D01*
X103411107Y-195467132D01*
X103432150Y-195454520D01*
X103454329Y-195444030D01*
X103477428Y-195435765D01*
X103501227Y-195429804D01*
X103525495Y-195426204D01*
X103549999Y-195425000D01*
X104450001Y-195425000D01*
X104474505Y-195426204D01*
G37*
G36*
X104474505Y-193376204D02*
G01*
X104498773Y-193379804D01*
X104522572Y-193385765D01*
X104545671Y-193394030D01*
X104567850Y-193404520D01*
X104588893Y-193417132D01*
X104608599Y-193431747D01*
X104626777Y-193448223D01*
X104643253Y-193466401D01*
X104657868Y-193486107D01*
X104670480Y-193507150D01*
X104680970Y-193529329D01*
X104689235Y-193552428D01*
X104695196Y-193576227D01*
X104698796Y-193600495D01*
X104700000Y-193624999D01*
X104700000Y-194275001D01*
X104698796Y-194299505D01*
X104695196Y-194323773D01*
X104689235Y-194347572D01*
X104680970Y-194370671D01*
X104670480Y-194392850D01*
X104657868Y-194413893D01*
X104643253Y-194433599D01*
X104626777Y-194451777D01*
X104608599Y-194468253D01*
X104588893Y-194482868D01*
X104567850Y-194495480D01*
X104545671Y-194505970D01*
X104522572Y-194514235D01*
X104498773Y-194520196D01*
X104474505Y-194523796D01*
X104450001Y-194525000D01*
X103549999Y-194525000D01*
X103525495Y-194523796D01*
X103501227Y-194520196D01*
X103477428Y-194514235D01*
X103454329Y-194505970D01*
X103432150Y-194495480D01*
X103411107Y-194482868D01*
X103391401Y-194468253D01*
X103373223Y-194451777D01*
X103356747Y-194433599D01*
X103342132Y-194413893D01*
X103329520Y-194392850D01*
X103319030Y-194370671D01*
X103310765Y-194347572D01*
X103304804Y-194323773D01*
X103301204Y-194299505D01*
X103300000Y-194275001D01*
X103300000Y-193624999D01*
X103301204Y-193600495D01*
X103304804Y-193576227D01*
X103310765Y-193552428D01*
X103319030Y-193529329D01*
X103329520Y-193507150D01*
X103342132Y-193486107D01*
X103356747Y-193466401D01*
X103373223Y-193448223D01*
X103391401Y-193431747D01*
X103411107Y-193417132D01*
X103432150Y-193404520D01*
X103454329Y-193394030D01*
X103477428Y-193385765D01*
X103501227Y-193379804D01*
X103525495Y-193376204D01*
X103549999Y-193375000D01*
X104450001Y-193375000D01*
X104474505Y-193376204D01*
G37*
G36*
X124474505Y-215476204D02*
G01*
X124498773Y-215479804D01*
X124522572Y-215485765D01*
X124545671Y-215494030D01*
X124567850Y-215504520D01*
X124588893Y-215517132D01*
X124608599Y-215531747D01*
X124626777Y-215548223D01*
X124643253Y-215566401D01*
X124657868Y-215586107D01*
X124670480Y-215607150D01*
X124680970Y-215629329D01*
X124689235Y-215652428D01*
X124695196Y-215676227D01*
X124698796Y-215700495D01*
X124700000Y-215724999D01*
X124700000Y-216375001D01*
X124698796Y-216399505D01*
X124695196Y-216423773D01*
X124689235Y-216447572D01*
X124680970Y-216470671D01*
X124670480Y-216492850D01*
X124657868Y-216513893D01*
X124643253Y-216533599D01*
X124626777Y-216551777D01*
X124608599Y-216568253D01*
X124588893Y-216582868D01*
X124567850Y-216595480D01*
X124545671Y-216605970D01*
X124522572Y-216614235D01*
X124498773Y-216620196D01*
X124474505Y-216623796D01*
X124450001Y-216625000D01*
X123549999Y-216625000D01*
X123525495Y-216623796D01*
X123501227Y-216620196D01*
X123477428Y-216614235D01*
X123454329Y-216605970D01*
X123432150Y-216595480D01*
X123411107Y-216582868D01*
X123391401Y-216568253D01*
X123373223Y-216551777D01*
X123356747Y-216533599D01*
X123342132Y-216513893D01*
X123329520Y-216492850D01*
X123319030Y-216470671D01*
X123310765Y-216447572D01*
X123304804Y-216423773D01*
X123301204Y-216399505D01*
X123300000Y-216375001D01*
X123300000Y-215724999D01*
X123301204Y-215700495D01*
X123304804Y-215676227D01*
X123310765Y-215652428D01*
X123319030Y-215629329D01*
X123329520Y-215607150D01*
X123342132Y-215586107D01*
X123356747Y-215566401D01*
X123373223Y-215548223D01*
X123391401Y-215531747D01*
X123411107Y-215517132D01*
X123432150Y-215504520D01*
X123454329Y-215494030D01*
X123477428Y-215485765D01*
X123501227Y-215479804D01*
X123525495Y-215476204D01*
X123549999Y-215475000D01*
X124450001Y-215475000D01*
X124474505Y-215476204D01*
G37*
G36*
X124474505Y-213426204D02*
G01*
X124498773Y-213429804D01*
X124522572Y-213435765D01*
X124545671Y-213444030D01*
X124567850Y-213454520D01*
X124588893Y-213467132D01*
X124608599Y-213481747D01*
X124626777Y-213498223D01*
X124643253Y-213516401D01*
X124657868Y-213536107D01*
X124670480Y-213557150D01*
X124680970Y-213579329D01*
X124689235Y-213602428D01*
X124695196Y-213626227D01*
X124698796Y-213650495D01*
X124700000Y-213674999D01*
X124700000Y-214325001D01*
X124698796Y-214349505D01*
X124695196Y-214373773D01*
X124689235Y-214397572D01*
X124680970Y-214420671D01*
X124670480Y-214442850D01*
X124657868Y-214463893D01*
X124643253Y-214483599D01*
X124626777Y-214501777D01*
X124608599Y-214518253D01*
X124588893Y-214532868D01*
X124567850Y-214545480D01*
X124545671Y-214555970D01*
X124522572Y-214564235D01*
X124498773Y-214570196D01*
X124474505Y-214573796D01*
X124450001Y-214575000D01*
X123549999Y-214575000D01*
X123525495Y-214573796D01*
X123501227Y-214570196D01*
X123477428Y-214564235D01*
X123454329Y-214555970D01*
X123432150Y-214545480D01*
X123411107Y-214532868D01*
X123391401Y-214518253D01*
X123373223Y-214501777D01*
X123356747Y-214483599D01*
X123342132Y-214463893D01*
X123329520Y-214442850D01*
X123319030Y-214420671D01*
X123310765Y-214397572D01*
X123304804Y-214373773D01*
X123301204Y-214349505D01*
X123300000Y-214325001D01*
X123300000Y-213674999D01*
X123301204Y-213650495D01*
X123304804Y-213626227D01*
X123310765Y-213602428D01*
X123319030Y-213579329D01*
X123329520Y-213557150D01*
X123342132Y-213536107D01*
X123356747Y-213516401D01*
X123373223Y-213498223D01*
X123391401Y-213481747D01*
X123411107Y-213467132D01*
X123432150Y-213454520D01*
X123454329Y-213444030D01*
X123477428Y-213435765D01*
X123501227Y-213429804D01*
X123525495Y-213426204D01*
X123549999Y-213425000D01*
X124450001Y-213425000D01*
X124474505Y-213426204D01*
G37*
G36*
X164474505Y-195476204D02*
G01*
X164498773Y-195479804D01*
X164522572Y-195485765D01*
X164545671Y-195494030D01*
X164567850Y-195504520D01*
X164588893Y-195517132D01*
X164608599Y-195531747D01*
X164626777Y-195548223D01*
X164643253Y-195566401D01*
X164657868Y-195586107D01*
X164670480Y-195607150D01*
X164680970Y-195629329D01*
X164689235Y-195652428D01*
X164695196Y-195676227D01*
X164698796Y-195700495D01*
X164700000Y-195724999D01*
X164700000Y-196375001D01*
X164698796Y-196399505D01*
X164695196Y-196423773D01*
X164689235Y-196447572D01*
X164680970Y-196470671D01*
X164670480Y-196492850D01*
X164657868Y-196513893D01*
X164643253Y-196533599D01*
X164626777Y-196551777D01*
X164608599Y-196568253D01*
X164588893Y-196582868D01*
X164567850Y-196595480D01*
X164545671Y-196605970D01*
X164522572Y-196614235D01*
X164498773Y-196620196D01*
X164474505Y-196623796D01*
X164450001Y-196625000D01*
X163549999Y-196625000D01*
X163525495Y-196623796D01*
X163501227Y-196620196D01*
X163477428Y-196614235D01*
X163454329Y-196605970D01*
X163432150Y-196595480D01*
X163411107Y-196582868D01*
X163391401Y-196568253D01*
X163373223Y-196551777D01*
X163356747Y-196533599D01*
X163342132Y-196513893D01*
X163329520Y-196492850D01*
X163319030Y-196470671D01*
X163310765Y-196447572D01*
X163304804Y-196423773D01*
X163301204Y-196399505D01*
X163300000Y-196375001D01*
X163300000Y-195724999D01*
X163301204Y-195700495D01*
X163304804Y-195676227D01*
X163310765Y-195652428D01*
X163319030Y-195629329D01*
X163329520Y-195607150D01*
X163342132Y-195586107D01*
X163356747Y-195566401D01*
X163373223Y-195548223D01*
X163391401Y-195531747D01*
X163411107Y-195517132D01*
X163432150Y-195504520D01*
X163454329Y-195494030D01*
X163477428Y-195485765D01*
X163501227Y-195479804D01*
X163525495Y-195476204D01*
X163549999Y-195475000D01*
X164450001Y-195475000D01*
X164474505Y-195476204D01*
G37*
G36*
X164474505Y-193426204D02*
G01*
X164498773Y-193429804D01*
X164522572Y-193435765D01*
X164545671Y-193444030D01*
X164567850Y-193454520D01*
X164588893Y-193467132D01*
X164608599Y-193481747D01*
X164626777Y-193498223D01*
X164643253Y-193516401D01*
X164657868Y-193536107D01*
X164670480Y-193557150D01*
X164680970Y-193579329D01*
X164689235Y-193602428D01*
X164695196Y-193626227D01*
X164698796Y-193650495D01*
X164700000Y-193674999D01*
X164700000Y-194325001D01*
X164698796Y-194349505D01*
X164695196Y-194373773D01*
X164689235Y-194397572D01*
X164680970Y-194420671D01*
X164670480Y-194442850D01*
X164657868Y-194463893D01*
X164643253Y-194483599D01*
X164626777Y-194501777D01*
X164608599Y-194518253D01*
X164588893Y-194532868D01*
X164567850Y-194545480D01*
X164545671Y-194555970D01*
X164522572Y-194564235D01*
X164498773Y-194570196D01*
X164474505Y-194573796D01*
X164450001Y-194575000D01*
X163549999Y-194575000D01*
X163525495Y-194573796D01*
X163501227Y-194570196D01*
X163477428Y-194564235D01*
X163454329Y-194555970D01*
X163432150Y-194545480D01*
X163411107Y-194532868D01*
X163391401Y-194518253D01*
X163373223Y-194501777D01*
X163356747Y-194483599D01*
X163342132Y-194463893D01*
X163329520Y-194442850D01*
X163319030Y-194420671D01*
X163310765Y-194397572D01*
X163304804Y-194373773D01*
X163301204Y-194349505D01*
X163300000Y-194325001D01*
X163300000Y-193674999D01*
X163301204Y-193650495D01*
X163304804Y-193626227D01*
X163310765Y-193602428D01*
X163319030Y-193579329D01*
X163329520Y-193557150D01*
X163342132Y-193536107D01*
X163356747Y-193516401D01*
X163373223Y-193498223D01*
X163391401Y-193481747D01*
X163411107Y-193467132D01*
X163432150Y-193454520D01*
X163454329Y-193444030D01*
X163477428Y-193435765D01*
X163501227Y-193429804D01*
X163525495Y-193426204D01*
X163549999Y-193425000D01*
X164450001Y-193425000D01*
X164474505Y-193426204D01*
G37*
G36*
X204474505Y-215476204D02*
G01*
X204498773Y-215479804D01*
X204522572Y-215485765D01*
X204545671Y-215494030D01*
X204567850Y-215504520D01*
X204588893Y-215517132D01*
X204608599Y-215531747D01*
X204626777Y-215548223D01*
X204643253Y-215566401D01*
X204657868Y-215586107D01*
X204670480Y-215607150D01*
X204680970Y-215629329D01*
X204689235Y-215652428D01*
X204695196Y-215676227D01*
X204698796Y-215700495D01*
X204700000Y-215724999D01*
X204700000Y-216375001D01*
X204698796Y-216399505D01*
X204695196Y-216423773D01*
X204689235Y-216447572D01*
X204680970Y-216470671D01*
X204670480Y-216492850D01*
X204657868Y-216513893D01*
X204643253Y-216533599D01*
X204626777Y-216551777D01*
X204608599Y-216568253D01*
X204588893Y-216582868D01*
X204567850Y-216595480D01*
X204545671Y-216605970D01*
X204522572Y-216614235D01*
X204498773Y-216620196D01*
X204474505Y-216623796D01*
X204450001Y-216625000D01*
X203549999Y-216625000D01*
X203525495Y-216623796D01*
X203501227Y-216620196D01*
X203477428Y-216614235D01*
X203454329Y-216605970D01*
X203432150Y-216595480D01*
X203411107Y-216582868D01*
X203391401Y-216568253D01*
X203373223Y-216551777D01*
X203356747Y-216533599D01*
X203342132Y-216513893D01*
X203329520Y-216492850D01*
X203319030Y-216470671D01*
X203310765Y-216447572D01*
X203304804Y-216423773D01*
X203301204Y-216399505D01*
X203300000Y-216375001D01*
X203300000Y-215724999D01*
X203301204Y-215700495D01*
X203304804Y-215676227D01*
X203310765Y-215652428D01*
X203319030Y-215629329D01*
X203329520Y-215607150D01*
X203342132Y-215586107D01*
X203356747Y-215566401D01*
X203373223Y-215548223D01*
X203391401Y-215531747D01*
X203411107Y-215517132D01*
X203432150Y-215504520D01*
X203454329Y-215494030D01*
X203477428Y-215485765D01*
X203501227Y-215479804D01*
X203525495Y-215476204D01*
X203549999Y-215475000D01*
X204450001Y-215475000D01*
X204474505Y-215476204D01*
G37*
G36*
X204474505Y-213426204D02*
G01*
X204498773Y-213429804D01*
X204522572Y-213435765D01*
X204545671Y-213444030D01*
X204567850Y-213454520D01*
X204588893Y-213467132D01*
X204608599Y-213481747D01*
X204626777Y-213498223D01*
X204643253Y-213516401D01*
X204657868Y-213536107D01*
X204670480Y-213557150D01*
X204680970Y-213579329D01*
X204689235Y-213602428D01*
X204695196Y-213626227D01*
X204698796Y-213650495D01*
X204700000Y-213674999D01*
X204700000Y-214325001D01*
X204698796Y-214349505D01*
X204695196Y-214373773D01*
X204689235Y-214397572D01*
X204680970Y-214420671D01*
X204670480Y-214442850D01*
X204657868Y-214463893D01*
X204643253Y-214483599D01*
X204626777Y-214501777D01*
X204608599Y-214518253D01*
X204588893Y-214532868D01*
X204567850Y-214545480D01*
X204545671Y-214555970D01*
X204522572Y-214564235D01*
X204498773Y-214570196D01*
X204474505Y-214573796D01*
X204450001Y-214575000D01*
X203549999Y-214575000D01*
X203525495Y-214573796D01*
X203501227Y-214570196D01*
X203477428Y-214564235D01*
X203454329Y-214555970D01*
X203432150Y-214545480D01*
X203411107Y-214532868D01*
X203391401Y-214518253D01*
X203373223Y-214501777D01*
X203356747Y-214483599D01*
X203342132Y-214463893D01*
X203329520Y-214442850D01*
X203319030Y-214420671D01*
X203310765Y-214397572D01*
X203304804Y-214373773D01*
X203301204Y-214349505D01*
X203300000Y-214325001D01*
X203300000Y-213674999D01*
X203301204Y-213650495D01*
X203304804Y-213626227D01*
X203310765Y-213602428D01*
X203319030Y-213579329D01*
X203329520Y-213557150D01*
X203342132Y-213536107D01*
X203356747Y-213516401D01*
X203373223Y-213498223D01*
X203391401Y-213481747D01*
X203411107Y-213467132D01*
X203432150Y-213454520D01*
X203454329Y-213444030D01*
X203477428Y-213435765D01*
X203501227Y-213429804D01*
X203525495Y-213426204D01*
X203549999Y-213425000D01*
X204450001Y-213425000D01*
X204474505Y-213426204D01*
G37*
G36*
X184474505Y-215476204D02*
G01*
X184498773Y-215479804D01*
X184522572Y-215485765D01*
X184545671Y-215494030D01*
X184567850Y-215504520D01*
X184588893Y-215517132D01*
X184608599Y-215531747D01*
X184626777Y-215548223D01*
X184643253Y-215566401D01*
X184657868Y-215586107D01*
X184670480Y-215607150D01*
X184680970Y-215629329D01*
X184689235Y-215652428D01*
X184695196Y-215676227D01*
X184698796Y-215700495D01*
X184700000Y-215724999D01*
X184700000Y-216375001D01*
X184698796Y-216399505D01*
X184695196Y-216423773D01*
X184689235Y-216447572D01*
X184680970Y-216470671D01*
X184670480Y-216492850D01*
X184657868Y-216513893D01*
X184643253Y-216533599D01*
X184626777Y-216551777D01*
X184608599Y-216568253D01*
X184588893Y-216582868D01*
X184567850Y-216595480D01*
X184545671Y-216605970D01*
X184522572Y-216614235D01*
X184498773Y-216620196D01*
X184474505Y-216623796D01*
X184450001Y-216625000D01*
X183549999Y-216625000D01*
X183525495Y-216623796D01*
X183501227Y-216620196D01*
X183477428Y-216614235D01*
X183454329Y-216605970D01*
X183432150Y-216595480D01*
X183411107Y-216582868D01*
X183391401Y-216568253D01*
X183373223Y-216551777D01*
X183356747Y-216533599D01*
X183342132Y-216513893D01*
X183329520Y-216492850D01*
X183319030Y-216470671D01*
X183310765Y-216447572D01*
X183304804Y-216423773D01*
X183301204Y-216399505D01*
X183300000Y-216375001D01*
X183300000Y-215724999D01*
X183301204Y-215700495D01*
X183304804Y-215676227D01*
X183310765Y-215652428D01*
X183319030Y-215629329D01*
X183329520Y-215607150D01*
X183342132Y-215586107D01*
X183356747Y-215566401D01*
X183373223Y-215548223D01*
X183391401Y-215531747D01*
X183411107Y-215517132D01*
X183432150Y-215504520D01*
X183454329Y-215494030D01*
X183477428Y-215485765D01*
X183501227Y-215479804D01*
X183525495Y-215476204D01*
X183549999Y-215475000D01*
X184450001Y-215475000D01*
X184474505Y-215476204D01*
G37*
G36*
X184474505Y-213426204D02*
G01*
X184498773Y-213429804D01*
X184522572Y-213435765D01*
X184545671Y-213444030D01*
X184567850Y-213454520D01*
X184588893Y-213467132D01*
X184608599Y-213481747D01*
X184626777Y-213498223D01*
X184643253Y-213516401D01*
X184657868Y-213536107D01*
X184670480Y-213557150D01*
X184680970Y-213579329D01*
X184689235Y-213602428D01*
X184695196Y-213626227D01*
X184698796Y-213650495D01*
X184700000Y-213674999D01*
X184700000Y-214325001D01*
X184698796Y-214349505D01*
X184695196Y-214373773D01*
X184689235Y-214397572D01*
X184680970Y-214420671D01*
X184670480Y-214442850D01*
X184657868Y-214463893D01*
X184643253Y-214483599D01*
X184626777Y-214501777D01*
X184608599Y-214518253D01*
X184588893Y-214532868D01*
X184567850Y-214545480D01*
X184545671Y-214555970D01*
X184522572Y-214564235D01*
X184498773Y-214570196D01*
X184474505Y-214573796D01*
X184450001Y-214575000D01*
X183549999Y-214575000D01*
X183525495Y-214573796D01*
X183501227Y-214570196D01*
X183477428Y-214564235D01*
X183454329Y-214555970D01*
X183432150Y-214545480D01*
X183411107Y-214532868D01*
X183391401Y-214518253D01*
X183373223Y-214501777D01*
X183356747Y-214483599D01*
X183342132Y-214463893D01*
X183329520Y-214442850D01*
X183319030Y-214420671D01*
X183310765Y-214397572D01*
X183304804Y-214373773D01*
X183301204Y-214349505D01*
X183300000Y-214325001D01*
X183300000Y-213674999D01*
X183301204Y-213650495D01*
X183304804Y-213626227D01*
X183310765Y-213602428D01*
X183319030Y-213579329D01*
X183329520Y-213557150D01*
X183342132Y-213536107D01*
X183356747Y-213516401D01*
X183373223Y-213498223D01*
X183391401Y-213481747D01*
X183411107Y-213467132D01*
X183432150Y-213454520D01*
X183454329Y-213444030D01*
X183477428Y-213435765D01*
X183501227Y-213429804D01*
X183525495Y-213426204D01*
X183549999Y-213425000D01*
X184450001Y-213425000D01*
X184474505Y-213426204D01*
G37*
G36*
X164474505Y-215476204D02*
G01*
X164498773Y-215479804D01*
X164522572Y-215485765D01*
X164545671Y-215494030D01*
X164567850Y-215504520D01*
X164588893Y-215517132D01*
X164608599Y-215531747D01*
X164626777Y-215548223D01*
X164643253Y-215566401D01*
X164657868Y-215586107D01*
X164670480Y-215607150D01*
X164680970Y-215629329D01*
X164689235Y-215652428D01*
X164695196Y-215676227D01*
X164698796Y-215700495D01*
X164700000Y-215724999D01*
X164700000Y-216375001D01*
X164698796Y-216399505D01*
X164695196Y-216423773D01*
X164689235Y-216447572D01*
X164680970Y-216470671D01*
X164670480Y-216492850D01*
X164657868Y-216513893D01*
X164643253Y-216533599D01*
X164626777Y-216551777D01*
X164608599Y-216568253D01*
X164588893Y-216582868D01*
X164567850Y-216595480D01*
X164545671Y-216605970D01*
X164522572Y-216614235D01*
X164498773Y-216620196D01*
X164474505Y-216623796D01*
X164450001Y-216625000D01*
X163549999Y-216625000D01*
X163525495Y-216623796D01*
X163501227Y-216620196D01*
X163477428Y-216614235D01*
X163454329Y-216605970D01*
X163432150Y-216595480D01*
X163411107Y-216582868D01*
X163391401Y-216568253D01*
X163373223Y-216551777D01*
X163356747Y-216533599D01*
X163342132Y-216513893D01*
X163329520Y-216492850D01*
X163319030Y-216470671D01*
X163310765Y-216447572D01*
X163304804Y-216423773D01*
X163301204Y-216399505D01*
X163300000Y-216375001D01*
X163300000Y-215724999D01*
X163301204Y-215700495D01*
X163304804Y-215676227D01*
X163310765Y-215652428D01*
X163319030Y-215629329D01*
X163329520Y-215607150D01*
X163342132Y-215586107D01*
X163356747Y-215566401D01*
X163373223Y-215548223D01*
X163391401Y-215531747D01*
X163411107Y-215517132D01*
X163432150Y-215504520D01*
X163454329Y-215494030D01*
X163477428Y-215485765D01*
X163501227Y-215479804D01*
X163525495Y-215476204D01*
X163549999Y-215475000D01*
X164450001Y-215475000D01*
X164474505Y-215476204D01*
G37*
G36*
X164474505Y-213426204D02*
G01*
X164498773Y-213429804D01*
X164522572Y-213435765D01*
X164545671Y-213444030D01*
X164567850Y-213454520D01*
X164588893Y-213467132D01*
X164608599Y-213481747D01*
X164626777Y-213498223D01*
X164643253Y-213516401D01*
X164657868Y-213536107D01*
X164670480Y-213557150D01*
X164680970Y-213579329D01*
X164689235Y-213602428D01*
X164695196Y-213626227D01*
X164698796Y-213650495D01*
X164700000Y-213674999D01*
X164700000Y-214325001D01*
X164698796Y-214349505D01*
X164695196Y-214373773D01*
X164689235Y-214397572D01*
X164680970Y-214420671D01*
X164670480Y-214442850D01*
X164657868Y-214463893D01*
X164643253Y-214483599D01*
X164626777Y-214501777D01*
X164608599Y-214518253D01*
X164588893Y-214532868D01*
X164567850Y-214545480D01*
X164545671Y-214555970D01*
X164522572Y-214564235D01*
X164498773Y-214570196D01*
X164474505Y-214573796D01*
X164450001Y-214575000D01*
X163549999Y-214575000D01*
X163525495Y-214573796D01*
X163501227Y-214570196D01*
X163477428Y-214564235D01*
X163454329Y-214555970D01*
X163432150Y-214545480D01*
X163411107Y-214532868D01*
X163391401Y-214518253D01*
X163373223Y-214501777D01*
X163356747Y-214483599D01*
X163342132Y-214463893D01*
X163329520Y-214442850D01*
X163319030Y-214420671D01*
X163310765Y-214397572D01*
X163304804Y-214373773D01*
X163301204Y-214349505D01*
X163300000Y-214325001D01*
X163300000Y-213674999D01*
X163301204Y-213650495D01*
X163304804Y-213626227D01*
X163310765Y-213602428D01*
X163319030Y-213579329D01*
X163329520Y-213557150D01*
X163342132Y-213536107D01*
X163356747Y-213516401D01*
X163373223Y-213498223D01*
X163391401Y-213481747D01*
X163411107Y-213467132D01*
X163432150Y-213454520D01*
X163454329Y-213444030D01*
X163477428Y-213435765D01*
X163501227Y-213429804D01*
X163525495Y-213426204D01*
X163549999Y-213425000D01*
X164450001Y-213425000D01*
X164474505Y-213426204D01*
G37*
G36*
X224474505Y-215476204D02*
G01*
X224498773Y-215479804D01*
X224522572Y-215485765D01*
X224545671Y-215494030D01*
X224567850Y-215504520D01*
X224588893Y-215517132D01*
X224608599Y-215531747D01*
X224626777Y-215548223D01*
X224643253Y-215566401D01*
X224657868Y-215586107D01*
X224670480Y-215607150D01*
X224680970Y-215629329D01*
X224689235Y-215652428D01*
X224695196Y-215676227D01*
X224698796Y-215700495D01*
X224700000Y-215724999D01*
X224700000Y-216375001D01*
X224698796Y-216399505D01*
X224695196Y-216423773D01*
X224689235Y-216447572D01*
X224680970Y-216470671D01*
X224670480Y-216492850D01*
X224657868Y-216513893D01*
X224643253Y-216533599D01*
X224626777Y-216551777D01*
X224608599Y-216568253D01*
X224588893Y-216582868D01*
X224567850Y-216595480D01*
X224545671Y-216605970D01*
X224522572Y-216614235D01*
X224498773Y-216620196D01*
X224474505Y-216623796D01*
X224450001Y-216625000D01*
X223549999Y-216625000D01*
X223525495Y-216623796D01*
X223501227Y-216620196D01*
X223477428Y-216614235D01*
X223454329Y-216605970D01*
X223432150Y-216595480D01*
X223411107Y-216582868D01*
X223391401Y-216568253D01*
X223373223Y-216551777D01*
X223356747Y-216533599D01*
X223342132Y-216513893D01*
X223329520Y-216492850D01*
X223319030Y-216470671D01*
X223310765Y-216447572D01*
X223304804Y-216423773D01*
X223301204Y-216399505D01*
X223300000Y-216375001D01*
X223300000Y-215724999D01*
X223301204Y-215700495D01*
X223304804Y-215676227D01*
X223310765Y-215652428D01*
X223319030Y-215629329D01*
X223329520Y-215607150D01*
X223342132Y-215586107D01*
X223356747Y-215566401D01*
X223373223Y-215548223D01*
X223391401Y-215531747D01*
X223411107Y-215517132D01*
X223432150Y-215504520D01*
X223454329Y-215494030D01*
X223477428Y-215485765D01*
X223501227Y-215479804D01*
X223525495Y-215476204D01*
X223549999Y-215475000D01*
X224450001Y-215475000D01*
X224474505Y-215476204D01*
G37*
G36*
X224474505Y-213426204D02*
G01*
X224498773Y-213429804D01*
X224522572Y-213435765D01*
X224545671Y-213444030D01*
X224567850Y-213454520D01*
X224588893Y-213467132D01*
X224608599Y-213481747D01*
X224626777Y-213498223D01*
X224643253Y-213516401D01*
X224657868Y-213536107D01*
X224670480Y-213557150D01*
X224680970Y-213579329D01*
X224689235Y-213602428D01*
X224695196Y-213626227D01*
X224698796Y-213650495D01*
X224700000Y-213674999D01*
X224700000Y-214325001D01*
X224698796Y-214349505D01*
X224695196Y-214373773D01*
X224689235Y-214397572D01*
X224680970Y-214420671D01*
X224670480Y-214442850D01*
X224657868Y-214463893D01*
X224643253Y-214483599D01*
X224626777Y-214501777D01*
X224608599Y-214518253D01*
X224588893Y-214532868D01*
X224567850Y-214545480D01*
X224545671Y-214555970D01*
X224522572Y-214564235D01*
X224498773Y-214570196D01*
X224474505Y-214573796D01*
X224450001Y-214575000D01*
X223549999Y-214575000D01*
X223525495Y-214573796D01*
X223501227Y-214570196D01*
X223477428Y-214564235D01*
X223454329Y-214555970D01*
X223432150Y-214545480D01*
X223411107Y-214532868D01*
X223391401Y-214518253D01*
X223373223Y-214501777D01*
X223356747Y-214483599D01*
X223342132Y-214463893D01*
X223329520Y-214442850D01*
X223319030Y-214420671D01*
X223310765Y-214397572D01*
X223304804Y-214373773D01*
X223301204Y-214349505D01*
X223300000Y-214325001D01*
X223300000Y-213674999D01*
X223301204Y-213650495D01*
X223304804Y-213626227D01*
X223310765Y-213602428D01*
X223319030Y-213579329D01*
X223329520Y-213557150D01*
X223342132Y-213536107D01*
X223356747Y-213516401D01*
X223373223Y-213498223D01*
X223391401Y-213481747D01*
X223411107Y-213467132D01*
X223432150Y-213454520D01*
X223454329Y-213444030D01*
X223477428Y-213435765D01*
X223501227Y-213429804D01*
X223525495Y-213426204D01*
X223549999Y-213425000D01*
X224450001Y-213425000D01*
X224474505Y-213426204D01*
G37*
G36*
X224474505Y-195426204D02*
G01*
X224498773Y-195429804D01*
X224522572Y-195435765D01*
X224545671Y-195444030D01*
X224567850Y-195454520D01*
X224588893Y-195467132D01*
X224608599Y-195481747D01*
X224626777Y-195498223D01*
X224643253Y-195516401D01*
X224657868Y-195536107D01*
X224670480Y-195557150D01*
X224680970Y-195579329D01*
X224689235Y-195602428D01*
X224695196Y-195626227D01*
X224698796Y-195650495D01*
X224700000Y-195674999D01*
X224700000Y-196325001D01*
X224698796Y-196349505D01*
X224695196Y-196373773D01*
X224689235Y-196397572D01*
X224680970Y-196420671D01*
X224670480Y-196442850D01*
X224657868Y-196463893D01*
X224643253Y-196483599D01*
X224626777Y-196501777D01*
X224608599Y-196518253D01*
X224588893Y-196532868D01*
X224567850Y-196545480D01*
X224545671Y-196555970D01*
X224522572Y-196564235D01*
X224498773Y-196570196D01*
X224474505Y-196573796D01*
X224450001Y-196575000D01*
X223549999Y-196575000D01*
X223525495Y-196573796D01*
X223501227Y-196570196D01*
X223477428Y-196564235D01*
X223454329Y-196555970D01*
X223432150Y-196545480D01*
X223411107Y-196532868D01*
X223391401Y-196518253D01*
X223373223Y-196501777D01*
X223356747Y-196483599D01*
X223342132Y-196463893D01*
X223329520Y-196442850D01*
X223319030Y-196420671D01*
X223310765Y-196397572D01*
X223304804Y-196373773D01*
X223301204Y-196349505D01*
X223300000Y-196325001D01*
X223300000Y-195674999D01*
X223301204Y-195650495D01*
X223304804Y-195626227D01*
X223310765Y-195602428D01*
X223319030Y-195579329D01*
X223329520Y-195557150D01*
X223342132Y-195536107D01*
X223356747Y-195516401D01*
X223373223Y-195498223D01*
X223391401Y-195481747D01*
X223411107Y-195467132D01*
X223432150Y-195454520D01*
X223454329Y-195444030D01*
X223477428Y-195435765D01*
X223501227Y-195429804D01*
X223525495Y-195426204D01*
X223549999Y-195425000D01*
X224450001Y-195425000D01*
X224474505Y-195426204D01*
G37*
G36*
X224474505Y-193376204D02*
G01*
X224498773Y-193379804D01*
X224522572Y-193385765D01*
X224545671Y-193394030D01*
X224567850Y-193404520D01*
X224588893Y-193417132D01*
X224608599Y-193431747D01*
X224626777Y-193448223D01*
X224643253Y-193466401D01*
X224657868Y-193486107D01*
X224670480Y-193507150D01*
X224680970Y-193529329D01*
X224689235Y-193552428D01*
X224695196Y-193576227D01*
X224698796Y-193600495D01*
X224700000Y-193624999D01*
X224700000Y-194275001D01*
X224698796Y-194299505D01*
X224695196Y-194323773D01*
X224689235Y-194347572D01*
X224680970Y-194370671D01*
X224670480Y-194392850D01*
X224657868Y-194413893D01*
X224643253Y-194433599D01*
X224626777Y-194451777D01*
X224608599Y-194468253D01*
X224588893Y-194482868D01*
X224567850Y-194495480D01*
X224545671Y-194505970D01*
X224522572Y-194514235D01*
X224498773Y-194520196D01*
X224474505Y-194523796D01*
X224450001Y-194525000D01*
X223549999Y-194525000D01*
X223525495Y-194523796D01*
X223501227Y-194520196D01*
X223477428Y-194514235D01*
X223454329Y-194505970D01*
X223432150Y-194495480D01*
X223411107Y-194482868D01*
X223391401Y-194468253D01*
X223373223Y-194451777D01*
X223356747Y-194433599D01*
X223342132Y-194413893D01*
X223329520Y-194392850D01*
X223319030Y-194370671D01*
X223310765Y-194347572D01*
X223304804Y-194323773D01*
X223301204Y-194299505D01*
X223300000Y-194275001D01*
X223300000Y-193624999D01*
X223301204Y-193600495D01*
X223304804Y-193576227D01*
X223310765Y-193552428D01*
X223319030Y-193529329D01*
X223329520Y-193507150D01*
X223342132Y-193486107D01*
X223356747Y-193466401D01*
X223373223Y-193448223D01*
X223391401Y-193431747D01*
X223411107Y-193417132D01*
X223432150Y-193404520D01*
X223454329Y-193394030D01*
X223477428Y-193385765D01*
X223501227Y-193379804D01*
X223525495Y-193376204D01*
X223549999Y-193375000D01*
X224450001Y-193375000D01*
X224474505Y-193376204D01*
G37*
G36*
X184474505Y-195426204D02*
G01*
X184498773Y-195429804D01*
X184522572Y-195435765D01*
X184545671Y-195444030D01*
X184567850Y-195454520D01*
X184588893Y-195467132D01*
X184608599Y-195481747D01*
X184626777Y-195498223D01*
X184643253Y-195516401D01*
X184657868Y-195536107D01*
X184670480Y-195557150D01*
X184680970Y-195579329D01*
X184689235Y-195602428D01*
X184695196Y-195626227D01*
X184698796Y-195650495D01*
X184700000Y-195674999D01*
X184700000Y-196325001D01*
X184698796Y-196349505D01*
X184695196Y-196373773D01*
X184689235Y-196397572D01*
X184680970Y-196420671D01*
X184670480Y-196442850D01*
X184657868Y-196463893D01*
X184643253Y-196483599D01*
X184626777Y-196501777D01*
X184608599Y-196518253D01*
X184588893Y-196532868D01*
X184567850Y-196545480D01*
X184545671Y-196555970D01*
X184522572Y-196564235D01*
X184498773Y-196570196D01*
X184474505Y-196573796D01*
X184450001Y-196575000D01*
X183549999Y-196575000D01*
X183525495Y-196573796D01*
X183501227Y-196570196D01*
X183477428Y-196564235D01*
X183454329Y-196555970D01*
X183432150Y-196545480D01*
X183411107Y-196532868D01*
X183391401Y-196518253D01*
X183373223Y-196501777D01*
X183356747Y-196483599D01*
X183342132Y-196463893D01*
X183329520Y-196442850D01*
X183319030Y-196420671D01*
X183310765Y-196397572D01*
X183304804Y-196373773D01*
X183301204Y-196349505D01*
X183300000Y-196325001D01*
X183300000Y-195674999D01*
X183301204Y-195650495D01*
X183304804Y-195626227D01*
X183310765Y-195602428D01*
X183319030Y-195579329D01*
X183329520Y-195557150D01*
X183342132Y-195536107D01*
X183356747Y-195516401D01*
X183373223Y-195498223D01*
X183391401Y-195481747D01*
X183411107Y-195467132D01*
X183432150Y-195454520D01*
X183454329Y-195444030D01*
X183477428Y-195435765D01*
X183501227Y-195429804D01*
X183525495Y-195426204D01*
X183549999Y-195425000D01*
X184450001Y-195425000D01*
X184474505Y-195426204D01*
G37*
G36*
X184474505Y-193376204D02*
G01*
X184498773Y-193379804D01*
X184522572Y-193385765D01*
X184545671Y-193394030D01*
X184567850Y-193404520D01*
X184588893Y-193417132D01*
X184608599Y-193431747D01*
X184626777Y-193448223D01*
X184643253Y-193466401D01*
X184657868Y-193486107D01*
X184670480Y-193507150D01*
X184680970Y-193529329D01*
X184689235Y-193552428D01*
X184695196Y-193576227D01*
X184698796Y-193600495D01*
X184700000Y-193624999D01*
X184700000Y-194275001D01*
X184698796Y-194299505D01*
X184695196Y-194323773D01*
X184689235Y-194347572D01*
X184680970Y-194370671D01*
X184670480Y-194392850D01*
X184657868Y-194413893D01*
X184643253Y-194433599D01*
X184626777Y-194451777D01*
X184608599Y-194468253D01*
X184588893Y-194482868D01*
X184567850Y-194495480D01*
X184545671Y-194505970D01*
X184522572Y-194514235D01*
X184498773Y-194520196D01*
X184474505Y-194523796D01*
X184450001Y-194525000D01*
X183549999Y-194525000D01*
X183525495Y-194523796D01*
X183501227Y-194520196D01*
X183477428Y-194514235D01*
X183454329Y-194505970D01*
X183432150Y-194495480D01*
X183411107Y-194482868D01*
X183391401Y-194468253D01*
X183373223Y-194451777D01*
X183356747Y-194433599D01*
X183342132Y-194413893D01*
X183329520Y-194392850D01*
X183319030Y-194370671D01*
X183310765Y-194347572D01*
X183304804Y-194323773D01*
X183301204Y-194299505D01*
X183300000Y-194275001D01*
X183300000Y-193624999D01*
X183301204Y-193600495D01*
X183304804Y-193576227D01*
X183310765Y-193552428D01*
X183319030Y-193529329D01*
X183329520Y-193507150D01*
X183342132Y-193486107D01*
X183356747Y-193466401D01*
X183373223Y-193448223D01*
X183391401Y-193431747D01*
X183411107Y-193417132D01*
X183432150Y-193404520D01*
X183454329Y-193394030D01*
X183477428Y-193385765D01*
X183501227Y-193379804D01*
X183525495Y-193376204D01*
X183549999Y-193375000D01*
X184450001Y-193375000D01*
X184474505Y-193376204D01*
G37*
G36*
X204474505Y-195426204D02*
G01*
X204498773Y-195429804D01*
X204522572Y-195435765D01*
X204545671Y-195444030D01*
X204567850Y-195454520D01*
X204588893Y-195467132D01*
X204608599Y-195481747D01*
X204626777Y-195498223D01*
X204643253Y-195516401D01*
X204657868Y-195536107D01*
X204670480Y-195557150D01*
X204680970Y-195579329D01*
X204689235Y-195602428D01*
X204695196Y-195626227D01*
X204698796Y-195650495D01*
X204700000Y-195674999D01*
X204700000Y-196325001D01*
X204698796Y-196349505D01*
X204695196Y-196373773D01*
X204689235Y-196397572D01*
X204680970Y-196420671D01*
X204670480Y-196442850D01*
X204657868Y-196463893D01*
X204643253Y-196483599D01*
X204626777Y-196501777D01*
X204608599Y-196518253D01*
X204588893Y-196532868D01*
X204567850Y-196545480D01*
X204545671Y-196555970D01*
X204522572Y-196564235D01*
X204498773Y-196570196D01*
X204474505Y-196573796D01*
X204450001Y-196575000D01*
X203549999Y-196575000D01*
X203525495Y-196573796D01*
X203501227Y-196570196D01*
X203477428Y-196564235D01*
X203454329Y-196555970D01*
X203432150Y-196545480D01*
X203411107Y-196532868D01*
X203391401Y-196518253D01*
X203373223Y-196501777D01*
X203356747Y-196483599D01*
X203342132Y-196463893D01*
X203329520Y-196442850D01*
X203319030Y-196420671D01*
X203310765Y-196397572D01*
X203304804Y-196373773D01*
X203301204Y-196349505D01*
X203300000Y-196325001D01*
X203300000Y-195674999D01*
X203301204Y-195650495D01*
X203304804Y-195626227D01*
X203310765Y-195602428D01*
X203319030Y-195579329D01*
X203329520Y-195557150D01*
X203342132Y-195536107D01*
X203356747Y-195516401D01*
X203373223Y-195498223D01*
X203391401Y-195481747D01*
X203411107Y-195467132D01*
X203432150Y-195454520D01*
X203454329Y-195444030D01*
X203477428Y-195435765D01*
X203501227Y-195429804D01*
X203525495Y-195426204D01*
X203549999Y-195425000D01*
X204450001Y-195425000D01*
X204474505Y-195426204D01*
G37*
G36*
X204474505Y-193376204D02*
G01*
X204498773Y-193379804D01*
X204522572Y-193385765D01*
X204545671Y-193394030D01*
X204567850Y-193404520D01*
X204588893Y-193417132D01*
X204608599Y-193431747D01*
X204626777Y-193448223D01*
X204643253Y-193466401D01*
X204657868Y-193486107D01*
X204670480Y-193507150D01*
X204680970Y-193529329D01*
X204689235Y-193552428D01*
X204695196Y-193576227D01*
X204698796Y-193600495D01*
X204700000Y-193624999D01*
X204700000Y-194275001D01*
X204698796Y-194299505D01*
X204695196Y-194323773D01*
X204689235Y-194347572D01*
X204680970Y-194370671D01*
X204670480Y-194392850D01*
X204657868Y-194413893D01*
X204643253Y-194433599D01*
X204626777Y-194451777D01*
X204608599Y-194468253D01*
X204588893Y-194482868D01*
X204567850Y-194495480D01*
X204545671Y-194505970D01*
X204522572Y-194514235D01*
X204498773Y-194520196D01*
X204474505Y-194523796D01*
X204450001Y-194525000D01*
X203549999Y-194525000D01*
X203525495Y-194523796D01*
X203501227Y-194520196D01*
X203477428Y-194514235D01*
X203454329Y-194505970D01*
X203432150Y-194495480D01*
X203411107Y-194482868D01*
X203391401Y-194468253D01*
X203373223Y-194451777D01*
X203356747Y-194433599D01*
X203342132Y-194413893D01*
X203329520Y-194392850D01*
X203319030Y-194370671D01*
X203310765Y-194347572D01*
X203304804Y-194323773D01*
X203301204Y-194299505D01*
X203300000Y-194275001D01*
X203300000Y-193624999D01*
X203301204Y-193600495D01*
X203304804Y-193576227D01*
X203310765Y-193552428D01*
X203319030Y-193529329D01*
X203329520Y-193507150D01*
X203342132Y-193486107D01*
X203356747Y-193466401D01*
X203373223Y-193448223D01*
X203391401Y-193431747D01*
X203411107Y-193417132D01*
X203432150Y-193404520D01*
X203454329Y-193394030D01*
X203477428Y-193385765D01*
X203501227Y-193379804D01*
X203525495Y-193376204D01*
X203549999Y-193375000D01*
X204450001Y-193375000D01*
X204474505Y-193376204D01*
G37*
M02*
