M48
; DRILL file {KiCad (5.1.5)-3} date 07/11/20 03:23:56
; FORMAT={-:-/ absolute / inch / decimal}
; #@! TF.CreationDate,2020-07-11T03:23:56+02:00
; #@! TF.GenerationSoftware,Kicad,Pcbnew,(5.1.5)-3
; #@! TF.FileFunction,Plated,1,2,PTH
FMAT,2
INCH
T1C0.0157
T2C0.0197
T3C0.0236
T4C0.0394
T5C0.0598
T6C0.1260
%
G90
G05
T1
X1.641Y-2.13
X1.678Y-0.87
X1.702Y-0.957
X1.7112Y-1.486
X1.743Y-1.782
X1.785Y-1.782
X1.804Y-1.97
X1.816Y-0.97
X1.894Y-2.003
X2.111Y-1.784
X2.121Y-1.384
X2.198Y-1.97
X2.228Y-1.777
X2.275Y-1.779
X2.2907Y-1.9985
X2.598Y-1.778
X2.6081Y-1.9985
X2.628Y-1.385
X2.6735Y-1.782
X2.7Y-1.97
X2.702Y-1.742
X3.092Y-1.777
X3.1Y-1.97
X3.172Y-1.365
X3.2112Y-1.9985
X3.231Y-1.7756
X3.2851Y-1.7758
X3.298Y-2.065
X3.298Y-2.141
X3.339Y-1.998
X3.372Y-2.071
X3.376Y-2.138
X3.416Y-1.778
X3.476Y-2.4055
X3.525Y-2.402
X3.565Y-1.559
X3.569Y-2.402
X3.592Y-1.789
X3.618Y-2.4
T2
X1.63Y-0.4646
X1.6577Y-0.3978
X1.6577Y-0.5314
X1.7245Y-0.3701
X1.7245Y-0.5591
X1.7913Y-0.3978
X1.7913Y-0.5314
X1.819Y-0.4646
X3.5985Y-0.4646
X3.6262Y-0.3978
X3.6262Y-0.5314
X3.693Y-0.3701
X3.693Y-0.5591
X3.7598Y-0.3978
X3.7598Y-0.5314
X3.7875Y-0.4646
X1.63Y-2.7874
X1.6577Y-2.7206
X1.6577Y-2.8542
X1.7245Y-2.6929
X1.7245Y-2.8819
X1.7913Y-2.7206
X1.7913Y-2.8542
X1.819Y-2.7874
X3.5985Y-2.7874
X3.6262Y-2.7206
X3.6262Y-2.8542
X3.693Y-2.6929
X3.693Y-2.8819
X3.7598Y-2.7206
X3.7598Y-2.8542
X3.7875Y-2.7874
T3
X1.727Y-1.559
X1.8017Y-1.409
X1.8726Y-1.4053
X1.914Y-1.382
X1.988Y-2.178
X1.9995Y-1.3414
X2.052Y-1.559
X2.237Y-1.559
X2.2898Y-1.3962
X2.3606Y-1.3977
X2.408Y-1.3949
X2.4813Y-1.3917
X2.55Y-1.559
X2.742Y-1.559
X2.8Y-1.4017
X2.8709Y-1.3899
X2.9142Y-1.4087
X2.9969Y-1.3886
X3.0611Y-1.5673
X3.242Y-1.56
X3.3138Y-1.4325
X3.3836Y-1.4067
X3.4085Y-1.3665
X3.4793Y-1.3852
X3.565Y-1.559
X3.718Y-1.35
T4
X2.3Y-0.6809
X2.3Y-0.7809
X2.3Y-0.8809
X2.3Y-0.9809
X2.3Y-1.0809
X1.959Y-2.705
X2.059Y-2.705
X2.159Y-2.705
X2.259Y-2.705
X2.359Y-2.705
X2.459Y-2.705
X2.559Y-2.705
X3.389Y-0.6809
X3.389Y-0.7809
X3.389Y-0.8809
X3.389Y-0.9809
X3.389Y-1.0809
X1.959Y-2.85
X2.059Y-2.85
X2.159Y-2.85
X2.259Y-2.85
X2.359Y-2.85
X2.459Y-2.85
X2.559Y-2.85
X3.116Y-0.6809
X3.116Y-0.7809
X3.116Y-0.8809
X3.116Y-0.9809
X3.116Y-1.0809
X2.571Y-0.6809
X2.571Y-0.7809
X2.571Y-0.8809
X2.571Y-0.9809
X2.571Y-1.0809
X2.0268Y-0.6809
X2.0268Y-0.7809
X2.0268Y-0.8809
X2.0268Y-0.9809
X2.0268Y-1.0809
X1.747Y-2.486
X1.847Y-2.486
X1.947Y-2.486
X2.047Y-2.486
X2.147Y-2.486
X2.247Y-2.486
X2.347Y-2.486
X2.447Y-2.486
X2.547Y-2.486
X2.647Y-2.486
X2.747Y-2.486
X2.847Y-2.486
X2.947Y-2.486
X3.047Y-2.486
X3.147Y-2.486
X3.247Y-2.486
X3.347Y-2.486
X3.447Y-2.486
X3.547Y-2.486
X3.647Y-2.486
X3.663Y-0.6809
X3.663Y-0.7809
X3.663Y-0.8809
X3.663Y-0.9809
X3.663Y-1.0809
X1.747Y-1.886
X1.847Y-1.886
X1.947Y-1.886
X2.047Y-1.886
X2.147Y-1.886
X2.247Y-1.886
X2.347Y-1.886
X2.447Y-1.886
X2.547Y-1.886
X2.647Y-1.886
X2.747Y-1.886
X2.847Y-1.886
X2.947Y-1.886
X3.047Y-1.886
X3.147Y-1.886
X3.247Y-1.886
X3.347Y-1.886
X3.447Y-1.886
X3.547Y-1.886
X3.647Y-1.886
X1.754Y-0.6809
X1.754Y-0.7809
X1.754Y-0.8809
X1.754Y-0.9809
X1.754Y-1.0809
X2.844Y-0.6809
X2.844Y-0.7809
X2.844Y-0.8809
X2.844Y-0.9809
X2.844Y-1.0809
T5
X2.77Y-2.772
X2.97Y-2.772
T6
X3.693Y-0.4646
X1.7245Y-2.7874
X3.693Y-2.7874
X1.7245Y-0.4646
T0
M30
