G04 #@! TF.GenerationSoftware,KiCad,Pcbnew,(5.1.5)-3*
G04 #@! TF.CreationDate,2020-07-11T03:23:53+02:00*
G04 #@! TF.ProjectId,mixer Motor Driver board,6d697865-7220-44d6-9f74-6f7220447269,rev?*
G04 #@! TF.SameCoordinates,Original*
G04 #@! TF.FileFunction,Copper,L2,Bot*
G04 #@! TF.FilePolarity,Positive*
%FSLAX46Y46*%
G04 Gerber Fmt 4.6, Leading zero omitted, Abs format (unit mm)*
G04 Created by KiCad (PCBNEW (5.1.5)-3) date 2020-07-11 03:23:53*
%MOMM*%
%LPD*%
G04 APERTURE LIST*
%ADD10C,6.400000*%
%ADD11C,0.800000*%
%ADD12O,1.700000X1.700000*%
%ADD13R,1.700000X1.700000*%
%ADD14C,3.000000*%
%ADD15R,3.000000X3.000000*%
%ADD16C,1.000000*%
%ADD17C,1.000000*%
%ADD18C,0.400000*%
%ADD19C,0.250000*%
%ADD20C,0.254000*%
G04 APERTURE END LIST*
D10*
X43802000Y-70800000D03*
D11*
X46202000Y-70800000D03*
X45499056Y-72497056D03*
X43802000Y-73200000D03*
X42104944Y-72497056D03*
X41402000Y-70800000D03*
X42104944Y-69102944D03*
X43802000Y-68400000D03*
X45499056Y-69102944D03*
D10*
X93802200Y-70800000D03*
D11*
X96202200Y-70800000D03*
X95499256Y-72497056D03*
X93802200Y-73200000D03*
X92105144Y-72497056D03*
X91402200Y-70800000D03*
X92105144Y-69102944D03*
X93802200Y-68400000D03*
X95499256Y-69102944D03*
X45499056Y-10102944D03*
X43802000Y-9400000D03*
X42104944Y-10102944D03*
X41402000Y-11800000D03*
X42104944Y-13497056D03*
X43802000Y-14200000D03*
X45499056Y-13497056D03*
X46202000Y-11800000D03*
D10*
X43802000Y-11800000D03*
D11*
X95499256Y-10102944D03*
X93802200Y-9400000D03*
X92105144Y-10102944D03*
X91402200Y-11800000D03*
X92105144Y-13497056D03*
X93802200Y-14200000D03*
X95499256Y-13497056D03*
X96202200Y-11800000D03*
D10*
X93802200Y-11800000D03*
D12*
X64998600Y-72390000D03*
X62458600Y-72390000D03*
X59918600Y-72390000D03*
X57378600Y-72390000D03*
X54838600Y-72390000D03*
X52298600Y-72390000D03*
D13*
X49758600Y-72390000D03*
D12*
X44373800Y-47904400D03*
X46913800Y-47904400D03*
X49453800Y-47904400D03*
X51993800Y-47904400D03*
X54533800Y-47904400D03*
X57073800Y-47904400D03*
X59613800Y-47904400D03*
X62153800Y-47904400D03*
X64693800Y-47904400D03*
X67233800Y-47904400D03*
X69773800Y-47904400D03*
X72313800Y-47904400D03*
X74853800Y-47904400D03*
X77393800Y-47904400D03*
X79933800Y-47904400D03*
X82473800Y-47904400D03*
X85013800Y-47904400D03*
X87553800Y-47904400D03*
X90093800Y-47904400D03*
D13*
X92633800Y-47904400D03*
D12*
X44373800Y-63143201D03*
X46913800Y-63143201D03*
X49453800Y-63143201D03*
X51993800Y-63143201D03*
X54533800Y-63143201D03*
X57073800Y-63143201D03*
X59613800Y-63143201D03*
X62153800Y-63143201D03*
X64693800Y-63143201D03*
X67233800Y-63143201D03*
X69773800Y-63143201D03*
X72313800Y-63143201D03*
X74853800Y-63143201D03*
X77393800Y-63143201D03*
X79933800Y-63143201D03*
X82473800Y-63143201D03*
X85013800Y-63143201D03*
X87553800Y-63143201D03*
X90093800Y-63143201D03*
D13*
X92633800Y-63143201D03*
D12*
X93040200Y-27453601D03*
X93040200Y-24913601D03*
X93040200Y-22373601D03*
X93040200Y-19833601D03*
D13*
X93040200Y-17293601D03*
D12*
X86080600Y-27453601D03*
X86080600Y-24913601D03*
X86080600Y-22373601D03*
X86080600Y-19833601D03*
D13*
X86080600Y-17293601D03*
D12*
X79146400Y-27453601D03*
X79146400Y-24913601D03*
X79146400Y-22373601D03*
X79146400Y-19833601D03*
D13*
X79146400Y-17293601D03*
D12*
X72237600Y-27453601D03*
X72237600Y-24913601D03*
X72237600Y-22373601D03*
X72237600Y-19833601D03*
D13*
X72237600Y-17293601D03*
D12*
X65303400Y-27453601D03*
X65303400Y-24913601D03*
X65303400Y-22373601D03*
X65303400Y-19833601D03*
D13*
X65303400Y-17293601D03*
D12*
X58420000Y-27453601D03*
X58420000Y-24913601D03*
X58420000Y-22373601D03*
X58420000Y-19833601D03*
D13*
X58420000Y-17293601D03*
D12*
X51481399Y-27453601D03*
X51481399Y-24913601D03*
X51481399Y-22373601D03*
X51481399Y-19833601D03*
D13*
X51481399Y-17293601D03*
D12*
X44551400Y-27453601D03*
X44551400Y-24913601D03*
X44551400Y-22373601D03*
X44551400Y-19833601D03*
D13*
X44551400Y-17293601D03*
D12*
X64998600Y-68707000D03*
X62458600Y-68707000D03*
X59918600Y-68707000D03*
X57378600Y-68707000D03*
X54838600Y-68707000D03*
X52298600Y-68707000D03*
D13*
X49758600Y-68707000D03*
D14*
X75438000Y-70408800D03*
D15*
X70358000Y-70408800D03*
D16*
X82346800Y-39624000D03*
X90551000Y-39598600D03*
X69646800Y-39598600D03*
X64770000Y-39598600D03*
X56819800Y-39598600D03*
X52120800Y-39598600D03*
X43865800Y-39598600D03*
X77751246Y-39808811D03*
D11*
X90551000Y-39598600D03*
X53619400Y-45313600D03*
X80568800Y-34671000D03*
X66751200Y-35179000D03*
X53873400Y-35153600D03*
X65989200Y-45161200D03*
X78536800Y-45135800D03*
X91236800Y-45440600D03*
X43464200Y-37744400D03*
D16*
X94437200Y-34290000D03*
X50495200Y-55321200D03*
D11*
X85750400Y-54305200D03*
X85648800Y-52603400D03*
X45339000Y-45262800D03*
X48107600Y-50876200D03*
X57785000Y-45186600D03*
X67905790Y-45262800D03*
X83441387Y-45105020D03*
X58183896Y-50763010D03*
X81565433Y-50763010D03*
X66245104Y-50763010D03*
X84810600Y-50749200D03*
X44272200Y-45262800D03*
X45821600Y-50038000D03*
X56591200Y-45135800D03*
X68630800Y-44246800D03*
X82067400Y-45100802D03*
X83769200Y-52451000D03*
X83769200Y-54381400D03*
X78740000Y-50038000D03*
X68580000Y-50038000D03*
X55829200Y-50038000D03*
D16*
X45764220Y-35788600D03*
X47564232Y-35695234D03*
X50786520Y-34071225D03*
X48615600Y-35102800D03*
X63025812Y-35349959D03*
X61162108Y-35430919D03*
X59960087Y-35501370D03*
X76120910Y-35270340D03*
X74021631Y-35780369D03*
X72920926Y-35302378D03*
X71120914Y-35604113D03*
D11*
X86766400Y-45161200D03*
D16*
X88374545Y-35183305D03*
X86575475Y-34710121D03*
X85942317Y-35729503D03*
X84170734Y-36385924D03*
D11*
X43230800Y-24307800D03*
X46126400Y-24638000D03*
D16*
X58160076Y-35463238D03*
D11*
X42621200Y-22098000D03*
X41681400Y-54102000D03*
X91897200Y-60960000D03*
X90652600Y-61010800D03*
X89535000Y-61010800D03*
X88290400Y-61100810D03*
D17*
X43865800Y-39598600D02*
X90551000Y-39598600D01*
X73938001Y-68908801D02*
X75438000Y-70408800D01*
X42823799Y-40640601D02*
X42823799Y-63887202D01*
X43865800Y-39598600D02*
X42823799Y-40640601D01*
X43985997Y-65049400D02*
X69951600Y-65049400D01*
X73811001Y-68908801D02*
X73938001Y-68908801D01*
X42823799Y-63887202D02*
X43985997Y-65049400D01*
X69951600Y-65049400D02*
X73811001Y-68908801D01*
D18*
X93040200Y-24913601D02*
X94462600Y-26336001D01*
X94462600Y-26336001D02*
X94462600Y-34264600D01*
X94462600Y-34264600D02*
X94437200Y-34290000D01*
X49453800Y-56362600D02*
X49453800Y-63143201D01*
X50495200Y-55321200D02*
X49453800Y-56362600D01*
D19*
X85750400Y-54305200D02*
X85750400Y-52705000D01*
X85750400Y-52705000D02*
X85648800Y-52603400D01*
X48107600Y-47359198D02*
X48107600Y-50876200D01*
X45339000Y-45262800D02*
X46011202Y-45262800D01*
X46011202Y-45262800D02*
X48107600Y-47359198D01*
X58248801Y-45650401D02*
X58248801Y-50132420D01*
X66058799Y-47109791D02*
X66058799Y-50011020D01*
X66245104Y-50197325D02*
X66245104Y-50763010D01*
X83441387Y-45105020D02*
X81165434Y-47380973D01*
X81165434Y-50363011D02*
X81565433Y-50763010D01*
X81165434Y-47380973D02*
X81165434Y-50363011D01*
X67905790Y-45262800D02*
X66058799Y-47109791D01*
X66058799Y-50011020D02*
X66245104Y-50197325D01*
X58183896Y-50197325D02*
X58183896Y-50763010D01*
X58248801Y-50132420D02*
X58183896Y-50197325D01*
X57785000Y-45186600D02*
X58248801Y-45650401D01*
X81579243Y-50749200D02*
X81565433Y-50763010D01*
X84810600Y-50749200D02*
X81579243Y-50749200D01*
X45548801Y-49765201D02*
X45821600Y-50038000D01*
X44272200Y-45262800D02*
X45548801Y-46539401D01*
X45548801Y-46539401D02*
X45548801Y-49765201D01*
X56591200Y-45135800D02*
X55854600Y-45872400D01*
X78714600Y-47384598D02*
X78714600Y-49453800D01*
X82067400Y-45100802D02*
X80998396Y-45100802D01*
X80998396Y-45100802D02*
X78714600Y-47384598D01*
X83769200Y-52451000D02*
X83769200Y-54381400D01*
X78721485Y-49453800D02*
X78714600Y-49453800D01*
X78740000Y-49472315D02*
X78721485Y-49453800D01*
X78740000Y-50038000D02*
X78740000Y-49472315D01*
X68598799Y-47340399D02*
X68630800Y-47308398D01*
X68580000Y-49472315D02*
X68598799Y-49453516D01*
X68630800Y-47308398D02*
X68630800Y-44246800D01*
X68598799Y-49453516D02*
X68598799Y-47340399D01*
X68580000Y-50038000D02*
X68580000Y-49472315D01*
X55829200Y-49657000D02*
X55854600Y-49631600D01*
X55829200Y-50038000D02*
X55829200Y-49657000D01*
X55854600Y-45872400D02*
X55854600Y-49631600D01*
X55854600Y-49631600D02*
X55854600Y-49784000D01*
D18*
X50631400Y-20683600D02*
X51481399Y-19833601D01*
X50231398Y-21083602D02*
X50631400Y-20683600D01*
X50231398Y-33516103D02*
X50231398Y-21083602D01*
X50786520Y-34071225D02*
X50231398Y-33516103D01*
X50231399Y-17293601D02*
X49530000Y-17995000D01*
X51481399Y-17293601D02*
X50231399Y-17293601D01*
X49530000Y-17995000D02*
X49530000Y-34378909D01*
X49530000Y-34378909D02*
X49339491Y-34378909D01*
X49339491Y-34378909D02*
X48615600Y-35102800D01*
X47564232Y-35695234D02*
X47564232Y-23967085D01*
X45801400Y-17293601D02*
X44551400Y-17293601D01*
X47564232Y-23967085D02*
X47064233Y-23467086D01*
X47064233Y-23467086D02*
X47064233Y-18556434D01*
X47064233Y-18556434D02*
X45801400Y-17293601D01*
X46926402Y-34626418D02*
X46926402Y-24177798D01*
X46926402Y-24177798D02*
X46264219Y-23515615D01*
X46264219Y-23515615D02*
X46264219Y-21546420D01*
X46264219Y-21546420D02*
X45401399Y-20683600D01*
X45401399Y-20683600D02*
X44551400Y-19833601D01*
X45764220Y-35788600D02*
X46926402Y-34626418D01*
X63846011Y-21290990D02*
X64453401Y-20683600D01*
X64453401Y-20683600D02*
X65303400Y-19833601D01*
X63846011Y-34529760D02*
X63846011Y-21290990D01*
X63025812Y-35349959D02*
X63846011Y-34529760D01*
X64053400Y-17293601D02*
X61100892Y-20246109D01*
X65303400Y-17293601D02*
X64053400Y-17293601D01*
X61162108Y-34723813D02*
X61162108Y-35430919D01*
X61100892Y-34662597D02*
X61162108Y-34723813D01*
X61100892Y-20246109D02*
X61100892Y-34662597D01*
X60325000Y-34429351D02*
X59960087Y-34794264D01*
X60325000Y-17948601D02*
X60325000Y-34429351D01*
X59960087Y-34794264D02*
X59960087Y-35501370D01*
X59670000Y-17293601D02*
X60325000Y-17948601D01*
X58420000Y-17293601D02*
X59670000Y-17293601D01*
X76620909Y-34770341D02*
X76120910Y-35270340D01*
X77622400Y-23956122D02*
X77446388Y-24132134D01*
X77446388Y-33944862D02*
X76620909Y-34770341D01*
X79146400Y-19833601D02*
X77622400Y-21357601D01*
X77446388Y-24132134D02*
X77446388Y-33944862D01*
X77622400Y-21357601D02*
X77622400Y-23956122D01*
X74521630Y-35280370D02*
X74021631Y-35780369D01*
X76987400Y-23742579D02*
X76846377Y-23883602D01*
X79146400Y-17293601D02*
X77896400Y-17293601D01*
X76846377Y-23883602D02*
X76846377Y-32955623D01*
X76846377Y-32955623D02*
X74521630Y-35280370D01*
X76987400Y-18202601D02*
X76987400Y-23742579D01*
X77896400Y-17293601D02*
X76987400Y-18202601D01*
X73487600Y-17293601D02*
X74345800Y-18151801D01*
X72237600Y-17293601D02*
X73487600Y-17293601D01*
X74345800Y-18151801D02*
X74345800Y-33877504D01*
X74345800Y-33877504D02*
X73420925Y-34802379D01*
X73420925Y-34802379D02*
X72920926Y-35302378D01*
X73745789Y-21341790D02*
X73745789Y-32979238D01*
X71620913Y-35104114D02*
X71120914Y-35604113D01*
X73745789Y-32979238D02*
X71620913Y-35104114D01*
X72237600Y-19833601D02*
X73745789Y-21341790D01*
D19*
X85217000Y-45161200D02*
X82473800Y-47904400D01*
X86766400Y-45161200D02*
X85217000Y-45161200D01*
D18*
X91008200Y-21865601D02*
X91008200Y-32549650D01*
X88874544Y-34683306D02*
X88374545Y-35183305D01*
X93040200Y-19833601D02*
X91008200Y-21865601D01*
X91008200Y-32549650D02*
X88874544Y-34683306D01*
X90322400Y-18761401D02*
X90322400Y-30963196D01*
X91790200Y-17293601D02*
X90322400Y-18761401D01*
X90322400Y-30963196D02*
X87075474Y-34210122D01*
X87075474Y-34210122D02*
X86575475Y-34710121D01*
X93040200Y-17293601D02*
X91790200Y-17293601D01*
X86080600Y-17293601D02*
X87330600Y-17293601D01*
X88163400Y-18126401D02*
X88163400Y-31827813D01*
X85442318Y-34548895D02*
X85442318Y-35229504D01*
X85442318Y-35229504D02*
X85942317Y-35729503D01*
X87330600Y-17293601D02*
X88163400Y-18126401D01*
X88163400Y-31827813D02*
X85442318Y-34548895D01*
X87330601Y-19881521D02*
X87330601Y-31617599D01*
X86080600Y-19833601D02*
X87282681Y-19833601D01*
X87282681Y-19833601D02*
X87330601Y-19881521D01*
X84170734Y-34777466D02*
X84170734Y-36385924D01*
X87330601Y-31617599D02*
X84170734Y-34777466D01*
D19*
X45227000Y-23738600D02*
X46126400Y-24638000D01*
X43800000Y-23738600D02*
X45227000Y-23738600D01*
X43230800Y-24307800D02*
X43800000Y-23738600D01*
D18*
X58420000Y-19833601D02*
X59670001Y-21083602D01*
X59670001Y-21083602D02*
X59670001Y-33953313D01*
X58660075Y-34963239D02*
X58160076Y-35463238D01*
X59670001Y-33953313D02*
X58660075Y-34963239D01*
D19*
X41998788Y-22720412D02*
X41998788Y-53784612D01*
X42621200Y-22098000D02*
X41998788Y-22720412D01*
X41998788Y-53784612D02*
X41681400Y-54102000D01*
X74853800Y-63143201D02*
X78738801Y-59258200D01*
X78738801Y-59258200D02*
X90195400Y-59258200D01*
X90195400Y-59258200D02*
X91897200Y-60960000D01*
X77393800Y-63143201D02*
X80796201Y-59740800D01*
X80796201Y-59740800D02*
X89382600Y-59740800D01*
X89382600Y-59740800D02*
X90652600Y-61010800D01*
X82701201Y-60375800D02*
X88900000Y-60375800D01*
X88900000Y-60375800D02*
X89135001Y-60610801D01*
X89135001Y-60610801D02*
X89535000Y-61010800D01*
X79933800Y-63143201D02*
X82701201Y-60375800D01*
X82473800Y-63143201D02*
X84516191Y-61100810D01*
X84516191Y-61100810D02*
X87724715Y-61100810D01*
X87724715Y-61100810D02*
X88290400Y-61100810D01*
D20*
G36*
X90823361Y-9355330D02*
G01*
X90403667Y-9983446D01*
X90114577Y-10681372D01*
X89967200Y-11422285D01*
X89967200Y-12177715D01*
X90114577Y-12918628D01*
X90403667Y-13616554D01*
X90823361Y-14244670D01*
X91357530Y-14778839D01*
X91985646Y-15198533D01*
X92683572Y-15487623D01*
X93424485Y-15635000D01*
X94179915Y-15635000D01*
X94920828Y-15487623D01*
X95618754Y-15198533D01*
X96246870Y-14778839D01*
X96545801Y-14479908D01*
X96545800Y-68120091D01*
X96246870Y-67821161D01*
X95618754Y-67401467D01*
X94920828Y-67112377D01*
X94179915Y-66965000D01*
X93424485Y-66965000D01*
X92683572Y-67112377D01*
X91985646Y-67401467D01*
X91357530Y-67821161D01*
X90823361Y-68355330D01*
X90403667Y-68983446D01*
X90114577Y-69681372D01*
X89967200Y-70422285D01*
X89967200Y-71177715D01*
X90114577Y-71918628D01*
X90403667Y-72616554D01*
X90823361Y-73244670D01*
X91357530Y-73778839D01*
X91864521Y-74117600D01*
X45739679Y-74117600D01*
X46246670Y-73778839D01*
X46780839Y-73244670D01*
X46783959Y-73240000D01*
X48270528Y-73240000D01*
X48282788Y-73364482D01*
X48319098Y-73484180D01*
X48378063Y-73594494D01*
X48457415Y-73691185D01*
X48554106Y-73770537D01*
X48664420Y-73829502D01*
X48784118Y-73865812D01*
X48908600Y-73878072D01*
X49472850Y-73875000D01*
X49631600Y-73716250D01*
X49631600Y-72517000D01*
X48432350Y-72517000D01*
X48273600Y-72675750D01*
X48270528Y-73240000D01*
X46783959Y-73240000D01*
X47200533Y-72616554D01*
X47489623Y-71918628D01*
X47564936Y-71540000D01*
X48270528Y-71540000D01*
X48273600Y-72104250D01*
X48432350Y-72263000D01*
X49631600Y-72263000D01*
X49631600Y-71063750D01*
X49885600Y-71063750D01*
X49885600Y-72263000D01*
X49905600Y-72263000D01*
X49905600Y-72517000D01*
X49885600Y-72517000D01*
X49885600Y-73716250D01*
X50044350Y-73875000D01*
X50608600Y-73878072D01*
X50733082Y-73865812D01*
X50852780Y-73829502D01*
X50963094Y-73770537D01*
X51059785Y-73691185D01*
X51139137Y-73594494D01*
X51198102Y-73484180D01*
X51220113Y-73411620D01*
X51351968Y-73543475D01*
X51595189Y-73705990D01*
X51865442Y-73817932D01*
X52152340Y-73875000D01*
X52444860Y-73875000D01*
X52731758Y-73817932D01*
X53002011Y-73705990D01*
X53245232Y-73543475D01*
X53452075Y-73336632D01*
X53568600Y-73162240D01*
X53685125Y-73336632D01*
X53891968Y-73543475D01*
X54135189Y-73705990D01*
X54405442Y-73817932D01*
X54692340Y-73875000D01*
X54984860Y-73875000D01*
X55271758Y-73817932D01*
X55542011Y-73705990D01*
X55785232Y-73543475D01*
X55992075Y-73336632D01*
X56108600Y-73162240D01*
X56225125Y-73336632D01*
X56431968Y-73543475D01*
X56675189Y-73705990D01*
X56945442Y-73817932D01*
X57232340Y-73875000D01*
X57524860Y-73875000D01*
X57811758Y-73817932D01*
X58082011Y-73705990D01*
X58325232Y-73543475D01*
X58532075Y-73336632D01*
X58648600Y-73162240D01*
X58765125Y-73336632D01*
X58971968Y-73543475D01*
X59215189Y-73705990D01*
X59485442Y-73817932D01*
X59772340Y-73875000D01*
X60064860Y-73875000D01*
X60351758Y-73817932D01*
X60622011Y-73705990D01*
X60865232Y-73543475D01*
X61072075Y-73336632D01*
X61188600Y-73162240D01*
X61305125Y-73336632D01*
X61511968Y-73543475D01*
X61755189Y-73705990D01*
X62025442Y-73817932D01*
X62312340Y-73875000D01*
X62604860Y-73875000D01*
X62891758Y-73817932D01*
X63162011Y-73705990D01*
X63405232Y-73543475D01*
X63612075Y-73336632D01*
X63728600Y-73162240D01*
X63845125Y-73336632D01*
X64051968Y-73543475D01*
X64295189Y-73705990D01*
X64565442Y-73817932D01*
X64852340Y-73875000D01*
X65144860Y-73875000D01*
X65431758Y-73817932D01*
X65702011Y-73705990D01*
X65945232Y-73543475D01*
X66152075Y-73336632D01*
X66314590Y-73093411D01*
X66426532Y-72823158D01*
X66483600Y-72536260D01*
X66483600Y-72243740D01*
X66426532Y-71956842D01*
X66406633Y-71908800D01*
X68219928Y-71908800D01*
X68232188Y-72033282D01*
X68268498Y-72152980D01*
X68327463Y-72263294D01*
X68406815Y-72359985D01*
X68503506Y-72439337D01*
X68613820Y-72498302D01*
X68733518Y-72534612D01*
X68858000Y-72546872D01*
X70072250Y-72543800D01*
X70231000Y-72385050D01*
X70231000Y-70535800D01*
X70485000Y-70535800D01*
X70485000Y-72385050D01*
X70643750Y-72543800D01*
X71858000Y-72546872D01*
X71982482Y-72534612D01*
X72102180Y-72498302D01*
X72212494Y-72439337D01*
X72309185Y-72359985D01*
X72388537Y-72263294D01*
X72447502Y-72152980D01*
X72483812Y-72033282D01*
X72496072Y-71908800D01*
X72493000Y-70694550D01*
X72334250Y-70535800D01*
X70485000Y-70535800D01*
X70231000Y-70535800D01*
X68381750Y-70535800D01*
X68223000Y-70694550D01*
X68219928Y-71908800D01*
X66406633Y-71908800D01*
X66314590Y-71686589D01*
X66152075Y-71443368D01*
X65945232Y-71236525D01*
X65702011Y-71074010D01*
X65431758Y-70962068D01*
X65144860Y-70905000D01*
X64852340Y-70905000D01*
X64565442Y-70962068D01*
X64295189Y-71074010D01*
X64051968Y-71236525D01*
X63845125Y-71443368D01*
X63728600Y-71617760D01*
X63612075Y-71443368D01*
X63405232Y-71236525D01*
X63162011Y-71074010D01*
X62891758Y-70962068D01*
X62604860Y-70905000D01*
X62312340Y-70905000D01*
X62025442Y-70962068D01*
X61755189Y-71074010D01*
X61511968Y-71236525D01*
X61305125Y-71443368D01*
X61188600Y-71617760D01*
X61072075Y-71443368D01*
X60865232Y-71236525D01*
X60622011Y-71074010D01*
X60351758Y-70962068D01*
X60064860Y-70905000D01*
X59772340Y-70905000D01*
X59485442Y-70962068D01*
X59215189Y-71074010D01*
X58971968Y-71236525D01*
X58765125Y-71443368D01*
X58648600Y-71617760D01*
X58532075Y-71443368D01*
X58325232Y-71236525D01*
X58082011Y-71074010D01*
X57811758Y-70962068D01*
X57524860Y-70905000D01*
X57232340Y-70905000D01*
X56945442Y-70962068D01*
X56675189Y-71074010D01*
X56431968Y-71236525D01*
X56225125Y-71443368D01*
X56108600Y-71617760D01*
X55992075Y-71443368D01*
X55785232Y-71236525D01*
X55542011Y-71074010D01*
X55271758Y-70962068D01*
X54984860Y-70905000D01*
X54692340Y-70905000D01*
X54405442Y-70962068D01*
X54135189Y-71074010D01*
X53891968Y-71236525D01*
X53685125Y-71443368D01*
X53568600Y-71617760D01*
X53452075Y-71443368D01*
X53245232Y-71236525D01*
X53002011Y-71074010D01*
X52731758Y-70962068D01*
X52444860Y-70905000D01*
X52152340Y-70905000D01*
X51865442Y-70962068D01*
X51595189Y-71074010D01*
X51351968Y-71236525D01*
X51220113Y-71368380D01*
X51198102Y-71295820D01*
X51139137Y-71185506D01*
X51059785Y-71088815D01*
X50963094Y-71009463D01*
X50852780Y-70950498D01*
X50733082Y-70914188D01*
X50608600Y-70901928D01*
X50044350Y-70905000D01*
X49885600Y-71063750D01*
X49631600Y-71063750D01*
X49472850Y-70905000D01*
X48908600Y-70901928D01*
X48784118Y-70914188D01*
X48664420Y-70950498D01*
X48554106Y-71009463D01*
X48457415Y-71088815D01*
X48378063Y-71185506D01*
X48319098Y-71295820D01*
X48282788Y-71415518D01*
X48270528Y-71540000D01*
X47564936Y-71540000D01*
X47637000Y-71177715D01*
X47637000Y-70422285D01*
X47489623Y-69681372D01*
X47438107Y-69557000D01*
X48270528Y-69557000D01*
X48282788Y-69681482D01*
X48319098Y-69801180D01*
X48378063Y-69911494D01*
X48457415Y-70008185D01*
X48554106Y-70087537D01*
X48664420Y-70146502D01*
X48784118Y-70182812D01*
X48908600Y-70195072D01*
X49472850Y-70192000D01*
X49631600Y-70033250D01*
X49631600Y-68834000D01*
X48432350Y-68834000D01*
X48273600Y-68992750D01*
X48270528Y-69557000D01*
X47438107Y-69557000D01*
X47200533Y-68983446D01*
X46780839Y-68355330D01*
X46282509Y-67857000D01*
X48270528Y-67857000D01*
X48273600Y-68421250D01*
X48432350Y-68580000D01*
X49631600Y-68580000D01*
X49631600Y-67380750D01*
X49885600Y-67380750D01*
X49885600Y-68580000D01*
X49905600Y-68580000D01*
X49905600Y-68834000D01*
X49885600Y-68834000D01*
X49885600Y-70033250D01*
X50044350Y-70192000D01*
X50608600Y-70195072D01*
X50733082Y-70182812D01*
X50852780Y-70146502D01*
X50963094Y-70087537D01*
X51059785Y-70008185D01*
X51139137Y-69911494D01*
X51198102Y-69801180D01*
X51220113Y-69728620D01*
X51351968Y-69860475D01*
X51595189Y-70022990D01*
X51865442Y-70134932D01*
X52152340Y-70192000D01*
X52444860Y-70192000D01*
X52731758Y-70134932D01*
X53002011Y-70022990D01*
X53245232Y-69860475D01*
X53452075Y-69653632D01*
X53568600Y-69479240D01*
X53685125Y-69653632D01*
X53891968Y-69860475D01*
X54135189Y-70022990D01*
X54405442Y-70134932D01*
X54692340Y-70192000D01*
X54984860Y-70192000D01*
X55271758Y-70134932D01*
X55542011Y-70022990D01*
X55785232Y-69860475D01*
X55992075Y-69653632D01*
X56108600Y-69479240D01*
X56225125Y-69653632D01*
X56431968Y-69860475D01*
X56675189Y-70022990D01*
X56945442Y-70134932D01*
X57232340Y-70192000D01*
X57524860Y-70192000D01*
X57811758Y-70134932D01*
X58082011Y-70022990D01*
X58325232Y-69860475D01*
X58532075Y-69653632D01*
X58648600Y-69479240D01*
X58765125Y-69653632D01*
X58971968Y-69860475D01*
X59215189Y-70022990D01*
X59485442Y-70134932D01*
X59772340Y-70192000D01*
X60064860Y-70192000D01*
X60351758Y-70134932D01*
X60622011Y-70022990D01*
X60865232Y-69860475D01*
X61072075Y-69653632D01*
X61188600Y-69479240D01*
X61305125Y-69653632D01*
X61511968Y-69860475D01*
X61755189Y-70022990D01*
X62025442Y-70134932D01*
X62312340Y-70192000D01*
X62604860Y-70192000D01*
X62891758Y-70134932D01*
X63162011Y-70022990D01*
X63405232Y-69860475D01*
X63612075Y-69653632D01*
X63728600Y-69479240D01*
X63845125Y-69653632D01*
X64051968Y-69860475D01*
X64295189Y-70022990D01*
X64565442Y-70134932D01*
X64852340Y-70192000D01*
X65144860Y-70192000D01*
X65431758Y-70134932D01*
X65702011Y-70022990D01*
X65945232Y-69860475D01*
X66152075Y-69653632D01*
X66314590Y-69410411D01*
X66426532Y-69140158D01*
X66472552Y-68908800D01*
X68219928Y-68908800D01*
X68223000Y-70123050D01*
X68381750Y-70281800D01*
X70231000Y-70281800D01*
X70231000Y-68432550D01*
X70072250Y-68273800D01*
X68858000Y-68270728D01*
X68733518Y-68282988D01*
X68613820Y-68319298D01*
X68503506Y-68378263D01*
X68406815Y-68457615D01*
X68327463Y-68554306D01*
X68268498Y-68664620D01*
X68232188Y-68784318D01*
X68219928Y-68908800D01*
X66472552Y-68908800D01*
X66483600Y-68853260D01*
X66483600Y-68560740D01*
X66426532Y-68273842D01*
X66314590Y-68003589D01*
X66152075Y-67760368D01*
X65945232Y-67553525D01*
X65702011Y-67391010D01*
X65431758Y-67279068D01*
X65144860Y-67222000D01*
X64852340Y-67222000D01*
X64565442Y-67279068D01*
X64295189Y-67391010D01*
X64051968Y-67553525D01*
X63845125Y-67760368D01*
X63728600Y-67934760D01*
X63612075Y-67760368D01*
X63405232Y-67553525D01*
X63162011Y-67391010D01*
X62891758Y-67279068D01*
X62604860Y-67222000D01*
X62312340Y-67222000D01*
X62025442Y-67279068D01*
X61755189Y-67391010D01*
X61511968Y-67553525D01*
X61305125Y-67760368D01*
X61188600Y-67934760D01*
X61072075Y-67760368D01*
X60865232Y-67553525D01*
X60622011Y-67391010D01*
X60351758Y-67279068D01*
X60064860Y-67222000D01*
X59772340Y-67222000D01*
X59485442Y-67279068D01*
X59215189Y-67391010D01*
X58971968Y-67553525D01*
X58765125Y-67760368D01*
X58648600Y-67934760D01*
X58532075Y-67760368D01*
X58325232Y-67553525D01*
X58082011Y-67391010D01*
X57811758Y-67279068D01*
X57524860Y-67222000D01*
X57232340Y-67222000D01*
X56945442Y-67279068D01*
X56675189Y-67391010D01*
X56431968Y-67553525D01*
X56225125Y-67760368D01*
X56108600Y-67934760D01*
X55992075Y-67760368D01*
X55785232Y-67553525D01*
X55542011Y-67391010D01*
X55271758Y-67279068D01*
X54984860Y-67222000D01*
X54692340Y-67222000D01*
X54405442Y-67279068D01*
X54135189Y-67391010D01*
X53891968Y-67553525D01*
X53685125Y-67760368D01*
X53568600Y-67934760D01*
X53452075Y-67760368D01*
X53245232Y-67553525D01*
X53002011Y-67391010D01*
X52731758Y-67279068D01*
X52444860Y-67222000D01*
X52152340Y-67222000D01*
X51865442Y-67279068D01*
X51595189Y-67391010D01*
X51351968Y-67553525D01*
X51220113Y-67685380D01*
X51198102Y-67612820D01*
X51139137Y-67502506D01*
X51059785Y-67405815D01*
X50963094Y-67326463D01*
X50852780Y-67267498D01*
X50733082Y-67231188D01*
X50608600Y-67218928D01*
X50044350Y-67222000D01*
X49885600Y-67380750D01*
X49631600Y-67380750D01*
X49472850Y-67222000D01*
X48908600Y-67218928D01*
X48784118Y-67231188D01*
X48664420Y-67267498D01*
X48554106Y-67326463D01*
X48457415Y-67405815D01*
X48378063Y-67502506D01*
X48319098Y-67612820D01*
X48282788Y-67732518D01*
X48270528Y-67857000D01*
X46282509Y-67857000D01*
X46246670Y-67821161D01*
X45618554Y-67401467D01*
X44920628Y-67112377D01*
X44179715Y-66965000D01*
X43424285Y-66965000D01*
X42683372Y-67112377D01*
X41985446Y-67401467D01*
X41357330Y-67821161D01*
X41096800Y-68081691D01*
X41096800Y-54956167D01*
X41191144Y-55019205D01*
X41379502Y-55097226D01*
X41579461Y-55137000D01*
X41688800Y-55137000D01*
X41688800Y-63831440D01*
X41683308Y-63887202D01*
X41705222Y-64109700D01*
X41770123Y-64323648D01*
X41818867Y-64414842D01*
X41875516Y-64520825D01*
X42017351Y-64693651D01*
X42060659Y-64729193D01*
X43144005Y-65812540D01*
X43179548Y-65855849D01*
X43352374Y-65997684D01*
X43549550Y-66103076D01*
X43713702Y-66152871D01*
X43763497Y-66167977D01*
X43784490Y-66170044D01*
X43930245Y-66184400D01*
X43930252Y-66184400D01*
X43985996Y-66189890D01*
X44041740Y-66184400D01*
X69481469Y-66184400D01*
X71568529Y-68271460D01*
X70643750Y-68273800D01*
X70485000Y-68432550D01*
X70485000Y-70281800D01*
X72334250Y-70281800D01*
X72493000Y-70123050D01*
X72495340Y-69198272D01*
X72969010Y-69671942D01*
X73004552Y-69715250D01*
X73177378Y-69857085D01*
X73352316Y-69950591D01*
X73303000Y-70198521D01*
X73303000Y-70619079D01*
X73385047Y-71031556D01*
X73545988Y-71420102D01*
X73779637Y-71769783D01*
X74077017Y-72067163D01*
X74426698Y-72300812D01*
X74815244Y-72461753D01*
X75227721Y-72543800D01*
X75648279Y-72543800D01*
X76060756Y-72461753D01*
X76449302Y-72300812D01*
X76798983Y-72067163D01*
X77096363Y-71769783D01*
X77330012Y-71420102D01*
X77490953Y-71031556D01*
X77573000Y-70619079D01*
X77573000Y-70198521D01*
X77490953Y-69786044D01*
X77330012Y-69397498D01*
X77096363Y-69047817D01*
X76798983Y-68750437D01*
X76449302Y-68516788D01*
X76060756Y-68355847D01*
X75648279Y-68273800D01*
X75227721Y-68273800D01*
X74961155Y-68326823D01*
X74779997Y-68145666D01*
X74744450Y-68102352D01*
X74571624Y-67960517D01*
X74374448Y-67855125D01*
X74357236Y-67849904D01*
X70793596Y-64286265D01*
X70765310Y-64251798D01*
X70927275Y-64089833D01*
X71043800Y-63915441D01*
X71160325Y-64089833D01*
X71367168Y-64296676D01*
X71610389Y-64459191D01*
X71880642Y-64571133D01*
X72167540Y-64628201D01*
X72460060Y-64628201D01*
X72746958Y-64571133D01*
X73017211Y-64459191D01*
X73260432Y-64296676D01*
X73467275Y-64089833D01*
X73583800Y-63915441D01*
X73700325Y-64089833D01*
X73907168Y-64296676D01*
X74150389Y-64459191D01*
X74420642Y-64571133D01*
X74707540Y-64628201D01*
X75000060Y-64628201D01*
X75286958Y-64571133D01*
X75557211Y-64459191D01*
X75800432Y-64296676D01*
X76007275Y-64089833D01*
X76123800Y-63915441D01*
X76240325Y-64089833D01*
X76447168Y-64296676D01*
X76690389Y-64459191D01*
X76960642Y-64571133D01*
X77247540Y-64628201D01*
X77540060Y-64628201D01*
X77826958Y-64571133D01*
X78097211Y-64459191D01*
X78340432Y-64296676D01*
X78547275Y-64089833D01*
X78663800Y-63915441D01*
X78780325Y-64089833D01*
X78987168Y-64296676D01*
X79230389Y-64459191D01*
X79500642Y-64571133D01*
X79787540Y-64628201D01*
X80080060Y-64628201D01*
X80366958Y-64571133D01*
X80637211Y-64459191D01*
X80880432Y-64296676D01*
X81087275Y-64089833D01*
X81203800Y-63915441D01*
X81320325Y-64089833D01*
X81527168Y-64296676D01*
X81770389Y-64459191D01*
X82040642Y-64571133D01*
X82327540Y-64628201D01*
X82620060Y-64628201D01*
X82906958Y-64571133D01*
X83177211Y-64459191D01*
X83420432Y-64296676D01*
X83627275Y-64089833D01*
X83743800Y-63915441D01*
X83860325Y-64089833D01*
X84067168Y-64296676D01*
X84310389Y-64459191D01*
X84580642Y-64571133D01*
X84867540Y-64628201D01*
X85160060Y-64628201D01*
X85446958Y-64571133D01*
X85717211Y-64459191D01*
X85960432Y-64296676D01*
X86167275Y-64089833D01*
X86283800Y-63915441D01*
X86400325Y-64089833D01*
X86607168Y-64296676D01*
X86850389Y-64459191D01*
X87120642Y-64571133D01*
X87407540Y-64628201D01*
X87700060Y-64628201D01*
X87986958Y-64571133D01*
X88257211Y-64459191D01*
X88500432Y-64296676D01*
X88707275Y-64089833D01*
X88823800Y-63915441D01*
X88940325Y-64089833D01*
X89147168Y-64296676D01*
X89390389Y-64459191D01*
X89660642Y-64571133D01*
X89947540Y-64628201D01*
X90240060Y-64628201D01*
X90526958Y-64571133D01*
X90797211Y-64459191D01*
X91040432Y-64296676D01*
X91172287Y-64164821D01*
X91194298Y-64237381D01*
X91253263Y-64347695D01*
X91332615Y-64444386D01*
X91429306Y-64523738D01*
X91539620Y-64582703D01*
X91659318Y-64619013D01*
X91783800Y-64631273D01*
X93483800Y-64631273D01*
X93608282Y-64619013D01*
X93727980Y-64582703D01*
X93838294Y-64523738D01*
X93934985Y-64444386D01*
X94014337Y-64347695D01*
X94073302Y-64237381D01*
X94109612Y-64117683D01*
X94121872Y-63993201D01*
X94121872Y-62293201D01*
X94109612Y-62168719D01*
X94073302Y-62049021D01*
X94014337Y-61938707D01*
X93934985Y-61842016D01*
X93838294Y-61762664D01*
X93727980Y-61703699D01*
X93608282Y-61667389D01*
X93483800Y-61655129D01*
X92665782Y-61655129D01*
X92701137Y-61619774D01*
X92814405Y-61450256D01*
X92892426Y-61261898D01*
X92932200Y-61061939D01*
X92932200Y-60858061D01*
X92892426Y-60658102D01*
X92814405Y-60469744D01*
X92701137Y-60300226D01*
X92556974Y-60156063D01*
X92387456Y-60042795D01*
X92199098Y-59964774D01*
X91999139Y-59925000D01*
X91937002Y-59925000D01*
X90759204Y-58747203D01*
X90735401Y-58718199D01*
X90619676Y-58623226D01*
X90487647Y-58552654D01*
X90344386Y-58509197D01*
X90232733Y-58498200D01*
X90232722Y-58498200D01*
X90195400Y-58494524D01*
X90158078Y-58498200D01*
X78776123Y-58498200D01*
X78738800Y-58494524D01*
X78701477Y-58498200D01*
X78701468Y-58498200D01*
X78589815Y-58509197D01*
X78446554Y-58552654D01*
X78314524Y-58623226D01*
X78230884Y-58691868D01*
X78198800Y-58718199D01*
X78175002Y-58747197D01*
X75220208Y-61701992D01*
X75000060Y-61658201D01*
X74707540Y-61658201D01*
X74420642Y-61715269D01*
X74150389Y-61827211D01*
X73907168Y-61989726D01*
X73700325Y-62196569D01*
X73583800Y-62370961D01*
X73467275Y-62196569D01*
X73260432Y-61989726D01*
X73017211Y-61827211D01*
X72746958Y-61715269D01*
X72460060Y-61658201D01*
X72167540Y-61658201D01*
X71880642Y-61715269D01*
X71610389Y-61827211D01*
X71367168Y-61989726D01*
X71160325Y-62196569D01*
X71043800Y-62370961D01*
X70927275Y-62196569D01*
X70720432Y-61989726D01*
X70477211Y-61827211D01*
X70206958Y-61715269D01*
X69920060Y-61658201D01*
X69627540Y-61658201D01*
X69340642Y-61715269D01*
X69070389Y-61827211D01*
X68827168Y-61989726D01*
X68620325Y-62196569D01*
X68503800Y-62370961D01*
X68387275Y-62196569D01*
X68180432Y-61989726D01*
X67937211Y-61827211D01*
X67666958Y-61715269D01*
X67380060Y-61658201D01*
X67087540Y-61658201D01*
X66800642Y-61715269D01*
X66530389Y-61827211D01*
X66287168Y-61989726D01*
X66080325Y-62196569D01*
X65963800Y-62370961D01*
X65847275Y-62196569D01*
X65640432Y-61989726D01*
X65397211Y-61827211D01*
X65126958Y-61715269D01*
X64840060Y-61658201D01*
X64547540Y-61658201D01*
X64260642Y-61715269D01*
X63990389Y-61827211D01*
X63747168Y-61989726D01*
X63540325Y-62196569D01*
X63423800Y-62370961D01*
X63307275Y-62196569D01*
X63100432Y-61989726D01*
X62857211Y-61827211D01*
X62586958Y-61715269D01*
X62300060Y-61658201D01*
X62007540Y-61658201D01*
X61720642Y-61715269D01*
X61450389Y-61827211D01*
X61207168Y-61989726D01*
X61000325Y-62196569D01*
X60883800Y-62370961D01*
X60767275Y-62196569D01*
X60560432Y-61989726D01*
X60317211Y-61827211D01*
X60046958Y-61715269D01*
X59760060Y-61658201D01*
X59467540Y-61658201D01*
X59180642Y-61715269D01*
X58910389Y-61827211D01*
X58667168Y-61989726D01*
X58460325Y-62196569D01*
X58343800Y-62370961D01*
X58227275Y-62196569D01*
X58020432Y-61989726D01*
X57777211Y-61827211D01*
X57506958Y-61715269D01*
X57220060Y-61658201D01*
X56927540Y-61658201D01*
X56640642Y-61715269D01*
X56370389Y-61827211D01*
X56127168Y-61989726D01*
X55920325Y-62196569D01*
X55803800Y-62370961D01*
X55687275Y-62196569D01*
X55480432Y-61989726D01*
X55237211Y-61827211D01*
X54966958Y-61715269D01*
X54680060Y-61658201D01*
X54387540Y-61658201D01*
X54100642Y-61715269D01*
X53830389Y-61827211D01*
X53587168Y-61989726D01*
X53380325Y-62196569D01*
X53263800Y-62370961D01*
X53147275Y-62196569D01*
X52940432Y-61989726D01*
X52697211Y-61827211D01*
X52426958Y-61715269D01*
X52140060Y-61658201D01*
X51847540Y-61658201D01*
X51560642Y-61715269D01*
X51290389Y-61827211D01*
X51047168Y-61989726D01*
X50840325Y-62196569D01*
X50723800Y-62370961D01*
X50607275Y-62196569D01*
X50400432Y-61989726D01*
X50288800Y-61915136D01*
X50288800Y-56708467D01*
X50541067Y-56456200D01*
X50606988Y-56456200D01*
X50826267Y-56412583D01*
X51032824Y-56327024D01*
X51218720Y-56202812D01*
X51376812Y-56044720D01*
X51501024Y-55858824D01*
X51586583Y-55652267D01*
X51630200Y-55432988D01*
X51630200Y-55209412D01*
X51586583Y-54990133D01*
X51501024Y-54783576D01*
X51376812Y-54597680D01*
X51218720Y-54439588D01*
X51032824Y-54315376D01*
X50826267Y-54229817D01*
X50606988Y-54186200D01*
X50383412Y-54186200D01*
X50164133Y-54229817D01*
X49957576Y-54315376D01*
X49771680Y-54439588D01*
X49613588Y-54597680D01*
X49489376Y-54783576D01*
X49403817Y-54990133D01*
X49360200Y-55209412D01*
X49360200Y-55275333D01*
X48892379Y-55743154D01*
X48860509Y-55769309D01*
X48787047Y-55858824D01*
X48756164Y-55896455D01*
X48678628Y-56041514D01*
X48630882Y-56198912D01*
X48614760Y-56362600D01*
X48618800Y-56403619D01*
X48618801Y-61915135D01*
X48507168Y-61989726D01*
X48300325Y-62196569D01*
X48178605Y-62378735D01*
X48108978Y-62261846D01*
X47914069Y-62045613D01*
X47680720Y-61871560D01*
X47417899Y-61746376D01*
X47270690Y-61701725D01*
X47040800Y-61823046D01*
X47040800Y-63016201D01*
X47060800Y-63016201D01*
X47060800Y-63270201D01*
X47040800Y-63270201D01*
X47040800Y-63290201D01*
X46786800Y-63290201D01*
X46786800Y-63270201D01*
X44500800Y-63270201D01*
X44500800Y-63290201D01*
X44246800Y-63290201D01*
X44246800Y-63270201D01*
X44226800Y-63270201D01*
X44226800Y-63016201D01*
X44246800Y-63016201D01*
X44246800Y-61823046D01*
X44500800Y-61823046D01*
X44500800Y-63016201D01*
X46786800Y-63016201D01*
X46786800Y-61823046D01*
X46556910Y-61701725D01*
X46409701Y-61746376D01*
X46146880Y-61871560D01*
X45913531Y-62045613D01*
X45718622Y-62261846D01*
X45643800Y-62387456D01*
X45568978Y-62261846D01*
X45374069Y-62045613D01*
X45140720Y-61871560D01*
X44877899Y-61746376D01*
X44730690Y-61701725D01*
X44500800Y-61823046D01*
X44246800Y-61823046D01*
X44016910Y-61701725D01*
X43958799Y-61719351D01*
X43958799Y-49335944D01*
X44227540Y-49389400D01*
X44520060Y-49389400D01*
X44788802Y-49335944D01*
X44788802Y-49727869D01*
X44785125Y-49765201D01*
X44788802Y-49802534D01*
X44796869Y-49884436D01*
X44786600Y-49936061D01*
X44786600Y-50139939D01*
X44826374Y-50339898D01*
X44904395Y-50528256D01*
X45017663Y-50697774D01*
X45161826Y-50841937D01*
X45331344Y-50955205D01*
X45519702Y-51033226D01*
X45719661Y-51073000D01*
X45923539Y-51073000D01*
X46123498Y-51033226D01*
X46311856Y-50955205D01*
X46481374Y-50841937D01*
X46625537Y-50697774D01*
X46738805Y-50528256D01*
X46816826Y-50339898D01*
X46856600Y-50139939D01*
X46856600Y-49936061D01*
X46816826Y-49736102D01*
X46738805Y-49547744D01*
X46625537Y-49378226D01*
X46604225Y-49356914D01*
X46767540Y-49389400D01*
X47060060Y-49389400D01*
X47346958Y-49332332D01*
X47347601Y-49332066D01*
X47347601Y-50172488D01*
X47303663Y-50216426D01*
X47190395Y-50385944D01*
X47112374Y-50574302D01*
X47072600Y-50774261D01*
X47072600Y-50978139D01*
X47112374Y-51178098D01*
X47190395Y-51366456D01*
X47303663Y-51535974D01*
X47447826Y-51680137D01*
X47617344Y-51793405D01*
X47805702Y-51871426D01*
X48005661Y-51911200D01*
X48209539Y-51911200D01*
X48409498Y-51871426D01*
X48597856Y-51793405D01*
X48767374Y-51680137D01*
X48911537Y-51535974D01*
X49024805Y-51366456D01*
X49102826Y-51178098D01*
X49142600Y-50978139D01*
X49142600Y-50774261D01*
X49102826Y-50574302D01*
X49024805Y-50385944D01*
X48911537Y-50216426D01*
X48867600Y-50172489D01*
X48867600Y-49268940D01*
X49020642Y-49332332D01*
X49307540Y-49389400D01*
X49600060Y-49389400D01*
X49886958Y-49332332D01*
X50157211Y-49220390D01*
X50400432Y-49057875D01*
X50607275Y-48851032D01*
X50723800Y-48676640D01*
X50840325Y-48851032D01*
X51047168Y-49057875D01*
X51290389Y-49220390D01*
X51560642Y-49332332D01*
X51847540Y-49389400D01*
X52140060Y-49389400D01*
X52426958Y-49332332D01*
X52697211Y-49220390D01*
X52940432Y-49057875D01*
X53147275Y-48851032D01*
X53263800Y-48676640D01*
X53380325Y-48851032D01*
X53587168Y-49057875D01*
X53830389Y-49220390D01*
X54100642Y-49332332D01*
X54387540Y-49389400D01*
X54680060Y-49389400D01*
X54966958Y-49332332D01*
X55094601Y-49279461D01*
X55094601Y-49308888D01*
X55025263Y-49378226D01*
X54911995Y-49547744D01*
X54833974Y-49736102D01*
X54794200Y-49936061D01*
X54794200Y-50139939D01*
X54833974Y-50339898D01*
X54911995Y-50528256D01*
X55025263Y-50697774D01*
X55169426Y-50841937D01*
X55338944Y-50955205D01*
X55527302Y-51033226D01*
X55727261Y-51073000D01*
X55931139Y-51073000D01*
X56131098Y-51033226D01*
X56319456Y-50955205D01*
X56488974Y-50841937D01*
X56633137Y-50697774D01*
X56746405Y-50528256D01*
X56824426Y-50339898D01*
X56864200Y-50139939D01*
X56864200Y-49936061D01*
X56824426Y-49736102D01*
X56746405Y-49547744D01*
X56633137Y-49378226D01*
X56614600Y-49359689D01*
X56614600Y-49321545D01*
X56640642Y-49332332D01*
X56927540Y-49389400D01*
X57220060Y-49389400D01*
X57488802Y-49335944D01*
X57488802Y-49885525D01*
X57482887Y-49896591D01*
X57478350Y-49905079D01*
X57434910Y-50048285D01*
X57379959Y-50103236D01*
X57266691Y-50272754D01*
X57188670Y-50461112D01*
X57148896Y-50661071D01*
X57148896Y-50864949D01*
X57188670Y-51064908D01*
X57266691Y-51253266D01*
X57379959Y-51422784D01*
X57524122Y-51566947D01*
X57693640Y-51680215D01*
X57881998Y-51758236D01*
X58081957Y-51798010D01*
X58285835Y-51798010D01*
X58485794Y-51758236D01*
X58674152Y-51680215D01*
X58843670Y-51566947D01*
X58987833Y-51422784D01*
X59101101Y-51253266D01*
X59179122Y-51064908D01*
X59218896Y-50864949D01*
X59218896Y-50661071D01*
X59179122Y-50461112D01*
X59101101Y-50272754D01*
X59011817Y-50139131D01*
X59012478Y-50132420D01*
X59008801Y-50095087D01*
X59008801Y-49261153D01*
X59180642Y-49332332D01*
X59467540Y-49389400D01*
X59760060Y-49389400D01*
X60046958Y-49332332D01*
X60317211Y-49220390D01*
X60560432Y-49057875D01*
X60767275Y-48851032D01*
X60883800Y-48676640D01*
X61000325Y-48851032D01*
X61207168Y-49057875D01*
X61450389Y-49220390D01*
X61720642Y-49332332D01*
X62007540Y-49389400D01*
X62300060Y-49389400D01*
X62586958Y-49332332D01*
X62857211Y-49220390D01*
X63100432Y-49057875D01*
X63307275Y-48851032D01*
X63423800Y-48676640D01*
X63540325Y-48851032D01*
X63747168Y-49057875D01*
X63990389Y-49220390D01*
X64260642Y-49332332D01*
X64547540Y-49389400D01*
X64840060Y-49389400D01*
X65126958Y-49332332D01*
X65298800Y-49261153D01*
X65298800Y-49973688D01*
X65295123Y-50011020D01*
X65309797Y-50160005D01*
X65338971Y-50256183D01*
X65327899Y-50272754D01*
X65249878Y-50461112D01*
X65210104Y-50661071D01*
X65210104Y-50864949D01*
X65249878Y-51064908D01*
X65327899Y-51253266D01*
X65441167Y-51422784D01*
X65585330Y-51566947D01*
X65754848Y-51680215D01*
X65943206Y-51758236D01*
X66143165Y-51798010D01*
X66347043Y-51798010D01*
X66547002Y-51758236D01*
X66735360Y-51680215D01*
X66904878Y-51566947D01*
X67049041Y-51422784D01*
X67162309Y-51253266D01*
X67240330Y-51064908D01*
X67280104Y-50864949D01*
X67280104Y-50661071D01*
X67240330Y-50461112D01*
X67162309Y-50272754D01*
X67049041Y-50103236D01*
X66994091Y-50048286D01*
X66950650Y-49905078D01*
X66880078Y-49773049D01*
X66818799Y-49698380D01*
X66818799Y-49335944D01*
X67087540Y-49389400D01*
X67380060Y-49389400D01*
X67666958Y-49332332D01*
X67838799Y-49261153D01*
X67838799Y-49297609D01*
X67831013Y-49323276D01*
X67776063Y-49378226D01*
X67662795Y-49547744D01*
X67584774Y-49736102D01*
X67545000Y-49936061D01*
X67545000Y-50139939D01*
X67584774Y-50339898D01*
X67662795Y-50528256D01*
X67776063Y-50697774D01*
X67920226Y-50841937D01*
X68089744Y-50955205D01*
X68278102Y-51033226D01*
X68478061Y-51073000D01*
X68681939Y-51073000D01*
X68881898Y-51033226D01*
X69070256Y-50955205D01*
X69239774Y-50841937D01*
X69383937Y-50697774D01*
X69497205Y-50528256D01*
X69575226Y-50339898D01*
X69615000Y-50139939D01*
X69615000Y-49936061D01*
X69575226Y-49736102D01*
X69497205Y-49547744D01*
X69383937Y-49378226D01*
X69358799Y-49353088D01*
X69358799Y-49335944D01*
X69627540Y-49389400D01*
X69920060Y-49389400D01*
X70206958Y-49332332D01*
X70477211Y-49220390D01*
X70720432Y-49057875D01*
X70927275Y-48851032D01*
X71043800Y-48676640D01*
X71160325Y-48851032D01*
X71367168Y-49057875D01*
X71610389Y-49220390D01*
X71880642Y-49332332D01*
X72167540Y-49389400D01*
X72460060Y-49389400D01*
X72746958Y-49332332D01*
X73017211Y-49220390D01*
X73260432Y-49057875D01*
X73467275Y-48851032D01*
X73583800Y-48676640D01*
X73700325Y-48851032D01*
X73907168Y-49057875D01*
X74150389Y-49220390D01*
X74420642Y-49332332D01*
X74707540Y-49389400D01*
X75000060Y-49389400D01*
X75286958Y-49332332D01*
X75557211Y-49220390D01*
X75800432Y-49057875D01*
X76007275Y-48851032D01*
X76123800Y-48676640D01*
X76240325Y-48851032D01*
X76447168Y-49057875D01*
X76690389Y-49220390D01*
X76960642Y-49332332D01*
X77247540Y-49389400D01*
X77540060Y-49389400D01*
X77826958Y-49332332D01*
X77954601Y-49279461D01*
X77954601Y-49359688D01*
X77936063Y-49378226D01*
X77822795Y-49547744D01*
X77744774Y-49736102D01*
X77705000Y-49936061D01*
X77705000Y-50139939D01*
X77744774Y-50339898D01*
X77822795Y-50528256D01*
X77936063Y-50697774D01*
X78080226Y-50841937D01*
X78249744Y-50955205D01*
X78438102Y-51033226D01*
X78638061Y-51073000D01*
X78841939Y-51073000D01*
X79041898Y-51033226D01*
X79230256Y-50955205D01*
X79399774Y-50841937D01*
X79543937Y-50697774D01*
X79657205Y-50528256D01*
X79735226Y-50339898D01*
X79775000Y-50139939D01*
X79775000Y-49936061D01*
X79735226Y-49736102D01*
X79657205Y-49547744D01*
X79543937Y-49378226D01*
X79496205Y-49330494D01*
X79500642Y-49332332D01*
X79787540Y-49389400D01*
X80080060Y-49389400D01*
X80366958Y-49332332D01*
X80405435Y-49316395D01*
X80405435Y-50325679D01*
X80401758Y-50363011D01*
X80405435Y-50400344D01*
X80416432Y-50511997D01*
X80419473Y-50522022D01*
X80459888Y-50655257D01*
X80530433Y-50787236D01*
X80530433Y-50864949D01*
X80570207Y-51064908D01*
X80648228Y-51253266D01*
X80761496Y-51422784D01*
X80905659Y-51566947D01*
X81075177Y-51680215D01*
X81263535Y-51758236D01*
X81463494Y-51798010D01*
X81667372Y-51798010D01*
X81867331Y-51758236D01*
X82055689Y-51680215D01*
X82225207Y-51566947D01*
X82282954Y-51509200D01*
X83338321Y-51509200D01*
X83278944Y-51533795D01*
X83109426Y-51647063D01*
X82965263Y-51791226D01*
X82851995Y-51960744D01*
X82773974Y-52149102D01*
X82734200Y-52349061D01*
X82734200Y-52552939D01*
X82773974Y-52752898D01*
X82851995Y-52941256D01*
X82965263Y-53110774D01*
X83009200Y-53154711D01*
X83009201Y-53677688D01*
X82965263Y-53721626D01*
X82851995Y-53891144D01*
X82773974Y-54079502D01*
X82734200Y-54279461D01*
X82734200Y-54483339D01*
X82773974Y-54683298D01*
X82851995Y-54871656D01*
X82965263Y-55041174D01*
X83109426Y-55185337D01*
X83278944Y-55298605D01*
X83467302Y-55376626D01*
X83667261Y-55416400D01*
X83871139Y-55416400D01*
X84071098Y-55376626D01*
X84259456Y-55298605D01*
X84428974Y-55185337D01*
X84573137Y-55041174D01*
X84686405Y-54871656D01*
X84764426Y-54683298D01*
X84771664Y-54646909D01*
X84833195Y-54795456D01*
X84946463Y-54964974D01*
X85090626Y-55109137D01*
X85260144Y-55222405D01*
X85448502Y-55300426D01*
X85648461Y-55340200D01*
X85852339Y-55340200D01*
X86052298Y-55300426D01*
X86240656Y-55222405D01*
X86410174Y-55109137D01*
X86554337Y-54964974D01*
X86667605Y-54795456D01*
X86745626Y-54607098D01*
X86785400Y-54407139D01*
X86785400Y-54203261D01*
X86745626Y-54003302D01*
X86667605Y-53814944D01*
X86554337Y-53645426D01*
X86510400Y-53601489D01*
X86510400Y-53176875D01*
X86566005Y-53093656D01*
X86644026Y-52905298D01*
X86683800Y-52705339D01*
X86683800Y-52501461D01*
X86644026Y-52301502D01*
X86566005Y-52113144D01*
X86452737Y-51943626D01*
X86308574Y-51799463D01*
X86139056Y-51686195D01*
X85950698Y-51608174D01*
X85750739Y-51568400D01*
X85546861Y-51568400D01*
X85405428Y-51596533D01*
X85470374Y-51553137D01*
X85614537Y-51408974D01*
X85727805Y-51239456D01*
X85805826Y-51051098D01*
X85845600Y-50851139D01*
X85845600Y-50647261D01*
X85805826Y-50447302D01*
X85727805Y-50258944D01*
X85614537Y-50089426D01*
X85470374Y-49945263D01*
X85300856Y-49831995D01*
X85112498Y-49753974D01*
X84912539Y-49714200D01*
X84708661Y-49714200D01*
X84508702Y-49753974D01*
X84320344Y-49831995D01*
X84150826Y-49945263D01*
X84106889Y-49989200D01*
X82255334Y-49989200D01*
X82225207Y-49959073D01*
X82055689Y-49845805D01*
X81925434Y-49791851D01*
X81925434Y-49284611D01*
X82040642Y-49332332D01*
X82327540Y-49389400D01*
X82620060Y-49389400D01*
X82906958Y-49332332D01*
X83177211Y-49220390D01*
X83420432Y-49057875D01*
X83627275Y-48851032D01*
X83743800Y-48676640D01*
X83860325Y-48851032D01*
X84067168Y-49057875D01*
X84310389Y-49220390D01*
X84580642Y-49332332D01*
X84867540Y-49389400D01*
X85160060Y-49389400D01*
X85446958Y-49332332D01*
X85717211Y-49220390D01*
X85960432Y-49057875D01*
X86167275Y-48851032D01*
X86283800Y-48676640D01*
X86400325Y-48851032D01*
X86607168Y-49057875D01*
X86850389Y-49220390D01*
X87120642Y-49332332D01*
X87407540Y-49389400D01*
X87700060Y-49389400D01*
X87986958Y-49332332D01*
X88257211Y-49220390D01*
X88500432Y-49057875D01*
X88707275Y-48851032D01*
X88828995Y-48668866D01*
X88898622Y-48785755D01*
X89093531Y-49001988D01*
X89326880Y-49176041D01*
X89589701Y-49301225D01*
X89736910Y-49345876D01*
X89966800Y-49224555D01*
X89966800Y-48031400D01*
X89946800Y-48031400D01*
X89946800Y-47777400D01*
X89966800Y-47777400D01*
X89966800Y-46584245D01*
X90220800Y-46584245D01*
X90220800Y-47777400D01*
X90240800Y-47777400D01*
X90240800Y-48031400D01*
X90220800Y-48031400D01*
X90220800Y-49224555D01*
X90450690Y-49345876D01*
X90597899Y-49301225D01*
X90860720Y-49176041D01*
X91094069Y-49001988D01*
X91169834Y-48917934D01*
X91194298Y-48998580D01*
X91253263Y-49108894D01*
X91332615Y-49205585D01*
X91429306Y-49284937D01*
X91539620Y-49343902D01*
X91659318Y-49380212D01*
X91783800Y-49392472D01*
X93483800Y-49392472D01*
X93608282Y-49380212D01*
X93727980Y-49343902D01*
X93838294Y-49284937D01*
X93934985Y-49205585D01*
X94014337Y-49108894D01*
X94073302Y-48998580D01*
X94109612Y-48878882D01*
X94121872Y-48754400D01*
X94121872Y-47054400D01*
X94109612Y-46929918D01*
X94073302Y-46810220D01*
X94014337Y-46699906D01*
X93934985Y-46603215D01*
X93838294Y-46523863D01*
X93727980Y-46464898D01*
X93608282Y-46428588D01*
X93483800Y-46416328D01*
X91783800Y-46416328D01*
X91659318Y-46428588D01*
X91539620Y-46464898D01*
X91429306Y-46523863D01*
X91332615Y-46603215D01*
X91253263Y-46699906D01*
X91194298Y-46810220D01*
X91169834Y-46890866D01*
X91094069Y-46806812D01*
X90860720Y-46632759D01*
X90597899Y-46507575D01*
X90450690Y-46462924D01*
X90220800Y-46584245D01*
X89966800Y-46584245D01*
X89736910Y-46462924D01*
X89589701Y-46507575D01*
X89326880Y-46632759D01*
X89093531Y-46806812D01*
X88898622Y-47023045D01*
X88828995Y-47139934D01*
X88707275Y-46957768D01*
X88500432Y-46750925D01*
X88257211Y-46588410D01*
X87986958Y-46476468D01*
X87700060Y-46419400D01*
X87407540Y-46419400D01*
X87120642Y-46476468D01*
X86850389Y-46588410D01*
X86607168Y-46750925D01*
X86400325Y-46957768D01*
X86283800Y-47132160D01*
X86167275Y-46957768D01*
X85960432Y-46750925D01*
X85717211Y-46588410D01*
X85446958Y-46476468D01*
X85160060Y-46419400D01*
X85033602Y-46419400D01*
X85531802Y-45921200D01*
X86062689Y-45921200D01*
X86106626Y-45965137D01*
X86276144Y-46078405D01*
X86464502Y-46156426D01*
X86664461Y-46196200D01*
X86868339Y-46196200D01*
X87068298Y-46156426D01*
X87256656Y-46078405D01*
X87426174Y-45965137D01*
X87570337Y-45820974D01*
X87683605Y-45651456D01*
X87761626Y-45463098D01*
X87801400Y-45263139D01*
X87801400Y-45059261D01*
X87761626Y-44859302D01*
X87683605Y-44670944D01*
X87570337Y-44501426D01*
X87426174Y-44357263D01*
X87256656Y-44243995D01*
X87068298Y-44165974D01*
X86868339Y-44126200D01*
X86664461Y-44126200D01*
X86464502Y-44165974D01*
X86276144Y-44243995D01*
X86106626Y-44357263D01*
X86062689Y-44401200D01*
X85254325Y-44401200D01*
X85217000Y-44397524D01*
X85179675Y-44401200D01*
X85179667Y-44401200D01*
X85068014Y-44412197D01*
X84924753Y-44455654D01*
X84792724Y-44526226D01*
X84676999Y-44621199D01*
X84653201Y-44650197D01*
X84447175Y-44856223D01*
X84436613Y-44803122D01*
X84358592Y-44614764D01*
X84245324Y-44445246D01*
X84101161Y-44301083D01*
X83931643Y-44187815D01*
X83743285Y-44109794D01*
X83543326Y-44070020D01*
X83339448Y-44070020D01*
X83139489Y-44109794D01*
X82951131Y-44187815D01*
X82781613Y-44301083D01*
X82756503Y-44326194D01*
X82727174Y-44296865D01*
X82557656Y-44183597D01*
X82369298Y-44105576D01*
X82169339Y-44065802D01*
X81965461Y-44065802D01*
X81765502Y-44105576D01*
X81577144Y-44183597D01*
X81407626Y-44296865D01*
X81363689Y-44340802D01*
X81035718Y-44340802D01*
X80998395Y-44337126D01*
X80961072Y-44340802D01*
X80961063Y-44340802D01*
X80849410Y-44351799D01*
X80706149Y-44395256D01*
X80574120Y-44465828D01*
X80458395Y-44560801D01*
X80434597Y-44589799D01*
X78300292Y-46724105D01*
X78097211Y-46588410D01*
X77826958Y-46476468D01*
X77540060Y-46419400D01*
X77247540Y-46419400D01*
X76960642Y-46476468D01*
X76690389Y-46588410D01*
X76447168Y-46750925D01*
X76240325Y-46957768D01*
X76123800Y-47132160D01*
X76007275Y-46957768D01*
X75800432Y-46750925D01*
X75557211Y-46588410D01*
X75286958Y-46476468D01*
X75000060Y-46419400D01*
X74707540Y-46419400D01*
X74420642Y-46476468D01*
X74150389Y-46588410D01*
X73907168Y-46750925D01*
X73700325Y-46957768D01*
X73583800Y-47132160D01*
X73467275Y-46957768D01*
X73260432Y-46750925D01*
X73017211Y-46588410D01*
X72746958Y-46476468D01*
X72460060Y-46419400D01*
X72167540Y-46419400D01*
X71880642Y-46476468D01*
X71610389Y-46588410D01*
X71367168Y-46750925D01*
X71160325Y-46957768D01*
X71043800Y-47132160D01*
X70927275Y-46957768D01*
X70720432Y-46750925D01*
X70477211Y-46588410D01*
X70206958Y-46476468D01*
X69920060Y-46419400D01*
X69627540Y-46419400D01*
X69390800Y-46466491D01*
X69390800Y-44950511D01*
X69434737Y-44906574D01*
X69548005Y-44737056D01*
X69626026Y-44548698D01*
X69665800Y-44348739D01*
X69665800Y-44144861D01*
X69626026Y-43944902D01*
X69548005Y-43756544D01*
X69434737Y-43587026D01*
X69290574Y-43442863D01*
X69121056Y-43329595D01*
X68932698Y-43251574D01*
X68732739Y-43211800D01*
X68528861Y-43211800D01*
X68328902Y-43251574D01*
X68140544Y-43329595D01*
X67971026Y-43442863D01*
X67826863Y-43587026D01*
X67713595Y-43756544D01*
X67635574Y-43944902D01*
X67595800Y-44144861D01*
X67595800Y-44270926D01*
X67415534Y-44345595D01*
X67246016Y-44458863D01*
X67101853Y-44603026D01*
X66988585Y-44772544D01*
X66910564Y-44960902D01*
X66870790Y-45160861D01*
X66870790Y-45222998D01*
X65547802Y-46545987D01*
X65518798Y-46569790D01*
X65476442Y-46621402D01*
X65465868Y-46634285D01*
X65397211Y-46588410D01*
X65126958Y-46476468D01*
X64840060Y-46419400D01*
X64547540Y-46419400D01*
X64260642Y-46476468D01*
X63990389Y-46588410D01*
X63747168Y-46750925D01*
X63540325Y-46957768D01*
X63423800Y-47132160D01*
X63307275Y-46957768D01*
X63100432Y-46750925D01*
X62857211Y-46588410D01*
X62586958Y-46476468D01*
X62300060Y-46419400D01*
X62007540Y-46419400D01*
X61720642Y-46476468D01*
X61450389Y-46588410D01*
X61207168Y-46750925D01*
X61000325Y-46957768D01*
X60883800Y-47132160D01*
X60767275Y-46957768D01*
X60560432Y-46750925D01*
X60317211Y-46588410D01*
X60046958Y-46476468D01*
X59760060Y-46419400D01*
X59467540Y-46419400D01*
X59180642Y-46476468D01*
X59008801Y-46547647D01*
X59008801Y-45687726D01*
X59012477Y-45650401D01*
X59008801Y-45613076D01*
X59008801Y-45613068D01*
X58997804Y-45501415D01*
X58954347Y-45358154D01*
X58883775Y-45226125D01*
X58820000Y-45148415D01*
X58820000Y-45084661D01*
X58780226Y-44884702D01*
X58702205Y-44696344D01*
X58588937Y-44526826D01*
X58444774Y-44382663D01*
X58275256Y-44269395D01*
X58086898Y-44191374D01*
X57886939Y-44151600D01*
X57683061Y-44151600D01*
X57483102Y-44191374D01*
X57294744Y-44269395D01*
X57226114Y-44315252D01*
X57081456Y-44218595D01*
X56893098Y-44140574D01*
X56693139Y-44100800D01*
X56489261Y-44100800D01*
X56289302Y-44140574D01*
X56100944Y-44218595D01*
X55931426Y-44331863D01*
X55787263Y-44476026D01*
X55673995Y-44645544D01*
X55595974Y-44833902D01*
X55556200Y-45033861D01*
X55556200Y-45095999D01*
X55343602Y-45308597D01*
X55314599Y-45332399D01*
X55264825Y-45393049D01*
X55219626Y-45448124D01*
X55149055Y-45580153D01*
X55149054Y-45580154D01*
X55105597Y-45723415D01*
X55094600Y-45835068D01*
X55094600Y-45835078D01*
X55090924Y-45872400D01*
X55094600Y-45909723D01*
X55094600Y-46529339D01*
X54966958Y-46476468D01*
X54680060Y-46419400D01*
X54387540Y-46419400D01*
X54100642Y-46476468D01*
X53830389Y-46588410D01*
X53587168Y-46750925D01*
X53380325Y-46957768D01*
X53263800Y-47132160D01*
X53147275Y-46957768D01*
X52940432Y-46750925D01*
X52697211Y-46588410D01*
X52426958Y-46476468D01*
X52140060Y-46419400D01*
X51847540Y-46419400D01*
X51560642Y-46476468D01*
X51290389Y-46588410D01*
X51047168Y-46750925D01*
X50840325Y-46957768D01*
X50723800Y-47132160D01*
X50607275Y-46957768D01*
X50400432Y-46750925D01*
X50157211Y-46588410D01*
X49886958Y-46476468D01*
X49600060Y-46419400D01*
X49307540Y-46419400D01*
X49020642Y-46476468D01*
X48750389Y-46588410D01*
X48547309Y-46724104D01*
X46575006Y-44751802D01*
X46551203Y-44722799D01*
X46435478Y-44627826D01*
X46303449Y-44557254D01*
X46160188Y-44513797D01*
X46048535Y-44502800D01*
X46048524Y-44502800D01*
X46042076Y-44502165D01*
X45998774Y-44458863D01*
X45829256Y-44345595D01*
X45640898Y-44267574D01*
X45440939Y-44227800D01*
X45237061Y-44227800D01*
X45037102Y-44267574D01*
X44848744Y-44345595D01*
X44805600Y-44374423D01*
X44762456Y-44345595D01*
X44574098Y-44267574D01*
X44374139Y-44227800D01*
X44170261Y-44227800D01*
X43970302Y-44267574D01*
X43958799Y-44272339D01*
X43958799Y-41110732D01*
X44335932Y-40733600D01*
X77092345Y-40733600D01*
X77213622Y-40814635D01*
X77420179Y-40900194D01*
X77639458Y-40943811D01*
X77863034Y-40943811D01*
X78082313Y-40900194D01*
X78288870Y-40814635D01*
X78410147Y-40733600D01*
X82107317Y-40733600D01*
X82235012Y-40759000D01*
X82458588Y-40759000D01*
X82586283Y-40733600D01*
X90662788Y-40733600D01*
X90717747Y-40722668D01*
X90773499Y-40717177D01*
X90827106Y-40700915D01*
X90882067Y-40689983D01*
X90933842Y-40668537D01*
X90987447Y-40652276D01*
X91036851Y-40625869D01*
X91088624Y-40604424D01*
X91135214Y-40573293D01*
X91184623Y-40546884D01*
X91227932Y-40511341D01*
X91274520Y-40480212D01*
X91314141Y-40440591D01*
X91357449Y-40405049D01*
X91392991Y-40361741D01*
X91432612Y-40322120D01*
X91463741Y-40275532D01*
X91499284Y-40232223D01*
X91525693Y-40182814D01*
X91556824Y-40136224D01*
X91578269Y-40084451D01*
X91604676Y-40035047D01*
X91620937Y-39981442D01*
X91642383Y-39929667D01*
X91653315Y-39874706D01*
X91669577Y-39821099D01*
X91675068Y-39765347D01*
X91686000Y-39710388D01*
X91686000Y-39654352D01*
X91691491Y-39598600D01*
X91686000Y-39542848D01*
X91686000Y-39486812D01*
X91675068Y-39431853D01*
X91669577Y-39376101D01*
X91653315Y-39322494D01*
X91642383Y-39267533D01*
X91620937Y-39215758D01*
X91604676Y-39162153D01*
X91578269Y-39112749D01*
X91556824Y-39060976D01*
X91525693Y-39014386D01*
X91499284Y-38964977D01*
X91463741Y-38921668D01*
X91432612Y-38875080D01*
X91392991Y-38835459D01*
X91357449Y-38792151D01*
X91314141Y-38756609D01*
X91274520Y-38716988D01*
X91227932Y-38685859D01*
X91184623Y-38650316D01*
X91135214Y-38623907D01*
X91088624Y-38592776D01*
X91036851Y-38571331D01*
X90987447Y-38544924D01*
X90933842Y-38528663D01*
X90882067Y-38507217D01*
X90827106Y-38496285D01*
X90773499Y-38480023D01*
X90717747Y-38474532D01*
X90662788Y-38463600D01*
X43921551Y-38463600D01*
X43865800Y-38458109D01*
X43810048Y-38463600D01*
X43754012Y-38463600D01*
X43699053Y-38474532D01*
X43643301Y-38480023D01*
X43589694Y-38496285D01*
X43534733Y-38507217D01*
X43482958Y-38528663D01*
X43429353Y-38544924D01*
X43379949Y-38571331D01*
X43328176Y-38592776D01*
X43281586Y-38623907D01*
X43232177Y-38650316D01*
X43188868Y-38685859D01*
X43142280Y-38716988D01*
X43102659Y-38756609D01*
X43059351Y-38792151D01*
X43023808Y-38835460D01*
X42758788Y-39100480D01*
X42758788Y-27810491D01*
X43109924Y-27810491D01*
X43154575Y-27957700D01*
X43279759Y-28220521D01*
X43453812Y-28453870D01*
X43670045Y-28648779D01*
X43920148Y-28797758D01*
X44194509Y-28895082D01*
X44424400Y-28774415D01*
X44424400Y-27580601D01*
X44678400Y-27580601D01*
X44678400Y-28774415D01*
X44908291Y-28895082D01*
X45182652Y-28797758D01*
X45432755Y-28648779D01*
X45648988Y-28453870D01*
X45823041Y-28220521D01*
X45948225Y-27957700D01*
X45992876Y-27810491D01*
X45871555Y-27580601D01*
X44678400Y-27580601D01*
X44424400Y-27580601D01*
X43231245Y-27580601D01*
X43109924Y-27810491D01*
X42758788Y-27810491D01*
X42758788Y-25232562D01*
X42928902Y-25303026D01*
X43122426Y-25341520D01*
X43123468Y-25346759D01*
X43235410Y-25617012D01*
X43397925Y-25860233D01*
X43604768Y-26067076D01*
X43786934Y-26188796D01*
X43670045Y-26258423D01*
X43453812Y-26453332D01*
X43279759Y-26686681D01*
X43154575Y-26949502D01*
X43109924Y-27096711D01*
X43231245Y-27326601D01*
X44424400Y-27326601D01*
X44424400Y-27306601D01*
X44678400Y-27306601D01*
X44678400Y-27326601D01*
X45871555Y-27326601D01*
X45992876Y-27096711D01*
X45948225Y-26949502D01*
X45823041Y-26686681D01*
X45648988Y-26453332D01*
X45432755Y-26258423D01*
X45315866Y-26188796D01*
X45498032Y-26067076D01*
X45704875Y-25860233D01*
X45852796Y-25638854D01*
X46024461Y-25673000D01*
X46091403Y-25673000D01*
X46091402Y-34280549D01*
X45718352Y-34653600D01*
X45652432Y-34653600D01*
X45433153Y-34697217D01*
X45226596Y-34782776D01*
X45040700Y-34906988D01*
X44882608Y-35065080D01*
X44758396Y-35250976D01*
X44672837Y-35457533D01*
X44629220Y-35676812D01*
X44629220Y-35900388D01*
X44672837Y-36119667D01*
X44758396Y-36326224D01*
X44882608Y-36512120D01*
X45040700Y-36670212D01*
X45226596Y-36794424D01*
X45433153Y-36879983D01*
X45652432Y-36923600D01*
X45876008Y-36923600D01*
X46095287Y-36879983D01*
X46301844Y-36794424D01*
X46487740Y-36670212D01*
X46645832Y-36512120D01*
X46697964Y-36434098D01*
X46840712Y-36576846D01*
X47026608Y-36701058D01*
X47233165Y-36786617D01*
X47452444Y-36830234D01*
X47676020Y-36830234D01*
X47895299Y-36786617D01*
X48101856Y-36701058D01*
X48287752Y-36576846D01*
X48445844Y-36418754D01*
X48566754Y-36237800D01*
X48727388Y-36237800D01*
X48946667Y-36194183D01*
X49153224Y-36108624D01*
X49339120Y-35984412D01*
X49497212Y-35826320D01*
X49621424Y-35640424D01*
X49706983Y-35433867D01*
X49750600Y-35214588D01*
X49750600Y-35184563D01*
X49851087Y-35154081D01*
X49996146Y-35076545D01*
X50109238Y-34983733D01*
X50248896Y-35077049D01*
X50455453Y-35162608D01*
X50674732Y-35206225D01*
X50898308Y-35206225D01*
X51117587Y-35162608D01*
X51324144Y-35077049D01*
X51510040Y-34952837D01*
X51668132Y-34794745D01*
X51792344Y-34608849D01*
X51877903Y-34402292D01*
X51921520Y-34183013D01*
X51921520Y-33959437D01*
X51877903Y-33740158D01*
X51792344Y-33533601D01*
X51668132Y-33347705D01*
X51510040Y-33189613D01*
X51324144Y-33065401D01*
X51117587Y-32979842D01*
X51066398Y-32969660D01*
X51066398Y-28874469D01*
X51124508Y-28895082D01*
X51354399Y-28774415D01*
X51354399Y-27580601D01*
X51608399Y-27580601D01*
X51608399Y-28774415D01*
X51838290Y-28895082D01*
X52112651Y-28797758D01*
X52362754Y-28648779D01*
X52578987Y-28453870D01*
X52753040Y-28220521D01*
X52878224Y-27957700D01*
X52922875Y-27810491D01*
X56978524Y-27810491D01*
X57023175Y-27957700D01*
X57148359Y-28220521D01*
X57322412Y-28453870D01*
X57538645Y-28648779D01*
X57788748Y-28797758D01*
X58063109Y-28895082D01*
X58293000Y-28774415D01*
X58293000Y-27580601D01*
X57099845Y-27580601D01*
X56978524Y-27810491D01*
X52922875Y-27810491D01*
X52801554Y-27580601D01*
X51608399Y-27580601D01*
X51354399Y-27580601D01*
X51334399Y-27580601D01*
X51334399Y-27326601D01*
X51354399Y-27326601D01*
X51354399Y-27306601D01*
X51608399Y-27306601D01*
X51608399Y-27326601D01*
X52801554Y-27326601D01*
X52922875Y-27096711D01*
X52878224Y-26949502D01*
X52753040Y-26686681D01*
X52578987Y-26453332D01*
X52362754Y-26258423D01*
X52245865Y-26188796D01*
X52428031Y-26067076D01*
X52634874Y-25860233D01*
X52797389Y-25617012D01*
X52909331Y-25346759D01*
X52966399Y-25059861D01*
X52966399Y-24767341D01*
X52909331Y-24480443D01*
X52797389Y-24210190D01*
X52634874Y-23966969D01*
X52428031Y-23760126D01*
X52253639Y-23643601D01*
X52428031Y-23527076D01*
X52634874Y-23320233D01*
X52797389Y-23077012D01*
X52909331Y-22806759D01*
X52966399Y-22519861D01*
X52966399Y-22227341D01*
X52909331Y-21940443D01*
X52797389Y-21670190D01*
X52634874Y-21426969D01*
X52428031Y-21220126D01*
X52253639Y-21103601D01*
X52428031Y-20987076D01*
X52634874Y-20780233D01*
X52797389Y-20537012D01*
X52909331Y-20266759D01*
X52966399Y-19979861D01*
X52966399Y-19687341D01*
X52909331Y-19400443D01*
X52797389Y-19130190D01*
X52634874Y-18886969D01*
X52503019Y-18755114D01*
X52575579Y-18733103D01*
X52685893Y-18674138D01*
X52782584Y-18594786D01*
X52861936Y-18498095D01*
X52920901Y-18387781D01*
X52957211Y-18268083D01*
X52969471Y-18143601D01*
X52969471Y-16443601D01*
X56931928Y-16443601D01*
X56931928Y-18143601D01*
X56944188Y-18268083D01*
X56980498Y-18387781D01*
X57039463Y-18498095D01*
X57118815Y-18594786D01*
X57215506Y-18674138D01*
X57325820Y-18733103D01*
X57398380Y-18755114D01*
X57266525Y-18886969D01*
X57104010Y-19130190D01*
X56992068Y-19400443D01*
X56935000Y-19687341D01*
X56935000Y-19979861D01*
X56992068Y-20266759D01*
X57104010Y-20537012D01*
X57266525Y-20780233D01*
X57473368Y-20987076D01*
X57647760Y-21103601D01*
X57473368Y-21220126D01*
X57266525Y-21426969D01*
X57104010Y-21670190D01*
X56992068Y-21940443D01*
X56935000Y-22227341D01*
X56935000Y-22519861D01*
X56992068Y-22806759D01*
X57104010Y-23077012D01*
X57266525Y-23320233D01*
X57473368Y-23527076D01*
X57647760Y-23643601D01*
X57473368Y-23760126D01*
X57266525Y-23966969D01*
X57104010Y-24210190D01*
X56992068Y-24480443D01*
X56935000Y-24767341D01*
X56935000Y-25059861D01*
X56992068Y-25346759D01*
X57104010Y-25617012D01*
X57266525Y-25860233D01*
X57473368Y-26067076D01*
X57655534Y-26188796D01*
X57538645Y-26258423D01*
X57322412Y-26453332D01*
X57148359Y-26686681D01*
X57023175Y-26949502D01*
X56978524Y-27096711D01*
X57099845Y-27326601D01*
X58293000Y-27326601D01*
X58293000Y-27306601D01*
X58547000Y-27306601D01*
X58547000Y-27326601D01*
X58567000Y-27326601D01*
X58567000Y-27580601D01*
X58547000Y-27580601D01*
X58547000Y-28774415D01*
X58776891Y-28895082D01*
X58835002Y-28874468D01*
X58835002Y-33607444D01*
X58114209Y-34328238D01*
X58048288Y-34328238D01*
X57829009Y-34371855D01*
X57622452Y-34457414D01*
X57436556Y-34581626D01*
X57278464Y-34739718D01*
X57154252Y-34925614D01*
X57068693Y-35132171D01*
X57025076Y-35351450D01*
X57025076Y-35575026D01*
X57068693Y-35794305D01*
X57154252Y-36000862D01*
X57278464Y-36186758D01*
X57436556Y-36344850D01*
X57622452Y-36469062D01*
X57829009Y-36554621D01*
X58048288Y-36598238D01*
X58271864Y-36598238D01*
X58491143Y-36554621D01*
X58697700Y-36469062D01*
X58883596Y-36344850D01*
X59041688Y-36186758D01*
X59047342Y-36178296D01*
X59078475Y-36224890D01*
X59236567Y-36382982D01*
X59422463Y-36507194D01*
X59629020Y-36592753D01*
X59848299Y-36636370D01*
X60071875Y-36636370D01*
X60291154Y-36592753D01*
X60497711Y-36507194D01*
X60613816Y-36429615D01*
X60624484Y-36436743D01*
X60831041Y-36522302D01*
X61050320Y-36565919D01*
X61273896Y-36565919D01*
X61493175Y-36522302D01*
X61699732Y-36436743D01*
X61885628Y-36312531D01*
X62043720Y-36154439D01*
X62121008Y-36038770D01*
X62144200Y-36073479D01*
X62302292Y-36231571D01*
X62488188Y-36355783D01*
X62694745Y-36441342D01*
X62914024Y-36484959D01*
X63137600Y-36484959D01*
X63356879Y-36441342D01*
X63563436Y-36355783D01*
X63749332Y-36231571D01*
X63907424Y-36073479D01*
X64031636Y-35887583D01*
X64117195Y-35681026D01*
X64154729Y-35492325D01*
X69985914Y-35492325D01*
X69985914Y-35715901D01*
X70029531Y-35935180D01*
X70115090Y-36141737D01*
X70239302Y-36327633D01*
X70397394Y-36485725D01*
X70583290Y-36609937D01*
X70789847Y-36695496D01*
X71009126Y-36739113D01*
X71232702Y-36739113D01*
X71451981Y-36695496D01*
X71658538Y-36609937D01*
X71844434Y-36485725D01*
X72002526Y-36327633D01*
X72126738Y-36141737D01*
X72135061Y-36121645D01*
X72197406Y-36183990D01*
X72383302Y-36308202D01*
X72589859Y-36393761D01*
X72809138Y-36437378D01*
X73032714Y-36437378D01*
X73088203Y-36426341D01*
X73140019Y-36503889D01*
X73298111Y-36661981D01*
X73484007Y-36786193D01*
X73690564Y-36871752D01*
X73909843Y-36915369D01*
X74133419Y-36915369D01*
X74352698Y-36871752D01*
X74559255Y-36786193D01*
X74745151Y-36661981D01*
X74903243Y-36503889D01*
X75027455Y-36317993D01*
X75113014Y-36111436D01*
X75156631Y-35892157D01*
X75156631Y-35870140D01*
X75239298Y-35993860D01*
X75397390Y-36151952D01*
X75583286Y-36276164D01*
X75789843Y-36361723D01*
X76009122Y-36405340D01*
X76232698Y-36405340D01*
X76451977Y-36361723D01*
X76658534Y-36276164D01*
X76661569Y-36274136D01*
X83035734Y-36274136D01*
X83035734Y-36497712D01*
X83079351Y-36716991D01*
X83164910Y-36923548D01*
X83289122Y-37109444D01*
X83447214Y-37267536D01*
X83633110Y-37391748D01*
X83839667Y-37477307D01*
X84058946Y-37520924D01*
X84282522Y-37520924D01*
X84501801Y-37477307D01*
X84708358Y-37391748D01*
X84894254Y-37267536D01*
X85052346Y-37109444D01*
X85176558Y-36923548D01*
X85262117Y-36716991D01*
X85275624Y-36649086D01*
X85404693Y-36735327D01*
X85611250Y-36820886D01*
X85830529Y-36864503D01*
X86054105Y-36864503D01*
X86273384Y-36820886D01*
X86479941Y-36735327D01*
X86665837Y-36611115D01*
X86823929Y-36453023D01*
X86948141Y-36267127D01*
X87033700Y-36060570D01*
X87077317Y-35841291D01*
X87077317Y-35730766D01*
X87113099Y-35715945D01*
X87298995Y-35591733D01*
X87310458Y-35580270D01*
X87368721Y-35720929D01*
X87492933Y-35906825D01*
X87651025Y-36064917D01*
X87836921Y-36189129D01*
X88043478Y-36274688D01*
X88262757Y-36318305D01*
X88486333Y-36318305D01*
X88705612Y-36274688D01*
X88912169Y-36189129D01*
X89098065Y-36064917D01*
X89256157Y-35906825D01*
X89380369Y-35720929D01*
X89465928Y-35514372D01*
X89509545Y-35295093D01*
X89509545Y-35229172D01*
X91569627Y-33169091D01*
X91601491Y-33142941D01*
X91705836Y-33015796D01*
X91783372Y-32870737D01*
X91831118Y-32713339D01*
X91843200Y-32590669D01*
X91843200Y-32590659D01*
X91847239Y-32549651D01*
X91843200Y-32508643D01*
X91843200Y-28320591D01*
X91942612Y-28453870D01*
X92158845Y-28648779D01*
X92408948Y-28797758D01*
X92683309Y-28895082D01*
X92913200Y-28774415D01*
X92913200Y-27580601D01*
X92893200Y-27580601D01*
X92893200Y-27326601D01*
X92913200Y-27326601D01*
X92913200Y-27306601D01*
X93167200Y-27306601D01*
X93167200Y-27326601D01*
X93187200Y-27326601D01*
X93187200Y-27580601D01*
X93167200Y-27580601D01*
X93167200Y-28774415D01*
X93397091Y-28895082D01*
X93627600Y-28813313D01*
X93627601Y-33494467D01*
X93555588Y-33566480D01*
X93431376Y-33752376D01*
X93345817Y-33958933D01*
X93302200Y-34178212D01*
X93302200Y-34401788D01*
X93345817Y-34621067D01*
X93431376Y-34827624D01*
X93555588Y-35013520D01*
X93713680Y-35171612D01*
X93899576Y-35295824D01*
X94106133Y-35381383D01*
X94325412Y-35425000D01*
X94548988Y-35425000D01*
X94768267Y-35381383D01*
X94974824Y-35295824D01*
X95160720Y-35171612D01*
X95318812Y-35013520D01*
X95443024Y-34827624D01*
X95528583Y-34621067D01*
X95572200Y-34401788D01*
X95572200Y-34178212D01*
X95528583Y-33958933D01*
X95443024Y-33752376D01*
X95318812Y-33566480D01*
X95297600Y-33545268D01*
X95297600Y-26377008D01*
X95301639Y-26336000D01*
X95297600Y-26294992D01*
X95297600Y-26294982D01*
X95285518Y-26172312D01*
X95237772Y-26014914D01*
X95160236Y-25869855D01*
X95055891Y-25742710D01*
X95024028Y-25716561D01*
X94499007Y-25191541D01*
X94525200Y-25059861D01*
X94525200Y-24767341D01*
X94468132Y-24480443D01*
X94356190Y-24210190D01*
X94193675Y-23966969D01*
X93986832Y-23760126D01*
X93812440Y-23643601D01*
X93986832Y-23527076D01*
X94193675Y-23320233D01*
X94356190Y-23077012D01*
X94468132Y-22806759D01*
X94525200Y-22519861D01*
X94525200Y-22227341D01*
X94468132Y-21940443D01*
X94356190Y-21670190D01*
X94193675Y-21426969D01*
X93986832Y-21220126D01*
X93812440Y-21103601D01*
X93986832Y-20987076D01*
X94193675Y-20780233D01*
X94356190Y-20537012D01*
X94468132Y-20266759D01*
X94525200Y-19979861D01*
X94525200Y-19687341D01*
X94468132Y-19400443D01*
X94356190Y-19130190D01*
X94193675Y-18886969D01*
X94061820Y-18755114D01*
X94134380Y-18733103D01*
X94244694Y-18674138D01*
X94341385Y-18594786D01*
X94420737Y-18498095D01*
X94479702Y-18387781D01*
X94516012Y-18268083D01*
X94528272Y-18143601D01*
X94528272Y-16443601D01*
X94516012Y-16319119D01*
X94479702Y-16199421D01*
X94420737Y-16089107D01*
X94341385Y-15992416D01*
X94244694Y-15913064D01*
X94134380Y-15854099D01*
X94014682Y-15817789D01*
X93890200Y-15805529D01*
X92190200Y-15805529D01*
X92065718Y-15817789D01*
X91946020Y-15854099D01*
X91835706Y-15913064D01*
X91739015Y-15992416D01*
X91659663Y-16089107D01*
X91600698Y-16199421D01*
X91564388Y-16319119D01*
X91552128Y-16443601D01*
X91552128Y-16493247D01*
X91469113Y-16518429D01*
X91324054Y-16595965D01*
X91196909Y-16700310D01*
X91170763Y-16732169D01*
X89760978Y-18141955D01*
X89729109Y-18168110D01*
X89673930Y-18235347D01*
X89624764Y-18295256D01*
X89547228Y-18440315D01*
X89499482Y-18597713D01*
X89483360Y-18761401D01*
X89487400Y-18802420D01*
X89487401Y-30617326D01*
X88998400Y-31106327D01*
X88998400Y-18167419D01*
X89002440Y-18126400D01*
X88986318Y-17962712D01*
X88938572Y-17805314D01*
X88861036Y-17660255D01*
X88823639Y-17614687D01*
X88756691Y-17533110D01*
X88724827Y-17506961D01*
X87950046Y-16732180D01*
X87923891Y-16700310D01*
X87796746Y-16595965D01*
X87651687Y-16518429D01*
X87568672Y-16493247D01*
X87568672Y-16443601D01*
X87556412Y-16319119D01*
X87520102Y-16199421D01*
X87461137Y-16089107D01*
X87381785Y-15992416D01*
X87285094Y-15913064D01*
X87174780Y-15854099D01*
X87055082Y-15817789D01*
X86930600Y-15805529D01*
X85230600Y-15805529D01*
X85106118Y-15817789D01*
X84986420Y-15854099D01*
X84876106Y-15913064D01*
X84779415Y-15992416D01*
X84700063Y-16089107D01*
X84641098Y-16199421D01*
X84604788Y-16319119D01*
X84592528Y-16443601D01*
X84592528Y-18143601D01*
X84604788Y-18268083D01*
X84641098Y-18387781D01*
X84700063Y-18498095D01*
X84779415Y-18594786D01*
X84876106Y-18674138D01*
X84986420Y-18733103D01*
X85058980Y-18755114D01*
X84927125Y-18886969D01*
X84764610Y-19130190D01*
X84652668Y-19400443D01*
X84595600Y-19687341D01*
X84595600Y-19979861D01*
X84652668Y-20266759D01*
X84764610Y-20537012D01*
X84927125Y-20780233D01*
X85133968Y-20987076D01*
X85308360Y-21103601D01*
X85133968Y-21220126D01*
X84927125Y-21426969D01*
X84764610Y-21670190D01*
X84652668Y-21940443D01*
X84595600Y-22227341D01*
X84595600Y-22519861D01*
X84652668Y-22806759D01*
X84764610Y-23077012D01*
X84927125Y-23320233D01*
X85133968Y-23527076D01*
X85308360Y-23643601D01*
X85133968Y-23760126D01*
X84927125Y-23966969D01*
X84764610Y-24210190D01*
X84652668Y-24480443D01*
X84595600Y-24767341D01*
X84595600Y-25059861D01*
X84652668Y-25346759D01*
X84764610Y-25617012D01*
X84927125Y-25860233D01*
X85133968Y-26067076D01*
X85316134Y-26188796D01*
X85199245Y-26258423D01*
X84983012Y-26453332D01*
X84808959Y-26686681D01*
X84683775Y-26949502D01*
X84639124Y-27096711D01*
X84760445Y-27326601D01*
X85953600Y-27326601D01*
X85953600Y-27306601D01*
X86207600Y-27306601D01*
X86207600Y-27326601D01*
X86227600Y-27326601D01*
X86227600Y-27580601D01*
X86207600Y-27580601D01*
X86207600Y-28774415D01*
X86437491Y-28895082D01*
X86495602Y-28874468D01*
X86495602Y-31271729D01*
X83609313Y-34158020D01*
X83577443Y-34184175D01*
X83473099Y-34311320D01*
X83473098Y-34311321D01*
X83395562Y-34456380D01*
X83347816Y-34613778D01*
X83331694Y-34777466D01*
X83335734Y-34818485D01*
X83335735Y-35615791D01*
X83289122Y-35662404D01*
X83164910Y-35848300D01*
X83079351Y-36054857D01*
X83035734Y-36274136D01*
X76661569Y-36274136D01*
X76844430Y-36151952D01*
X77002522Y-35993860D01*
X77126734Y-35807964D01*
X77212293Y-35601407D01*
X77255910Y-35382128D01*
X77255910Y-35316207D01*
X78007820Y-34564299D01*
X78039679Y-34538153D01*
X78073376Y-34497094D01*
X78144024Y-34411008D01*
X78221560Y-34265949D01*
X78236360Y-34217161D01*
X78269306Y-34108551D01*
X78281388Y-33985881D01*
X78281388Y-33985880D01*
X78285428Y-33944862D01*
X78281388Y-33903844D01*
X78281388Y-28658514D01*
X78515148Y-28797758D01*
X78789509Y-28895082D01*
X79019400Y-28774415D01*
X79019400Y-27580601D01*
X79273400Y-27580601D01*
X79273400Y-28774415D01*
X79503291Y-28895082D01*
X79777652Y-28797758D01*
X80027755Y-28648779D01*
X80243988Y-28453870D01*
X80418041Y-28220521D01*
X80543225Y-27957700D01*
X80587876Y-27810491D01*
X84639124Y-27810491D01*
X84683775Y-27957700D01*
X84808959Y-28220521D01*
X84983012Y-28453870D01*
X85199245Y-28648779D01*
X85449348Y-28797758D01*
X85723709Y-28895082D01*
X85953600Y-28774415D01*
X85953600Y-27580601D01*
X84760445Y-27580601D01*
X84639124Y-27810491D01*
X80587876Y-27810491D01*
X80466555Y-27580601D01*
X79273400Y-27580601D01*
X79019400Y-27580601D01*
X78999400Y-27580601D01*
X78999400Y-27326601D01*
X79019400Y-27326601D01*
X79019400Y-27306601D01*
X79273400Y-27306601D01*
X79273400Y-27326601D01*
X80466555Y-27326601D01*
X80587876Y-27096711D01*
X80543225Y-26949502D01*
X80418041Y-26686681D01*
X80243988Y-26453332D01*
X80027755Y-26258423D01*
X79910866Y-26188796D01*
X80093032Y-26067076D01*
X80299875Y-25860233D01*
X80462390Y-25617012D01*
X80574332Y-25346759D01*
X80631400Y-25059861D01*
X80631400Y-24767341D01*
X80574332Y-24480443D01*
X80462390Y-24210190D01*
X80299875Y-23966969D01*
X80093032Y-23760126D01*
X79918640Y-23643601D01*
X80093032Y-23527076D01*
X80299875Y-23320233D01*
X80462390Y-23077012D01*
X80574332Y-22806759D01*
X80631400Y-22519861D01*
X80631400Y-22227341D01*
X80574332Y-21940443D01*
X80462390Y-21670190D01*
X80299875Y-21426969D01*
X80093032Y-21220126D01*
X79918640Y-21103601D01*
X80093032Y-20987076D01*
X80299875Y-20780233D01*
X80462390Y-20537012D01*
X80574332Y-20266759D01*
X80631400Y-19979861D01*
X80631400Y-19687341D01*
X80574332Y-19400443D01*
X80462390Y-19130190D01*
X80299875Y-18886969D01*
X80168020Y-18755114D01*
X80240580Y-18733103D01*
X80350894Y-18674138D01*
X80447585Y-18594786D01*
X80526937Y-18498095D01*
X80585902Y-18387781D01*
X80622212Y-18268083D01*
X80634472Y-18143601D01*
X80634472Y-16443601D01*
X80622212Y-16319119D01*
X80585902Y-16199421D01*
X80526937Y-16089107D01*
X80447585Y-15992416D01*
X80350894Y-15913064D01*
X80240580Y-15854099D01*
X80120882Y-15817789D01*
X79996400Y-15805529D01*
X78296400Y-15805529D01*
X78171918Y-15817789D01*
X78052220Y-15854099D01*
X77941906Y-15913064D01*
X77845215Y-15992416D01*
X77765863Y-16089107D01*
X77706898Y-16199421D01*
X77670588Y-16319119D01*
X77658328Y-16443601D01*
X77658328Y-16493247D01*
X77575313Y-16518429D01*
X77430254Y-16595965D01*
X77303109Y-16700310D01*
X77276958Y-16732175D01*
X76425979Y-17583155D01*
X76394109Y-17609310D01*
X76305408Y-17717394D01*
X76289764Y-17736456D01*
X76212228Y-17881515D01*
X76164482Y-18038913D01*
X76148360Y-18202601D01*
X76152400Y-18243620D01*
X76152401Y-23412997D01*
X76148741Y-23417457D01*
X76071205Y-23562516D01*
X76023459Y-23719914D01*
X76007337Y-23883602D01*
X76011377Y-23924621D01*
X76011378Y-32609753D01*
X75180800Y-33440332D01*
X75180800Y-18192819D01*
X75184840Y-18151800D01*
X75168718Y-17988112D01*
X75120972Y-17830714D01*
X75043436Y-17685655D01*
X75033800Y-17673913D01*
X74939091Y-17558510D01*
X74907227Y-17532361D01*
X74107046Y-16732180D01*
X74080891Y-16700310D01*
X73953746Y-16595965D01*
X73808687Y-16518429D01*
X73725672Y-16493247D01*
X73725672Y-16443601D01*
X73713412Y-16319119D01*
X73677102Y-16199421D01*
X73618137Y-16089107D01*
X73538785Y-15992416D01*
X73442094Y-15913064D01*
X73331780Y-15854099D01*
X73212082Y-15817789D01*
X73087600Y-15805529D01*
X71387600Y-15805529D01*
X71263118Y-15817789D01*
X71143420Y-15854099D01*
X71033106Y-15913064D01*
X70936415Y-15992416D01*
X70857063Y-16089107D01*
X70798098Y-16199421D01*
X70761788Y-16319119D01*
X70749528Y-16443601D01*
X70749528Y-18143601D01*
X70761788Y-18268083D01*
X70798098Y-18387781D01*
X70857063Y-18498095D01*
X70936415Y-18594786D01*
X71033106Y-18674138D01*
X71143420Y-18733103D01*
X71215980Y-18755114D01*
X71084125Y-18886969D01*
X70921610Y-19130190D01*
X70809668Y-19400443D01*
X70752600Y-19687341D01*
X70752600Y-19979861D01*
X70809668Y-20266759D01*
X70921610Y-20537012D01*
X71084125Y-20780233D01*
X71290968Y-20987076D01*
X71465360Y-21103601D01*
X71290968Y-21220126D01*
X71084125Y-21426969D01*
X70921610Y-21670190D01*
X70809668Y-21940443D01*
X70752600Y-22227341D01*
X70752600Y-22519861D01*
X70809668Y-22806759D01*
X70921610Y-23077012D01*
X71084125Y-23320233D01*
X71290968Y-23527076D01*
X71465360Y-23643601D01*
X71290968Y-23760126D01*
X71084125Y-23966969D01*
X70921610Y-24210190D01*
X70809668Y-24480443D01*
X70752600Y-24767341D01*
X70752600Y-25059861D01*
X70809668Y-25346759D01*
X70921610Y-25617012D01*
X71084125Y-25860233D01*
X71290968Y-26067076D01*
X71473134Y-26188796D01*
X71356245Y-26258423D01*
X71140012Y-26453332D01*
X70965959Y-26686681D01*
X70840775Y-26949502D01*
X70796124Y-27096711D01*
X70917445Y-27326601D01*
X72110600Y-27326601D01*
X72110600Y-27306601D01*
X72364600Y-27306601D01*
X72364600Y-27326601D01*
X72384600Y-27326601D01*
X72384600Y-27580601D01*
X72364600Y-27580601D01*
X72364600Y-28774415D01*
X72594491Y-28895082D01*
X72868852Y-28797758D01*
X72910790Y-28772777D01*
X72910790Y-32633369D01*
X71075047Y-34469113D01*
X71009126Y-34469113D01*
X70789847Y-34512730D01*
X70583290Y-34598289D01*
X70397394Y-34722501D01*
X70239302Y-34880593D01*
X70115090Y-35066489D01*
X70029531Y-35273046D01*
X69985914Y-35492325D01*
X64154729Y-35492325D01*
X64160812Y-35461747D01*
X64160812Y-35395827D01*
X64407444Y-35149196D01*
X64439302Y-35123051D01*
X64477469Y-35076545D01*
X64499941Y-35049162D01*
X64543647Y-34995906D01*
X64621183Y-34850847D01*
X64668929Y-34693449D01*
X64681011Y-34570779D01*
X64681011Y-34570778D01*
X64685051Y-34529760D01*
X64681011Y-34488742D01*
X64681011Y-28800902D01*
X64946509Y-28895082D01*
X65176400Y-28774415D01*
X65176400Y-27580601D01*
X65430400Y-27580601D01*
X65430400Y-28774415D01*
X65660291Y-28895082D01*
X65934652Y-28797758D01*
X66184755Y-28648779D01*
X66400988Y-28453870D01*
X66575041Y-28220521D01*
X66700225Y-27957700D01*
X66744876Y-27810491D01*
X70796124Y-27810491D01*
X70840775Y-27957700D01*
X70965959Y-28220521D01*
X71140012Y-28453870D01*
X71356245Y-28648779D01*
X71606348Y-28797758D01*
X71880709Y-28895082D01*
X72110600Y-28774415D01*
X72110600Y-27580601D01*
X70917445Y-27580601D01*
X70796124Y-27810491D01*
X66744876Y-27810491D01*
X66623555Y-27580601D01*
X65430400Y-27580601D01*
X65176400Y-27580601D01*
X65156400Y-27580601D01*
X65156400Y-27326601D01*
X65176400Y-27326601D01*
X65176400Y-27306601D01*
X65430400Y-27306601D01*
X65430400Y-27326601D01*
X66623555Y-27326601D01*
X66744876Y-27096711D01*
X66700225Y-26949502D01*
X66575041Y-26686681D01*
X66400988Y-26453332D01*
X66184755Y-26258423D01*
X66067866Y-26188796D01*
X66250032Y-26067076D01*
X66456875Y-25860233D01*
X66619390Y-25617012D01*
X66731332Y-25346759D01*
X66788400Y-25059861D01*
X66788400Y-24767341D01*
X66731332Y-24480443D01*
X66619390Y-24210190D01*
X66456875Y-23966969D01*
X66250032Y-23760126D01*
X66075640Y-23643601D01*
X66250032Y-23527076D01*
X66456875Y-23320233D01*
X66619390Y-23077012D01*
X66731332Y-22806759D01*
X66788400Y-22519861D01*
X66788400Y-22227341D01*
X66731332Y-21940443D01*
X66619390Y-21670190D01*
X66456875Y-21426969D01*
X66250032Y-21220126D01*
X66075640Y-21103601D01*
X66250032Y-20987076D01*
X66456875Y-20780233D01*
X66619390Y-20537012D01*
X66731332Y-20266759D01*
X66788400Y-19979861D01*
X66788400Y-19687341D01*
X66731332Y-19400443D01*
X66619390Y-19130190D01*
X66456875Y-18886969D01*
X66325020Y-18755114D01*
X66397580Y-18733103D01*
X66507894Y-18674138D01*
X66604585Y-18594786D01*
X66683937Y-18498095D01*
X66742902Y-18387781D01*
X66779212Y-18268083D01*
X66791472Y-18143601D01*
X66791472Y-16443601D01*
X66779212Y-16319119D01*
X66742902Y-16199421D01*
X66683937Y-16089107D01*
X66604585Y-15992416D01*
X66507894Y-15913064D01*
X66397580Y-15854099D01*
X66277882Y-15817789D01*
X66153400Y-15805529D01*
X64453400Y-15805529D01*
X64328918Y-15817789D01*
X64209220Y-15854099D01*
X64098906Y-15913064D01*
X64002215Y-15992416D01*
X63922863Y-16089107D01*
X63863898Y-16199421D01*
X63827588Y-16319119D01*
X63815328Y-16443601D01*
X63815328Y-16493247D01*
X63732313Y-16518429D01*
X63587254Y-16595965D01*
X63460109Y-16700310D01*
X63433963Y-16732169D01*
X61160000Y-19006134D01*
X61160000Y-17989619D01*
X61164040Y-17948601D01*
X61157433Y-17881514D01*
X61147918Y-17784912D01*
X61100172Y-17627514D01*
X61022636Y-17482455D01*
X60978574Y-17428765D01*
X60944439Y-17387171D01*
X60944437Y-17387169D01*
X60918291Y-17355310D01*
X60886432Y-17329165D01*
X60289445Y-16732179D01*
X60263291Y-16700310D01*
X60136146Y-16595965D01*
X59991087Y-16518429D01*
X59908072Y-16493247D01*
X59908072Y-16443601D01*
X59895812Y-16319119D01*
X59859502Y-16199421D01*
X59800537Y-16089107D01*
X59721185Y-15992416D01*
X59624494Y-15913064D01*
X59514180Y-15854099D01*
X59394482Y-15817789D01*
X59270000Y-15805529D01*
X57570000Y-15805529D01*
X57445518Y-15817789D01*
X57325820Y-15854099D01*
X57215506Y-15913064D01*
X57118815Y-15992416D01*
X57039463Y-16089107D01*
X56980498Y-16199421D01*
X56944188Y-16319119D01*
X56931928Y-16443601D01*
X52969471Y-16443601D01*
X52957211Y-16319119D01*
X52920901Y-16199421D01*
X52861936Y-16089107D01*
X52782584Y-15992416D01*
X52685893Y-15913064D01*
X52575579Y-15854099D01*
X52455881Y-15817789D01*
X52331399Y-15805529D01*
X50631399Y-15805529D01*
X50506917Y-15817789D01*
X50387219Y-15854099D01*
X50276905Y-15913064D01*
X50180214Y-15992416D01*
X50100862Y-16089107D01*
X50041897Y-16199421D01*
X50005587Y-16319119D01*
X49993327Y-16443601D01*
X49993327Y-16493247D01*
X49910312Y-16518429D01*
X49765253Y-16595965D01*
X49638108Y-16700310D01*
X49611957Y-16732175D01*
X48968578Y-17375554D01*
X48936709Y-17401709D01*
X48851970Y-17504965D01*
X48832364Y-17528855D01*
X48754828Y-17673914D01*
X48707082Y-17831312D01*
X48690960Y-17995000D01*
X48695000Y-18036019D01*
X48695001Y-33842531D01*
X48569732Y-33967800D01*
X48503812Y-33967800D01*
X48399232Y-33988602D01*
X48399232Y-24008092D01*
X48403271Y-23967084D01*
X48399232Y-23926076D01*
X48399232Y-23926066D01*
X48387150Y-23803396D01*
X48339404Y-23645998D01*
X48261868Y-23500939D01*
X48157523Y-23373794D01*
X48125653Y-23347639D01*
X47899233Y-23121219D01*
X47899233Y-18597452D01*
X47903273Y-18556434D01*
X47887151Y-18392746D01*
X47879126Y-18366289D01*
X47839405Y-18235347D01*
X47761869Y-18090288D01*
X47657524Y-17963143D01*
X47625665Y-17936997D01*
X46420845Y-16732179D01*
X46394691Y-16700310D01*
X46267546Y-16595965D01*
X46122487Y-16518429D01*
X46039472Y-16493247D01*
X46039472Y-16443601D01*
X46027212Y-16319119D01*
X45990902Y-16199421D01*
X45931937Y-16089107D01*
X45852585Y-15992416D01*
X45755894Y-15913064D01*
X45645580Y-15854099D01*
X45525882Y-15817789D01*
X45401400Y-15805529D01*
X43701400Y-15805529D01*
X43576918Y-15817789D01*
X43457220Y-15854099D01*
X43346906Y-15913064D01*
X43250215Y-15992416D01*
X43170863Y-16089107D01*
X43111898Y-16199421D01*
X43075588Y-16319119D01*
X43063328Y-16443601D01*
X43063328Y-18143601D01*
X43075588Y-18268083D01*
X43111898Y-18387781D01*
X43170863Y-18498095D01*
X43250215Y-18594786D01*
X43346906Y-18674138D01*
X43457220Y-18733103D01*
X43529780Y-18755114D01*
X43397925Y-18886969D01*
X43235410Y-19130190D01*
X43123468Y-19400443D01*
X43066400Y-19687341D01*
X43066400Y-19979861D01*
X43123468Y-20266759D01*
X43235410Y-20537012D01*
X43397925Y-20780233D01*
X43604768Y-20987076D01*
X43779160Y-21103601D01*
X43604768Y-21220126D01*
X43405903Y-21418992D01*
X43280974Y-21294063D01*
X43111456Y-21180795D01*
X42923098Y-21102774D01*
X42723139Y-21063000D01*
X42519261Y-21063000D01*
X42319302Y-21102774D01*
X42130944Y-21180795D01*
X41961426Y-21294063D01*
X41817263Y-21438226D01*
X41703995Y-21607744D01*
X41625974Y-21796102D01*
X41586200Y-21996061D01*
X41586200Y-22058199D01*
X41487790Y-22156609D01*
X41458787Y-22180411D01*
X41420273Y-22227341D01*
X41363814Y-22296136D01*
X41316069Y-22385460D01*
X41293242Y-22428166D01*
X41249785Y-22571427D01*
X41238788Y-22683080D01*
X41238788Y-22683090D01*
X41235112Y-22720412D01*
X41238788Y-22757734D01*
X41238789Y-53165060D01*
X41191144Y-53184795D01*
X41096800Y-53247833D01*
X41096800Y-14518309D01*
X41357330Y-14778839D01*
X41985446Y-15198533D01*
X42683372Y-15487623D01*
X43424285Y-15635000D01*
X44179715Y-15635000D01*
X44920628Y-15487623D01*
X45618554Y-15198533D01*
X46246670Y-14778839D01*
X46780839Y-14244670D01*
X47200533Y-13616554D01*
X47489623Y-12918628D01*
X47637000Y-12177715D01*
X47637000Y-11422285D01*
X47489623Y-10681372D01*
X47200533Y-9983446D01*
X46780839Y-9355330D01*
X46340509Y-8915000D01*
X91263691Y-8915000D01*
X90823361Y-9355330D01*
G37*
X90823361Y-9355330D02*
X90403667Y-9983446D01*
X90114577Y-10681372D01*
X89967200Y-11422285D01*
X89967200Y-12177715D01*
X90114577Y-12918628D01*
X90403667Y-13616554D01*
X90823361Y-14244670D01*
X91357530Y-14778839D01*
X91985646Y-15198533D01*
X92683572Y-15487623D01*
X93424485Y-15635000D01*
X94179915Y-15635000D01*
X94920828Y-15487623D01*
X95618754Y-15198533D01*
X96246870Y-14778839D01*
X96545801Y-14479908D01*
X96545800Y-68120091D01*
X96246870Y-67821161D01*
X95618754Y-67401467D01*
X94920828Y-67112377D01*
X94179915Y-66965000D01*
X93424485Y-66965000D01*
X92683572Y-67112377D01*
X91985646Y-67401467D01*
X91357530Y-67821161D01*
X90823361Y-68355330D01*
X90403667Y-68983446D01*
X90114577Y-69681372D01*
X89967200Y-70422285D01*
X89967200Y-71177715D01*
X90114577Y-71918628D01*
X90403667Y-72616554D01*
X90823361Y-73244670D01*
X91357530Y-73778839D01*
X91864521Y-74117600D01*
X45739679Y-74117600D01*
X46246670Y-73778839D01*
X46780839Y-73244670D01*
X46783959Y-73240000D01*
X48270528Y-73240000D01*
X48282788Y-73364482D01*
X48319098Y-73484180D01*
X48378063Y-73594494D01*
X48457415Y-73691185D01*
X48554106Y-73770537D01*
X48664420Y-73829502D01*
X48784118Y-73865812D01*
X48908600Y-73878072D01*
X49472850Y-73875000D01*
X49631600Y-73716250D01*
X49631600Y-72517000D01*
X48432350Y-72517000D01*
X48273600Y-72675750D01*
X48270528Y-73240000D01*
X46783959Y-73240000D01*
X47200533Y-72616554D01*
X47489623Y-71918628D01*
X47564936Y-71540000D01*
X48270528Y-71540000D01*
X48273600Y-72104250D01*
X48432350Y-72263000D01*
X49631600Y-72263000D01*
X49631600Y-71063750D01*
X49885600Y-71063750D01*
X49885600Y-72263000D01*
X49905600Y-72263000D01*
X49905600Y-72517000D01*
X49885600Y-72517000D01*
X49885600Y-73716250D01*
X50044350Y-73875000D01*
X50608600Y-73878072D01*
X50733082Y-73865812D01*
X50852780Y-73829502D01*
X50963094Y-73770537D01*
X51059785Y-73691185D01*
X51139137Y-73594494D01*
X51198102Y-73484180D01*
X51220113Y-73411620D01*
X51351968Y-73543475D01*
X51595189Y-73705990D01*
X51865442Y-73817932D01*
X52152340Y-73875000D01*
X52444860Y-73875000D01*
X52731758Y-73817932D01*
X53002011Y-73705990D01*
X53245232Y-73543475D01*
X53452075Y-73336632D01*
X53568600Y-73162240D01*
X53685125Y-73336632D01*
X53891968Y-73543475D01*
X54135189Y-73705990D01*
X54405442Y-73817932D01*
X54692340Y-73875000D01*
X54984860Y-73875000D01*
X55271758Y-73817932D01*
X55542011Y-73705990D01*
X55785232Y-73543475D01*
X55992075Y-73336632D01*
X56108600Y-73162240D01*
X56225125Y-73336632D01*
X56431968Y-73543475D01*
X56675189Y-73705990D01*
X56945442Y-73817932D01*
X57232340Y-73875000D01*
X57524860Y-73875000D01*
X57811758Y-73817932D01*
X58082011Y-73705990D01*
X58325232Y-73543475D01*
X58532075Y-73336632D01*
X58648600Y-73162240D01*
X58765125Y-73336632D01*
X58971968Y-73543475D01*
X59215189Y-73705990D01*
X59485442Y-73817932D01*
X59772340Y-73875000D01*
X60064860Y-73875000D01*
X60351758Y-73817932D01*
X60622011Y-73705990D01*
X60865232Y-73543475D01*
X61072075Y-73336632D01*
X61188600Y-73162240D01*
X61305125Y-73336632D01*
X61511968Y-73543475D01*
X61755189Y-73705990D01*
X62025442Y-73817932D01*
X62312340Y-73875000D01*
X62604860Y-73875000D01*
X62891758Y-73817932D01*
X63162011Y-73705990D01*
X63405232Y-73543475D01*
X63612075Y-73336632D01*
X63728600Y-73162240D01*
X63845125Y-73336632D01*
X64051968Y-73543475D01*
X64295189Y-73705990D01*
X64565442Y-73817932D01*
X64852340Y-73875000D01*
X65144860Y-73875000D01*
X65431758Y-73817932D01*
X65702011Y-73705990D01*
X65945232Y-73543475D01*
X66152075Y-73336632D01*
X66314590Y-73093411D01*
X66426532Y-72823158D01*
X66483600Y-72536260D01*
X66483600Y-72243740D01*
X66426532Y-71956842D01*
X66406633Y-71908800D01*
X68219928Y-71908800D01*
X68232188Y-72033282D01*
X68268498Y-72152980D01*
X68327463Y-72263294D01*
X68406815Y-72359985D01*
X68503506Y-72439337D01*
X68613820Y-72498302D01*
X68733518Y-72534612D01*
X68858000Y-72546872D01*
X70072250Y-72543800D01*
X70231000Y-72385050D01*
X70231000Y-70535800D01*
X70485000Y-70535800D01*
X70485000Y-72385050D01*
X70643750Y-72543800D01*
X71858000Y-72546872D01*
X71982482Y-72534612D01*
X72102180Y-72498302D01*
X72212494Y-72439337D01*
X72309185Y-72359985D01*
X72388537Y-72263294D01*
X72447502Y-72152980D01*
X72483812Y-72033282D01*
X72496072Y-71908800D01*
X72493000Y-70694550D01*
X72334250Y-70535800D01*
X70485000Y-70535800D01*
X70231000Y-70535800D01*
X68381750Y-70535800D01*
X68223000Y-70694550D01*
X68219928Y-71908800D01*
X66406633Y-71908800D01*
X66314590Y-71686589D01*
X66152075Y-71443368D01*
X65945232Y-71236525D01*
X65702011Y-71074010D01*
X65431758Y-70962068D01*
X65144860Y-70905000D01*
X64852340Y-70905000D01*
X64565442Y-70962068D01*
X64295189Y-71074010D01*
X64051968Y-71236525D01*
X63845125Y-71443368D01*
X63728600Y-71617760D01*
X63612075Y-71443368D01*
X63405232Y-71236525D01*
X63162011Y-71074010D01*
X62891758Y-70962068D01*
X62604860Y-70905000D01*
X62312340Y-70905000D01*
X62025442Y-70962068D01*
X61755189Y-71074010D01*
X61511968Y-71236525D01*
X61305125Y-71443368D01*
X61188600Y-71617760D01*
X61072075Y-71443368D01*
X60865232Y-71236525D01*
X60622011Y-71074010D01*
X60351758Y-70962068D01*
X60064860Y-70905000D01*
X59772340Y-70905000D01*
X59485442Y-70962068D01*
X59215189Y-71074010D01*
X58971968Y-71236525D01*
X58765125Y-71443368D01*
X58648600Y-71617760D01*
X58532075Y-71443368D01*
X58325232Y-71236525D01*
X58082011Y-71074010D01*
X57811758Y-70962068D01*
X57524860Y-70905000D01*
X57232340Y-70905000D01*
X56945442Y-70962068D01*
X56675189Y-71074010D01*
X56431968Y-71236525D01*
X56225125Y-71443368D01*
X56108600Y-71617760D01*
X55992075Y-71443368D01*
X55785232Y-71236525D01*
X55542011Y-71074010D01*
X55271758Y-70962068D01*
X54984860Y-70905000D01*
X54692340Y-70905000D01*
X54405442Y-70962068D01*
X54135189Y-71074010D01*
X53891968Y-71236525D01*
X53685125Y-71443368D01*
X53568600Y-71617760D01*
X53452075Y-71443368D01*
X53245232Y-71236525D01*
X53002011Y-71074010D01*
X52731758Y-70962068D01*
X52444860Y-70905000D01*
X52152340Y-70905000D01*
X51865442Y-70962068D01*
X51595189Y-71074010D01*
X51351968Y-71236525D01*
X51220113Y-71368380D01*
X51198102Y-71295820D01*
X51139137Y-71185506D01*
X51059785Y-71088815D01*
X50963094Y-71009463D01*
X50852780Y-70950498D01*
X50733082Y-70914188D01*
X50608600Y-70901928D01*
X50044350Y-70905000D01*
X49885600Y-71063750D01*
X49631600Y-71063750D01*
X49472850Y-70905000D01*
X48908600Y-70901928D01*
X48784118Y-70914188D01*
X48664420Y-70950498D01*
X48554106Y-71009463D01*
X48457415Y-71088815D01*
X48378063Y-71185506D01*
X48319098Y-71295820D01*
X48282788Y-71415518D01*
X48270528Y-71540000D01*
X47564936Y-71540000D01*
X47637000Y-71177715D01*
X47637000Y-70422285D01*
X47489623Y-69681372D01*
X47438107Y-69557000D01*
X48270528Y-69557000D01*
X48282788Y-69681482D01*
X48319098Y-69801180D01*
X48378063Y-69911494D01*
X48457415Y-70008185D01*
X48554106Y-70087537D01*
X48664420Y-70146502D01*
X48784118Y-70182812D01*
X48908600Y-70195072D01*
X49472850Y-70192000D01*
X49631600Y-70033250D01*
X49631600Y-68834000D01*
X48432350Y-68834000D01*
X48273600Y-68992750D01*
X48270528Y-69557000D01*
X47438107Y-69557000D01*
X47200533Y-68983446D01*
X46780839Y-68355330D01*
X46282509Y-67857000D01*
X48270528Y-67857000D01*
X48273600Y-68421250D01*
X48432350Y-68580000D01*
X49631600Y-68580000D01*
X49631600Y-67380750D01*
X49885600Y-67380750D01*
X49885600Y-68580000D01*
X49905600Y-68580000D01*
X49905600Y-68834000D01*
X49885600Y-68834000D01*
X49885600Y-70033250D01*
X50044350Y-70192000D01*
X50608600Y-70195072D01*
X50733082Y-70182812D01*
X50852780Y-70146502D01*
X50963094Y-70087537D01*
X51059785Y-70008185D01*
X51139137Y-69911494D01*
X51198102Y-69801180D01*
X51220113Y-69728620D01*
X51351968Y-69860475D01*
X51595189Y-70022990D01*
X51865442Y-70134932D01*
X52152340Y-70192000D01*
X52444860Y-70192000D01*
X52731758Y-70134932D01*
X53002011Y-70022990D01*
X53245232Y-69860475D01*
X53452075Y-69653632D01*
X53568600Y-69479240D01*
X53685125Y-69653632D01*
X53891968Y-69860475D01*
X54135189Y-70022990D01*
X54405442Y-70134932D01*
X54692340Y-70192000D01*
X54984860Y-70192000D01*
X55271758Y-70134932D01*
X55542011Y-70022990D01*
X55785232Y-69860475D01*
X55992075Y-69653632D01*
X56108600Y-69479240D01*
X56225125Y-69653632D01*
X56431968Y-69860475D01*
X56675189Y-70022990D01*
X56945442Y-70134932D01*
X57232340Y-70192000D01*
X57524860Y-70192000D01*
X57811758Y-70134932D01*
X58082011Y-70022990D01*
X58325232Y-69860475D01*
X58532075Y-69653632D01*
X58648600Y-69479240D01*
X58765125Y-69653632D01*
X58971968Y-69860475D01*
X59215189Y-70022990D01*
X59485442Y-70134932D01*
X59772340Y-70192000D01*
X60064860Y-70192000D01*
X60351758Y-70134932D01*
X60622011Y-70022990D01*
X60865232Y-69860475D01*
X61072075Y-69653632D01*
X61188600Y-69479240D01*
X61305125Y-69653632D01*
X61511968Y-69860475D01*
X61755189Y-70022990D01*
X62025442Y-70134932D01*
X62312340Y-70192000D01*
X62604860Y-70192000D01*
X62891758Y-70134932D01*
X63162011Y-70022990D01*
X63405232Y-69860475D01*
X63612075Y-69653632D01*
X63728600Y-69479240D01*
X63845125Y-69653632D01*
X64051968Y-69860475D01*
X64295189Y-70022990D01*
X64565442Y-70134932D01*
X64852340Y-70192000D01*
X65144860Y-70192000D01*
X65431758Y-70134932D01*
X65702011Y-70022990D01*
X65945232Y-69860475D01*
X66152075Y-69653632D01*
X66314590Y-69410411D01*
X66426532Y-69140158D01*
X66472552Y-68908800D01*
X68219928Y-68908800D01*
X68223000Y-70123050D01*
X68381750Y-70281800D01*
X70231000Y-70281800D01*
X70231000Y-68432550D01*
X70072250Y-68273800D01*
X68858000Y-68270728D01*
X68733518Y-68282988D01*
X68613820Y-68319298D01*
X68503506Y-68378263D01*
X68406815Y-68457615D01*
X68327463Y-68554306D01*
X68268498Y-68664620D01*
X68232188Y-68784318D01*
X68219928Y-68908800D01*
X66472552Y-68908800D01*
X66483600Y-68853260D01*
X66483600Y-68560740D01*
X66426532Y-68273842D01*
X66314590Y-68003589D01*
X66152075Y-67760368D01*
X65945232Y-67553525D01*
X65702011Y-67391010D01*
X65431758Y-67279068D01*
X65144860Y-67222000D01*
X64852340Y-67222000D01*
X64565442Y-67279068D01*
X64295189Y-67391010D01*
X64051968Y-67553525D01*
X63845125Y-67760368D01*
X63728600Y-67934760D01*
X63612075Y-67760368D01*
X63405232Y-67553525D01*
X63162011Y-67391010D01*
X62891758Y-67279068D01*
X62604860Y-67222000D01*
X62312340Y-67222000D01*
X62025442Y-67279068D01*
X61755189Y-67391010D01*
X61511968Y-67553525D01*
X61305125Y-67760368D01*
X61188600Y-67934760D01*
X61072075Y-67760368D01*
X60865232Y-67553525D01*
X60622011Y-67391010D01*
X60351758Y-67279068D01*
X60064860Y-67222000D01*
X59772340Y-67222000D01*
X59485442Y-67279068D01*
X59215189Y-67391010D01*
X58971968Y-67553525D01*
X58765125Y-67760368D01*
X58648600Y-67934760D01*
X58532075Y-67760368D01*
X58325232Y-67553525D01*
X58082011Y-67391010D01*
X57811758Y-67279068D01*
X57524860Y-67222000D01*
X57232340Y-67222000D01*
X56945442Y-67279068D01*
X56675189Y-67391010D01*
X56431968Y-67553525D01*
X56225125Y-67760368D01*
X56108600Y-67934760D01*
X55992075Y-67760368D01*
X55785232Y-67553525D01*
X55542011Y-67391010D01*
X55271758Y-67279068D01*
X54984860Y-67222000D01*
X54692340Y-67222000D01*
X54405442Y-67279068D01*
X54135189Y-67391010D01*
X53891968Y-67553525D01*
X53685125Y-67760368D01*
X53568600Y-67934760D01*
X53452075Y-67760368D01*
X53245232Y-67553525D01*
X53002011Y-67391010D01*
X52731758Y-67279068D01*
X52444860Y-67222000D01*
X52152340Y-67222000D01*
X51865442Y-67279068D01*
X51595189Y-67391010D01*
X51351968Y-67553525D01*
X51220113Y-67685380D01*
X51198102Y-67612820D01*
X51139137Y-67502506D01*
X51059785Y-67405815D01*
X50963094Y-67326463D01*
X50852780Y-67267498D01*
X50733082Y-67231188D01*
X50608600Y-67218928D01*
X50044350Y-67222000D01*
X49885600Y-67380750D01*
X49631600Y-67380750D01*
X49472850Y-67222000D01*
X48908600Y-67218928D01*
X48784118Y-67231188D01*
X48664420Y-67267498D01*
X48554106Y-67326463D01*
X48457415Y-67405815D01*
X48378063Y-67502506D01*
X48319098Y-67612820D01*
X48282788Y-67732518D01*
X48270528Y-67857000D01*
X46282509Y-67857000D01*
X46246670Y-67821161D01*
X45618554Y-67401467D01*
X44920628Y-67112377D01*
X44179715Y-66965000D01*
X43424285Y-66965000D01*
X42683372Y-67112377D01*
X41985446Y-67401467D01*
X41357330Y-67821161D01*
X41096800Y-68081691D01*
X41096800Y-54956167D01*
X41191144Y-55019205D01*
X41379502Y-55097226D01*
X41579461Y-55137000D01*
X41688800Y-55137000D01*
X41688800Y-63831440D01*
X41683308Y-63887202D01*
X41705222Y-64109700D01*
X41770123Y-64323648D01*
X41818867Y-64414842D01*
X41875516Y-64520825D01*
X42017351Y-64693651D01*
X42060659Y-64729193D01*
X43144005Y-65812540D01*
X43179548Y-65855849D01*
X43352374Y-65997684D01*
X43549550Y-66103076D01*
X43713702Y-66152871D01*
X43763497Y-66167977D01*
X43784490Y-66170044D01*
X43930245Y-66184400D01*
X43930252Y-66184400D01*
X43985996Y-66189890D01*
X44041740Y-66184400D01*
X69481469Y-66184400D01*
X71568529Y-68271460D01*
X70643750Y-68273800D01*
X70485000Y-68432550D01*
X70485000Y-70281800D01*
X72334250Y-70281800D01*
X72493000Y-70123050D01*
X72495340Y-69198272D01*
X72969010Y-69671942D01*
X73004552Y-69715250D01*
X73177378Y-69857085D01*
X73352316Y-69950591D01*
X73303000Y-70198521D01*
X73303000Y-70619079D01*
X73385047Y-71031556D01*
X73545988Y-71420102D01*
X73779637Y-71769783D01*
X74077017Y-72067163D01*
X74426698Y-72300812D01*
X74815244Y-72461753D01*
X75227721Y-72543800D01*
X75648279Y-72543800D01*
X76060756Y-72461753D01*
X76449302Y-72300812D01*
X76798983Y-72067163D01*
X77096363Y-71769783D01*
X77330012Y-71420102D01*
X77490953Y-71031556D01*
X77573000Y-70619079D01*
X77573000Y-70198521D01*
X77490953Y-69786044D01*
X77330012Y-69397498D01*
X77096363Y-69047817D01*
X76798983Y-68750437D01*
X76449302Y-68516788D01*
X76060756Y-68355847D01*
X75648279Y-68273800D01*
X75227721Y-68273800D01*
X74961155Y-68326823D01*
X74779997Y-68145666D01*
X74744450Y-68102352D01*
X74571624Y-67960517D01*
X74374448Y-67855125D01*
X74357236Y-67849904D01*
X70793596Y-64286265D01*
X70765310Y-64251798D01*
X70927275Y-64089833D01*
X71043800Y-63915441D01*
X71160325Y-64089833D01*
X71367168Y-64296676D01*
X71610389Y-64459191D01*
X71880642Y-64571133D01*
X72167540Y-64628201D01*
X72460060Y-64628201D01*
X72746958Y-64571133D01*
X73017211Y-64459191D01*
X73260432Y-64296676D01*
X73467275Y-64089833D01*
X73583800Y-63915441D01*
X73700325Y-64089833D01*
X73907168Y-64296676D01*
X74150389Y-64459191D01*
X74420642Y-64571133D01*
X74707540Y-64628201D01*
X75000060Y-64628201D01*
X75286958Y-64571133D01*
X75557211Y-64459191D01*
X75800432Y-64296676D01*
X76007275Y-64089833D01*
X76123800Y-63915441D01*
X76240325Y-64089833D01*
X76447168Y-64296676D01*
X76690389Y-64459191D01*
X76960642Y-64571133D01*
X77247540Y-64628201D01*
X77540060Y-64628201D01*
X77826958Y-64571133D01*
X78097211Y-64459191D01*
X78340432Y-64296676D01*
X78547275Y-64089833D01*
X78663800Y-63915441D01*
X78780325Y-64089833D01*
X78987168Y-64296676D01*
X79230389Y-64459191D01*
X79500642Y-64571133D01*
X79787540Y-64628201D01*
X80080060Y-64628201D01*
X80366958Y-64571133D01*
X80637211Y-64459191D01*
X80880432Y-64296676D01*
X81087275Y-64089833D01*
X81203800Y-63915441D01*
X81320325Y-64089833D01*
X81527168Y-64296676D01*
X81770389Y-64459191D01*
X82040642Y-64571133D01*
X82327540Y-64628201D01*
X82620060Y-64628201D01*
X82906958Y-64571133D01*
X83177211Y-64459191D01*
X83420432Y-64296676D01*
X83627275Y-64089833D01*
X83743800Y-63915441D01*
X83860325Y-64089833D01*
X84067168Y-64296676D01*
X84310389Y-64459191D01*
X84580642Y-64571133D01*
X84867540Y-64628201D01*
X85160060Y-64628201D01*
X85446958Y-64571133D01*
X85717211Y-64459191D01*
X85960432Y-64296676D01*
X86167275Y-64089833D01*
X86283800Y-63915441D01*
X86400325Y-64089833D01*
X86607168Y-64296676D01*
X86850389Y-64459191D01*
X87120642Y-64571133D01*
X87407540Y-64628201D01*
X87700060Y-64628201D01*
X87986958Y-64571133D01*
X88257211Y-64459191D01*
X88500432Y-64296676D01*
X88707275Y-64089833D01*
X88823800Y-63915441D01*
X88940325Y-64089833D01*
X89147168Y-64296676D01*
X89390389Y-64459191D01*
X89660642Y-64571133D01*
X89947540Y-64628201D01*
X90240060Y-64628201D01*
X90526958Y-64571133D01*
X90797211Y-64459191D01*
X91040432Y-64296676D01*
X91172287Y-64164821D01*
X91194298Y-64237381D01*
X91253263Y-64347695D01*
X91332615Y-64444386D01*
X91429306Y-64523738D01*
X91539620Y-64582703D01*
X91659318Y-64619013D01*
X91783800Y-64631273D01*
X93483800Y-64631273D01*
X93608282Y-64619013D01*
X93727980Y-64582703D01*
X93838294Y-64523738D01*
X93934985Y-64444386D01*
X94014337Y-64347695D01*
X94073302Y-64237381D01*
X94109612Y-64117683D01*
X94121872Y-63993201D01*
X94121872Y-62293201D01*
X94109612Y-62168719D01*
X94073302Y-62049021D01*
X94014337Y-61938707D01*
X93934985Y-61842016D01*
X93838294Y-61762664D01*
X93727980Y-61703699D01*
X93608282Y-61667389D01*
X93483800Y-61655129D01*
X92665782Y-61655129D01*
X92701137Y-61619774D01*
X92814405Y-61450256D01*
X92892426Y-61261898D01*
X92932200Y-61061939D01*
X92932200Y-60858061D01*
X92892426Y-60658102D01*
X92814405Y-60469744D01*
X92701137Y-60300226D01*
X92556974Y-60156063D01*
X92387456Y-60042795D01*
X92199098Y-59964774D01*
X91999139Y-59925000D01*
X91937002Y-59925000D01*
X90759204Y-58747203D01*
X90735401Y-58718199D01*
X90619676Y-58623226D01*
X90487647Y-58552654D01*
X90344386Y-58509197D01*
X90232733Y-58498200D01*
X90232722Y-58498200D01*
X90195400Y-58494524D01*
X90158078Y-58498200D01*
X78776123Y-58498200D01*
X78738800Y-58494524D01*
X78701477Y-58498200D01*
X78701468Y-58498200D01*
X78589815Y-58509197D01*
X78446554Y-58552654D01*
X78314524Y-58623226D01*
X78230884Y-58691868D01*
X78198800Y-58718199D01*
X78175002Y-58747197D01*
X75220208Y-61701992D01*
X75000060Y-61658201D01*
X74707540Y-61658201D01*
X74420642Y-61715269D01*
X74150389Y-61827211D01*
X73907168Y-61989726D01*
X73700325Y-62196569D01*
X73583800Y-62370961D01*
X73467275Y-62196569D01*
X73260432Y-61989726D01*
X73017211Y-61827211D01*
X72746958Y-61715269D01*
X72460060Y-61658201D01*
X72167540Y-61658201D01*
X71880642Y-61715269D01*
X71610389Y-61827211D01*
X71367168Y-61989726D01*
X71160325Y-62196569D01*
X71043800Y-62370961D01*
X70927275Y-62196569D01*
X70720432Y-61989726D01*
X70477211Y-61827211D01*
X70206958Y-61715269D01*
X69920060Y-61658201D01*
X69627540Y-61658201D01*
X69340642Y-61715269D01*
X69070389Y-61827211D01*
X68827168Y-61989726D01*
X68620325Y-62196569D01*
X68503800Y-62370961D01*
X68387275Y-62196569D01*
X68180432Y-61989726D01*
X67937211Y-61827211D01*
X67666958Y-61715269D01*
X67380060Y-61658201D01*
X67087540Y-61658201D01*
X66800642Y-61715269D01*
X66530389Y-61827211D01*
X66287168Y-61989726D01*
X66080325Y-62196569D01*
X65963800Y-62370961D01*
X65847275Y-62196569D01*
X65640432Y-61989726D01*
X65397211Y-61827211D01*
X65126958Y-61715269D01*
X64840060Y-61658201D01*
X64547540Y-61658201D01*
X64260642Y-61715269D01*
X63990389Y-61827211D01*
X63747168Y-61989726D01*
X63540325Y-62196569D01*
X63423800Y-62370961D01*
X63307275Y-62196569D01*
X63100432Y-61989726D01*
X62857211Y-61827211D01*
X62586958Y-61715269D01*
X62300060Y-61658201D01*
X62007540Y-61658201D01*
X61720642Y-61715269D01*
X61450389Y-61827211D01*
X61207168Y-61989726D01*
X61000325Y-62196569D01*
X60883800Y-62370961D01*
X60767275Y-62196569D01*
X60560432Y-61989726D01*
X60317211Y-61827211D01*
X60046958Y-61715269D01*
X59760060Y-61658201D01*
X59467540Y-61658201D01*
X59180642Y-61715269D01*
X58910389Y-61827211D01*
X58667168Y-61989726D01*
X58460325Y-62196569D01*
X58343800Y-62370961D01*
X58227275Y-62196569D01*
X58020432Y-61989726D01*
X57777211Y-61827211D01*
X57506958Y-61715269D01*
X57220060Y-61658201D01*
X56927540Y-61658201D01*
X56640642Y-61715269D01*
X56370389Y-61827211D01*
X56127168Y-61989726D01*
X55920325Y-62196569D01*
X55803800Y-62370961D01*
X55687275Y-62196569D01*
X55480432Y-61989726D01*
X55237211Y-61827211D01*
X54966958Y-61715269D01*
X54680060Y-61658201D01*
X54387540Y-61658201D01*
X54100642Y-61715269D01*
X53830389Y-61827211D01*
X53587168Y-61989726D01*
X53380325Y-62196569D01*
X53263800Y-62370961D01*
X53147275Y-62196569D01*
X52940432Y-61989726D01*
X52697211Y-61827211D01*
X52426958Y-61715269D01*
X52140060Y-61658201D01*
X51847540Y-61658201D01*
X51560642Y-61715269D01*
X51290389Y-61827211D01*
X51047168Y-61989726D01*
X50840325Y-62196569D01*
X50723800Y-62370961D01*
X50607275Y-62196569D01*
X50400432Y-61989726D01*
X50288800Y-61915136D01*
X50288800Y-56708467D01*
X50541067Y-56456200D01*
X50606988Y-56456200D01*
X50826267Y-56412583D01*
X51032824Y-56327024D01*
X51218720Y-56202812D01*
X51376812Y-56044720D01*
X51501024Y-55858824D01*
X51586583Y-55652267D01*
X51630200Y-55432988D01*
X51630200Y-55209412D01*
X51586583Y-54990133D01*
X51501024Y-54783576D01*
X51376812Y-54597680D01*
X51218720Y-54439588D01*
X51032824Y-54315376D01*
X50826267Y-54229817D01*
X50606988Y-54186200D01*
X50383412Y-54186200D01*
X50164133Y-54229817D01*
X49957576Y-54315376D01*
X49771680Y-54439588D01*
X49613588Y-54597680D01*
X49489376Y-54783576D01*
X49403817Y-54990133D01*
X49360200Y-55209412D01*
X49360200Y-55275333D01*
X48892379Y-55743154D01*
X48860509Y-55769309D01*
X48787047Y-55858824D01*
X48756164Y-55896455D01*
X48678628Y-56041514D01*
X48630882Y-56198912D01*
X48614760Y-56362600D01*
X48618800Y-56403619D01*
X48618801Y-61915135D01*
X48507168Y-61989726D01*
X48300325Y-62196569D01*
X48178605Y-62378735D01*
X48108978Y-62261846D01*
X47914069Y-62045613D01*
X47680720Y-61871560D01*
X47417899Y-61746376D01*
X47270690Y-61701725D01*
X47040800Y-61823046D01*
X47040800Y-63016201D01*
X47060800Y-63016201D01*
X47060800Y-63270201D01*
X47040800Y-63270201D01*
X47040800Y-63290201D01*
X46786800Y-63290201D01*
X46786800Y-63270201D01*
X44500800Y-63270201D01*
X44500800Y-63290201D01*
X44246800Y-63290201D01*
X44246800Y-63270201D01*
X44226800Y-63270201D01*
X44226800Y-63016201D01*
X44246800Y-63016201D01*
X44246800Y-61823046D01*
X44500800Y-61823046D01*
X44500800Y-63016201D01*
X46786800Y-63016201D01*
X46786800Y-61823046D01*
X46556910Y-61701725D01*
X46409701Y-61746376D01*
X46146880Y-61871560D01*
X45913531Y-62045613D01*
X45718622Y-62261846D01*
X45643800Y-62387456D01*
X45568978Y-62261846D01*
X45374069Y-62045613D01*
X45140720Y-61871560D01*
X44877899Y-61746376D01*
X44730690Y-61701725D01*
X44500800Y-61823046D01*
X44246800Y-61823046D01*
X44016910Y-61701725D01*
X43958799Y-61719351D01*
X43958799Y-49335944D01*
X44227540Y-49389400D01*
X44520060Y-49389400D01*
X44788802Y-49335944D01*
X44788802Y-49727869D01*
X44785125Y-49765201D01*
X44788802Y-49802534D01*
X44796869Y-49884436D01*
X44786600Y-49936061D01*
X44786600Y-50139939D01*
X44826374Y-50339898D01*
X44904395Y-50528256D01*
X45017663Y-50697774D01*
X45161826Y-50841937D01*
X45331344Y-50955205D01*
X45519702Y-51033226D01*
X45719661Y-51073000D01*
X45923539Y-51073000D01*
X46123498Y-51033226D01*
X46311856Y-50955205D01*
X46481374Y-50841937D01*
X46625537Y-50697774D01*
X46738805Y-50528256D01*
X46816826Y-50339898D01*
X46856600Y-50139939D01*
X46856600Y-49936061D01*
X46816826Y-49736102D01*
X46738805Y-49547744D01*
X46625537Y-49378226D01*
X46604225Y-49356914D01*
X46767540Y-49389400D01*
X47060060Y-49389400D01*
X47346958Y-49332332D01*
X47347601Y-49332066D01*
X47347601Y-50172488D01*
X47303663Y-50216426D01*
X47190395Y-50385944D01*
X47112374Y-50574302D01*
X47072600Y-50774261D01*
X47072600Y-50978139D01*
X47112374Y-51178098D01*
X47190395Y-51366456D01*
X47303663Y-51535974D01*
X47447826Y-51680137D01*
X47617344Y-51793405D01*
X47805702Y-51871426D01*
X48005661Y-51911200D01*
X48209539Y-51911200D01*
X48409498Y-51871426D01*
X48597856Y-51793405D01*
X48767374Y-51680137D01*
X48911537Y-51535974D01*
X49024805Y-51366456D01*
X49102826Y-51178098D01*
X49142600Y-50978139D01*
X49142600Y-50774261D01*
X49102826Y-50574302D01*
X49024805Y-50385944D01*
X48911537Y-50216426D01*
X48867600Y-50172489D01*
X48867600Y-49268940D01*
X49020642Y-49332332D01*
X49307540Y-49389400D01*
X49600060Y-49389400D01*
X49886958Y-49332332D01*
X50157211Y-49220390D01*
X50400432Y-49057875D01*
X50607275Y-48851032D01*
X50723800Y-48676640D01*
X50840325Y-48851032D01*
X51047168Y-49057875D01*
X51290389Y-49220390D01*
X51560642Y-49332332D01*
X51847540Y-49389400D01*
X52140060Y-49389400D01*
X52426958Y-49332332D01*
X52697211Y-49220390D01*
X52940432Y-49057875D01*
X53147275Y-48851032D01*
X53263800Y-48676640D01*
X53380325Y-48851032D01*
X53587168Y-49057875D01*
X53830389Y-49220390D01*
X54100642Y-49332332D01*
X54387540Y-49389400D01*
X54680060Y-49389400D01*
X54966958Y-49332332D01*
X55094601Y-49279461D01*
X55094601Y-49308888D01*
X55025263Y-49378226D01*
X54911995Y-49547744D01*
X54833974Y-49736102D01*
X54794200Y-49936061D01*
X54794200Y-50139939D01*
X54833974Y-50339898D01*
X54911995Y-50528256D01*
X55025263Y-50697774D01*
X55169426Y-50841937D01*
X55338944Y-50955205D01*
X55527302Y-51033226D01*
X55727261Y-51073000D01*
X55931139Y-51073000D01*
X56131098Y-51033226D01*
X56319456Y-50955205D01*
X56488974Y-50841937D01*
X56633137Y-50697774D01*
X56746405Y-50528256D01*
X56824426Y-50339898D01*
X56864200Y-50139939D01*
X56864200Y-49936061D01*
X56824426Y-49736102D01*
X56746405Y-49547744D01*
X56633137Y-49378226D01*
X56614600Y-49359689D01*
X56614600Y-49321545D01*
X56640642Y-49332332D01*
X56927540Y-49389400D01*
X57220060Y-49389400D01*
X57488802Y-49335944D01*
X57488802Y-49885525D01*
X57482887Y-49896591D01*
X57478350Y-49905079D01*
X57434910Y-50048285D01*
X57379959Y-50103236D01*
X57266691Y-50272754D01*
X57188670Y-50461112D01*
X57148896Y-50661071D01*
X57148896Y-50864949D01*
X57188670Y-51064908D01*
X57266691Y-51253266D01*
X57379959Y-51422784D01*
X57524122Y-51566947D01*
X57693640Y-51680215D01*
X57881998Y-51758236D01*
X58081957Y-51798010D01*
X58285835Y-51798010D01*
X58485794Y-51758236D01*
X58674152Y-51680215D01*
X58843670Y-51566947D01*
X58987833Y-51422784D01*
X59101101Y-51253266D01*
X59179122Y-51064908D01*
X59218896Y-50864949D01*
X59218896Y-50661071D01*
X59179122Y-50461112D01*
X59101101Y-50272754D01*
X59011817Y-50139131D01*
X59012478Y-50132420D01*
X59008801Y-50095087D01*
X59008801Y-49261153D01*
X59180642Y-49332332D01*
X59467540Y-49389400D01*
X59760060Y-49389400D01*
X60046958Y-49332332D01*
X60317211Y-49220390D01*
X60560432Y-49057875D01*
X60767275Y-48851032D01*
X60883800Y-48676640D01*
X61000325Y-48851032D01*
X61207168Y-49057875D01*
X61450389Y-49220390D01*
X61720642Y-49332332D01*
X62007540Y-49389400D01*
X62300060Y-49389400D01*
X62586958Y-49332332D01*
X62857211Y-49220390D01*
X63100432Y-49057875D01*
X63307275Y-48851032D01*
X63423800Y-48676640D01*
X63540325Y-48851032D01*
X63747168Y-49057875D01*
X63990389Y-49220390D01*
X64260642Y-49332332D01*
X64547540Y-49389400D01*
X64840060Y-49389400D01*
X65126958Y-49332332D01*
X65298800Y-49261153D01*
X65298800Y-49973688D01*
X65295123Y-50011020D01*
X65309797Y-50160005D01*
X65338971Y-50256183D01*
X65327899Y-50272754D01*
X65249878Y-50461112D01*
X65210104Y-50661071D01*
X65210104Y-50864949D01*
X65249878Y-51064908D01*
X65327899Y-51253266D01*
X65441167Y-51422784D01*
X65585330Y-51566947D01*
X65754848Y-51680215D01*
X65943206Y-51758236D01*
X66143165Y-51798010D01*
X66347043Y-51798010D01*
X66547002Y-51758236D01*
X66735360Y-51680215D01*
X66904878Y-51566947D01*
X67049041Y-51422784D01*
X67162309Y-51253266D01*
X67240330Y-51064908D01*
X67280104Y-50864949D01*
X67280104Y-50661071D01*
X67240330Y-50461112D01*
X67162309Y-50272754D01*
X67049041Y-50103236D01*
X66994091Y-50048286D01*
X66950650Y-49905078D01*
X66880078Y-49773049D01*
X66818799Y-49698380D01*
X66818799Y-49335944D01*
X67087540Y-49389400D01*
X67380060Y-49389400D01*
X67666958Y-49332332D01*
X67838799Y-49261153D01*
X67838799Y-49297609D01*
X67831013Y-49323276D01*
X67776063Y-49378226D01*
X67662795Y-49547744D01*
X67584774Y-49736102D01*
X67545000Y-49936061D01*
X67545000Y-50139939D01*
X67584774Y-50339898D01*
X67662795Y-50528256D01*
X67776063Y-50697774D01*
X67920226Y-50841937D01*
X68089744Y-50955205D01*
X68278102Y-51033226D01*
X68478061Y-51073000D01*
X68681939Y-51073000D01*
X68881898Y-51033226D01*
X69070256Y-50955205D01*
X69239774Y-50841937D01*
X69383937Y-50697774D01*
X69497205Y-50528256D01*
X69575226Y-50339898D01*
X69615000Y-50139939D01*
X69615000Y-49936061D01*
X69575226Y-49736102D01*
X69497205Y-49547744D01*
X69383937Y-49378226D01*
X69358799Y-49353088D01*
X69358799Y-49335944D01*
X69627540Y-49389400D01*
X69920060Y-49389400D01*
X70206958Y-49332332D01*
X70477211Y-49220390D01*
X70720432Y-49057875D01*
X70927275Y-48851032D01*
X71043800Y-48676640D01*
X71160325Y-48851032D01*
X71367168Y-49057875D01*
X71610389Y-49220390D01*
X71880642Y-49332332D01*
X72167540Y-49389400D01*
X72460060Y-49389400D01*
X72746958Y-49332332D01*
X73017211Y-49220390D01*
X73260432Y-49057875D01*
X73467275Y-48851032D01*
X73583800Y-48676640D01*
X73700325Y-48851032D01*
X73907168Y-49057875D01*
X74150389Y-49220390D01*
X74420642Y-49332332D01*
X74707540Y-49389400D01*
X75000060Y-49389400D01*
X75286958Y-49332332D01*
X75557211Y-49220390D01*
X75800432Y-49057875D01*
X76007275Y-48851032D01*
X76123800Y-48676640D01*
X76240325Y-48851032D01*
X76447168Y-49057875D01*
X76690389Y-49220390D01*
X76960642Y-49332332D01*
X77247540Y-49389400D01*
X77540060Y-49389400D01*
X77826958Y-49332332D01*
X77954601Y-49279461D01*
X77954601Y-49359688D01*
X77936063Y-49378226D01*
X77822795Y-49547744D01*
X77744774Y-49736102D01*
X77705000Y-49936061D01*
X77705000Y-50139939D01*
X77744774Y-50339898D01*
X77822795Y-50528256D01*
X77936063Y-50697774D01*
X78080226Y-50841937D01*
X78249744Y-50955205D01*
X78438102Y-51033226D01*
X78638061Y-51073000D01*
X78841939Y-51073000D01*
X79041898Y-51033226D01*
X79230256Y-50955205D01*
X79399774Y-50841937D01*
X79543937Y-50697774D01*
X79657205Y-50528256D01*
X79735226Y-50339898D01*
X79775000Y-50139939D01*
X79775000Y-49936061D01*
X79735226Y-49736102D01*
X79657205Y-49547744D01*
X79543937Y-49378226D01*
X79496205Y-49330494D01*
X79500642Y-49332332D01*
X79787540Y-49389400D01*
X80080060Y-49389400D01*
X80366958Y-49332332D01*
X80405435Y-49316395D01*
X80405435Y-50325679D01*
X80401758Y-50363011D01*
X80405435Y-50400344D01*
X80416432Y-50511997D01*
X80419473Y-50522022D01*
X80459888Y-50655257D01*
X80530433Y-50787236D01*
X80530433Y-50864949D01*
X80570207Y-51064908D01*
X80648228Y-51253266D01*
X80761496Y-51422784D01*
X80905659Y-51566947D01*
X81075177Y-51680215D01*
X81263535Y-51758236D01*
X81463494Y-51798010D01*
X81667372Y-51798010D01*
X81867331Y-51758236D01*
X82055689Y-51680215D01*
X82225207Y-51566947D01*
X82282954Y-51509200D01*
X83338321Y-51509200D01*
X83278944Y-51533795D01*
X83109426Y-51647063D01*
X82965263Y-51791226D01*
X82851995Y-51960744D01*
X82773974Y-52149102D01*
X82734200Y-52349061D01*
X82734200Y-52552939D01*
X82773974Y-52752898D01*
X82851995Y-52941256D01*
X82965263Y-53110774D01*
X83009200Y-53154711D01*
X83009201Y-53677688D01*
X82965263Y-53721626D01*
X82851995Y-53891144D01*
X82773974Y-54079502D01*
X82734200Y-54279461D01*
X82734200Y-54483339D01*
X82773974Y-54683298D01*
X82851995Y-54871656D01*
X82965263Y-55041174D01*
X83109426Y-55185337D01*
X83278944Y-55298605D01*
X83467302Y-55376626D01*
X83667261Y-55416400D01*
X83871139Y-55416400D01*
X84071098Y-55376626D01*
X84259456Y-55298605D01*
X84428974Y-55185337D01*
X84573137Y-55041174D01*
X84686405Y-54871656D01*
X84764426Y-54683298D01*
X84771664Y-54646909D01*
X84833195Y-54795456D01*
X84946463Y-54964974D01*
X85090626Y-55109137D01*
X85260144Y-55222405D01*
X85448502Y-55300426D01*
X85648461Y-55340200D01*
X85852339Y-55340200D01*
X86052298Y-55300426D01*
X86240656Y-55222405D01*
X86410174Y-55109137D01*
X86554337Y-54964974D01*
X86667605Y-54795456D01*
X86745626Y-54607098D01*
X86785400Y-54407139D01*
X86785400Y-54203261D01*
X86745626Y-54003302D01*
X86667605Y-53814944D01*
X86554337Y-53645426D01*
X86510400Y-53601489D01*
X86510400Y-53176875D01*
X86566005Y-53093656D01*
X86644026Y-52905298D01*
X86683800Y-52705339D01*
X86683800Y-52501461D01*
X86644026Y-52301502D01*
X86566005Y-52113144D01*
X86452737Y-51943626D01*
X86308574Y-51799463D01*
X86139056Y-51686195D01*
X85950698Y-51608174D01*
X85750739Y-51568400D01*
X85546861Y-51568400D01*
X85405428Y-51596533D01*
X85470374Y-51553137D01*
X85614537Y-51408974D01*
X85727805Y-51239456D01*
X85805826Y-51051098D01*
X85845600Y-50851139D01*
X85845600Y-50647261D01*
X85805826Y-50447302D01*
X85727805Y-50258944D01*
X85614537Y-50089426D01*
X85470374Y-49945263D01*
X85300856Y-49831995D01*
X85112498Y-49753974D01*
X84912539Y-49714200D01*
X84708661Y-49714200D01*
X84508702Y-49753974D01*
X84320344Y-49831995D01*
X84150826Y-49945263D01*
X84106889Y-49989200D01*
X82255334Y-49989200D01*
X82225207Y-49959073D01*
X82055689Y-49845805D01*
X81925434Y-49791851D01*
X81925434Y-49284611D01*
X82040642Y-49332332D01*
X82327540Y-49389400D01*
X82620060Y-49389400D01*
X82906958Y-49332332D01*
X83177211Y-49220390D01*
X83420432Y-49057875D01*
X83627275Y-48851032D01*
X83743800Y-48676640D01*
X83860325Y-48851032D01*
X84067168Y-49057875D01*
X84310389Y-49220390D01*
X84580642Y-49332332D01*
X84867540Y-49389400D01*
X85160060Y-49389400D01*
X85446958Y-49332332D01*
X85717211Y-49220390D01*
X85960432Y-49057875D01*
X86167275Y-48851032D01*
X86283800Y-48676640D01*
X86400325Y-48851032D01*
X86607168Y-49057875D01*
X86850389Y-49220390D01*
X87120642Y-49332332D01*
X87407540Y-49389400D01*
X87700060Y-49389400D01*
X87986958Y-49332332D01*
X88257211Y-49220390D01*
X88500432Y-49057875D01*
X88707275Y-48851032D01*
X88828995Y-48668866D01*
X88898622Y-48785755D01*
X89093531Y-49001988D01*
X89326880Y-49176041D01*
X89589701Y-49301225D01*
X89736910Y-49345876D01*
X89966800Y-49224555D01*
X89966800Y-48031400D01*
X89946800Y-48031400D01*
X89946800Y-47777400D01*
X89966800Y-47777400D01*
X89966800Y-46584245D01*
X90220800Y-46584245D01*
X90220800Y-47777400D01*
X90240800Y-47777400D01*
X90240800Y-48031400D01*
X90220800Y-48031400D01*
X90220800Y-49224555D01*
X90450690Y-49345876D01*
X90597899Y-49301225D01*
X90860720Y-49176041D01*
X91094069Y-49001988D01*
X91169834Y-48917934D01*
X91194298Y-48998580D01*
X91253263Y-49108894D01*
X91332615Y-49205585D01*
X91429306Y-49284937D01*
X91539620Y-49343902D01*
X91659318Y-49380212D01*
X91783800Y-49392472D01*
X93483800Y-49392472D01*
X93608282Y-49380212D01*
X93727980Y-49343902D01*
X93838294Y-49284937D01*
X93934985Y-49205585D01*
X94014337Y-49108894D01*
X94073302Y-48998580D01*
X94109612Y-48878882D01*
X94121872Y-48754400D01*
X94121872Y-47054400D01*
X94109612Y-46929918D01*
X94073302Y-46810220D01*
X94014337Y-46699906D01*
X93934985Y-46603215D01*
X93838294Y-46523863D01*
X93727980Y-46464898D01*
X93608282Y-46428588D01*
X93483800Y-46416328D01*
X91783800Y-46416328D01*
X91659318Y-46428588D01*
X91539620Y-46464898D01*
X91429306Y-46523863D01*
X91332615Y-46603215D01*
X91253263Y-46699906D01*
X91194298Y-46810220D01*
X91169834Y-46890866D01*
X91094069Y-46806812D01*
X90860720Y-46632759D01*
X90597899Y-46507575D01*
X90450690Y-46462924D01*
X90220800Y-46584245D01*
X89966800Y-46584245D01*
X89736910Y-46462924D01*
X89589701Y-46507575D01*
X89326880Y-46632759D01*
X89093531Y-46806812D01*
X88898622Y-47023045D01*
X88828995Y-47139934D01*
X88707275Y-46957768D01*
X88500432Y-46750925D01*
X88257211Y-46588410D01*
X87986958Y-46476468D01*
X87700060Y-46419400D01*
X87407540Y-46419400D01*
X87120642Y-46476468D01*
X86850389Y-46588410D01*
X86607168Y-46750925D01*
X86400325Y-46957768D01*
X86283800Y-47132160D01*
X86167275Y-46957768D01*
X85960432Y-46750925D01*
X85717211Y-46588410D01*
X85446958Y-46476468D01*
X85160060Y-46419400D01*
X85033602Y-46419400D01*
X85531802Y-45921200D01*
X86062689Y-45921200D01*
X86106626Y-45965137D01*
X86276144Y-46078405D01*
X86464502Y-46156426D01*
X86664461Y-46196200D01*
X86868339Y-46196200D01*
X87068298Y-46156426D01*
X87256656Y-46078405D01*
X87426174Y-45965137D01*
X87570337Y-45820974D01*
X87683605Y-45651456D01*
X87761626Y-45463098D01*
X87801400Y-45263139D01*
X87801400Y-45059261D01*
X87761626Y-44859302D01*
X87683605Y-44670944D01*
X87570337Y-44501426D01*
X87426174Y-44357263D01*
X87256656Y-44243995D01*
X87068298Y-44165974D01*
X86868339Y-44126200D01*
X86664461Y-44126200D01*
X86464502Y-44165974D01*
X86276144Y-44243995D01*
X86106626Y-44357263D01*
X86062689Y-44401200D01*
X85254325Y-44401200D01*
X85217000Y-44397524D01*
X85179675Y-44401200D01*
X85179667Y-44401200D01*
X85068014Y-44412197D01*
X84924753Y-44455654D01*
X84792724Y-44526226D01*
X84676999Y-44621199D01*
X84653201Y-44650197D01*
X84447175Y-44856223D01*
X84436613Y-44803122D01*
X84358592Y-44614764D01*
X84245324Y-44445246D01*
X84101161Y-44301083D01*
X83931643Y-44187815D01*
X83743285Y-44109794D01*
X83543326Y-44070020D01*
X83339448Y-44070020D01*
X83139489Y-44109794D01*
X82951131Y-44187815D01*
X82781613Y-44301083D01*
X82756503Y-44326194D01*
X82727174Y-44296865D01*
X82557656Y-44183597D01*
X82369298Y-44105576D01*
X82169339Y-44065802D01*
X81965461Y-44065802D01*
X81765502Y-44105576D01*
X81577144Y-44183597D01*
X81407626Y-44296865D01*
X81363689Y-44340802D01*
X81035718Y-44340802D01*
X80998395Y-44337126D01*
X80961072Y-44340802D01*
X80961063Y-44340802D01*
X80849410Y-44351799D01*
X80706149Y-44395256D01*
X80574120Y-44465828D01*
X80458395Y-44560801D01*
X80434597Y-44589799D01*
X78300292Y-46724105D01*
X78097211Y-46588410D01*
X77826958Y-46476468D01*
X77540060Y-46419400D01*
X77247540Y-46419400D01*
X76960642Y-46476468D01*
X76690389Y-46588410D01*
X76447168Y-46750925D01*
X76240325Y-46957768D01*
X76123800Y-47132160D01*
X76007275Y-46957768D01*
X75800432Y-46750925D01*
X75557211Y-46588410D01*
X75286958Y-46476468D01*
X75000060Y-46419400D01*
X74707540Y-46419400D01*
X74420642Y-46476468D01*
X74150389Y-46588410D01*
X73907168Y-46750925D01*
X73700325Y-46957768D01*
X73583800Y-47132160D01*
X73467275Y-46957768D01*
X73260432Y-46750925D01*
X73017211Y-46588410D01*
X72746958Y-46476468D01*
X72460060Y-46419400D01*
X72167540Y-46419400D01*
X71880642Y-46476468D01*
X71610389Y-46588410D01*
X71367168Y-46750925D01*
X71160325Y-46957768D01*
X71043800Y-47132160D01*
X70927275Y-46957768D01*
X70720432Y-46750925D01*
X70477211Y-46588410D01*
X70206958Y-46476468D01*
X69920060Y-46419400D01*
X69627540Y-46419400D01*
X69390800Y-46466491D01*
X69390800Y-44950511D01*
X69434737Y-44906574D01*
X69548005Y-44737056D01*
X69626026Y-44548698D01*
X69665800Y-44348739D01*
X69665800Y-44144861D01*
X69626026Y-43944902D01*
X69548005Y-43756544D01*
X69434737Y-43587026D01*
X69290574Y-43442863D01*
X69121056Y-43329595D01*
X68932698Y-43251574D01*
X68732739Y-43211800D01*
X68528861Y-43211800D01*
X68328902Y-43251574D01*
X68140544Y-43329595D01*
X67971026Y-43442863D01*
X67826863Y-43587026D01*
X67713595Y-43756544D01*
X67635574Y-43944902D01*
X67595800Y-44144861D01*
X67595800Y-44270926D01*
X67415534Y-44345595D01*
X67246016Y-44458863D01*
X67101853Y-44603026D01*
X66988585Y-44772544D01*
X66910564Y-44960902D01*
X66870790Y-45160861D01*
X66870790Y-45222998D01*
X65547802Y-46545987D01*
X65518798Y-46569790D01*
X65476442Y-46621402D01*
X65465868Y-46634285D01*
X65397211Y-46588410D01*
X65126958Y-46476468D01*
X64840060Y-46419400D01*
X64547540Y-46419400D01*
X64260642Y-46476468D01*
X63990389Y-46588410D01*
X63747168Y-46750925D01*
X63540325Y-46957768D01*
X63423800Y-47132160D01*
X63307275Y-46957768D01*
X63100432Y-46750925D01*
X62857211Y-46588410D01*
X62586958Y-46476468D01*
X62300060Y-46419400D01*
X62007540Y-46419400D01*
X61720642Y-46476468D01*
X61450389Y-46588410D01*
X61207168Y-46750925D01*
X61000325Y-46957768D01*
X60883800Y-47132160D01*
X60767275Y-46957768D01*
X60560432Y-46750925D01*
X60317211Y-46588410D01*
X60046958Y-46476468D01*
X59760060Y-46419400D01*
X59467540Y-46419400D01*
X59180642Y-46476468D01*
X59008801Y-46547647D01*
X59008801Y-45687726D01*
X59012477Y-45650401D01*
X59008801Y-45613076D01*
X59008801Y-45613068D01*
X58997804Y-45501415D01*
X58954347Y-45358154D01*
X58883775Y-45226125D01*
X58820000Y-45148415D01*
X58820000Y-45084661D01*
X58780226Y-44884702D01*
X58702205Y-44696344D01*
X58588937Y-44526826D01*
X58444774Y-44382663D01*
X58275256Y-44269395D01*
X58086898Y-44191374D01*
X57886939Y-44151600D01*
X57683061Y-44151600D01*
X57483102Y-44191374D01*
X57294744Y-44269395D01*
X57226114Y-44315252D01*
X57081456Y-44218595D01*
X56893098Y-44140574D01*
X56693139Y-44100800D01*
X56489261Y-44100800D01*
X56289302Y-44140574D01*
X56100944Y-44218595D01*
X55931426Y-44331863D01*
X55787263Y-44476026D01*
X55673995Y-44645544D01*
X55595974Y-44833902D01*
X55556200Y-45033861D01*
X55556200Y-45095999D01*
X55343602Y-45308597D01*
X55314599Y-45332399D01*
X55264825Y-45393049D01*
X55219626Y-45448124D01*
X55149055Y-45580153D01*
X55149054Y-45580154D01*
X55105597Y-45723415D01*
X55094600Y-45835068D01*
X55094600Y-45835078D01*
X55090924Y-45872400D01*
X55094600Y-45909723D01*
X55094600Y-46529339D01*
X54966958Y-46476468D01*
X54680060Y-46419400D01*
X54387540Y-46419400D01*
X54100642Y-46476468D01*
X53830389Y-46588410D01*
X53587168Y-46750925D01*
X53380325Y-46957768D01*
X53263800Y-47132160D01*
X53147275Y-46957768D01*
X52940432Y-46750925D01*
X52697211Y-46588410D01*
X52426958Y-46476468D01*
X52140060Y-46419400D01*
X51847540Y-46419400D01*
X51560642Y-46476468D01*
X51290389Y-46588410D01*
X51047168Y-46750925D01*
X50840325Y-46957768D01*
X50723800Y-47132160D01*
X50607275Y-46957768D01*
X50400432Y-46750925D01*
X50157211Y-46588410D01*
X49886958Y-46476468D01*
X49600060Y-46419400D01*
X49307540Y-46419400D01*
X49020642Y-46476468D01*
X48750389Y-46588410D01*
X48547309Y-46724104D01*
X46575006Y-44751802D01*
X46551203Y-44722799D01*
X46435478Y-44627826D01*
X46303449Y-44557254D01*
X46160188Y-44513797D01*
X46048535Y-44502800D01*
X46048524Y-44502800D01*
X46042076Y-44502165D01*
X45998774Y-44458863D01*
X45829256Y-44345595D01*
X45640898Y-44267574D01*
X45440939Y-44227800D01*
X45237061Y-44227800D01*
X45037102Y-44267574D01*
X44848744Y-44345595D01*
X44805600Y-44374423D01*
X44762456Y-44345595D01*
X44574098Y-44267574D01*
X44374139Y-44227800D01*
X44170261Y-44227800D01*
X43970302Y-44267574D01*
X43958799Y-44272339D01*
X43958799Y-41110732D01*
X44335932Y-40733600D01*
X77092345Y-40733600D01*
X77213622Y-40814635D01*
X77420179Y-40900194D01*
X77639458Y-40943811D01*
X77863034Y-40943811D01*
X78082313Y-40900194D01*
X78288870Y-40814635D01*
X78410147Y-40733600D01*
X82107317Y-40733600D01*
X82235012Y-40759000D01*
X82458588Y-40759000D01*
X82586283Y-40733600D01*
X90662788Y-40733600D01*
X90717747Y-40722668D01*
X90773499Y-40717177D01*
X90827106Y-40700915D01*
X90882067Y-40689983D01*
X90933842Y-40668537D01*
X90987447Y-40652276D01*
X91036851Y-40625869D01*
X91088624Y-40604424D01*
X91135214Y-40573293D01*
X91184623Y-40546884D01*
X91227932Y-40511341D01*
X91274520Y-40480212D01*
X91314141Y-40440591D01*
X91357449Y-40405049D01*
X91392991Y-40361741D01*
X91432612Y-40322120D01*
X91463741Y-40275532D01*
X91499284Y-40232223D01*
X91525693Y-40182814D01*
X91556824Y-40136224D01*
X91578269Y-40084451D01*
X91604676Y-40035047D01*
X91620937Y-39981442D01*
X91642383Y-39929667D01*
X91653315Y-39874706D01*
X91669577Y-39821099D01*
X91675068Y-39765347D01*
X91686000Y-39710388D01*
X91686000Y-39654352D01*
X91691491Y-39598600D01*
X91686000Y-39542848D01*
X91686000Y-39486812D01*
X91675068Y-39431853D01*
X91669577Y-39376101D01*
X91653315Y-39322494D01*
X91642383Y-39267533D01*
X91620937Y-39215758D01*
X91604676Y-39162153D01*
X91578269Y-39112749D01*
X91556824Y-39060976D01*
X91525693Y-39014386D01*
X91499284Y-38964977D01*
X91463741Y-38921668D01*
X91432612Y-38875080D01*
X91392991Y-38835459D01*
X91357449Y-38792151D01*
X91314141Y-38756609D01*
X91274520Y-38716988D01*
X91227932Y-38685859D01*
X91184623Y-38650316D01*
X91135214Y-38623907D01*
X91088624Y-38592776D01*
X91036851Y-38571331D01*
X90987447Y-38544924D01*
X90933842Y-38528663D01*
X90882067Y-38507217D01*
X90827106Y-38496285D01*
X90773499Y-38480023D01*
X90717747Y-38474532D01*
X90662788Y-38463600D01*
X43921551Y-38463600D01*
X43865800Y-38458109D01*
X43810048Y-38463600D01*
X43754012Y-38463600D01*
X43699053Y-38474532D01*
X43643301Y-38480023D01*
X43589694Y-38496285D01*
X43534733Y-38507217D01*
X43482958Y-38528663D01*
X43429353Y-38544924D01*
X43379949Y-38571331D01*
X43328176Y-38592776D01*
X43281586Y-38623907D01*
X43232177Y-38650316D01*
X43188868Y-38685859D01*
X43142280Y-38716988D01*
X43102659Y-38756609D01*
X43059351Y-38792151D01*
X43023808Y-38835460D01*
X42758788Y-39100480D01*
X42758788Y-27810491D01*
X43109924Y-27810491D01*
X43154575Y-27957700D01*
X43279759Y-28220521D01*
X43453812Y-28453870D01*
X43670045Y-28648779D01*
X43920148Y-28797758D01*
X44194509Y-28895082D01*
X44424400Y-28774415D01*
X44424400Y-27580601D01*
X44678400Y-27580601D01*
X44678400Y-28774415D01*
X44908291Y-28895082D01*
X45182652Y-28797758D01*
X45432755Y-28648779D01*
X45648988Y-28453870D01*
X45823041Y-28220521D01*
X45948225Y-27957700D01*
X45992876Y-27810491D01*
X45871555Y-27580601D01*
X44678400Y-27580601D01*
X44424400Y-27580601D01*
X43231245Y-27580601D01*
X43109924Y-27810491D01*
X42758788Y-27810491D01*
X42758788Y-25232562D01*
X42928902Y-25303026D01*
X43122426Y-25341520D01*
X43123468Y-25346759D01*
X43235410Y-25617012D01*
X43397925Y-25860233D01*
X43604768Y-26067076D01*
X43786934Y-26188796D01*
X43670045Y-26258423D01*
X43453812Y-26453332D01*
X43279759Y-26686681D01*
X43154575Y-26949502D01*
X43109924Y-27096711D01*
X43231245Y-27326601D01*
X44424400Y-27326601D01*
X44424400Y-27306601D01*
X44678400Y-27306601D01*
X44678400Y-27326601D01*
X45871555Y-27326601D01*
X45992876Y-27096711D01*
X45948225Y-26949502D01*
X45823041Y-26686681D01*
X45648988Y-26453332D01*
X45432755Y-26258423D01*
X45315866Y-26188796D01*
X45498032Y-26067076D01*
X45704875Y-25860233D01*
X45852796Y-25638854D01*
X46024461Y-25673000D01*
X46091403Y-25673000D01*
X46091402Y-34280549D01*
X45718352Y-34653600D01*
X45652432Y-34653600D01*
X45433153Y-34697217D01*
X45226596Y-34782776D01*
X45040700Y-34906988D01*
X44882608Y-35065080D01*
X44758396Y-35250976D01*
X44672837Y-35457533D01*
X44629220Y-35676812D01*
X44629220Y-35900388D01*
X44672837Y-36119667D01*
X44758396Y-36326224D01*
X44882608Y-36512120D01*
X45040700Y-36670212D01*
X45226596Y-36794424D01*
X45433153Y-36879983D01*
X45652432Y-36923600D01*
X45876008Y-36923600D01*
X46095287Y-36879983D01*
X46301844Y-36794424D01*
X46487740Y-36670212D01*
X46645832Y-36512120D01*
X46697964Y-36434098D01*
X46840712Y-36576846D01*
X47026608Y-36701058D01*
X47233165Y-36786617D01*
X47452444Y-36830234D01*
X47676020Y-36830234D01*
X47895299Y-36786617D01*
X48101856Y-36701058D01*
X48287752Y-36576846D01*
X48445844Y-36418754D01*
X48566754Y-36237800D01*
X48727388Y-36237800D01*
X48946667Y-36194183D01*
X49153224Y-36108624D01*
X49339120Y-35984412D01*
X49497212Y-35826320D01*
X49621424Y-35640424D01*
X49706983Y-35433867D01*
X49750600Y-35214588D01*
X49750600Y-35184563D01*
X49851087Y-35154081D01*
X49996146Y-35076545D01*
X50109238Y-34983733D01*
X50248896Y-35077049D01*
X50455453Y-35162608D01*
X50674732Y-35206225D01*
X50898308Y-35206225D01*
X51117587Y-35162608D01*
X51324144Y-35077049D01*
X51510040Y-34952837D01*
X51668132Y-34794745D01*
X51792344Y-34608849D01*
X51877903Y-34402292D01*
X51921520Y-34183013D01*
X51921520Y-33959437D01*
X51877903Y-33740158D01*
X51792344Y-33533601D01*
X51668132Y-33347705D01*
X51510040Y-33189613D01*
X51324144Y-33065401D01*
X51117587Y-32979842D01*
X51066398Y-32969660D01*
X51066398Y-28874469D01*
X51124508Y-28895082D01*
X51354399Y-28774415D01*
X51354399Y-27580601D01*
X51608399Y-27580601D01*
X51608399Y-28774415D01*
X51838290Y-28895082D01*
X52112651Y-28797758D01*
X52362754Y-28648779D01*
X52578987Y-28453870D01*
X52753040Y-28220521D01*
X52878224Y-27957700D01*
X52922875Y-27810491D01*
X56978524Y-27810491D01*
X57023175Y-27957700D01*
X57148359Y-28220521D01*
X57322412Y-28453870D01*
X57538645Y-28648779D01*
X57788748Y-28797758D01*
X58063109Y-28895082D01*
X58293000Y-28774415D01*
X58293000Y-27580601D01*
X57099845Y-27580601D01*
X56978524Y-27810491D01*
X52922875Y-27810491D01*
X52801554Y-27580601D01*
X51608399Y-27580601D01*
X51354399Y-27580601D01*
X51334399Y-27580601D01*
X51334399Y-27326601D01*
X51354399Y-27326601D01*
X51354399Y-27306601D01*
X51608399Y-27306601D01*
X51608399Y-27326601D01*
X52801554Y-27326601D01*
X52922875Y-27096711D01*
X52878224Y-26949502D01*
X52753040Y-26686681D01*
X52578987Y-26453332D01*
X52362754Y-26258423D01*
X52245865Y-26188796D01*
X52428031Y-26067076D01*
X52634874Y-25860233D01*
X52797389Y-25617012D01*
X52909331Y-25346759D01*
X52966399Y-25059861D01*
X52966399Y-24767341D01*
X52909331Y-24480443D01*
X52797389Y-24210190D01*
X52634874Y-23966969D01*
X52428031Y-23760126D01*
X52253639Y-23643601D01*
X52428031Y-23527076D01*
X52634874Y-23320233D01*
X52797389Y-23077012D01*
X52909331Y-22806759D01*
X52966399Y-22519861D01*
X52966399Y-22227341D01*
X52909331Y-21940443D01*
X52797389Y-21670190D01*
X52634874Y-21426969D01*
X52428031Y-21220126D01*
X52253639Y-21103601D01*
X52428031Y-20987076D01*
X52634874Y-20780233D01*
X52797389Y-20537012D01*
X52909331Y-20266759D01*
X52966399Y-19979861D01*
X52966399Y-19687341D01*
X52909331Y-19400443D01*
X52797389Y-19130190D01*
X52634874Y-18886969D01*
X52503019Y-18755114D01*
X52575579Y-18733103D01*
X52685893Y-18674138D01*
X52782584Y-18594786D01*
X52861936Y-18498095D01*
X52920901Y-18387781D01*
X52957211Y-18268083D01*
X52969471Y-18143601D01*
X52969471Y-16443601D01*
X56931928Y-16443601D01*
X56931928Y-18143601D01*
X56944188Y-18268083D01*
X56980498Y-18387781D01*
X57039463Y-18498095D01*
X57118815Y-18594786D01*
X57215506Y-18674138D01*
X57325820Y-18733103D01*
X57398380Y-18755114D01*
X57266525Y-18886969D01*
X57104010Y-19130190D01*
X56992068Y-19400443D01*
X56935000Y-19687341D01*
X56935000Y-19979861D01*
X56992068Y-20266759D01*
X57104010Y-20537012D01*
X57266525Y-20780233D01*
X57473368Y-20987076D01*
X57647760Y-21103601D01*
X57473368Y-21220126D01*
X57266525Y-21426969D01*
X57104010Y-21670190D01*
X56992068Y-21940443D01*
X56935000Y-22227341D01*
X56935000Y-22519861D01*
X56992068Y-22806759D01*
X57104010Y-23077012D01*
X57266525Y-23320233D01*
X57473368Y-23527076D01*
X57647760Y-23643601D01*
X57473368Y-23760126D01*
X57266525Y-23966969D01*
X57104010Y-24210190D01*
X56992068Y-24480443D01*
X56935000Y-24767341D01*
X56935000Y-25059861D01*
X56992068Y-25346759D01*
X57104010Y-25617012D01*
X57266525Y-25860233D01*
X57473368Y-26067076D01*
X57655534Y-26188796D01*
X57538645Y-26258423D01*
X57322412Y-26453332D01*
X57148359Y-26686681D01*
X57023175Y-26949502D01*
X56978524Y-27096711D01*
X57099845Y-27326601D01*
X58293000Y-27326601D01*
X58293000Y-27306601D01*
X58547000Y-27306601D01*
X58547000Y-27326601D01*
X58567000Y-27326601D01*
X58567000Y-27580601D01*
X58547000Y-27580601D01*
X58547000Y-28774415D01*
X58776891Y-28895082D01*
X58835002Y-28874468D01*
X58835002Y-33607444D01*
X58114209Y-34328238D01*
X58048288Y-34328238D01*
X57829009Y-34371855D01*
X57622452Y-34457414D01*
X57436556Y-34581626D01*
X57278464Y-34739718D01*
X57154252Y-34925614D01*
X57068693Y-35132171D01*
X57025076Y-35351450D01*
X57025076Y-35575026D01*
X57068693Y-35794305D01*
X57154252Y-36000862D01*
X57278464Y-36186758D01*
X57436556Y-36344850D01*
X57622452Y-36469062D01*
X57829009Y-36554621D01*
X58048288Y-36598238D01*
X58271864Y-36598238D01*
X58491143Y-36554621D01*
X58697700Y-36469062D01*
X58883596Y-36344850D01*
X59041688Y-36186758D01*
X59047342Y-36178296D01*
X59078475Y-36224890D01*
X59236567Y-36382982D01*
X59422463Y-36507194D01*
X59629020Y-36592753D01*
X59848299Y-36636370D01*
X60071875Y-36636370D01*
X60291154Y-36592753D01*
X60497711Y-36507194D01*
X60613816Y-36429615D01*
X60624484Y-36436743D01*
X60831041Y-36522302D01*
X61050320Y-36565919D01*
X61273896Y-36565919D01*
X61493175Y-36522302D01*
X61699732Y-36436743D01*
X61885628Y-36312531D01*
X62043720Y-36154439D01*
X62121008Y-36038770D01*
X62144200Y-36073479D01*
X62302292Y-36231571D01*
X62488188Y-36355783D01*
X62694745Y-36441342D01*
X62914024Y-36484959D01*
X63137600Y-36484959D01*
X63356879Y-36441342D01*
X63563436Y-36355783D01*
X63749332Y-36231571D01*
X63907424Y-36073479D01*
X64031636Y-35887583D01*
X64117195Y-35681026D01*
X64154729Y-35492325D01*
X69985914Y-35492325D01*
X69985914Y-35715901D01*
X70029531Y-35935180D01*
X70115090Y-36141737D01*
X70239302Y-36327633D01*
X70397394Y-36485725D01*
X70583290Y-36609937D01*
X70789847Y-36695496D01*
X71009126Y-36739113D01*
X71232702Y-36739113D01*
X71451981Y-36695496D01*
X71658538Y-36609937D01*
X71844434Y-36485725D01*
X72002526Y-36327633D01*
X72126738Y-36141737D01*
X72135061Y-36121645D01*
X72197406Y-36183990D01*
X72383302Y-36308202D01*
X72589859Y-36393761D01*
X72809138Y-36437378D01*
X73032714Y-36437378D01*
X73088203Y-36426341D01*
X73140019Y-36503889D01*
X73298111Y-36661981D01*
X73484007Y-36786193D01*
X73690564Y-36871752D01*
X73909843Y-36915369D01*
X74133419Y-36915369D01*
X74352698Y-36871752D01*
X74559255Y-36786193D01*
X74745151Y-36661981D01*
X74903243Y-36503889D01*
X75027455Y-36317993D01*
X75113014Y-36111436D01*
X75156631Y-35892157D01*
X75156631Y-35870140D01*
X75239298Y-35993860D01*
X75397390Y-36151952D01*
X75583286Y-36276164D01*
X75789843Y-36361723D01*
X76009122Y-36405340D01*
X76232698Y-36405340D01*
X76451977Y-36361723D01*
X76658534Y-36276164D01*
X76661569Y-36274136D01*
X83035734Y-36274136D01*
X83035734Y-36497712D01*
X83079351Y-36716991D01*
X83164910Y-36923548D01*
X83289122Y-37109444D01*
X83447214Y-37267536D01*
X83633110Y-37391748D01*
X83839667Y-37477307D01*
X84058946Y-37520924D01*
X84282522Y-37520924D01*
X84501801Y-37477307D01*
X84708358Y-37391748D01*
X84894254Y-37267536D01*
X85052346Y-37109444D01*
X85176558Y-36923548D01*
X85262117Y-36716991D01*
X85275624Y-36649086D01*
X85404693Y-36735327D01*
X85611250Y-36820886D01*
X85830529Y-36864503D01*
X86054105Y-36864503D01*
X86273384Y-36820886D01*
X86479941Y-36735327D01*
X86665837Y-36611115D01*
X86823929Y-36453023D01*
X86948141Y-36267127D01*
X87033700Y-36060570D01*
X87077317Y-35841291D01*
X87077317Y-35730766D01*
X87113099Y-35715945D01*
X87298995Y-35591733D01*
X87310458Y-35580270D01*
X87368721Y-35720929D01*
X87492933Y-35906825D01*
X87651025Y-36064917D01*
X87836921Y-36189129D01*
X88043478Y-36274688D01*
X88262757Y-36318305D01*
X88486333Y-36318305D01*
X88705612Y-36274688D01*
X88912169Y-36189129D01*
X89098065Y-36064917D01*
X89256157Y-35906825D01*
X89380369Y-35720929D01*
X89465928Y-35514372D01*
X89509545Y-35295093D01*
X89509545Y-35229172D01*
X91569627Y-33169091D01*
X91601491Y-33142941D01*
X91705836Y-33015796D01*
X91783372Y-32870737D01*
X91831118Y-32713339D01*
X91843200Y-32590669D01*
X91843200Y-32590659D01*
X91847239Y-32549651D01*
X91843200Y-32508643D01*
X91843200Y-28320591D01*
X91942612Y-28453870D01*
X92158845Y-28648779D01*
X92408948Y-28797758D01*
X92683309Y-28895082D01*
X92913200Y-28774415D01*
X92913200Y-27580601D01*
X92893200Y-27580601D01*
X92893200Y-27326601D01*
X92913200Y-27326601D01*
X92913200Y-27306601D01*
X93167200Y-27306601D01*
X93167200Y-27326601D01*
X93187200Y-27326601D01*
X93187200Y-27580601D01*
X93167200Y-27580601D01*
X93167200Y-28774415D01*
X93397091Y-28895082D01*
X93627600Y-28813313D01*
X93627601Y-33494467D01*
X93555588Y-33566480D01*
X93431376Y-33752376D01*
X93345817Y-33958933D01*
X93302200Y-34178212D01*
X93302200Y-34401788D01*
X93345817Y-34621067D01*
X93431376Y-34827624D01*
X93555588Y-35013520D01*
X93713680Y-35171612D01*
X93899576Y-35295824D01*
X94106133Y-35381383D01*
X94325412Y-35425000D01*
X94548988Y-35425000D01*
X94768267Y-35381383D01*
X94974824Y-35295824D01*
X95160720Y-35171612D01*
X95318812Y-35013520D01*
X95443024Y-34827624D01*
X95528583Y-34621067D01*
X95572200Y-34401788D01*
X95572200Y-34178212D01*
X95528583Y-33958933D01*
X95443024Y-33752376D01*
X95318812Y-33566480D01*
X95297600Y-33545268D01*
X95297600Y-26377008D01*
X95301639Y-26336000D01*
X95297600Y-26294992D01*
X95297600Y-26294982D01*
X95285518Y-26172312D01*
X95237772Y-26014914D01*
X95160236Y-25869855D01*
X95055891Y-25742710D01*
X95024028Y-25716561D01*
X94499007Y-25191541D01*
X94525200Y-25059861D01*
X94525200Y-24767341D01*
X94468132Y-24480443D01*
X94356190Y-24210190D01*
X94193675Y-23966969D01*
X93986832Y-23760126D01*
X93812440Y-23643601D01*
X93986832Y-23527076D01*
X94193675Y-23320233D01*
X94356190Y-23077012D01*
X94468132Y-22806759D01*
X94525200Y-22519861D01*
X94525200Y-22227341D01*
X94468132Y-21940443D01*
X94356190Y-21670190D01*
X94193675Y-21426969D01*
X93986832Y-21220126D01*
X93812440Y-21103601D01*
X93986832Y-20987076D01*
X94193675Y-20780233D01*
X94356190Y-20537012D01*
X94468132Y-20266759D01*
X94525200Y-19979861D01*
X94525200Y-19687341D01*
X94468132Y-19400443D01*
X94356190Y-19130190D01*
X94193675Y-18886969D01*
X94061820Y-18755114D01*
X94134380Y-18733103D01*
X94244694Y-18674138D01*
X94341385Y-18594786D01*
X94420737Y-18498095D01*
X94479702Y-18387781D01*
X94516012Y-18268083D01*
X94528272Y-18143601D01*
X94528272Y-16443601D01*
X94516012Y-16319119D01*
X94479702Y-16199421D01*
X94420737Y-16089107D01*
X94341385Y-15992416D01*
X94244694Y-15913064D01*
X94134380Y-15854099D01*
X94014682Y-15817789D01*
X93890200Y-15805529D01*
X92190200Y-15805529D01*
X92065718Y-15817789D01*
X91946020Y-15854099D01*
X91835706Y-15913064D01*
X91739015Y-15992416D01*
X91659663Y-16089107D01*
X91600698Y-16199421D01*
X91564388Y-16319119D01*
X91552128Y-16443601D01*
X91552128Y-16493247D01*
X91469113Y-16518429D01*
X91324054Y-16595965D01*
X91196909Y-16700310D01*
X91170763Y-16732169D01*
X89760978Y-18141955D01*
X89729109Y-18168110D01*
X89673930Y-18235347D01*
X89624764Y-18295256D01*
X89547228Y-18440315D01*
X89499482Y-18597713D01*
X89483360Y-18761401D01*
X89487400Y-18802420D01*
X89487401Y-30617326D01*
X88998400Y-31106327D01*
X88998400Y-18167419D01*
X89002440Y-18126400D01*
X88986318Y-17962712D01*
X88938572Y-17805314D01*
X88861036Y-17660255D01*
X88823639Y-17614687D01*
X88756691Y-17533110D01*
X88724827Y-17506961D01*
X87950046Y-16732180D01*
X87923891Y-16700310D01*
X87796746Y-16595965D01*
X87651687Y-16518429D01*
X87568672Y-16493247D01*
X87568672Y-16443601D01*
X87556412Y-16319119D01*
X87520102Y-16199421D01*
X87461137Y-16089107D01*
X87381785Y-15992416D01*
X87285094Y-15913064D01*
X87174780Y-15854099D01*
X87055082Y-15817789D01*
X86930600Y-15805529D01*
X85230600Y-15805529D01*
X85106118Y-15817789D01*
X84986420Y-15854099D01*
X84876106Y-15913064D01*
X84779415Y-15992416D01*
X84700063Y-16089107D01*
X84641098Y-16199421D01*
X84604788Y-16319119D01*
X84592528Y-16443601D01*
X84592528Y-18143601D01*
X84604788Y-18268083D01*
X84641098Y-18387781D01*
X84700063Y-18498095D01*
X84779415Y-18594786D01*
X84876106Y-18674138D01*
X84986420Y-18733103D01*
X85058980Y-18755114D01*
X84927125Y-18886969D01*
X84764610Y-19130190D01*
X84652668Y-19400443D01*
X84595600Y-19687341D01*
X84595600Y-19979861D01*
X84652668Y-20266759D01*
X84764610Y-20537012D01*
X84927125Y-20780233D01*
X85133968Y-20987076D01*
X85308360Y-21103601D01*
X85133968Y-21220126D01*
X84927125Y-21426969D01*
X84764610Y-21670190D01*
X84652668Y-21940443D01*
X84595600Y-22227341D01*
X84595600Y-22519861D01*
X84652668Y-22806759D01*
X84764610Y-23077012D01*
X84927125Y-23320233D01*
X85133968Y-23527076D01*
X85308360Y-23643601D01*
X85133968Y-23760126D01*
X84927125Y-23966969D01*
X84764610Y-24210190D01*
X84652668Y-24480443D01*
X84595600Y-24767341D01*
X84595600Y-25059861D01*
X84652668Y-25346759D01*
X84764610Y-25617012D01*
X84927125Y-25860233D01*
X85133968Y-26067076D01*
X85316134Y-26188796D01*
X85199245Y-26258423D01*
X84983012Y-26453332D01*
X84808959Y-26686681D01*
X84683775Y-26949502D01*
X84639124Y-27096711D01*
X84760445Y-27326601D01*
X85953600Y-27326601D01*
X85953600Y-27306601D01*
X86207600Y-27306601D01*
X86207600Y-27326601D01*
X86227600Y-27326601D01*
X86227600Y-27580601D01*
X86207600Y-27580601D01*
X86207600Y-28774415D01*
X86437491Y-28895082D01*
X86495602Y-28874468D01*
X86495602Y-31271729D01*
X83609313Y-34158020D01*
X83577443Y-34184175D01*
X83473099Y-34311320D01*
X83473098Y-34311321D01*
X83395562Y-34456380D01*
X83347816Y-34613778D01*
X83331694Y-34777466D01*
X83335734Y-34818485D01*
X83335735Y-35615791D01*
X83289122Y-35662404D01*
X83164910Y-35848300D01*
X83079351Y-36054857D01*
X83035734Y-36274136D01*
X76661569Y-36274136D01*
X76844430Y-36151952D01*
X77002522Y-35993860D01*
X77126734Y-35807964D01*
X77212293Y-35601407D01*
X77255910Y-35382128D01*
X77255910Y-35316207D01*
X78007820Y-34564299D01*
X78039679Y-34538153D01*
X78073376Y-34497094D01*
X78144024Y-34411008D01*
X78221560Y-34265949D01*
X78236360Y-34217161D01*
X78269306Y-34108551D01*
X78281388Y-33985881D01*
X78281388Y-33985880D01*
X78285428Y-33944862D01*
X78281388Y-33903844D01*
X78281388Y-28658514D01*
X78515148Y-28797758D01*
X78789509Y-28895082D01*
X79019400Y-28774415D01*
X79019400Y-27580601D01*
X79273400Y-27580601D01*
X79273400Y-28774415D01*
X79503291Y-28895082D01*
X79777652Y-28797758D01*
X80027755Y-28648779D01*
X80243988Y-28453870D01*
X80418041Y-28220521D01*
X80543225Y-27957700D01*
X80587876Y-27810491D01*
X84639124Y-27810491D01*
X84683775Y-27957700D01*
X84808959Y-28220521D01*
X84983012Y-28453870D01*
X85199245Y-28648779D01*
X85449348Y-28797758D01*
X85723709Y-28895082D01*
X85953600Y-28774415D01*
X85953600Y-27580601D01*
X84760445Y-27580601D01*
X84639124Y-27810491D01*
X80587876Y-27810491D01*
X80466555Y-27580601D01*
X79273400Y-27580601D01*
X79019400Y-27580601D01*
X78999400Y-27580601D01*
X78999400Y-27326601D01*
X79019400Y-27326601D01*
X79019400Y-27306601D01*
X79273400Y-27306601D01*
X79273400Y-27326601D01*
X80466555Y-27326601D01*
X80587876Y-27096711D01*
X80543225Y-26949502D01*
X80418041Y-26686681D01*
X80243988Y-26453332D01*
X80027755Y-26258423D01*
X79910866Y-26188796D01*
X80093032Y-26067076D01*
X80299875Y-25860233D01*
X80462390Y-25617012D01*
X80574332Y-25346759D01*
X80631400Y-25059861D01*
X80631400Y-24767341D01*
X80574332Y-24480443D01*
X80462390Y-24210190D01*
X80299875Y-23966969D01*
X80093032Y-23760126D01*
X79918640Y-23643601D01*
X80093032Y-23527076D01*
X80299875Y-23320233D01*
X80462390Y-23077012D01*
X80574332Y-22806759D01*
X80631400Y-22519861D01*
X80631400Y-22227341D01*
X80574332Y-21940443D01*
X80462390Y-21670190D01*
X80299875Y-21426969D01*
X80093032Y-21220126D01*
X79918640Y-21103601D01*
X80093032Y-20987076D01*
X80299875Y-20780233D01*
X80462390Y-20537012D01*
X80574332Y-20266759D01*
X80631400Y-19979861D01*
X80631400Y-19687341D01*
X80574332Y-19400443D01*
X80462390Y-19130190D01*
X80299875Y-18886969D01*
X80168020Y-18755114D01*
X80240580Y-18733103D01*
X80350894Y-18674138D01*
X80447585Y-18594786D01*
X80526937Y-18498095D01*
X80585902Y-18387781D01*
X80622212Y-18268083D01*
X80634472Y-18143601D01*
X80634472Y-16443601D01*
X80622212Y-16319119D01*
X80585902Y-16199421D01*
X80526937Y-16089107D01*
X80447585Y-15992416D01*
X80350894Y-15913064D01*
X80240580Y-15854099D01*
X80120882Y-15817789D01*
X79996400Y-15805529D01*
X78296400Y-15805529D01*
X78171918Y-15817789D01*
X78052220Y-15854099D01*
X77941906Y-15913064D01*
X77845215Y-15992416D01*
X77765863Y-16089107D01*
X77706898Y-16199421D01*
X77670588Y-16319119D01*
X77658328Y-16443601D01*
X77658328Y-16493247D01*
X77575313Y-16518429D01*
X77430254Y-16595965D01*
X77303109Y-16700310D01*
X77276958Y-16732175D01*
X76425979Y-17583155D01*
X76394109Y-17609310D01*
X76305408Y-17717394D01*
X76289764Y-17736456D01*
X76212228Y-17881515D01*
X76164482Y-18038913D01*
X76148360Y-18202601D01*
X76152400Y-18243620D01*
X76152401Y-23412997D01*
X76148741Y-23417457D01*
X76071205Y-23562516D01*
X76023459Y-23719914D01*
X76007337Y-23883602D01*
X76011377Y-23924621D01*
X76011378Y-32609753D01*
X75180800Y-33440332D01*
X75180800Y-18192819D01*
X75184840Y-18151800D01*
X75168718Y-17988112D01*
X75120972Y-17830714D01*
X75043436Y-17685655D01*
X75033800Y-17673913D01*
X74939091Y-17558510D01*
X74907227Y-17532361D01*
X74107046Y-16732180D01*
X74080891Y-16700310D01*
X73953746Y-16595965D01*
X73808687Y-16518429D01*
X73725672Y-16493247D01*
X73725672Y-16443601D01*
X73713412Y-16319119D01*
X73677102Y-16199421D01*
X73618137Y-16089107D01*
X73538785Y-15992416D01*
X73442094Y-15913064D01*
X73331780Y-15854099D01*
X73212082Y-15817789D01*
X73087600Y-15805529D01*
X71387600Y-15805529D01*
X71263118Y-15817789D01*
X71143420Y-15854099D01*
X71033106Y-15913064D01*
X70936415Y-15992416D01*
X70857063Y-16089107D01*
X70798098Y-16199421D01*
X70761788Y-16319119D01*
X70749528Y-16443601D01*
X70749528Y-18143601D01*
X70761788Y-18268083D01*
X70798098Y-18387781D01*
X70857063Y-18498095D01*
X70936415Y-18594786D01*
X71033106Y-18674138D01*
X71143420Y-18733103D01*
X71215980Y-18755114D01*
X71084125Y-18886969D01*
X70921610Y-19130190D01*
X70809668Y-19400443D01*
X70752600Y-19687341D01*
X70752600Y-19979861D01*
X70809668Y-20266759D01*
X70921610Y-20537012D01*
X71084125Y-20780233D01*
X71290968Y-20987076D01*
X71465360Y-21103601D01*
X71290968Y-21220126D01*
X71084125Y-21426969D01*
X70921610Y-21670190D01*
X70809668Y-21940443D01*
X70752600Y-22227341D01*
X70752600Y-22519861D01*
X70809668Y-22806759D01*
X70921610Y-23077012D01*
X71084125Y-23320233D01*
X71290968Y-23527076D01*
X71465360Y-23643601D01*
X71290968Y-23760126D01*
X71084125Y-23966969D01*
X70921610Y-24210190D01*
X70809668Y-24480443D01*
X70752600Y-24767341D01*
X70752600Y-25059861D01*
X70809668Y-25346759D01*
X70921610Y-25617012D01*
X71084125Y-25860233D01*
X71290968Y-26067076D01*
X71473134Y-26188796D01*
X71356245Y-26258423D01*
X71140012Y-26453332D01*
X70965959Y-26686681D01*
X70840775Y-26949502D01*
X70796124Y-27096711D01*
X70917445Y-27326601D01*
X72110600Y-27326601D01*
X72110600Y-27306601D01*
X72364600Y-27306601D01*
X72364600Y-27326601D01*
X72384600Y-27326601D01*
X72384600Y-27580601D01*
X72364600Y-27580601D01*
X72364600Y-28774415D01*
X72594491Y-28895082D01*
X72868852Y-28797758D01*
X72910790Y-28772777D01*
X72910790Y-32633369D01*
X71075047Y-34469113D01*
X71009126Y-34469113D01*
X70789847Y-34512730D01*
X70583290Y-34598289D01*
X70397394Y-34722501D01*
X70239302Y-34880593D01*
X70115090Y-35066489D01*
X70029531Y-35273046D01*
X69985914Y-35492325D01*
X64154729Y-35492325D01*
X64160812Y-35461747D01*
X64160812Y-35395827D01*
X64407444Y-35149196D01*
X64439302Y-35123051D01*
X64477469Y-35076545D01*
X64499941Y-35049162D01*
X64543647Y-34995906D01*
X64621183Y-34850847D01*
X64668929Y-34693449D01*
X64681011Y-34570779D01*
X64681011Y-34570778D01*
X64685051Y-34529760D01*
X64681011Y-34488742D01*
X64681011Y-28800902D01*
X64946509Y-28895082D01*
X65176400Y-28774415D01*
X65176400Y-27580601D01*
X65430400Y-27580601D01*
X65430400Y-28774415D01*
X65660291Y-28895082D01*
X65934652Y-28797758D01*
X66184755Y-28648779D01*
X66400988Y-28453870D01*
X66575041Y-28220521D01*
X66700225Y-27957700D01*
X66744876Y-27810491D01*
X70796124Y-27810491D01*
X70840775Y-27957700D01*
X70965959Y-28220521D01*
X71140012Y-28453870D01*
X71356245Y-28648779D01*
X71606348Y-28797758D01*
X71880709Y-28895082D01*
X72110600Y-28774415D01*
X72110600Y-27580601D01*
X70917445Y-27580601D01*
X70796124Y-27810491D01*
X66744876Y-27810491D01*
X66623555Y-27580601D01*
X65430400Y-27580601D01*
X65176400Y-27580601D01*
X65156400Y-27580601D01*
X65156400Y-27326601D01*
X65176400Y-27326601D01*
X65176400Y-27306601D01*
X65430400Y-27306601D01*
X65430400Y-27326601D01*
X66623555Y-27326601D01*
X66744876Y-27096711D01*
X66700225Y-26949502D01*
X66575041Y-26686681D01*
X66400988Y-26453332D01*
X66184755Y-26258423D01*
X66067866Y-26188796D01*
X66250032Y-26067076D01*
X66456875Y-25860233D01*
X66619390Y-25617012D01*
X66731332Y-25346759D01*
X66788400Y-25059861D01*
X66788400Y-24767341D01*
X66731332Y-24480443D01*
X66619390Y-24210190D01*
X66456875Y-23966969D01*
X66250032Y-23760126D01*
X66075640Y-23643601D01*
X66250032Y-23527076D01*
X66456875Y-23320233D01*
X66619390Y-23077012D01*
X66731332Y-22806759D01*
X66788400Y-22519861D01*
X66788400Y-22227341D01*
X66731332Y-21940443D01*
X66619390Y-21670190D01*
X66456875Y-21426969D01*
X66250032Y-21220126D01*
X66075640Y-21103601D01*
X66250032Y-20987076D01*
X66456875Y-20780233D01*
X66619390Y-20537012D01*
X66731332Y-20266759D01*
X66788400Y-19979861D01*
X66788400Y-19687341D01*
X66731332Y-19400443D01*
X66619390Y-19130190D01*
X66456875Y-18886969D01*
X66325020Y-18755114D01*
X66397580Y-18733103D01*
X66507894Y-18674138D01*
X66604585Y-18594786D01*
X66683937Y-18498095D01*
X66742902Y-18387781D01*
X66779212Y-18268083D01*
X66791472Y-18143601D01*
X66791472Y-16443601D01*
X66779212Y-16319119D01*
X66742902Y-16199421D01*
X66683937Y-16089107D01*
X66604585Y-15992416D01*
X66507894Y-15913064D01*
X66397580Y-15854099D01*
X66277882Y-15817789D01*
X66153400Y-15805529D01*
X64453400Y-15805529D01*
X64328918Y-15817789D01*
X64209220Y-15854099D01*
X64098906Y-15913064D01*
X64002215Y-15992416D01*
X63922863Y-16089107D01*
X63863898Y-16199421D01*
X63827588Y-16319119D01*
X63815328Y-16443601D01*
X63815328Y-16493247D01*
X63732313Y-16518429D01*
X63587254Y-16595965D01*
X63460109Y-16700310D01*
X63433963Y-16732169D01*
X61160000Y-19006134D01*
X61160000Y-17989619D01*
X61164040Y-17948601D01*
X61157433Y-17881514D01*
X61147918Y-17784912D01*
X61100172Y-17627514D01*
X61022636Y-17482455D01*
X60978574Y-17428765D01*
X60944439Y-17387171D01*
X60944437Y-17387169D01*
X60918291Y-17355310D01*
X60886432Y-17329165D01*
X60289445Y-16732179D01*
X60263291Y-16700310D01*
X60136146Y-16595965D01*
X59991087Y-16518429D01*
X59908072Y-16493247D01*
X59908072Y-16443601D01*
X59895812Y-16319119D01*
X59859502Y-16199421D01*
X59800537Y-16089107D01*
X59721185Y-15992416D01*
X59624494Y-15913064D01*
X59514180Y-15854099D01*
X59394482Y-15817789D01*
X59270000Y-15805529D01*
X57570000Y-15805529D01*
X57445518Y-15817789D01*
X57325820Y-15854099D01*
X57215506Y-15913064D01*
X57118815Y-15992416D01*
X57039463Y-16089107D01*
X56980498Y-16199421D01*
X56944188Y-16319119D01*
X56931928Y-16443601D01*
X52969471Y-16443601D01*
X52957211Y-16319119D01*
X52920901Y-16199421D01*
X52861936Y-16089107D01*
X52782584Y-15992416D01*
X52685893Y-15913064D01*
X52575579Y-15854099D01*
X52455881Y-15817789D01*
X52331399Y-15805529D01*
X50631399Y-15805529D01*
X50506917Y-15817789D01*
X50387219Y-15854099D01*
X50276905Y-15913064D01*
X50180214Y-15992416D01*
X50100862Y-16089107D01*
X50041897Y-16199421D01*
X50005587Y-16319119D01*
X49993327Y-16443601D01*
X49993327Y-16493247D01*
X49910312Y-16518429D01*
X49765253Y-16595965D01*
X49638108Y-16700310D01*
X49611957Y-16732175D01*
X48968578Y-17375554D01*
X48936709Y-17401709D01*
X48851970Y-17504965D01*
X48832364Y-17528855D01*
X48754828Y-17673914D01*
X48707082Y-17831312D01*
X48690960Y-17995000D01*
X48695000Y-18036019D01*
X48695001Y-33842531D01*
X48569732Y-33967800D01*
X48503812Y-33967800D01*
X48399232Y-33988602D01*
X48399232Y-24008092D01*
X48403271Y-23967084D01*
X48399232Y-23926076D01*
X48399232Y-23926066D01*
X48387150Y-23803396D01*
X48339404Y-23645998D01*
X48261868Y-23500939D01*
X48157523Y-23373794D01*
X48125653Y-23347639D01*
X47899233Y-23121219D01*
X47899233Y-18597452D01*
X47903273Y-18556434D01*
X47887151Y-18392746D01*
X47879126Y-18366289D01*
X47839405Y-18235347D01*
X47761869Y-18090288D01*
X47657524Y-17963143D01*
X47625665Y-17936997D01*
X46420845Y-16732179D01*
X46394691Y-16700310D01*
X46267546Y-16595965D01*
X46122487Y-16518429D01*
X46039472Y-16493247D01*
X46039472Y-16443601D01*
X46027212Y-16319119D01*
X45990902Y-16199421D01*
X45931937Y-16089107D01*
X45852585Y-15992416D01*
X45755894Y-15913064D01*
X45645580Y-15854099D01*
X45525882Y-15817789D01*
X45401400Y-15805529D01*
X43701400Y-15805529D01*
X43576918Y-15817789D01*
X43457220Y-15854099D01*
X43346906Y-15913064D01*
X43250215Y-15992416D01*
X43170863Y-16089107D01*
X43111898Y-16199421D01*
X43075588Y-16319119D01*
X43063328Y-16443601D01*
X43063328Y-18143601D01*
X43075588Y-18268083D01*
X43111898Y-18387781D01*
X43170863Y-18498095D01*
X43250215Y-18594786D01*
X43346906Y-18674138D01*
X43457220Y-18733103D01*
X43529780Y-18755114D01*
X43397925Y-18886969D01*
X43235410Y-19130190D01*
X43123468Y-19400443D01*
X43066400Y-19687341D01*
X43066400Y-19979861D01*
X43123468Y-20266759D01*
X43235410Y-20537012D01*
X43397925Y-20780233D01*
X43604768Y-20987076D01*
X43779160Y-21103601D01*
X43604768Y-21220126D01*
X43405903Y-21418992D01*
X43280974Y-21294063D01*
X43111456Y-21180795D01*
X42923098Y-21102774D01*
X42723139Y-21063000D01*
X42519261Y-21063000D01*
X42319302Y-21102774D01*
X42130944Y-21180795D01*
X41961426Y-21294063D01*
X41817263Y-21438226D01*
X41703995Y-21607744D01*
X41625974Y-21796102D01*
X41586200Y-21996061D01*
X41586200Y-22058199D01*
X41487790Y-22156609D01*
X41458787Y-22180411D01*
X41420273Y-22227341D01*
X41363814Y-22296136D01*
X41316069Y-22385460D01*
X41293242Y-22428166D01*
X41249785Y-22571427D01*
X41238788Y-22683080D01*
X41238788Y-22683090D01*
X41235112Y-22720412D01*
X41238788Y-22757734D01*
X41238789Y-53165060D01*
X41191144Y-53184795D01*
X41096800Y-53247833D01*
X41096800Y-14518309D01*
X41357330Y-14778839D01*
X41985446Y-15198533D01*
X42683372Y-15487623D01*
X43424285Y-15635000D01*
X44179715Y-15635000D01*
X44920628Y-15487623D01*
X45618554Y-15198533D01*
X46246670Y-14778839D01*
X46780839Y-14244670D01*
X47200533Y-13616554D01*
X47489623Y-12918628D01*
X47637000Y-12177715D01*
X47637000Y-11422285D01*
X47489623Y-10681372D01*
X47200533Y-9983446D01*
X46780839Y-9355330D01*
X46340509Y-8915000D01*
X91263691Y-8915000D01*
X90823361Y-9355330D01*
M02*
