G04 #@! TF.GenerationSoftware,KiCad,Pcbnew,(5.1.5)-3*
G04 #@! TF.CreationDate,2020-07-11T03:23:54+02:00*
G04 #@! TF.ProjectId,mixer Motor Driver board,6d697865-7220-44d6-9f74-6f7220447269,rev?*
G04 #@! TF.SameCoordinates,Original*
G04 #@! TF.FileFunction,Soldermask,Top*
G04 #@! TF.FilePolarity,Negative*
%FSLAX46Y46*%
G04 Gerber Fmt 4.6, Leading zero omitted, Abs format (unit mm)*
G04 Created by KiCad (PCBNEW (5.1.5)-3) date 2020-07-11 03:23:54*
%MOMM*%
%LPD*%
G04 APERTURE LIST*
%ADD10C,0.100000*%
G04 APERTURE END LIST*
D10*
G36*
X94436439Y-67611467D02*
G01*
X94750482Y-67673934D01*
X95342126Y-67919001D01*
X95874592Y-68274784D01*
X96327416Y-68727608D01*
X96683199Y-69260074D01*
X96928266Y-69851718D01*
X96949087Y-69956391D01*
X97053200Y-70479803D01*
X97053200Y-71120197D01*
X96998040Y-71397504D01*
X96928266Y-71748282D01*
X96683199Y-72339926D01*
X96474135Y-72652812D01*
X96364574Y-72816782D01*
X96327416Y-72872392D01*
X95874592Y-73325216D01*
X95342126Y-73680999D01*
X94750482Y-73926066D01*
X94436439Y-73988533D01*
X94122397Y-74051000D01*
X93482003Y-74051000D01*
X93167961Y-73988533D01*
X92853918Y-73926066D01*
X92262274Y-73680999D01*
X91729808Y-73325216D01*
X91276984Y-72872392D01*
X91239827Y-72816782D01*
X91130265Y-72652812D01*
X90921201Y-72339926D01*
X90676134Y-71748282D01*
X90606360Y-71397504D01*
X90551200Y-71120197D01*
X90551200Y-70479803D01*
X90655313Y-69956391D01*
X90676134Y-69851718D01*
X90921201Y-69260074D01*
X91276984Y-68727608D01*
X91729808Y-68274784D01*
X92262274Y-67919001D01*
X92853918Y-67673934D01*
X93167961Y-67611467D01*
X93482003Y-67549000D01*
X94122397Y-67549000D01*
X94436439Y-67611467D01*
G37*
G36*
X44436239Y-67611467D02*
G01*
X44750282Y-67673934D01*
X45341926Y-67919001D01*
X45874392Y-68274784D01*
X46327216Y-68727608D01*
X46682999Y-69260074D01*
X46928066Y-69851718D01*
X46948887Y-69956391D01*
X47053000Y-70479803D01*
X47053000Y-71120197D01*
X46997840Y-71397504D01*
X46928066Y-71748282D01*
X46682999Y-72339926D01*
X46473935Y-72652812D01*
X46364374Y-72816782D01*
X46327216Y-72872392D01*
X45874392Y-73325216D01*
X45341926Y-73680999D01*
X44750282Y-73926066D01*
X44436239Y-73988533D01*
X44122197Y-74051000D01*
X43481803Y-74051000D01*
X43167761Y-73988533D01*
X42853718Y-73926066D01*
X42262074Y-73680999D01*
X41729608Y-73325216D01*
X41276784Y-72872392D01*
X41239627Y-72816782D01*
X41130065Y-72652812D01*
X40921001Y-72339926D01*
X40675934Y-71748282D01*
X40606160Y-71397504D01*
X40551000Y-71120197D01*
X40551000Y-70479803D01*
X40655113Y-69956391D01*
X40675934Y-69851718D01*
X40921001Y-69260074D01*
X41276784Y-68727608D01*
X41729608Y-68274784D01*
X42262074Y-67919001D01*
X42853718Y-67673934D01*
X43167761Y-67611467D01*
X43481803Y-67549000D01*
X44122197Y-67549000D01*
X44436239Y-67611467D01*
G37*
G36*
X50659600Y-73291000D02*
G01*
X48857600Y-73291000D01*
X48857600Y-71489000D01*
X50659600Y-71489000D01*
X50659600Y-73291000D01*
G37*
G36*
X54952112Y-71493927D02*
G01*
X55101412Y-71523624D01*
X55265384Y-71591544D01*
X55412954Y-71690147D01*
X55538453Y-71815646D01*
X55637056Y-71963216D01*
X55704976Y-72127188D01*
X55739600Y-72301259D01*
X55739600Y-72478741D01*
X55704976Y-72652812D01*
X55637056Y-72816784D01*
X55538453Y-72964354D01*
X55412954Y-73089853D01*
X55265384Y-73188456D01*
X55101412Y-73256376D01*
X54952112Y-73286073D01*
X54927342Y-73291000D01*
X54749858Y-73291000D01*
X54725088Y-73286073D01*
X54575788Y-73256376D01*
X54411816Y-73188456D01*
X54264246Y-73089853D01*
X54138747Y-72964354D01*
X54040144Y-72816784D01*
X53972224Y-72652812D01*
X53937600Y-72478741D01*
X53937600Y-72301259D01*
X53972224Y-72127188D01*
X54040144Y-71963216D01*
X54138747Y-71815646D01*
X54264246Y-71690147D01*
X54411816Y-71591544D01*
X54575788Y-71523624D01*
X54725088Y-71493927D01*
X54749858Y-71489000D01*
X54927342Y-71489000D01*
X54952112Y-71493927D01*
G37*
G36*
X57492112Y-71493927D02*
G01*
X57641412Y-71523624D01*
X57805384Y-71591544D01*
X57952954Y-71690147D01*
X58078453Y-71815646D01*
X58177056Y-71963216D01*
X58244976Y-72127188D01*
X58279600Y-72301259D01*
X58279600Y-72478741D01*
X58244976Y-72652812D01*
X58177056Y-72816784D01*
X58078453Y-72964354D01*
X57952954Y-73089853D01*
X57805384Y-73188456D01*
X57641412Y-73256376D01*
X57492112Y-73286073D01*
X57467342Y-73291000D01*
X57289858Y-73291000D01*
X57265088Y-73286073D01*
X57115788Y-73256376D01*
X56951816Y-73188456D01*
X56804246Y-73089853D01*
X56678747Y-72964354D01*
X56580144Y-72816784D01*
X56512224Y-72652812D01*
X56477600Y-72478741D01*
X56477600Y-72301259D01*
X56512224Y-72127188D01*
X56580144Y-71963216D01*
X56678747Y-71815646D01*
X56804246Y-71690147D01*
X56951816Y-71591544D01*
X57115788Y-71523624D01*
X57265088Y-71493927D01*
X57289858Y-71489000D01*
X57467342Y-71489000D01*
X57492112Y-71493927D01*
G37*
G36*
X60032112Y-71493927D02*
G01*
X60181412Y-71523624D01*
X60345384Y-71591544D01*
X60492954Y-71690147D01*
X60618453Y-71815646D01*
X60717056Y-71963216D01*
X60784976Y-72127188D01*
X60819600Y-72301259D01*
X60819600Y-72478741D01*
X60784976Y-72652812D01*
X60717056Y-72816784D01*
X60618453Y-72964354D01*
X60492954Y-73089853D01*
X60345384Y-73188456D01*
X60181412Y-73256376D01*
X60032112Y-73286073D01*
X60007342Y-73291000D01*
X59829858Y-73291000D01*
X59805088Y-73286073D01*
X59655788Y-73256376D01*
X59491816Y-73188456D01*
X59344246Y-73089853D01*
X59218747Y-72964354D01*
X59120144Y-72816784D01*
X59052224Y-72652812D01*
X59017600Y-72478741D01*
X59017600Y-72301259D01*
X59052224Y-72127188D01*
X59120144Y-71963216D01*
X59218747Y-71815646D01*
X59344246Y-71690147D01*
X59491816Y-71591544D01*
X59655788Y-71523624D01*
X59805088Y-71493927D01*
X59829858Y-71489000D01*
X60007342Y-71489000D01*
X60032112Y-71493927D01*
G37*
G36*
X62572112Y-71493927D02*
G01*
X62721412Y-71523624D01*
X62885384Y-71591544D01*
X63032954Y-71690147D01*
X63158453Y-71815646D01*
X63257056Y-71963216D01*
X63324976Y-72127188D01*
X63359600Y-72301259D01*
X63359600Y-72478741D01*
X63324976Y-72652812D01*
X63257056Y-72816784D01*
X63158453Y-72964354D01*
X63032954Y-73089853D01*
X62885384Y-73188456D01*
X62721412Y-73256376D01*
X62572112Y-73286073D01*
X62547342Y-73291000D01*
X62369858Y-73291000D01*
X62345088Y-73286073D01*
X62195788Y-73256376D01*
X62031816Y-73188456D01*
X61884246Y-73089853D01*
X61758747Y-72964354D01*
X61660144Y-72816784D01*
X61592224Y-72652812D01*
X61557600Y-72478741D01*
X61557600Y-72301259D01*
X61592224Y-72127188D01*
X61660144Y-71963216D01*
X61758747Y-71815646D01*
X61884246Y-71690147D01*
X62031816Y-71591544D01*
X62195788Y-71523624D01*
X62345088Y-71493927D01*
X62369858Y-71489000D01*
X62547342Y-71489000D01*
X62572112Y-71493927D01*
G37*
G36*
X65112112Y-71493927D02*
G01*
X65261412Y-71523624D01*
X65425384Y-71591544D01*
X65572954Y-71690147D01*
X65698453Y-71815646D01*
X65797056Y-71963216D01*
X65864976Y-72127188D01*
X65899600Y-72301259D01*
X65899600Y-72478741D01*
X65864976Y-72652812D01*
X65797056Y-72816784D01*
X65698453Y-72964354D01*
X65572954Y-73089853D01*
X65425384Y-73188456D01*
X65261412Y-73256376D01*
X65112112Y-73286073D01*
X65087342Y-73291000D01*
X64909858Y-73291000D01*
X64885088Y-73286073D01*
X64735788Y-73256376D01*
X64571816Y-73188456D01*
X64424246Y-73089853D01*
X64298747Y-72964354D01*
X64200144Y-72816784D01*
X64132224Y-72652812D01*
X64097600Y-72478741D01*
X64097600Y-72301259D01*
X64132224Y-72127188D01*
X64200144Y-71963216D01*
X64298747Y-71815646D01*
X64424246Y-71690147D01*
X64571816Y-71591544D01*
X64735788Y-71523624D01*
X64885088Y-71493927D01*
X64909858Y-71489000D01*
X65087342Y-71489000D01*
X65112112Y-71493927D01*
G37*
G36*
X52412112Y-71493927D02*
G01*
X52561412Y-71523624D01*
X52725384Y-71591544D01*
X52872954Y-71690147D01*
X52998453Y-71815646D01*
X53097056Y-71963216D01*
X53164976Y-72127188D01*
X53199600Y-72301259D01*
X53199600Y-72478741D01*
X53164976Y-72652812D01*
X53097056Y-72816784D01*
X52998453Y-72964354D01*
X52872954Y-73089853D01*
X52725384Y-73188456D01*
X52561412Y-73256376D01*
X52412112Y-73286073D01*
X52387342Y-73291000D01*
X52209858Y-73291000D01*
X52185088Y-73286073D01*
X52035788Y-73256376D01*
X51871816Y-73188456D01*
X51724246Y-73089853D01*
X51598747Y-72964354D01*
X51500144Y-72816784D01*
X51432224Y-72652812D01*
X51397600Y-72478741D01*
X51397600Y-72301259D01*
X51432224Y-72127188D01*
X51500144Y-71963216D01*
X51598747Y-71815646D01*
X51724246Y-71690147D01*
X51871816Y-71591544D01*
X52035788Y-71523624D01*
X52185088Y-71493927D01*
X52209858Y-71489000D01*
X52387342Y-71489000D01*
X52412112Y-71493927D01*
G37*
G36*
X71909000Y-71959800D02*
G01*
X68807000Y-71959800D01*
X68807000Y-68857800D01*
X71909000Y-68857800D01*
X71909000Y-71959800D01*
G37*
G36*
X75740585Y-68887602D02*
G01*
X75890410Y-68917404D01*
X76172674Y-69034321D01*
X76426705Y-69204059D01*
X76642741Y-69420095D01*
X76812479Y-69674126D01*
X76929396Y-69956390D01*
X76989000Y-70256040D01*
X76989000Y-70561560D01*
X76929396Y-70861210D01*
X76812479Y-71143474D01*
X76642741Y-71397505D01*
X76426705Y-71613541D01*
X76172674Y-71783279D01*
X75890410Y-71900196D01*
X75740585Y-71929998D01*
X75590761Y-71959800D01*
X75285239Y-71959800D01*
X75135415Y-71929998D01*
X74985590Y-71900196D01*
X74703326Y-71783279D01*
X74449295Y-71613541D01*
X74233259Y-71397505D01*
X74063521Y-71143474D01*
X73946604Y-70861210D01*
X73887000Y-70561560D01*
X73887000Y-70256040D01*
X73946604Y-69956390D01*
X74063521Y-69674126D01*
X74233259Y-69420095D01*
X74449295Y-69204059D01*
X74703326Y-69034321D01*
X74985590Y-68917404D01*
X75135415Y-68887602D01*
X75285239Y-68857800D01*
X75590761Y-68857800D01*
X75740585Y-68887602D01*
G37*
G36*
X52412112Y-67810927D02*
G01*
X52561412Y-67840624D01*
X52725384Y-67908544D01*
X52872954Y-68007147D01*
X52998453Y-68132646D01*
X53097056Y-68280216D01*
X53164976Y-68444188D01*
X53199600Y-68618259D01*
X53199600Y-68795741D01*
X53164976Y-68969812D01*
X53097056Y-69133784D01*
X52998453Y-69281354D01*
X52872954Y-69406853D01*
X52725384Y-69505456D01*
X52561412Y-69573376D01*
X52412112Y-69603073D01*
X52387342Y-69608000D01*
X52209858Y-69608000D01*
X52185088Y-69603073D01*
X52035788Y-69573376D01*
X51871816Y-69505456D01*
X51724246Y-69406853D01*
X51598747Y-69281354D01*
X51500144Y-69133784D01*
X51432224Y-68969812D01*
X51397600Y-68795741D01*
X51397600Y-68618259D01*
X51432224Y-68444188D01*
X51500144Y-68280216D01*
X51598747Y-68132646D01*
X51724246Y-68007147D01*
X51871816Y-67908544D01*
X52035788Y-67840624D01*
X52185088Y-67810927D01*
X52209858Y-67806000D01*
X52387342Y-67806000D01*
X52412112Y-67810927D01*
G37*
G36*
X54952112Y-67810927D02*
G01*
X55101412Y-67840624D01*
X55265384Y-67908544D01*
X55412954Y-68007147D01*
X55538453Y-68132646D01*
X55637056Y-68280216D01*
X55704976Y-68444188D01*
X55739600Y-68618259D01*
X55739600Y-68795741D01*
X55704976Y-68969812D01*
X55637056Y-69133784D01*
X55538453Y-69281354D01*
X55412954Y-69406853D01*
X55265384Y-69505456D01*
X55101412Y-69573376D01*
X54952112Y-69603073D01*
X54927342Y-69608000D01*
X54749858Y-69608000D01*
X54725088Y-69603073D01*
X54575788Y-69573376D01*
X54411816Y-69505456D01*
X54264246Y-69406853D01*
X54138747Y-69281354D01*
X54040144Y-69133784D01*
X53972224Y-68969812D01*
X53937600Y-68795741D01*
X53937600Y-68618259D01*
X53972224Y-68444188D01*
X54040144Y-68280216D01*
X54138747Y-68132646D01*
X54264246Y-68007147D01*
X54411816Y-67908544D01*
X54575788Y-67840624D01*
X54725088Y-67810927D01*
X54749858Y-67806000D01*
X54927342Y-67806000D01*
X54952112Y-67810927D01*
G37*
G36*
X50659600Y-69608000D02*
G01*
X48857600Y-69608000D01*
X48857600Y-67806000D01*
X50659600Y-67806000D01*
X50659600Y-69608000D01*
G37*
G36*
X57492112Y-67810927D02*
G01*
X57641412Y-67840624D01*
X57805384Y-67908544D01*
X57952954Y-68007147D01*
X58078453Y-68132646D01*
X58177056Y-68280216D01*
X58244976Y-68444188D01*
X58279600Y-68618259D01*
X58279600Y-68795741D01*
X58244976Y-68969812D01*
X58177056Y-69133784D01*
X58078453Y-69281354D01*
X57952954Y-69406853D01*
X57805384Y-69505456D01*
X57641412Y-69573376D01*
X57492112Y-69603073D01*
X57467342Y-69608000D01*
X57289858Y-69608000D01*
X57265088Y-69603073D01*
X57115788Y-69573376D01*
X56951816Y-69505456D01*
X56804246Y-69406853D01*
X56678747Y-69281354D01*
X56580144Y-69133784D01*
X56512224Y-68969812D01*
X56477600Y-68795741D01*
X56477600Y-68618259D01*
X56512224Y-68444188D01*
X56580144Y-68280216D01*
X56678747Y-68132646D01*
X56804246Y-68007147D01*
X56951816Y-67908544D01*
X57115788Y-67840624D01*
X57265088Y-67810927D01*
X57289858Y-67806000D01*
X57467342Y-67806000D01*
X57492112Y-67810927D01*
G37*
G36*
X60032112Y-67810927D02*
G01*
X60181412Y-67840624D01*
X60345384Y-67908544D01*
X60492954Y-68007147D01*
X60618453Y-68132646D01*
X60717056Y-68280216D01*
X60784976Y-68444188D01*
X60819600Y-68618259D01*
X60819600Y-68795741D01*
X60784976Y-68969812D01*
X60717056Y-69133784D01*
X60618453Y-69281354D01*
X60492954Y-69406853D01*
X60345384Y-69505456D01*
X60181412Y-69573376D01*
X60032112Y-69603073D01*
X60007342Y-69608000D01*
X59829858Y-69608000D01*
X59805088Y-69603073D01*
X59655788Y-69573376D01*
X59491816Y-69505456D01*
X59344246Y-69406853D01*
X59218747Y-69281354D01*
X59120144Y-69133784D01*
X59052224Y-68969812D01*
X59017600Y-68795741D01*
X59017600Y-68618259D01*
X59052224Y-68444188D01*
X59120144Y-68280216D01*
X59218747Y-68132646D01*
X59344246Y-68007147D01*
X59491816Y-67908544D01*
X59655788Y-67840624D01*
X59805088Y-67810927D01*
X59829858Y-67806000D01*
X60007342Y-67806000D01*
X60032112Y-67810927D01*
G37*
G36*
X62572112Y-67810927D02*
G01*
X62721412Y-67840624D01*
X62885384Y-67908544D01*
X63032954Y-68007147D01*
X63158453Y-68132646D01*
X63257056Y-68280216D01*
X63324976Y-68444188D01*
X63359600Y-68618259D01*
X63359600Y-68795741D01*
X63324976Y-68969812D01*
X63257056Y-69133784D01*
X63158453Y-69281354D01*
X63032954Y-69406853D01*
X62885384Y-69505456D01*
X62721412Y-69573376D01*
X62572112Y-69603073D01*
X62547342Y-69608000D01*
X62369858Y-69608000D01*
X62345088Y-69603073D01*
X62195788Y-69573376D01*
X62031816Y-69505456D01*
X61884246Y-69406853D01*
X61758747Y-69281354D01*
X61660144Y-69133784D01*
X61592224Y-68969812D01*
X61557600Y-68795741D01*
X61557600Y-68618259D01*
X61592224Y-68444188D01*
X61660144Y-68280216D01*
X61758747Y-68132646D01*
X61884246Y-68007147D01*
X62031816Y-67908544D01*
X62195788Y-67840624D01*
X62345088Y-67810927D01*
X62369858Y-67806000D01*
X62547342Y-67806000D01*
X62572112Y-67810927D01*
G37*
G36*
X65112112Y-67810927D02*
G01*
X65261412Y-67840624D01*
X65425384Y-67908544D01*
X65572954Y-68007147D01*
X65698453Y-68132646D01*
X65797056Y-68280216D01*
X65864976Y-68444188D01*
X65899600Y-68618259D01*
X65899600Y-68795741D01*
X65864976Y-68969812D01*
X65797056Y-69133784D01*
X65698453Y-69281354D01*
X65572954Y-69406853D01*
X65425384Y-69505456D01*
X65261412Y-69573376D01*
X65112112Y-69603073D01*
X65087342Y-69608000D01*
X64909858Y-69608000D01*
X64885088Y-69603073D01*
X64735788Y-69573376D01*
X64571816Y-69505456D01*
X64424246Y-69406853D01*
X64298747Y-69281354D01*
X64200144Y-69133784D01*
X64132224Y-68969812D01*
X64097600Y-68795741D01*
X64097600Y-68618259D01*
X64132224Y-68444188D01*
X64200144Y-68280216D01*
X64298747Y-68132646D01*
X64424246Y-68007147D01*
X64571816Y-67908544D01*
X64735788Y-67840624D01*
X64885088Y-67810927D01*
X64909858Y-67806000D01*
X65087342Y-67806000D01*
X65112112Y-67810927D01*
G37*
G36*
X80047312Y-62247128D02*
G01*
X80196612Y-62276825D01*
X80360584Y-62344745D01*
X80508154Y-62443348D01*
X80633653Y-62568847D01*
X80732256Y-62716417D01*
X80800176Y-62880389D01*
X80834800Y-63054460D01*
X80834800Y-63231942D01*
X80800176Y-63406013D01*
X80732256Y-63569985D01*
X80633653Y-63717555D01*
X80508154Y-63843054D01*
X80360584Y-63941657D01*
X80196612Y-64009577D01*
X80047312Y-64039274D01*
X80022542Y-64044201D01*
X79845058Y-64044201D01*
X79820288Y-64039274D01*
X79670988Y-64009577D01*
X79507016Y-63941657D01*
X79359446Y-63843054D01*
X79233947Y-63717555D01*
X79135344Y-63569985D01*
X79067424Y-63406013D01*
X79032800Y-63231942D01*
X79032800Y-63054460D01*
X79067424Y-62880389D01*
X79135344Y-62716417D01*
X79233947Y-62568847D01*
X79359446Y-62443348D01*
X79507016Y-62344745D01*
X79670988Y-62276825D01*
X79820288Y-62247128D01*
X79845058Y-62242201D01*
X80022542Y-62242201D01*
X80047312Y-62247128D01*
G37*
G36*
X57187312Y-62247128D02*
G01*
X57336612Y-62276825D01*
X57500584Y-62344745D01*
X57648154Y-62443348D01*
X57773653Y-62568847D01*
X57872256Y-62716417D01*
X57940176Y-62880389D01*
X57974800Y-63054460D01*
X57974800Y-63231942D01*
X57940176Y-63406013D01*
X57872256Y-63569985D01*
X57773653Y-63717555D01*
X57648154Y-63843054D01*
X57500584Y-63941657D01*
X57336612Y-64009577D01*
X57187312Y-64039274D01*
X57162542Y-64044201D01*
X56985058Y-64044201D01*
X56960288Y-64039274D01*
X56810988Y-64009577D01*
X56647016Y-63941657D01*
X56499446Y-63843054D01*
X56373947Y-63717555D01*
X56275344Y-63569985D01*
X56207424Y-63406013D01*
X56172800Y-63231942D01*
X56172800Y-63054460D01*
X56207424Y-62880389D01*
X56275344Y-62716417D01*
X56373947Y-62568847D01*
X56499446Y-62443348D01*
X56647016Y-62344745D01*
X56810988Y-62276825D01*
X56960288Y-62247128D01*
X56985058Y-62242201D01*
X57162542Y-62242201D01*
X57187312Y-62247128D01*
G37*
G36*
X52107312Y-62247128D02*
G01*
X52256612Y-62276825D01*
X52420584Y-62344745D01*
X52568154Y-62443348D01*
X52693653Y-62568847D01*
X52792256Y-62716417D01*
X52860176Y-62880389D01*
X52894800Y-63054460D01*
X52894800Y-63231942D01*
X52860176Y-63406013D01*
X52792256Y-63569985D01*
X52693653Y-63717555D01*
X52568154Y-63843054D01*
X52420584Y-63941657D01*
X52256612Y-64009577D01*
X52107312Y-64039274D01*
X52082542Y-64044201D01*
X51905058Y-64044201D01*
X51880288Y-64039274D01*
X51730988Y-64009577D01*
X51567016Y-63941657D01*
X51419446Y-63843054D01*
X51293947Y-63717555D01*
X51195344Y-63569985D01*
X51127424Y-63406013D01*
X51092800Y-63231942D01*
X51092800Y-63054460D01*
X51127424Y-62880389D01*
X51195344Y-62716417D01*
X51293947Y-62568847D01*
X51419446Y-62443348D01*
X51567016Y-62344745D01*
X51730988Y-62276825D01*
X51880288Y-62247128D01*
X51905058Y-62242201D01*
X52082542Y-62242201D01*
X52107312Y-62247128D01*
G37*
G36*
X49567312Y-62247128D02*
G01*
X49716612Y-62276825D01*
X49880584Y-62344745D01*
X50028154Y-62443348D01*
X50153653Y-62568847D01*
X50252256Y-62716417D01*
X50320176Y-62880389D01*
X50354800Y-63054460D01*
X50354800Y-63231942D01*
X50320176Y-63406013D01*
X50252256Y-63569985D01*
X50153653Y-63717555D01*
X50028154Y-63843054D01*
X49880584Y-63941657D01*
X49716612Y-64009577D01*
X49567312Y-64039274D01*
X49542542Y-64044201D01*
X49365058Y-64044201D01*
X49340288Y-64039274D01*
X49190988Y-64009577D01*
X49027016Y-63941657D01*
X48879446Y-63843054D01*
X48753947Y-63717555D01*
X48655344Y-63569985D01*
X48587424Y-63406013D01*
X48552800Y-63231942D01*
X48552800Y-63054460D01*
X48587424Y-62880389D01*
X48655344Y-62716417D01*
X48753947Y-62568847D01*
X48879446Y-62443348D01*
X49027016Y-62344745D01*
X49190988Y-62276825D01*
X49340288Y-62247128D01*
X49365058Y-62242201D01*
X49542542Y-62242201D01*
X49567312Y-62247128D01*
G37*
G36*
X47027312Y-62247128D02*
G01*
X47176612Y-62276825D01*
X47340584Y-62344745D01*
X47488154Y-62443348D01*
X47613653Y-62568847D01*
X47712256Y-62716417D01*
X47780176Y-62880389D01*
X47814800Y-63054460D01*
X47814800Y-63231942D01*
X47780176Y-63406013D01*
X47712256Y-63569985D01*
X47613653Y-63717555D01*
X47488154Y-63843054D01*
X47340584Y-63941657D01*
X47176612Y-64009577D01*
X47027312Y-64039274D01*
X47002542Y-64044201D01*
X46825058Y-64044201D01*
X46800288Y-64039274D01*
X46650988Y-64009577D01*
X46487016Y-63941657D01*
X46339446Y-63843054D01*
X46213947Y-63717555D01*
X46115344Y-63569985D01*
X46047424Y-63406013D01*
X46012800Y-63231942D01*
X46012800Y-63054460D01*
X46047424Y-62880389D01*
X46115344Y-62716417D01*
X46213947Y-62568847D01*
X46339446Y-62443348D01*
X46487016Y-62344745D01*
X46650988Y-62276825D01*
X46800288Y-62247128D01*
X46825058Y-62242201D01*
X47002542Y-62242201D01*
X47027312Y-62247128D01*
G37*
G36*
X44487312Y-62247128D02*
G01*
X44636612Y-62276825D01*
X44800584Y-62344745D01*
X44948154Y-62443348D01*
X45073653Y-62568847D01*
X45172256Y-62716417D01*
X45240176Y-62880389D01*
X45274800Y-63054460D01*
X45274800Y-63231942D01*
X45240176Y-63406013D01*
X45172256Y-63569985D01*
X45073653Y-63717555D01*
X44948154Y-63843054D01*
X44800584Y-63941657D01*
X44636612Y-64009577D01*
X44487312Y-64039274D01*
X44462542Y-64044201D01*
X44285058Y-64044201D01*
X44260288Y-64039274D01*
X44110988Y-64009577D01*
X43947016Y-63941657D01*
X43799446Y-63843054D01*
X43673947Y-63717555D01*
X43575344Y-63569985D01*
X43507424Y-63406013D01*
X43472800Y-63231942D01*
X43472800Y-63054460D01*
X43507424Y-62880389D01*
X43575344Y-62716417D01*
X43673947Y-62568847D01*
X43799446Y-62443348D01*
X43947016Y-62344745D01*
X44110988Y-62276825D01*
X44260288Y-62247128D01*
X44285058Y-62242201D01*
X44462542Y-62242201D01*
X44487312Y-62247128D01*
G37*
G36*
X54647312Y-62247128D02*
G01*
X54796612Y-62276825D01*
X54960584Y-62344745D01*
X55108154Y-62443348D01*
X55233653Y-62568847D01*
X55332256Y-62716417D01*
X55400176Y-62880389D01*
X55434800Y-63054460D01*
X55434800Y-63231942D01*
X55400176Y-63406013D01*
X55332256Y-63569985D01*
X55233653Y-63717555D01*
X55108154Y-63843054D01*
X54960584Y-63941657D01*
X54796612Y-64009577D01*
X54647312Y-64039274D01*
X54622542Y-64044201D01*
X54445058Y-64044201D01*
X54420288Y-64039274D01*
X54270988Y-64009577D01*
X54107016Y-63941657D01*
X53959446Y-63843054D01*
X53833947Y-63717555D01*
X53735344Y-63569985D01*
X53667424Y-63406013D01*
X53632800Y-63231942D01*
X53632800Y-63054460D01*
X53667424Y-62880389D01*
X53735344Y-62716417D01*
X53833947Y-62568847D01*
X53959446Y-62443348D01*
X54107016Y-62344745D01*
X54270988Y-62276825D01*
X54420288Y-62247128D01*
X54445058Y-62242201D01*
X54622542Y-62242201D01*
X54647312Y-62247128D01*
G37*
G36*
X93534800Y-64044201D02*
G01*
X91732800Y-64044201D01*
X91732800Y-62242201D01*
X93534800Y-62242201D01*
X93534800Y-64044201D01*
G37*
G36*
X87667312Y-62247128D02*
G01*
X87816612Y-62276825D01*
X87980584Y-62344745D01*
X88128154Y-62443348D01*
X88253653Y-62568847D01*
X88352256Y-62716417D01*
X88420176Y-62880389D01*
X88454800Y-63054460D01*
X88454800Y-63231942D01*
X88420176Y-63406013D01*
X88352256Y-63569985D01*
X88253653Y-63717555D01*
X88128154Y-63843054D01*
X87980584Y-63941657D01*
X87816612Y-64009577D01*
X87667312Y-64039274D01*
X87642542Y-64044201D01*
X87465058Y-64044201D01*
X87440288Y-64039274D01*
X87290988Y-64009577D01*
X87127016Y-63941657D01*
X86979446Y-63843054D01*
X86853947Y-63717555D01*
X86755344Y-63569985D01*
X86687424Y-63406013D01*
X86652800Y-63231942D01*
X86652800Y-63054460D01*
X86687424Y-62880389D01*
X86755344Y-62716417D01*
X86853947Y-62568847D01*
X86979446Y-62443348D01*
X87127016Y-62344745D01*
X87290988Y-62276825D01*
X87440288Y-62247128D01*
X87465058Y-62242201D01*
X87642542Y-62242201D01*
X87667312Y-62247128D01*
G37*
G36*
X85127312Y-62247128D02*
G01*
X85276612Y-62276825D01*
X85440584Y-62344745D01*
X85588154Y-62443348D01*
X85713653Y-62568847D01*
X85812256Y-62716417D01*
X85880176Y-62880389D01*
X85914800Y-63054460D01*
X85914800Y-63231942D01*
X85880176Y-63406013D01*
X85812256Y-63569985D01*
X85713653Y-63717555D01*
X85588154Y-63843054D01*
X85440584Y-63941657D01*
X85276612Y-64009577D01*
X85127312Y-64039274D01*
X85102542Y-64044201D01*
X84925058Y-64044201D01*
X84900288Y-64039274D01*
X84750988Y-64009577D01*
X84587016Y-63941657D01*
X84439446Y-63843054D01*
X84313947Y-63717555D01*
X84215344Y-63569985D01*
X84147424Y-63406013D01*
X84112800Y-63231942D01*
X84112800Y-63054460D01*
X84147424Y-62880389D01*
X84215344Y-62716417D01*
X84313947Y-62568847D01*
X84439446Y-62443348D01*
X84587016Y-62344745D01*
X84750988Y-62276825D01*
X84900288Y-62247128D01*
X84925058Y-62242201D01*
X85102542Y-62242201D01*
X85127312Y-62247128D01*
G37*
G36*
X82587312Y-62247128D02*
G01*
X82736612Y-62276825D01*
X82900584Y-62344745D01*
X83048154Y-62443348D01*
X83173653Y-62568847D01*
X83272256Y-62716417D01*
X83340176Y-62880389D01*
X83374800Y-63054460D01*
X83374800Y-63231942D01*
X83340176Y-63406013D01*
X83272256Y-63569985D01*
X83173653Y-63717555D01*
X83048154Y-63843054D01*
X82900584Y-63941657D01*
X82736612Y-64009577D01*
X82587312Y-64039274D01*
X82562542Y-64044201D01*
X82385058Y-64044201D01*
X82360288Y-64039274D01*
X82210988Y-64009577D01*
X82047016Y-63941657D01*
X81899446Y-63843054D01*
X81773947Y-63717555D01*
X81675344Y-63569985D01*
X81607424Y-63406013D01*
X81572800Y-63231942D01*
X81572800Y-63054460D01*
X81607424Y-62880389D01*
X81675344Y-62716417D01*
X81773947Y-62568847D01*
X81899446Y-62443348D01*
X82047016Y-62344745D01*
X82210988Y-62276825D01*
X82360288Y-62247128D01*
X82385058Y-62242201D01*
X82562542Y-62242201D01*
X82587312Y-62247128D01*
G37*
G36*
X62267312Y-62247128D02*
G01*
X62416612Y-62276825D01*
X62580584Y-62344745D01*
X62728154Y-62443348D01*
X62853653Y-62568847D01*
X62952256Y-62716417D01*
X63020176Y-62880389D01*
X63054800Y-63054460D01*
X63054800Y-63231942D01*
X63020176Y-63406013D01*
X62952256Y-63569985D01*
X62853653Y-63717555D01*
X62728154Y-63843054D01*
X62580584Y-63941657D01*
X62416612Y-64009577D01*
X62267312Y-64039274D01*
X62242542Y-64044201D01*
X62065058Y-64044201D01*
X62040288Y-64039274D01*
X61890988Y-64009577D01*
X61727016Y-63941657D01*
X61579446Y-63843054D01*
X61453947Y-63717555D01*
X61355344Y-63569985D01*
X61287424Y-63406013D01*
X61252800Y-63231942D01*
X61252800Y-63054460D01*
X61287424Y-62880389D01*
X61355344Y-62716417D01*
X61453947Y-62568847D01*
X61579446Y-62443348D01*
X61727016Y-62344745D01*
X61890988Y-62276825D01*
X62040288Y-62247128D01*
X62065058Y-62242201D01*
X62242542Y-62242201D01*
X62267312Y-62247128D01*
G37*
G36*
X64807312Y-62247128D02*
G01*
X64956612Y-62276825D01*
X65120584Y-62344745D01*
X65268154Y-62443348D01*
X65393653Y-62568847D01*
X65492256Y-62716417D01*
X65560176Y-62880389D01*
X65594800Y-63054460D01*
X65594800Y-63231942D01*
X65560176Y-63406013D01*
X65492256Y-63569985D01*
X65393653Y-63717555D01*
X65268154Y-63843054D01*
X65120584Y-63941657D01*
X64956612Y-64009577D01*
X64807312Y-64039274D01*
X64782542Y-64044201D01*
X64605058Y-64044201D01*
X64580288Y-64039274D01*
X64430988Y-64009577D01*
X64267016Y-63941657D01*
X64119446Y-63843054D01*
X63993947Y-63717555D01*
X63895344Y-63569985D01*
X63827424Y-63406013D01*
X63792800Y-63231942D01*
X63792800Y-63054460D01*
X63827424Y-62880389D01*
X63895344Y-62716417D01*
X63993947Y-62568847D01*
X64119446Y-62443348D01*
X64267016Y-62344745D01*
X64430988Y-62276825D01*
X64580288Y-62247128D01*
X64605058Y-62242201D01*
X64782542Y-62242201D01*
X64807312Y-62247128D01*
G37*
G36*
X90207312Y-62247128D02*
G01*
X90356612Y-62276825D01*
X90520584Y-62344745D01*
X90668154Y-62443348D01*
X90793653Y-62568847D01*
X90892256Y-62716417D01*
X90960176Y-62880389D01*
X90994800Y-63054460D01*
X90994800Y-63231942D01*
X90960176Y-63406013D01*
X90892256Y-63569985D01*
X90793653Y-63717555D01*
X90668154Y-63843054D01*
X90520584Y-63941657D01*
X90356612Y-64009577D01*
X90207312Y-64039274D01*
X90182542Y-64044201D01*
X90005058Y-64044201D01*
X89980288Y-64039274D01*
X89830988Y-64009577D01*
X89667016Y-63941657D01*
X89519446Y-63843054D01*
X89393947Y-63717555D01*
X89295344Y-63569985D01*
X89227424Y-63406013D01*
X89192800Y-63231942D01*
X89192800Y-63054460D01*
X89227424Y-62880389D01*
X89295344Y-62716417D01*
X89393947Y-62568847D01*
X89519446Y-62443348D01*
X89667016Y-62344745D01*
X89830988Y-62276825D01*
X89980288Y-62247128D01*
X90005058Y-62242201D01*
X90182542Y-62242201D01*
X90207312Y-62247128D01*
G37*
G36*
X59727312Y-62247128D02*
G01*
X59876612Y-62276825D01*
X60040584Y-62344745D01*
X60188154Y-62443348D01*
X60313653Y-62568847D01*
X60412256Y-62716417D01*
X60480176Y-62880389D01*
X60514800Y-63054460D01*
X60514800Y-63231942D01*
X60480176Y-63406013D01*
X60412256Y-63569985D01*
X60313653Y-63717555D01*
X60188154Y-63843054D01*
X60040584Y-63941657D01*
X59876612Y-64009577D01*
X59727312Y-64039274D01*
X59702542Y-64044201D01*
X59525058Y-64044201D01*
X59500288Y-64039274D01*
X59350988Y-64009577D01*
X59187016Y-63941657D01*
X59039446Y-63843054D01*
X58913947Y-63717555D01*
X58815344Y-63569985D01*
X58747424Y-63406013D01*
X58712800Y-63231942D01*
X58712800Y-63054460D01*
X58747424Y-62880389D01*
X58815344Y-62716417D01*
X58913947Y-62568847D01*
X59039446Y-62443348D01*
X59187016Y-62344745D01*
X59350988Y-62276825D01*
X59500288Y-62247128D01*
X59525058Y-62242201D01*
X59702542Y-62242201D01*
X59727312Y-62247128D01*
G37*
G36*
X67347312Y-62247128D02*
G01*
X67496612Y-62276825D01*
X67660584Y-62344745D01*
X67808154Y-62443348D01*
X67933653Y-62568847D01*
X68032256Y-62716417D01*
X68100176Y-62880389D01*
X68134800Y-63054460D01*
X68134800Y-63231942D01*
X68100176Y-63406013D01*
X68032256Y-63569985D01*
X67933653Y-63717555D01*
X67808154Y-63843054D01*
X67660584Y-63941657D01*
X67496612Y-64009577D01*
X67347312Y-64039274D01*
X67322542Y-64044201D01*
X67145058Y-64044201D01*
X67120288Y-64039274D01*
X66970988Y-64009577D01*
X66807016Y-63941657D01*
X66659446Y-63843054D01*
X66533947Y-63717555D01*
X66435344Y-63569985D01*
X66367424Y-63406013D01*
X66332800Y-63231942D01*
X66332800Y-63054460D01*
X66367424Y-62880389D01*
X66435344Y-62716417D01*
X66533947Y-62568847D01*
X66659446Y-62443348D01*
X66807016Y-62344745D01*
X66970988Y-62276825D01*
X67120288Y-62247128D01*
X67145058Y-62242201D01*
X67322542Y-62242201D01*
X67347312Y-62247128D01*
G37*
G36*
X69887312Y-62247128D02*
G01*
X70036612Y-62276825D01*
X70200584Y-62344745D01*
X70348154Y-62443348D01*
X70473653Y-62568847D01*
X70572256Y-62716417D01*
X70640176Y-62880389D01*
X70674800Y-63054460D01*
X70674800Y-63231942D01*
X70640176Y-63406013D01*
X70572256Y-63569985D01*
X70473653Y-63717555D01*
X70348154Y-63843054D01*
X70200584Y-63941657D01*
X70036612Y-64009577D01*
X69887312Y-64039274D01*
X69862542Y-64044201D01*
X69685058Y-64044201D01*
X69660288Y-64039274D01*
X69510988Y-64009577D01*
X69347016Y-63941657D01*
X69199446Y-63843054D01*
X69073947Y-63717555D01*
X68975344Y-63569985D01*
X68907424Y-63406013D01*
X68872800Y-63231942D01*
X68872800Y-63054460D01*
X68907424Y-62880389D01*
X68975344Y-62716417D01*
X69073947Y-62568847D01*
X69199446Y-62443348D01*
X69347016Y-62344745D01*
X69510988Y-62276825D01*
X69660288Y-62247128D01*
X69685058Y-62242201D01*
X69862542Y-62242201D01*
X69887312Y-62247128D01*
G37*
G36*
X72427312Y-62247128D02*
G01*
X72576612Y-62276825D01*
X72740584Y-62344745D01*
X72888154Y-62443348D01*
X73013653Y-62568847D01*
X73112256Y-62716417D01*
X73180176Y-62880389D01*
X73214800Y-63054460D01*
X73214800Y-63231942D01*
X73180176Y-63406013D01*
X73112256Y-63569985D01*
X73013653Y-63717555D01*
X72888154Y-63843054D01*
X72740584Y-63941657D01*
X72576612Y-64009577D01*
X72427312Y-64039274D01*
X72402542Y-64044201D01*
X72225058Y-64044201D01*
X72200288Y-64039274D01*
X72050988Y-64009577D01*
X71887016Y-63941657D01*
X71739446Y-63843054D01*
X71613947Y-63717555D01*
X71515344Y-63569985D01*
X71447424Y-63406013D01*
X71412800Y-63231942D01*
X71412800Y-63054460D01*
X71447424Y-62880389D01*
X71515344Y-62716417D01*
X71613947Y-62568847D01*
X71739446Y-62443348D01*
X71887016Y-62344745D01*
X72050988Y-62276825D01*
X72200288Y-62247128D01*
X72225058Y-62242201D01*
X72402542Y-62242201D01*
X72427312Y-62247128D01*
G37*
G36*
X74967312Y-62247128D02*
G01*
X75116612Y-62276825D01*
X75280584Y-62344745D01*
X75428154Y-62443348D01*
X75553653Y-62568847D01*
X75652256Y-62716417D01*
X75720176Y-62880389D01*
X75754800Y-63054460D01*
X75754800Y-63231942D01*
X75720176Y-63406013D01*
X75652256Y-63569985D01*
X75553653Y-63717555D01*
X75428154Y-63843054D01*
X75280584Y-63941657D01*
X75116612Y-64009577D01*
X74967312Y-64039274D01*
X74942542Y-64044201D01*
X74765058Y-64044201D01*
X74740288Y-64039274D01*
X74590988Y-64009577D01*
X74427016Y-63941657D01*
X74279446Y-63843054D01*
X74153947Y-63717555D01*
X74055344Y-63569985D01*
X73987424Y-63406013D01*
X73952800Y-63231942D01*
X73952800Y-63054460D01*
X73987424Y-62880389D01*
X74055344Y-62716417D01*
X74153947Y-62568847D01*
X74279446Y-62443348D01*
X74427016Y-62344745D01*
X74590988Y-62276825D01*
X74740288Y-62247128D01*
X74765058Y-62242201D01*
X74942542Y-62242201D01*
X74967312Y-62247128D01*
G37*
G36*
X77507312Y-62247128D02*
G01*
X77656612Y-62276825D01*
X77820584Y-62344745D01*
X77968154Y-62443348D01*
X78093653Y-62568847D01*
X78192256Y-62716417D01*
X78260176Y-62880389D01*
X78294800Y-63054460D01*
X78294800Y-63231942D01*
X78260176Y-63406013D01*
X78192256Y-63569985D01*
X78093653Y-63717555D01*
X77968154Y-63843054D01*
X77820584Y-63941657D01*
X77656612Y-64009577D01*
X77507312Y-64039274D01*
X77482542Y-64044201D01*
X77305058Y-64044201D01*
X77280288Y-64039274D01*
X77130988Y-64009577D01*
X76967016Y-63941657D01*
X76819446Y-63843054D01*
X76693947Y-63717555D01*
X76595344Y-63569985D01*
X76527424Y-63406013D01*
X76492800Y-63231942D01*
X76492800Y-63054460D01*
X76527424Y-62880389D01*
X76595344Y-62716417D01*
X76693947Y-62568847D01*
X76819446Y-62443348D01*
X76967016Y-62344745D01*
X77130988Y-62276825D01*
X77280288Y-62247128D01*
X77305058Y-62242201D01*
X77482542Y-62242201D01*
X77507312Y-62247128D01*
G37*
G36*
X49765074Y-59197465D02*
G01*
X49802767Y-59208899D01*
X49837503Y-59227466D01*
X49867948Y-59252452D01*
X49892934Y-59282897D01*
X49911501Y-59317633D01*
X49922935Y-59355326D01*
X49927400Y-59400661D01*
X49927400Y-60487339D01*
X49922935Y-60532674D01*
X49911501Y-60570367D01*
X49892934Y-60605103D01*
X49867948Y-60635548D01*
X49837503Y-60660534D01*
X49802767Y-60679101D01*
X49765074Y-60690535D01*
X49719739Y-60695000D01*
X48883061Y-60695000D01*
X48837726Y-60690535D01*
X48800033Y-60679101D01*
X48765297Y-60660534D01*
X48734852Y-60635548D01*
X48709866Y-60605103D01*
X48691299Y-60570367D01*
X48679865Y-60532674D01*
X48675400Y-60487339D01*
X48675400Y-59400661D01*
X48679865Y-59355326D01*
X48691299Y-59317633D01*
X48709866Y-59282897D01*
X48734852Y-59252452D01*
X48765297Y-59227466D01*
X48800033Y-59208899D01*
X48837726Y-59197465D01*
X48883061Y-59193000D01*
X49719739Y-59193000D01*
X49765074Y-59197465D01*
G37*
G36*
X47715074Y-59197465D02*
G01*
X47752767Y-59208899D01*
X47787503Y-59227466D01*
X47817948Y-59252452D01*
X47842934Y-59282897D01*
X47861501Y-59317633D01*
X47872935Y-59355326D01*
X47877400Y-59400661D01*
X47877400Y-60487339D01*
X47872935Y-60532674D01*
X47861501Y-60570367D01*
X47842934Y-60605103D01*
X47817948Y-60635548D01*
X47787503Y-60660534D01*
X47752767Y-60679101D01*
X47715074Y-60690535D01*
X47669739Y-60695000D01*
X46833061Y-60695000D01*
X46787726Y-60690535D01*
X46750033Y-60679101D01*
X46715297Y-60660534D01*
X46684852Y-60635548D01*
X46659866Y-60605103D01*
X46641299Y-60570367D01*
X46629865Y-60532674D01*
X46625400Y-60487339D01*
X46625400Y-59400661D01*
X46629865Y-59355326D01*
X46641299Y-59317633D01*
X46659866Y-59282897D01*
X46684852Y-59252452D01*
X46715297Y-59227466D01*
X46750033Y-59208899D01*
X46787726Y-59197465D01*
X46833061Y-59193000D01*
X47669739Y-59193000D01*
X47715074Y-59197465D01*
G37*
G36*
X92912274Y-50383665D02*
G01*
X92949967Y-50395099D01*
X92984703Y-50413666D01*
X93015148Y-50438652D01*
X93040134Y-50469097D01*
X93058701Y-50503833D01*
X93070135Y-50541526D01*
X93074600Y-50586861D01*
X93074600Y-51673539D01*
X93070135Y-51718874D01*
X93058701Y-51756567D01*
X93040134Y-51791303D01*
X93015148Y-51821748D01*
X92984703Y-51846734D01*
X92949967Y-51865301D01*
X92912274Y-51876735D01*
X92866939Y-51881200D01*
X92030261Y-51881200D01*
X91984926Y-51876735D01*
X91947233Y-51865301D01*
X91912497Y-51846734D01*
X91882052Y-51821748D01*
X91857066Y-51791303D01*
X91838499Y-51756567D01*
X91827065Y-51718874D01*
X91822600Y-51673539D01*
X91822600Y-50586861D01*
X91827065Y-50541526D01*
X91838499Y-50503833D01*
X91857066Y-50469097D01*
X91882052Y-50438652D01*
X91912497Y-50413666D01*
X91947233Y-50395099D01*
X91984926Y-50383665D01*
X92030261Y-50379200D01*
X92866939Y-50379200D01*
X92912274Y-50383665D01*
G37*
G36*
X90862274Y-50383665D02*
G01*
X90899967Y-50395099D01*
X90934703Y-50413666D01*
X90965148Y-50438652D01*
X90990134Y-50469097D01*
X91008701Y-50503833D01*
X91020135Y-50541526D01*
X91024600Y-50586861D01*
X91024600Y-51673539D01*
X91020135Y-51718874D01*
X91008701Y-51756567D01*
X90990134Y-51791303D01*
X90965148Y-51821748D01*
X90934703Y-51846734D01*
X90899967Y-51865301D01*
X90862274Y-51876735D01*
X90816939Y-51881200D01*
X89980261Y-51881200D01*
X89934926Y-51876735D01*
X89897233Y-51865301D01*
X89862497Y-51846734D01*
X89832052Y-51821748D01*
X89807066Y-51791303D01*
X89788499Y-51756567D01*
X89777065Y-51718874D01*
X89772600Y-51673539D01*
X89772600Y-50586861D01*
X89777065Y-50541526D01*
X89788499Y-50503833D01*
X89807066Y-50469097D01*
X89832052Y-50438652D01*
X89862497Y-50413666D01*
X89897233Y-50395099D01*
X89934926Y-50383665D01*
X89980261Y-50379200D01*
X90816939Y-50379200D01*
X90862274Y-50383665D01*
G37*
G36*
X69887312Y-47008327D02*
G01*
X70036612Y-47038024D01*
X70200584Y-47105944D01*
X70348154Y-47204547D01*
X70473653Y-47330046D01*
X70572256Y-47477616D01*
X70640176Y-47641588D01*
X70674800Y-47815659D01*
X70674800Y-47993141D01*
X70640176Y-48167212D01*
X70572256Y-48331184D01*
X70473653Y-48478754D01*
X70348154Y-48604253D01*
X70200584Y-48702856D01*
X70036612Y-48770776D01*
X69887312Y-48800473D01*
X69862542Y-48805400D01*
X69685058Y-48805400D01*
X69660288Y-48800473D01*
X69510988Y-48770776D01*
X69347016Y-48702856D01*
X69199446Y-48604253D01*
X69073947Y-48478754D01*
X68975344Y-48331184D01*
X68907424Y-48167212D01*
X68872800Y-47993141D01*
X68872800Y-47815659D01*
X68907424Y-47641588D01*
X68975344Y-47477616D01*
X69073947Y-47330046D01*
X69199446Y-47204547D01*
X69347016Y-47105944D01*
X69510988Y-47038024D01*
X69660288Y-47008327D01*
X69685058Y-47003400D01*
X69862542Y-47003400D01*
X69887312Y-47008327D01*
G37*
G36*
X72427312Y-47008327D02*
G01*
X72576612Y-47038024D01*
X72740584Y-47105944D01*
X72888154Y-47204547D01*
X73013653Y-47330046D01*
X73112256Y-47477616D01*
X73180176Y-47641588D01*
X73214800Y-47815659D01*
X73214800Y-47993141D01*
X73180176Y-48167212D01*
X73112256Y-48331184D01*
X73013653Y-48478754D01*
X72888154Y-48604253D01*
X72740584Y-48702856D01*
X72576612Y-48770776D01*
X72427312Y-48800473D01*
X72402542Y-48805400D01*
X72225058Y-48805400D01*
X72200288Y-48800473D01*
X72050988Y-48770776D01*
X71887016Y-48702856D01*
X71739446Y-48604253D01*
X71613947Y-48478754D01*
X71515344Y-48331184D01*
X71447424Y-48167212D01*
X71412800Y-47993141D01*
X71412800Y-47815659D01*
X71447424Y-47641588D01*
X71515344Y-47477616D01*
X71613947Y-47330046D01*
X71739446Y-47204547D01*
X71887016Y-47105944D01*
X72050988Y-47038024D01*
X72200288Y-47008327D01*
X72225058Y-47003400D01*
X72402542Y-47003400D01*
X72427312Y-47008327D01*
G37*
G36*
X74967312Y-47008327D02*
G01*
X75116612Y-47038024D01*
X75280584Y-47105944D01*
X75428154Y-47204547D01*
X75553653Y-47330046D01*
X75652256Y-47477616D01*
X75720176Y-47641588D01*
X75754800Y-47815659D01*
X75754800Y-47993141D01*
X75720176Y-48167212D01*
X75652256Y-48331184D01*
X75553653Y-48478754D01*
X75428154Y-48604253D01*
X75280584Y-48702856D01*
X75116612Y-48770776D01*
X74967312Y-48800473D01*
X74942542Y-48805400D01*
X74765058Y-48805400D01*
X74740288Y-48800473D01*
X74590988Y-48770776D01*
X74427016Y-48702856D01*
X74279446Y-48604253D01*
X74153947Y-48478754D01*
X74055344Y-48331184D01*
X73987424Y-48167212D01*
X73952800Y-47993141D01*
X73952800Y-47815659D01*
X73987424Y-47641588D01*
X74055344Y-47477616D01*
X74153947Y-47330046D01*
X74279446Y-47204547D01*
X74427016Y-47105944D01*
X74590988Y-47038024D01*
X74740288Y-47008327D01*
X74765058Y-47003400D01*
X74942542Y-47003400D01*
X74967312Y-47008327D01*
G37*
G36*
X77507312Y-47008327D02*
G01*
X77656612Y-47038024D01*
X77820584Y-47105944D01*
X77968154Y-47204547D01*
X78093653Y-47330046D01*
X78192256Y-47477616D01*
X78260176Y-47641588D01*
X78294800Y-47815659D01*
X78294800Y-47993141D01*
X78260176Y-48167212D01*
X78192256Y-48331184D01*
X78093653Y-48478754D01*
X77968154Y-48604253D01*
X77820584Y-48702856D01*
X77656612Y-48770776D01*
X77507312Y-48800473D01*
X77482542Y-48805400D01*
X77305058Y-48805400D01*
X77280288Y-48800473D01*
X77130988Y-48770776D01*
X76967016Y-48702856D01*
X76819446Y-48604253D01*
X76693947Y-48478754D01*
X76595344Y-48331184D01*
X76527424Y-48167212D01*
X76492800Y-47993141D01*
X76492800Y-47815659D01*
X76527424Y-47641588D01*
X76595344Y-47477616D01*
X76693947Y-47330046D01*
X76819446Y-47204547D01*
X76967016Y-47105944D01*
X77130988Y-47038024D01*
X77280288Y-47008327D01*
X77305058Y-47003400D01*
X77482542Y-47003400D01*
X77507312Y-47008327D01*
G37*
G36*
X80047312Y-47008327D02*
G01*
X80196612Y-47038024D01*
X80360584Y-47105944D01*
X80508154Y-47204547D01*
X80633653Y-47330046D01*
X80732256Y-47477616D01*
X80800176Y-47641588D01*
X80834800Y-47815659D01*
X80834800Y-47993141D01*
X80800176Y-48167212D01*
X80732256Y-48331184D01*
X80633653Y-48478754D01*
X80508154Y-48604253D01*
X80360584Y-48702856D01*
X80196612Y-48770776D01*
X80047312Y-48800473D01*
X80022542Y-48805400D01*
X79845058Y-48805400D01*
X79820288Y-48800473D01*
X79670988Y-48770776D01*
X79507016Y-48702856D01*
X79359446Y-48604253D01*
X79233947Y-48478754D01*
X79135344Y-48331184D01*
X79067424Y-48167212D01*
X79032800Y-47993141D01*
X79032800Y-47815659D01*
X79067424Y-47641588D01*
X79135344Y-47477616D01*
X79233947Y-47330046D01*
X79359446Y-47204547D01*
X79507016Y-47105944D01*
X79670988Y-47038024D01*
X79820288Y-47008327D01*
X79845058Y-47003400D01*
X80022542Y-47003400D01*
X80047312Y-47008327D01*
G37*
G36*
X82587312Y-47008327D02*
G01*
X82736612Y-47038024D01*
X82900584Y-47105944D01*
X83048154Y-47204547D01*
X83173653Y-47330046D01*
X83272256Y-47477616D01*
X83340176Y-47641588D01*
X83374800Y-47815659D01*
X83374800Y-47993141D01*
X83340176Y-48167212D01*
X83272256Y-48331184D01*
X83173653Y-48478754D01*
X83048154Y-48604253D01*
X82900584Y-48702856D01*
X82736612Y-48770776D01*
X82587312Y-48800473D01*
X82562542Y-48805400D01*
X82385058Y-48805400D01*
X82360288Y-48800473D01*
X82210988Y-48770776D01*
X82047016Y-48702856D01*
X81899446Y-48604253D01*
X81773947Y-48478754D01*
X81675344Y-48331184D01*
X81607424Y-48167212D01*
X81572800Y-47993141D01*
X81572800Y-47815659D01*
X81607424Y-47641588D01*
X81675344Y-47477616D01*
X81773947Y-47330046D01*
X81899446Y-47204547D01*
X82047016Y-47105944D01*
X82210988Y-47038024D01*
X82360288Y-47008327D01*
X82385058Y-47003400D01*
X82562542Y-47003400D01*
X82587312Y-47008327D01*
G37*
G36*
X85127312Y-47008327D02*
G01*
X85276612Y-47038024D01*
X85440584Y-47105944D01*
X85588154Y-47204547D01*
X85713653Y-47330046D01*
X85812256Y-47477616D01*
X85880176Y-47641588D01*
X85914800Y-47815659D01*
X85914800Y-47993141D01*
X85880176Y-48167212D01*
X85812256Y-48331184D01*
X85713653Y-48478754D01*
X85588154Y-48604253D01*
X85440584Y-48702856D01*
X85276612Y-48770776D01*
X85127312Y-48800473D01*
X85102542Y-48805400D01*
X84925058Y-48805400D01*
X84900288Y-48800473D01*
X84750988Y-48770776D01*
X84587016Y-48702856D01*
X84439446Y-48604253D01*
X84313947Y-48478754D01*
X84215344Y-48331184D01*
X84147424Y-48167212D01*
X84112800Y-47993141D01*
X84112800Y-47815659D01*
X84147424Y-47641588D01*
X84215344Y-47477616D01*
X84313947Y-47330046D01*
X84439446Y-47204547D01*
X84587016Y-47105944D01*
X84750988Y-47038024D01*
X84900288Y-47008327D01*
X84925058Y-47003400D01*
X85102542Y-47003400D01*
X85127312Y-47008327D01*
G37*
G36*
X87667312Y-47008327D02*
G01*
X87816612Y-47038024D01*
X87980584Y-47105944D01*
X88128154Y-47204547D01*
X88253653Y-47330046D01*
X88352256Y-47477616D01*
X88420176Y-47641588D01*
X88454800Y-47815659D01*
X88454800Y-47993141D01*
X88420176Y-48167212D01*
X88352256Y-48331184D01*
X88253653Y-48478754D01*
X88128154Y-48604253D01*
X87980584Y-48702856D01*
X87816612Y-48770776D01*
X87667312Y-48800473D01*
X87642542Y-48805400D01*
X87465058Y-48805400D01*
X87440288Y-48800473D01*
X87290988Y-48770776D01*
X87127016Y-48702856D01*
X86979446Y-48604253D01*
X86853947Y-48478754D01*
X86755344Y-48331184D01*
X86687424Y-48167212D01*
X86652800Y-47993141D01*
X86652800Y-47815659D01*
X86687424Y-47641588D01*
X86755344Y-47477616D01*
X86853947Y-47330046D01*
X86979446Y-47204547D01*
X87127016Y-47105944D01*
X87290988Y-47038024D01*
X87440288Y-47008327D01*
X87465058Y-47003400D01*
X87642542Y-47003400D01*
X87667312Y-47008327D01*
G37*
G36*
X93534800Y-48805400D02*
G01*
X91732800Y-48805400D01*
X91732800Y-47003400D01*
X93534800Y-47003400D01*
X93534800Y-48805400D01*
G37*
G36*
X62267312Y-47008327D02*
G01*
X62416612Y-47038024D01*
X62580584Y-47105944D01*
X62728154Y-47204547D01*
X62853653Y-47330046D01*
X62952256Y-47477616D01*
X63020176Y-47641588D01*
X63054800Y-47815659D01*
X63054800Y-47993141D01*
X63020176Y-48167212D01*
X62952256Y-48331184D01*
X62853653Y-48478754D01*
X62728154Y-48604253D01*
X62580584Y-48702856D01*
X62416612Y-48770776D01*
X62267312Y-48800473D01*
X62242542Y-48805400D01*
X62065058Y-48805400D01*
X62040288Y-48800473D01*
X61890988Y-48770776D01*
X61727016Y-48702856D01*
X61579446Y-48604253D01*
X61453947Y-48478754D01*
X61355344Y-48331184D01*
X61287424Y-48167212D01*
X61252800Y-47993141D01*
X61252800Y-47815659D01*
X61287424Y-47641588D01*
X61355344Y-47477616D01*
X61453947Y-47330046D01*
X61579446Y-47204547D01*
X61727016Y-47105944D01*
X61890988Y-47038024D01*
X62040288Y-47008327D01*
X62065058Y-47003400D01*
X62242542Y-47003400D01*
X62267312Y-47008327D01*
G37*
G36*
X64807312Y-47008327D02*
G01*
X64956612Y-47038024D01*
X65120584Y-47105944D01*
X65268154Y-47204547D01*
X65393653Y-47330046D01*
X65492256Y-47477616D01*
X65560176Y-47641588D01*
X65594800Y-47815659D01*
X65594800Y-47993141D01*
X65560176Y-48167212D01*
X65492256Y-48331184D01*
X65393653Y-48478754D01*
X65268154Y-48604253D01*
X65120584Y-48702856D01*
X64956612Y-48770776D01*
X64807312Y-48800473D01*
X64782542Y-48805400D01*
X64605058Y-48805400D01*
X64580288Y-48800473D01*
X64430988Y-48770776D01*
X64267016Y-48702856D01*
X64119446Y-48604253D01*
X63993947Y-48478754D01*
X63895344Y-48331184D01*
X63827424Y-48167212D01*
X63792800Y-47993141D01*
X63792800Y-47815659D01*
X63827424Y-47641588D01*
X63895344Y-47477616D01*
X63993947Y-47330046D01*
X64119446Y-47204547D01*
X64267016Y-47105944D01*
X64430988Y-47038024D01*
X64580288Y-47008327D01*
X64605058Y-47003400D01*
X64782542Y-47003400D01*
X64807312Y-47008327D01*
G37*
G36*
X67347312Y-47008327D02*
G01*
X67496612Y-47038024D01*
X67660584Y-47105944D01*
X67808154Y-47204547D01*
X67933653Y-47330046D01*
X68032256Y-47477616D01*
X68100176Y-47641588D01*
X68134800Y-47815659D01*
X68134800Y-47993141D01*
X68100176Y-48167212D01*
X68032256Y-48331184D01*
X67933653Y-48478754D01*
X67808154Y-48604253D01*
X67660584Y-48702856D01*
X67496612Y-48770776D01*
X67347312Y-48800473D01*
X67322542Y-48805400D01*
X67145058Y-48805400D01*
X67120288Y-48800473D01*
X66970988Y-48770776D01*
X66807016Y-48702856D01*
X66659446Y-48604253D01*
X66533947Y-48478754D01*
X66435344Y-48331184D01*
X66367424Y-48167212D01*
X66332800Y-47993141D01*
X66332800Y-47815659D01*
X66367424Y-47641588D01*
X66435344Y-47477616D01*
X66533947Y-47330046D01*
X66659446Y-47204547D01*
X66807016Y-47105944D01*
X66970988Y-47038024D01*
X67120288Y-47008327D01*
X67145058Y-47003400D01*
X67322542Y-47003400D01*
X67347312Y-47008327D01*
G37*
G36*
X44487312Y-47008327D02*
G01*
X44636612Y-47038024D01*
X44800584Y-47105944D01*
X44948154Y-47204547D01*
X45073653Y-47330046D01*
X45172256Y-47477616D01*
X45240176Y-47641588D01*
X45274800Y-47815659D01*
X45274800Y-47993141D01*
X45240176Y-48167212D01*
X45172256Y-48331184D01*
X45073653Y-48478754D01*
X44948154Y-48604253D01*
X44800584Y-48702856D01*
X44636612Y-48770776D01*
X44487312Y-48800473D01*
X44462542Y-48805400D01*
X44285058Y-48805400D01*
X44260288Y-48800473D01*
X44110988Y-48770776D01*
X43947016Y-48702856D01*
X43799446Y-48604253D01*
X43673947Y-48478754D01*
X43575344Y-48331184D01*
X43507424Y-48167212D01*
X43472800Y-47993141D01*
X43472800Y-47815659D01*
X43507424Y-47641588D01*
X43575344Y-47477616D01*
X43673947Y-47330046D01*
X43799446Y-47204547D01*
X43947016Y-47105944D01*
X44110988Y-47038024D01*
X44260288Y-47008327D01*
X44285058Y-47003400D01*
X44462542Y-47003400D01*
X44487312Y-47008327D01*
G37*
G36*
X90207312Y-47008327D02*
G01*
X90356612Y-47038024D01*
X90520584Y-47105944D01*
X90668154Y-47204547D01*
X90793653Y-47330046D01*
X90892256Y-47477616D01*
X90960176Y-47641588D01*
X90994800Y-47815659D01*
X90994800Y-47993141D01*
X90960176Y-48167212D01*
X90892256Y-48331184D01*
X90793653Y-48478754D01*
X90668154Y-48604253D01*
X90520584Y-48702856D01*
X90356612Y-48770776D01*
X90207312Y-48800473D01*
X90182542Y-48805400D01*
X90005058Y-48805400D01*
X89980288Y-48800473D01*
X89830988Y-48770776D01*
X89667016Y-48702856D01*
X89519446Y-48604253D01*
X89393947Y-48478754D01*
X89295344Y-48331184D01*
X89227424Y-48167212D01*
X89192800Y-47993141D01*
X89192800Y-47815659D01*
X89227424Y-47641588D01*
X89295344Y-47477616D01*
X89393947Y-47330046D01*
X89519446Y-47204547D01*
X89667016Y-47105944D01*
X89830988Y-47038024D01*
X89980288Y-47008327D01*
X90005058Y-47003400D01*
X90182542Y-47003400D01*
X90207312Y-47008327D01*
G37*
G36*
X47027312Y-47008327D02*
G01*
X47176612Y-47038024D01*
X47340584Y-47105944D01*
X47488154Y-47204547D01*
X47613653Y-47330046D01*
X47712256Y-47477616D01*
X47780176Y-47641588D01*
X47814800Y-47815659D01*
X47814800Y-47993141D01*
X47780176Y-48167212D01*
X47712256Y-48331184D01*
X47613653Y-48478754D01*
X47488154Y-48604253D01*
X47340584Y-48702856D01*
X47176612Y-48770776D01*
X47027312Y-48800473D01*
X47002542Y-48805400D01*
X46825058Y-48805400D01*
X46800288Y-48800473D01*
X46650988Y-48770776D01*
X46487016Y-48702856D01*
X46339446Y-48604253D01*
X46213947Y-48478754D01*
X46115344Y-48331184D01*
X46047424Y-48167212D01*
X46012800Y-47993141D01*
X46012800Y-47815659D01*
X46047424Y-47641588D01*
X46115344Y-47477616D01*
X46213947Y-47330046D01*
X46339446Y-47204547D01*
X46487016Y-47105944D01*
X46650988Y-47038024D01*
X46800288Y-47008327D01*
X46825058Y-47003400D01*
X47002542Y-47003400D01*
X47027312Y-47008327D01*
G37*
G36*
X49567312Y-47008327D02*
G01*
X49716612Y-47038024D01*
X49880584Y-47105944D01*
X50028154Y-47204547D01*
X50153653Y-47330046D01*
X50252256Y-47477616D01*
X50320176Y-47641588D01*
X50354800Y-47815659D01*
X50354800Y-47993141D01*
X50320176Y-48167212D01*
X50252256Y-48331184D01*
X50153653Y-48478754D01*
X50028154Y-48604253D01*
X49880584Y-48702856D01*
X49716612Y-48770776D01*
X49567312Y-48800473D01*
X49542542Y-48805400D01*
X49365058Y-48805400D01*
X49340288Y-48800473D01*
X49190988Y-48770776D01*
X49027016Y-48702856D01*
X48879446Y-48604253D01*
X48753947Y-48478754D01*
X48655344Y-48331184D01*
X48587424Y-48167212D01*
X48552800Y-47993141D01*
X48552800Y-47815659D01*
X48587424Y-47641588D01*
X48655344Y-47477616D01*
X48753947Y-47330046D01*
X48879446Y-47204547D01*
X49027016Y-47105944D01*
X49190988Y-47038024D01*
X49340288Y-47008327D01*
X49365058Y-47003400D01*
X49542542Y-47003400D01*
X49567312Y-47008327D01*
G37*
G36*
X54647312Y-47008327D02*
G01*
X54796612Y-47038024D01*
X54960584Y-47105944D01*
X55108154Y-47204547D01*
X55233653Y-47330046D01*
X55332256Y-47477616D01*
X55400176Y-47641588D01*
X55434800Y-47815659D01*
X55434800Y-47993141D01*
X55400176Y-48167212D01*
X55332256Y-48331184D01*
X55233653Y-48478754D01*
X55108154Y-48604253D01*
X54960584Y-48702856D01*
X54796612Y-48770776D01*
X54647312Y-48800473D01*
X54622542Y-48805400D01*
X54445058Y-48805400D01*
X54420288Y-48800473D01*
X54270988Y-48770776D01*
X54107016Y-48702856D01*
X53959446Y-48604253D01*
X53833947Y-48478754D01*
X53735344Y-48331184D01*
X53667424Y-48167212D01*
X53632800Y-47993141D01*
X53632800Y-47815659D01*
X53667424Y-47641588D01*
X53735344Y-47477616D01*
X53833947Y-47330046D01*
X53959446Y-47204547D01*
X54107016Y-47105944D01*
X54270988Y-47038024D01*
X54420288Y-47008327D01*
X54445058Y-47003400D01*
X54622542Y-47003400D01*
X54647312Y-47008327D01*
G37*
G36*
X57187312Y-47008327D02*
G01*
X57336612Y-47038024D01*
X57500584Y-47105944D01*
X57648154Y-47204547D01*
X57773653Y-47330046D01*
X57872256Y-47477616D01*
X57940176Y-47641588D01*
X57974800Y-47815659D01*
X57974800Y-47993141D01*
X57940176Y-48167212D01*
X57872256Y-48331184D01*
X57773653Y-48478754D01*
X57648154Y-48604253D01*
X57500584Y-48702856D01*
X57336612Y-48770776D01*
X57187312Y-48800473D01*
X57162542Y-48805400D01*
X56985058Y-48805400D01*
X56960288Y-48800473D01*
X56810988Y-48770776D01*
X56647016Y-48702856D01*
X56499446Y-48604253D01*
X56373947Y-48478754D01*
X56275344Y-48331184D01*
X56207424Y-48167212D01*
X56172800Y-47993141D01*
X56172800Y-47815659D01*
X56207424Y-47641588D01*
X56275344Y-47477616D01*
X56373947Y-47330046D01*
X56499446Y-47204547D01*
X56647016Y-47105944D01*
X56810988Y-47038024D01*
X56960288Y-47008327D01*
X56985058Y-47003400D01*
X57162542Y-47003400D01*
X57187312Y-47008327D01*
G37*
G36*
X59727312Y-47008327D02*
G01*
X59876612Y-47038024D01*
X60040584Y-47105944D01*
X60188154Y-47204547D01*
X60313653Y-47330046D01*
X60412256Y-47477616D01*
X60480176Y-47641588D01*
X60514800Y-47815659D01*
X60514800Y-47993141D01*
X60480176Y-48167212D01*
X60412256Y-48331184D01*
X60313653Y-48478754D01*
X60188154Y-48604253D01*
X60040584Y-48702856D01*
X59876612Y-48770776D01*
X59727312Y-48800473D01*
X59702542Y-48805400D01*
X59525058Y-48805400D01*
X59500288Y-48800473D01*
X59350988Y-48770776D01*
X59187016Y-48702856D01*
X59039446Y-48604253D01*
X58913947Y-48478754D01*
X58815344Y-48331184D01*
X58747424Y-48167212D01*
X58712800Y-47993141D01*
X58712800Y-47815659D01*
X58747424Y-47641588D01*
X58815344Y-47477616D01*
X58913947Y-47330046D01*
X59039446Y-47204547D01*
X59187016Y-47105944D01*
X59350988Y-47038024D01*
X59500288Y-47008327D01*
X59525058Y-47003400D01*
X59702542Y-47003400D01*
X59727312Y-47008327D01*
G37*
G36*
X52107312Y-47008327D02*
G01*
X52256612Y-47038024D01*
X52420584Y-47105944D01*
X52568154Y-47204547D01*
X52693653Y-47330046D01*
X52792256Y-47477616D01*
X52860176Y-47641588D01*
X52894800Y-47815659D01*
X52894800Y-47993141D01*
X52860176Y-48167212D01*
X52792256Y-48331184D01*
X52693653Y-48478754D01*
X52568154Y-48604253D01*
X52420584Y-48702856D01*
X52256612Y-48770776D01*
X52107312Y-48800473D01*
X52082542Y-48805400D01*
X51905058Y-48805400D01*
X51880288Y-48800473D01*
X51730988Y-48770776D01*
X51567016Y-48702856D01*
X51419446Y-48604253D01*
X51293947Y-48478754D01*
X51195344Y-48331184D01*
X51127424Y-48167212D01*
X51092800Y-47993141D01*
X51092800Y-47815659D01*
X51127424Y-47641588D01*
X51195344Y-47477616D01*
X51293947Y-47330046D01*
X51419446Y-47204547D01*
X51567016Y-47105944D01*
X51730988Y-47038024D01*
X51880288Y-47008327D01*
X51905058Y-47003400D01*
X52082542Y-47003400D01*
X52107312Y-47008327D01*
G37*
G36*
X54665274Y-43338465D02*
G01*
X54702967Y-43349899D01*
X54737703Y-43368466D01*
X54768148Y-43393452D01*
X54793134Y-43423897D01*
X54811701Y-43458633D01*
X54823135Y-43496326D01*
X54827600Y-43541661D01*
X54827600Y-44378339D01*
X54823135Y-44423674D01*
X54811701Y-44461367D01*
X54793134Y-44496103D01*
X54768148Y-44526548D01*
X54737703Y-44551534D01*
X54702967Y-44570101D01*
X54665274Y-44581535D01*
X54619939Y-44586000D01*
X53533261Y-44586000D01*
X53487926Y-44581535D01*
X53450233Y-44570101D01*
X53415497Y-44551534D01*
X53385052Y-44526548D01*
X53360066Y-44496103D01*
X53341499Y-44461367D01*
X53330065Y-44423674D01*
X53325600Y-44378339D01*
X53325600Y-43541661D01*
X53330065Y-43496326D01*
X53341499Y-43458633D01*
X53360066Y-43423897D01*
X53385052Y-43393452D01*
X53415497Y-43368466D01*
X53450233Y-43349899D01*
X53487926Y-43338465D01*
X53533261Y-43334000D01*
X54619939Y-43334000D01*
X54665274Y-43338465D01*
G37*
G36*
X90906800Y-44551800D02*
G01*
X82016400Y-44551800D01*
X82016400Y-42976600D01*
X90906800Y-42976600D01*
X90906800Y-44551800D01*
G37*
G36*
X78096732Y-44551800D02*
G01*
X69206332Y-44551800D01*
X69206332Y-42976600D01*
X78096732Y-42976600D01*
X78096732Y-44551800D01*
G37*
G36*
X52476600Y-44551800D02*
G01*
X43586200Y-44551800D01*
X43586200Y-42976600D01*
X52476600Y-42976600D01*
X52476600Y-44551800D01*
G37*
G36*
X65286666Y-44551800D02*
G01*
X56396266Y-44551800D01*
X56396266Y-42976600D01*
X65286666Y-42976600D01*
X65286666Y-44551800D01*
G37*
G36*
X93146274Y-43304065D02*
G01*
X93183967Y-43315499D01*
X93218703Y-43334066D01*
X93249148Y-43359052D01*
X93274134Y-43389497D01*
X93292701Y-43424233D01*
X93304135Y-43461926D01*
X93308600Y-43507261D01*
X93308600Y-44343939D01*
X93304135Y-44389274D01*
X93292701Y-44426967D01*
X93274134Y-44461703D01*
X93249148Y-44492148D01*
X93218703Y-44517134D01*
X93183967Y-44535701D01*
X93146274Y-44547135D01*
X93100939Y-44551600D01*
X92014261Y-44551600D01*
X91968926Y-44547135D01*
X91931233Y-44535701D01*
X91896497Y-44517134D01*
X91866052Y-44492148D01*
X91841066Y-44461703D01*
X91822499Y-44426967D01*
X91811065Y-44389274D01*
X91806600Y-44343939D01*
X91806600Y-43507261D01*
X91811065Y-43461926D01*
X91822499Y-43424233D01*
X91841066Y-43389497D01*
X91866052Y-43359052D01*
X91896497Y-43334066D01*
X91931233Y-43315499D01*
X91968926Y-43304065D01*
X92014261Y-43299600D01*
X93100939Y-43299600D01*
X93146274Y-43304065D01*
G37*
G36*
X67441474Y-43304065D02*
G01*
X67479167Y-43315499D01*
X67513903Y-43334066D01*
X67544348Y-43359052D01*
X67569334Y-43389497D01*
X67587901Y-43424233D01*
X67599335Y-43461926D01*
X67603800Y-43507261D01*
X67603800Y-44343939D01*
X67599335Y-44389274D01*
X67587901Y-44426967D01*
X67569334Y-44461703D01*
X67544348Y-44492148D01*
X67513903Y-44517134D01*
X67479167Y-44535701D01*
X67441474Y-44547135D01*
X67396139Y-44551600D01*
X66309461Y-44551600D01*
X66264126Y-44547135D01*
X66226433Y-44535701D01*
X66191697Y-44517134D01*
X66161252Y-44492148D01*
X66136266Y-44461703D01*
X66117699Y-44426967D01*
X66106265Y-44389274D01*
X66101800Y-44343939D01*
X66101800Y-43507261D01*
X66106265Y-43461926D01*
X66117699Y-43424233D01*
X66136266Y-43389497D01*
X66161252Y-43359052D01*
X66191697Y-43334066D01*
X66226433Y-43315499D01*
X66264126Y-43304065D01*
X66309461Y-43299600D01*
X67396139Y-43299600D01*
X67441474Y-43304065D01*
G37*
G36*
X80370074Y-43227865D02*
G01*
X80407767Y-43239299D01*
X80442503Y-43257866D01*
X80472948Y-43282852D01*
X80497934Y-43313297D01*
X80516501Y-43348033D01*
X80527935Y-43385726D01*
X80532400Y-43431061D01*
X80532400Y-44267739D01*
X80527935Y-44313074D01*
X80516501Y-44350767D01*
X80497934Y-44385503D01*
X80472948Y-44415948D01*
X80442503Y-44440934D01*
X80407767Y-44459501D01*
X80370074Y-44470935D01*
X80324739Y-44475400D01*
X79238061Y-44475400D01*
X79192726Y-44470935D01*
X79155033Y-44459501D01*
X79120297Y-44440934D01*
X79089852Y-44415948D01*
X79064866Y-44385503D01*
X79046299Y-44350767D01*
X79034865Y-44313074D01*
X79030400Y-44267739D01*
X79030400Y-43431061D01*
X79034865Y-43385726D01*
X79046299Y-43348033D01*
X79064866Y-43313297D01*
X79089852Y-43282852D01*
X79120297Y-43257866D01*
X79155033Y-43239299D01*
X79192726Y-43227865D01*
X79238061Y-43223400D01*
X80324739Y-43223400D01*
X80370074Y-43227865D01*
G37*
G36*
X54665274Y-41288465D02*
G01*
X54702967Y-41299899D01*
X54737703Y-41318466D01*
X54768148Y-41343452D01*
X54793134Y-41373897D01*
X54811701Y-41408633D01*
X54823135Y-41446326D01*
X54827600Y-41491661D01*
X54827600Y-42328339D01*
X54823135Y-42373674D01*
X54811701Y-42411367D01*
X54793134Y-42446103D01*
X54768148Y-42476548D01*
X54737703Y-42501534D01*
X54702967Y-42520101D01*
X54665274Y-42531535D01*
X54619939Y-42536000D01*
X53533261Y-42536000D01*
X53487926Y-42531535D01*
X53450233Y-42520101D01*
X53415497Y-42501534D01*
X53385052Y-42476548D01*
X53360066Y-42446103D01*
X53341499Y-42411367D01*
X53330065Y-42373674D01*
X53325600Y-42328339D01*
X53325600Y-41491661D01*
X53330065Y-41446326D01*
X53341499Y-41408633D01*
X53360066Y-41373897D01*
X53385052Y-41343452D01*
X53415497Y-41318466D01*
X53450233Y-41299899D01*
X53487926Y-41288465D01*
X53533261Y-41284000D01*
X54619939Y-41284000D01*
X54665274Y-41288465D01*
G37*
G36*
X67441474Y-41254065D02*
G01*
X67479167Y-41265499D01*
X67513903Y-41284066D01*
X67544348Y-41309052D01*
X67569334Y-41339497D01*
X67587901Y-41374233D01*
X67599335Y-41411926D01*
X67603800Y-41457261D01*
X67603800Y-42293939D01*
X67599335Y-42339274D01*
X67587901Y-42376967D01*
X67569334Y-42411703D01*
X67544348Y-42442148D01*
X67513903Y-42467134D01*
X67479167Y-42485701D01*
X67441474Y-42497135D01*
X67396139Y-42501600D01*
X66309461Y-42501600D01*
X66264126Y-42497135D01*
X66226433Y-42485701D01*
X66191697Y-42467134D01*
X66161252Y-42442148D01*
X66136266Y-42411703D01*
X66117699Y-42376967D01*
X66106265Y-42339274D01*
X66101800Y-42293939D01*
X66101800Y-41457261D01*
X66106265Y-41411926D01*
X66117699Y-41374233D01*
X66136266Y-41339497D01*
X66161252Y-41309052D01*
X66191697Y-41284066D01*
X66226433Y-41265499D01*
X66264126Y-41254065D01*
X66309461Y-41249600D01*
X67396139Y-41249600D01*
X67441474Y-41254065D01*
G37*
G36*
X93146274Y-41254065D02*
G01*
X93183967Y-41265499D01*
X93218703Y-41284066D01*
X93249148Y-41309052D01*
X93274134Y-41339497D01*
X93292701Y-41374233D01*
X93304135Y-41411926D01*
X93308600Y-41457261D01*
X93308600Y-42293939D01*
X93304135Y-42339274D01*
X93292701Y-42376967D01*
X93274134Y-42411703D01*
X93249148Y-42442148D01*
X93218703Y-42467134D01*
X93183967Y-42485701D01*
X93146274Y-42497135D01*
X93100939Y-42501600D01*
X92014261Y-42501600D01*
X91968926Y-42497135D01*
X91931233Y-42485701D01*
X91896497Y-42467134D01*
X91866052Y-42442148D01*
X91841066Y-42411703D01*
X91822499Y-42376967D01*
X91811065Y-42339274D01*
X91806600Y-42293939D01*
X91806600Y-41457261D01*
X91811065Y-41411926D01*
X91822499Y-41374233D01*
X91841066Y-41339497D01*
X91866052Y-41309052D01*
X91896497Y-41284066D01*
X91931233Y-41265499D01*
X91968926Y-41254065D01*
X92014261Y-41249600D01*
X93100939Y-41249600D01*
X93146274Y-41254065D01*
G37*
G36*
X80370074Y-41177865D02*
G01*
X80407767Y-41189299D01*
X80442503Y-41207866D01*
X80472948Y-41232852D01*
X80497934Y-41263297D01*
X80516501Y-41298033D01*
X80527935Y-41335726D01*
X80532400Y-41381061D01*
X80532400Y-42217739D01*
X80527935Y-42263074D01*
X80516501Y-42300767D01*
X80497934Y-42335503D01*
X80472948Y-42365948D01*
X80442503Y-42390934D01*
X80407767Y-42409501D01*
X80370074Y-42420935D01*
X80324739Y-42425400D01*
X79238061Y-42425400D01*
X79192726Y-42420935D01*
X79155033Y-42409501D01*
X79120297Y-42390934D01*
X79089852Y-42365948D01*
X79064866Y-42335503D01*
X79046299Y-42300767D01*
X79034865Y-42263074D01*
X79030400Y-42217739D01*
X79030400Y-41381061D01*
X79034865Y-41335726D01*
X79046299Y-41298033D01*
X79064866Y-41263297D01*
X79089852Y-41232852D01*
X79120297Y-41207866D01*
X79155033Y-41189299D01*
X79192726Y-41177865D01*
X79238061Y-41173400D01*
X80324739Y-41173400D01*
X80370074Y-41177865D01*
G37*
G36*
X51168500Y-42088000D02*
G01*
X44894300Y-42088000D01*
X44894300Y-39598400D01*
X51168500Y-39598400D01*
X51168500Y-42088000D01*
G37*
G36*
X76788632Y-42088000D02*
G01*
X70514432Y-42088000D01*
X70514432Y-39598400D01*
X76788632Y-39598400D01*
X76788632Y-42088000D01*
G37*
G36*
X89598700Y-42088000D02*
G01*
X83324500Y-42088000D01*
X83324500Y-39598400D01*
X89598700Y-39598400D01*
X89598700Y-42088000D01*
G37*
G36*
X63978566Y-42088000D02*
G01*
X57704366Y-42088000D01*
X57704366Y-39598400D01*
X63978566Y-39598400D01*
X63978566Y-42088000D01*
G37*
G36*
X54665274Y-39579265D02*
G01*
X54702967Y-39590699D01*
X54737703Y-39609266D01*
X54768148Y-39634252D01*
X54793134Y-39664697D01*
X54811701Y-39699433D01*
X54823135Y-39737126D01*
X54827600Y-39782461D01*
X54827600Y-40619139D01*
X54823135Y-40664474D01*
X54811701Y-40702167D01*
X54793134Y-40736903D01*
X54768148Y-40767348D01*
X54737703Y-40792334D01*
X54702967Y-40810901D01*
X54665274Y-40822335D01*
X54619939Y-40826800D01*
X53533261Y-40826800D01*
X53487926Y-40822335D01*
X53450233Y-40810901D01*
X53415497Y-40792334D01*
X53385052Y-40767348D01*
X53360066Y-40736903D01*
X53341499Y-40702167D01*
X53330065Y-40664474D01*
X53325600Y-40619139D01*
X53325600Y-39782461D01*
X53330065Y-39737126D01*
X53341499Y-39699433D01*
X53360066Y-39664697D01*
X53385052Y-39634252D01*
X53415497Y-39609266D01*
X53450233Y-39590699D01*
X53487926Y-39579265D01*
X53533261Y-39574800D01*
X54619939Y-39574800D01*
X54665274Y-39579265D01*
G37*
G36*
X67441474Y-39519465D02*
G01*
X67479167Y-39530899D01*
X67513903Y-39549466D01*
X67544348Y-39574452D01*
X67569334Y-39604897D01*
X67587901Y-39639633D01*
X67599335Y-39677326D01*
X67603800Y-39722661D01*
X67603800Y-40559339D01*
X67599335Y-40604674D01*
X67587901Y-40642367D01*
X67569334Y-40677103D01*
X67544348Y-40707548D01*
X67513903Y-40732534D01*
X67479167Y-40751101D01*
X67441474Y-40762535D01*
X67396139Y-40767000D01*
X66309461Y-40767000D01*
X66264126Y-40762535D01*
X66226433Y-40751101D01*
X66191697Y-40732534D01*
X66161252Y-40707548D01*
X66136266Y-40677103D01*
X66117699Y-40642367D01*
X66106265Y-40604674D01*
X66101800Y-40559339D01*
X66101800Y-39722661D01*
X66106265Y-39677326D01*
X66117699Y-39639633D01*
X66136266Y-39604897D01*
X66161252Y-39574452D01*
X66191697Y-39549466D01*
X66226433Y-39530899D01*
X66264126Y-39519465D01*
X66309461Y-39515000D01*
X67396139Y-39515000D01*
X67441474Y-39519465D01*
G37*
G36*
X93146274Y-39452265D02*
G01*
X93183967Y-39463699D01*
X93218703Y-39482266D01*
X93249148Y-39507252D01*
X93274134Y-39537697D01*
X93292701Y-39572433D01*
X93304135Y-39610126D01*
X93308600Y-39655461D01*
X93308600Y-40492139D01*
X93304135Y-40537474D01*
X93292701Y-40575167D01*
X93274134Y-40609903D01*
X93249148Y-40640348D01*
X93218703Y-40665334D01*
X93183967Y-40683901D01*
X93146274Y-40695335D01*
X93100939Y-40699800D01*
X92014261Y-40699800D01*
X91968926Y-40695335D01*
X91931233Y-40683901D01*
X91896497Y-40665334D01*
X91866052Y-40640348D01*
X91841066Y-40609903D01*
X91822499Y-40575167D01*
X91811065Y-40537474D01*
X91806600Y-40492139D01*
X91806600Y-39655461D01*
X91811065Y-39610126D01*
X91822499Y-39572433D01*
X91841066Y-39537697D01*
X91866052Y-39507252D01*
X91896497Y-39482266D01*
X91931233Y-39463699D01*
X91968926Y-39452265D01*
X92014261Y-39447800D01*
X93100939Y-39447800D01*
X93146274Y-39452265D01*
G37*
G36*
X80370074Y-39383465D02*
G01*
X80407767Y-39394899D01*
X80442503Y-39413466D01*
X80472948Y-39438452D01*
X80497934Y-39468897D01*
X80516501Y-39503633D01*
X80527935Y-39541326D01*
X80532400Y-39586661D01*
X80532400Y-40423339D01*
X80527935Y-40468674D01*
X80516501Y-40506367D01*
X80497934Y-40541103D01*
X80472948Y-40571548D01*
X80442503Y-40596534D01*
X80407767Y-40615101D01*
X80370074Y-40626535D01*
X80324739Y-40631000D01*
X79238061Y-40631000D01*
X79192726Y-40626535D01*
X79155033Y-40615101D01*
X79120297Y-40596534D01*
X79089852Y-40571548D01*
X79064866Y-40541103D01*
X79046299Y-40506367D01*
X79034865Y-40468674D01*
X79030400Y-40423339D01*
X79030400Y-39586661D01*
X79034865Y-39541326D01*
X79046299Y-39503633D01*
X79064866Y-39468897D01*
X79089852Y-39438452D01*
X79120297Y-39413466D01*
X79155033Y-39394899D01*
X79192726Y-39383465D01*
X79238061Y-39379000D01*
X80324739Y-39379000D01*
X80370074Y-39383465D01*
G37*
G36*
X54665274Y-37529265D02*
G01*
X54702967Y-37540699D01*
X54737703Y-37559266D01*
X54768148Y-37584252D01*
X54793134Y-37614697D01*
X54811701Y-37649433D01*
X54823135Y-37687126D01*
X54827600Y-37732461D01*
X54827600Y-38569139D01*
X54823135Y-38614474D01*
X54811701Y-38652167D01*
X54793134Y-38686903D01*
X54768148Y-38717348D01*
X54737703Y-38742334D01*
X54702967Y-38760901D01*
X54665274Y-38772335D01*
X54619939Y-38776800D01*
X53533261Y-38776800D01*
X53487926Y-38772335D01*
X53450233Y-38760901D01*
X53415497Y-38742334D01*
X53385052Y-38717348D01*
X53360066Y-38686903D01*
X53341499Y-38652167D01*
X53330065Y-38614474D01*
X53325600Y-38569139D01*
X53325600Y-37732461D01*
X53330065Y-37687126D01*
X53341499Y-37649433D01*
X53360066Y-37614697D01*
X53385052Y-37584252D01*
X53415497Y-37559266D01*
X53450233Y-37540699D01*
X53487926Y-37529265D01*
X53533261Y-37524800D01*
X54619939Y-37524800D01*
X54665274Y-37529265D01*
G37*
G36*
X67441474Y-37469465D02*
G01*
X67479167Y-37480899D01*
X67513903Y-37499466D01*
X67544348Y-37524452D01*
X67569334Y-37554897D01*
X67587901Y-37589633D01*
X67599335Y-37627326D01*
X67603800Y-37672661D01*
X67603800Y-38509339D01*
X67599335Y-38554674D01*
X67587901Y-38592367D01*
X67569334Y-38627103D01*
X67544348Y-38657548D01*
X67513903Y-38682534D01*
X67479167Y-38701101D01*
X67441474Y-38712535D01*
X67396139Y-38717000D01*
X66309461Y-38717000D01*
X66264126Y-38712535D01*
X66226433Y-38701101D01*
X66191697Y-38682534D01*
X66161252Y-38657548D01*
X66136266Y-38627103D01*
X66117699Y-38592367D01*
X66106265Y-38554674D01*
X66101800Y-38509339D01*
X66101800Y-37672661D01*
X66106265Y-37627326D01*
X66117699Y-37589633D01*
X66136266Y-37554897D01*
X66161252Y-37524452D01*
X66191697Y-37499466D01*
X66226433Y-37480899D01*
X66264126Y-37469465D01*
X66309461Y-37465000D01*
X67396139Y-37465000D01*
X67441474Y-37469465D01*
G37*
G36*
X78096732Y-38709800D02*
G01*
X69206332Y-38709800D01*
X69206332Y-37134600D01*
X78096732Y-37134600D01*
X78096732Y-38709800D01*
G37*
G36*
X52476600Y-38709800D02*
G01*
X43586200Y-38709800D01*
X43586200Y-37134600D01*
X52476600Y-37134600D01*
X52476600Y-38709800D01*
G37*
G36*
X65286666Y-38709800D02*
G01*
X56396266Y-38709800D01*
X56396266Y-37134600D01*
X65286666Y-37134600D01*
X65286666Y-38709800D01*
G37*
G36*
X90906800Y-38709800D02*
G01*
X82016400Y-38709800D01*
X82016400Y-37134600D01*
X90906800Y-37134600D01*
X90906800Y-38709800D01*
G37*
G36*
X93146274Y-37402265D02*
G01*
X93183967Y-37413699D01*
X93218703Y-37432266D01*
X93249148Y-37457252D01*
X93274134Y-37487697D01*
X93292701Y-37522433D01*
X93304135Y-37560126D01*
X93308600Y-37605461D01*
X93308600Y-38442139D01*
X93304135Y-38487474D01*
X93292701Y-38525167D01*
X93274134Y-38559903D01*
X93249148Y-38590348D01*
X93218703Y-38615334D01*
X93183967Y-38633901D01*
X93146274Y-38645335D01*
X93100939Y-38649800D01*
X92014261Y-38649800D01*
X91968926Y-38645335D01*
X91931233Y-38633901D01*
X91896497Y-38615334D01*
X91866052Y-38590348D01*
X91841066Y-38559903D01*
X91822499Y-38525167D01*
X91811065Y-38487474D01*
X91806600Y-38442139D01*
X91806600Y-37605461D01*
X91811065Y-37560126D01*
X91822499Y-37522433D01*
X91841066Y-37487697D01*
X91866052Y-37457252D01*
X91896497Y-37432266D01*
X91931233Y-37413699D01*
X91968926Y-37402265D01*
X92014261Y-37397800D01*
X93100939Y-37397800D01*
X93146274Y-37402265D01*
G37*
G36*
X80370074Y-37333465D02*
G01*
X80407767Y-37344899D01*
X80442503Y-37363466D01*
X80472948Y-37388452D01*
X80497934Y-37418897D01*
X80516501Y-37453633D01*
X80527935Y-37491326D01*
X80532400Y-37536661D01*
X80532400Y-38373339D01*
X80527935Y-38418674D01*
X80516501Y-38456367D01*
X80497934Y-38491103D01*
X80472948Y-38521548D01*
X80442503Y-38546534D01*
X80407767Y-38565101D01*
X80370074Y-38576535D01*
X80324739Y-38581000D01*
X79238061Y-38581000D01*
X79192726Y-38576535D01*
X79155033Y-38565101D01*
X79120297Y-38546534D01*
X79089852Y-38521548D01*
X79064866Y-38491103D01*
X79046299Y-38456367D01*
X79034865Y-38418674D01*
X79030400Y-38373339D01*
X79030400Y-37536661D01*
X79034865Y-37491326D01*
X79046299Y-37453633D01*
X79064866Y-37418897D01*
X79089852Y-37388452D01*
X79120297Y-37363466D01*
X79155033Y-37344899D01*
X79192726Y-37333465D01*
X79238061Y-37329000D01*
X80324739Y-37329000D01*
X80370074Y-37333465D01*
G37*
G36*
X44352874Y-35303065D02*
G01*
X44390567Y-35314499D01*
X44425303Y-35333066D01*
X44455748Y-35358052D01*
X44480734Y-35388497D01*
X44499301Y-35423233D01*
X44510735Y-35460926D01*
X44515200Y-35506261D01*
X44515200Y-36342939D01*
X44510735Y-36388274D01*
X44499301Y-36425967D01*
X44480734Y-36460703D01*
X44455748Y-36491148D01*
X44425303Y-36516134D01*
X44390567Y-36534701D01*
X44352874Y-36546135D01*
X44307539Y-36550600D01*
X43220861Y-36550600D01*
X43175526Y-36546135D01*
X43137833Y-36534701D01*
X43103097Y-36516134D01*
X43072652Y-36491148D01*
X43047666Y-36460703D01*
X43029099Y-36425967D01*
X43017665Y-36388274D01*
X43013200Y-36342939D01*
X43013200Y-35506261D01*
X43017665Y-35460926D01*
X43029099Y-35423233D01*
X43047666Y-35388497D01*
X43072652Y-35358052D01*
X43103097Y-35333066D01*
X43137833Y-35314499D01*
X43175526Y-35303065D01*
X43220861Y-35298600D01*
X44307539Y-35298600D01*
X44352874Y-35303065D01*
G37*
G36*
X56113074Y-34871265D02*
G01*
X56150767Y-34882699D01*
X56185503Y-34901266D01*
X56215948Y-34926252D01*
X56240934Y-34956697D01*
X56259501Y-34991433D01*
X56270935Y-35029126D01*
X56275400Y-35074461D01*
X56275400Y-35911139D01*
X56270935Y-35956474D01*
X56259501Y-35994167D01*
X56240934Y-36028903D01*
X56215948Y-36059348D01*
X56185503Y-36084334D01*
X56150767Y-36102901D01*
X56113074Y-36114335D01*
X56067739Y-36118800D01*
X54981061Y-36118800D01*
X54935726Y-36114335D01*
X54898033Y-36102901D01*
X54863297Y-36084334D01*
X54832852Y-36059348D01*
X54807866Y-36028903D01*
X54789299Y-35994167D01*
X54777865Y-35956474D01*
X54773400Y-35911139D01*
X54773400Y-35074461D01*
X54777865Y-35029126D01*
X54789299Y-34991433D01*
X54807866Y-34956697D01*
X54832852Y-34926252D01*
X54863297Y-34901266D01*
X54898033Y-34882699D01*
X54935726Y-34871265D01*
X54981061Y-34866800D01*
X56067739Y-34866800D01*
X56113074Y-34871265D01*
G37*
G36*
X82579874Y-34795065D02*
G01*
X82617567Y-34806499D01*
X82652303Y-34825066D01*
X82682748Y-34850052D01*
X82707734Y-34880497D01*
X82726301Y-34915233D01*
X82737735Y-34952926D01*
X82742200Y-34998261D01*
X82742200Y-35834939D01*
X82737735Y-35880274D01*
X82726301Y-35917967D01*
X82707734Y-35952703D01*
X82682748Y-35983148D01*
X82652303Y-36008134D01*
X82617567Y-36026701D01*
X82579874Y-36038135D01*
X82534539Y-36042600D01*
X81447861Y-36042600D01*
X81402526Y-36038135D01*
X81364833Y-36026701D01*
X81330097Y-36008134D01*
X81299652Y-35983148D01*
X81274666Y-35952703D01*
X81256099Y-35917967D01*
X81244665Y-35880274D01*
X81240200Y-35834939D01*
X81240200Y-34998261D01*
X81244665Y-34952926D01*
X81256099Y-34915233D01*
X81274666Y-34880497D01*
X81299652Y-34850052D01*
X81330097Y-34825066D01*
X81364833Y-34806499D01*
X81402526Y-34795065D01*
X81447861Y-34790600D01*
X82534539Y-34790600D01*
X82579874Y-34795065D01*
G37*
G36*
X68762274Y-34727865D02*
G01*
X68799967Y-34739299D01*
X68834703Y-34757866D01*
X68865148Y-34782852D01*
X68890134Y-34813297D01*
X68908701Y-34848033D01*
X68920135Y-34885726D01*
X68924600Y-34931061D01*
X68924600Y-35767739D01*
X68920135Y-35813074D01*
X68908701Y-35850767D01*
X68890134Y-35885503D01*
X68865148Y-35915948D01*
X68834703Y-35940934D01*
X68799967Y-35959501D01*
X68762274Y-35970935D01*
X68716939Y-35975400D01*
X67630261Y-35975400D01*
X67584926Y-35970935D01*
X67547233Y-35959501D01*
X67512497Y-35940934D01*
X67482052Y-35915948D01*
X67457066Y-35885503D01*
X67438499Y-35850767D01*
X67427065Y-35813074D01*
X67422600Y-35767739D01*
X67422600Y-34931061D01*
X67427065Y-34885726D01*
X67438499Y-34848033D01*
X67457066Y-34813297D01*
X67482052Y-34782852D01*
X67512497Y-34757866D01*
X67547233Y-34739299D01*
X67584926Y-34727865D01*
X67630261Y-34723400D01*
X68716939Y-34723400D01*
X68762274Y-34727865D01*
G37*
G36*
X60389362Y-33276681D02*
G01*
X60424281Y-33287274D01*
X60456463Y-33304476D01*
X60484673Y-33327627D01*
X60507824Y-33355837D01*
X60525026Y-33388019D01*
X60535619Y-33422938D01*
X60539800Y-33465395D01*
X60539800Y-34606605D01*
X60535619Y-34649062D01*
X60525026Y-34683981D01*
X60507824Y-34716163D01*
X60484673Y-34744373D01*
X60456463Y-34767524D01*
X60424281Y-34784726D01*
X60389362Y-34795319D01*
X60346905Y-34799500D01*
X58880695Y-34799500D01*
X58838238Y-34795319D01*
X58803319Y-34784726D01*
X58771137Y-34767524D01*
X58742927Y-34744373D01*
X58719776Y-34716163D01*
X58702574Y-34683981D01*
X58691981Y-34649062D01*
X58687800Y-34606605D01*
X58687800Y-33465395D01*
X58691981Y-33422938D01*
X58702574Y-33388019D01*
X58719776Y-33355837D01*
X58742927Y-33327627D01*
X58771137Y-33304476D01*
X58803319Y-33287274D01*
X58838238Y-33276681D01*
X58880695Y-33272500D01*
X60346905Y-33272500D01*
X60389362Y-33276681D01*
G37*
G36*
X62751562Y-33276681D02*
G01*
X62786481Y-33287274D01*
X62818663Y-33304476D01*
X62846873Y-33327627D01*
X62870024Y-33355837D01*
X62887226Y-33388019D01*
X62897819Y-33422938D01*
X62902000Y-33465395D01*
X62902000Y-34606605D01*
X62897819Y-34649062D01*
X62887226Y-34683981D01*
X62870024Y-34716163D01*
X62846873Y-34744373D01*
X62818663Y-34767524D01*
X62786481Y-34784726D01*
X62751562Y-34795319D01*
X62709105Y-34799500D01*
X61242895Y-34799500D01*
X61200438Y-34795319D01*
X61165519Y-34784726D01*
X61133337Y-34767524D01*
X61105127Y-34744373D01*
X61081976Y-34716163D01*
X61064774Y-34683981D01*
X61054181Y-34649062D01*
X61050000Y-34606605D01*
X61050000Y-33465395D01*
X61054181Y-33422938D01*
X61064774Y-33388019D01*
X61081976Y-33355837D01*
X61105127Y-33327627D01*
X61133337Y-33304476D01*
X61165519Y-33287274D01*
X61200438Y-33276681D01*
X61242895Y-33272500D01*
X62709105Y-33272500D01*
X62751562Y-33276681D01*
G37*
G36*
X44352874Y-33253065D02*
G01*
X44390567Y-33264499D01*
X44425303Y-33283066D01*
X44455748Y-33308052D01*
X44480734Y-33338497D01*
X44499301Y-33373233D01*
X44510735Y-33410926D01*
X44515200Y-33456261D01*
X44515200Y-34292939D01*
X44510735Y-34338274D01*
X44499301Y-34375967D01*
X44480734Y-34410703D01*
X44455748Y-34441148D01*
X44425303Y-34466134D01*
X44390567Y-34484701D01*
X44352874Y-34496135D01*
X44307539Y-34500600D01*
X43220861Y-34500600D01*
X43175526Y-34496135D01*
X43137833Y-34484701D01*
X43103097Y-34466134D01*
X43072652Y-34441148D01*
X43047666Y-34410703D01*
X43029099Y-34375967D01*
X43017665Y-34338274D01*
X43013200Y-34292939D01*
X43013200Y-33456261D01*
X43017665Y-33410926D01*
X43029099Y-33373233D01*
X43047666Y-33338497D01*
X43072652Y-33308052D01*
X43103097Y-33283066D01*
X43137833Y-33264499D01*
X43175526Y-33253065D01*
X43220861Y-33248600D01*
X44307539Y-33248600D01*
X44352874Y-33253065D01*
G37*
G36*
X72555962Y-32590881D02*
G01*
X72590881Y-32601474D01*
X72623063Y-32618676D01*
X72651273Y-32641827D01*
X72674424Y-32670037D01*
X72691626Y-32702219D01*
X72702219Y-32737138D01*
X72706400Y-32779595D01*
X72706400Y-33920805D01*
X72702219Y-33963262D01*
X72691626Y-33998181D01*
X72674424Y-34030363D01*
X72651273Y-34058573D01*
X72623063Y-34081724D01*
X72590881Y-34098926D01*
X72555962Y-34109519D01*
X72513505Y-34113700D01*
X71047295Y-34113700D01*
X71004838Y-34109519D01*
X70969919Y-34098926D01*
X70937737Y-34081724D01*
X70909527Y-34058573D01*
X70886376Y-34030363D01*
X70869174Y-33998181D01*
X70858581Y-33963262D01*
X70854400Y-33920805D01*
X70854400Y-32779595D01*
X70858581Y-32737138D01*
X70869174Y-32702219D01*
X70886376Y-32670037D01*
X70909527Y-32641827D01*
X70937737Y-32618676D01*
X70969919Y-32601474D01*
X71004838Y-32590881D01*
X71047295Y-32586700D01*
X72513505Y-32586700D01*
X72555962Y-32590881D01*
G37*
G36*
X86119562Y-32590881D02*
G01*
X86154481Y-32601474D01*
X86186663Y-32618676D01*
X86214873Y-32641827D01*
X86238024Y-32670037D01*
X86255226Y-32702219D01*
X86265819Y-32737138D01*
X86270000Y-32779595D01*
X86270000Y-33920805D01*
X86265819Y-33963262D01*
X86255226Y-33998181D01*
X86238024Y-34030363D01*
X86214873Y-34058573D01*
X86186663Y-34081724D01*
X86154481Y-34098926D01*
X86119562Y-34109519D01*
X86077105Y-34113700D01*
X84610895Y-34113700D01*
X84568438Y-34109519D01*
X84533519Y-34098926D01*
X84501337Y-34081724D01*
X84473127Y-34058573D01*
X84449976Y-34030363D01*
X84432774Y-33998181D01*
X84422181Y-33963262D01*
X84418000Y-33920805D01*
X84418000Y-32779595D01*
X84422181Y-32737138D01*
X84432774Y-32702219D01*
X84449976Y-32670037D01*
X84473127Y-32641827D01*
X84501337Y-32618676D01*
X84533519Y-32601474D01*
X84568438Y-32590881D01*
X84610895Y-32586700D01*
X86077105Y-32586700D01*
X86119562Y-32590881D01*
G37*
G36*
X74918162Y-32590881D02*
G01*
X74953081Y-32601474D01*
X74985263Y-32618676D01*
X75013473Y-32641827D01*
X75036624Y-32670037D01*
X75053826Y-32702219D01*
X75064419Y-32737138D01*
X75068600Y-32779595D01*
X75068600Y-33920805D01*
X75064419Y-33963262D01*
X75053826Y-33998181D01*
X75036624Y-34030363D01*
X75013473Y-34058573D01*
X74985263Y-34081724D01*
X74953081Y-34098926D01*
X74918162Y-34109519D01*
X74875705Y-34113700D01*
X73409495Y-34113700D01*
X73367038Y-34109519D01*
X73332119Y-34098926D01*
X73299937Y-34081724D01*
X73271727Y-34058573D01*
X73248576Y-34030363D01*
X73231374Y-33998181D01*
X73220781Y-33963262D01*
X73216600Y-33920805D01*
X73216600Y-32779595D01*
X73220781Y-32737138D01*
X73231374Y-32702219D01*
X73248576Y-32670037D01*
X73271727Y-32641827D01*
X73299937Y-32618676D01*
X73332119Y-32601474D01*
X73367038Y-32590881D01*
X73409495Y-32586700D01*
X74875705Y-32586700D01*
X74918162Y-32590881D01*
G37*
G36*
X88456362Y-32590881D02*
G01*
X88491281Y-32601474D01*
X88523463Y-32618676D01*
X88551673Y-32641827D01*
X88574824Y-32670037D01*
X88592026Y-32702219D01*
X88602619Y-32737138D01*
X88606800Y-32779595D01*
X88606800Y-33920805D01*
X88602619Y-33963262D01*
X88592026Y-33998181D01*
X88574824Y-34030363D01*
X88551673Y-34058573D01*
X88523463Y-34081724D01*
X88491281Y-34098926D01*
X88456362Y-34109519D01*
X88413905Y-34113700D01*
X86947695Y-34113700D01*
X86905238Y-34109519D01*
X86870319Y-34098926D01*
X86838137Y-34081724D01*
X86809927Y-34058573D01*
X86786776Y-34030363D01*
X86769574Y-33998181D01*
X86758981Y-33963262D01*
X86754800Y-33920805D01*
X86754800Y-32779595D01*
X86758981Y-32737138D01*
X86769574Y-32702219D01*
X86786776Y-32670037D01*
X86809927Y-32641827D01*
X86838137Y-32618676D01*
X86870319Y-32601474D01*
X86905238Y-32590881D01*
X86947695Y-32586700D01*
X88413905Y-32586700D01*
X88456362Y-32590881D01*
G37*
G36*
X56113074Y-32821265D02*
G01*
X56150767Y-32832699D01*
X56185503Y-32851266D01*
X56215948Y-32876252D01*
X56240934Y-32906697D01*
X56259501Y-32941433D01*
X56270935Y-32979126D01*
X56275400Y-33024461D01*
X56275400Y-33861139D01*
X56270935Y-33906474D01*
X56259501Y-33944167D01*
X56240934Y-33978903D01*
X56215948Y-34009348D01*
X56185503Y-34034334D01*
X56150767Y-34052901D01*
X56113074Y-34064335D01*
X56067739Y-34068800D01*
X54981061Y-34068800D01*
X54935726Y-34064335D01*
X54898033Y-34052901D01*
X54863297Y-34034334D01*
X54832852Y-34009348D01*
X54807866Y-33978903D01*
X54789299Y-33944167D01*
X54777865Y-33906474D01*
X54773400Y-33861139D01*
X54773400Y-33024461D01*
X54777865Y-32979126D01*
X54789299Y-32941433D01*
X54807866Y-32906697D01*
X54832852Y-32876252D01*
X54863297Y-32851266D01*
X54898033Y-32832699D01*
X54935726Y-32821265D01*
X54981061Y-32816800D01*
X56067739Y-32816800D01*
X56113074Y-32821265D01*
G37*
G36*
X82579874Y-32745065D02*
G01*
X82617567Y-32756499D01*
X82652303Y-32775066D01*
X82682748Y-32800052D01*
X82707734Y-32830497D01*
X82726301Y-32865233D01*
X82737735Y-32902926D01*
X82742200Y-32948261D01*
X82742200Y-33784939D01*
X82737735Y-33830274D01*
X82726301Y-33867967D01*
X82707734Y-33902703D01*
X82682748Y-33933148D01*
X82652303Y-33958134D01*
X82617567Y-33976701D01*
X82579874Y-33988135D01*
X82534539Y-33992600D01*
X81447861Y-33992600D01*
X81402526Y-33988135D01*
X81364833Y-33976701D01*
X81330097Y-33958134D01*
X81299652Y-33933148D01*
X81274666Y-33902703D01*
X81256099Y-33867967D01*
X81244665Y-33830274D01*
X81240200Y-33784939D01*
X81240200Y-32948261D01*
X81244665Y-32902926D01*
X81256099Y-32865233D01*
X81274666Y-32830497D01*
X81299652Y-32800052D01*
X81330097Y-32775066D01*
X81364833Y-32756499D01*
X81402526Y-32745065D01*
X81447861Y-32740600D01*
X82534539Y-32740600D01*
X82579874Y-32745065D01*
G37*
G36*
X47536962Y-32438481D02*
G01*
X47571881Y-32449074D01*
X47604063Y-32466276D01*
X47632273Y-32489427D01*
X47655424Y-32517637D01*
X47672626Y-32549819D01*
X47683219Y-32584738D01*
X47687400Y-32627195D01*
X47687400Y-33768405D01*
X47683219Y-33810862D01*
X47672626Y-33845781D01*
X47655424Y-33877963D01*
X47632273Y-33906173D01*
X47604063Y-33929324D01*
X47571881Y-33946526D01*
X47536962Y-33957119D01*
X47494505Y-33961300D01*
X46028295Y-33961300D01*
X45985838Y-33957119D01*
X45950919Y-33946526D01*
X45918737Y-33929324D01*
X45890527Y-33906173D01*
X45867376Y-33877963D01*
X45850174Y-33845781D01*
X45839581Y-33810862D01*
X45835400Y-33768405D01*
X45835400Y-32627195D01*
X45839581Y-32584738D01*
X45850174Y-32549819D01*
X45867376Y-32517637D01*
X45890527Y-32489427D01*
X45918737Y-32466276D01*
X45950919Y-32449074D01*
X45985838Y-32438481D01*
X46028295Y-32434300D01*
X47494505Y-32434300D01*
X47536962Y-32438481D01*
G37*
G36*
X49899162Y-32438481D02*
G01*
X49934081Y-32449074D01*
X49966263Y-32466276D01*
X49994473Y-32489427D01*
X50017624Y-32517637D01*
X50034826Y-32549819D01*
X50045419Y-32584738D01*
X50049600Y-32627195D01*
X50049600Y-33768405D01*
X50045419Y-33810862D01*
X50034826Y-33845781D01*
X50017624Y-33877963D01*
X49994473Y-33906173D01*
X49966263Y-33929324D01*
X49934081Y-33946526D01*
X49899162Y-33957119D01*
X49856705Y-33961300D01*
X48390495Y-33961300D01*
X48348038Y-33957119D01*
X48313119Y-33946526D01*
X48280937Y-33929324D01*
X48252727Y-33906173D01*
X48229576Y-33877963D01*
X48212374Y-33845781D01*
X48201781Y-33810862D01*
X48197600Y-33768405D01*
X48197600Y-32627195D01*
X48201781Y-32584738D01*
X48212374Y-32549819D01*
X48229576Y-32517637D01*
X48252727Y-32489427D01*
X48280937Y-32466276D01*
X48313119Y-32449074D01*
X48348038Y-32438481D01*
X48390495Y-32434300D01*
X49856705Y-32434300D01*
X49899162Y-32438481D01*
G37*
G36*
X68762274Y-32677865D02*
G01*
X68799967Y-32689299D01*
X68834703Y-32707866D01*
X68865148Y-32732852D01*
X68890134Y-32763297D01*
X68908701Y-32798033D01*
X68920135Y-32835726D01*
X68924600Y-32881061D01*
X68924600Y-33717739D01*
X68920135Y-33763074D01*
X68908701Y-33800767D01*
X68890134Y-33835503D01*
X68865148Y-33865948D01*
X68834703Y-33890934D01*
X68799967Y-33909501D01*
X68762274Y-33920935D01*
X68716939Y-33925400D01*
X67630261Y-33925400D01*
X67584926Y-33920935D01*
X67547233Y-33909501D01*
X67512497Y-33890934D01*
X67482052Y-33865948D01*
X67457066Y-33835503D01*
X67438499Y-33800767D01*
X67427065Y-33763074D01*
X67422600Y-33717739D01*
X67422600Y-32881061D01*
X67427065Y-32835726D01*
X67438499Y-32798033D01*
X67457066Y-32763297D01*
X67482052Y-32732852D01*
X67512497Y-32707866D01*
X67547233Y-32689299D01*
X67584926Y-32677865D01*
X67630261Y-32673400D01*
X68716939Y-32673400D01*
X68762274Y-32677865D01*
G37*
G36*
X51873274Y-31765465D02*
G01*
X51910967Y-31776899D01*
X51945703Y-31795466D01*
X51976148Y-31820452D01*
X52001134Y-31850897D01*
X52019701Y-31885633D01*
X52031135Y-31923326D01*
X52035600Y-31968661D01*
X52035600Y-33055339D01*
X52031135Y-33100674D01*
X52019701Y-33138367D01*
X52001134Y-33173103D01*
X51976148Y-33203548D01*
X51945703Y-33228534D01*
X51910967Y-33247101D01*
X51873274Y-33258535D01*
X51827939Y-33263000D01*
X50991261Y-33263000D01*
X50945926Y-33258535D01*
X50908233Y-33247101D01*
X50873497Y-33228534D01*
X50843052Y-33203548D01*
X50818066Y-33173103D01*
X50799499Y-33138367D01*
X50788065Y-33100674D01*
X50783600Y-33055339D01*
X50783600Y-31968661D01*
X50788065Y-31923326D01*
X50799499Y-31885633D01*
X50818066Y-31850897D01*
X50843052Y-31820452D01*
X50873497Y-31795466D01*
X50908233Y-31776899D01*
X50945926Y-31765465D01*
X50991261Y-31761000D01*
X51827939Y-31761000D01*
X51873274Y-31765465D01*
G37*
G36*
X53923274Y-31765465D02*
G01*
X53960967Y-31776899D01*
X53995703Y-31795466D01*
X54026148Y-31820452D01*
X54051134Y-31850897D01*
X54069701Y-31885633D01*
X54081135Y-31923326D01*
X54085600Y-31968661D01*
X54085600Y-33055339D01*
X54081135Y-33100674D01*
X54069701Y-33138367D01*
X54051134Y-33173103D01*
X54026148Y-33203548D01*
X53995703Y-33228534D01*
X53960967Y-33247101D01*
X53923274Y-33258535D01*
X53877939Y-33263000D01*
X53041261Y-33263000D01*
X52995926Y-33258535D01*
X52958233Y-33247101D01*
X52923497Y-33228534D01*
X52893052Y-33203548D01*
X52868066Y-33173103D01*
X52849499Y-33138367D01*
X52838065Y-33100674D01*
X52833600Y-33055339D01*
X52833600Y-31968661D01*
X52838065Y-31923326D01*
X52849499Y-31885633D01*
X52868066Y-31850897D01*
X52893052Y-31820452D01*
X52923497Y-31795466D01*
X52958233Y-31776899D01*
X52995926Y-31765465D01*
X53041261Y-31761000D01*
X53877939Y-31761000D01*
X53923274Y-31765465D01*
G37*
G36*
X79686274Y-31663865D02*
G01*
X79723967Y-31675299D01*
X79758703Y-31693866D01*
X79789148Y-31718852D01*
X79814134Y-31749297D01*
X79832701Y-31784033D01*
X79844135Y-31821726D01*
X79848600Y-31867061D01*
X79848600Y-32953739D01*
X79844135Y-32999074D01*
X79832701Y-33036767D01*
X79814134Y-33071503D01*
X79789148Y-33101948D01*
X79758703Y-33126934D01*
X79723967Y-33145501D01*
X79686274Y-33156935D01*
X79640939Y-33161400D01*
X78804261Y-33161400D01*
X78758926Y-33156935D01*
X78721233Y-33145501D01*
X78686497Y-33126934D01*
X78656052Y-33101948D01*
X78631066Y-33071503D01*
X78612499Y-33036767D01*
X78601065Y-32999074D01*
X78596600Y-32953739D01*
X78596600Y-31867061D01*
X78601065Y-31821726D01*
X78612499Y-31784033D01*
X78631066Y-31749297D01*
X78656052Y-31718852D01*
X78686497Y-31693866D01*
X78721233Y-31675299D01*
X78758926Y-31663865D01*
X78804261Y-31659400D01*
X79640939Y-31659400D01*
X79686274Y-31663865D01*
G37*
G36*
X77636274Y-31663865D02*
G01*
X77673967Y-31675299D01*
X77708703Y-31693866D01*
X77739148Y-31718852D01*
X77764134Y-31749297D01*
X77782701Y-31784033D01*
X77794135Y-31821726D01*
X77798600Y-31867061D01*
X77798600Y-32953739D01*
X77794135Y-32999074D01*
X77782701Y-33036767D01*
X77764134Y-33071503D01*
X77739148Y-33101948D01*
X77708703Y-33126934D01*
X77673967Y-33145501D01*
X77636274Y-33156935D01*
X77590939Y-33161400D01*
X76754261Y-33161400D01*
X76708926Y-33156935D01*
X76671233Y-33145501D01*
X76636497Y-33126934D01*
X76606052Y-33101948D01*
X76581066Y-33071503D01*
X76562499Y-33036767D01*
X76551065Y-32999074D01*
X76546600Y-32953739D01*
X76546600Y-31867061D01*
X76551065Y-31821726D01*
X76562499Y-31784033D01*
X76581066Y-31749297D01*
X76606052Y-31718852D01*
X76636497Y-31693866D01*
X76671233Y-31675299D01*
X76708926Y-31663865D01*
X76754261Y-31659400D01*
X77590939Y-31659400D01*
X77636274Y-31663865D01*
G37*
G36*
X66732274Y-31663865D02*
G01*
X66769967Y-31675299D01*
X66804703Y-31693866D01*
X66835148Y-31718852D01*
X66860134Y-31749297D01*
X66878701Y-31784033D01*
X66890135Y-31821726D01*
X66894600Y-31867061D01*
X66894600Y-32953739D01*
X66890135Y-32999074D01*
X66878701Y-33036767D01*
X66860134Y-33071503D01*
X66835148Y-33101948D01*
X66804703Y-33126934D01*
X66769967Y-33145501D01*
X66732274Y-33156935D01*
X66686939Y-33161400D01*
X65850261Y-33161400D01*
X65804926Y-33156935D01*
X65767233Y-33145501D01*
X65732497Y-33126934D01*
X65702052Y-33101948D01*
X65677066Y-33071503D01*
X65658499Y-33036767D01*
X65647065Y-32999074D01*
X65642600Y-32953739D01*
X65642600Y-31867061D01*
X65647065Y-31821726D01*
X65658499Y-31784033D01*
X65677066Y-31749297D01*
X65702052Y-31718852D01*
X65732497Y-31693866D01*
X65767233Y-31675299D01*
X65804926Y-31663865D01*
X65850261Y-31659400D01*
X66686939Y-31659400D01*
X66732274Y-31663865D01*
G37*
G36*
X64682274Y-31663865D02*
G01*
X64719967Y-31675299D01*
X64754703Y-31693866D01*
X64785148Y-31718852D01*
X64810134Y-31749297D01*
X64828701Y-31784033D01*
X64840135Y-31821726D01*
X64844600Y-31867061D01*
X64844600Y-32953739D01*
X64840135Y-32999074D01*
X64828701Y-33036767D01*
X64810134Y-33071503D01*
X64785148Y-33101948D01*
X64754703Y-33126934D01*
X64719967Y-33145501D01*
X64682274Y-33156935D01*
X64636939Y-33161400D01*
X63800261Y-33161400D01*
X63754926Y-33156935D01*
X63717233Y-33145501D01*
X63682497Y-33126934D01*
X63652052Y-33101948D01*
X63627066Y-33071503D01*
X63608499Y-33036767D01*
X63597065Y-32999074D01*
X63592600Y-32953739D01*
X63592600Y-31867061D01*
X63597065Y-31821726D01*
X63608499Y-31784033D01*
X63627066Y-31749297D01*
X63652052Y-31718852D01*
X63682497Y-31693866D01*
X63717233Y-31675299D01*
X63754926Y-31663865D01*
X63800261Y-31659400D01*
X64636939Y-31659400D01*
X64682274Y-31663865D01*
G37*
G36*
X92640274Y-31638465D02*
G01*
X92677967Y-31649899D01*
X92712703Y-31668466D01*
X92743148Y-31693452D01*
X92768134Y-31723897D01*
X92786701Y-31758633D01*
X92798135Y-31796326D01*
X92802600Y-31841661D01*
X92802600Y-32928339D01*
X92798135Y-32973674D01*
X92786701Y-33011367D01*
X92768134Y-33046103D01*
X92743148Y-33076548D01*
X92712703Y-33101534D01*
X92677967Y-33120101D01*
X92640274Y-33131535D01*
X92594939Y-33136000D01*
X91758261Y-33136000D01*
X91712926Y-33131535D01*
X91675233Y-33120101D01*
X91640497Y-33101534D01*
X91610052Y-33076548D01*
X91585066Y-33046103D01*
X91566499Y-33011367D01*
X91555065Y-32973674D01*
X91550600Y-32928339D01*
X91550600Y-31841661D01*
X91555065Y-31796326D01*
X91566499Y-31758633D01*
X91585066Y-31723897D01*
X91610052Y-31693452D01*
X91640497Y-31668466D01*
X91675233Y-31649899D01*
X91712926Y-31638465D01*
X91758261Y-31634000D01*
X92594939Y-31634000D01*
X92640274Y-31638465D01*
G37*
G36*
X90590274Y-31638465D02*
G01*
X90627967Y-31649899D01*
X90662703Y-31668466D01*
X90693148Y-31693452D01*
X90718134Y-31723897D01*
X90736701Y-31758633D01*
X90748135Y-31796326D01*
X90752600Y-31841661D01*
X90752600Y-32928339D01*
X90748135Y-32973674D01*
X90736701Y-33011367D01*
X90718134Y-33046103D01*
X90693148Y-33076548D01*
X90662703Y-33101534D01*
X90627967Y-33120101D01*
X90590274Y-33131535D01*
X90544939Y-33136000D01*
X89708261Y-33136000D01*
X89662926Y-33131535D01*
X89625233Y-33120101D01*
X89590497Y-33101534D01*
X89560052Y-33076548D01*
X89535066Y-33046103D01*
X89516499Y-33011367D01*
X89505065Y-32973674D01*
X89500600Y-32928339D01*
X89500600Y-31841661D01*
X89505065Y-31796326D01*
X89516499Y-31758633D01*
X89535066Y-31723897D01*
X89560052Y-31693452D01*
X89590497Y-31668466D01*
X89625233Y-31649899D01*
X89662926Y-31638465D01*
X89708261Y-31634000D01*
X90544939Y-31634000D01*
X90590274Y-31638465D01*
G37*
G36*
X94924274Y-31578265D02*
G01*
X94961967Y-31589699D01*
X94996703Y-31608266D01*
X95027148Y-31633252D01*
X95052134Y-31663697D01*
X95070701Y-31698433D01*
X95082135Y-31736126D01*
X95086600Y-31781461D01*
X95086600Y-32618139D01*
X95082135Y-32663474D01*
X95070701Y-32701167D01*
X95052134Y-32735903D01*
X95027148Y-32766348D01*
X94996703Y-32791334D01*
X94961967Y-32809901D01*
X94924274Y-32821335D01*
X94878939Y-32825800D01*
X93792261Y-32825800D01*
X93746926Y-32821335D01*
X93709233Y-32809901D01*
X93674497Y-32791334D01*
X93644052Y-32766348D01*
X93619066Y-32735903D01*
X93600499Y-32701167D01*
X93589065Y-32663474D01*
X93584600Y-32618139D01*
X93584600Y-31781461D01*
X93589065Y-31736126D01*
X93600499Y-31698433D01*
X93619066Y-31663697D01*
X93644052Y-31633252D01*
X93674497Y-31608266D01*
X93709233Y-31589699D01*
X93746926Y-31578265D01*
X93792261Y-31573800D01*
X94878939Y-31573800D01*
X94924274Y-31578265D01*
G37*
G36*
X44352874Y-31502065D02*
G01*
X44390567Y-31513499D01*
X44425303Y-31532066D01*
X44455748Y-31557052D01*
X44480734Y-31587497D01*
X44499301Y-31622233D01*
X44510735Y-31659926D01*
X44515200Y-31705261D01*
X44515200Y-32541939D01*
X44510735Y-32587274D01*
X44499301Y-32624967D01*
X44480734Y-32659703D01*
X44455748Y-32690148D01*
X44425303Y-32715134D01*
X44390567Y-32733701D01*
X44352874Y-32745135D01*
X44307539Y-32749600D01*
X43220861Y-32749600D01*
X43175526Y-32745135D01*
X43137833Y-32733701D01*
X43103097Y-32715134D01*
X43072652Y-32690148D01*
X43047666Y-32659703D01*
X43029099Y-32624967D01*
X43017665Y-32587274D01*
X43013200Y-32541939D01*
X43013200Y-31705261D01*
X43017665Y-31659926D01*
X43029099Y-31622233D01*
X43047666Y-31587497D01*
X43072652Y-31557052D01*
X43103097Y-31532066D01*
X43137833Y-31513499D01*
X43175526Y-31502065D01*
X43220861Y-31497600D01*
X44307539Y-31497600D01*
X44352874Y-31502065D01*
G37*
G36*
X56138474Y-31044865D02*
G01*
X56176167Y-31056299D01*
X56210903Y-31074866D01*
X56241348Y-31099852D01*
X56266334Y-31130297D01*
X56284901Y-31165033D01*
X56296335Y-31202726D01*
X56300800Y-31248061D01*
X56300800Y-32084739D01*
X56296335Y-32130074D01*
X56284901Y-32167767D01*
X56266334Y-32202503D01*
X56241348Y-32232948D01*
X56210903Y-32257934D01*
X56176167Y-32276501D01*
X56138474Y-32287935D01*
X56093139Y-32292400D01*
X55006461Y-32292400D01*
X54961126Y-32287935D01*
X54923433Y-32276501D01*
X54888697Y-32257934D01*
X54858252Y-32232948D01*
X54833266Y-32202503D01*
X54814699Y-32167767D01*
X54803265Y-32130074D01*
X54798800Y-32084739D01*
X54798800Y-31248061D01*
X54803265Y-31202726D01*
X54814699Y-31165033D01*
X54833266Y-31130297D01*
X54858252Y-31099852D01*
X54888697Y-31074866D01*
X54923433Y-31056299D01*
X54961126Y-31044865D01*
X55006461Y-31040400D01*
X56093139Y-31040400D01*
X56138474Y-31044865D01*
G37*
G36*
X82554474Y-30968665D02*
G01*
X82592167Y-30980099D01*
X82626903Y-30998666D01*
X82657348Y-31023652D01*
X82682334Y-31054097D01*
X82700901Y-31088833D01*
X82712335Y-31126526D01*
X82716800Y-31171861D01*
X82716800Y-32008539D01*
X82712335Y-32053874D01*
X82700901Y-32091567D01*
X82682334Y-32126303D01*
X82657348Y-32156748D01*
X82626903Y-32181734D01*
X82592167Y-32200301D01*
X82554474Y-32211735D01*
X82509139Y-32216200D01*
X81422461Y-32216200D01*
X81377126Y-32211735D01*
X81339433Y-32200301D01*
X81304697Y-32181734D01*
X81274252Y-32156748D01*
X81249266Y-32126303D01*
X81230699Y-32091567D01*
X81219265Y-32053874D01*
X81214800Y-32008539D01*
X81214800Y-31171861D01*
X81219265Y-31126526D01*
X81230699Y-31088833D01*
X81249266Y-31054097D01*
X81274252Y-31023652D01*
X81304697Y-30998666D01*
X81339433Y-30980099D01*
X81377126Y-30968665D01*
X81422461Y-30964200D01*
X82509139Y-30964200D01*
X82554474Y-30968665D01*
G37*
G36*
X68762274Y-30917865D02*
G01*
X68799967Y-30929299D01*
X68834703Y-30947866D01*
X68865148Y-30972852D01*
X68890134Y-31003297D01*
X68908701Y-31038033D01*
X68920135Y-31075726D01*
X68924600Y-31121061D01*
X68924600Y-31957739D01*
X68920135Y-32003074D01*
X68908701Y-32040767D01*
X68890134Y-32075503D01*
X68865148Y-32105948D01*
X68834703Y-32130934D01*
X68799967Y-32149501D01*
X68762274Y-32160935D01*
X68716939Y-32165400D01*
X67630261Y-32165400D01*
X67584926Y-32160935D01*
X67547233Y-32149501D01*
X67512497Y-32130934D01*
X67482052Y-32105948D01*
X67457066Y-32075503D01*
X67438499Y-32040767D01*
X67427065Y-32003074D01*
X67422600Y-31957739D01*
X67422600Y-31121061D01*
X67427065Y-31075726D01*
X67438499Y-31038033D01*
X67457066Y-31003297D01*
X67482052Y-30972852D01*
X67512497Y-30947866D01*
X67547233Y-30929299D01*
X67584926Y-30917865D01*
X67630261Y-30913400D01*
X68716939Y-30913400D01*
X68762274Y-30917865D01*
G37*
G36*
X62751562Y-30301681D02*
G01*
X62786481Y-30312274D01*
X62818663Y-30329476D01*
X62846873Y-30352627D01*
X62870024Y-30380837D01*
X62887226Y-30413019D01*
X62897819Y-30447938D01*
X62902000Y-30490395D01*
X62902000Y-31631605D01*
X62897819Y-31674062D01*
X62887226Y-31708981D01*
X62870024Y-31741163D01*
X62846873Y-31769373D01*
X62818663Y-31792524D01*
X62786481Y-31809726D01*
X62751562Y-31820319D01*
X62709105Y-31824500D01*
X61242895Y-31824500D01*
X61200438Y-31820319D01*
X61165519Y-31809726D01*
X61133337Y-31792524D01*
X61105127Y-31769373D01*
X61081976Y-31741163D01*
X61064774Y-31708981D01*
X61054181Y-31674062D01*
X61050000Y-31631605D01*
X61050000Y-30490395D01*
X61054181Y-30447938D01*
X61064774Y-30413019D01*
X61081976Y-30380837D01*
X61105127Y-30352627D01*
X61133337Y-30329476D01*
X61165519Y-30312274D01*
X61200438Y-30301681D01*
X61242895Y-30297500D01*
X62709105Y-30297500D01*
X62751562Y-30301681D01*
G37*
G36*
X60389362Y-30301681D02*
G01*
X60424281Y-30312274D01*
X60456463Y-30329476D01*
X60484673Y-30352627D01*
X60507824Y-30380837D01*
X60525026Y-30413019D01*
X60535619Y-30447938D01*
X60539800Y-30490395D01*
X60539800Y-31631605D01*
X60535619Y-31674062D01*
X60525026Y-31708981D01*
X60507824Y-31741163D01*
X60484673Y-31769373D01*
X60456463Y-31792524D01*
X60424281Y-31809726D01*
X60389362Y-31820319D01*
X60346905Y-31824500D01*
X58880695Y-31824500D01*
X58838238Y-31820319D01*
X58803319Y-31809726D01*
X58771137Y-31792524D01*
X58742927Y-31769373D01*
X58719776Y-31741163D01*
X58702574Y-31708981D01*
X58691981Y-31674062D01*
X58687800Y-31631605D01*
X58687800Y-30490395D01*
X58691981Y-30447938D01*
X58702574Y-30413019D01*
X58719776Y-30380837D01*
X58742927Y-30352627D01*
X58771137Y-30329476D01*
X58803319Y-30312274D01*
X58838238Y-30301681D01*
X58880695Y-30297500D01*
X60346905Y-30297500D01*
X60389362Y-30301681D01*
G37*
G36*
X51855274Y-29784265D02*
G01*
X51892967Y-29795699D01*
X51927703Y-29814266D01*
X51958148Y-29839252D01*
X51983134Y-29869697D01*
X52001701Y-29904433D01*
X52013135Y-29942126D01*
X52017600Y-29987461D01*
X52017600Y-31074139D01*
X52013135Y-31119474D01*
X52001701Y-31157167D01*
X51983134Y-31191903D01*
X51958148Y-31222348D01*
X51927703Y-31247334D01*
X51892967Y-31265901D01*
X51855274Y-31277335D01*
X51809939Y-31281800D01*
X50973261Y-31281800D01*
X50927926Y-31277335D01*
X50890233Y-31265901D01*
X50855497Y-31247334D01*
X50825052Y-31222348D01*
X50800066Y-31191903D01*
X50781499Y-31157167D01*
X50770065Y-31119474D01*
X50765600Y-31074139D01*
X50765600Y-29987461D01*
X50770065Y-29942126D01*
X50781499Y-29904433D01*
X50800066Y-29869697D01*
X50825052Y-29839252D01*
X50855497Y-29814266D01*
X50890233Y-29795699D01*
X50927926Y-29784265D01*
X50973261Y-29779800D01*
X51809939Y-29779800D01*
X51855274Y-29784265D01*
G37*
G36*
X53905274Y-29784265D02*
G01*
X53942967Y-29795699D01*
X53977703Y-29814266D01*
X54008148Y-29839252D01*
X54033134Y-29869697D01*
X54051701Y-29904433D01*
X54063135Y-29942126D01*
X54067600Y-29987461D01*
X54067600Y-31074139D01*
X54063135Y-31119474D01*
X54051701Y-31157167D01*
X54033134Y-31191903D01*
X54008148Y-31222348D01*
X53977703Y-31247334D01*
X53942967Y-31265901D01*
X53905274Y-31277335D01*
X53859939Y-31281800D01*
X53023261Y-31281800D01*
X52977926Y-31277335D01*
X52940233Y-31265901D01*
X52905497Y-31247334D01*
X52875052Y-31222348D01*
X52850066Y-31191903D01*
X52831499Y-31157167D01*
X52820065Y-31119474D01*
X52815600Y-31074139D01*
X52815600Y-29987461D01*
X52820065Y-29942126D01*
X52831499Y-29904433D01*
X52850066Y-29869697D01*
X52875052Y-29839252D01*
X52905497Y-29814266D01*
X52940233Y-29795699D01*
X52977926Y-29784265D01*
X53023261Y-29779800D01*
X53859939Y-29779800D01*
X53905274Y-29784265D01*
G37*
G36*
X64691274Y-29682665D02*
G01*
X64728967Y-29694099D01*
X64763703Y-29712666D01*
X64794148Y-29737652D01*
X64819134Y-29768097D01*
X64837701Y-29802833D01*
X64849135Y-29840526D01*
X64853600Y-29885861D01*
X64853600Y-30972539D01*
X64849135Y-31017874D01*
X64837701Y-31055567D01*
X64819134Y-31090303D01*
X64794148Y-31120748D01*
X64763703Y-31145734D01*
X64728967Y-31164301D01*
X64691274Y-31175735D01*
X64645939Y-31180200D01*
X63809261Y-31180200D01*
X63763926Y-31175735D01*
X63726233Y-31164301D01*
X63691497Y-31145734D01*
X63661052Y-31120748D01*
X63636066Y-31090303D01*
X63617499Y-31055567D01*
X63606065Y-31017874D01*
X63601600Y-30972539D01*
X63601600Y-29885861D01*
X63606065Y-29840526D01*
X63617499Y-29802833D01*
X63636066Y-29768097D01*
X63661052Y-29737652D01*
X63691497Y-29712666D01*
X63726233Y-29694099D01*
X63763926Y-29682665D01*
X63809261Y-29678200D01*
X64645939Y-29678200D01*
X64691274Y-29682665D01*
G37*
G36*
X66741274Y-29682665D02*
G01*
X66778967Y-29694099D01*
X66813703Y-29712666D01*
X66844148Y-29737652D01*
X66869134Y-29768097D01*
X66887701Y-29802833D01*
X66899135Y-29840526D01*
X66903600Y-29885861D01*
X66903600Y-30972539D01*
X66899135Y-31017874D01*
X66887701Y-31055567D01*
X66869134Y-31090303D01*
X66844148Y-31120748D01*
X66813703Y-31145734D01*
X66778967Y-31164301D01*
X66741274Y-31175735D01*
X66695939Y-31180200D01*
X65859261Y-31180200D01*
X65813926Y-31175735D01*
X65776233Y-31164301D01*
X65741497Y-31145734D01*
X65711052Y-31120748D01*
X65686066Y-31090303D01*
X65667499Y-31055567D01*
X65656065Y-31017874D01*
X65651600Y-30972539D01*
X65651600Y-29885861D01*
X65656065Y-29840526D01*
X65667499Y-29802833D01*
X65686066Y-29768097D01*
X65711052Y-29737652D01*
X65741497Y-29712666D01*
X65776233Y-29694099D01*
X65813926Y-29682665D01*
X65859261Y-29678200D01*
X66695939Y-29678200D01*
X66741274Y-29682665D01*
G37*
G36*
X79695274Y-29657265D02*
G01*
X79732967Y-29668699D01*
X79767703Y-29687266D01*
X79798148Y-29712252D01*
X79823134Y-29742697D01*
X79841701Y-29777433D01*
X79853135Y-29815126D01*
X79857600Y-29860461D01*
X79857600Y-30947139D01*
X79853135Y-30992474D01*
X79841701Y-31030167D01*
X79823134Y-31064903D01*
X79798148Y-31095348D01*
X79767703Y-31120334D01*
X79732967Y-31138901D01*
X79695274Y-31150335D01*
X79649939Y-31154800D01*
X78813261Y-31154800D01*
X78767926Y-31150335D01*
X78730233Y-31138901D01*
X78695497Y-31120334D01*
X78665052Y-31095348D01*
X78640066Y-31064903D01*
X78621499Y-31030167D01*
X78610065Y-30992474D01*
X78605600Y-30947139D01*
X78605600Y-29860461D01*
X78610065Y-29815126D01*
X78621499Y-29777433D01*
X78640066Y-29742697D01*
X78665052Y-29712252D01*
X78695497Y-29687266D01*
X78730233Y-29668699D01*
X78767926Y-29657265D01*
X78813261Y-29652800D01*
X79649939Y-29652800D01*
X79695274Y-29657265D01*
G37*
G36*
X77645274Y-29657265D02*
G01*
X77682967Y-29668699D01*
X77717703Y-29687266D01*
X77748148Y-29712252D01*
X77773134Y-29742697D01*
X77791701Y-29777433D01*
X77803135Y-29815126D01*
X77807600Y-29860461D01*
X77807600Y-30947139D01*
X77803135Y-30992474D01*
X77791701Y-31030167D01*
X77773134Y-31064903D01*
X77748148Y-31095348D01*
X77717703Y-31120334D01*
X77682967Y-31138901D01*
X77645274Y-31150335D01*
X77599939Y-31154800D01*
X76763261Y-31154800D01*
X76717926Y-31150335D01*
X76680233Y-31138901D01*
X76645497Y-31120334D01*
X76615052Y-31095348D01*
X76590066Y-31064903D01*
X76571499Y-31030167D01*
X76560065Y-30992474D01*
X76555600Y-30947139D01*
X76555600Y-29860461D01*
X76560065Y-29815126D01*
X76571499Y-29777433D01*
X76590066Y-29742697D01*
X76615052Y-29712252D01*
X76645497Y-29687266D01*
X76680233Y-29668699D01*
X76717926Y-29657265D01*
X76763261Y-29652800D01*
X77599939Y-29652800D01*
X77645274Y-29657265D01*
G37*
G36*
X72555962Y-29615881D02*
G01*
X72590881Y-29626474D01*
X72623063Y-29643676D01*
X72651273Y-29666827D01*
X72674424Y-29695037D01*
X72691626Y-29727219D01*
X72702219Y-29762138D01*
X72706400Y-29804595D01*
X72706400Y-30945805D01*
X72702219Y-30988262D01*
X72691626Y-31023181D01*
X72674424Y-31055363D01*
X72651273Y-31083573D01*
X72623063Y-31106724D01*
X72590881Y-31123926D01*
X72555962Y-31134519D01*
X72513505Y-31138700D01*
X71047295Y-31138700D01*
X71004838Y-31134519D01*
X70969919Y-31123926D01*
X70937737Y-31106724D01*
X70909527Y-31083573D01*
X70886376Y-31055363D01*
X70869174Y-31023181D01*
X70858581Y-30988262D01*
X70854400Y-30945805D01*
X70854400Y-29804595D01*
X70858581Y-29762138D01*
X70869174Y-29727219D01*
X70886376Y-29695037D01*
X70909527Y-29666827D01*
X70937737Y-29643676D01*
X70969919Y-29626474D01*
X71004838Y-29615881D01*
X71047295Y-29611700D01*
X72513505Y-29611700D01*
X72555962Y-29615881D01*
G37*
G36*
X74918162Y-29615881D02*
G01*
X74953081Y-29626474D01*
X74985263Y-29643676D01*
X75013473Y-29666827D01*
X75036624Y-29695037D01*
X75053826Y-29727219D01*
X75064419Y-29762138D01*
X75068600Y-29804595D01*
X75068600Y-30945805D01*
X75064419Y-30988262D01*
X75053826Y-31023181D01*
X75036624Y-31055363D01*
X75013473Y-31083573D01*
X74985263Y-31106724D01*
X74953081Y-31123926D01*
X74918162Y-31134519D01*
X74875705Y-31138700D01*
X73409495Y-31138700D01*
X73367038Y-31134519D01*
X73332119Y-31123926D01*
X73299937Y-31106724D01*
X73271727Y-31083573D01*
X73248576Y-31055363D01*
X73231374Y-31023181D01*
X73220781Y-30988262D01*
X73216600Y-30945805D01*
X73216600Y-29804595D01*
X73220781Y-29762138D01*
X73231374Y-29727219D01*
X73248576Y-29695037D01*
X73271727Y-29666827D01*
X73299937Y-29643676D01*
X73332119Y-29626474D01*
X73367038Y-29615881D01*
X73409495Y-29611700D01*
X74875705Y-29611700D01*
X74918162Y-29615881D01*
G37*
G36*
X86119562Y-29615881D02*
G01*
X86154481Y-29626474D01*
X86186663Y-29643676D01*
X86214873Y-29666827D01*
X86238024Y-29695037D01*
X86255226Y-29727219D01*
X86265819Y-29762138D01*
X86270000Y-29804595D01*
X86270000Y-30945805D01*
X86265819Y-30988262D01*
X86255226Y-31023181D01*
X86238024Y-31055363D01*
X86214873Y-31083573D01*
X86186663Y-31106724D01*
X86154481Y-31123926D01*
X86119562Y-31134519D01*
X86077105Y-31138700D01*
X84610895Y-31138700D01*
X84568438Y-31134519D01*
X84533519Y-31123926D01*
X84501337Y-31106724D01*
X84473127Y-31083573D01*
X84449976Y-31055363D01*
X84432774Y-31023181D01*
X84422181Y-30988262D01*
X84418000Y-30945805D01*
X84418000Y-29804595D01*
X84422181Y-29762138D01*
X84432774Y-29727219D01*
X84449976Y-29695037D01*
X84473127Y-29666827D01*
X84501337Y-29643676D01*
X84533519Y-29626474D01*
X84568438Y-29615881D01*
X84610895Y-29611700D01*
X86077105Y-29611700D01*
X86119562Y-29615881D01*
G37*
G36*
X88456362Y-29615881D02*
G01*
X88491281Y-29626474D01*
X88523463Y-29643676D01*
X88551673Y-29666827D01*
X88574824Y-29695037D01*
X88592026Y-29727219D01*
X88602619Y-29762138D01*
X88606800Y-29804595D01*
X88606800Y-30945805D01*
X88602619Y-30988262D01*
X88592026Y-31023181D01*
X88574824Y-31055363D01*
X88551673Y-31083573D01*
X88523463Y-31106724D01*
X88491281Y-31123926D01*
X88456362Y-31134519D01*
X88413905Y-31138700D01*
X86947695Y-31138700D01*
X86905238Y-31134519D01*
X86870319Y-31123926D01*
X86838137Y-31106724D01*
X86809927Y-31083573D01*
X86786776Y-31055363D01*
X86769574Y-31023181D01*
X86758981Y-30988262D01*
X86754800Y-30945805D01*
X86754800Y-29804595D01*
X86758981Y-29762138D01*
X86769574Y-29727219D01*
X86786776Y-29695037D01*
X86809927Y-29666827D01*
X86838137Y-29643676D01*
X86870319Y-29626474D01*
X86905238Y-29615881D01*
X86947695Y-29611700D01*
X88413905Y-29611700D01*
X88456362Y-29615881D01*
G37*
G36*
X90608274Y-29631865D02*
G01*
X90645967Y-29643299D01*
X90680703Y-29661866D01*
X90711148Y-29686852D01*
X90736134Y-29717297D01*
X90754701Y-29752033D01*
X90766135Y-29789726D01*
X90770600Y-29835061D01*
X90770600Y-30921739D01*
X90766135Y-30967074D01*
X90754701Y-31004767D01*
X90736134Y-31039503D01*
X90711148Y-31069948D01*
X90680703Y-31094934D01*
X90645967Y-31113501D01*
X90608274Y-31124935D01*
X90562939Y-31129400D01*
X89726261Y-31129400D01*
X89680926Y-31124935D01*
X89643233Y-31113501D01*
X89608497Y-31094934D01*
X89578052Y-31069948D01*
X89553066Y-31039503D01*
X89534499Y-31004767D01*
X89523065Y-30967074D01*
X89518600Y-30921739D01*
X89518600Y-29835061D01*
X89523065Y-29789726D01*
X89534499Y-29752033D01*
X89553066Y-29717297D01*
X89578052Y-29686852D01*
X89608497Y-29661866D01*
X89643233Y-29643299D01*
X89680926Y-29631865D01*
X89726261Y-29627400D01*
X90562939Y-29627400D01*
X90608274Y-29631865D01*
G37*
G36*
X92658274Y-29631865D02*
G01*
X92695967Y-29643299D01*
X92730703Y-29661866D01*
X92761148Y-29686852D01*
X92786134Y-29717297D01*
X92804701Y-29752033D01*
X92816135Y-29789726D01*
X92820600Y-29835061D01*
X92820600Y-30921739D01*
X92816135Y-30967074D01*
X92804701Y-31004767D01*
X92786134Y-31039503D01*
X92761148Y-31069948D01*
X92730703Y-31094934D01*
X92695967Y-31113501D01*
X92658274Y-31124935D01*
X92612939Y-31129400D01*
X91776261Y-31129400D01*
X91730926Y-31124935D01*
X91693233Y-31113501D01*
X91658497Y-31094934D01*
X91628052Y-31069948D01*
X91603066Y-31039503D01*
X91584499Y-31004767D01*
X91573065Y-30967074D01*
X91568600Y-30921739D01*
X91568600Y-29835061D01*
X91573065Y-29789726D01*
X91584499Y-29752033D01*
X91603066Y-29717297D01*
X91628052Y-29686852D01*
X91658497Y-29661866D01*
X91693233Y-29643299D01*
X91730926Y-29631865D01*
X91776261Y-29627400D01*
X92612939Y-29627400D01*
X92658274Y-29631865D01*
G37*
G36*
X49899162Y-29463481D02*
G01*
X49934081Y-29474074D01*
X49966263Y-29491276D01*
X49994473Y-29514427D01*
X50017624Y-29542637D01*
X50034826Y-29574819D01*
X50045419Y-29609738D01*
X50049600Y-29652195D01*
X50049600Y-30793405D01*
X50045419Y-30835862D01*
X50034826Y-30870781D01*
X50017624Y-30902963D01*
X49994473Y-30931173D01*
X49966263Y-30954324D01*
X49934081Y-30971526D01*
X49899162Y-30982119D01*
X49856705Y-30986300D01*
X48390495Y-30986300D01*
X48348038Y-30982119D01*
X48313119Y-30971526D01*
X48280937Y-30954324D01*
X48252727Y-30931173D01*
X48229576Y-30902963D01*
X48212374Y-30870781D01*
X48201781Y-30835862D01*
X48197600Y-30793405D01*
X48197600Y-29652195D01*
X48201781Y-29609738D01*
X48212374Y-29574819D01*
X48229576Y-29542637D01*
X48252727Y-29514427D01*
X48280937Y-29491276D01*
X48313119Y-29474074D01*
X48348038Y-29463481D01*
X48390495Y-29459300D01*
X49856705Y-29459300D01*
X49899162Y-29463481D01*
G37*
G36*
X47536962Y-29463481D02*
G01*
X47571881Y-29474074D01*
X47604063Y-29491276D01*
X47632273Y-29514427D01*
X47655424Y-29542637D01*
X47672626Y-29574819D01*
X47683219Y-29609738D01*
X47687400Y-29652195D01*
X47687400Y-30793405D01*
X47683219Y-30835862D01*
X47672626Y-30870781D01*
X47655424Y-30902963D01*
X47632273Y-30931173D01*
X47604063Y-30954324D01*
X47571881Y-30971526D01*
X47536962Y-30982119D01*
X47494505Y-30986300D01*
X46028295Y-30986300D01*
X45985838Y-30982119D01*
X45950919Y-30971526D01*
X45918737Y-30954324D01*
X45890527Y-30931173D01*
X45867376Y-30902963D01*
X45850174Y-30870781D01*
X45839581Y-30835862D01*
X45835400Y-30793405D01*
X45835400Y-29652195D01*
X45839581Y-29609738D01*
X45850174Y-29574819D01*
X45867376Y-29542637D01*
X45890527Y-29514427D01*
X45918737Y-29491276D01*
X45950919Y-29474074D01*
X45985838Y-29463481D01*
X46028295Y-29459300D01*
X47494505Y-29459300D01*
X47536962Y-29463481D01*
G37*
G36*
X94924274Y-29528265D02*
G01*
X94961967Y-29539699D01*
X94996703Y-29558266D01*
X95027148Y-29583252D01*
X95052134Y-29613697D01*
X95070701Y-29648433D01*
X95082135Y-29686126D01*
X95086600Y-29731461D01*
X95086600Y-30568139D01*
X95082135Y-30613474D01*
X95070701Y-30651167D01*
X95052134Y-30685903D01*
X95027148Y-30716348D01*
X94996703Y-30741334D01*
X94961967Y-30759901D01*
X94924274Y-30771335D01*
X94878939Y-30775800D01*
X93792261Y-30775800D01*
X93746926Y-30771335D01*
X93709233Y-30759901D01*
X93674497Y-30741334D01*
X93644052Y-30716348D01*
X93619066Y-30685903D01*
X93600499Y-30651167D01*
X93589065Y-30613474D01*
X93584600Y-30568139D01*
X93584600Y-29731461D01*
X93589065Y-29686126D01*
X93600499Y-29648433D01*
X93619066Y-29613697D01*
X93644052Y-29583252D01*
X93674497Y-29558266D01*
X93709233Y-29539699D01*
X93746926Y-29528265D01*
X93792261Y-29523800D01*
X94878939Y-29523800D01*
X94924274Y-29528265D01*
G37*
G36*
X44352874Y-29452065D02*
G01*
X44390567Y-29463499D01*
X44425303Y-29482066D01*
X44455748Y-29507052D01*
X44480734Y-29537497D01*
X44499301Y-29572233D01*
X44510735Y-29609926D01*
X44515200Y-29655261D01*
X44515200Y-30491939D01*
X44510735Y-30537274D01*
X44499301Y-30574967D01*
X44480734Y-30609703D01*
X44455748Y-30640148D01*
X44425303Y-30665134D01*
X44390567Y-30683701D01*
X44352874Y-30695135D01*
X44307539Y-30699600D01*
X43220861Y-30699600D01*
X43175526Y-30695135D01*
X43137833Y-30683701D01*
X43103097Y-30665134D01*
X43072652Y-30640148D01*
X43047666Y-30609703D01*
X43029099Y-30574967D01*
X43017665Y-30537274D01*
X43013200Y-30491939D01*
X43013200Y-29655261D01*
X43017665Y-29609926D01*
X43029099Y-29572233D01*
X43047666Y-29537497D01*
X43072652Y-29507052D01*
X43103097Y-29482066D01*
X43137833Y-29463499D01*
X43175526Y-29452065D01*
X43220861Y-29447600D01*
X44307539Y-29447600D01*
X44352874Y-29452065D01*
G37*
G36*
X56138474Y-28994865D02*
G01*
X56176167Y-29006299D01*
X56210903Y-29024866D01*
X56241348Y-29049852D01*
X56266334Y-29080297D01*
X56284901Y-29115033D01*
X56296335Y-29152726D01*
X56300800Y-29198061D01*
X56300800Y-30034739D01*
X56296335Y-30080074D01*
X56284901Y-30117767D01*
X56266334Y-30152503D01*
X56241348Y-30182948D01*
X56210903Y-30207934D01*
X56176167Y-30226501D01*
X56138474Y-30237935D01*
X56093139Y-30242400D01*
X55006461Y-30242400D01*
X54961126Y-30237935D01*
X54923433Y-30226501D01*
X54888697Y-30207934D01*
X54858252Y-30182948D01*
X54833266Y-30152503D01*
X54814699Y-30117767D01*
X54803265Y-30080074D01*
X54798800Y-30034739D01*
X54798800Y-29198061D01*
X54803265Y-29152726D01*
X54814699Y-29115033D01*
X54833266Y-29080297D01*
X54858252Y-29049852D01*
X54888697Y-29024866D01*
X54923433Y-29006299D01*
X54961126Y-28994865D01*
X55006461Y-28990400D01*
X56093139Y-28990400D01*
X56138474Y-28994865D01*
G37*
G36*
X82554474Y-28918665D02*
G01*
X82592167Y-28930099D01*
X82626903Y-28948666D01*
X82657348Y-28973652D01*
X82682334Y-29004097D01*
X82700901Y-29038833D01*
X82712335Y-29076526D01*
X82716800Y-29121861D01*
X82716800Y-29958539D01*
X82712335Y-30003874D01*
X82700901Y-30041567D01*
X82682334Y-30076303D01*
X82657348Y-30106748D01*
X82626903Y-30131734D01*
X82592167Y-30150301D01*
X82554474Y-30161735D01*
X82509139Y-30166200D01*
X81422461Y-30166200D01*
X81377126Y-30161735D01*
X81339433Y-30150301D01*
X81304697Y-30131734D01*
X81274252Y-30106748D01*
X81249266Y-30076303D01*
X81230699Y-30041567D01*
X81219265Y-30003874D01*
X81214800Y-29958539D01*
X81214800Y-29121861D01*
X81219265Y-29076526D01*
X81230699Y-29038833D01*
X81249266Y-29004097D01*
X81274252Y-28973652D01*
X81304697Y-28948666D01*
X81339433Y-28930099D01*
X81377126Y-28918665D01*
X81422461Y-28914200D01*
X82509139Y-28914200D01*
X82554474Y-28918665D01*
G37*
G36*
X68762274Y-28867865D02*
G01*
X68799967Y-28879299D01*
X68834703Y-28897866D01*
X68865148Y-28922852D01*
X68890134Y-28953297D01*
X68908701Y-28988033D01*
X68920135Y-29025726D01*
X68924600Y-29071061D01*
X68924600Y-29907739D01*
X68920135Y-29953074D01*
X68908701Y-29990767D01*
X68890134Y-30025503D01*
X68865148Y-30055948D01*
X68834703Y-30080934D01*
X68799967Y-30099501D01*
X68762274Y-30110935D01*
X68716939Y-30115400D01*
X67630261Y-30115400D01*
X67584926Y-30110935D01*
X67547233Y-30099501D01*
X67512497Y-30080934D01*
X67482052Y-30055948D01*
X67457066Y-30025503D01*
X67438499Y-29990767D01*
X67427065Y-29953074D01*
X67422600Y-29907739D01*
X67422600Y-29071061D01*
X67427065Y-29025726D01*
X67438499Y-28988033D01*
X67457066Y-28953297D01*
X67482052Y-28922852D01*
X67512497Y-28897866D01*
X67547233Y-28879299D01*
X67584926Y-28867865D01*
X67630261Y-28863400D01*
X68716939Y-28863400D01*
X68762274Y-28867865D01*
G37*
G36*
X61777274Y-27107865D02*
G01*
X61814967Y-27119299D01*
X61849703Y-27137866D01*
X61880148Y-27162852D01*
X61905134Y-27193297D01*
X61923701Y-27228033D01*
X61935135Y-27265726D01*
X61939600Y-27311061D01*
X61939600Y-28147739D01*
X61935135Y-28193074D01*
X61923701Y-28230767D01*
X61905134Y-28265503D01*
X61880148Y-28295948D01*
X61849703Y-28320934D01*
X61814967Y-28339501D01*
X61777274Y-28350935D01*
X61731939Y-28355400D01*
X60645261Y-28355400D01*
X60599926Y-28350935D01*
X60562233Y-28339501D01*
X60527497Y-28320934D01*
X60497052Y-28295948D01*
X60472066Y-28265503D01*
X60453499Y-28230767D01*
X60442065Y-28193074D01*
X60437600Y-28147739D01*
X60437600Y-27311061D01*
X60442065Y-27265726D01*
X60453499Y-27228033D01*
X60472066Y-27193297D01*
X60497052Y-27162852D01*
X60527497Y-27137866D01*
X60562233Y-27119299D01*
X60599926Y-27107865D01*
X60645261Y-27103400D01*
X61731939Y-27103400D01*
X61777274Y-27107865D01*
G37*
G36*
X68660674Y-27107865D02*
G01*
X68698367Y-27119299D01*
X68733103Y-27137866D01*
X68763548Y-27162852D01*
X68788534Y-27193297D01*
X68807101Y-27228033D01*
X68818535Y-27265726D01*
X68823000Y-27311061D01*
X68823000Y-28147739D01*
X68818535Y-28193074D01*
X68807101Y-28230767D01*
X68788534Y-28265503D01*
X68763548Y-28295948D01*
X68733103Y-28320934D01*
X68698367Y-28339501D01*
X68660674Y-28350935D01*
X68615339Y-28355400D01*
X67528661Y-28355400D01*
X67483326Y-28350935D01*
X67445633Y-28339501D01*
X67410897Y-28320934D01*
X67380452Y-28295948D01*
X67355466Y-28265503D01*
X67336899Y-28230767D01*
X67325465Y-28193074D01*
X67321000Y-28147739D01*
X67321000Y-27311061D01*
X67325465Y-27265726D01*
X67336899Y-27228033D01*
X67355466Y-27193297D01*
X67380452Y-27162852D01*
X67410897Y-27137866D01*
X67445633Y-27119299D01*
X67483326Y-27107865D01*
X67528661Y-27103400D01*
X68615339Y-27103400D01*
X68660674Y-27107865D01*
G37*
G36*
X75620274Y-27107865D02*
G01*
X75657967Y-27119299D01*
X75692703Y-27137866D01*
X75723148Y-27162852D01*
X75748134Y-27193297D01*
X75766701Y-27228033D01*
X75778135Y-27265726D01*
X75782600Y-27311061D01*
X75782600Y-28147739D01*
X75778135Y-28193074D01*
X75766701Y-28230767D01*
X75748134Y-28265503D01*
X75723148Y-28295948D01*
X75692703Y-28320934D01*
X75657967Y-28339501D01*
X75620274Y-28350935D01*
X75574939Y-28355400D01*
X74488261Y-28355400D01*
X74442926Y-28350935D01*
X74405233Y-28339501D01*
X74370497Y-28320934D01*
X74340052Y-28295948D01*
X74315066Y-28265503D01*
X74296499Y-28230767D01*
X74285065Y-28193074D01*
X74280600Y-28147739D01*
X74280600Y-27311061D01*
X74285065Y-27265726D01*
X74296499Y-27228033D01*
X74315066Y-27193297D01*
X74340052Y-27162852D01*
X74370497Y-27137866D01*
X74405233Y-27119299D01*
X74442926Y-27107865D01*
X74488261Y-27103400D01*
X75574939Y-27103400D01*
X75620274Y-27107865D01*
G37*
G36*
X79259912Y-26557528D02*
G01*
X79409212Y-26587225D01*
X79573184Y-26655145D01*
X79720754Y-26753748D01*
X79846253Y-26879247D01*
X79944856Y-27026817D01*
X80012776Y-27190789D01*
X80047400Y-27364860D01*
X80047400Y-27542342D01*
X80012776Y-27716413D01*
X79944856Y-27880385D01*
X79846253Y-28027955D01*
X79720754Y-28153454D01*
X79573184Y-28252057D01*
X79409212Y-28319977D01*
X79276371Y-28346400D01*
X79235142Y-28354601D01*
X79057658Y-28354601D01*
X79016429Y-28346400D01*
X78883588Y-28319977D01*
X78719616Y-28252057D01*
X78572046Y-28153454D01*
X78446547Y-28027955D01*
X78347944Y-27880385D01*
X78280024Y-27716413D01*
X78245400Y-27542342D01*
X78245400Y-27364860D01*
X78280024Y-27190789D01*
X78347944Y-27026817D01*
X78446547Y-26879247D01*
X78572046Y-26753748D01*
X78719616Y-26655145D01*
X78883588Y-26587225D01*
X79032888Y-26557528D01*
X79057658Y-26552601D01*
X79235142Y-26552601D01*
X79259912Y-26557528D01*
G37*
G36*
X44664912Y-26557528D02*
G01*
X44814212Y-26587225D01*
X44978184Y-26655145D01*
X45125754Y-26753748D01*
X45251253Y-26879247D01*
X45349856Y-27026817D01*
X45417776Y-27190789D01*
X45452400Y-27364860D01*
X45452400Y-27542342D01*
X45417776Y-27716413D01*
X45349856Y-27880385D01*
X45251253Y-28027955D01*
X45125754Y-28153454D01*
X44978184Y-28252057D01*
X44814212Y-28319977D01*
X44681371Y-28346400D01*
X44640142Y-28354601D01*
X44462658Y-28354601D01*
X44421429Y-28346400D01*
X44288588Y-28319977D01*
X44124616Y-28252057D01*
X43977046Y-28153454D01*
X43851547Y-28027955D01*
X43752944Y-27880385D01*
X43685024Y-27716413D01*
X43650400Y-27542342D01*
X43650400Y-27364860D01*
X43685024Y-27190789D01*
X43752944Y-27026817D01*
X43851547Y-26879247D01*
X43977046Y-26753748D01*
X44124616Y-26655145D01*
X44288588Y-26587225D01*
X44437888Y-26557528D01*
X44462658Y-26552601D01*
X44640142Y-26552601D01*
X44664912Y-26557528D01*
G37*
G36*
X51594911Y-26557528D02*
G01*
X51744211Y-26587225D01*
X51908183Y-26655145D01*
X52055753Y-26753748D01*
X52181252Y-26879247D01*
X52279855Y-27026817D01*
X52347775Y-27190789D01*
X52382399Y-27364860D01*
X52382399Y-27542342D01*
X52347775Y-27716413D01*
X52279855Y-27880385D01*
X52181252Y-28027955D01*
X52055753Y-28153454D01*
X51908183Y-28252057D01*
X51744211Y-28319977D01*
X51611370Y-28346400D01*
X51570141Y-28354601D01*
X51392657Y-28354601D01*
X51351428Y-28346400D01*
X51218587Y-28319977D01*
X51054615Y-28252057D01*
X50907045Y-28153454D01*
X50781546Y-28027955D01*
X50682943Y-27880385D01*
X50615023Y-27716413D01*
X50580399Y-27542342D01*
X50580399Y-27364860D01*
X50615023Y-27190789D01*
X50682943Y-27026817D01*
X50781546Y-26879247D01*
X50907045Y-26753748D01*
X51054615Y-26655145D01*
X51218587Y-26587225D01*
X51367887Y-26557528D01*
X51392657Y-26552601D01*
X51570141Y-26552601D01*
X51594911Y-26557528D01*
G37*
G36*
X58533512Y-26557528D02*
G01*
X58682812Y-26587225D01*
X58846784Y-26655145D01*
X58994354Y-26753748D01*
X59119853Y-26879247D01*
X59218456Y-27026817D01*
X59286376Y-27190789D01*
X59321000Y-27364860D01*
X59321000Y-27542342D01*
X59286376Y-27716413D01*
X59218456Y-27880385D01*
X59119853Y-28027955D01*
X58994354Y-28153454D01*
X58846784Y-28252057D01*
X58682812Y-28319977D01*
X58549971Y-28346400D01*
X58508742Y-28354601D01*
X58331258Y-28354601D01*
X58290029Y-28346400D01*
X58157188Y-28319977D01*
X57993216Y-28252057D01*
X57845646Y-28153454D01*
X57720147Y-28027955D01*
X57621544Y-27880385D01*
X57553624Y-27716413D01*
X57519000Y-27542342D01*
X57519000Y-27364860D01*
X57553624Y-27190789D01*
X57621544Y-27026817D01*
X57720147Y-26879247D01*
X57845646Y-26753748D01*
X57993216Y-26655145D01*
X58157188Y-26587225D01*
X58306488Y-26557528D01*
X58331258Y-26552601D01*
X58508742Y-26552601D01*
X58533512Y-26557528D01*
G37*
G36*
X72351112Y-26557528D02*
G01*
X72500412Y-26587225D01*
X72664384Y-26655145D01*
X72811954Y-26753748D01*
X72937453Y-26879247D01*
X73036056Y-27026817D01*
X73103976Y-27190789D01*
X73138600Y-27364860D01*
X73138600Y-27542342D01*
X73103976Y-27716413D01*
X73036056Y-27880385D01*
X72937453Y-28027955D01*
X72811954Y-28153454D01*
X72664384Y-28252057D01*
X72500412Y-28319977D01*
X72367571Y-28346400D01*
X72326342Y-28354601D01*
X72148858Y-28354601D01*
X72107629Y-28346400D01*
X71974788Y-28319977D01*
X71810816Y-28252057D01*
X71663246Y-28153454D01*
X71537747Y-28027955D01*
X71439144Y-27880385D01*
X71371224Y-27716413D01*
X71336600Y-27542342D01*
X71336600Y-27364860D01*
X71371224Y-27190789D01*
X71439144Y-27026817D01*
X71537747Y-26879247D01*
X71663246Y-26753748D01*
X71810816Y-26655145D01*
X71974788Y-26587225D01*
X72124088Y-26557528D01*
X72148858Y-26552601D01*
X72326342Y-26552601D01*
X72351112Y-26557528D01*
G37*
G36*
X93153712Y-26557528D02*
G01*
X93303012Y-26587225D01*
X93466984Y-26655145D01*
X93614554Y-26753748D01*
X93740053Y-26879247D01*
X93838656Y-27026817D01*
X93906576Y-27190789D01*
X93941200Y-27364860D01*
X93941200Y-27542342D01*
X93906576Y-27716413D01*
X93838656Y-27880385D01*
X93740053Y-28027955D01*
X93614554Y-28153454D01*
X93466984Y-28252057D01*
X93303012Y-28319977D01*
X93170171Y-28346400D01*
X93128942Y-28354601D01*
X92951458Y-28354601D01*
X92910229Y-28346400D01*
X92777388Y-28319977D01*
X92613416Y-28252057D01*
X92465846Y-28153454D01*
X92340347Y-28027955D01*
X92241744Y-27880385D01*
X92173824Y-27716413D01*
X92139200Y-27542342D01*
X92139200Y-27364860D01*
X92173824Y-27190789D01*
X92241744Y-27026817D01*
X92340347Y-26879247D01*
X92465846Y-26753748D01*
X92613416Y-26655145D01*
X92777388Y-26587225D01*
X92926688Y-26557528D01*
X92951458Y-26552601D01*
X93128942Y-26552601D01*
X93153712Y-26557528D01*
G37*
G36*
X65416912Y-26557528D02*
G01*
X65566212Y-26587225D01*
X65730184Y-26655145D01*
X65877754Y-26753748D01*
X66003253Y-26879247D01*
X66101856Y-27026817D01*
X66169776Y-27190789D01*
X66204400Y-27364860D01*
X66204400Y-27542342D01*
X66169776Y-27716413D01*
X66101856Y-27880385D01*
X66003253Y-28027955D01*
X65877754Y-28153454D01*
X65730184Y-28252057D01*
X65566212Y-28319977D01*
X65433371Y-28346400D01*
X65392142Y-28354601D01*
X65214658Y-28354601D01*
X65173429Y-28346400D01*
X65040588Y-28319977D01*
X64876616Y-28252057D01*
X64729046Y-28153454D01*
X64603547Y-28027955D01*
X64504944Y-27880385D01*
X64437024Y-27716413D01*
X64402400Y-27542342D01*
X64402400Y-27364860D01*
X64437024Y-27190789D01*
X64504944Y-27026817D01*
X64603547Y-26879247D01*
X64729046Y-26753748D01*
X64876616Y-26655145D01*
X65040588Y-26587225D01*
X65189888Y-26557528D01*
X65214658Y-26552601D01*
X65392142Y-26552601D01*
X65416912Y-26557528D01*
G37*
G36*
X86194112Y-26557528D02*
G01*
X86343412Y-26587225D01*
X86507384Y-26655145D01*
X86654954Y-26753748D01*
X86780453Y-26879247D01*
X86879056Y-27026817D01*
X86946976Y-27190789D01*
X86981600Y-27364860D01*
X86981600Y-27542342D01*
X86946976Y-27716413D01*
X86879056Y-27880385D01*
X86780453Y-28027955D01*
X86654954Y-28153454D01*
X86507384Y-28252057D01*
X86343412Y-28319977D01*
X86210571Y-28346400D01*
X86169342Y-28354601D01*
X85991858Y-28354601D01*
X85950629Y-28346400D01*
X85817788Y-28319977D01*
X85653816Y-28252057D01*
X85506246Y-28153454D01*
X85380747Y-28027955D01*
X85282144Y-27880385D01*
X85214224Y-27716413D01*
X85179600Y-27542342D01*
X85179600Y-27364860D01*
X85214224Y-27190789D01*
X85282144Y-27026817D01*
X85380747Y-26879247D01*
X85506246Y-26753748D01*
X85653816Y-26655145D01*
X85817788Y-26587225D01*
X85967088Y-26557528D01*
X85991858Y-26552601D01*
X86169342Y-26552601D01*
X86194112Y-26557528D01*
G37*
G36*
X54868474Y-27098865D02*
G01*
X54906167Y-27110299D01*
X54940903Y-27128866D01*
X54971348Y-27153852D01*
X54996334Y-27184297D01*
X55014901Y-27219033D01*
X55026335Y-27256726D01*
X55030800Y-27302061D01*
X55030800Y-28138739D01*
X55026335Y-28184074D01*
X55014901Y-28221767D01*
X54996334Y-28256503D01*
X54971348Y-28286948D01*
X54940903Y-28311934D01*
X54906167Y-28330501D01*
X54868474Y-28341935D01*
X54823139Y-28346400D01*
X53736461Y-28346400D01*
X53691126Y-28341935D01*
X53653433Y-28330501D01*
X53618697Y-28311934D01*
X53588252Y-28286948D01*
X53563266Y-28256503D01*
X53544699Y-28221767D01*
X53533265Y-28184074D01*
X53528800Y-28138739D01*
X53528800Y-27302061D01*
X53533265Y-27256726D01*
X53544699Y-27219033D01*
X53563266Y-27184297D01*
X53588252Y-27153852D01*
X53618697Y-27128866D01*
X53653433Y-27110299D01*
X53691126Y-27098865D01*
X53736461Y-27094400D01*
X54823139Y-27094400D01*
X54868474Y-27098865D01*
G37*
G36*
X82529074Y-27082465D02*
G01*
X82566767Y-27093899D01*
X82601503Y-27112466D01*
X82631948Y-27137452D01*
X82656934Y-27167897D01*
X82675501Y-27202633D01*
X82686935Y-27240326D01*
X82691400Y-27285661D01*
X82691400Y-28122339D01*
X82686935Y-28167674D01*
X82675501Y-28205367D01*
X82656934Y-28240103D01*
X82631948Y-28270548D01*
X82601503Y-28295534D01*
X82566767Y-28314101D01*
X82529074Y-28325535D01*
X82483739Y-28330000D01*
X81397061Y-28330000D01*
X81351726Y-28325535D01*
X81314033Y-28314101D01*
X81279297Y-28295534D01*
X81248852Y-28270548D01*
X81223866Y-28240103D01*
X81205299Y-28205367D01*
X81193865Y-28167674D01*
X81189400Y-28122339D01*
X81189400Y-27285661D01*
X81193865Y-27240326D01*
X81205299Y-27202633D01*
X81223866Y-27167897D01*
X81248852Y-27137452D01*
X81279297Y-27112466D01*
X81314033Y-27093899D01*
X81351726Y-27082465D01*
X81397061Y-27078000D01*
X82483739Y-27078000D01*
X82529074Y-27082465D01*
G37*
G36*
X89463274Y-27082465D02*
G01*
X89500967Y-27093899D01*
X89535703Y-27112466D01*
X89566148Y-27137452D01*
X89591134Y-27167897D01*
X89609701Y-27202633D01*
X89621135Y-27240326D01*
X89625600Y-27285661D01*
X89625600Y-28122339D01*
X89621135Y-28167674D01*
X89609701Y-28205367D01*
X89591134Y-28240103D01*
X89566148Y-28270548D01*
X89535703Y-28295534D01*
X89500967Y-28314101D01*
X89463274Y-28325535D01*
X89417939Y-28330000D01*
X88331261Y-28330000D01*
X88285926Y-28325535D01*
X88248233Y-28314101D01*
X88213497Y-28295534D01*
X88183052Y-28270548D01*
X88158066Y-28240103D01*
X88139499Y-28205367D01*
X88128065Y-28167674D01*
X88123600Y-28122339D01*
X88123600Y-27285661D01*
X88128065Y-27240326D01*
X88139499Y-27202633D01*
X88158066Y-27167897D01*
X88183052Y-27137452D01*
X88213497Y-27112466D01*
X88248233Y-27093899D01*
X88285926Y-27082465D01*
X88331261Y-27078000D01*
X89417939Y-27078000D01*
X89463274Y-27082465D01*
G37*
G36*
X47959674Y-27073465D02*
G01*
X47997367Y-27084899D01*
X48032103Y-27103466D01*
X48062548Y-27128452D01*
X48087534Y-27158897D01*
X48106101Y-27193633D01*
X48117535Y-27231326D01*
X48122000Y-27276661D01*
X48122000Y-28113339D01*
X48117535Y-28158674D01*
X48106101Y-28196367D01*
X48087534Y-28231103D01*
X48062548Y-28261548D01*
X48032103Y-28286534D01*
X47997367Y-28305101D01*
X47959674Y-28316535D01*
X47914339Y-28321000D01*
X46827661Y-28321000D01*
X46782326Y-28316535D01*
X46744633Y-28305101D01*
X46709897Y-28286534D01*
X46679452Y-28261548D01*
X46654466Y-28231103D01*
X46635899Y-28196367D01*
X46624465Y-28158674D01*
X46620000Y-28113339D01*
X46620000Y-27276661D01*
X46624465Y-27231326D01*
X46635899Y-27193633D01*
X46654466Y-27158897D01*
X46679452Y-27128452D01*
X46709897Y-27103466D01*
X46744633Y-27084899D01*
X46782326Y-27073465D01*
X46827661Y-27069000D01*
X47914339Y-27069000D01*
X47959674Y-27073465D01*
G37*
G36*
X61777274Y-25057865D02*
G01*
X61814967Y-25069299D01*
X61849703Y-25087866D01*
X61880148Y-25112852D01*
X61905134Y-25143297D01*
X61923701Y-25178033D01*
X61935135Y-25215726D01*
X61939600Y-25261061D01*
X61939600Y-26097739D01*
X61935135Y-26143074D01*
X61923701Y-26180767D01*
X61905134Y-26215503D01*
X61880148Y-26245948D01*
X61849703Y-26270934D01*
X61814967Y-26289501D01*
X61777274Y-26300935D01*
X61731939Y-26305400D01*
X60645261Y-26305400D01*
X60599926Y-26300935D01*
X60562233Y-26289501D01*
X60527497Y-26270934D01*
X60497052Y-26245948D01*
X60472066Y-26215503D01*
X60453499Y-26180767D01*
X60442065Y-26143074D01*
X60437600Y-26097739D01*
X60437600Y-25261061D01*
X60442065Y-25215726D01*
X60453499Y-25178033D01*
X60472066Y-25143297D01*
X60497052Y-25112852D01*
X60527497Y-25087866D01*
X60562233Y-25069299D01*
X60599926Y-25057865D01*
X60645261Y-25053400D01*
X61731939Y-25053400D01*
X61777274Y-25057865D01*
G37*
G36*
X68660674Y-25057865D02*
G01*
X68698367Y-25069299D01*
X68733103Y-25087866D01*
X68763548Y-25112852D01*
X68788534Y-25143297D01*
X68807101Y-25178033D01*
X68818535Y-25215726D01*
X68823000Y-25261061D01*
X68823000Y-26097739D01*
X68818535Y-26143074D01*
X68807101Y-26180767D01*
X68788534Y-26215503D01*
X68763548Y-26245948D01*
X68733103Y-26270934D01*
X68698367Y-26289501D01*
X68660674Y-26300935D01*
X68615339Y-26305400D01*
X67528661Y-26305400D01*
X67483326Y-26300935D01*
X67445633Y-26289501D01*
X67410897Y-26270934D01*
X67380452Y-26245948D01*
X67355466Y-26215503D01*
X67336899Y-26180767D01*
X67325465Y-26143074D01*
X67321000Y-26097739D01*
X67321000Y-25261061D01*
X67325465Y-25215726D01*
X67336899Y-25178033D01*
X67355466Y-25143297D01*
X67380452Y-25112852D01*
X67410897Y-25087866D01*
X67445633Y-25069299D01*
X67483326Y-25057865D01*
X67528661Y-25053400D01*
X68615339Y-25053400D01*
X68660674Y-25057865D01*
G37*
G36*
X75620274Y-25057865D02*
G01*
X75657967Y-25069299D01*
X75692703Y-25087866D01*
X75723148Y-25112852D01*
X75748134Y-25143297D01*
X75766701Y-25178033D01*
X75778135Y-25215726D01*
X75782600Y-25261061D01*
X75782600Y-26097739D01*
X75778135Y-26143074D01*
X75766701Y-26180767D01*
X75748134Y-26215503D01*
X75723148Y-26245948D01*
X75692703Y-26270934D01*
X75657967Y-26289501D01*
X75620274Y-26300935D01*
X75574939Y-26305400D01*
X74488261Y-26305400D01*
X74442926Y-26300935D01*
X74405233Y-26289501D01*
X74370497Y-26270934D01*
X74340052Y-26245948D01*
X74315066Y-26215503D01*
X74296499Y-26180767D01*
X74285065Y-26143074D01*
X74280600Y-26097739D01*
X74280600Y-25261061D01*
X74285065Y-25215726D01*
X74296499Y-25178033D01*
X74315066Y-25143297D01*
X74340052Y-25112852D01*
X74370497Y-25087866D01*
X74405233Y-25069299D01*
X74442926Y-25057865D01*
X74488261Y-25053400D01*
X75574939Y-25053400D01*
X75620274Y-25057865D01*
G37*
G36*
X54868474Y-25048865D02*
G01*
X54906167Y-25060299D01*
X54940903Y-25078866D01*
X54971348Y-25103852D01*
X54996334Y-25134297D01*
X55014901Y-25169033D01*
X55026335Y-25206726D01*
X55030800Y-25252061D01*
X55030800Y-26088739D01*
X55026335Y-26134074D01*
X55014901Y-26171767D01*
X54996334Y-26206503D01*
X54971348Y-26236948D01*
X54940903Y-26261934D01*
X54906167Y-26280501D01*
X54868474Y-26291935D01*
X54823139Y-26296400D01*
X53736461Y-26296400D01*
X53691126Y-26291935D01*
X53653433Y-26280501D01*
X53618697Y-26261934D01*
X53588252Y-26236948D01*
X53563266Y-26206503D01*
X53544699Y-26171767D01*
X53533265Y-26134074D01*
X53528800Y-26088739D01*
X53528800Y-25252061D01*
X53533265Y-25206726D01*
X53544699Y-25169033D01*
X53563266Y-25134297D01*
X53588252Y-25103852D01*
X53618697Y-25078866D01*
X53653433Y-25060299D01*
X53691126Y-25048865D01*
X53736461Y-25044400D01*
X54823139Y-25044400D01*
X54868474Y-25048865D01*
G37*
G36*
X89463274Y-25032465D02*
G01*
X89500967Y-25043899D01*
X89535703Y-25062466D01*
X89566148Y-25087452D01*
X89591134Y-25117897D01*
X89609701Y-25152633D01*
X89621135Y-25190326D01*
X89625600Y-25235661D01*
X89625600Y-26072339D01*
X89621135Y-26117674D01*
X89609701Y-26155367D01*
X89591134Y-26190103D01*
X89566148Y-26220548D01*
X89535703Y-26245534D01*
X89500967Y-26264101D01*
X89463274Y-26275535D01*
X89417939Y-26280000D01*
X88331261Y-26280000D01*
X88285926Y-26275535D01*
X88248233Y-26264101D01*
X88213497Y-26245534D01*
X88183052Y-26220548D01*
X88158066Y-26190103D01*
X88139499Y-26155367D01*
X88128065Y-26117674D01*
X88123600Y-26072339D01*
X88123600Y-25235661D01*
X88128065Y-25190326D01*
X88139499Y-25152633D01*
X88158066Y-25117897D01*
X88183052Y-25087452D01*
X88213497Y-25062466D01*
X88248233Y-25043899D01*
X88285926Y-25032465D01*
X88331261Y-25028000D01*
X89417939Y-25028000D01*
X89463274Y-25032465D01*
G37*
G36*
X82529074Y-25032465D02*
G01*
X82566767Y-25043899D01*
X82601503Y-25062466D01*
X82631948Y-25087452D01*
X82656934Y-25117897D01*
X82675501Y-25152633D01*
X82686935Y-25190326D01*
X82691400Y-25235661D01*
X82691400Y-26072339D01*
X82686935Y-26117674D01*
X82675501Y-26155367D01*
X82656934Y-26190103D01*
X82631948Y-26220548D01*
X82601503Y-26245534D01*
X82566767Y-26264101D01*
X82529074Y-26275535D01*
X82483739Y-26280000D01*
X81397061Y-26280000D01*
X81351726Y-26275535D01*
X81314033Y-26264101D01*
X81279297Y-26245534D01*
X81248852Y-26220548D01*
X81223866Y-26190103D01*
X81205299Y-26155367D01*
X81193865Y-26117674D01*
X81189400Y-26072339D01*
X81189400Y-25235661D01*
X81193865Y-25190326D01*
X81205299Y-25152633D01*
X81223866Y-25117897D01*
X81248852Y-25087452D01*
X81279297Y-25062466D01*
X81314033Y-25043899D01*
X81351726Y-25032465D01*
X81397061Y-25028000D01*
X82483739Y-25028000D01*
X82529074Y-25032465D01*
G37*
G36*
X47959674Y-25023465D02*
G01*
X47997367Y-25034899D01*
X48032103Y-25053466D01*
X48062548Y-25078452D01*
X48087534Y-25108897D01*
X48106101Y-25143633D01*
X48117535Y-25181326D01*
X48122000Y-25226661D01*
X48122000Y-26063339D01*
X48117535Y-26108674D01*
X48106101Y-26146367D01*
X48087534Y-26181103D01*
X48062548Y-26211548D01*
X48032103Y-26236534D01*
X47997367Y-26255101D01*
X47959674Y-26266535D01*
X47914339Y-26271000D01*
X46827661Y-26271000D01*
X46782326Y-26266535D01*
X46744633Y-26255101D01*
X46709897Y-26236534D01*
X46679452Y-26211548D01*
X46654466Y-26181103D01*
X46635899Y-26146367D01*
X46624465Y-26108674D01*
X46620000Y-26063339D01*
X46620000Y-25226661D01*
X46624465Y-25181326D01*
X46635899Y-25143633D01*
X46654466Y-25108897D01*
X46679452Y-25078452D01*
X46709897Y-25053466D01*
X46744633Y-25034899D01*
X46782326Y-25023465D01*
X46827661Y-25019000D01*
X47914339Y-25019000D01*
X47959674Y-25023465D01*
G37*
G36*
X79259912Y-24017528D02*
G01*
X79409212Y-24047225D01*
X79573184Y-24115145D01*
X79720754Y-24213748D01*
X79846253Y-24339247D01*
X79944856Y-24486817D01*
X80012776Y-24650789D01*
X80042473Y-24800089D01*
X80047400Y-24824859D01*
X80047400Y-25002343D01*
X80043046Y-25024230D01*
X80012776Y-25176413D01*
X79944856Y-25340385D01*
X79846253Y-25487955D01*
X79720754Y-25613454D01*
X79573184Y-25712057D01*
X79409212Y-25779977D01*
X79259912Y-25809674D01*
X79235142Y-25814601D01*
X79057658Y-25814601D01*
X79032888Y-25809674D01*
X78883588Y-25779977D01*
X78719616Y-25712057D01*
X78572046Y-25613454D01*
X78446547Y-25487955D01*
X78347944Y-25340385D01*
X78280024Y-25176413D01*
X78249754Y-25024230D01*
X78245400Y-25002343D01*
X78245400Y-24824859D01*
X78250327Y-24800089D01*
X78280024Y-24650789D01*
X78347944Y-24486817D01*
X78446547Y-24339247D01*
X78572046Y-24213748D01*
X78719616Y-24115145D01*
X78883588Y-24047225D01*
X79032888Y-24017528D01*
X79057658Y-24012601D01*
X79235142Y-24012601D01*
X79259912Y-24017528D01*
G37*
G36*
X72351112Y-24017528D02*
G01*
X72500412Y-24047225D01*
X72664384Y-24115145D01*
X72811954Y-24213748D01*
X72937453Y-24339247D01*
X73036056Y-24486817D01*
X73103976Y-24650789D01*
X73133673Y-24800089D01*
X73138600Y-24824859D01*
X73138600Y-25002343D01*
X73134246Y-25024230D01*
X73103976Y-25176413D01*
X73036056Y-25340385D01*
X72937453Y-25487955D01*
X72811954Y-25613454D01*
X72664384Y-25712057D01*
X72500412Y-25779977D01*
X72351112Y-25809674D01*
X72326342Y-25814601D01*
X72148858Y-25814601D01*
X72124088Y-25809674D01*
X71974788Y-25779977D01*
X71810816Y-25712057D01*
X71663246Y-25613454D01*
X71537747Y-25487955D01*
X71439144Y-25340385D01*
X71371224Y-25176413D01*
X71340954Y-25024230D01*
X71336600Y-25002343D01*
X71336600Y-24824859D01*
X71341527Y-24800089D01*
X71371224Y-24650789D01*
X71439144Y-24486817D01*
X71537747Y-24339247D01*
X71663246Y-24213748D01*
X71810816Y-24115145D01*
X71974788Y-24047225D01*
X72124088Y-24017528D01*
X72148858Y-24012601D01*
X72326342Y-24012601D01*
X72351112Y-24017528D01*
G37*
G36*
X93153712Y-24017528D02*
G01*
X93303012Y-24047225D01*
X93466984Y-24115145D01*
X93614554Y-24213748D01*
X93740053Y-24339247D01*
X93838656Y-24486817D01*
X93906576Y-24650789D01*
X93936273Y-24800089D01*
X93941200Y-24824859D01*
X93941200Y-25002343D01*
X93936846Y-25024230D01*
X93906576Y-25176413D01*
X93838656Y-25340385D01*
X93740053Y-25487955D01*
X93614554Y-25613454D01*
X93466984Y-25712057D01*
X93303012Y-25779977D01*
X93153712Y-25809674D01*
X93128942Y-25814601D01*
X92951458Y-25814601D01*
X92926688Y-25809674D01*
X92777388Y-25779977D01*
X92613416Y-25712057D01*
X92465846Y-25613454D01*
X92340347Y-25487955D01*
X92241744Y-25340385D01*
X92173824Y-25176413D01*
X92143554Y-25024230D01*
X92139200Y-25002343D01*
X92139200Y-24824859D01*
X92144127Y-24800089D01*
X92173824Y-24650789D01*
X92241744Y-24486817D01*
X92340347Y-24339247D01*
X92465846Y-24213748D01*
X92613416Y-24115145D01*
X92777388Y-24047225D01*
X92926688Y-24017528D01*
X92951458Y-24012601D01*
X93128942Y-24012601D01*
X93153712Y-24017528D01*
G37*
G36*
X51594911Y-24017528D02*
G01*
X51744211Y-24047225D01*
X51908183Y-24115145D01*
X52055753Y-24213748D01*
X52181252Y-24339247D01*
X52279855Y-24486817D01*
X52347775Y-24650789D01*
X52377472Y-24800089D01*
X52382399Y-24824859D01*
X52382399Y-25002343D01*
X52378045Y-25024230D01*
X52347775Y-25176413D01*
X52279855Y-25340385D01*
X52181252Y-25487955D01*
X52055753Y-25613454D01*
X51908183Y-25712057D01*
X51744211Y-25779977D01*
X51594911Y-25809674D01*
X51570141Y-25814601D01*
X51392657Y-25814601D01*
X51367887Y-25809674D01*
X51218587Y-25779977D01*
X51054615Y-25712057D01*
X50907045Y-25613454D01*
X50781546Y-25487955D01*
X50682943Y-25340385D01*
X50615023Y-25176413D01*
X50584753Y-25024230D01*
X50580399Y-25002343D01*
X50580399Y-24824859D01*
X50585326Y-24800089D01*
X50615023Y-24650789D01*
X50682943Y-24486817D01*
X50781546Y-24339247D01*
X50907045Y-24213748D01*
X51054615Y-24115145D01*
X51218587Y-24047225D01*
X51367887Y-24017528D01*
X51392657Y-24012601D01*
X51570141Y-24012601D01*
X51594911Y-24017528D01*
G37*
G36*
X44664912Y-24017528D02*
G01*
X44814212Y-24047225D01*
X44978184Y-24115145D01*
X45125754Y-24213748D01*
X45251253Y-24339247D01*
X45349856Y-24486817D01*
X45417776Y-24650789D01*
X45447473Y-24800089D01*
X45452400Y-24824859D01*
X45452400Y-25002343D01*
X45448046Y-25024230D01*
X45417776Y-25176413D01*
X45349856Y-25340385D01*
X45251253Y-25487955D01*
X45125754Y-25613454D01*
X44978184Y-25712057D01*
X44814212Y-25779977D01*
X44664912Y-25809674D01*
X44640142Y-25814601D01*
X44462658Y-25814601D01*
X44437888Y-25809674D01*
X44288588Y-25779977D01*
X44124616Y-25712057D01*
X43977046Y-25613454D01*
X43851547Y-25487955D01*
X43752944Y-25340385D01*
X43685024Y-25176413D01*
X43654754Y-25024230D01*
X43650400Y-25002343D01*
X43650400Y-24824859D01*
X43655327Y-24800089D01*
X43685024Y-24650789D01*
X43752944Y-24486817D01*
X43851547Y-24339247D01*
X43977046Y-24213748D01*
X44124616Y-24115145D01*
X44288588Y-24047225D01*
X44437888Y-24017528D01*
X44462658Y-24012601D01*
X44640142Y-24012601D01*
X44664912Y-24017528D01*
G37*
G36*
X86194112Y-24017528D02*
G01*
X86343412Y-24047225D01*
X86507384Y-24115145D01*
X86654954Y-24213748D01*
X86780453Y-24339247D01*
X86879056Y-24486817D01*
X86946976Y-24650789D01*
X86976673Y-24800089D01*
X86981600Y-24824859D01*
X86981600Y-25002343D01*
X86977246Y-25024230D01*
X86946976Y-25176413D01*
X86879056Y-25340385D01*
X86780453Y-25487955D01*
X86654954Y-25613454D01*
X86507384Y-25712057D01*
X86343412Y-25779977D01*
X86194112Y-25809674D01*
X86169342Y-25814601D01*
X85991858Y-25814601D01*
X85967088Y-25809674D01*
X85817788Y-25779977D01*
X85653816Y-25712057D01*
X85506246Y-25613454D01*
X85380747Y-25487955D01*
X85282144Y-25340385D01*
X85214224Y-25176413D01*
X85183954Y-25024230D01*
X85179600Y-25002343D01*
X85179600Y-24824859D01*
X85184527Y-24800089D01*
X85214224Y-24650789D01*
X85282144Y-24486817D01*
X85380747Y-24339247D01*
X85506246Y-24213748D01*
X85653816Y-24115145D01*
X85817788Y-24047225D01*
X85967088Y-24017528D01*
X85991858Y-24012601D01*
X86169342Y-24012601D01*
X86194112Y-24017528D01*
G37*
G36*
X58533512Y-24017528D02*
G01*
X58682812Y-24047225D01*
X58846784Y-24115145D01*
X58994354Y-24213748D01*
X59119853Y-24339247D01*
X59218456Y-24486817D01*
X59286376Y-24650789D01*
X59316073Y-24800089D01*
X59321000Y-24824859D01*
X59321000Y-25002343D01*
X59316646Y-25024230D01*
X59286376Y-25176413D01*
X59218456Y-25340385D01*
X59119853Y-25487955D01*
X58994354Y-25613454D01*
X58846784Y-25712057D01*
X58682812Y-25779977D01*
X58533512Y-25809674D01*
X58508742Y-25814601D01*
X58331258Y-25814601D01*
X58306488Y-25809674D01*
X58157188Y-25779977D01*
X57993216Y-25712057D01*
X57845646Y-25613454D01*
X57720147Y-25487955D01*
X57621544Y-25340385D01*
X57553624Y-25176413D01*
X57523354Y-25024230D01*
X57519000Y-25002343D01*
X57519000Y-24824859D01*
X57523927Y-24800089D01*
X57553624Y-24650789D01*
X57621544Y-24486817D01*
X57720147Y-24339247D01*
X57845646Y-24213748D01*
X57993216Y-24115145D01*
X58157188Y-24047225D01*
X58306488Y-24017528D01*
X58331258Y-24012601D01*
X58508742Y-24012601D01*
X58533512Y-24017528D01*
G37*
G36*
X65416912Y-24017528D02*
G01*
X65566212Y-24047225D01*
X65730184Y-24115145D01*
X65877754Y-24213748D01*
X66003253Y-24339247D01*
X66101856Y-24486817D01*
X66169776Y-24650789D01*
X66199473Y-24800089D01*
X66204400Y-24824859D01*
X66204400Y-25002343D01*
X66200046Y-25024230D01*
X66169776Y-25176413D01*
X66101856Y-25340385D01*
X66003253Y-25487955D01*
X65877754Y-25613454D01*
X65730184Y-25712057D01*
X65566212Y-25779977D01*
X65416912Y-25809674D01*
X65392142Y-25814601D01*
X65214658Y-25814601D01*
X65189888Y-25809674D01*
X65040588Y-25779977D01*
X64876616Y-25712057D01*
X64729046Y-25613454D01*
X64603547Y-25487955D01*
X64504944Y-25340385D01*
X64437024Y-25176413D01*
X64406754Y-25024230D01*
X64402400Y-25002343D01*
X64402400Y-24824859D01*
X64407327Y-24800089D01*
X64437024Y-24650789D01*
X64504944Y-24486817D01*
X64603547Y-24339247D01*
X64729046Y-24213748D01*
X64876616Y-24115145D01*
X65040588Y-24047225D01*
X65189888Y-24017528D01*
X65214658Y-24012601D01*
X65392142Y-24012601D01*
X65416912Y-24017528D01*
G37*
G36*
X86194112Y-21477528D02*
G01*
X86343412Y-21507225D01*
X86507384Y-21575145D01*
X86654954Y-21673748D01*
X86780453Y-21799247D01*
X86879056Y-21946817D01*
X86946976Y-22110789D01*
X86981600Y-22284860D01*
X86981600Y-22462342D01*
X86946976Y-22636413D01*
X86879056Y-22800385D01*
X86780453Y-22947955D01*
X86654954Y-23073454D01*
X86507384Y-23172057D01*
X86343412Y-23239977D01*
X86194112Y-23269674D01*
X86169342Y-23274601D01*
X85991858Y-23274601D01*
X85967088Y-23269674D01*
X85817788Y-23239977D01*
X85653816Y-23172057D01*
X85506246Y-23073454D01*
X85380747Y-22947955D01*
X85282144Y-22800385D01*
X85214224Y-22636413D01*
X85179600Y-22462342D01*
X85179600Y-22284860D01*
X85214224Y-22110789D01*
X85282144Y-21946817D01*
X85380747Y-21799247D01*
X85506246Y-21673748D01*
X85653816Y-21575145D01*
X85817788Y-21507225D01*
X85967088Y-21477528D01*
X85991858Y-21472601D01*
X86169342Y-21472601D01*
X86194112Y-21477528D01*
G37*
G36*
X79259912Y-21477528D02*
G01*
X79409212Y-21507225D01*
X79573184Y-21575145D01*
X79720754Y-21673748D01*
X79846253Y-21799247D01*
X79944856Y-21946817D01*
X80012776Y-22110789D01*
X80047400Y-22284860D01*
X80047400Y-22462342D01*
X80012776Y-22636413D01*
X79944856Y-22800385D01*
X79846253Y-22947955D01*
X79720754Y-23073454D01*
X79573184Y-23172057D01*
X79409212Y-23239977D01*
X79259912Y-23269674D01*
X79235142Y-23274601D01*
X79057658Y-23274601D01*
X79032888Y-23269674D01*
X78883588Y-23239977D01*
X78719616Y-23172057D01*
X78572046Y-23073454D01*
X78446547Y-22947955D01*
X78347944Y-22800385D01*
X78280024Y-22636413D01*
X78245400Y-22462342D01*
X78245400Y-22284860D01*
X78280024Y-22110789D01*
X78347944Y-21946817D01*
X78446547Y-21799247D01*
X78572046Y-21673748D01*
X78719616Y-21575145D01*
X78883588Y-21507225D01*
X79032888Y-21477528D01*
X79057658Y-21472601D01*
X79235142Y-21472601D01*
X79259912Y-21477528D01*
G37*
G36*
X72351112Y-21477528D02*
G01*
X72500412Y-21507225D01*
X72664384Y-21575145D01*
X72811954Y-21673748D01*
X72937453Y-21799247D01*
X73036056Y-21946817D01*
X73103976Y-22110789D01*
X73138600Y-22284860D01*
X73138600Y-22462342D01*
X73103976Y-22636413D01*
X73036056Y-22800385D01*
X72937453Y-22947955D01*
X72811954Y-23073454D01*
X72664384Y-23172057D01*
X72500412Y-23239977D01*
X72351112Y-23269674D01*
X72326342Y-23274601D01*
X72148858Y-23274601D01*
X72124088Y-23269674D01*
X71974788Y-23239977D01*
X71810816Y-23172057D01*
X71663246Y-23073454D01*
X71537747Y-22947955D01*
X71439144Y-22800385D01*
X71371224Y-22636413D01*
X71336600Y-22462342D01*
X71336600Y-22284860D01*
X71371224Y-22110789D01*
X71439144Y-21946817D01*
X71537747Y-21799247D01*
X71663246Y-21673748D01*
X71810816Y-21575145D01*
X71974788Y-21507225D01*
X72124088Y-21477528D01*
X72148858Y-21472601D01*
X72326342Y-21472601D01*
X72351112Y-21477528D01*
G37*
G36*
X93153712Y-21477528D02*
G01*
X93303012Y-21507225D01*
X93466984Y-21575145D01*
X93614554Y-21673748D01*
X93740053Y-21799247D01*
X93838656Y-21946817D01*
X93906576Y-22110789D01*
X93941200Y-22284860D01*
X93941200Y-22462342D01*
X93906576Y-22636413D01*
X93838656Y-22800385D01*
X93740053Y-22947955D01*
X93614554Y-23073454D01*
X93466984Y-23172057D01*
X93303012Y-23239977D01*
X93153712Y-23269674D01*
X93128942Y-23274601D01*
X92951458Y-23274601D01*
X92926688Y-23269674D01*
X92777388Y-23239977D01*
X92613416Y-23172057D01*
X92465846Y-23073454D01*
X92340347Y-22947955D01*
X92241744Y-22800385D01*
X92173824Y-22636413D01*
X92139200Y-22462342D01*
X92139200Y-22284860D01*
X92173824Y-22110789D01*
X92241744Y-21946817D01*
X92340347Y-21799247D01*
X92465846Y-21673748D01*
X92613416Y-21575145D01*
X92777388Y-21507225D01*
X92926688Y-21477528D01*
X92951458Y-21472601D01*
X93128942Y-21472601D01*
X93153712Y-21477528D01*
G37*
G36*
X65416912Y-21477528D02*
G01*
X65566212Y-21507225D01*
X65730184Y-21575145D01*
X65877754Y-21673748D01*
X66003253Y-21799247D01*
X66101856Y-21946817D01*
X66169776Y-22110789D01*
X66204400Y-22284860D01*
X66204400Y-22462342D01*
X66169776Y-22636413D01*
X66101856Y-22800385D01*
X66003253Y-22947955D01*
X65877754Y-23073454D01*
X65730184Y-23172057D01*
X65566212Y-23239977D01*
X65416912Y-23269674D01*
X65392142Y-23274601D01*
X65214658Y-23274601D01*
X65189888Y-23269674D01*
X65040588Y-23239977D01*
X64876616Y-23172057D01*
X64729046Y-23073454D01*
X64603547Y-22947955D01*
X64504944Y-22800385D01*
X64437024Y-22636413D01*
X64402400Y-22462342D01*
X64402400Y-22284860D01*
X64437024Y-22110789D01*
X64504944Y-21946817D01*
X64603547Y-21799247D01*
X64729046Y-21673748D01*
X64876616Y-21575145D01*
X65040588Y-21507225D01*
X65189888Y-21477528D01*
X65214658Y-21472601D01*
X65392142Y-21472601D01*
X65416912Y-21477528D01*
G37*
G36*
X58533512Y-21477528D02*
G01*
X58682812Y-21507225D01*
X58846784Y-21575145D01*
X58994354Y-21673748D01*
X59119853Y-21799247D01*
X59218456Y-21946817D01*
X59286376Y-22110789D01*
X59321000Y-22284860D01*
X59321000Y-22462342D01*
X59286376Y-22636413D01*
X59218456Y-22800385D01*
X59119853Y-22947955D01*
X58994354Y-23073454D01*
X58846784Y-23172057D01*
X58682812Y-23239977D01*
X58533512Y-23269674D01*
X58508742Y-23274601D01*
X58331258Y-23274601D01*
X58306488Y-23269674D01*
X58157188Y-23239977D01*
X57993216Y-23172057D01*
X57845646Y-23073454D01*
X57720147Y-22947955D01*
X57621544Y-22800385D01*
X57553624Y-22636413D01*
X57519000Y-22462342D01*
X57519000Y-22284860D01*
X57553624Y-22110789D01*
X57621544Y-21946817D01*
X57720147Y-21799247D01*
X57845646Y-21673748D01*
X57993216Y-21575145D01*
X58157188Y-21507225D01*
X58306488Y-21477528D01*
X58331258Y-21472601D01*
X58508742Y-21472601D01*
X58533512Y-21477528D01*
G37*
G36*
X51594911Y-21477528D02*
G01*
X51744211Y-21507225D01*
X51908183Y-21575145D01*
X52055753Y-21673748D01*
X52181252Y-21799247D01*
X52279855Y-21946817D01*
X52347775Y-22110789D01*
X52382399Y-22284860D01*
X52382399Y-22462342D01*
X52347775Y-22636413D01*
X52279855Y-22800385D01*
X52181252Y-22947955D01*
X52055753Y-23073454D01*
X51908183Y-23172057D01*
X51744211Y-23239977D01*
X51594911Y-23269674D01*
X51570141Y-23274601D01*
X51392657Y-23274601D01*
X51367887Y-23269674D01*
X51218587Y-23239977D01*
X51054615Y-23172057D01*
X50907045Y-23073454D01*
X50781546Y-22947955D01*
X50682943Y-22800385D01*
X50615023Y-22636413D01*
X50580399Y-22462342D01*
X50580399Y-22284860D01*
X50615023Y-22110789D01*
X50682943Y-21946817D01*
X50781546Y-21799247D01*
X50907045Y-21673748D01*
X51054615Y-21575145D01*
X51218587Y-21507225D01*
X51367887Y-21477528D01*
X51392657Y-21472601D01*
X51570141Y-21472601D01*
X51594911Y-21477528D01*
G37*
G36*
X44664912Y-21477528D02*
G01*
X44814212Y-21507225D01*
X44978184Y-21575145D01*
X45125754Y-21673748D01*
X45251253Y-21799247D01*
X45349856Y-21946817D01*
X45417776Y-22110789D01*
X45452400Y-22284860D01*
X45452400Y-22462342D01*
X45417776Y-22636413D01*
X45349856Y-22800385D01*
X45251253Y-22947955D01*
X45125754Y-23073454D01*
X44978184Y-23172057D01*
X44814212Y-23239977D01*
X44664912Y-23269674D01*
X44640142Y-23274601D01*
X44462658Y-23274601D01*
X44437888Y-23269674D01*
X44288588Y-23239977D01*
X44124616Y-23172057D01*
X43977046Y-23073454D01*
X43851547Y-22947955D01*
X43752944Y-22800385D01*
X43685024Y-22636413D01*
X43650400Y-22462342D01*
X43650400Y-22284860D01*
X43685024Y-22110789D01*
X43752944Y-21946817D01*
X43851547Y-21799247D01*
X43977046Y-21673748D01*
X44124616Y-21575145D01*
X44288588Y-21507225D01*
X44437888Y-21477528D01*
X44462658Y-21472601D01*
X44640142Y-21472601D01*
X44664912Y-21477528D01*
G37*
G36*
X93153712Y-18937528D02*
G01*
X93303012Y-18967225D01*
X93466984Y-19035145D01*
X93614554Y-19133748D01*
X93740053Y-19259247D01*
X93838656Y-19406817D01*
X93906576Y-19570789D01*
X93941200Y-19744860D01*
X93941200Y-19922342D01*
X93906576Y-20096413D01*
X93838656Y-20260385D01*
X93740053Y-20407955D01*
X93614554Y-20533454D01*
X93466984Y-20632057D01*
X93303012Y-20699977D01*
X93153712Y-20729674D01*
X93128942Y-20734601D01*
X92951458Y-20734601D01*
X92926688Y-20729674D01*
X92777388Y-20699977D01*
X92613416Y-20632057D01*
X92465846Y-20533454D01*
X92340347Y-20407955D01*
X92241744Y-20260385D01*
X92173824Y-20096413D01*
X92139200Y-19922342D01*
X92139200Y-19744860D01*
X92173824Y-19570789D01*
X92241744Y-19406817D01*
X92340347Y-19259247D01*
X92465846Y-19133748D01*
X92613416Y-19035145D01*
X92777388Y-18967225D01*
X92926688Y-18937528D01*
X92951458Y-18932601D01*
X93128942Y-18932601D01*
X93153712Y-18937528D01*
G37*
G36*
X86194112Y-18937528D02*
G01*
X86343412Y-18967225D01*
X86507384Y-19035145D01*
X86654954Y-19133748D01*
X86780453Y-19259247D01*
X86879056Y-19406817D01*
X86946976Y-19570789D01*
X86981600Y-19744860D01*
X86981600Y-19922342D01*
X86946976Y-20096413D01*
X86879056Y-20260385D01*
X86780453Y-20407955D01*
X86654954Y-20533454D01*
X86507384Y-20632057D01*
X86343412Y-20699977D01*
X86194112Y-20729674D01*
X86169342Y-20734601D01*
X85991858Y-20734601D01*
X85967088Y-20729674D01*
X85817788Y-20699977D01*
X85653816Y-20632057D01*
X85506246Y-20533454D01*
X85380747Y-20407955D01*
X85282144Y-20260385D01*
X85214224Y-20096413D01*
X85179600Y-19922342D01*
X85179600Y-19744860D01*
X85214224Y-19570789D01*
X85282144Y-19406817D01*
X85380747Y-19259247D01*
X85506246Y-19133748D01*
X85653816Y-19035145D01*
X85817788Y-18967225D01*
X85967088Y-18937528D01*
X85991858Y-18932601D01*
X86169342Y-18932601D01*
X86194112Y-18937528D01*
G37*
G36*
X79259912Y-18937528D02*
G01*
X79409212Y-18967225D01*
X79573184Y-19035145D01*
X79720754Y-19133748D01*
X79846253Y-19259247D01*
X79944856Y-19406817D01*
X80012776Y-19570789D01*
X80047400Y-19744860D01*
X80047400Y-19922342D01*
X80012776Y-20096413D01*
X79944856Y-20260385D01*
X79846253Y-20407955D01*
X79720754Y-20533454D01*
X79573184Y-20632057D01*
X79409212Y-20699977D01*
X79259912Y-20729674D01*
X79235142Y-20734601D01*
X79057658Y-20734601D01*
X79032888Y-20729674D01*
X78883588Y-20699977D01*
X78719616Y-20632057D01*
X78572046Y-20533454D01*
X78446547Y-20407955D01*
X78347944Y-20260385D01*
X78280024Y-20096413D01*
X78245400Y-19922342D01*
X78245400Y-19744860D01*
X78280024Y-19570789D01*
X78347944Y-19406817D01*
X78446547Y-19259247D01*
X78572046Y-19133748D01*
X78719616Y-19035145D01*
X78883588Y-18967225D01*
X79032888Y-18937528D01*
X79057658Y-18932601D01*
X79235142Y-18932601D01*
X79259912Y-18937528D01*
G37*
G36*
X72351112Y-18937528D02*
G01*
X72500412Y-18967225D01*
X72664384Y-19035145D01*
X72811954Y-19133748D01*
X72937453Y-19259247D01*
X73036056Y-19406817D01*
X73103976Y-19570789D01*
X73138600Y-19744860D01*
X73138600Y-19922342D01*
X73103976Y-20096413D01*
X73036056Y-20260385D01*
X72937453Y-20407955D01*
X72811954Y-20533454D01*
X72664384Y-20632057D01*
X72500412Y-20699977D01*
X72351112Y-20729674D01*
X72326342Y-20734601D01*
X72148858Y-20734601D01*
X72124088Y-20729674D01*
X71974788Y-20699977D01*
X71810816Y-20632057D01*
X71663246Y-20533454D01*
X71537747Y-20407955D01*
X71439144Y-20260385D01*
X71371224Y-20096413D01*
X71336600Y-19922342D01*
X71336600Y-19744860D01*
X71371224Y-19570789D01*
X71439144Y-19406817D01*
X71537747Y-19259247D01*
X71663246Y-19133748D01*
X71810816Y-19035145D01*
X71974788Y-18967225D01*
X72124088Y-18937528D01*
X72148858Y-18932601D01*
X72326342Y-18932601D01*
X72351112Y-18937528D01*
G37*
G36*
X58533512Y-18937528D02*
G01*
X58682812Y-18967225D01*
X58846784Y-19035145D01*
X58994354Y-19133748D01*
X59119853Y-19259247D01*
X59218456Y-19406817D01*
X59286376Y-19570789D01*
X59321000Y-19744860D01*
X59321000Y-19922342D01*
X59286376Y-20096413D01*
X59218456Y-20260385D01*
X59119853Y-20407955D01*
X58994354Y-20533454D01*
X58846784Y-20632057D01*
X58682812Y-20699977D01*
X58533512Y-20729674D01*
X58508742Y-20734601D01*
X58331258Y-20734601D01*
X58306488Y-20729674D01*
X58157188Y-20699977D01*
X57993216Y-20632057D01*
X57845646Y-20533454D01*
X57720147Y-20407955D01*
X57621544Y-20260385D01*
X57553624Y-20096413D01*
X57519000Y-19922342D01*
X57519000Y-19744860D01*
X57553624Y-19570789D01*
X57621544Y-19406817D01*
X57720147Y-19259247D01*
X57845646Y-19133748D01*
X57993216Y-19035145D01*
X58157188Y-18967225D01*
X58306488Y-18937528D01*
X58331258Y-18932601D01*
X58508742Y-18932601D01*
X58533512Y-18937528D01*
G37*
G36*
X51594911Y-18937528D02*
G01*
X51744211Y-18967225D01*
X51908183Y-19035145D01*
X52055753Y-19133748D01*
X52181252Y-19259247D01*
X52279855Y-19406817D01*
X52347775Y-19570789D01*
X52382399Y-19744860D01*
X52382399Y-19922342D01*
X52347775Y-20096413D01*
X52279855Y-20260385D01*
X52181252Y-20407955D01*
X52055753Y-20533454D01*
X51908183Y-20632057D01*
X51744211Y-20699977D01*
X51594911Y-20729674D01*
X51570141Y-20734601D01*
X51392657Y-20734601D01*
X51367887Y-20729674D01*
X51218587Y-20699977D01*
X51054615Y-20632057D01*
X50907045Y-20533454D01*
X50781546Y-20407955D01*
X50682943Y-20260385D01*
X50615023Y-20096413D01*
X50580399Y-19922342D01*
X50580399Y-19744860D01*
X50615023Y-19570789D01*
X50682943Y-19406817D01*
X50781546Y-19259247D01*
X50907045Y-19133748D01*
X51054615Y-19035145D01*
X51218587Y-18967225D01*
X51367887Y-18937528D01*
X51392657Y-18932601D01*
X51570141Y-18932601D01*
X51594911Y-18937528D01*
G37*
G36*
X44664912Y-18937528D02*
G01*
X44814212Y-18967225D01*
X44978184Y-19035145D01*
X45125754Y-19133748D01*
X45251253Y-19259247D01*
X45349856Y-19406817D01*
X45417776Y-19570789D01*
X45452400Y-19744860D01*
X45452400Y-19922342D01*
X45417776Y-20096413D01*
X45349856Y-20260385D01*
X45251253Y-20407955D01*
X45125754Y-20533454D01*
X44978184Y-20632057D01*
X44814212Y-20699977D01*
X44664912Y-20729674D01*
X44640142Y-20734601D01*
X44462658Y-20734601D01*
X44437888Y-20729674D01*
X44288588Y-20699977D01*
X44124616Y-20632057D01*
X43977046Y-20533454D01*
X43851547Y-20407955D01*
X43752944Y-20260385D01*
X43685024Y-20096413D01*
X43650400Y-19922342D01*
X43650400Y-19744860D01*
X43685024Y-19570789D01*
X43752944Y-19406817D01*
X43851547Y-19259247D01*
X43977046Y-19133748D01*
X44124616Y-19035145D01*
X44288588Y-18967225D01*
X44437888Y-18937528D01*
X44462658Y-18932601D01*
X44640142Y-18932601D01*
X44664912Y-18937528D01*
G37*
G36*
X65416912Y-18937528D02*
G01*
X65566212Y-18967225D01*
X65730184Y-19035145D01*
X65877754Y-19133748D01*
X66003253Y-19259247D01*
X66101856Y-19406817D01*
X66169776Y-19570789D01*
X66204400Y-19744860D01*
X66204400Y-19922342D01*
X66169776Y-20096413D01*
X66101856Y-20260385D01*
X66003253Y-20407955D01*
X65877754Y-20533454D01*
X65730184Y-20632057D01*
X65566212Y-20699977D01*
X65416912Y-20729674D01*
X65392142Y-20734601D01*
X65214658Y-20734601D01*
X65189888Y-20729674D01*
X65040588Y-20699977D01*
X64876616Y-20632057D01*
X64729046Y-20533454D01*
X64603547Y-20407955D01*
X64504944Y-20260385D01*
X64437024Y-20096413D01*
X64402400Y-19922342D01*
X64402400Y-19744860D01*
X64437024Y-19570789D01*
X64504944Y-19406817D01*
X64603547Y-19259247D01*
X64729046Y-19133748D01*
X64876616Y-19035145D01*
X65040588Y-18967225D01*
X65189888Y-18937528D01*
X65214658Y-18932601D01*
X65392142Y-18932601D01*
X65416912Y-18937528D01*
G37*
G36*
X80047400Y-18194601D02*
G01*
X78245400Y-18194601D01*
X78245400Y-16392601D01*
X80047400Y-16392601D01*
X80047400Y-18194601D01*
G37*
G36*
X86981600Y-18194601D02*
G01*
X85179600Y-18194601D01*
X85179600Y-16392601D01*
X86981600Y-16392601D01*
X86981600Y-18194601D01*
G37*
G36*
X45452400Y-18194601D02*
G01*
X43650400Y-18194601D01*
X43650400Y-16392601D01*
X45452400Y-16392601D01*
X45452400Y-18194601D01*
G37*
G36*
X52382399Y-18194601D02*
G01*
X50580399Y-18194601D01*
X50580399Y-16392601D01*
X52382399Y-16392601D01*
X52382399Y-18194601D01*
G37*
G36*
X59321000Y-18194601D02*
G01*
X57519000Y-18194601D01*
X57519000Y-16392601D01*
X59321000Y-16392601D01*
X59321000Y-18194601D01*
G37*
G36*
X66204400Y-18194601D02*
G01*
X64402400Y-18194601D01*
X64402400Y-16392601D01*
X66204400Y-16392601D01*
X66204400Y-18194601D01*
G37*
G36*
X73138600Y-18194601D02*
G01*
X71336600Y-18194601D01*
X71336600Y-16392601D01*
X73138600Y-16392601D01*
X73138600Y-18194601D01*
G37*
G36*
X93941200Y-18194601D02*
G01*
X92139200Y-18194601D01*
X92139200Y-16392601D01*
X93941200Y-16392601D01*
X93941200Y-18194601D01*
G37*
G36*
X44436239Y-8611467D02*
G01*
X44750282Y-8673934D01*
X45341926Y-8919001D01*
X45874392Y-9274784D01*
X46327216Y-9727608D01*
X46682999Y-10260074D01*
X46928066Y-10851718D01*
X46928066Y-10851719D01*
X47053000Y-11479803D01*
X47053000Y-12120197D01*
X46990533Y-12434239D01*
X46928066Y-12748282D01*
X46682999Y-13339926D01*
X46327216Y-13872392D01*
X45874392Y-14325216D01*
X45341926Y-14680999D01*
X44750282Y-14926066D01*
X44436239Y-14988533D01*
X44122197Y-15051000D01*
X43481803Y-15051000D01*
X43167761Y-14988533D01*
X42853718Y-14926066D01*
X42262074Y-14680999D01*
X41729608Y-14325216D01*
X41276784Y-13872392D01*
X40921001Y-13339926D01*
X40675934Y-12748282D01*
X40613467Y-12434239D01*
X40551000Y-12120197D01*
X40551000Y-11479803D01*
X40675934Y-10851719D01*
X40675934Y-10851718D01*
X40921001Y-10260074D01*
X41276784Y-9727608D01*
X41729608Y-9274784D01*
X42262074Y-8919001D01*
X42853718Y-8673934D01*
X43167761Y-8611467D01*
X43481803Y-8549000D01*
X44122197Y-8549000D01*
X44436239Y-8611467D01*
G37*
G36*
X94436439Y-8611467D02*
G01*
X94750482Y-8673934D01*
X95342126Y-8919001D01*
X95874592Y-9274784D01*
X96327416Y-9727608D01*
X96683199Y-10260074D01*
X96928266Y-10851718D01*
X96928266Y-10851719D01*
X97053200Y-11479803D01*
X97053200Y-12120197D01*
X96990733Y-12434239D01*
X96928266Y-12748282D01*
X96683199Y-13339926D01*
X96327416Y-13872392D01*
X95874592Y-14325216D01*
X95342126Y-14680999D01*
X94750482Y-14926066D01*
X94436439Y-14988533D01*
X94122397Y-15051000D01*
X93482003Y-15051000D01*
X93167961Y-14988533D01*
X92853918Y-14926066D01*
X92262274Y-14680999D01*
X91729808Y-14325216D01*
X91276984Y-13872392D01*
X90921201Y-13339926D01*
X90676134Y-12748282D01*
X90613667Y-12434239D01*
X90551200Y-12120197D01*
X90551200Y-11479803D01*
X90676134Y-10851719D01*
X90676134Y-10851718D01*
X90921201Y-10260074D01*
X91276984Y-9727608D01*
X91729808Y-9274784D01*
X92262274Y-8919001D01*
X92853918Y-8673934D01*
X93167961Y-8611467D01*
X93482003Y-8549000D01*
X94122397Y-8549000D01*
X94436439Y-8611467D01*
G37*
M02*
